<svg xmlns="http://www.w3.org/2000/svg" width="991" height="745.566" viewBox="0 0 991 745.566">
  <g id="Group_1973" data-name="Group 1973" transform="translate(-7614 3124.566)">
    <g id="Group_1965" data-name="Group 1965" transform="translate(-1019 -4379)">
      <g id="Rectangle_1193" data-name="Rectangle 1193" transform="translate(8633 1266)" fill="#fff" stroke="#62c9d5" stroke-width="7">
        <rect width="991" height="734" rx="20" stroke="none"/>
        <rect x="3.5" y="3.5" width="984" height="727" rx="16.5" fill="none"/>
      </g>
    </g>
    <path id="Path_4394" data-name="Path 4394" d="M7273.159-2473.76C7153.687-2491.64,7167.5-2379,7167.5-2379l95.089-4.546,10.566-12.191Z" transform="translate(1331.841)" fill="#62c9d5"/>
    <path id="Path_4397" data-name="Path 4397" d="M113.022,28.921c-1.808,3.329-8.379,8.279-8.91,8.609a104.956,104.956,0,0,1,7.733,11.779c1.435,2.382,2.654,4.821,3.931,7.289-.416-1.22-.775-2.3-.8-2.453-.961-4.4-.23-13.472,4.132-16a5.983,5.983,0,0,1,8.379,2.97c1.435,3.243.23,7.446-1.435,10.4s-7.174,7.332-8.609,8.451c.473.961.961,1.894,1.435,2.87,2.281,4.562,4.52,9.125,6.858,13.53.832,1.55,1.693,3.056,2.568,4.563-.373-1.076-.674-1.994-.7-2.138-.947-4.39-.215-13.458,4.146-16a5.969,5.969,0,0,1,8.365,2.97c1.435,3.243.244,7.461-1.363,10.416s-6.614,6.9-8.365,8.25c.933,1.435,1.865,3.027,2.87,4.448.689.961,1.277,1.937,2.023,2.87L137.4,94.5c1.435,1.707,2.87,3.486,4.3,5.108.976,1.148,1.937,2.21,2.87,3.3-.832-1.55-2.41-4.591-2.511-4.864-1.621-4.2-2.267-13.272,1.664-16.428a5.954,5.954,0,0,1,8.723,1.664c1.937,2.984,1.435,7.332.23,10.488-1.263,3.486-6.758,9.168-7.446,9.871,1.593,1.779,3.156,3.5,4.663,5.093,3.314,3.544,6.342,6.614,8.953,9.168l-1.923,2.669c-2.654-2.7-5.739-5.983-9.182-9.785-1.621-1.793-3.314-3.759-5.05-5.739a64.236,64.236,0,0,1-6.729,3.573c.689,3.745-.66,10.99-.847,11.923,2.31.617,4.577,1.177,6.7,1.679,4.476,1.062,8.494,1.908,11.952,2.6l-2.138,2.87c-3.128-.7-6.672-1.535-10.531-2.554-2.353-.6-4.85-1.291-7.4-2.037-.416.875-3.8,8.035-6.629,10.445-2.568,2.181-6.428,4.3-9.914,3.472a5.983,5.983,0,0,1-4.62-7.59c1.578-4.778,10.3-7.36,14.807-7.332.273,0,3.142.344,4.964.6l-3.128-.933c-2.123-.631-4.3-1.334-6.485-2.08l-3.271-1.205a34.757,34.757,0,0,1-3.329-1.435c-2.583-1.1-5.136-2.367-7.676-3.687-.56,1.851-2.654,8.422-4.864,10.976s-5.739,5.165-9.269,4.936a5.983,5.983,0,0,1-5.739-6.8c.846-4.979,9.068-8.852,13.53-9.5.273,0,3.529-.143,5.309-.172-1.521-.8-3.042-1.593-4.563-2.468-4.3-2.5-8.709-5.165-13.071-7.819l-4-2.4c-.187.66-2.511,8.522-4.979,11.378-2.21,2.54-5.739,5.179-9.269,4.936a5.968,5.968,0,0,1-5.739-6.786c.846-4.979,9.068-8.852,13.53-9.5.33,0,5.007-.2,6.2-.172-2.87-1.765-5.882-3.486-8.852-5.065a103.72,103.72,0,0,0-12.411-5.653c-.086.3-2.468,8.508-5.007,11.478-2.2,2.54-5.739,5.165-9.254,4.936a5.969,5.969,0,0,1-5.739-6.8c.832-4.979,9.068-8.838,13.53-9.5.344,0,5.38-.2,6.284-.158l-.732-.3a76.389,76.389,0,0,0-13.272-3.343c-2.482-.43-4.878-.7-7.174-.918-.287,1.578-1.679,8.766-3.673,11.65s-5.108,5.739-8.609,5.926A5.969,5.969,0,0,1,24.153,96.1c.287-5.036,8.049-9.785,12.4-10.919.244-.072,2.726-.43,4.534-.66-1.062-.086-2.152-.187-3.171-.244-3.8-.215-7.3-.172-10.4-.115-1.765,0-3.357.115-4.849.2-1.076,1.435-5.538,6.987-8.609,8.609S6.879,95.738,3.636,94.231a5.94,5.94,0,0,1-2.87-8.393c2.568-4.3,11.65-4.979,16.041-3.974.373.086,6.155,2.123,6.1,2.2l-.072.086c1.435-.115,2.97-.23,4.649-.3,3.113-.129,6.614-.244,10.445-.1a108.182,108.182,0,0,1,12.325,1.019,76.779,76.779,0,0,1,13.487,3.1H63.9c-1.205-.861-4.462-3.4-4.692-3.616-3.228-3.142-7.619-11.119-5.38-15.639a5.983,5.983,0,0,1,8.609-2.138c3.013,1.894,4.3,6.083,4.606,9.441.316,3.773-2.425,11.478-2.654,12.138A106.757,106.757,0,0,1,77.3,93.614c2.439,1.234,4.878,2.554,7.289,3.9-1.019-.775-1.908-1.435-2.023-1.593C79.334,92.782,74.944,84.805,77.2,80.3A5.969,5.969,0,0,1,85.8,78.148c3.013,1.908,4.3,6.083,4.606,9.441S88.488,97.632,87.871,99.4l2.769,1.578c4.419,2.554,8.809,5.122,13.2,7.5,1.535.846,3.085,1.607,4.634,2.4l-1.75-1.435c-3.214-3.142-7.6-11.119-5.366-15.625a5.983,5.983,0,0,1,8.609-2.152c3.013,1.894,4.3,6.1,4.591,9.441s-1.707,9.412-2.425,11.478c1.621.746,3.228,1.506,4.821,2.152,1.1.43,2.138.9,3.257,1.263l3.3,1.133c2.123.646,4.3,1.32,6.385,1.894,1.435.416,2.87.775,4.233,1.148-1.55-.818-4.548-2.482-4.778-2.654a23.042,23.042,0,0,1-7.174-9.24,8.164,8.164,0,0,1-1-.861,5.969,5.969,0,0,1,.33-8.881c3.96-3.113,12.655-.459,16.4,2.052.215.158,2.425,2.023,3.8,3.228-.7-.832-1.435-1.621-2.095-2.5-1.435-1.693-2.783-3.443-4.3-5.309-.689-.918-1.435-1.865-2.066-2.87s-1.334-1.994-2.023-3c-1.535-2.353-2.97-4.806-4.3-7.317-1.435,1.248-6.858,5.567-10.043,6.471s-7.6,1.162-10.445-.99a5.969,5.969,0,0,1-1.019-8.824c3.443-3.687,12.439-2.367,16.514-.459.258.129,3.027,1.822,4.534,2.87-.832-1.521-1.664-3.027-2.453-4.591-2.267-4.491-4.419-9.125-6.586-13.731-.66-1.435-1.334-2.8-2.009-4.2-.531.445-6.8,5.739-10.445,6.743-3.243.9-7.619,1.162-10.445-1A5.94,5.94,0,0,1,93.495,56.3c3.443-3.687,12.439-2.382,16.514-.459.3.143,4.3,2.6,5.266,3.271-1.435-3.085-3-6.155-4.606-9.111A104.807,104.807,0,0,0,103.5,38.434c-.244.215-6.758,5.739-10.488,6.786-3.243.9-7.619,1.162-10.459-.99a5.969,5.969,0,0,1-1.019-8.824c3.443-3.687,12.454-2.367,16.528-.459.316.158,4.591,2.8,5.337,3.343-.158-.215-.287-.459-.445-.674a79.383,79.383,0,0,0-9.211-10.043c-1.837-1.722-3.687-3.271-5.524-4.749-1.1,1.162-6.227,6.385-9.484,7.69s-7.446,1.994-10.5.158a5.954,5.954,0,0,1-1.98-8.609c3.013-4.046,12.109-3.73,16.371-2.267.23,0,2.5,1.148,4.132,1.951l-2.5-1.951c-3.056-2.281-6-4.175-8.609-5.839-1.435-.933-2.87-1.75-4.146-2.5-1.679.56-8.479,2.755-11.909,2.425s-7.518-1.65-9.383-4.692A5.969,5.969,0,0,1,52.432.585C56.98-1.611,64.9,2.851,68,6.108c.273.287,3.974,5.18,3.888,5.208h-.1c1.248.689,2.6,1.435,4.032,2.31,2.669,1.621,5.653,3.458,8.766,5.739A106.968,106.968,0,0,1,94.3,27.027,76.7,76.7,0,0,1,103.84,37.07l.1.129c-.517-1.435-1.851-5.294-1.908-5.61-.961-4.39-.23-13.458,4.132-16a5.983,5.983,0,0,1,8.379,2.97C115.863,21.747,114.629,25.966,113.022,28.921Z" transform="matrix(-0.927, -0.375, 0.375, -0.927, 8539.933, -2937.85)" fill="#62c9d5"/>
    <g id="freepik--background-complete--inject-35" transform="translate(7661.179 -3067.1)">
      <rect id="Rectangle_1363" data-name="Rectangle 1363" width="930.15" height="0.314" transform="translate(0 451.555)" fill="#e6e6e6"/>
      <rect id="Rectangle_1364" data-name="Rectangle 1364" width="13.324" height="0.314" transform="translate(821.524 469.174)" fill="#e6e6e6"/>
      <rect id="Rectangle_1365" data-name="Rectangle 1365" width="54.187" height="0.314" transform="translate(696.034 469.324)" fill="#e6e6e6"/>
      <rect id="Rectangle_1366" data-name="Rectangle 1366" width="91.446" height="0.314" transform="translate(465.019 466.336)" fill="#e6e6e6"/>
      <rect id="Rectangle_1367" data-name="Rectangle 1367" width="29.021" height="0.314" transform="translate(324.727 471.786)" fill="#e6e6e6"/>
      <rect id="Rectangle_1368" data-name="Rectangle 1368" width="39.959" height="0.314" transform="translate(163.766 466.486)" fill="#e6e6e6"/>
      <rect id="Rectangle_1369" data-name="Rectangle 1369" width="37.347" height="0.314" transform="translate(234.468 466.486)" fill="#e6e6e6"/>
      <rect id="Rectangle_1370" data-name="Rectangle 1370" width="38.138" height="0.314" transform="translate(81.99 460.999)" fill="#e6e6e6"/>
      <path id="Path_2459" data-name="Path 2459" d="M287.848,410.136H45.368a7.171,7.171,0,0,1-7.158-7.171V62.108A7.171,7.171,0,0,1,45.368,55h242.48a7.171,7.171,0,0,1,7.171,7.171v340.8A7.171,7.171,0,0,1,287.848,410.136ZM45.368,55.251a6.857,6.857,0,0,0-6.844,6.857V402.966a6.857,6.857,0,0,0,6.844,6.857h242.48a6.869,6.869,0,0,0,6.857-6.857V62.108a6.869,6.869,0,0,0-6.857-6.857Z" transform="translate(9.774 -55)" fill="#e6e6e6"/>
      <path id="Path_2460" data-name="Path 2460" d="M504.163,410.136H261.671a7.183,7.183,0,0,1-7.171-7.171V62.108A7.183,7.183,0,0,1,261.671,55H504.163a7.171,7.171,0,0,1,7.145,7.108V402.966A7.171,7.171,0,0,1,504.163,410.136ZM261.671,55.251a6.869,6.869,0,0,0-6.857,6.857V402.966a6.869,6.869,0,0,0,6.857,6.857H504.163a6.869,6.869,0,0,0,6.857-6.857V62.108a6.869,6.869,0,0,0-6.857-6.857Z" transform="translate(367.355 -55)" fill="#e6e6e6"/>
      <rect id="Rectangle_1371" data-name="Rectangle 1371" width="195.589" height="170.197" transform="translate(67.925 26.962)" fill="#e6e6e6"/>
      <rect id="Rectangle_1372" data-name="Rectangle 1372" width="199.858" height="170.197" transform="translate(71.668 26.962)" fill="#f0f0f0"/>
      <rect id="Rectangle_1373" data-name="Rectangle 1373" width="195.589" height="6.831" transform="translate(67.925 215.911)" fill="#e6e6e6"/>
      <rect id="Rectangle_1374" data-name="Rectangle 1374" width="199.858" height="6.831" transform="translate(85.004 215.911)" fill="#f0f0f0"/>
      <rect id="Rectangle_1375" data-name="Rectangle 1375" width="147.793" height="177.442" transform="translate(260.324 38.163) rotate(90)" fill="#fafafa"/>
      <path id="Path_2461" data-name="Path 2461" d="M88.88,233.183,123.113,85.39h46.979L135.859,233.183Z" transform="translate(84.445 -47.227)" fill="#fff"/>
      <path id="Path_2462" data-name="Path 2462" d="M71.3,207.162a.8.8,0,0,1-.8-.8v-115a.8.8,0,1,1,1.607,0v115a.8.8,0,0,1-.8.8Z" transform="translate(18.033 -45.907)" fill="#e6e6e6"/>
      <path id="Path_2463" data-name="Path 2463" d="M133.96,233.183,168.193,85.39h16.25L150.21,233.183Z" transform="translate(122.326 -47.227)" fill="#fff"/>
      <rect id="Rectangle_1376" data-name="Rectangle 1376" width="147.793" height="1.419" transform="translate(385.221 38.151) rotate(90)" fill="#e6e6e6"/>
      <path id="Path_2464" data-name="Path 2464" d="M258.378,87.053H62.79l-1.03-3.4H257.349Z" transform="translate(15.797 -47.672)" fill="#e0e0e0"/>
      <path id="Path_2465" data-name="Path 2465" d="M258.378,91.523H62.79l-1.03-3.4H257.349Z" transform="translate(15.797 -46.528)" fill="#e0e0e0"/>
      <path id="Path_2466" data-name="Path 2466" d="M258.378,95.993H62.79l-1.03-3.4H257.349Z" transform="translate(15.797 -45.385)" fill="#e0e0e0"/>
      <path id="Path_2467" data-name="Path 2467" d="M258.378,100.463H62.79l-1.03-3.4H257.349Z" transform="translate(15.797 -44.242)" fill="#e0e0e0"/>
      <path id="Path_2468" data-name="Path 2468" d="M258.378,104.933H62.79l-1.03-3.4H257.349Z" transform="translate(15.797 -43.098)" fill="#e0e0e0"/>
      <path id="Path_2469" data-name="Path 2469" d="M258.378,109.4H62.79L61.76,106H257.349Z" transform="translate(15.797 -41.955)" fill="#e0e0e0"/>
      <rect id="Rectangle_1377" data-name="Rectangle 1377" width="82.241" height="146.613" transform="translate(658.992 38.038)" fill="#e6e6e6"/>
      <path id="Path_2470" data-name="Path 2470" d="M375.856,94.018a6.279,6.279,0,1,1,6.342-6.279A6.279,6.279,0,0,1,375.856,94.018Zm0-11.428a5.023,5.023,0,1,0,3.592,1.449A5.023,5.023,0,0,0,375.856,82.59Z" transform="translate(322.561 -48.232)" fill="#e0e0e0"/>
      <rect id="Rectangle_1378" data-name="Rectangle 1378" width="84.941" height="146.613" transform="translate(669.798 38.038)" fill="#f0f0f0"/>
      <rect id="Rectangle_1379" data-name="Rectangle 1379" width="132.385" height="70.713" transform="translate(745.378 45.145) rotate(90)" fill="#fafafa"/>
      <rect id="Rectangle_1380" data-name="Rectangle 1380" width="132.385" height="0.879" transform="translate(810.36 45.145) rotate(90)" fill="#e0e0e0"/>
      <path id="Path_2471" data-name="Path 2471" d="M354.76,243.56s.879,14.781,34.471,14.781S423.69,243.56,423.69,243.56Z" transform="translate(331.646 16.183)" fill="#e6e6e6"/>
      <rect id="Rectangle_1381" data-name="Rectangle 1381" width="34.308" height="141.301" transform="translate(518.045 303.586)" fill="#e6e6e6"/>
      <rect id="Rectangle_1382" data-name="Rectangle 1382" width="179.251" height="6.668" transform="translate(585.548 444.887)" fill="#e6e6e6"/>
      <rect id="Rectangle_1383" data-name="Rectangle 1383" width="158.116" height="141.301" transform="translate(837.938 444.887) rotate(180)" fill="#f5f5f5"/>
      <rect id="Rectangle_1384" data-name="Rectangle 1384" width="131.142" height="34.509" transform="translate(760.136 383.289) rotate(180)" fill="#e6e6e6"/>
      <rect id="Rectangle_1385" data-name="Rectangle 1385" width="131.142" height="34.509" transform="translate(760.136 432.304) rotate(180)" fill="#e6e6e6"/>
      <path id="Path_2472" data-name="Path 2472" d="M387.7,311.064H348.481a2.361,2.361,0,0,1-2.361-2.361h0a2.374,2.374,0,0,1,2.361-2.373H387.7a2.373,2.373,0,0,1,2.361,2.373h0A2.361,2.361,0,0,1,387.7,311.064Z" transform="translate(313.511 39.159)" fill="#f5f5f5"/>
      <rect id="Rectangle_1386" data-name="Rectangle 1386" width="131.142" height="34.509" transform="translate(760.136 338.324) rotate(180)" fill="#e6e6e6"/>
      <path id="Path_2473" data-name="Path 2473" d="M387.7,278.574H348.481a2.374,2.374,0,0,1-2.361-2.373h0a2.361,2.361,0,0,1,2.361-2.361H387.7a2.361,2.361,0,0,1,2.361,2.361h0a2.373,2.373,0,0,1-2.361,2.373Z" transform="translate(313.511 26.987)" fill="#f5f5f5"/>
      <path id="Path_2474" data-name="Path 2474" d="M387.7,343.564H348.481a2.373,2.373,0,0,1-2.361-2.373h0a2.361,2.361,0,0,1,2.361-2.361H387.7a2.361,2.361,0,0,1,2.361,2.361h0a2.373,2.373,0,0,1-2.361,2.373Z" transform="translate(313.511 58.01)" fill="#f5f5f5"/>
      <rect id="Rectangle_1387" data-name="Rectangle 1387" width="162.687" height="11.603" transform="translate(679.822 275.772)" fill="#ebebeb"/>
      <rect id="Rectangle_1388" data-name="Rectangle 1388" width="39.105" height="11.603" transform="translate(551.314 287.389) rotate(180)" fill="#e0e0e0"/>
      <rect id="Rectangle_1389" data-name="Rectangle 1389" width="34.095" height="40.863" transform="translate(572.012 273.358) rotate(180)" fill="#e6e6e6"/>
      <rect id="Rectangle_1390" data-name="Rectangle 1390" width="60.504" height="40.863" transform="translate(598.62 232.509)" fill="#fafafa"/>
      <path id="Path_2475" data-name="Path 2475" d="M351.891,241.077c0,2.926-6.279,5.287-13.952,5.287S324,243.965,324,241.077s6.279-5.287,13.964-5.287S351.891,238.126,351.891,241.077Z" transform="translate(287.842 13.03)" fill="#fff"/>
      <rect id="Rectangle_1391" data-name="Rectangle 1391" width="94.95" height="2.8" transform="translate(653.587 239.092) rotate(180)" fill="#e0e0e0" opacity="0.7"/>
      <rect id="Rectangle_1392" data-name="Rectangle 1392" width="35.978" height="8.112" transform="translate(571.609 237.08) rotate(180)" fill="#e6e6e6"/>
      <rect id="Rectangle_1393" data-name="Rectangle 1393" width="62.375" height="8.112" transform="translate(599.309 228.954)" fill="#fafafa"/>
      <path id="Path_2476" data-name="Path 2476" d="M200.314,239.06H70.34l8.112,180H208.426Z" transform="translate(17.992 32.491)" fill="#e6e6e6"/>
      <path id="Path_2477" data-name="Path 2477" d="M201.814,239.06H71.84l8.112,180H209.926Z" transform="translate(18.376 32.491)" fill="#fafafa"/>
      <rect id="Rectangle_1394" data-name="Rectangle 1394" width="34.095" height="40.863" transform="translate(213.476 451.555) rotate(180)" fill="#e0e0e0"/>
      <rect id="Rectangle_1395" data-name="Rectangle 1395" width="163.214" height="40.863" transform="translate(252.488 410.692)" fill="#f0f0f0"/>
      <rect id="Rectangle_1396" data-name="Rectangle 1396" width="197.673" height="2.8" transform="translate(400.062 418.729) rotate(180)" fill="#e0e0e0" opacity="0.7"/>
      <rect id="Rectangle_1397" data-name="Rectangle 1397" width="35.978" height="8.112" transform="translate(212.726 417.109) rotate(180)" fill="#e0e0e0"/>
      <rect id="Rectangle_1398" data-name="Rectangle 1398" width="165.098" height="8.112" transform="translate(252.893 408.996)" fill="#f0f0f0"/>
      <rect id="Rectangle_1399" data-name="Rectangle 1399" width="44.367" height="73.828" transform="translate(267.724 408.996) rotate(180)" fill="#e6e6e6"/>
      <rect id="Rectangle_1400" data-name="Rectangle 1400" width="110.861" height="73.828" transform="translate(303.443 335.169)" fill="#ebebeb"/>
      <rect id="Rectangle_1401" data-name="Rectangle 1401" width="155.692" height="3.642" transform="translate(396.997 333.676) rotate(180)" fill="#e0e0e0" opacity="0.7"/>
      <rect id="Rectangle_1402" data-name="Rectangle 1402" width="46.816" height="16.777" transform="translate(266.771 330.983) rotate(180)" fill="#e6e6e6"/>
      <rect id="Rectangle_1403" data-name="Rectangle 1403" width="113.31" height="16.777" transform="translate(303.975 314.205)" fill="#ebebeb"/>
      <circle id="Ellipse_177" data-name="Ellipse 177" cx="31.357" cy="31.357" r="31.357" transform="translate(66.356 388.841)" fill="#f0f0f0"/>
      <path id="Path_2478" data-name="Path 2478" d="M66.7,343.664c1.859-1.934,2.612-4.245,1.658-5.149s-3.227-.088-5.086,1.846-2.612,4.245-1.67,5.161S64.83,345.61,66.7,343.664Z" transform="translate(15.653 57.836)" fill="#e0e0e0" opacity="0.7"/>
      <path id="Path_2479" data-name="Path 2479" d="M77.071,338.848c2.637-.5,4.584-1.959,4.332-3.252s-2.587-1.934-5.237-1.419-4.571,1.959-4.332,3.253S74.371,339.363,77.071,338.848Z" transform="translate(18.369 56.774)" fill="#e0e0e0" opacity="0.7"/>
      <path id="Path_2480" data-name="Path 2480" d="M74.98,347.819c2.512-.892,4.157-2.876,3.6-4.433s-3.052-2.1-5.588-1.256-4.144,2.876-3.6,4.433S72.443,348.711,74.98,347.819Z" transform="translate(17.723 58.754)" fill="#e0e0e0" opacity="0.7"/>
    </g>
    <g id="freepik--Shadow--inject-35" transform="translate(7860.073 -2627.675)">
      <ellipse id="Ellipse_178" data-name="Ellipse 178" cx="243.484" cy="14.215" rx="243.484" ry="14.215" fill="#f5f5f5"/>
    </g>
    <path id="Path_4396" data-name="Path 4396" d="M152.648,255.291c-1.808-3.329-8.379-8.279-8.91-8.609a104.956,104.956,0,0,0,7.733-11.779c1.435-2.382,2.654-4.821,3.931-7.289-.416,1.22-.775,2.3-.8,2.453-.961,4.4-.23,13.472,4.132,16a5.983,5.983,0,0,0,8.379-2.97c1.435-3.243.23-7.446-1.435-10.4s-7.174-7.332-8.609-8.451c.473-.961.961-1.894,1.435-2.87,2.281-4.562,4.52-9.125,6.858-13.53.832-1.55,1.693-3.056,2.568-4.563-.373,1.076-.674,1.994-.7,2.138-.947,4.39-.215,13.458,4.146,16a5.969,5.969,0,0,0,8.365-2.97c1.435-3.243.244-7.461-1.363-10.416s-6.614-6.9-8.365-8.25c.933-1.435,1.865-3.027,2.87-4.448.689-.961,1.277-1.937,2.023-2.87l2.123-2.755c1.435-1.707,2.87-3.486,4.3-5.108.976-1.148,1.937-2.21,2.87-3.3-.832,1.55-2.41,4.591-2.511,4.864-1.621,4.2-2.267,13.272,1.664,16.428a5.954,5.954,0,0,0,8.723-1.664c1.937-2.984,1.435-7.332.23-10.488-1.263-3.486-6.758-9.168-7.446-9.871,1.593-1.779,3.156-3.5,4.663-5.093,3.314-3.544,6.342-6.614,8.953-9.168l-1.923-2.669c-2.654,2.7-5.739,5.983-9.182,9.785-1.621,1.793-3.314,3.759-5.05,5.739a64.236,64.236,0,0,0-6.729-3.573c.689-3.745-.66-10.99-.847-11.923,2.31-.617,4.577-1.177,6.7-1.679,4.476-1.062,8.494-1.908,11.952-2.6l-2.138-2.87c-3.128.7-6.672,1.535-10.531,2.554-2.353.6-4.85,1.291-7.4,2.037-.416-.875-3.8-8.035-6.629-10.445-2.568-2.181-6.428-4.3-9.914-3.472a5.983,5.983,0,0,0-4.62,7.59c1.578,4.778,10.3,7.36,14.807,7.332.273,0,3.142-.344,4.964-.6l-3.128.933c-2.123.631-4.3,1.334-6.485,2.08l-3.271,1.205a34.757,34.757,0,0,0-3.329,1.435c-2.583,1.1-5.136,2.367-7.676,3.687-.56-1.851-2.654-8.422-4.864-10.976s-5.739-5.165-9.269-4.936a5.983,5.983,0,0,0-5.739,6.8c.846,4.979,9.068,8.852,13.53,9.5.273,0,3.529.143,5.309.172-1.521.8-3.042,1.593-4.563,2.468-4.3,2.5-8.709,5.165-13.071,7.819l-4,2.4c-.187-.66-2.511-8.522-4.979-11.378-2.21-2.54-5.739-5.179-9.269-4.936a5.968,5.968,0,0,0-5.739,6.786c.846,4.979,9.068,8.852,13.53,9.5.33,0,5.007.2,6.2.172-2.87,1.765-5.882,3.486-8.852,5.065a103.72,103.72,0,0,1-12.411,5.653c-.086-.3-2.468-8.508-5.007-11.478-2.2-2.54-5.739-5.165-9.254-4.936a5.969,5.969,0,0,0-5.739,6.8c.832,4.979,9.068,8.838,13.53,9.5.344,0,5.38.2,6.284.158l-.732.3a76.39,76.39,0,0,1-13.272,3.343c-2.482.43-4.878.7-7.174.918-.287-1.578-1.679-8.766-3.673-11.65s-5.108-5.739-8.609-5.926a5.969,5.969,0,0,0-6.428,6.126c.287,5.036,8.049,9.785,12.4,10.919.244.072,2.726.43,4.534.66-1.062.086-2.152.187-3.171.244-3.8.215-7.3.172-10.4.115-1.765,0-3.357-.115-4.849-.2-1.076-1.435-5.538-6.987-8.609-8.609s-7.174-2.769-10.416-1.263a5.94,5.94,0,0,0-2.87,8.393c2.568,4.3,11.65,4.979,16.041,3.974.373-.086,6.155-2.123,6.1-2.2l-.072-.086c1.435.115,2.97.23,4.649.3,3.113.129,6.614.244,10.445.1a108.182,108.182,0,0,0,12.325-1.019,76.781,76.781,0,0,0,13.487-3.1h.158c-1.205.861-4.462,3.4-4.692,3.616-3.228,3.142-7.619,11.119-5.38,15.639a5.983,5.983,0,0,0,8.609,2.138c3.013-1.894,4.3-6.083,4.606-9.441.316-3.773-2.425-11.478-2.654-12.138a106.76,106.76,0,0,0,12.913-5.567c2.439-1.234,4.878-2.554,7.289-3.9-1.019.775-1.908,1.435-2.023,1.593-3.228,3.142-7.619,11.119-5.366,15.625a5.969,5.969,0,0,0,8.609,2.152c3.013-1.908,4.3-6.083,4.606-9.441s-1.923-10.043-2.54-11.808l2.769-1.578c4.419-2.554,8.809-5.122,13.2-7.5,1.535-.846,3.085-1.607,4.634-2.4l-1.75,1.435c-3.214,3.142-7.6,11.119-5.366,15.625a5.983,5.983,0,0,0,8.609,2.152c3.013-1.894,4.3-6.1,4.591-9.441s-1.707-9.412-2.425-11.478c1.621-.746,3.228-1.506,4.821-2.152,1.1-.43,2.138-.9,3.257-1.263l3.3-1.133c2.123-.646,4.3-1.32,6.385-1.894,1.435-.416,2.87-.775,4.233-1.148-1.55.818-4.548,2.482-4.778,2.654a23.042,23.042,0,0,0-7.174,9.24,8.164,8.164,0,0,0-1,.861,5.969,5.969,0,0,0,.33,8.881c3.96,3.113,12.655.459,16.4-2.052.215-.158,2.425-2.023,3.8-3.228-.7.832-1.435,1.621-2.095,2.5-1.435,1.693-2.783,3.443-4.3,5.309-.689.918-1.435,1.865-2.066,2.87s-1.334,1.994-2.023,3c-1.535,2.353-2.97,4.806-4.3,7.317-1.435-1.248-6.858-5.567-10.043-6.471s-7.6-1.162-10.445.99a5.969,5.969,0,0,0-1.019,8.824c3.443,3.687,12.439,2.367,16.514.459.258-.129,3.027-1.822,4.534-2.87-.832,1.521-1.664,3.027-2.453,4.591-2.267,4.491-4.419,9.125-6.586,13.731-.66,1.435-1.334,2.8-2.009,4.2-.531-.445-6.8-5.739-10.445-6.743-3.243-.9-7.619-1.162-10.445,1a5.94,5.94,0,0,0-1.019,8.809c3.443,3.687,12.439,2.382,16.514.459.3-.143,4.3-2.6,5.266-3.271-1.435,3.085-3,6.155-4.606,9.111a104.807,104.807,0,0,1-7.174,11.564c-.244-.215-6.758-5.739-10.488-6.786-3.243-.9-7.619-1.162-10.459.99a5.969,5.969,0,0,0-1.019,8.824c3.443,3.687,12.454,2.367,16.528.459.316-.158,4.591-2.8,5.337-3.343-.158.215-.287.459-.445.674a79.385,79.385,0,0,1-9.211,10.043c-1.837,1.722-3.687,3.271-5.524,4.749-1.1-1.162-6.227-6.385-9.484-7.69s-7.446-1.994-10.5-.158a5.954,5.954,0,0,0-1.98,8.609c3.013,4.046,12.109,3.73,16.371,2.267.23,0,2.5-1.148,4.132-1.951l-2.5,1.951c-3.056,2.281-6,4.175-8.609,5.839-1.435.933-2.87,1.75-4.146,2.5-1.679-.56-8.479-2.755-11.909-2.425s-7.518,1.65-9.383,4.692a5.969,5.969,0,0,0,2.224,8.609c4.548,2.2,12.468-2.267,15.567-5.524.273-.287,3.974-5.18,3.888-5.208h-.1c1.248-.689,2.6-1.435,4.032-2.31,2.669-1.621,5.653-3.458,8.766-5.739a106.968,106.968,0,0,0,9.713-7.662,76.7,76.7,0,0,0,9.541-10.043l.1-.129c-.517,1.435-1.851,5.294-1.908,5.61-.961,4.39-.23,13.458,4.132,16a5.983,5.983,0,0,0,8.379-2.97C155.489,262.465,154.255,258.246,152.648,255.291Z" transform="matrix(0.956, -0.292, 0.292, 0.956, 7535.87, -3206.591)" fill="#62c9d5"/>
  </g>
</svg>
