<svg xmlns="http://www.w3.org/2000/svg" width="991" height="734" viewBox="0 0 991 734">
  <g id="Group_1972" data-name="Group 1972" transform="translate(-6287 3113)">
    <g id="Group_1965" data-name="Group 1965" transform="translate(-2346 -4379)">
      <g id="Rectangle_1193" data-name="Rectangle 1193" transform="translate(8633 1266)" fill="#fff" stroke="#62c9d5" stroke-width="7">
        <rect width="991" height="734" rx="20" stroke="none"/>
        <rect x="3.5" y="3.5" width="984" height="727" rx="16.5" fill="none"/>
      </g>
    </g>
    <g id="freepik--background-complete--inject-94" transform="translate(6298.946 -3096.539)">
      <path id="Path_2213" data-name="Path 2213" d="M231.5,290.625v45.052a14.766,14.766,0,0,0,14.766,14.766H407.808a14.766,14.766,0,0,0,14.755-14.766V297.6l20.12-21.129-196.375-.606A14.755,14.755,0,0,0,231.5,290.625Z" transform="translate(-197.888 -32.298)" fill="#f5f5f5"/>
      <path id="Path_2214" data-name="Path 2214" d="M419.436,301.864l-146.6-.68.021-4.5,146.585.68Z" transform="translate(-218.566 -31.002)" fill="#e6e6e6"/>
      <path id="Path_2215" data-name="Path 2215" d="M419.436,315.813l-146.6-.669.021-4.5,146.585.669Z" transform="translate(-218.566 -30.132)" fill="#e6e6e6"/>
      <rect id="Rectangle_1354" data-name="Rectangle 1354" width="58.001" height="4.504" transform="matrix(-1, -0.005, 0.005, -1, 200.874, 300.142)" fill="#e6e6e6"/>
      <path id="Path_2216" data-name="Path 2216" d="M264.565,46.58H169.288a8.5,8.5,0,0,0-8.5,8.5v46.645a8.5,8.5,0,0,0,8.5,8.5h80.851a8.5,8.5,0,0,0,8.5-8.5V52.465Z" transform="translate(55.345 -46.58)" fill="#f5f5f5"/>
      <path id="Path_2217" data-name="Path 2217" d="M386.253,126.689v16.742A4.249,4.249,0,0,1,382,147.68H288.459a4.249,4.249,0,0,1-4.249-4.249v-9.146l-10.74-11.494,108.524-.351a4.249,4.249,0,0,1,4.26,4.249Z" transform="translate(-186.042 -41.855)" fill="#f0f0f0"/>
      <path id="Path_2218" data-name="Path 2218" d="M82.26,95.664v29.882a9.784,9.784,0,0,0,9.784,9.794H199.229a9.784,9.784,0,0,0,9.784-9.794v-25.24l13.31-14.022-130.247-.4a9.784,9.784,0,0,0-9.815,9.784Z" transform="translate(181.009 -44.132)" fill="#e0e0e0"/>
      <path id="Path_2219" data-name="Path 2219" d="M206.9,103.121l-97.221-.446.011-2.985,97.221.446Z" transform="translate(167.292 -43.272)" fill="#f0f0f0"/>
      <path id="Path_2220" data-name="Path 2220" d="M206.9,112.382l-97.221-.457.011-2.985,97.221.446Z" transform="translate(167.292 -42.696)" fill="#f0f0f0"/>
      <rect id="Rectangle_1355" data-name="Rectangle 1355" width="38.466" height="2.985" transform="matrix(-1, -0.005, 0.005, -1, 374.202, 79.271)" fill="#f0f0f0"/>
      <path id="Path_2221" data-name="Path 2221" d="M276.633,188.787v45.062A14.755,14.755,0,0,1,261.867,248.6H100.325a14.755,14.755,0,0,1-14.766-14.755V195.777L65.45,174.648,261.825,174a14.766,14.766,0,0,1,14.808,14.787Z" transform="translate(144.555 -38.643)" fill="#f0f0f0"/>
      <path id="Path_2222" data-name="Path 2222" d="M84.911,200.023l146.6-.669-.021-4.5L84.9,195.519Z" transform="translate(169.02 -37.345)" fill="#e6e6e6"/>
      <path id="Path_2223" data-name="Path 2223" d="M84.911,213.984l146.6-.68-.021-4.5L84.9,209.48Z" transform="translate(169.02 -36.476)" fill="#e6e6e6"/>
      <rect id="Rectangle_1356" data-name="Rectangle 1356" width="4.504" height="58.001" transform="translate(253.948 191.94) rotate(-90.28)" fill="#e6e6e6"/>
      <ellipse id="Ellipse_145" data-name="Ellipse 145" cx="19.621" cy="19.621" rx="19.621" ry="19.621" transform="matrix(-0.41, -0.912, 0.912, -0.41, 112.103, 61.863)" fill="#f5f5f5"/>
      <path id="Path_2224" data-name="Path 2224" d="M341.149,75.74c-.733-.064-1.413.754-1.5,1.827s.436,2,1.179,2.061,1.423-.765,1.508-1.838S341.892,75.793,341.149,75.74Z" transform="translate(-212.43 -44.764)" fill="#e0e0e0"/>
      <path id="Path_2225" data-name="Path 2225" d="M336.16,71.072a22.92,22.92,0,0,1,3.495.712,23,23,0,0,1,3.123,1.732,6.172,6.172,0,0,0-6.618-2.443Z" transform="translate(-209.162 -45.067)" fill="#e0e0e0"/>
      <path id="Path_2226" data-name="Path 2226" d="M352.424,75.5c.754,0,1.392.807,1.434,1.891s-.521,1.965-1.275,2S351.2,78.57,351.16,77.5,351.681,75.521,352.424,75.5Z" transform="translate(-236.177 -44.779)" fill="#e0e0e0"/>
      <path id="Path_2227" data-name="Path 2227" d="M357.393,70.906a6.161,6.161,0,0,0-6.7,2.125,21.489,21.489,0,0,1,3.187-1.6A23.777,23.777,0,0,1,357.393,70.906Z" transform="translate(-239.212 -45.082)" fill="#e0e0e0"/>
      <path id="Path_2228" data-name="Path 2228" d="M338,80.2a3.549,3.549,0,0,0,.138,1.062,9.007,9.007,0,0,0,1.19,2.656,10.432,10.432,0,0,0,2.985,3.091,9.486,9.486,0,0,0,10.124.531,10.559,10.559,0,0,0,3.3-2.773,9.019,9.019,0,0,0,1.4-2.528,2.88,2.88,0,0,0,.244-1.062,14.933,14.933,0,0,1-1.965,3.3,10.272,10.272,0,0,1-3.187,2.56,9.178,9.178,0,0,1-9.561-.5,10.43,10.43,0,0,1-2.942-2.879A15.315,15.315,0,0,1,338,80.2Z" transform="translate(-225.726 -44.486)" fill="#e0e0e0"/>
      <path id="Path_2229" data-name="Path 2229" d="M117.256,288.8h-2.815l-6.2-8.265V275.11s-4.387-.255-3.877,6.852,0,5.312,0,5.312-9.316,0-10.092.807c-.563.563-.818,9.422-.914,14.224a5.226,5.226,0,0,0,3.846,5.248,4.771,4.771,0,0,0,1.062.128c2.21-.053,14.054-1.88,14.054-1.88h4.94Z" transform="translate(274.295 -32.345)" fill="#f0f0f0"/>
      <path id="Path_2230" data-name="Path 2230" d="M92.307,286.57,90.565,305.15H85.7V286.942Z" transform="translate(307.37 -31.632)" fill="#f0f0f0"/>
      <path id="Path_2231" data-name="Path 2231" d="M446.281,135.99a3.76,3.76,0,0,1,5.248-.244,6.374,6.374,0,0,1,2.39,4.844,6.523,6.523,0,0,1,3.187-4.483,3.8,3.8,0,0,1,5.216.935,5.089,5.089,0,0,1,.531,3.633,6.9,6.9,0,0,1-1.508,3.389c-2.943,3.123-4.462,3.622-8.105,5.736-3.314-2.571-4.387-3.187-6.873-6.724a6.949,6.949,0,0,1-1.062-3.559A5.131,5.131,0,0,1,446.281,135.99Z" transform="translate(-445.28 -41.085)" fill="#f0f0f0"/>
    </g>
    <g id="freepik--background-complete--inject-94-2" data-name="freepik--background-complete--inject-94" transform="translate(6839.415 -3096.539)">
      <path id="Path_2213-2" data-name="Path 2213" d="M231.5,290.625v45.052a14.766,14.766,0,0,0,14.766,14.766H407.808a14.766,14.766,0,0,0,14.755-14.766V297.6l20.12-21.129-196.375-.606A14.755,14.755,0,0,0,231.5,290.625Z" transform="translate(-197.888 -32.298)" fill="#f5f5f5"/>
      <path id="Path_2214-2" data-name="Path 2214" d="M419.436,301.864l-146.6-.68.021-4.5,146.585.68Z" transform="translate(-218.566 -31.002)" fill="#e6e6e6"/>
      <path id="Path_2215-2" data-name="Path 2215" d="M419.436,315.813l-146.6-.669.021-4.5,146.585.669Z" transform="translate(-218.566 -30.132)" fill="#e6e6e6"/>
      <rect id="Rectangle_1354-2" data-name="Rectangle 1354" width="58.001" height="4.504" transform="translate(200.874 300.142) rotate(-179.72)" fill="#e6e6e6"/>
      <path id="Path_2216-2" data-name="Path 2216" d="M264.565,46.58H169.288a8.5,8.5,0,0,0-8.5,8.5v46.645a8.5,8.5,0,0,0,8.5,8.5h80.851a8.5,8.5,0,0,0,8.5-8.5V52.465Z" transform="translate(55.345 -46.58)" fill="#f5f5f5"/>
      <path id="Path_2217-2" data-name="Path 2217" d="M386.253,126.689v16.742A4.249,4.249,0,0,1,382,147.68H288.459a4.249,4.249,0,0,1-4.249-4.249v-9.146l-10.74-11.494,108.524-.351a4.249,4.249,0,0,1,4.26,4.249Z" transform="translate(-186.042 -41.855)" fill="#f0f0f0"/>
      <path id="Path_2218-2" data-name="Path 2218" d="M82.26,95.664v29.882a9.784,9.784,0,0,0,9.784,9.794H199.229a9.784,9.784,0,0,0,9.784-9.794v-25.24l13.31-14.022-130.247-.4a9.784,9.784,0,0,0-9.816,9.784Z" transform="translate(181.009 -44.132)" fill="#e0e0e0"/>
      <path id="Path_2219-2" data-name="Path 2219" d="M206.9,103.121l-97.221-.446.011-2.985,97.221.446Z" transform="translate(167.292 -43.272)" fill="#f0f0f0"/>
      <path id="Path_2220-2" data-name="Path 2220" d="M206.9,112.382l-97.221-.457.011-2.985,97.221.446Z" transform="translate(167.292 -42.696)" fill="#f0f0f0"/>
      <rect id="Rectangle_1355-2" data-name="Rectangle 1355" width="38.466" height="2.985" transform="translate(374.202 79.271) rotate(-179.72)" fill="#f0f0f0"/>
      <path id="Path_2221-2" data-name="Path 2221" d="M276.633,188.787v45.062A14.755,14.755,0,0,1,261.867,248.6H100.325a14.755,14.755,0,0,1-14.766-14.755V195.777L65.45,174.648,261.825,174a14.766,14.766,0,0,1,14.808,14.787Z" transform="translate(144.555 -38.643)" fill="#f0f0f0"/>
      <path id="Path_2222-2" data-name="Path 2222" d="M84.911,200.023l146.6-.669-.021-4.5L84.9,195.519Z" transform="translate(169.02 -37.345)" fill="#e6e6e6"/>
      <path id="Path_2223-2" data-name="Path 2223" d="M84.911,213.984l146.6-.68-.021-4.5L84.9,209.48Z" transform="translate(169.02 -36.476)" fill="#e6e6e6"/>
      <rect id="Rectangle_1356-2" data-name="Rectangle 1356" width="4.504" height="58.001" transform="translate(253.948 191.94) rotate(-90.28)" fill="#e6e6e6"/>
      <ellipse id="Ellipse_145-2" data-name="Ellipse 145" cx="19.621" cy="19.621" rx="19.621" ry="19.621" transform="matrix(-0.41, -0.912, 0.912, -0.41, 112.103, 61.863)" fill="#f5f5f5"/>
      <path id="Path_2224-2" data-name="Path 2224" d="M341.149,75.74c-.733-.064-1.413.754-1.5,1.827s.436,2,1.179,2.061,1.423-.765,1.508-1.838S341.892,75.793,341.149,75.74Z" transform="translate(-212.43 -44.764)" fill="#e0e0e0"/>
      <path id="Path_2225-2" data-name="Path 2225" d="M336.16,71.072a22.92,22.92,0,0,1,3.495.712,23,23,0,0,1,3.123,1.732,6.172,6.172,0,0,0-6.618-2.443Z" transform="translate(-209.162 -45.067)" fill="#e0e0e0"/>
      <path id="Path_2226-2" data-name="Path 2226" d="M352.424,75.5c.754,0,1.392.807,1.434,1.891s-.521,1.965-1.275,2S351.2,78.57,351.16,77.5,351.681,75.521,352.424,75.5Z" transform="translate(-236.177 -44.779)" fill="#e0e0e0"/>
      <path id="Path_2227-2" data-name="Path 2227" d="M357.393,70.906a6.161,6.161,0,0,0-6.7,2.125,21.489,21.489,0,0,1,3.187-1.6A23.777,23.777,0,0,1,357.393,70.906Z" transform="translate(-239.212 -45.082)" fill="#e0e0e0"/>
      <path id="Path_2228-2" data-name="Path 2228" d="M338,80.2a3.549,3.549,0,0,0,.138,1.062,9.007,9.007,0,0,0,1.19,2.656,10.432,10.432,0,0,0,2.985,3.091,9.486,9.486,0,0,0,10.124.531,10.559,10.559,0,0,0,3.3-2.773,9.019,9.019,0,0,0,1.4-2.528,2.88,2.88,0,0,0,.244-1.062,14.933,14.933,0,0,1-1.965,3.3,10.272,10.272,0,0,1-3.187,2.56,9.178,9.178,0,0,1-9.561-.5,10.43,10.43,0,0,1-2.942-2.879A15.315,15.315,0,0,1,338,80.2Z" transform="translate(-225.726 -44.486)" fill="#e0e0e0"/>
      <path id="Path_2229-2" data-name="Path 2229" d="M117.256,288.8h-2.815l-6.2-8.265V275.11s-4.387-.255-3.877,6.852,0,5.312,0,5.312-9.316,0-10.092.807c-.563.563-.818,9.422-.914,14.224a5.226,5.226,0,0,0,3.846,5.248,4.771,4.771,0,0,0,1.062.128c2.21-.053,14.054-1.88,14.054-1.88h4.94Z" transform="translate(274.295 -32.345)" fill="#f0f0f0"/>
      <path id="Path_2230-2" data-name="Path 2230" d="M92.307,286.57,90.565,305.15H85.7V286.942Z" transform="translate(307.37 -31.632)" fill="#f0f0f0"/>
      <path id="Path_2231-2" data-name="Path 2231" d="M446.281,135.99a3.76,3.76,0,0,1,5.248-.244,6.374,6.374,0,0,1,2.39,4.844,6.523,6.523,0,0,1,3.187-4.483,3.8,3.8,0,0,1,5.216.935,5.089,5.089,0,0,1,.531,3.633,6.9,6.9,0,0,1-1.508,3.389c-2.943,3.123-4.462,3.622-8.105,5.736-3.314-2.571-4.387-3.187-6.873-6.724a6.949,6.949,0,0,1-1.062-3.559A5.131,5.131,0,0,1,446.281,135.99Z" transform="translate(-445.281 -41.085)" fill="#f0f0f0"/>
    </g>
    <g id="freepik--Emojis--inject-94" transform="translate(6522.512 -3045.05)">
      <circle id="Ellipse_146" data-name="Ellipse 146" cx="10.597" cy="10.597" r="10.597" transform="translate(498.783)" fill="#62c9d5"/>
      <circle id="Ellipse_147" data-name="Ellipse 147" cx="10.597" cy="10.597" r="10.597" transform="translate(498.783)" fill="#fff" opacity="0.5"/>
      <path id="Path_2251" data-name="Path 2251" d="M412.488,119.64c.4,0,.759.425.795,1s-.262,1.075-.668,1.093-.759-.425-.8-1S412.082,119.658,412.488,119.64Z" transform="translate(93.377 -112.079)" fill="#263238"/>
      <path id="Path_2252" data-name="Path 2252" d="M413.269,116.664c0,.154-.9.108-1.807.452s-1.635.9-1.744.795.443-.9,1.563-1.3S413.314,116.528,413.269,116.664Z" transform="translate(93.582 -111.767)" fill="#263238"/>
      <path id="Path_2253" data-name="Path 2253" d="M421.8,121.346c-.117.09-.687-.524-1.6-.614s-1.6.37-1.689.262.072-.262.37-.47a2.2,2.2,0,0,1,1.382-.325,2.114,2.114,0,0,1,1.274.614C421.787,121.084,421.85,121.3,421.8,121.346Z" transform="translate(92.733 -112.132)" fill="#263238"/>
      <path id="Path_2254" data-name="Path 2254" d="M422.711,119.412c-.081.126-.9-.316-2.087-.352s-2.042.325-2.114.181a2.448,2.448,0,0,1,2.132-.714C421.961,118.572,422.8,119.313,422.711,119.412Z" transform="translate(92.731 -111.968)" fill="#263238"/>
      <path id="Path_2255" data-name="Path 2255" d="M421.208,122.77a3.352,3.352,0,0,1-.669,2.033,5.366,5.366,0,0,1-9.034.28,3.216,3.216,0,0,1-.786-1.987A12.713,12.713,0,0,0,411.8,124.9a5.2,5.2,0,0,0,8.392-.262,15.164,15.164,0,0,0,1.012-1.87Z" transform="translate(93.483 -112.381)" fill="#263238"/>
      <path id="Path_2256" data-name="Path 2256" d="M85.033,328.847a14.906,14.906,0,1,1-14.454-15.358,14.906,14.906,0,0,1,14.454,15.358Z" transform="translate(-55.228 -113.809)" fill="#62c9d5"/>
      <path id="Path_2257" data-name="Path 2257" d="M85.033,328.847a14.906,14.906,0,1,1-14.454-15.358,14.906,14.906,0,0,1,14.454,15.358Z" transform="translate(-55.228 -113.809)" fill="#fff" opacity="0.5"/>
      <path id="Path_2258" data-name="Path 2258" d="M67.684,325.367a1.662,1.662,0,0,0-2.295-.334,2.855,2.855,0,0,0-1.238,2.024,2.918,2.918,0,0,0-1.193-2.1,1.689,1.689,0,0,0-2.322.2,2.24,2.24,0,0,0-.379,1.563,3.09,3.09,0,0,0,.515,1.545,11.744,11.744,0,0,0,3.315,2.846,10.922,10.922,0,0,0,3.279-2.656,3.108,3.108,0,0,0,.605-1.509,2.213,2.213,0,0,0-.289-1.581Z" transform="translate(-55.712 -114.882)" fill="#62c9d5"/>
      <path id="Path_2259" data-name="Path 2259" d="M82.2,325.777a1.653,1.653,0,0,0-2.295-.325,2.8,2.8,0,0,0-1.238,2.024,2.918,2.918,0,0,0-1.192-2.1,1.68,1.68,0,0,0-2.322.2,2.222,2.222,0,0,0-.379,1.563,3,3,0,0,0,.515,1.545,11.744,11.744,0,0,0,3.315,2.846,11.2,11.2,0,0,0,3.279-2.656,3.135,3.135,0,0,0,.605-1.518,2.231,2.231,0,0,0-.289-1.581Z" transform="translate(-57.115 -114.923)" fill="#62c9d5"/>
      <path id="Path_2260" data-name="Path 2260" d="M76.033,334a4.914,4.914,0,0,1-9.793-.452Z" transform="translate(-56.292 -115.748)" fill="#fff"/>
    </g>
    <path id="Path_4393" data-name="Path 4393" d="M7273.159-2473.76C7153.687-2491.64,7167.5-2379,7167.5-2379l95.089-4.546,10.566-12.191Z" fill="#62c9d5"/>
  </g>
</svg>
