<svg xmlns="http://www.w3.org/2000/svg" width="342.003" height="328.92" viewBox="0 0 342.003 328.92">
  <g id="Group_1976" data-name="Group 1976" transform="translate(-30.54 -245.174)">
    <g id="freepik--Device--inject-94" transform="translate(131.555 295.167)">
      <path id="Path_2232" data-name="Path 2232" d="M283.984,376.1l-94.025-.443a20.471,20.471,0,0,1-20.389-20.561l1-235.721A20.489,20.489,0,0,1,191.143,99l94.025.434A20.489,20.489,0,0,1,305.557,120L304.563,355.7a20.5,20.5,0,0,1-20.579,20.4Z" transform="translate(-169.57 -99)" fill="#263238"/>
      <path id="Path_2233" data-name="Path 2233" d="M285.7,108.416l-18.23-.081a4.517,4.517,0,0,0-4.445,4.607v3.306a4.517,4.517,0,0,1-4.445,4.607l-35.557-.163a4.517,4.517,0,0,1-4.409-4.652v-3.306a4.517,4.517,0,0,0-4.409-4.652h-6.414L191.865,108a14.346,14.346,0,0,0-14.409,14.283l-.976,230.075a14.355,14.355,0,0,0,14.283,14.409l93.835.434a14.346,14.346,0,0,0,14.409-14.283l.976-230.075A14.355,14.355,0,0,0,285.7,108.416Z" transform="translate(-170.237 -99.869)" fill="#fff"/>
      <path id="Path_2234" data-name="Path 2234" d="M239.869,362.549a1.969,1.969,0,1,1-1.969-1.969A1.969,1.969,0,0,1,239.869,362.549Z" transform="translate(-175.981 -124.271)" fill="#455a64"/>
      <path id="Path_2235" data-name="Path 2235" d="M248.149,362.549a1.969,1.969,0,1,1-1.969-1.969,1.969,1.969,0,0,1,1.969,1.969Z" transform="translate(-176.781 -124.271)" fill="#455a64"/>
      <path id="Path_2236" data-name="Path 2236" d="M256.429,362.549a1.969,1.969,0,1,1-1.969-1.969A1.969,1.969,0,0,1,256.429,362.549Z" transform="translate(-177.581 -124.271)" fill="#455a64"/>
      <path id="Path_2237" data-name="Path 2237" d="M196.9,178.77v-.5a6.523,6.523,0,0,1,1.328-3.614,6.722,6.722,0,0,1,2.539-2.1,8.248,8.248,0,0,1,4.092-.678h17.092l72.271.145h.533l-.37.388-9.26,9.739.063-.154V198.13a12.087,12.087,0,0,1-.235,3.207,6.92,6.92,0,0,1-1.527,2.846,7,7,0,0,1-2.6,1.861,7.76,7.76,0,0,1-3.126.533H248.211l-39.487-.081h-4.156a7.832,7.832,0,0,1-3.876-.7,6.938,6.938,0,0,1-3.9-5.773V188.554c0-3.153,0-5.574.045-7.227v7.227c0,3.117,0,7,.063,11.455a6.658,6.658,0,0,0,3.776,5.52,7.48,7.48,0,0,0,3.74.65h4.309l39.532-.045h29.469a7.227,7.227,0,0,0,2.945-.5,6.64,6.64,0,0,0,2.439-1.735,6.4,6.4,0,0,0,1.409-2.656,11.6,11.6,0,0,0,.226-3.09V181.923l.063-.063,9.269-9.739.172.388-72.271-.307-12.142-.063h-4.96a8.131,8.131,0,0,0-4.011.623,6.631,6.631,0,0,0-2.511,2.024,6.911,6.911,0,0,0-1.1,2.114A10.279,10.279,0,0,0,196.9,178.77Z" transform="translate(-172.2 -106.038)" fill="#455a64"/>
      <path id="Path_2238" data-name="Path 2238" d="M275,185.654l-67.546-.316.009-2.078,67.537.316Z" transform="translate(-173.229 -107.14)" fill="#455a64"/>
      <path id="Path_2239" data-name="Path 2239" d="M275,193.214,207.45,192.9l.009-2.078,67.537.316Z" transform="translate(-173.229 -107.871)" fill="#455a64"/>
      <rect id="Rectangle_1357" data-name="Rectangle 1357" width="2.078" height="26.722" transform="translate(75.027 91.863) rotate(-89.72)" fill="#455a64"/>
      <path id="Path_2240" data-name="Path 2240" d="M288.155,229.424V250.2a6.8,6.8,0,0,1-6.793,6.8H206.922a6.8,6.8,0,0,1-6.8-6.8V232.649l-9.26-9.739,90.465-.28a6.793,6.793,0,0,1,6.83,6.793Z" transform="translate(-171.627 -110.944)" fill="#62c9d5"/>
      <path id="Path_2241" data-name="Path 2241" d="M213.259,236.294l67.546-.316L280.8,233.9l-67.546.316Z" transform="translate(-173.79 -112.033)" fill="#fff"/>
      <path id="Path_2242" data-name="Path 2242" d="M213.259,243.855l67.546-.316-.009-2.069-67.546.307Z" transform="translate(-173.79 -112.764)" fill="#fff"/>
      <rect id="Rectangle_1358" data-name="Rectangle 1358" width="26.722" height="2.078" transform="translate(39.448 135.675) rotate(-0.28)" fill="#fff"/>
      <path id="Path_2243" data-name="Path 2243" d="M252.905,141.374A3.614,3.614,0,0,0,255.073,138a3.424,3.424,0,1,0-6.839,0,3.614,3.614,0,0,0,2.177,3.406c-5.267.795-5.032,6.522-5.032,6.522l12.458.054S258.127,142.169,252.905,141.374Z" transform="translate(-176.894 -102.419)" fill="#62c9d5"/>
      <path id="Path_2244" data-name="Path 2244" d="M252.905,141.374A3.614,3.614,0,0,0,255.073,138a3.424,3.424,0,1,0-6.839,0,3.614,3.614,0,0,0,2.177,3.406c-5.267.795-5.032,6.522-5.032,6.522l12.458.054S258.127,142.169,252.905,141.374Z" transform="translate(-176.894 -102.419)" fill="#fff" opacity="0.5"/>
      <path id="Path_2245" data-name="Path 2245" d="M245.335,141.365a3.668,3.668,0,0,0,2.177-3.379,3.433,3.433,0,1,0-6.848,0,3.613,3.613,0,0,0,2.177,3.406c-5.267.795-5.032,6.522-5.032,6.522l12.458.054S250.557,142.16,245.335,141.365Z" transform="translate(-176.162 -102.411)" fill="#62c9d5"/>
      <rect id="Rectangle_1359" data-name="Rectangle 1359" width="33.489" height="4.156" transform="translate(54.734 47.937) rotate(0.26)" fill="#62c9d5"/>
      <rect id="Rectangle_1360" data-name="Rectangle 1360" width="33.489" height="4.156" transform="translate(54.734 47.937) rotate(0.26)" fill="#fff" opacity="0.3"/>
      <path id="Path_2246" data-name="Path 2246" d="M198.628,282.121a2.477,2.477,0,0,1,0-.488,3.487,3.487,0,0,1,.461-1.382,3.668,3.668,0,0,1,1.807-1.545,9.035,9.035,0,0,1,3.216-.28h20.715l69.751.145h.533l-.4.37-9.124,9.793.063-.163v8a3.821,3.821,0,0,1-2.566,3.424,4.137,4.137,0,0,1-1.473.217H250.826l-35.612-.072H203.027a7.016,7.016,0,0,1-1.563-.09,3.74,3.74,0,0,1-2.891-3.017,8.556,8.556,0,0,1-.054-1.346q0-2.588,0-4.716c0-2.828,0-5.023.045-6.541v0c0,1.518,0,3.713.045,6.541v4.716a7.8,7.8,0,0,0,.063,1.3,3.478,3.478,0,0,0,2.71,2.809,7.48,7.48,0,0,0,1.509.072h12.322l35.648-.054H281.64a3.686,3.686,0,0,0,1.31-.19,3.4,3.4,0,0,0,1.933-1.725,3.325,3.325,0,0,0,.325-1.283v-8.058l.063-.063,9.142-9.775.163.388-69.742-.3-20.715-.135a8.673,8.673,0,0,0-3.162.235,3.614,3.614,0,0,0-2.24,2.8,4.073,4.073,0,0,1-.09.416Z" transform="translate(-172.366 -116.331)" fill="#455a64"/>
      <path id="Path_2247" data-name="Path 2247" d="M278.346,288.325l-67.546-.307.009-2.078,67.546.316Z" transform="translate(-173.553 -117.06)" fill="#455a64"/>
      <rect id="Rectangle_1361" data-name="Rectangle 1361" width="2.078" height="27.409" transform="translate(77.388 177.814) rotate(-89.72)" fill="#455a64"/>
      <path id="Path_2248" data-name="Path 2248" d="M285.673,323.154v14.228A3.614,3.614,0,0,1,282.059,341H202.507a3.614,3.614,0,0,1-3.614-3.614V329.6l-9.133-9.775,92.3-.289A3.614,3.614,0,0,1,285.673,323.154Z" transform="translate(-171.52 -120.307)" fill="#62c9d5"/>
      <path id="Path_2249" data-name="Path 2249" d="M209.009,329.345l67.546-.307-.009-2.078L209,327.276Z" transform="translate(-173.379 -121.023)" fill="#fff"/>
      <path id="Path_2250" data-name="Path 2250" d="M209.009,336.745l67.546-.316-.009-2.069L209,334.667Z" transform="translate(-173.379 -121.738)" fill="#fff"/>
    </g>
    <g id="freepik--character-2--inject-94" transform="translate(267.543 299.335)">
      <path id="Path_2261" data-name="Path 2261" d="M378.576,434.9l-1.807-9.54L359.65,428.4l2.484,14.3,1.075-.117c4.779-.569,24.175-3.532,27.156-5.1C393.735,435.74,378.576,434.9,378.576,434.9Z" transform="translate(-323.948 -167.937)" fill="#62c9d5"/>
      <path id="Path_2262" data-name="Path 2262" d="M390.944,437.728c0,.163-6.324,1.473-14.237,2.927s-14.31,2.5-14.337,2.34,6.324-1.463,14.228-2.918S390.89,437.575,390.944,437.728Z" transform="translate(-324.211 -169.13)" fill="#263238"/>
      <path id="Path_2263" data-name="Path 2263" d="M381.32,437.789c-.154-.054-.126-.578.154-1.138s.668-.9.8-.822,0,.551-.28,1.075S381.474,437.852,381.32,437.789Z" transform="translate(-326.033 -168.947)" fill="#263238"/>
      <path id="Path_2264" data-name="Path 2264" d="M382.656,438.245c-.163,0-.19-.605,0-1.265s.605-1.093.75-1.021,0,.605-.19,1.211S382.819,438.272,382.656,438.245Z" transform="translate(-326.158 -168.96)" fill="#263238"/>
      <path id="Path_2265" data-name="Path 2265" d="M367.42,442.153c-.063.063-.361-.145-.813-.5a10.844,10.844,0,0,0-1.807-1.22,3.966,3.966,0,0,0-1.9-.488c-.533,0-.858.172-.9.09s.235-.352.849-.506a3.469,3.469,0,0,1,2.331.352,6.324,6.324,0,0,1,1.807,1.455C367.311,441.755,367.5,442.1,367.42,442.153Z" transform="translate(-324.175 -169.299)" fill="#263238"/>
      <path id="Path_2266" data-name="Path 2266" d="M380.835,436c.108.117-.126.506-.578.777s-.9.289-.958.135.262-.407.659-.65S380.745,435.887,380.835,436Z" transform="translate(-325.846 -168.96)" fill="#263238"/>
      <path id="Path_2267" data-name="Path 2267" d="M380.322,435.035c0,.163-.388.379-.967.5s-1.057.072-1.075-.09.415-.379.958-.488S380.277,434.881,380.322,435.035Z" transform="translate(-325.748 -168.857)" fill="#263238"/>
      <path id="Path_2268" data-name="Path 2268" d="M395.355,318.7c-5.3-10.705-33.723-52.117-33.723-52.117l-15.168,1.59v-.09l-16.975,1.861h0l-9.359,1.03,33.886,148,23.434-.425-5.637-27.382C375.689,381.455,398.291,324.623,395.355,318.7Zm-24.175,6.387-8.374,22.485L353.321,301.5Z" transform="translate(-320.13 -152.597)" fill="#263238"/>
      <path id="Path_2269" data-name="Path 2269" d="M353.9,186.73c-.217-1.545.614-7.968.614-7.968s5.9-.434,6.45-6.251.614-19.287.614-19.287l-10.543-5.583-12.078,8.546-3.126,8.131,4.119,10.1-.126,3.343v7.652Z" transform="translate(-321.647 -141.106)" fill="#ffbe9d"/>
      <path id="Path_2270" data-name="Path 2270" d="M363.3,164.538a.75.75,0,1,1-.723-.768.741.741,0,0,1,.723.768Z" transform="translate(-324.156 -142.664)" fill="#263238"/>
      <path id="Path_2271" data-name="Path 2271" d="M363.2,163.648c-.1.1-.641-.388-1.436-.461s-1.418.3-1.5.19.063-.226.334-.4a1.961,1.961,0,0,1,1.211-.271,1.933,1.933,0,0,1,1.129.488C363.177,163.423,363.249,163.612,363.2,163.648Z" transform="translate(-324.006 -142.56)" fill="#263238"/>
      <path id="Path_2272" data-name="Path 2272" d="M352.873,163.595a.75.75,0,1,1-1.048.163A.75.75,0,0,1,352.873,163.595Z" transform="translate(-323.178 -142.633)" fill="#263238"/>
      <path id="Path_2273" data-name="Path 2273" d="M353.334,163.338c-.1.09-.632-.4-1.436-.461s-1.418.3-1.5.181.063-.217.334-.388a2,2,0,0,1,1.211-.28,1.96,1.96,0,0,1,1.138.5C353.316,163.1,353.388,163.293,353.334,163.338Z" transform="translate(-323.052 -142.53)" fill="#263238"/>
      <path id="Path_2274" data-name="Path 2274" d="M356.62,170.309a5.366,5.366,0,0,1,1.319-.126c.208,0,.407,0,.461-.172a1.247,1.247,0,0,0-.1-.659c-.154-.533-.316-1.093-.5-1.68a30.389,30.389,0,0,1-1.084-4.381,6.075,6.075,0,0,1,.47,1.238c.253.777.587,1.852.9,3.053.163.587.325,1.156.47,1.689a1.283,1.283,0,0,1,.054.849.479.479,0,0,1-.352.271,1.229,1.229,0,0,1-.352,0,5.475,5.475,0,0,1-1.292-.081Z" transform="translate(-323.655 -142.618)" fill="#263238"/>
      <path id="Path_2275" data-name="Path 2275" d="M353.646,171.789c-.8-.56,2.2,1.418,3.839,1.463a2.231,2.231,0,0,1-2.71.678A1.691,1.691,0,0,1,353.646,171.789Z" transform="translate(-323.355 -143.429)" fill="#fff"/>
      <path id="Path_2276" data-name="Path 2276" d="M355.693,181.785a14.563,14.563,0,0,1-7.643-2.855s1.608,4.336,7.471,4.282Z" transform="translate(-322.827 -144.129)" fill="#eb996e"/>
      <path id="Path_2277" data-name="Path 2277" d="M340.9,167.485a2,2,0,0,1-.226.145.9.9,0,0,1-.651.045,2.123,2.123,0,0,1-1.1-1.861,2.855,2.855,0,0,1,.163-1.256.985.985,0,0,1,.614-.7.434.434,0,0,1,.524.2c.072.135.045.244.072.244s.108-.09.054-.289a.542.542,0,0,0-.217-.3.632.632,0,0,0-.488-.1,1.22,1.22,0,0,0-.858.822,2.991,2.991,0,0,0-.217,1.409,2.268,2.268,0,0,0,1.4,2.069.9.9,0,0,0,.777-.181C340.9,167.576,340.918,167.494,340.9,167.485Z" transform="translate(-321.91 -142.648)" fill="#eb996e"/>
      <path id="Path_2278" data-name="Path 2278" d="M362.883,153.491a3.777,3.777,0,0,1-.985.19,6.261,6.261,0,0,0,2.593-2.557,4.969,4.969,0,0,0,0-4.951,3.523,3.523,0,0,0-4.517-1.265,2.846,2.846,0,0,0-1-3.614,4.652,4.652,0,0,0-4.011-.352,13.9,13.9,0,0,0-3.614,2.06,2.963,2.963,0,0,0-1.653-2.168,4.6,4.6,0,0,0-2.764-.352,6.73,6.73,0,0,0-5.484,5.42,3.559,3.559,0,0,0-5.926,1.364.666.666,0,0,1,0,.126,2.836,2.836,0,0,0-1.3,1.138,3.406,3.406,0,0,0-.28,2.891,4.661,4.661,0,0,0,1.807,2.268,3.721,3.721,0,0,1,.831.8,1.952,1.952,0,0,1,.316.9c-.081,1.951-1.075,3.794-1.563,5.709-.668,2.656.8,6.279,1.653,8.88s1.147,3.614,2.8,3.821l.253-6.992c-1.807,1.482-4.219-3.614-2.638-5.646s3.261-1.337,3.55-.054a12.483,12.483,0,0,0,.425,1.454h1.807l-.2-1.527s-.37-6.784,2.873-7.227a3.279,3.279,0,0,1,2.457.452,6.893,6.893,0,0,0,3.3.461,3.056,3.056,0,0,0,2.71-2.466,6.324,6.324,0,0,0,5.42,2.177,5.89,5.89,0,0,0,1.527-.37,3.207,3.207,0,0,0,1.861-.045,3.161,3.161,0,0,0,1.554-1.111c.289-.406.343-.714.289-.741A5.908,5.908,0,0,1,362.883,153.491Zm-26.921-.217a4.382,4.382,0,0,1-1.608-2.078,3.027,3.027,0,0,1,.208-2.5,2.493,2.493,0,0,1,.8-.9c-.307,2.051,1.03,4.128,1.382,6.27a4.517,4.517,0,0,0-.75-.786Z" transform="translate(-321.445 -140.407)" fill="#022b35"/>
      <path id="Path_2279" data-name="Path 2279" d="M400.38,163.77v11.645a4.779,4.779,0,0,0,4.779,4.779h20.173v6.658l3.614-6.369h0a4.246,4.246,0,0,0,3.939-4.237V163.77a4.779,4.779,0,0,0-4.842-4.77H405.159A4.779,4.779,0,0,0,400.38,163.77Z" transform="translate(-327.883 -142.203)" fill="#62c9d5"/>
      <path id="Path_2280" data-name="Path 2280" d="M412.109,171.2a1.969,1.969,0,1,1-1.969-1.969A1.969,1.969,0,0,1,412.109,171.2Z" transform="translate(-328.636 -143.191)" fill="#fff"/>
      <path id="Path_2281" data-name="Path 2281" d="M420.389,171.2a1.969,1.969,0,1,1-1.969-1.969A1.969,1.969,0,0,1,420.389,171.2Z" transform="translate(-329.436 -143.191)" fill="#fff"/>
      <path id="Path_2282" data-name="Path 2282" d="M428.669,171.2a1.969,1.969,0,1,1-1.969-1.969A1.969,1.969,0,0,1,428.669,171.2Z" transform="translate(-330.236 -143.191)" fill="#fff"/>
      <path id="Path_2283" data-name="Path 2283" d="M408.559,201.116c-.407-.9-26.063,21.745-31.176,22.521l-14.96-19.5s-3.108-4.923-9.784-13.361c-4.3-5.42-16.18-4.318-19.305,2.322-5.3,11.265-5.484,26.2-9.585,50.192l-3.469,20.353s5.122-.605,5.1-.56l36.425-3.785.9-24.391c7.227,7.3,9.431,8.826,13.18,8.248,9.422-1.463,42.387-31.113,42.387-31.113S408.957,202.037,408.559,201.116Z" transform="translate(-320.144 -144.94)" fill="#455a64"/>
      <path id="Path_2284" data-name="Path 2284" d="M422.747,217.991a9.449,9.449,0,0,1-1.807-1.427,40.652,40.652,0,0,1-7.3-8.564,9.177,9.177,0,0,1-1.111-2.06,15.249,15.249,0,0,1,1.328,1.861c.831,1.165,2.015,2.755,3.433,4.418s2.791,3.081,3.812,4.092A14.189,14.189,0,0,1,422.747,217.991Z" transform="translate(-329.057 -146.738)" fill="#263238"/>
      <path id="Path_2285" data-name="Path 2285" d="M381.88,235.244a33.641,33.641,0,0,1,1.373-7.724,32.4,32.4,0,0,1-1.373,7.724Z" transform="translate(-326.096 -148.823)" fill="#263238"/>
      <path id="Path_2286" data-name="Path 2286" d="M385.3,234.451a13.388,13.388,0,0,1-1.147-3.352,13.1,13.1,0,0,1-.7-3.469,13.833,13.833,0,0,1,1.147,3.352,13.551,13.551,0,0,1,.7,3.469Z" transform="translate(-326.249 -148.834)" fill="#263238"/>
      <path id="Path_2287" data-name="Path 2287" d="M345.84,211.67,364.8,247.517l.425-10.633Z" transform="translate(-322.614 -147.292)" opacity="0.2"/>
      <path id="Path_2288" data-name="Path 2288" d="M344.48,209.74a8.383,8.383,0,0,1,.9,1.084l2.258,3.026c1.906,2.566,4.571,6.08,7.561,9.937l7.679,9.838,2.3,3a8.13,8.13,0,0,1,.8,1.138,8.374,8.374,0,0,1-.9-1.021c-.623-.759-1.436-1.735-2.421-2.909-2.024-2.475-4.8-5.908-7.787-9.757s-5.619-7.408-7.462-10.019c-.9-1.31-1.653-2.376-2.141-3.126A7.886,7.886,0,0,1,344.48,209.74Z" transform="translate(-322.483 -147.105)" fill="#263238"/>
      <path id="Path_2289" data-name="Path 2289" d="M344.087,221.365a4.806,4.806,0,0,1-.334-1.093c-.181-.714-.416-1.734-.7-2.99l.28.136-3.731,2.015-.253.136-.081-.28c-.135-.488-.28-1-.434-1.527l-.65-2.34.334.135-3.677,2.069-.226.126V217.5a21.892,21.892,0,0,1-.379-3.379,21.867,21.867,0,0,1,.723,3.324l-.262-.126,3.614-2.159.253-.154.081.289c.208.75.434,1.536.659,2.34.154.524.3,1.039.434,1.527l-.334-.135,3.767-1.96.226-.126.045.253c.235,1.256.425,2.295.533,3.017a4.6,4.6,0,0,1,.108,1.156Z" transform="translate(-321.493 -147.528)" fill="#263238"/>
      <path id="Path_2290" data-name="Path 2290" d="M348.774,199.422a4.345,4.345,0,0,1-1.012-.551c-.623-.388-1.5-.958-2.566-1.662l.289-.1c-.379,1.2-.8,2.575-1.265,4.047l-.09.28-.253-.145-1.373-.8-2.1-1.229.334-.135-1.2,4.047-.072.244-.2-.154a22.288,22.288,0,0,1-2.62-2.168,23.115,23.115,0,0,1,2.828,1.888l-.271.09c.316-1.192.687-2.566,1.093-4.065l.081-.289.253.154,2.1,1.211,1.373.8-.334.126,1.319-4.038.09-.244.208.145c1.039.741,1.888,1.355,2.475,1.807A4.743,4.743,0,0,1,348.774,199.422Z" transform="translate(-321.726 -145.848)" fill="#263238"/>
      <path id="Path_2291" data-name="Path 2291" d="M363.493,207.051a4.516,4.516,0,0,1-.858-.768c-.524-.515-1.265-1.265-2.15-2.186h.307c-.632,1.093-1.355,2.331-2.123,3.677l-.145.244-.217-.2-1.165-1.075-1.807-1.653.361-.063c-.759,1.364-1.454,2.6-2.06,3.677l-.126.226-.163-.19a22.736,22.736,0,0,1-2.078-2.71,23.064,23.064,0,0,1,2.349,2.457h-.289l1.96-3.731.145-.262.217.2,1.807,1.653,1.156,1.084h-.352l2.186-3.614.135-.217.172.19c.9.9,1.554,1.735,2.024,2.295a4.326,4.326,0,0,1,.714.967Z" transform="translate(-323.139 -146.512)" fill="#e0e0e0"/>
      <path id="Path_2292" data-name="Path 2292" d="M402.361,232.271a8.783,8.783,0,0,1-.759-.858c-.452-.569-1.093-1.409-1.852-2.439h.307l-2.566,3.379-.181.226-.181-.217-1.03-1.22-1.545-1.861h.361l-2.5,3.388-.154.208-.135-.208a23.19,23.19,0,0,1-1.725-2.927,21.9,21.9,0,0,1,2.015,2.71h-.289c.714-1,1.527-2.168,2.421-3.451l.172-.235.19.226,1.563,1.861,1.021,1.22h-.361l2.629-3.324.163-.208.145.208c.732,1.057,1.319,1.924,1.725,2.539a5.23,5.23,0,0,1,.569.985Z" transform="translate(-326.919 -148.921)" fill="#263238"/>
      <path id="Path_2293" data-name="Path 2293" d="M378.283,230.321a5.05,5.05,0,0,1-.9-.659c-.578-.452-1.4-1.111-2.385-1.915l.3-.072-1.716,3.867-.108.262-.235-.172-1.292-.9-1.96-1.445.352-.1c-.6,1.445-1.138,2.71-1.617,3.894l-.1.244-.181-.181a21.445,21.445,0,0,1-2.376-2.421,22.364,22.364,0,0,1,2.611,2.168l-.28.063c.443-1.156.958-2.484,1.518-3.93l.108-.28.235.172,1.969,1.427,1.283.9-.352.1,1.753-3.867.108-.235.19.163c.958.849,1.744,1.545,2.286,2.042A3.323,3.323,0,0,1,378.283,230.321Z" transform="translate(-324.567 -148.796)" fill="#e0e0e0"/>
      <path id="Path_2294" data-name="Path 2294" d="M413.018,224.137a4.779,4.779,0,0,1-.235-1.12c-.108-.732-.253-1.807-.416-3.035l.271.154-3.9,1.68-.262.108-.054-.28c-.09-.506-.19-1.03-.289-1.563-.154-.831-.3-1.626-.434-2.394l.316.163-3.839,1.771-.235.1v-.253a21.415,21.415,0,0,1-.063-3.4,21.549,21.549,0,0,1,.407,3.379l-.244-.154,3.8-1.807.262-.136.054.3c.145.768.3,1.563.452,2.385.1.542.19,1.066.28,1.563l-.316-.172,3.93-1.6.244-.1v.253c.117,1.274.208,2.322.253,3.053a4.869,4.869,0,0,1,.018,1.1Z" transform="translate(-328.217 -147.717)" fill="#e0e0e0"/>
      <path id="Path_2295" data-name="Path 2295" d="M365.561,214.34a5.006,5.006,0,0,1-.958.6c-.632.361-1.554.9-2.71,1.473l.054-.307,2.954,3.044.2.208-.244.154-1.355.822-2.078,1.265v-.361l2.981,2.981.181.19-.235.1a21.9,21.9,0,0,1-3.153,1.265,23.1,23.1,0,0,1,3.008-1.59l-.045.289-3.053-2.909-.217-.2.253-.154,2.078-1.274,1.355-.822v.352c-1.057-1.12-2.042-2.177-2.9-3.1l-.181-.19.235-.108c1.147-.56,2.1-1.021,2.755-1.319a4.318,4.318,0,0,1,1.075-.407Z" transform="translate(-324.068 -147.55)" fill="#263238"/>
      <path id="Path_2296" data-name="Path 2296" d="M383.919,236.07a4.8,4.8,0,0,1-.967.623c-.632.361-1.554.9-2.71,1.464l.045-.3,2.963,3.044.2.2-.244.154-1.355.831-2.087,1.256.045-.352,2.981,2.981.181.181-.235.1a23.319,23.319,0,0,1-3.153,1.274,23.1,23.1,0,0,1,3.063-1.581l-.054.289-3.044-2.909-.217-.208.253-.154,2.069-1.265,1.364-.831-.045.361-2.9-3.1-.181-.19.226-.108c1.147-.569,2.1-1.021,2.764-1.328A4.356,4.356,0,0,1,383.919,236.07Z" transform="translate(-325.849 -149.649)" fill="#e0e0e0"/>
      <path id="Path_2297" data-name="Path 2297" d="M346.944,235.007a5.249,5.249,0,0,1-.334-1.1c-.181-.714-.416-1.734-.7-2.981l.28.126-3.767,2.033-.253.145-.072-.28c-.145-.5-.289-1.012-.434-1.536-.226-.8-.452-1.59-.66-2.34l.334.136-3.668,2.069-.226.126v-.253a23.481,23.481,0,0,1-.379-3.37,21.206,21.206,0,0,1,.723,3.315l-.262-.126,3.614-2.159.253-.145.081.28c.208.75.434,1.536.669,2.34l.425,1.536-.334-.145,3.767-1.96.226-.117.054.244c.235,1.256.416,2.295.533,3.017A4.868,4.868,0,0,1,346.944,235.007Z" transform="translate(-321.767 -148.848)" fill="#e0e0e0"/>
      <path id="Path_2298" data-name="Path 2298" d="M363.608,244.447a5.016,5.016,0,0,1-.334-1.1c-.181-.714-.416-1.734-.7-2.981l.28.126-3.722,2.033-.253.145-.081-.28c-.145-.5-.289-1.012-.434-1.527-.226-.813-.443-1.6-.659-2.349l.334.136-3.668,2.069-.226.126V240.6a23.664,23.664,0,0,1-.379-3.379,21.546,21.546,0,0,1,.723,3.315l-.262-.117,3.614-2.159.253-.154.081.289c.217.75.434,1.527.668,2.331l.425,1.536-.325-.145,3.758-1.96.235-.117.045.244c.235,1.256.415,2.295.533,3.017a4.331,4.331,0,0,1,.09,1.147Z" transform="translate(-323.38 -149.76)" fill="#263238"/>
      <path id="Path_2299" data-name="Path 2299" d="M339.159,265.231a4.81,4.81,0,0,1-.334-1.093c-.181-.714-.416-1.734-.7-2.981l.28.127-3.722,2.033-.253.135-.081-.28c-.145-.488-.289-1-.434-1.527l-.65-2.34.325.136-3.659,2.1-.226.126v-.253a23.4,23.4,0,0,1-.379-3.379,21.876,21.876,0,0,1,.723,3.324l-.262-.126,3.614-2.159.253-.154.081.289c.217.75.434,1.536.669,2.34l.425,1.527-.325-.136,3.758-1.96.235-.126.045.253c.235,1.256.416,2.295.533,3.017a3.84,3.84,0,0,1,.081,1.1Z" transform="translate(-321.019 -151.772)" fill="#e0e0e0"/>
      <path id="Path_2300" data-name="Path 2300" d="M339.382,243.866a4.517,4.517,0,0,1-.949-.65c-.587-.434-1.418-1.084-2.412-1.888l.3-.072-1.635,3.921-.108.262-.235-.172c-.425-.289-.858-.605-1.3-.9l-1.969-1.418.343-.1-1.572,3.912-.1.235-.181-.172a24.036,24.036,0,0,1-2.412-2.394,21.52,21.52,0,0,1,2.647,2.132l-.28.072c.425-1.156.9-2.493,1.473-3.948l.1-.28.244.172,2.006,1.391,1.292.9-.343.09,1.707-3.885.108-.235.19.163c.967.84,1.762,1.527,2.3,2.024a4.9,4.9,0,0,1,.786.84Z" transform="translate(-320.808 -150.11)" fill="#263238"/>
      <path id="Path_2301" data-name="Path 2301" d="M348.977,244.78a4.565,4.565,0,0,1-.9.687c-.605.407-1.491.976-2.575,1.653v-.307l3.171,2.828.208.2-.235.163-1.292.9-1.987,1.4v-.352l3.243,2.782.19.172-.217.117a22.368,22.368,0,0,1-3.062,1.482,23.57,23.57,0,0,1,2.891-1.807v.289l-3.252-2.71-.226-.19.244-.172,1.978-1.409,1.292-.9v.361l-3.108-2.882-.19-.181.217-.126c1.1-.641,2.015-1.165,2.665-1.518A4.273,4.273,0,0,1,348.977,244.78Z" transform="translate(-322.526 -150.49)" fill="#263238"/>
      <path id="Path_2302" data-name="Path 2302" d="M358.685,251.6a4.52,4.52,0,0,1-.632.958c-.434.6-1.075,1.427-1.861,2.439l-.072-.3,3.939,1.581.262.1-.163.244-.9,1.31-1.391,2-.108-.352,3.93,1.518.244.1-.172.181a21.525,21.525,0,0,1-2.367,2.439,23.594,23.594,0,0,1,2.1-2.665l.072.28L357.6,260.01l-.28-.1.172-.244c.434-.641.9-1.31,1.373-2.006.316-.443.614-.9.9-1.3l.1.343-3.893-1.653-.235-.1.163-.2c.822-.985,1.5-1.807,1.987-2.331A10.331,10.331,0,0,1,358.685,251.6Z" transform="translate(-323.57 -151.149)" fill="#e0e0e0"/>
      <path id="Path_2303" data-name="Path 2303" d="M353.49,267.9a.769.769,0,0,0,.1.3,6.54,6.54,0,0,1,.262.9c.217.786.542,1.951.9,3.46s.822,3.352,1.138,5.547a5.881,5.881,0,0,1-.461,3.532,11.445,11.445,0,0,1-2.313,3.279v-.154c2.367,11.238,5.682,26.984,9.359,44.4,3.568,17.164,6.757,32.657,9.034,43.9,1.129,5.619,2.024,10.172,2.611,13.325.3,1.572.515,2.8.65,3.614a5.422,5.422,0,0,1,.145,1.283s-.072-.434-.235-1.265-.425-2.069-.741-3.614c-.659-3.171-1.6-7.706-2.755-13.3-2.349-11.247-5.574-26.749-9.142-43.869-3.614-17.435-6.884-33.19-9.215-44.429v-.09l.063-.063c1.915-1.924,3.207-4.354,2.71-6.54-.289-2.177-.732-4.038-1.066-5.547s-.623-2.647-.822-3.469l-.217-.9A1.313,1.313,0,0,1,353.49,267.9Z" transform="translate(-323.289 -152.724)" fill="#455a64"/>
      <path id="Path_2304" data-name="Path 2304" d="M331.566,270.3a2.39,2.39,0,0,1,.28.614,7.028,7.028,0,0,1,.343,1.807,8.347,8.347,0,0,1-6.893,8.826,7.294,7.294,0,0,1-1.807.108,1.734,1.734,0,0,1-.659-.117c0-.09.958,0,2.43-.316a8.438,8.438,0,0,0,6.622-8.492A20.773,20.773,0,0,0,331.566,270.3Z" transform="translate(-320.391 -152.956)" fill="#455a64"/>
      <path id="Path_2305" data-name="Path 2305" d="M349.177,271.324s0-.135.217-.253a1.184,1.184,0,0,1,.9-.117,1.2,1.2,0,0,1,.9,1,1.355,1.355,0,0,1-2.43,1,1.292,1.292,0,0,1-.154-1.346c.37-.732.967-.75.949-.7a1.622,1.622,0,0,0-.632.813.967.967,0,0,0,.172.958,1.039,1.039,0,0,0,1.1.3.994.994,0,0,0,.56-.976.84.84,0,0,0-.587-.741A1.608,1.608,0,0,0,349.177,271.324Z" transform="translate(-322.87 -153.014)" fill="#455a64"/>
      <path id="Path_2306" data-name="Path 2306" d="M369.428,272.979a3.333,3.333,0,0,1-1.753.605,6.324,6.324,0,0,1-7.019-4.517,3.451,3.451,0,0,1-.172-1.807c.081,0,.1.7.479,1.744a6.5,6.5,0,0,0,6.676,4.318C368.742,273.177,369.4,272.906,369.428,272.979Z" transform="translate(-324.024 -152.662)" fill="#455a64"/>
      <path id="Path_2307" data-name="Path 2307" d="M378.911,426.473a3.055,3.055,0,0,1-.9.108l-2.457.136-8.131.388-8.13.425-2.466.1a3.205,3.205,0,0,1-.9,0,3.062,3.062,0,0,1,.9-.163c.569-.072,1.409-.163,2.448-.253,2.069-.19,4.942-.4,8.13-.56s6.053-.235,8.13-.244H378a3.324,3.324,0,0,1,.912.063Z" transform="translate(-323.588 -168.037)" fill="#455a64"/>
      <path id="Path_2308" data-name="Path 2308" d="M335.72,281.71c.126,0,7.227,29.3,15.891,65.5s15.556,65.586,15.43,65.613-7.227-29.288-15.891-65.5S335.593,281.737,335.72,281.71Z" transform="translate(-321.636 -154.058)" fill="#455a64"/>
      <path id="Path_2309" data-name="Path 2309" d="M361.31,283a1.074,1.074,0,0,1,.163.2l.443.587,1.68,2.3,6.089,8.5,8.989,12.647,5.285,7.489c1.807,2.6,3.614,5.52,4.092,8.953s-.524,6.748-1.563,9.72-2.177,5.863-3.225,8.582c-2.114,5.42-4.119,10.317-5.863,14.373s-3.216,7.317-4.246,9.558l-1.22,2.575-.325.659c-.081.145-.117.226-.127.217a.848.848,0,0,1,.081-.235c.072-.181.172-.407.289-.687l1.129-2.6c.985-2.268,2.412-5.547,4.11-9.612s3.677-8.944,5.764-14.4c1.039-2.71,2.114-5.592,3.189-8.582s2.015-6.2,1.545-9.5-2.249-6.161-4.011-8.754l-5.258-7.5-8.907-12.747-5.971-8.591-1.6-2.349c-.172-.253-.307-.452-.407-.614S361.3,283,361.31,283Z" transform="translate(-324.108 -154.183)" fill="#455a64"/>
      <path id="Path_2310" data-name="Path 2310" d="M412.13,202.035,432.3,187.31l.994,1.581L413.25,203.8Z" transform="translate(-329.018 -144.938)" fill="#263238"/>
      <path id="Path_2311" data-name="Path 2311" d="M417.65,201.75s2.71-7.046,3.315-8.546,1.635-4.11,2.024-4.165,1.807.163-.045,4.643,2.177,1.744,2.177,1.744l3.885-2.782s3.072,9.178,1.328,11.943a45.066,45.066,0,0,1-4.607,5.836Z" transform="translate(-329.552 -145.105)" fill="#ffbe9d"/>
    </g>
    <g id="freepik--character-1--inject-94" transform="translate(30.54 410.74)">
      <path id="Path_2312" data-name="Path 2312" d="M133.536,328.343a49.99,49.99,0,0,0-.316-7.11s-5.854-.623-6.206-6.423,0-19.188,0-19.188l10.66-5.213,11.744,8.88-1.807,29.026Z" transform="translate(-68.232 -280.166)" fill="#b78876"/>
      <path id="Path_2313" data-name="Path 2313" d="M128.82,306.841a.741.741,0,1,0,.741-.741A.741.741,0,0,0,128.82,306.841Z" transform="translate(-68.422 -281.681)" fill="#263238"/>
      <path id="Path_2314" data-name="Path 2314" d="M127.618,306.233c.09.09.641-.37,1.436-.416s1.4.343,1.491.235-.063-.226-.325-.407a1.951,1.951,0,0,0-1.192-.316,2.005,2.005,0,0,0-1.147.461C127.645,306,127.564,306.188,127.618,306.233Z" transform="translate(-68.304 -281.607)" fill="#263238"/>
      <circle id="Ellipse_148" data-name="Ellipse 148" cx="0.741" cy="0.741" r="0.741" transform="translate(69.044 24.283)" fill="#263238"/>
      <path id="Path_2315" data-name="Path 2315" d="M137.179,306.074c.1.1.641-.37,1.445-.407s1.4.343,1.482.235-.054-.226-.316-.407a1.96,1.96,0,0,0-2.34.145C137.206,305.848,137.134,306.038,137.179,306.074Z" transform="translate(-69.228 -281.592)" fill="#263238"/>
      <path id="Path_2316" data-name="Path 2316" d="M133.921,312.814a5.051,5.051,0,0,0-1.31-.163c-.2,0-.4-.045-.443-.19a1.156,1.156,0,0,1,.117-.65l.542-1.653a28.952,28.952,0,0,0,1.22-4.318,31.933,31.933,0,0,0-1.527,4.219c-.19.578-.361,1.138-.524,1.662a1.247,1.247,0,0,0-.081.84.5.5,0,0,0,.343.289,1.167,1.167,0,0,0,.343,0A5.474,5.474,0,0,0,133.921,312.814Z" transform="translate(-68.717 -281.656)" fill="#263238"/>
      <path id="Path_2317" data-name="Path 2317" d="M136.656,314.4a8.826,8.826,0,0,1-3.876,1.328,2.222,2.222,0,0,0,2.656.75C137.143,315.764,136.656,314.4,136.656,314.4Z" transform="translate(-68.804 -282.483)" fill="#fff"/>
      <path id="Path_2318" data-name="Path 2318" d="M133.9,324.252a14.454,14.454,0,0,0,7.688-2.6s-1.744,4.264-7.561,4.029Z" transform="translate(-68.912 -283.184)" fill="#a36957"/>
      <path id="Path_2319" data-name="Path 2319" d="M159.385,304.965s2.367,13.379-8.935,15.791l.334-16.116Z" transform="translate(-70.511 -281.54)" fill="#263238"/>
      <path id="Path_2320" data-name="Path 2320" d="M156.542,299.532a20.344,20.344,0,0,0-3.867-7.841c1.626.678,2.71,1.355,2.936,1.138s-.19-.623-.9-1.229a9.639,9.639,0,0,0-3.126-1.707l-.533-.145a6.215,6.215,0,0,0,2.006-1.292,4.68,4.68,0,0,0,1.129-5.194,4.3,4.3,0,0,0-4.237-2.213,5.42,5.42,0,0,0-4.011,2.791,6.431,6.431,0,0,0-.479,1.12,15.872,15.872,0,0,1,.2-1.915c.361-2.231,1.192-3.9,1.057-3.975a7.878,7.878,0,0,0-1.545,3.894,4.84,4.84,0,0,1-.081.632,13.019,13.019,0,0,0-.65-1.689c-.551-1.165-1.075-1.807-1.229-1.707-.316.154.714,2.6,1.138,5.908a11.746,11.746,0,0,0-3.144-.587c-1.969,0-5.24-.9-9.865,2.81a14.148,14.148,0,0,0-3.984,3.821,14.3,14.3,0,0,0-2.484,7.57,12.512,12.512,0,0,0,.154,2.43,2.711,2.711,0,0,0,.226.858c.09,0-.172-1.256,0-3.27a14.508,14.508,0,0,1,.985-4.354,11.021,11.021,0,0,0,.434,7.29l10.344-1.617c-.668-2.267-.181-5.863.136-7.625a20.266,20.266,0,0,0,9.079,12.5l10.886-1.707C156.958,303.245,156.777,300.417,156.542,299.532Z" transform="translate(-68.039 -279.07)" fill="#263238"/>
      <path id="Path_2321" data-name="Path 2321" d="M187.65,444.14c.334.163,27.02,5.42,26.036,1.807s-25.8-9.287-25.8-9.287Z" transform="translate(-74.105 -294.295)" fill="#62c9d5"/>
      <path id="Path_2322" data-name="Path 2322" d="M201.063,442.33c.126,0,.316.614.307,1.418s-.2,1.436-.325,1.418-.154-.65-.145-1.418S200.936,442.339,201.063,442.33Z" transform="translate(-75.385 -294.843)" fill="#263238"/>
      <path id="Path_2323" data-name="Path 2323" d="M199.475,441.79a2.315,2.315,0,0,1,.262,1.653c-.09.94-.425,1.626-.542,1.581s0-.75.072-1.626S199.339,441.808,199.475,441.79Z" transform="translate(-75.216 -294.791)" fill="#263238"/>
      <path id="Path_2324" data-name="Path 2324" d="M197.584,441.63c.126,0,.307.7.325,1.608s-.135,1.626-.262,1.617-.19-.723-.208-1.608S197.458,441.639,197.584,441.63Z" transform="translate(-75.051 -294.775)" fill="#263238"/>
      <path id="Path_2325" data-name="Path 2325" d="M194,438.74a1.32,1.32,0,0,1,.416.045,6.965,6.965,0,0,1,1.174.244c1.021.217,2.493.569,4.291,1.066s3.93,1.12,6.26,1.915c1.165.4,2.4.8,3.614,1.337a11.743,11.743,0,0,1,3.559,2.249,1.444,1.444,0,0,1,.388.479.605.605,0,0,1-.226.75,2.2,2.2,0,0,1-1.129.244c-.7.054-1.382.081-2.051.1-1.346,0-2.647,0-3.885-.1-2.466-.154-4.671-.461-6.513-.75s-3.324-.578-4.345-.786l-1.174-.244a1.446,1.446,0,0,1-.407-.117,10.273,10.273,0,0,1,1.608.181l4.363.632c1.807.253,4.047.524,6.5.66,1.229.063,2.511.1,3.848.063.659,0,1.346-.045,2.024-.1a1.9,1.9,0,0,0,.9-.172c.081-.063.09-.1.063-.181a1.345,1.345,0,0,0-.28-.325,11.41,11.41,0,0,0-3.424-2.159c-1.211-.524-2.439-.9-3.614-1.355-2.322-.8-4.436-1.473-6.215-2.006s-3.243-.9-4.246-1.211a11.989,11.989,0,0,1-1.5-.461Z" transform="translate(-74.716 -294.496)" fill="#263238"/>
      <path id="Path_2326" data-name="Path 2326" d="M209.639,443.13c.126.045-.135,1.057,0,2.3a19.2,19.2,0,0,1,.352,2.277,4.291,4.291,0,0,1-.316-4.58Z" transform="translate(-76.183 -294.92)" fill="#263238"/>
      <path id="Path_2327" data-name="Path 2327" d="M87.291,439.09c-.37,0-27.3,3.713-25.214,6.739s27.418.37,27.418.37Z" transform="translate(-61.962 -294.53)" fill="#62c9d5"/>
      <path id="Path_2328" data-name="Path 2328" d="M78,445.656c-.108.054-.5-.488-.75-1.247A2.2,2.2,0,0,1,77.094,443a3.569,3.569,0,0,1,.6,1.3C77.934,445.033,78.115,445.593,78,445.656Z" transform="translate(-63.419 -294.907)" fill="#263238"/>
      <path id="Path_2329" data-name="Path 2329" d="M79.671,445.593c-.108.063-.569-.56-.795-1.473s-.126-1.68,0-1.68.244.714.461,1.563S79.788,445.53,79.671,445.593Z" transform="translate(-63.583 -294.854)" fill="#263238"/>
      <path id="Path_2330" data-name="Path 2330" d="M81.5,445.135c-.117.054-.515-.569-.831-1.418s-.407-1.581-.28-1.617.416.632.723,1.454S81.613,445.081,81.5,445.135Z" transform="translate(-63.737 -294.821)" fill="#263238"/>
      <path id="Path_2331" data-name="Path 2331" d="M83.733,446.35a1.374,1.374,0,0,1-.407.09l-1.192.154c-1.039.126-2.539.271-4.4.388s-4.083.217-6.55.235c-1.238,0-2.529,0-3.885-.081a11.348,11.348,0,0,1-4.092-.958,1.509,1.509,0,0,1-.533-.325.614.614,0,0,1,0-.777,2.123,2.123,0,0,1,.985-.605c.641-.28,1.274-.524,1.906-.768,1.265-.461,2.511-.84,3.7-1.174,2.385-.66,4.571-1.084,6.405-1.409s3.334-.542,4.363-.678l1.192-.154a1.318,1.318,0,0,1,.416,0,10.306,10.306,0,0,1-1.581.352l-4.327.822c-1.807.37-3.993.831-6.324,1.5-1.183.343-2.412.723-3.614,1.193-.623.244-1.256.488-1.888.759a1.9,1.9,0,0,0-.786.452c-.054.09-.054.117,0,.19a1.275,1.275,0,0,0,.379.217,11.14,11.14,0,0,0,3.93.9c1.319.108,2.62.1,3.848.108,2.457,0,4.671-.054,6.532-.126s3.361-.181,4.4-.244a11.427,11.427,0,0,1,1.518-.063Z" transform="translate(-62.018 -294.644)" fill="#263238"/>
      <path id="Path_2332" data-name="Path 2332" d="M69.517,447.548c-.145,0-.217-1.039-.723-2.186s-1.174-1.942-1.075-2.033.985.587,1.509,1.807a3.27,3.27,0,0,1,.289,2.412Z" transform="translate(-62.518 -294.939)" fill="#263238"/>
      <path id="Path_2333" data-name="Path 2333" d="M172.709,402.776H159l-50.59,1.31-14.454-1.87a13.039,13.039,0,0,0-4.21-.551,12.3,12.3,0,0,0-4.942,3.758C79.3,412,82.768,422.136,91.061,424.394l7.787,2.114L81.81,431.983l5.755,16.333s25.439-5.5,50.111-11.31l39.478,10.678,5.691-18.33-6.694-2.177c4.2-1.283,6.857-2.295,7.227-2.909,2.484-3.848,6.884-21.745-10.732-21.474" transform="translate(-63.88 -290.909)" fill="#455a64"/>
      <path id="Path_2334" data-name="Path 2334" d="M181.913,429.98l-29.342,12.151-8.871-2.4Z" transform="translate(-69.859 -293.65)" opacity="0.2"/>
      <path id="Path_2335" data-name="Path 2335" d="M100.81,404.42l37.563,10.759,28.61-9.757Z" transform="translate(-65.716 -291.18)" opacity="0.2"/>
      <path id="Path_2336" data-name="Path 2336" d="M94.229,450.19a12.991,12.991,0,0,1-1.2-2.358c-.669-1.491-1.536-3.614-2.385-5.926s-1.545-4.517-1.987-6.071a13.443,13.443,0,0,1-.605-2.575,16.163,16.163,0,0,1,.9,2.475c.524,1.545,1.256,3.677,2.1,6.008s1.671,4.436,2.258,5.953a17.4,17.4,0,0,1,.912,2.493Z" transform="translate(-64.483 -293.967)" fill="#263238"/>
      <path id="Path_2337" data-name="Path 2337" d="M185.035,409.64a.9.9,0,0,1-.235.1l-.7.262-2.71.958-10.019,3.406c-8.5,2.837-20.263,6.676-33.3,10.768s-24.888,7.661-33.48,10.19L94.4,438.268l-2.773.768-.732.19a1,1,0,0,1-.253.045l.244-.09.714-.235,2.71-.858L104.453,435c8.573-2.6,20.4-6.224,33.425-10.317s24.807-7.878,33.326-10.633l10.1-3.261,2.755-.9.714-.217a.9.9,0,0,1,.262-.027Z" transform="translate(-64.733 -291.685)" fill="#263238"/>
      <path id="Path_2338" data-name="Path 2338" d="M158.583,408.91a2.621,2.621,0,0,1-.578.244l-1.68.614c-1.463.524-3.614,1.265-6.233,2.159-5.276,1.807-12.584,4.192-20.67,6.784s-15.439,4.878-20.778,6.486c-2.71.8-4.833,1.436-6.324,1.861l-1.725.479a4.584,4.584,0,0,1-.614.135,2.708,2.708,0,0,1,.587-.226l1.7-.56,6.324-2.006,20.724-6.613,20.706-6.658L156.3,409.6l1.716-.533A2.766,2.766,0,0,1,158.583,408.91Z" transform="translate(-65.635 -291.614)" fill="#263238"/>
      <path id="Path_2339" data-name="Path 2339" d="M138.183,415.116c0,.126-8.429-2.168-18.754-5.122s-18.655-5.42-18.619-5.574,8.429,2.168,18.745,5.122S138.219,414.989,138.183,415.116Z" transform="translate(-65.715 -291.18)" fill="#263238"/>
      <path id="Path_2340" data-name="Path 2340" d="M186.852,430.94a94.509,94.509,0,0,1-3.234,8.989c-1.906,4.914-3.55,8.853-3.668,8.808a92.917,92.917,0,0,1,3.234-8.98C185.09,434.843,186.735,430.895,186.852,430.94Z" transform="translate(-73.361 -293.742)" fill="#263238"/>
      <path id="Path_2341" data-name="Path 2341" d="M182.128,438.9a64.572,64.572,0,0,1-7.381-1.725,61.225,61.225,0,0,1-7.227-2.186,63.6,63.6,0,0,1,7.381,1.725A61.191,61.191,0,0,1,182.128,438.9Z" transform="translate(-72.16 -294.134)" fill="#263238"/>
      <path id="Path_2342" data-name="Path 2342" d="M117.819,421.519a9.24,9.24,0,0,1-1.4-.28l-3.776-.9c-3.18-.813-7.579-1.915-12.376-3.361a98.482,98.482,0,0,1-12.06-4.418c-1.491-.687-2.71-1.283-3.487-1.725a7.374,7.374,0,0,1-1.229-.732,9.19,9.19,0,0,1,1.31.569c.831.388,2.033.9,3.541,1.581a120.21,120.21,0,0,0,12.06,4.273c4.788,1.445,9.169,2.593,12.331,3.487l3.731,1.075A7.093,7.093,0,0,1,117.819,421.519Z" transform="translate(-64.042 -291.729)" fill="#263238"/>
      <path id="Path_2343" data-name="Path 2343" d="M147.824,331.1h-1.111l-.163-3.848-15.258.9s.154,1.807.145,3.063c-9.4.9-24.455,5.727-24.816,26.876l12.051.28c-1.021,9.7-.9,15.493-1.888,19.134-1.68,6.017-7,18.718-5.935,19.36s50.517,1.554,52.875.271-1.933-17.86-3.008-22.359c-.678-2.873-.822-9.449-.84-14.536l13.84-.623S174.717,331.017,147.824,331.1Z" transform="translate(-66.277 -283.725)" fill="#62c9d5"/>
      <path id="Path_2344" data-name="Path 2344" d="M149.258,331.337a9.538,9.538,0,0,1-2.24.379c-1.4.163-3.333.316-5.475.361a52.468,52.468,0,0,1-5.475-.126,10.289,10.289,0,0,1-2.258-.289,11.553,11.553,0,0,1,2.268-.045h5.42c2.1,0,4.056-.145,5.42-.217a12.187,12.187,0,0,1,2.34-.063Z" transform="translate(-68.904 -284.117)" fill="#263238"/>
      <path id="Path_2345" data-name="Path 2345" d="M136.975,328.11c.135,0,.235.741.235,1.653s-.1,1.662-.235,1.662-.235-.741-.235-1.662S136.8,328.11,136.975,328.11Z" transform="translate(-69.187 -283.808)" fill="#263238"/>
      <path id="Path_2346" data-name="Path 2346" d="M141.446,327.79a3.814,3.814,0,0,1,.28,1.807,3.9,3.9,0,0,1-.181,1.807c-.136,0-.262-.813-.289-1.807a3.757,3.757,0,0,1,.19-1.807Z" transform="translate(-69.62 -283.777)" fill="#263238"/>
      <path id="Path_2347" data-name="Path 2347" d="M146.113,327.63a3.377,3.377,0,0,1,.325,1.807c.018,1.012-.117,1.807-.253,1.807a4.409,4.409,0,0,1-.217-1.807A5.569,5.569,0,0,1,146.113,327.63Z" transform="translate(-70.077 -283.762)" fill="#263238"/>
      <path id="Path_2348" data-name="Path 2348" d="M149.493,327.47c.135,0,.226.795.352,1.762a4.645,4.645,0,0,1,.1,1.807c-.126.045-.443-.732-.56-1.744S149.366,327.461,149.493,327.47Z" transform="translate(-70.403 -283.746)" fill="#263238"/>
      <path id="Path_2349" data-name="Path 2349" d="M122.036,360.484a22.321,22.321,0,0,1-.271-4.517,21.094,21.094,0,0,1,.2-4.517,22.983,22.983,0,0,1,.271,4.517A22.711,22.711,0,0,1,122.036,360.484Z" transform="translate(-67.736 -286.063)" fill="#263238"/>
      <path id="Path_2350" data-name="Path 2350" d="M164.907,362.072a26.813,26.813,0,0,1-.65-4.878,25.206,25.206,0,0,1-.172-4.923,52.54,52.54,0,0,1,.822,9.8Z" transform="translate(-71.824 -286.142)" fill="#263238"/>
      <path id="Path_2351" data-name="Path 2351" d="M120.561,361.4a10.282,10.282,0,0,1-2.078.063h-9.964a10.149,10.149,0,0,1-2.069-.063,8.319,8.319,0,0,1,2.06-.262c1.274-.1,3.044-.172,5-.163s3.722.072,5,.172a8.759,8.759,0,0,1,2.06.253Z" transform="translate(-66.26 -286.983)" fill="#263238"/>
      <path id="Path_2352" data-name="Path 2352" d="M179.284,363.092a56.657,56.657,0,0,1-7.363.235,56.736,56.736,0,0,1-7.372-.235,58.722,58.722,0,0,1,7.372-.235,58.647,58.647,0,0,1,7.363.235Z" transform="translate(-71.874 -287.162)" fill="#263238"/>
      <path id="Path_2353" data-name="Path 2353" d="M176.186,363.25s3.614,33.723-6.721,37.039S138.75,387.9,138.75,387.9l5.872-11.889s13.551,9.413,16.478,7.29,1.4-20.055,1.4-20.055Z" transform="translate(-69.381 -287.203)" fill="#b78876"/>
      <path id="Path_2354" data-name="Path 2354" d="M106.742,361.438s-3.677,33.38,6.649,36.7,30.715-12.395,30.715-12.395l-5.881-11.889s-13.632,8.718-16.46,6.513c-1.635-1.283-1.68-18.763-1.68-18.763C115.279,361.4,110.825,361.194,106.742,361.438Z" transform="translate(-66.227 -287.017)" fill="#b78876"/>
      <path id="Path_2355" data-name="Path 2355" d="M167.3,369.15l-6.857,33.606s-42.134-.325-42.568-.452-4.517-33.154-4.517-33.154Z" transform="translate(-66.928 -287.773)" fill="#263238"/>
      <path id="Path_2356" data-name="Path 2356" d="M139.569,387.748a2.53,2.53,0,1,0,2.529-2.358,2.457,2.457,0,0,0-2.529,2.358Z" transform="translate(-69.459 -289.342)" fill="#fff"/>
      <path id="Path_2357" data-name="Path 2357" d="M149.346,306.337a2.71,2.71,0,0,1,2.566-.154,2.647,2.647,0,0,1,.958,1.68,3.5,3.5,0,0,1-.768,3.063,2.385,2.385,0,0,1-2.981.407" transform="translate(-70.383 -281.665)" fill="#b78876"/>
      <path id="Path_2358" data-name="Path 2358" d="M150.544,310.538c0-.072.289-.117.623-.37a1.472,1.472,0,0,0,.669-1.337,1.5,1.5,0,0,0-.858-1.211c-.379-.181-.669-.172-.678-.244s.289-.208.795-.081a1.725,1.725,0,0,1,.3,3.189C150.869,310.682,150.544,310.637,150.544,310.538Z" transform="translate(-70.497 -281.792)" fill="#a36957"/>
    </g>
    <g id="Layer_2" data-name="Layer 2" transform="matrix(1, -0.017, 0.017, 1, 77.779, 246.801)">
      <g id="Layer_1" data-name="Layer 1" transform="translate(0.029 -0.05)">
        <path id="Path_2067" data-name="Path 2067" d="M47.748,114.455a8.883,8.883,0,0,1-9.535-8.841c0-1.333,0-2.617.06-3.854a55.9,55.9,0,0,1,1.435-11.072,41.2,41.2,0,0,1,3.618-9.649,55.277,55.277,0,0,1,6.031-9.046Q52.1,68.447,54.4,65.1a47.951,47.951,0,0,0,3.908-6.622,33.169,33.169,0,0,0,2.376-6.863,25.009,25.009,0,0,0,.488-7.49Q59.779,25.617,47.82,26.515A10.047,10.047,0,0,0,43.6,27.9a11.458,11.458,0,0,0-3.787,3.679,19.142,19.142,0,0,0-2.545,6.091v.072a12.279,12.279,0,0,1-11.03,9.336l-7.556.549A11.935,11.935,0,0,1,6.015,33.692a44.47,44.47,0,0,1,1.309-5.446,38.844,38.844,0,0,1,8.262-14.763A38.162,38.162,0,0,1,28.854,4.2,52.871,52.871,0,0,1,45.824.173a53.89,53.89,0,0,1,18.424,1.5A35.673,35.673,0,0,1,88.105,22.016,52.916,52.916,0,0,1,92.5,40.38a40.448,40.448,0,0,1-1,13.213A52.768,52.768,0,0,1,87.134,65,77.924,77.924,0,0,1,80.5,75.521c-2.563,3.425-5.235,6.875-7.894,10.451A33.965,33.965,0,0,0,68.988,92a29.755,29.755,0,0,0-2.1,6.278,41.106,41.106,0,0,0-.868,6.857v.072a8.889,8.889,0,0,1-8.184,8.5ZM38.31,149.228a18.219,18.219,0,0,1,.706-6.839,15.927,15.927,0,0,1,3.015-5.633,16.283,16.283,0,0,1,5.1-4,17.972,17.972,0,0,1,6.929-1.857,18.375,18.375,0,0,1,7.237.784,16.2,16.2,0,0,1,5.639,3.2,15.987,15.987,0,0,1,3.842,5.1,19.425,19.425,0,0,1,1.019,13.5,16.687,16.687,0,0,1-3.015,5.687,15.222,15.222,0,0,1-5.1,4,18.985,18.985,0,0,1-7.044,1.809,18.514,18.514,0,0,1-7.122-.742,15.107,15.107,0,0,1-5.645-3.19,16.578,16.578,0,0,1-3.842-5.162,18.321,18.321,0,0,1-1.719-6.652Z" transform="translate(-2.336 0.05)" fill="#295456"/>
        <path id="Path_2068" data-name="Path 2068" d="M41.967,114.455a8.877,8.877,0,0,1-9.535-8.841q0-2,.06-3.854a55.482,55.482,0,0,1,1.441-11.072,40.937,40.937,0,0,1,3.618-9.649,54.88,54.88,0,0,1,6.031-9.046q2.732-3.546,5.042-6.893a47.951,47.951,0,0,0,3.9-6.622,33.169,33.169,0,0,0,2.364-6.893,25.414,25.414,0,0,0,.488-7.49q-1.387-18.478-13.34-17.58A10.071,10.071,0,0,0,37.818,27.9a11.392,11.392,0,0,0-3.781,3.679,19.009,19.009,0,0,0-2.545,6.091v.072a12.279,12.279,0,0,1-11.036,9.336l-7.556.549A11.941,11.941,0,0,1,.2,33.716a43.42,43.42,0,0,1,1.345-5.47A38.765,38.765,0,0,1,9.83,13.483,38.2,38.2,0,0,1,23.037,4.2,52.944,52.944,0,0,1,40.044.173a53.9,53.9,0,0,1,18.424,1.5A36.751,36.751,0,0,1,72.718,9.056a36.926,36.926,0,0,1,9.607,12.96,52.916,52.916,0,0,1,4.4,18.363,40.611,40.611,0,0,1-1,13.213A53.07,53.07,0,0,1,81.354,65,77.379,77.379,0,0,1,74.72,75.521c-2.563,3.425-5.235,6.875-7.888,10.451A34.013,34.013,0,0,0,63.213,92a29.744,29.744,0,0,0-2.1,6.278,41.093,41.093,0,0,0-.874,6.857v.072a8.889,8.889,0,0,1-8.19,8.5Zm-9.444,34.773a18.345,18.345,0,0,1,.706-6.839,16.036,16.036,0,0,1,3.015-5.633,16.223,16.223,0,0,1,5.1-4,17.942,17.942,0,0,1,6.917-1.857,18.394,18.394,0,0,1,7.237.784,16.283,16.283,0,0,1,5.639,3.2,15.885,15.885,0,0,1,3.836,5.1,19.377,19.377,0,0,1,1.025,13.5,16.7,16.7,0,0,1-3.015,5.687,15.161,15.161,0,0,1-5.072,4,18.955,18.955,0,0,1-7.044,1.809,18.526,18.526,0,0,1-7.122-.742,15.077,15.077,0,0,1-5.639-3.19,16.488,16.488,0,0,1-3.842-5.162,18.327,18.327,0,0,1-1.737-6.652Z" transform="translate(-0.029 0.05)" fill="#62c9d5"/>
        <path id="Path_2069" data-name="Path 2069" d="M24.642,18.239c.452-.6-.434-1.465-1.043-1.043-3.347,2.316-6.236,5.657-8.865,8.745a23.816,23.816,0,0,0-5.349,9.354c-.754,2.961-.742,6.356.923,9.046,1.079,1.731,3.142,3.528,5.235,2.581A.271.271,0,0,0,15.6,46.5c-2.412-1.948-4.221-3.172-4.511-6.549A14.649,14.649,0,0,1,13.5,31.2C16.536,26.266,21.246,22.8,24.642,18.239Z" transform="translate(-3.552 -6.751)" fill="#d4ecff"/>
        <path id="Path_2070" data-name="Path 2070" d="M69.643,245.534c-3.781-2.292-6.3-4.975-6.374-9.649-.072-4.6,2.213-8.178,5.729-10.855a.41.41,0,0,0-.314-.748c-9.945,2.31-10.047,21.415.6,22.706C70.041,247.024,70.222,245.89,69.643,245.534Z" transform="translate(-24.334 -88.989)" fill="#d4ecff"/>
      </g>
    </g>
  </g>
</svg>
