<?xml version="1.0" standalone="no"?>
<!DOCTYPE svg PUBLIC "-//W3C//DTD SVG 20010904//EN"
 "http://www.w3.org/TR/2001/REC-SVG-20010904/DTD/svg10.dtd">
<svg version="1.0" xmlns="http://www.w3.org/2000/svg"
 width="128.000000pt" height="128.000000pt" viewBox="0 0 128.000000 128.000000"
 preserveAspectRatio="xMidYMid meet">

<g transform="translate(0.000000,128.000000) scale(0.100000,-0.100000)"
fill="#000000" stroke="none">
<path d="M0 1065 l0 -215 20 20 c11 11 25 20 31 20 5 0 31 -19 56 -43 l45 -43
-31 -31 -30 -31 -46 49 -45 48 0 -101 c0 -79 3 -99 12 -90 29 29 55 9 273
-208 l220 -220 134 -45 c102 -34 143 -53 168 -77 l33 -32 -32 -33 -32 -33 252
0 252 0 0 207 0 208 -173 -173 -172 -172 -63 63 c-61 61 -66 64 -185 102
l-122 39 -202 200 c-112 110 -203 207 -203 216 0 22 20 40 44 40 13 0 58 -38
116 -95 l96 -96 24 26 24 25 -152 153 c-84 85 -152 160 -152 169 0 18 31 48
50 48 7 0 82 -68 167 -152 l153 -152 25 24 25 24 -195 196 c-192 193 -211 220
-183 248 28 28 55 9 248 -183 l196 -195 24 25 24 25 -152 153 c-84 85 -152
160 -152 169 0 18 31 48 50 48 8 0 112 -98 232 -217 l218 -217 25 24 26 24
-106 106 c-106 106 -121 134 -90 160 29 24 64 -1 197 -138 148 -154 199 -234
220 -349 10 -55 17 -68 65 -115 l53 -52 0 432 0 432 -197 -1 c-109 -1 -187 -4
-173 -8 28 -8 30 -27 10 -100 -11 -41 -13 -43 -42 -37 -18 3 -34 8 -36 11 -3
3 2 32 11 65 10 33 17 62 17 65 0 3 -196 5 -435 5 l-435 0 0 -215z m1098 92
l22 -23 -50 -49 -50 -49 -25 24 -25 24 47 48 c26 26 50 48 53 48 4 0 16 -10
28 -23z m-979 -93 c17 -14 31 -29 31 -34 0 -4 -13 -22 -29 -39 l-29 -31 -31
35 c-34 39 -36 47 -21 76 15 26 43 24 79 -7z m1090 -110 c1 -18 -9 -24 -61
-37 -66 -17 -78 -13 -78 26 0 9 0 20 -1 24 0 5 28 15 63 24 69 17 76 13 77
-37z"/>
<path d="M0 302 l0 -302 387 0 387 0 -42 43 c-37 38 -57 48 -165 82 l-122 39
-222 220 -223 220 0 -302z"/>
</g>
</svg>
