<?xml version="1.0" standalone="no"?>
<!DOCTYPE svg PUBLIC "-//W3C//DTD SVG 20010904//EN"
 "http://www.w3.org/TR/2001/REC-SVG-20010904/DTD/svg10.dtd">
<svg version="1.0" xmlns="http://www.w3.org/2000/svg"
 width="128.000000pt" height="128.000000pt" viewBox="0 0 128.000000 128.000000"
 preserveAspectRatio="xMidYMid meet">

<g transform="translate(0.000000,128.000000) scale(0.100000,-0.100000)"
fill="#000000" stroke="none">
<path d="M856 1222 c-9 -32 -16 -63 -16 -69 0 -12 58 -29 66 -20 12 11 35 120
27 127 -4 4 -20 10 -34 14 -25 5 -27 3 -43 -52z"/>
<path d="M407 1172 c-10 -10 -17 -25 -17 -32 0 -7 68 -82 152 -167 l152 -153
-24 -25 -24 -25 -196 195 c-193 192 -220 211 -248 183 -28 -28 -9 -55 183
-248 l195 -196 -25 -24 -25 -24 -153 152 c-85 84 -160 152 -169 152 -18 0 -48
-31 -48 -50 0 -7 68 -82 152 -167 l152 -153 -24 -25 -24 -26 -96 96 c-58 57
-103 95 -116 95 -24 0 -44 -18 -44 -39 0 -9 89 -105 197 -213 l198 -198 125
-41 c120 -40 128 -44 190 -105 l65 -64 173 173 172 172 -53 53 c-48 47 -55 60
-65 115 -21 115 -72 195 -220 349 -133 137 -168 162 -197 138 -31 -26 -16 -54
90 -160 l106 -106 -26 -24 -25 -24 -218 217 c-120 119 -225 217 -233 217 -9 0
-23 -8 -32 -18z"/>
<path d="M1017 1132 l-47 -48 25 -24 25 -24 50 49 50 49 -22 23 c-12 13 -24
23 -28 23 -3 0 -27 -22 -53 -48z"/>
<path d="M40 1071 c-15 -29 -13 -37 21 -76 l31 -35 29 31 c16 17 29 35 29 39
0 15 -61 60 -80 60 -11 0 -24 -9 -30 -19z"/>
<path d="M1132 991 c-35 -9 -63 -19 -63 -24 1 -4 1 -15 1 -24 0 -39 12 -43 78
-26 52 13 62 19 61 37 -1 50 -8 54 -77 37z"/>
<path d="M32 883 c-7 -2 -17 -13 -22 -24 -9 -16 -3 -27 35 -68 l46 -49 30 31
31 31 -45 43 c-46 43 -51 46 -75 36z"/>
<path d="M12 648 c-7 -7 -12 -19 -12 -27 0 -9 98 -114 217 -233 l218 -218 125
-41 c108 -36 131 -47 170 -85 l46 -44 32 33 32 33 -33 32 c-25 24 -66 43 -168
77 l-134 45 -220 220 c-218 217 -244 237 -273 208z"/>
</g>
</svg>
