<svg xmlns="http://www.w3.org/2000/svg" width="495.632" height="369.305" viewBox="0 0 495.632 369.305">
  <g id="Conversation-rafiki" transform="translate(0 -55)">
    <g id="freepik--background-complete--inject-210" transform="translate(0 55)">
      <rect id="Rectangle_1053" data-name="Rectangle 1053" width="495.632" height="0.248" transform="translate(0 324.54)" fill="#ebebeb"/>
      <rect id="Rectangle_1054" data-name="Rectangle 1054" width="32.831" height="0.248" transform="translate(285.881 338.358)" fill="#ebebeb"/>
      <rect id="Rectangle_1055" data-name="Rectangle 1055" width="8.614" height="0.248" transform="translate(403.524 335.672)" fill="#ebebeb"/>
      <rect id="Rectangle_1056" data-name="Rectangle 1056" width="68.318" height="0.248" transform="translate(324.807 331.29)" fill="#ebebeb"/>
      <rect id="Rectangle_1057" data-name="Rectangle 1057" width="30.035" height="0.248" transform="translate(193.138 337.139)" fill="#ebebeb"/>
      <rect id="Rectangle_1058" data-name="Rectangle 1058" width="19.052" height="0.248" transform="translate(165.264 337.139)" fill="#ebebeb"/>
      <rect id="Rectangle_1059" data-name="Rectangle 1059" width="46.431" height="0.248" transform="translate(52.002 332.956)" fill="#ebebeb"/>
      <path id="Path_701" data-name="Path 701" d="M235.263,335.329H43.86a5.66,5.66,0,0,1-5.65-5.66V60.611A5.66,5.66,0,0,1,43.86,55h191.4a5.66,5.66,0,0,1,5.66,5.66V329.669A5.66,5.66,0,0,1,235.263,335.329ZM43.86,55.2a5.412,5.412,0,0,0-5.4,5.412V329.669a5.412,5.412,0,0,0,5.4,5.412h191.4a5.422,5.422,0,0,0,5.412-5.412V60.611a5.422,5.422,0,0,0-5.412-5.412Z" transform="translate(-0.334 -55)" fill="#ebebeb"/>
      <path id="Path_702" data-name="Path 702" d="M451.573,335.329H260.16a5.67,5.67,0,0,1-5.66-5.66V60.611A5.67,5.67,0,0,1,260.16,55H451.573a5.66,5.66,0,0,1,5.64,5.611V329.669A5.66,5.66,0,0,1,451.573,335.329ZM260.16,55.2a5.422,5.422,0,0,0-5.412,5.412V329.669a5.422,5.422,0,0,0,5.412,5.412H451.573a5.422,5.422,0,0,0,5.412-5.412V60.611a5.422,5.422,0,0,0-5.412-5.412Z" transform="translate(-2.223 -55)" fill="#ebebeb"/>
      <rect id="Rectangle_1060" data-name="Rectangle 1060" width="168.802" height="155.41" transform="translate(225.641 178.18) rotate(180)" fill="#e6e6e6"/>
      <rect id="Rectangle_1061" data-name="Rectangle 1061" width="171.072" height="155.41" transform="translate(223.897 178.18) rotate(180)" fill="#f5f5f5"/>
      <rect id="Rectangle_1062" data-name="Rectangle 1062" width="139.867" height="156.689" transform="translate(216.71 30.541) rotate(90)" fill="#fafafa"/>
      <path id="Path_703" data-name="Path 703" d="M198.43,225.667,145.734,85.81H123.55l52.7,139.857Z" transform="translate(-1.079 -55.269)" fill="#fff"/>
      <path id="Path_704" data-name="Path 704" d="M169.761,225.667,117.075,85.81H101.8l52.686,139.857Z" transform="translate(-0.889 -55.269)" fill="#fff"/>
      <rect id="Rectangle_1063" data-name="Rectangle 1063" width="139.867" height="8.584" transform="translate(121.648 30.541) rotate(90)" fill="#e6e6e6"/>
      <rect id="Rectangle_1064" data-name="Rectangle 1064" width="139.867" height="8.584" transform="translate(169.417 30.531) rotate(90)" fill="#e6e6e6"/>
      <rect id="Rectangle_1065" data-name="Rectangle 1065" width="150.573" height="10.844" transform="translate(120.102 24.752) rotate(90)" fill="#f5f5f5"/>
      <rect id="Rectangle_1066" data-name="Rectangle 1066" width="150.573" height="10.844" transform="translate(167.871 24.762) rotate(90)" fill="#f5f5f5"/>
      <rect id="Rectangle_1067" data-name="Rectangle 1067" width="139.867" height="0.763" transform="translate(60.784 30.541) rotate(90)" fill="#e6e6e6"/>
      <rect id="Rectangle_1068" data-name="Rectangle 1068" width="108.266" height="322.845" transform="translate(397.19 216.264) rotate(90)" fill="#f0f0f0"/>
      <rect id="Rectangle_1069" data-name="Rectangle 1069" width="40.325" height="296.576" rx="2.72" transform="translate(384.065 222.41) rotate(90)" fill="#f5f5f5"/>
      <rect id="Rectangle_1070" data-name="Rectangle 1070" width="50.574" height="296.576" rx="2.72" transform="translate(384.055 267.275) rotate(90)" fill="#f5f5f5"/>
      <path id="Path_705" data-name="Path 705" d="M325.983,278.69H148.14a5.244,5.244,0,0,0,5.244,5.244H320.739A5.244,5.244,0,0,0,325.983,278.69Z" transform="translate(-1.294 -56.954)" fill="#f0f0f0"/>
      <path id="Path_706" data-name="Path 706" d="M325.983,324H148.14a5.244,5.244,0,0,0,5.244,5.244H320.739A5.244,5.244,0,0,0,325.983,324Z" transform="translate(-1.294 -57.35)" fill="#f0f0f0"/>
      <rect id="Rectangle_1071" data-name="Rectangle 1071" width="108.266" height="24.098" transform="translate(421.287 216.264) rotate(90)" fill="#e6e6e6"/>
      <rect id="Rectangle_1072" data-name="Rectangle 1072" width="6.671" height="322.845" transform="translate(74.345 216.264) rotate(-90)" fill="#fafafa"/>
      <path id="Path_707" data-name="Path 707" d="M372.06,256.69a9.665,9.665,0,1,0,19.33,0Z" transform="translate(-3.25 -56.762)" fill="#f5f5f5"/>
      <path id="Path_708" data-name="Path 708" d="M346.07,256.69a9.665,9.665,0,0,0,19.33,0Z" transform="translate(-3.023 -56.762)" fill="#f5f5f5"/>
      <path id="Path_709" data-name="Path 709" d="M78.5,263.15c0,1.794,8.039,3.261,17.952,3.261s17.952-1.467,17.952-3.261Z" transform="translate(-0.686 -56.818)" fill="#f5f5f5"/>
      <path id="Path_710" data-name="Path 710" d="M78.5,261.42c0,1.8,8.039,3.271,17.952,3.271s17.952-1.467,17.952-3.271Z" transform="translate(-0.686 -56.803)" fill="#f5f5f5"/>
      <rect id="Rectangle_1073" data-name="Rectangle 1073" width="6.671" height="24.098" transform="translate(397.19 216.264) rotate(-90)" fill="#e0e0e0"/>
      <rect id="Rectangle_1074" data-name="Rectangle 1074" width="58.921" height="76.773" transform="translate(351.859 20.777)" fill="#ebebeb"/>
      <rect id="Rectangle_1075" data-name="Rectangle 1075" width="58.921" height="76.773" transform="translate(349.113 20.777)" fill="#f5f5f5"/>
      <rect id="Rectangle_1076" data-name="Rectangle 1076" width="43.09" height="56.145" transform="translate(357.033 31.096)" fill="#fff"/>
      <rect id="Rectangle_1077" data-name="Rectangle 1077" width="58.921" height="93.1" transform="translate(276.483 179.31) rotate(-90)" fill="#ebebeb"/>
      <rect id="Rectangle_1078" data-name="Rectangle 1078" width="58.921" height="93.1" transform="translate(273.648 179.31) rotate(-90)" fill="#f5f5f5"/>
      <rect id="Rectangle_1079" data-name="Rectangle 1079" width="43.09" height="72.461" transform="translate(283.967 171.39) rotate(-90)" fill="#fff"/>
      <rect id="Rectangle_1080" data-name="Rectangle 1080" width="47.908" height="47.204" transform="translate(395.356 113.341)" fill="#ebebeb"/>
      <rect id="Rectangle_1081" data-name="Rectangle 1081" width="47.908" height="47.204" transform="translate(392.61 113.341)" fill="#f5f5f5"/>
      <rect id="Rectangle_1082" data-name="Rectangle 1082" width="32.077" height="26.576" transform="translate(400.53 123.66)" fill="#fff"/>
      <rect id="Rectangle_1083" data-name="Rectangle 1083" width="47.908" height="47.204" transform="translate(288.716 56.889)" fill="#ebebeb"/>
      <rect id="Rectangle_1084" data-name="Rectangle 1084" width="47.908" height="47.204" transform="translate(285.98 56.889)" fill="#f5f5f5"/>
      <rect id="Rectangle_1085" data-name="Rectangle 1085" width="32.077" height="26.576" transform="translate(293.9 67.208)" fill="#fff"/>
    </g>
    <g id="freepik--Shadow--inject-210" transform="translate(55.62 401.863)">
      <ellipse id="freepik--path--inject-210" cx="192.196" cy="11.221" rx="192.196" ry="11.221" fill="#f5f5f5"/>
    </g>
    <g id="freepik--Smartphone--inject-210" transform="translate(150.087 106.823)">
      <rect id="Rectangle_1086" data-name="Rectangle 1086" width="1.031" height="6.523" transform="translate(162.904 20.618)" fill="#62c9d5"/>
      <path id="Path_711" data-name="Path 711" d="M316.655,122.6h-.991a14.344,14.344,0,0,0-14.334-14.324v-.991A15.375,15.375,0,0,1,316.655,122.6Z" transform="translate(-152.72 -107.28)" fill="#62c9d5"/>
      <rect id="Rectangle_1087" data-name="Rectangle 1087" width="160.327" height="302.554" rx="11.86" transform="translate(0 3.569)" fill="#62c9d5"/>
      <rect id="Rectangle_1088" data-name="Rectangle 1088" width="293.503" height="151.267" rx="7.29" transform="translate(154.994 8.089) rotate(90)" fill="#fff" opacity="0.95"/>
      <circle id="Ellipse_86" data-name="Ellipse 86" cx="8.178" cy="8.178" r="8.178" transform="translate(71.193 274.035)" fill="#62c9d5"/>
      <path id="Path_712" data-name="Path 712" d="M225.17,114.61a6.751,6.751,0,1,0,13.5,0Z" transform="translate(-152.054 -107.344)" fill="#62c9d5"/>
      <path id="Path_713" data-name="Path 713" d="M275.613,144.16H187.39a13.62,13.62,0,0,0-13.58,13.58v9.06a13.62,13.62,0,0,0,13.58,13.58h88.222l13.58,8.049V157.7a13.63,13.63,0,0,0-13.58-13.541Z" transform="translate(-151.606 -107.602)" fill="#62c9d5" opacity="0.7"/>
      <rect id="Rectangle_1089" data-name="Rectangle 1089" width="83.355" height="2.26" transform="translate(38.193 49.533)" fill="#fff"/>
      <rect id="Rectangle_1090" data-name="Rectangle 1090" width="67.317" height="2.26" transform="translate(54.232 57.543)" fill="#fff"/>
      <path id="Path_714" data-name="Path 714" d="M187.34,205h88.223a13.62,13.62,0,0,1,13.58,13.58v9.05a13.62,13.62,0,0,1-13.58,13.58H187.34l-13.58,8.049V218.531A13.61,13.61,0,0,1,187.34,205Z" transform="translate(-151.605 -108.134)" fill="#62c9d5" opacity="0.15"/>
      <rect id="Rectangle_1091" data-name="Rectangle 1091" width="83.355" height="2.26" transform="translate(38.193 109.832)" fill="#62c9d5" opacity="0.5"/>
      <rect id="Rectangle_1092" data-name="Rectangle 1092" width="38.659" height="2.26" transform="translate(38.193 117.851)" fill="#62c9d5" opacity="0.5"/>
      <rect id="Rectangle_1093" data-name="Rectangle 1093" width="15.721" height="2.26" transform="translate(82.889 117.851)" fill="#62c9d5" opacity="0.5"/>
      <path id="Path_715" data-name="Path 715" d="M275.613,265.83H187.39a13.62,13.62,0,0,0-13.58,13.58v9.05a13.61,13.61,0,0,0,13.58,13.58h88.222l13.58,8.049V279.361a13.63,13.63,0,0,0-13.58-13.531Z" transform="translate(-151.606 -108.665)" fill="#62c9d5" opacity="0.7"/>
      <rect id="Rectangle_1094" data-name="Rectangle 1094" width="83.355" height="2.26" transform="translate(38.193 170.131)" fill="#fff"/>
      <rect id="Rectangle_1095" data-name="Rectangle 1095" width="67.317" height="2.26" transform="translate(54.232 178.15)" fill="#fff"/>
      <path id="Path_716" data-name="Path 716" d="M187.34,326.66h34.327a13.63,13.63,0,0,1,13.58,13.58v9.06a13.63,13.63,0,0,1-13.58,13.58H187.34l-13.58,8.039V340.24A13.62,13.62,0,0,1,187.34,326.66Z" transform="translate(-151.605 -109.197)" fill="#62c9d5" opacity="0.15"/>
      <path id="Path_717" data-name="Path 717" d="M194.33,344.895a3.965,3.965,0,1,1-3.965-3.965A4.015,4.015,0,0,1,194.33,344.895Z" transform="translate(-151.716 -109.321)" fill="#62c9d5" opacity="0.5"/>
      <circle id="Ellipse_87" data-name="Ellipse 87" cx="4.015" cy="4.015" r="4.015" transform="translate(46.619 228.348)" fill="#62c9d5" opacity="0.5"/>
      <path id="Path_718" data-name="Path 718" d="M218.6,349.745a3.965,3.965,0,1,1-3.965-3.965A3.965,3.965,0,0,1,218.6,349.745Z" transform="translate(-151.928 -109.364)" fill="#62c9d5" opacity="0.5"/>
    </g>
    <g id="freepik--character-2--inject-210" transform="translate(289.727 276.339)">
      <path id="Path_719" data-name="Path 719" d="M344.231,335.2c1.09,2.171,2.062,4.352,3.083,6.532s1.983,4.4,2.895,6.622,1.864,4.451,2.736,6.721,1.754,4.54,2.557,6.939l-3.549-3.341a20.719,20.719,0,0,0,6.423,1.11,52.35,52.35,0,0,0,7.593-.347c2.617-.278,5.254-.714,7.93-1.209s5.353-1.11,7.93-1.715l2.349,5.71a67.736,67.736,0,0,1-7.99,3.737,72.8,72.8,0,0,1-8.416,2.8,51.066,51.066,0,0,1-9.08,1.586,28.865,28.865,0,0,1-10.2-.833l-2.329-.644-1.269-2.726c-1.9-4.173-3.965-8.456-5.948-12.728-.991-2.141-2.032-4.292-3.023-6.443s-1.983-4.312-2.974-6.473Z" transform="translate(-292.635 -278.787)" fill="#ffc3bd"/>
      <path id="Path_720" data-name="Path 720" d="M379,358.426l3.9-3.806,6.185,6.691s-2.24,3.916-7.811,1.636Z" transform="translate(-293.038 -278.957)" fill="#ffc3bd"/>
      <path id="Path_721" data-name="Path 721" d="M388.808,352.08l3.41,5.561-3.093,3.648L382.94,354.6Z" transform="translate(-293.072 -278.935)" fill="#ffc3bd"/>
      <path id="Path_722" data-name="Path 722" d="M326.629,326.2c7.93-3.063,14.076,1.507,24.1,14.155L338.99,352.421S311.165,332.13,326.629,326.2Z" transform="translate(-292.539 -278.701)" fill="#263238"/>
      <path id="Path_723" data-name="Path 723" d="M341.6,339.4c-3.747-2.429-7.008-1.745-9.764.516,1.041,3.856,3.707,8.277,6.275,11.9.6.476.991.734.991.734l6.542-6.731A9.06,9.06,0,0,0,341.6,339.4Z" transform="translate(-292.626 -278.81)" opacity="0.2"/>
      <path id="Path_724" data-name="Path 724" d="M387.593,410.859l9.5-1.1L396.3,390.29l-9.486,1.09Z" transform="translate(-293.106 -279.268)" fill="#ffc3bd"/>
      <path id="Path_725" data-name="Path 725" d="M397.149,405.8l-10.7.149a.724.724,0,0,0-.684.654l-1.209,8.416a1.407,1.407,0,0,0,1.338,1.656c3.321-.109,4.847-.357,9.04-.426,2.587,0,10.379.149,13.947.1s3.806-3.965,2.329-4.312c-6.632-1.487-10.448-3.618-12.658-5.68A1.982,1.982,0,0,0,397.149,405.8Z" transform="translate(-293.086 -279.404)" fill="#263238"/>
      <path id="Path_726" data-name="Path 726" d="M399.539,403.3a.991.991,0,0,1,.912.109.7.7,0,0,1,.387.545c.119.991-1.982,2.775-2.27,2.974a.169.169,0,0,1-.2,0,.189.189,0,0,1-.1-.188c.07-1.07.317-2.974,1.16-3.4Zm-.862,3.033c.833-.724,1.864-1.814,1.794-2.359,0-.059,0-.149-.169-.228a.664.664,0,0,0-.684-.059C399.162,403.934,398.815,404.915,398.676,406.333Z" transform="translate(-293.206 -279.382)" fill="#62c9d5"/>
      <path id="Path_727" data-name="Path 727" d="M399.44,406a2.975,2.975,0,0,1,2.3-.2.714.714,0,0,1,.307.793.9.9,0,0,1-.466.664c-.991.545-3.093-.268-3.182-.3a.238.238,0,0,1-.129-.149.189.189,0,0,1,.059-.178A3.728,3.728,0,0,1,399.44,406Zm1.844.991.109-.05a.615.615,0,0,0,.3-.426c0-.238-.049-.327-.129-.367-.476-.307-1.933.089-2.716.595a4.481,4.481,0,0,0,2.438.248Z" transform="translate(-293.206 -279.403)" fill="#62c9d5"/>
      <path id="Path_728" data-name="Path 728" d="M386.81,391.39l9.486-1.1.406,10.042-9.536.04Z" transform="translate(-293.106 -279.268)" opacity="0.2"/>
      <path id="Path_729" data-name="Path 729" d="M339.606,379.795s24.643-22.918,40.642-23.265c11.677-.248,20.024,38.372,20.024,38.372l-13.878.268s-2.439-13.66-11.509-17.426c-13.1,19.667-66.524,58.534-61.458,16.4C321.357,391.155,339.606,379.795,339.606,379.795Z" transform="translate(-292.462 -278.973)" fill="#62c9d5"/>
      <path id="Path_730" data-name="Path 730" d="M339.606,379.795s24.643-22.918,40.642-23.265c11.677-.248,20.024,38.372,20.024,38.372l-13.878.268s-2.439-13.66-11.509-17.426c-13.1,19.667-66.524,58.534-61.458,16.4C321.357,391.155,339.606,379.795,339.606,379.795Z" transform="translate(-292.462 -278.973)" opacity="0.2"/>
      <path id="Path_731" data-name="Path 731" d="M400.846,397.113,384.53,398.68l.05-5.948,17.258-2.052Z" transform="translate(-293.086 -279.272)" fill="#263238"/>
      <path id="Path_732" data-name="Path 732" d="M307.1,395.322s-10.6-20.7-11.9-54.034c-.3-7.851,6.77-15.256,14.869-15.672,6.8-.357,14-.446,19.825-.426a10.634,10.634,0,0,1,10.953,9.5c1.467,12.371,1.725,31.155,9.308,53.528Z" transform="translate(-292.305 -278.7)" fill="#263238"/>
      <path id="Path_733" data-name="Path 733" d="M300.206,341.559c5.839-6.592,7.851-4.49,8.723-3.7,8.089,7.325-3.787,30.134-6.166,33.495a164.466,164.466,0,0,1-2.974-25.832,13.322,13.322,0,0,1,.416-3.965Z" transform="translate(-292.345 -278.802)" opacity="0.2"/>
      <path id="Path_734" data-name="Path 734" d="M318.1,305.63c-.654,6.076-2.26,15.4-6.394,19.736,3.251,3.063,8.545,6.076,16.068,7.335,3.886-1.606,4.4-5.184,2.518-7.672-6.641-1.16-6.562-3.043-4.054-7.276Z" transform="translate(-292.45 -278.529)" fill="#ffc3bd"/>
      <path id="Path_735" data-name="Path 735" d="M321.5,310.62l4.818,7.167a12.561,12.561,0,0,0-1.477,3.182c-2.359-.991-4.956-4.6-4.441-7.256A9.279,9.279,0,0,1,321.5,310.62Z" transform="translate(-292.525 -278.572)" opacity="0.2"/>
      <path id="Path_736" data-name="Path 736" d="M335.714,294.3c3.9,4.134,12.083,4.153,8.565-.743S332.681,291.077,335.714,294.3Z" transform="translate(-292.654 -278.399)" fill="#263238"/>
      <path id="Path_737" data-name="Path 737" d="M319.767,293.81c-2.171,7.93-3.836,12.371-1.368,17.843a10.547,10.547,0,0,0,18.685,1.477c3.965-6.265,6.879-18.11.525-24.127a10.6,10.6,0,0,0-17.843,4.808Z" transform="translate(-292.497 -278.356)" fill="#ffc3bd"/>
      <path id="Path_738" data-name="Path 738" d="M317.982,301.185c.991-.178,5.888-1.665,8.277-3.965,2.686-2.587,2.706-5.1,1.982-6.235s-6.394-3.331-9.04-2.825c-4.183.8-3.152,8.208-3.093,10.21A3.321,3.321,0,0,0,317.982,301.185Z" transform="translate(-292.487 -278.376)" fill="#ffc3bd"/>
      <path id="Path_739" data-name="Path 739" d="M317.982,301.185c.991-.178,5.888-1.665,8.277-3.965,2.686-2.587,2.706-5.1,1.982-6.235s-6.394-3.331-9.04-2.825c-4.183.8-3.152,8.208-3.093,10.21A3.321,3.321,0,0,0,317.982,301.185Z" transform="translate(-292.487 -278.376)" fill="#263238" opacity="0.7"/>
      <path id="Path_740" data-name="Path 740" d="M313.807,301.81a7.454,7.454,0,0,0,3.876,3.787c2.28.922,3.578-.991,3.083-3.321-.446-2.052-2.171-5.016-4.52-4.956S312.875,299.709,313.807,301.81Z" transform="translate(-292.465 -278.456)" fill="#ffc3bd"/>
      <path id="Path_741" data-name="Path 741" d="M321.258,290.45c10.111,2.161,17.3,7.851,22.075,4.431,3.38-2.419,1.16-6.83-2.716-10.022-3.311-2.726-7.93-3.569-9.318-5.8a3.826,3.826,0,0,0,1.566,3.965s-9.129-1.408-11.657-3.787c-.6,1.418,1.735,4.153,1.735,4.153s-2.577,2.448-9.913-.317C313.466,285.444,315.508,289.22,321.258,290.45Z" transform="translate(-292.461 -278.297)" fill="#263238"/>
      <path id="Path_742" data-name="Path 742" d="M341.527,295.677h-.4v-.515a4.025,4.025,0,0,0,4.213-2.448,5.482,5.482,0,0,0-1.824-6.146,13.688,13.688,0,0,0-2.845-1.7c-2.349-1.18-5.016-2.518-6.3-6.413l.486-.159c1.219,3.688,3.678,4.956,6.057,6.106a14.356,14.356,0,0,1,2.974,1.784,5.948,5.948,0,0,1,1.983,6.731A4.451,4.451,0,0,1,341.527,295.677Z" transform="translate(-292.648 -278.29)" fill="#263238"/>
      <path id="Path_743" data-name="Path 743" d="M331.349,301.642c-.218.624-.059,1.269.337,1.427s.9-.218,1.12-.843.059-1.269-.337-1.427S331.557,301,331.349,301.642Z" transform="translate(-292.62 -278.486)" fill="#263238"/>
      <path id="Path_744" data-name="Path 744" d="M338.889,303.922c-.208.624-.06,1.259.347,1.417s.9-.208,1.11-.843.069-1.259-.337-1.427S339.107,303.288,338.889,303.922Z" transform="translate(-292.686 -278.506)" fill="#263238"/>
      <path id="Path_745" data-name="Path 745" d="M336.1,303.16a25,25,0,0,0,1.11,6.542c-1.447.595-3.142-.615-3.142-.615Z" transform="translate(-292.645 -278.507)" fill="#ed847e"/>
      <path id="Path_746" data-name="Path 746" d="M329.975,310.628a5.829,5.829,0,0,1-2.776-3.45.178.178,0,0,1,.139-.228.188.188,0,0,1,.228.149,5.6,5.6,0,0,0,3.321,3.529.2.2,0,0,1,.109.258.169.169,0,0,1-.238.109A6.4,6.4,0,0,1,329.975,310.628Z" transform="translate(-292.585 -278.54)" fill="#263238"/>
      <path id="Path_747" data-name="Path 747" d="M329.3,297.5a.4.4,0,0,1-.149-.139.387.387,0,0,1,.109-.535,3.658,3.658,0,0,1,3.459-.347.4.4,0,0,1,.2.525.367.367,0,0,1-.5.188h0a2.974,2.974,0,0,0-2.736.307A.387.387,0,0,1,329.3,297.5Z" transform="translate(-292.602 -278.446)" fill="#263238"/>
      <path id="Path_748" data-name="Path 748" d="M341.439,302.032a.407.407,0,0,1-.258-.268,3.281,3.281,0,0,0-1.883-2.181.406.406,0,0,1-.258-.5.357.357,0,0,1,.466-.248,4.044,4.044,0,0,1,2.4,2.716.377.377,0,0,1-.248.486A.407.407,0,0,1,341.439,302.032Z" transform="translate(-292.688 -278.469)" fill="#263238"/>
      <path id="Path_749" data-name="Path 749" d="M420.7,415.521l5.65-8.218L411.13,394.05l-5.65,8.218Z" transform="translate(-293.269 -279.301)" fill="#ffc3bd"/>
      <path id="Path_750" data-name="Path 750" d="M422.53,403.428l-6.632,8.257a.773.773,0,0,0,0,.991l5.164,6.423a1.308,1.308,0,0,0,2.042,0c2.092-2.7,3.489-4.768,6.176-8.118,1.655-2.062,6.86-8.089,9.149-10.9s-.327-5.591-1.527-4.639c-5.383,4.253-10.17,6.86-13.065,7.256A2.082,2.082,0,0,0,422.53,403.428Z" transform="translate(-293.358 -279.312)" fill="#263238"/>
      <path id="Path_751" data-name="Path 751" d="M422.15,400.073a1.06,1.06,0,0,1,.634-.674.734.734,0,0,1,.674,0c.9.525.991,3.281.991,3.6a.188.188,0,0,1-.119.168.2.2,0,0,1-.208,0c-.813-.694-2.161-1.982-1.983-2.974a.425.425,0,0,1,.01-.119Zm1.913,2.508c-.079-1.11-.327-2.577-.8-2.855a.337.337,0,0,0-.3,0,.7.7,0,0,0-.456.515C422.437,400.757,422.992,401.62,424.063,402.581Z" transform="translate(-293.414 -279.347)" fill="#62c9d5"/>
      <path id="Path_752" data-name="Path 752" d="M424.269,401.762a3.115,3.115,0,0,1,1.209-1.982.714.714,0,0,1,.823.228.932.932,0,0,1,.258.773c-.139,1.09-2.062,2.32-2.151,2.369a.178.178,0,0,1-.188,0,.159.159,0,0,1-.109-.149,3.757,3.757,0,0,1,.159-1.239Zm1.883-.9v-.109a.565.565,0,0,0-.169-.486c-.159-.178-.278-.169-.367-.129-.525.2-1.08,1.606-1.15,2.528a4.579,4.579,0,0,0,1.685-1.8Z" transform="translate(-293.432 -279.351)" fill="#62c9d5"/>
      <path id="Path_753" data-name="Path 753" d="M405.48,402.268l5.65-8.218,7.851,6.83-6.483,7.5Z" transform="translate(-293.269 -279.301)" opacity="0.2"/>
      <path id="Path_754" data-name="Path 754" d="M322.672,392.627s43.318-44.012,62.816-25.178c12.143,11.737,29.986,27.9,29.986,27.9l-10.339,10.061s-26.189-13.927-33.009-21.619c-35.785,40.007-67.763,42.743-64.888,11.9A120.932,120.932,0,0,1,322.672,392.627Z" transform="translate(-292.409 -279.028)" fill="#62c9d5"/>
      <path id="Path_755" data-name="Path 755" d="M419.4,395.694l-11.36,14.274-4.818-3.232,11.608-15.156Z" transform="translate(-293.249 -279.28)" fill="#263238"/>
      <path id="Path_756" data-name="Path 756" d="M307.24,338.61l.853,18.041q.238,4.461.575,8.921c.119,1.457.278,2.894.436,4.272.089.694.178,1.368.287,1.983s.228,1.189.307,1.536a.933.933,0,0,1,0,.159,2.122,2.122,0,0,0-.674-.734,1.688,1.688,0,0,0-.535-.258h-.119a5.621,5.621,0,0,0,2.429-.159,41.929,41.929,0,0,0,7.623-2.706c2.647-1.16,5.283-2.5,7.93-3.886s5.293-2.865,7.861-4.3l3.707,4.956A100.123,100.123,0,0,1,322.842,378c-1.378.843-2.805,1.655-4.312,2.419a34.473,34.473,0,0,1-4.887,2.062,20.642,20.642,0,0,1-2.924.734,13.649,13.649,0,0,1-3.7.178,9.712,9.712,0,0,1-2.339-.516,9.445,9.445,0,0,1-2.538-1.358,9.089,9.089,0,0,1-2.052-2.23,9.9,9.9,0,0,1-.674-1.219l-.377-.912a26.614,26.614,0,0,1-.882-2.885c-.218-.882-.4-1.705-.555-2.528-.327-1.636-.575-3.231-.793-4.808-.456-3.152-.783-6.265-1.061-9.367-.555-6.205-.882-12.341-.991-18.576Z" transform="translate(-292.302 -278.817)" fill="#ffc3bd"/>
      <path id="Path_757" data-name="Path 757" d="M304.175,326.879c-4.669.525-11.657,4.956-11.9,25.555l20.023-1.576S321.74,324.867,304.175,326.879Z" transform="translate(-292.28 -278.713)" fill="#263238"/>
      <path id="Path_758" data-name="Path 758" d="M351.437,351.15l-7.434.486a2.21,2.21,0,0,0-1.844,1.665l-3.479,16.336a1.12,1.12,0,0,0,1.18,1.467l7.434-.486a2.191,2.191,0,0,0,1.844-1.665l3.479-16.336a1.12,1.12,0,0,0-1.18-1.467Z" transform="translate(-292.685 -278.926)" fill="#62c9d5"/>
      <path id="Path_759" data-name="Path 759" d="M335.145,361.271l6.156-2.141-1.517,9.645s-6.86,1.507-7.425-2.181l.991-3.281A3.112,3.112,0,0,1,335.145,361.271Z" transform="translate(-292.63 -278.996)" fill="#ffc3bd"/>
      <path id="Path_760" data-name="Path 760" d="M348.4,359.943l-2.667,8.584-5.888.248,1.517-9.645Z" transform="translate(-292.696 -278.996)" fill="#ffc3bd"/>
    </g>
    <g id="freepik--character-1--inject-210" transform="translate(107.391 140.709)">
      <path id="Path_761" data-name="Path 761" d="M133.344,155.873c-4.837-11.231,21.54-22.987,28.994-5.5,12.658,5.5-3.519,28.9.139,32.86s6.413-.843,6.413-.843,3.7,9.853-5.729,17.744c-8.446,7.088-33.852,9.011-33.911-4.956C129.171,177.017,139.688,170.593,133.344,155.873Z" transform="translate(-108.52 -141.464)" fill="#263238"/>
      <path id="Path_762" data-name="Path 762" d="M157.637,393.654l-7.1,4.134L133.5,378.31l8.842-7.98Z" transform="translate(-108.557 -143.463)" fill="#ff8b7b"/>
      <path id="Path_763" data-name="Path 763" d="M149.808,396.179l7.325-5.62a.625.625,0,0,1,.833,0l4.857,4.8a1.269,1.269,0,0,1-.228,1.883c-2.577,1.913-3.915,2.716-7.137,5.194-1.983,1.517-5.948,4.847-8.664,6.939s-4.778-.317-3.816-1.417c4.342-4.956,5.283-7.93,5.948-10.577a2.26,2.26,0,0,1,.882-1.2Z" transform="translate(-108.638 -143.639)" fill="#263238"/>
      <path id="Path_764" data-name="Path 764" d="M148.186,399.172a3.2,3.2,0,0,1-1.854.843.991.991,0,0,1-.813-.486.615.615,0,0,1,0-.585c.5-.991,4.025-1.774,4.421-1.864a.2.2,0,0,1,.2.089.218.218,0,0,1,0,.218A14.491,14.491,0,0,1,148.186,399.172Zm-2.1-.367a.783.783,0,0,0-.248.278.208.208,0,0,0,0,.228.625.625,0,0,0,.525.327c.644,0,1.764-.734,3.033-2.062a10.806,10.806,0,0,0-3.311,1.229Z" transform="translate(-108.661 -143.697)" fill="#62c9d5"/>
      <path id="Path_765" data-name="Path 765" d="M150.054,397.393h-.079c-.991.268-3.539.129-3.965-.654-.089-.178-.119-.486.278-.852a1.517,1.517,0,0,1,1.041-.406c1.3,0,2.686,1.536,2.736,1.606a.169.169,0,0,1,0,.178.218.218,0,0,1-.01.129Zm-3.41-1.279-.089.079c-.258.238-.2.357-.178.4.238.476,2.052.7,3.182.545a4.014,4.014,0,0,0-2.24-1.239,1.08,1.08,0,0,0-.674.218Z" transform="translate(-108.666 -143.683)" fill="#62c9d5"/>
      <path id="Path_766" data-name="Path 766" d="M131.63,197.065c-.466,2.131-.991,4.054-1.586,6.047s-1.209,3.965-1.923,5.868a101.865,101.865,0,0,1-4.818,11.449l-1.457,2.776c-.525.912-.991,1.824-1.586,2.726l-.852,1.338c-.3.456-.525.862-.932,1.4-.2.258-.4.515-.664.823a7.168,7.168,0,0,1-1.13,1.071,4.372,4.372,0,0,1-1.7.793,4.074,4.074,0,0,1-.872.1,3.589,3.589,0,0,1-1.061-.149,3.747,3.747,0,0,1-1.7-.991,3.906,3.906,0,0,1-.991-1.685,4.739,4.739,0,0,1-.188-.9,9.974,9.974,0,0,1,0-2.151c.069-.595.169-1.15.268-1.685.2-1.08.456-2.092.724-3.1a58.388,58.388,0,0,1,1.983-5.868l3.965.872-.268,5.948c0,.991-.059,1.923-.069,2.835v1.3a2.9,2.9,0,0,0,.119.843v-.178a2.458,2.458,0,0,0-.615-.991,3.221,3.221,0,0,0-1.388-.833,3.789,3.789,0,0,0-.872-.129,3.619,3.619,0,0,0-.694.079,2.975,2.975,0,0,0-.991.446c-.208.149-.129.069-.089,0l.228-.387,1.328-2.379c.446-.833.852-1.685,1.289-2.528l1.219-2.577a112.9,112.9,0,0,0,4.163-10.765c.615-1.834,1.18-3.688,1.745-5.541s1.071-3.767,1.517-5.521Z" transform="translate(-108.353 -141.935)" fill="#ff8b7b"/>
      <path id="Path_767" data-name="Path 767" d="M128.334,186.669c-2.875.466-7.434,18.735-7.434,18.735l6.632,5.1s6.651-13.2,6.939-19.141C134.669,187.066,130.505,186.322,128.334,186.669Z" transform="translate(-108.447 -141.858)" fill="#ff8b7b"/>
      <path id="Path_768" data-name="Path 768" d="M117.854,216.78l-1.12-9.08-5.2,7.633a4.877,4.877,0,0,0,3.876,3.658Z" transform="translate(-108.365 -142.043)" fill="#ff8b7b"/>
      <path id="Path_769" data-name="Path 769" d="M154.517,409.168l-7.93.268L145.07,381.76l11,.159Z" transform="translate(-108.658 -143.563)" fill="#ff8b7b"/>
      <path id="Path_770" data-name="Path 770" d="M145.956,407.129l8.921-.059a.575.575,0,0,1,.595.535l.535,7.028a1.4,1.4,0,0,1-1.368,1.417c-3.093,0-4.58-.208-8.485-.178-2.409,0-5.948.288-9.258.317s-3.281-3.261-1.873-3.569c6.295-1.378,7.395-3.222,9.605-4.956A2.26,2.26,0,0,1,145.956,407.129Z" transform="translate(-108.562 -143.784)" fill="#263238"/>
      <path id="Path_771" data-name="Path 771" d="M127.875,186.6s-3.965.991-3.965,47.908l31.81,2.815c1.6-13.075,2.885-21.114,13.422-47.3a89.51,89.51,0,0,0-13.214-2.974A99.56,99.56,0,0,0,141.5,185.77C135.151,185.78,127.875,186.6,127.875,186.6Z" transform="translate(-108.473 -141.851)" fill="#62c9d5"/>
      <path id="Path_772" data-name="Path 772" d="M163.153,196.1l1.7,5.779c-1.328,3.578-2.429,6.741-3.35,9.586a32.226,32.226,0,0,1,1.655-15.365Z" transform="translate(-108.799 -141.941)" opacity="0.2"/>
      <path id="Path_773" data-name="Path 773" d="M116.734,207.7l-5.2,7.633,6.324-.367,3.37-6.979Z" transform="translate(-108.365 -142.043)" fill="#ff8b7b"/>
      <path id="Path_774" data-name="Path 774" d="M120.081,225.267l5.948-.089a1.388,1.388,0,0,0,1.348-1.576l-1.854-13.332a1.368,1.368,0,0,0-1.388-1.19l-5.948.089a1.368,1.368,0,0,0-1.348,1.566l1.854,13.332A1.378,1.378,0,0,0,120.081,225.267Z" transform="translate(-108.411 -142.055)" fill="#263238"/>
      <path id="Path_775" data-name="Path 775" d="M157.25,170.41c-1.675,4.6-3.965,13.085-1.239,16.495a61.348,61.348,0,0,1-15.761,9.566c-3.321-7.752,1.328-10.844,1.328-10.844,5.383-.783,5.878-4.669,5.561-8.386Z" transform="translate(-108.605 -141.717)" fill="#ff8b7b"/>
      <path id="Path_776" data-name="Path 776" d="M135.364,165.09c-.833,13.769-9.11,17.714-7.167,24.782,2.746,9.913,13.947,2.151,13.947,2.151s-6.1,1.983-6.483-2.835c-.317-3.965,13.759-3.35,9.853-12.678C143.007,170.5,135.364,165.09,135.364,165.09Z" transform="translate(-108.508 -141.67)" fill="#263238"/>
      <path id="Path_777" data-name="Path 777" d="M154.436,173.92l-7.216,3.351a14.448,14.448,0,0,1,0,2.617c1.507.139,5.412-.991,6.889-3.43A3.678,3.678,0,0,0,154.436,173.92Z" transform="translate(-108.677 -141.747)" opacity="0.2"/>
      <path id="Path_778" data-name="Path 778" d="M158.478,157.263c.724,7.811,1.2,11.112-2.1,15.692-4.956,6.889-14.72,6.076-17.763-1.378-2.746-6.7-3.469-18.358,3.638-22.611a10.706,10.706,0,0,1,16.227,8.3Z" transform="translate(-108.584 -141.516)" fill="#ff8b7b"/>
      <path id="Path_779" data-name="Path 779" d="M156.871,149.43c-6.166-4.233-11.291,3.9-.347,11.8S163.879,154.237,156.871,149.43Z" transform="translate(-108.702 -141.523)" fill="#263238"/>
      <path id="Path_780" data-name="Path 780" d="M153.4,147.132c2.548,2.29-12.619,10.735-20.866,7.93s-1.626-9.1,1.378-9.913c-2.577,2.488,1.933,6.265,4.114,3.906S148.286,142.542,153.4,147.132Z" transform="translate(-108.514 -141.495)" fill="#263238"/>
      <path id="Path_781" data-name="Path 781" d="M123.734,234.94S106.952,306,108.429,323.946c1.715,20.975,24.653,54.787,24.653,54.787l10.537-9.566s-10.458-27.7-18.2-45.737c2.478-18.041,24.385-69.012,24.385-86.18Z" transform="translate(-108.337 -142.28)" fill="#62c9d5"/>
      <path id="Path_782" data-name="Path 782" d="M123.734,234.94S106.952,306,108.429,323.946c1.715,20.975,24.653,54.787,24.653,54.787l10.537-9.566s-10.458-27.7-18.2-45.737c2.478-18.041,24.385-69.012,24.385-86.18Z" transform="translate(-108.337 -142.28)" opacity="0.6"/>
      <path id="Path_783" data-name="Path 783" d="M145.752,371.755l-12.45,9.278-3.192-2.429,13.66-10.775Z" transform="translate(-108.527 -143.441)" fill="#62c9d5"/>
      <path id="Path_784" data-name="Path 784" d="M136.318,266.44c-9.248,12.807-9.695,36.36-9.12,49.563,3.172-12.153,9.823-30.3,15.127-46.659C142.2,263.08,140.64,260.443,136.318,266.44Z" transform="translate(-108.5 -142.526)" opacity="0.2"/>
      <path id="Path_785" data-name="Path 785" d="M129.89,235s6.146,61.369,8.2,82.087c2.439,24.593,6.017,64.036,6.017,64.036l11.836-.5s2.6-33.435.674-55.511c.347-29.242,4.659-69-.892-87.4Z" transform="translate(-108.525 -142.281)" fill="#62c9d5"/>
      <path id="Path_786" data-name="Path 786" d="M129.89,235s6.146,61.369,8.2,82.087c2.439,24.593,6.017,64.036,6.017,64.036l11.836-.5s2.6-33.435.674-55.511c.347-29.242,4.659-69-.892-87.4Z" transform="translate(-108.525 -142.281)" opacity="0.6"/>
      <path id="Path_787" data-name="Path 787" d="M156.952,384.055l-13.58-.387-.952-4.272,15.365-.426Z" transform="translate(-108.635 -143.539)" fill="#62c9d5"/>
      <path id="Path_788" data-name="Path 788" d="M146.4,161.691c.1.624-.159,1.19-.575,1.259s-.823-.4-.922-.991.159-1.19.575-1.259S146.3,161.057,146.4,161.691Z" transform="translate(-108.656 -141.632)" fill="#263238"/>
      <path id="Path_789" data-name="Path 789" d="M139.207,162.8c.1.634-.159,1.2-.575,1.259s-.823-.4-.922-.991.159-1.2.575-1.259S139.107,162.177,139.207,162.8Z" transform="translate(-108.594 -141.642)" fill="#263238"/>
      <path id="Path_790" data-name="Path 790" d="M138.456,161.778l-1.576-.2S137.842,162.641,138.456,161.778Z" transform="translate(-108.586 -141.64)" fill="#263238"/>
      <path id="Path_791" data-name="Path 791" d="M141.566,163.44a17.269,17.269,0,0,1-1.626,4.372,2.746,2.746,0,0,0,2.31.069Z" transform="translate(-108.613 -141.656)" fill="#ff5652"/>
      <path id="Path_792" data-name="Path 792" d="M146.4,169.645a5.334,5.334,0,0,1-.991.248.186.186,0,1,1-.059-.367,5.016,5.016,0,0,0,3.767-2.587.2.2,0,0,1,.248-.089.188.188,0,0,1,.1.248A5.283,5.283,0,0,1,146.4,169.645Z" transform="translate(-108.659 -141.686)" fill="#263238"/>
      <path id="Path_793" data-name="Path 793" d="M160.812,162.7a5.779,5.779,0,0,1-1.983,3.965c-1.527,1.308-3.142.159-3.43-1.735-.268-1.7.218-4.421,2.092-4.956a2.577,2.577,0,0,1,3.321,2.726Z" transform="translate(-108.748 -141.625)" fill="#ff8b7b"/>
      <path id="Path_794" data-name="Path 794" d="M149.649,157.748a.377.377,0,0,1-.287-.059,2.974,2.974,0,0,0-2.676-.446.367.367,0,0,1-.486-.208.377.377,0,0,1,.208-.486,3.687,3.687,0,0,1,3.38.525.377.377,0,0,1,.1.515.427.427,0,0,1-.238.159Z" transform="translate(-108.668 -141.594)" fill="#263238"/>
      <path id="Path_795" data-name="Path 795" d="M136.1,160.027a.337.337,0,0,1-.278,0,.367.367,0,0,1-.178-.5,3.7,3.7,0,0,1,2.647-2.161.377.377,0,0,1,.109.743,2.974,2.974,0,0,0-2.082,1.735.357.357,0,0,1-.218.178Z" transform="translate(-108.575 -141.603)" fill="#263238"/>
      <path id="Path_796" data-name="Path 796" d="M171.31,199.66c.149,1.437.228,2.7.268,4.034s.069,2.627.059,3.965q-.059,3.965-.506,7.93a55.88,55.88,0,0,1-1.487,7.93,36.626,36.626,0,0,1-1.289,3.965c-.248.654-.525,1.308-.813,1.983,0,0-.149.317-.248.5a3.885,3.885,0,0,1-.367.585,5.659,5.659,0,0,1-.852.991,7,7,0,0,1-1.735,1.09,9.844,9.844,0,0,1-2.815.714,17.31,17.31,0,0,1-2.329.1,34.74,34.74,0,0,1-4.183-.367,70.178,70.178,0,0,1-7.7-1.665c-2.488-.684-4.956-1.437-7.365-2.24s-4.808-1.7-7.2-2.7l1.239-3.806c2.409.525,4.857,1.08,7.3,1.546s4.867.991,7.286,1.348,4.837.724,7.177.872a27.531,27.531,0,0,0,3.36.059,11.394,11.394,0,0,0,1.427-.159,2.914,2.914,0,0,0,.823-.258l-.149.079a1.151,1.151,0,0,0-.238.248l-.119.178s-.089.2,0,.069c.188-.515.377-.991.535-1.566.337-1.071.615-2.171.862-3.291a60.578,60.578,0,0,0,.991-6.939c.218-2.359.287-4.758.287-7.157v-3.6c0-1.2-.109-2.439-.178-3.509Z" transform="translate(-108.55 -141.972)" fill="#ff8b7b"/>
      <path id="Path_797" data-name="Path 797" d="M169.4,190.057c3.42,2.23,2.26,21.669,2.26,21.669l-8.049,1.616s-.069-9.913-.932-16.346C162.095,192.624,166.962,188.461,169.4,190.057Z" transform="translate(-108.811 -141.885)" fill="#ff8b7b"/>
      <path id="Path_798" data-name="Path 798" d="M141.658,408.047a1.041,1.041,0,0,1-.169-.912.694.694,0,0,1,.406-.525c.991-.426,3.251,1.11,3.509,1.279a.178.178,0,0,1,.069.188.218.218,0,0,1-.149.159c-1.041.248-2.894.565-3.588-.109Zm3.152-.079c-.991-.585-2.28-1.249-2.785-.991a.3.3,0,0,0-.169.238.674.674,0,0,0,.149.664c.377.337,1.408.377,2.805.109Z" transform="translate(-108.626 -143.78)" fill="#62c9d5"/>
      <path id="Path_799" data-name="Path 799" d="M144.272,407.326a3.023,3.023,0,0,1-.882-2.141.734.734,0,0,1,.674-.525.922.922,0,0,1,.773.238c.8.753.664,3.033.654,3.132a.193.193,0,0,1-.287.168,4.075,4.075,0,0,1-.932-.872Zm.377-2.062a.593.593,0,0,0-.079-.079.585.585,0,0,0-.486-.159.293.293,0,0,0-.327.228c-.149.545.664,1.824,1.378,2.419A4.48,4.48,0,0,0,144.649,405.265Z" transform="translate(-108.643 -143.763)" fill="#62c9d5"/>
      <path id="Path_800" data-name="Path 800" d="M156.445,235.893l.347,2.974c.079.228-.218.436-.585.4L123.5,236.368c-.287,0-.506-.188-.5-.367l.188-2.894c0-.2.287-.347.595-.317l32.206,2.855A.525.525,0,0,1,156.445,235.893Z" transform="translate(-108.465 -142.262)" fill="#fff"/>
      <path id="Path_801" data-name="Path 801" d="M151.777,239.163l.862.069c.178,0,.317-.059.327-.169l.2-3.757c0-.109-.129-.218-.3-.228L152,235c-.169,0-.317.059-.327.169l-.2,3.767C151.47,239.044,151.609,239.143,151.777,239.163Z" transform="translate(-108.714 -142.281)" fill="#62c9d5"/>
      <path id="Path_802" data-name="Path 802" d="M151.777,239.163l.862.069c.178,0,.317-.059.327-.169l.2-3.757c0-.109-.129-.218-.3-.228L152,235c-.169,0-.317.059-.327.169l-.2,3.767C151.47,239.044,151.609,239.143,151.777,239.163Z" transform="translate(-108.714 -142.281)" opacity="0.6"/>
      <path id="Path_803" data-name="Path 803" d="M125.867,236.863l.862.079c.178,0,.317-.059.327-.169l.2-3.767c0-.109-.129-.208-.3-.228l-.862-.069c-.178,0-.317.059-.327.169l-.2,3.757C125.56,236.744,125.7,236.854,125.867,236.863Z" transform="translate(-108.488 -142.261)" fill="#62c9d5"/>
      <path id="Path_804" data-name="Path 804" d="M125.867,236.863l.862.079c.178,0,.317-.059.327-.169l.2-3.767c0-.109-.129-.208-.3-.228l-.862-.069c-.178,0-.317.059-.327.169l-.2,3.757C125.56,236.744,125.7,236.854,125.867,236.863Z" transform="translate(-108.488 -142.261)" opacity="0.6"/>
      <path id="Path_805" data-name="Path 805" d="M138.827,238.013l.862.079c.169,0,.317-.069.317-.178l.208-3.757c0-.109-.129-.208-.307-.228l-.862-.079c-.168,0-.317.069-.317.178l-.208,3.757C138.52,237.894,138.659,237.964,138.827,238.013Z" transform="translate(-108.601 -142.271)" fill="#62c9d5"/>
      <path id="Path_806" data-name="Path 806" d="M138.827,238.013l.862.079c.169,0,.317-.069.317-.178l.208-3.757c0-.109-.129-.208-.307-.228l-.862-.079c-.168,0-.317.069-.317.178l-.208,3.757C138.52,237.894,138.659,237.964,138.827,238.013Z" transform="translate(-108.601 -142.271)" opacity="0.6"/>
      <path id="Path_807" data-name="Path 807" d="M135.188,223.052l-4.956-6.612-2.062,7.93s3.688,3.222,6.82,1.983Z" transform="translate(-108.51 -142.119)" fill="#ff8b7b"/>
      <path id="Path_808" data-name="Path 808" d="M123.838,214.97l-1.378,6.691,6.691,3.42,1.061-8.654Z" transform="translate(-108.461 -142.106)" fill="#ff8b7b"/>
      <path id="Path_809" data-name="Path 809" d="M145.656,160.668l-1.586-.2S144.992,161.531,145.656,160.668Z" transform="translate(-108.649 -141.63)" fill="#263238"/>
    </g>
  </g>
</svg>
