<svg xmlns="http://www.w3.org/2000/svg" xmlns:xlink="http://www.w3.org/1999/xlink" width="804" height="534.863" viewBox="0 0 804 534.863">
  <defs>
    <filter id="Path_1185" x="86.5" y="125.363" width="463" height="307.208" filterUnits="userSpaceOnUse">
      <feOffset dy="3" input="SourceAlpha"/>
      <feGaussianBlur stdDeviation="4.5" result="blur"/>
      <feFlood flood-opacity="0.161"/>
      <feComposite operator="in" in2="blur"/>
      <feComposite in="SourceGraphic"/>
    </filter>
    <filter id="Path_1490" x="368.674" y="265.467" width="378.652" height="253" filterUnits="userSpaceOnUse">
      <feOffset dy="3" input="SourceAlpha"/>
      <feGaussianBlur stdDeviation="4.5" result="blur-2"/>
      <feFlood flood-opacity="0.161"/>
      <feComposite operator="in" in2="blur-2"/>
      <feComposite in="SourceGraphic"/>
    </filter>
  </defs>
  <g id="Group_1901" data-name="Group 1901" transform="translate(-64 -176.99)">
    <g id="Group_1886" data-name="Group 1886" transform="translate(-13268 -2546.147)">
      <ellipse id="Ellipse_103" data-name="Ellipse 103" cx="402" cy="33" rx="402" ry="33" transform="translate(13332 3192)" fill="#a3a1a1" opacity="0.22"/>
      <g id="Group_1885" data-name="Group 1885" transform="translate(13432 2858.795)">
        <g transform="matrix(1, 0, 0, 1, -100, -135.66)" filter="url(#Path_1185)">
          <g id="Path_1185-2" data-name="Path 1185" transform="translate(100 135.86)" fill="#fff">
            <path d="M 22.34251022338867 276.7525024414063 C 23.29973030090332 275.4591064453125 24.61520957946777 273.8825073242188 26.35961151123047 271.9379577636719 C 29.78738975524902 268.1169128417969 34.28972244262695 263.5270690917969 39.05644607543945 258.6676940917969 C 55.50249862670898 241.9019775390625 65.48828125 231.2696380615234 65.48828125 225.0000305175781 L 65.48828125 224.5529632568359 L 65.35794067382813 224.1253051757813 L 3.005293846130371 19.57024383544922 C 3.113259077072144 15.19032764434814 4.869847774505615 11.0885648727417 7.979166507720947 7.97919225692749 C 11.19005584716797 4.768359184265137 15.45916652679443 3.000025749206543 20 3.000025749206543 L 416 3.000025749206543 C 420.5408325195313 3.000025749206543 424.8099365234375 4.768359184265137 428.0208435058594 7.97919225692749 C 431.2316589355469 11.19008159637451 433 15.45913696289063 433 20.00002670288086 L 433 205.0000305175781 C 433 209.5408630371094 431.2316589355469 213.8099670410156 428.0207824707031 217.0207977294922 C 424.8099365234375 220.231689453125 420.5408325195313 222.0000305175781 416 222.0000305175781 L 415.7922668457031 222.0000305175781 L 415.5864868164063 222.0286407470703 L 22.34251022338867 276.7525024414063 Z" stroke="none"/>
            <path d="M 20 6 C 12.5545654296875 6 6.447998046875 11.84219360351563 6.0235595703125 19.18310546875 L 68.22760009765625 223.2505493164063 L 68.48828125 224.1058349609375 L 68.48828125 225.0000152587891 C 68.48828125 232.1637725830078 59.7486572265625 241.8572998046875 41.197998046875 260.7686157226563 C 37.55422973632813 264.4831848144531 33.20266723632813 268.9193725585938 29.72506713867188 272.6978759765625 L 416 219.0000152587891 C 423.7196350097656 219.0000152587891 430 212.7196655273438 430 205.0000152587891 L 430 20 C 430 12.28036499023438 423.7196350097656 6 416 6 L 20 6 M 20 0 L 416 0 C 427.0457153320313 0 436 8.954315185546875 436 20 L 436 205.0000152587891 C 436 216.0457153320313 427.0457153320313 225.0000152587891 416 225.0000152587891 L 19.27340698242188 280.20849609375 C 8.227752685546875 280.20849609375 62.48828125 236.0457153320313 62.48828125 225.0000152587891 L 0 20 C 0 8.954315185546875 8.95428466796875 0 20 0 Z" stroke="none" fill="#62c9d5"/>
          </g>
        </g>
      </g>
      <g transform="matrix(1, 0, 0, 1, 13332, 2723.14)" filter="url(#Path_1490)">
        <g id="Path_1490-2" data-name="Path 1490" transform="translate(382.17 275.97)" fill="#fff">
          <path d="M 332.2958374023438 222.4406433105469 L 16.54435348510742 178.5006408691406 L 16.33858108520508 178.4720001220703 L 16.1308536529541 178.4720001220703 C 12.62349033355713 178.4720001220703 9.326035499572754 177.1061401367188 6.845944881439209 174.6260833740234 C 4.365853786468506 172.14599609375 2.999990463256836 168.8485412597656 2.999990463256836 165.3411865234375 L 2.999990463256836 16.13086318969727 C 2.999990463256836 12.62349987030029 4.365853786468506 9.326045036315918 6.845944881439209 6.845954418182373 C 9.326035499572754 4.365863800048828 12.62349033355713 3 16.1308536529541 3 L 335.5215759277344 3 C 339.0289306640625 3 342.3263854980469 4.365863800048828 344.8064880371094 6.845954418182373 C 347.1860656738281 9.225533485412598 348.5399169921875 12.35787487030029 348.645751953125 15.70581245422363 L 298.3833618164063 180.5972747802734 L 298.2529907226563 181.02490234375 L 298.2529907226563 181.4720001220703 C 298.2529907226563 184.3159942626953 300.4568481445313 188.0866851806641 305.6221618652344 194.0801849365234 C 309.6180725097656 198.7167663574219 314.7625427246094 203.9612274169922 319.737548828125 209.032958984375 C 323.5137329101563 212.8825378417969 327.0805053710938 216.5186309814453 329.819580078125 219.5605010986328 C 330.8693237304688 220.7262725830078 331.6760559082031 221.673828125 332.2958374023438 222.4406433105469 Z" stroke="none"/>
          <path d="M 16.130859375 6 C 10.54470825195313 6 6.000030517578125 10.54469299316406 6.000030517578125 16.13084411621094 L 6.000030517578125 165.3411560058594 C 6.000030517578125 170.9273071289063 10.54470825195313 175.4720001220703 16.95785522460938 175.5292510986328 L 324.6491088867188 218.4033508300781 C 322.3411560058594 215.9712371826172 319.80322265625 213.3839874267578 317.5959167480469 211.1337432861328 C 302.0611267089844 195.2970581054688 295.2529602050781 187.7052917480469 295.2529602050781 181.4720001220703 L 295.2529602050781 180.5778503417969 L 295.513671875 179.7225494384766 L 345.6216735839844 15.33753967285156 C 345.2156677246094 10.12075805664063 340.8407592773438 6 335.5215759277344 6 L 16.130859375 6 M 16.130859375 0 L 335.5215759277344 0 C 344.4303588867188 0 351.6524047851563 7.222000122070313 351.6524047851563 16.13084411621094 L 301.2529602050781 181.4720001220703 C 301.2529602050781 190.380859375 345.016357421875 226 336.1076049804688 226 L 16.130859375 181.4720001220703 C 7.222015380859375 181.4720001220703 3.0517578125e-05 174.25 3.0517578125e-05 165.3411560058594 L 3.0517578125e-05 16.13084411621094 C 3.0517578125e-05 7.222000122070313 7.222015380859375 0 16.130859375 0 Z" stroke="none" fill="#62c9d5"/>
        </g>
      </g>
      <line id="Line_104" data-name="Line 104" x2="315" transform="translate(13492.5 2915.5)" fill="none" stroke="#62c9d5" stroke-linecap="round" stroke-width="11" opacity="0.8"/>
      <line id="Line_105" data-name="Line 105" x1="212.049" transform="translate(13796.976 3049.978)" fill="none" stroke="#62c9d5" stroke-linecap="round" stroke-width="8" opacity="0.8"/>
      <line id="Line_106" data-name="Line 106" x2="191" transform="translate(13492.5 2944.5)" fill="none" stroke="#62c9d5" stroke-linecap="round" stroke-width="11" opacity="0.8"/>
      <line id="Line_107" data-name="Line 107" x1="128.576" transform="translate(13880.449 3069.5)" fill="none" stroke="#62c9d5" stroke-linecap="round" stroke-width="8" opacity="0.8"/>
      <line id="Line_108" data-name="Line 108" x2="142" transform="translate(13528.5 2973.5)" fill="none" stroke="#62c9d5" stroke-linecap="round" stroke-width="11" opacity="0.8"/>
      <line id="Line_109" data-name="Line 109" x1="95.59" transform="translate(13889.2 3089.022)" fill="none" stroke="#62c9d5" stroke-linecap="round" stroke-width="8" opacity="0.8"/>
      <g id="Working_from_anywhere-pana_1_" data-name="Working from anywhere-pana (1)" transform="matrix(-0.998, 0.07, -0.07, -0.998, 14020.08, 3009.91)">
        <g id="freepik--Character--inject-39" transform="translate(2.674 15.65) rotate(-8)">
          <path id="Path_1210" data-name="Path 1210" d="M6.065,16.69l7.011-6.5s8.968,4.949,10.383,3.875L11.349,0,0,9.685Z" transform="translate(88.981 0)" fill="#62c9d5"/>
          <path id="Path_1211" data-name="Path 1211" d="M.061,1.03A.758.758,0,0,1,.38.074a.727.727,0,0,1,.956.3A.8.8,0,0,1,1,1.393.758.758,0,0,1,.042.97" transform="translate(97.655 5.334)" fill="#e0e0e0"/>
          <path id="Path_1212" data-name="Path 1212" d="M1.1,0,0,.934,12.028,14.118s.81.392,1.192-.057Z" transform="translate(99.227 0)" fill="#263238"/>
          <path id="Path_1213" data-name="Path 1213" d="M.6,1.956C.665,1.9.4,1.526.331,1S.394.044.312,0s-.389.4-.293,1.042S.56,2.014.6,1.956Z" transform="translate(101.58 8.532)" fill="#263238"/>
          <path id="Path_1214" data-name="Path 1214" d="M.3,1.813c.08-.041-.061-.44.029-.924S.67.072.61.009.122.232.02.837.237,1.867.3,1.813Z" transform="translate(103.768 9.613)" fill="#263238"/>
          <path id="Path_1215" data-name="Path 1215" d="M.814.015C.775-.059.348.139.125.652s-.1.956-.016.931.112-.392.319-.8S.864.082.814.015Z" transform="translate(105.744 10.725)" fill="#263238"/>
          <path id="Path_1216" data-name="Path 1216" d="M1.221,1.53C1.259,1.447.9,1.211.584.8S.137-.016.048,0-.038.517.335,1,1.2,1.629,1.221,1.53Z" transform="translate(99.204 10.233)" fill="#263238"/>
          <path id="Path_1217" data-name="Path 1217" d="M16.322,5.762a2.119,2.119,0,0,1,.462,3.324c-.351.36-.825.59-1.154.956a6.748,6.748,0,0,0-.637,1.08,4.29,4.29,0,0,1-3.305,2.021,5.533,5.533,0,0,1-3.761-1.157,4.27,4.27,0,0,0-1.345-.845,5.662,5.662,0,0,0-1.539-.022A3.506,3.506,0,0,1,1.99,5.861,3.021,3.021,0,0,1,3.029,0,6.448,6.448,0,0,1,5.518.723,45.891,45.891,0,0,0,15.624,3.767" transform="translate(3.332 91.915)" fill="#263238"/>
          <path id="Path_1218" data-name="Path 1218" d="M2.684,0A10.8,10.8,0,0,0,0,6.871c-.051,2.508.4,5.635,1.989,7.579-1.065,1.192-.593,2.489.2,3.872a7.987,7.987,0,0,0,3.64,3,17.179,17.179,0,0,0,6.887,1.641c1.938.048,4.513-.319,4.752-1.721a2.05,2.05,0,0,0-.7-2.094,9.6,9.6,0,0,0,3.566-2.231c2.384-2.358,3.289-4.72,2.926-7.33s-.956-4.634-2.55-6.266" transform="translate(2.819 76.206)" fill="#62c9d5"/>
          <path id="Path_1219" data-name="Path 1219" d="M.55,3.273a2.377,2.377,0,0,0,.978.577H1.455a1.115,1.115,0,0,0,.207.022A.934.934,0,0,0,2.4,3.741h0a1.778,1.778,0,0,0,.924-.892A2.088,2.088,0,0,0,2.969.707a1.593,1.593,0,0,0-2.907.7A1.988,1.988,0,0,0,.55,3.273Z" transform="translate(21.295 72.04)" fill="#455a64"/>
          <path id="Path_1220" data-name="Path 1220" d="M.618,13.844,0,33.922a1.954,1.954,0,0,0,1.791,1.941L12.21,38.247c3.324.274,5.44-3.859,5.574-7.193a59,59,0,0,0-.319-10.982c-1.007-5.529-5.278-6.138-5.278-6.138s-.115-3.85-.185-5.867L11.244,0Z" transform="translate(5.666 53.869)" fill="#ab6e65"/>
          <path id="Path_1221" data-name="Path 1221" d="M1.421.7a.714.714,0,0,0-.7-.7A.676.676,0,0,0,0,.658a.711.711,0,0,0,.7.7A.685.685,0,0,0,1.421.7Z" transform="translate(20.737 78.631)" fill="#263238"/>
          <path id="Path_1222" data-name="Path 1222" d="M2.813.013c-.089-.089-.637.319-1.386.338S.091-.006.008.089C-.03.134.062.3.327.472A1.953,1.953,0,0,0,1.465.79a1.865,1.865,0,0,0,1.1-.382C2.781.223,2.857.054,2.813.013Z" transform="translate(19.601 81.697)" fill="#263238"/>
          <path id="Path_1223" data-name="Path 1223" d="M1.421.7A.711.711,0,0,0,.72,0,.685.685,0,0,0,0,.661a.711.711,0,0,0,.7.7A.679.679,0,0,0,1.421.7Z" transform="translate(13.56 78.628)" fill="#263238"/>
          <path id="Path_1224" data-name="Path 1224" d="M2.813.014C2.72-.079,2.176.332,1.426.332S.091-.022.008.074C-.03.116.062.281.327.453A1.953,1.953,0,0,0,1.465.772a1.892,1.892,0,0,0,1.1-.386C2.781.224,2.864.055,2.813.014Z" transform="translate(12.07 81.726)" fill="#263238"/>
          <path id="Path_1225" data-name="Path 1225" d="M.216.042a5.086,5.086,0,0,0,1.246.2c.2.016.382.048.421.182A1.013,1.013,0,0,1,1.765,1c-.175.478-.354.978-.545,1.5A25.557,25.557,0,0,0,.009,6.432,25.509,25.509,0,0,0,1.532,2.608L2.052,1.1A1.138,1.138,0,0,0,2.138.326.494.494,0,0,0,1.819.048,1.33,1.33,0,0,0,1.5.01,5.164,5.164,0,0,0,.216.042Z" transform="translate(17.318 75.896)" fill="#263238"/>
          <path id="Path_1226" data-name="Path 1226" d="M7.384,1.338A14.122,14.122,0,0,0,0,3.489S1.718-.364,7.282.028Z" transform="translate(10.472 64.992)" fill="#7c4b43"/>
          <path id="Path_1227" data-name="Path 1227" d="M2.744,1.418a1.88,1.88,0,0,1-1.533.861,1.23,1.23,0,0,1-1.02-.526A1.125,1.125,0,0,1,1.415.038,2.818,2.818,0,0,1,2.559.711a.918.918,0,0,1,.249.28.4.4,0,0,1-.022.389" transform="translate(14.634 72.433)" fill="#7c4b43"/>
          <path id="Path_1228" data-name="Path 1228" d="M.143,2.231C.268,2.231.249,1.4.947.8A4.135,4.135,0,0,1,2.54.159C2.54.105,2.339,0,1.963,0A2.082,2.082,0,0,0,.637.5,1.792,1.792,0,0,0,0,1.7C0,2.033.1,2.237.143,2.231Z" transform="translate(15.109 72.983)" fill="#263238"/>
          <path id="Path_1229" data-name="Path 1229" d="M3.5.379C3.424.175,2.662.29,1.76.2S.129-.118.011.076C-.04.165.09.36.39.554a2.906,2.906,0,0,0,1.3.424A2.954,2.954,0,0,0,3.051.787C3.376.646,3.539.478,3.5.379Z" transform="translate(11.733 83.506)" fill="#263238"/>
          <path id="Path_1230" data-name="Path 1230" d="M2.6.07C2.466-.1,1.943.093,1.309.115S.133.023.015.208C-.039.3.05.472.289.631A1.8,1.8,0,0,0,1.351.89,1.779,1.779,0,0,0,2.377.517C2.6.335,2.667.153,2.6.07Z" transform="translate(19.578 83.957)" fill="#263238"/>
          <path id="Path_1231" data-name="Path 1231" d="M14.459,14.176s-5.2.233-9.319-5.529A22.3,22.3,0,0,1,1.737,0L0,9.316l1.632,4.159L5.29,15.406l6.839.182,2.55-1.351" transform="translate(4.124 76.35)" fill="#62c9d5"/>
          <path id="Path_1232" data-name="Path 1232" d="M.666,7.725C9.019,9.478,15.569,6.537,16.6,0l1.788,4.229L14.246,9.551,9.561,10.919,0,9.755Z" transform="translate(7.699 82.619)" fill="#62c9d5"/>
          <path id="Path_1233" data-name="Path 1233" d="M.578,3.486a2.578,2.578,0,0,0,1.064.637h-.08a1.293,1.293,0,0,0,.223.029,1.033,1.033,0,0,0,.8-.14h0a1.912,1.912,0,0,0,.994-.956A2.253,2.253,0,0,0,3.191.748,1.721,1.721,0,0,0,.065,1.5,2.142,2.142,0,0,0,.578,3.486Z" transform="translate(4.033 72.338)" fill="#455a64"/>
          <path id="Path_1234" data-name="Path 1234" d="M3.337,0a.886.886,0,0,0-.367.147,2.075,2.075,0,0,0-.736.784,2.1,2.1,0,0,0-.2,1.593c.076.293.194.58.252.88a.9.9,0,0,1-.2.829,3.062,3.062,0,0,1-.79.529,2.413,2.413,0,0,0-.743.612A2.643,2.643,0,0,0,0,6.871,2.289,2.289,0,0,0,.2,7.929a.883.883,0,0,0,.21.319,3.031,3.031,0,0,1-.242-1.38A2.55,2.55,0,0,1,.721,5.491a2.193,2.193,0,0,1,.688-.548,3.263,3.263,0,0,0,.851-.57A1.122,1.122,0,0,0,2.505,3.35c-.067-.319-.191-.618-.268-.9a2,2,0,0,1,.143-1.447A2.189,2.189,0,0,1,3.018.223C3.232.076,3.359.019,3.337,0Z" transform="translate(3.311 79.141)" fill="#fff"/>
          <path id="Path_1235" data-name="Path 1235" d="M.442,8A3.531,3.531,0,0,1,.158,6.706,2.587,2.587,0,0,1,.541,5.358,5.075,5.075,0,0,1,1.815,4.166a2.3,2.3,0,0,0,.637-.736,1.593,1.593,0,0,0,.15-.905,12.024,12.024,0,0,1-.229-1.441,1.274,1.274,0,0,1,.319-.87c.156-.163.3-.182.287-.2s-.035,0-.1,0a.636.636,0,0,0-.245.134,1.3,1.3,0,0,0-.408.927,9.276,9.276,0,0,0,.182,1.466,1.448,1.448,0,0,1-.14.787,2.169,2.169,0,0,1-.58.66A4.841,4.841,0,0,0,.368,5.243,2.68,2.68,0,0,0,0,6.7a2.427,2.427,0,0,0,.239.982A.855.855,0,0,0,.442,8Z" transform="translate(5.103 83.23)" fill="#fff"/>
          <path id="Path_1236" data-name="Path 1236" d="M2.2.055A.219.219,0,0,0,1.969.01a.446.446,0,0,0-.236.159.555.555,0,0,0-.115.36c0,.28.156.567.178.857a.852.852,0,0,1-.539.727,2.349,2.349,0,0,0-.88.682,1.877,1.877,0,0,0-.347.845,1.179,1.179,0,0,0,.105.822,4.982,4.982,0,0,1,.051-.79A1.988,1.988,0,0,1,.545,2.92a2.266,2.266,0,0,1,.825-.609,1.524,1.524,0,0,0,.465-.379A.772.772,0,0,0,2,1.374C1.957,1,1.784.737,1.778.523A.414.414,0,0,1,2,.093C2.11.039,2.189.074,2.2.055Z" transform="translate(9.07 87.055)" fill="#fff"/>
          <path id="Path_1237" data-name="Path 1237" d="M.206,2.4a.2.2,0,0,0,.115-.048.4.4,0,0,0,.092-.319,2.6,2.6,0,0,0-.147-.427.886.886,0,0,1-.019-.468,1.958,1.958,0,0,1,.44-.8C.843.153.942.022.92,0S.764.063.572.229a1.638,1.638,0,0,0-.548.86,1.019,1.019,0,0,0,.045.59,4.224,4.224,0,0,1,.185.386A.452.452,0,0,1,.206,2.4Z" transform="translate(12.774 89.178)" fill="#fff"/>
          <path id="Path_1238" data-name="Path 1238" d="M2.307,4.768a.83.83,0,0,0-.1-.223c-.08-.134-.214-.319-.338-.539a1.151,1.151,0,0,1-.092-.86,4.579,4.579,0,0,0,.229-1.17A2.09,2.09,0,0,0,1.635.819,2,2,0,0,0,.876.182,1.275,1.275,0,0,0,0,.019,4.6,4.6,0,0,1,.8.338,1.944,1.944,0,0,1,1.46.953,1.967,1.967,0,0,1,1.778,2a4.881,4.881,0,0,1-.207,1.122,1.275,1.275,0,0,0,.159.985,3.977,3.977,0,0,0,.4.51C2.25,4.71,2.291,4.774,2.307,4.768Z" transform="translate(19.058 89.595)" fill="#fff"/>
          <path id="Path_1239" data-name="Path 1239" d="M3.13,3.107c.032-.038-.252-.159-.367-.564-.054-.21-.166-.462-.249-.727A5.21,5.21,0,0,0,2.2.911,1.8,1.8,0,0,0,.707.009,1,1,0,0,0,0,.181a6.415,6.415,0,0,1,.695,0A1.74,1.74,0,0,1,2,1.035a5.616,5.616,0,0,1,.319.86c.105.284.223.507.3.714a.9.9,0,0,0,.319.433C3.063,3.1,3.123,3.116,3.13,3.107Z" transform="translate(21.989 87.26)" fill="#fff"/>
          <path id="Path_1240" data-name="Path 1240" d="M1.848.79c.026,0,0-.14-.118-.319A1.189,1.189,0,0,0,.248.127c-.185.1-.265.2-.245.226a1.892,1.892,0,0,1,1-.1A2.125,2.125,0,0,1,1.848.79Z" transform="translate(23.836 83.164)" fill="#fff"/>
          <path id="Path_1241" data-name="Path 1241" d="M1.275,4.263C1.3,4.228,1.039,4.1.8,3.743A1.7,1.7,0,0,1,.609,2.175,2.115,2.115,0,0,0,.9,1.219,1.329,1.329,0,0,0,.577.458C.275.1.013-.017,0,0S.2.2.45.553A1.234,1.234,0,0,1,.7,1.226a2.144,2.144,0,0,1-.287.864A1.68,1.68,0,0,0,.329,3.1a1.839,1.839,0,0,0,.351.739A1.023,1.023,0,0,0,1.275,4.263Z" transform="translate(15.182 91.072)" fill="#fff"/>
          <path id="Path_1242" data-name="Path 1242" d="M.012,0c-.06.025.124.516.143,1.144S.041,2.277.1,2.3a1.552,1.552,0,0,0,.277-1.16A1.711,1.711,0,0,0,.012,0Z" transform="translate(11.097 91.487)" fill="#fff"/>
          <path id="Path_1243" data-name="Path 1243" d="M1,0a.829.829,0,0,1,.156.663A6.664,6.664,0,0,1,.327,2.227a2.6,2.6,0,0,0-.319.982,1.5,1.5,0,0,0,.156.838.9.9,0,0,0,.408.411c.131.051.21.035.21.022s-.067-.032-.169-.1a.927.927,0,0,1-.319-.4A1.921,1.921,0,0,1,.512,2.332,4.883,4.883,0,0,0,1.3.684a.806.806,0,0,0-.14-.561C1.082.009,1-.007,1,0Z" transform="translate(6.283 92.13)" fill="#fff"/>
          <path id="Path_1244" data-name="Path 1244" d="M1.263,0a.8.8,0,0,0,.124.166.812.812,0,0,1,.255.424,1.144,1.144,0,0,1-.351.637c-.2.223-.462.43-.73.682a1.593,1.593,0,0,0-.561.9,1.435,1.435,0,0,0,.229.835,1.822,1.822,0,0,0,.478.6,4.252,4.252,0,0,0-.338-.676,1.419,1.419,0,0,1-.162-.736,1.514,1.514,0,0,1,.513-.759c.5-.465,1.084-.921,1.08-1.5A.787.787,0,0,0,1.448.1C1.336.028,1.276-.01,1.263,0Z" transform="translate(11.367 94.475)" fill="#fff"/>
          <path id="Path_1245" data-name="Path 1245" d="M.448.006A1.017,1.017,0,0,1,.767.5a1.032,1.032,0,0,1-.057.615,4.606,4.606,0,0,1-.386.72,2.079,2.079,0,0,0-.319.813,1.1,1.1,0,0,0,.175.711c.213.37.52.427.516.389a1.339,1.339,0,0,1-.373-.465.994.994,0,0,1-.112-.6,2.184,2.184,0,0,1,.319-.73A3.845,3.845,0,0,0,.92,1.182a1.125,1.125,0,0,0,0-.73.762.762,0,0,0-.293-.4C.515.006.448-.01.448.006Z" transform="translate(17.354 95.237)" fill="#fff"/>
          <path id="Path_1246" data-name="Path 1246" d="M14.97,4.9a3.306,3.306,0,0,0-.637,0c-.408.019-1,0-1.721-.016a18.8,18.8,0,0,1-5.536-1.1,28.638,28.638,0,0,1-5.067-2.55L.548.319A3.337,3.337,0,0,0,0,0,3.391,3.391,0,0,0,.5.4c.319.242.816.58,1.425.978A25.122,25.122,0,0,0,7,3.987,17.5,17.5,0,0,0,12.6,5.035a16.736,16.736,0,0,0,1.731-.057A3.589,3.589,0,0,0,14.97,4.9Z" transform="translate(4.614 90.459)" fill="#263238"/>
          <path id="Path_1247" data-name="Path 1247" d="M0,8.006a.237.237,0,0,1,.057.019l.156.061.252.1.354.121A10.14,10.14,0,0,0,3.133,8.8a14.2,14.2,0,0,0,3.506-.121c.657-.1,1.335-.239,2.04-.4a22.29,22.29,0,0,0,2.145-.612,11.018,11.018,0,0,0,6.106-4.6,8.118,8.118,0,0,0,.848-2.2c.064-.274.1-.488.127-.637a.692.692,0,0,1,.032-.166.215.215,0,0,1,0-.054s0,.019,0,.057a.582.582,0,0,1-.019.166,6.009,6.009,0,0,1-.105.637A7.75,7.75,0,0,1,17,3.091,10.875,10.875,0,0,1,10.852,7.77c-.727.249-1.453.443-2.158.609a20,20,0,0,1-2.049.4,13.845,13.845,0,0,1-3.534.092A9.53,9.53,0,0,1,.787,8.344L.44,8.21.191,8.095.038,8.022A.153.153,0,0,1,0,8.006Z" transform="translate(6.329 82.616)" fill="#263238"/>
          <path id="Path_1248" data-name="Path 1248" d="M11.107,12.512a.844.844,0,0,1-.178,0,4.926,4.926,0,0,1-.516-.054,7.309,7.309,0,0,1-1.823-.548A13.163,13.163,0,0,1,3.748,7.974,20.129,20.129,0,0,1,1.906,5.048,24.574,24.574,0,0,1,.707,2.5,12.788,12.788,0,0,1,.121.688C.073.468.038.3.022.178A1.051,1.051,0,0,1,0,0,.986.986,0,0,1,.048.175C.07.29.115.459.172.676A14.7,14.7,0,0,0,.79,2.464a25.713,25.713,0,0,0,1.221,2.55,21,21,0,0,0,1.839,2.9A13.385,13.385,0,0,0,8.63,11.849a7.886,7.886,0,0,0,1.791.583c.22.038.392.064.51.077A1.139,1.139,0,0,1,11.107,12.512Z" transform="translate(6.087 77.778)" fill="#263238"/>
          <path id="Path_1249" data-name="Path 1249" d="M24.033,13.347l-4.006,2.515-6.709-1.256L8.286,10.179,0,7.129.386,0S13.417,7.266,14.444,7.933a25.974,25.974,0,0,1,2.98,2.712l2.61.676h3.075a6.1,6.1,0,0,0,.931,1.1C24.4,12.694,24.033,13.347,24.033,13.347Z" transform="translate(38.532 31.5)" fill="#ab6e65"/>
          <path id="Path_1250" data-name="Path 1250" d="M0,0A2.6,2.6,0,0,1,.465.242c.29.166.7.408,1.2.708H1.638l2.61.284.223.025H4.449C5.641,1.08,6.709.94,7.48.826L8.395.711A1.5,1.5,0,0,1,8.732.692a1.544,1.544,0,0,1-.319.083L7.509.937c-.768.134-1.836.319-3.024.488H4.462L4.239,1.4l-2.6-.319H1.619C1.128.762.727.51.446.325A2.79,2.79,0,0,1,0,0Z" transform="translate(53.794 43.512)" fill="#7c4b43"/>
          <path id="Path_1251" data-name="Path 1251" d="M0,0A3.268,3.268,0,0,1,.545.245C.886.414,1.37.663,1.95.969H1.925l2.585.29.682.083H5.157C6.243.947,7.206.6,7.9.36L8.716.086a1.276,1.276,0,0,1,.319-.08,1.275,1.275,0,0,1-.284.137l-.8.319C7.27.727,6.313,1.1,5.227,1.495H5.2l-.682-.08L1.941,1.1h0C1.364.778.889.513.561.325A3.215,3.215,0,0,1,0,0Z" transform="translate(53.507 45.19)" fill="#7c4b43"/>
          <path id="Path_1252" data-name="Path 1252" d="M32.664,32.221,23.957,9.494a.672.672,0,0,0-.376-.382L.921.048A.672.672,0,0,0,0,.685H0A.676.676,0,0,0,.411,1.3l22.045,9.258,8.691,22.277a.666.666,0,0,0,.9.36l.268-.118A.669.669,0,0,0,32.664,32.221Z" transform="translate(45.502 35.461)" fill="#e0e0e0"/>
          <path id="Path_1253" data-name="Path 1253" d="M83.442,13.663S56.853,35.392,55.505,36.587a11.847,11.847,0,0,1-7.031,2.843c-3.442.293-40.842-18.246-40.842-18.246L0,4.739A13.927,13.927,0,0,1,13.915.4a39.391,39.391,0,0,1,18.552,9.88C36.319,13.752,48.14,23.029,48.14,23.029L74.955,4.006Z" transform="translate(17.509 1.925)" fill="#263238"/>
          <path id="Path_1254" data-name="Path 1254" d="M.094,5.1A20.134,20.134,0,0,1,.011,2.55,19.76,19.76,0,0,1,.091,0,19.032,19.032,0,0,1,.177,2.55,20.143,20.143,0,0,1,.094,5.1Z" transform="translate(65.723 26.018)" fill="#455a64"/>
          <path id="Path_1255" data-name="Path 1255" d="M28.957,34.157a30.406,30.406,0,0,1-1.45,8.184c-1.4,4.194-8.831,13.8-8.831,13.8L18.325,57.9s-8.207,5.606-10.071,6.54a7.533,7.533,0,0,1-3.168.911l-.245-1.82S.379,59.093.1,54.4C-.131,50.66.117,39.448.117,39.448L1.23.012S26.99-.055,29.39.13,31.6,1.156,31.6,1.156L28.638,25.409Z" transform="translate(0 0.122)" fill="#62c9d5"/>
          <path id="Path_1256" data-name="Path 1256" d="M5.208,35.289a39.205,39.205,0,0,0,5.619-4.975c3.107-3.26,11.649-17.305,11.649-17.305l14.4.806a.982.982,0,0,0,1.09-.784c.437-2.2,1.38-7.818.019-10.042C36.275.191,34.258.656,34.258.656S19.811-.8,17.791.627,4.042,16.527,2.024,21.5-2.4,35.439,5.208,35.289Z" transform="translate(2.335 27.067)" fill="#62c9d5"/>
          <path id="Path_1257" data-name="Path 1257" d="M0,21.563s.026-.067.083-.2.15-.319.265-.58.287-.561.481-.921l.319-.58.4-.637c1.115-1.823,2.868-4.382,5.2-7.451q1.75-2.3,3.91-4.959c.723-.88,1.479-1.785,2.276-2.7.4-.456.806-.921,1.237-1.38.21-.229.424-.462.653-.685a7.718,7.718,0,0,1,.7-.66l.185-.159c.07-.045.15-.086.223-.127A3.147,3.147,0,0,1,16.4.36a6.743,6.743,0,0,1,.975-.185c.657-.086,1.326-.127,2-.15C20.728-.022,22.112,0,23.52.054c2.814.1,5.737.319,8.72.6h-.026a3.008,3.008,0,0,1,1.979.446,5.1,5.1,0,0,1,1.523,1.45,4.644,4.644,0,0,1,.717,1.431A8.236,8.236,0,0,1,36.7,5.545a19.071,19.071,0,0,1-.032,3.107c-.083,1.02-.213,2.027-.379,3.012-.083.494-.172.982-.268,1.469a1.068,1.068,0,0,1-1.179.838h0l-14.386-.838.064-.035c-3.152,5.255-5.871,9.526-7.872,12.429-1.007,1.453-1.817,2.575-2.416,3.3-.287.373-.535.637-.695.819s-.252.268-.252.268.076-.1.236-.284.4-.453.679-.829c.59-.733,1.386-1.864,2.381-3.321,1.982-2.922,4.682-7.206,7.821-12.461l.019-.038h.035l14.4.8h0a.9.9,0,0,0,1-.711q.143-.727.268-1.463c.163-.985.293-1.986.376-3a19.075,19.075,0,0,0,.029-3.079A8.037,8.037,0,0,0,36.268,4a4.462,4.462,0,0,0-.692-1.383,4.933,4.933,0,0,0-1.472-1.4A2.846,2.846,0,0,0,32.246.784h-.029c-2.986-.287-5.9-.5-8.71-.6C22.1.131,20.725.105,19.364.146c-.672.025-1.339.061-1.989.147a6.7,6.7,0,0,0-.956.182A1.689,1.689,0,0,0,15.594.9a7.418,7.418,0,0,0-.692.637c-.226.22-.443.449-.637.679-.427.456-.832.918-1.233,1.374q-1.2,1.374-2.282,2.69C9.306,8.031,8,9.688,6.83,11.218c-2.339,3.06-4.111,5.606-5.239,7.416l-.4.637-.319.577c-.2.357-.382.653-.494.911L.1,21.334A2.13,2.13,0,0,1,0,21.563Z" transform="translate(4.359 26.875)" fill="#263238"/>
          <path id="Path_1258" data-name="Path 1258" d="M0,0A8.416,8.416,0,0,1,.319.94,18.2,18.2,0,0,0,2.333,5.227a9.433,9.433,0,0,1,.526.838,4.424,4.424,0,0,1-.637-.774,14.29,14.29,0,0,1-1.2-2.072A13.986,13.986,0,0,1,.191.988,4.5,4.5,0,0,1,0,0Z" transform="translate(21.866 33.823)" fill="#263238"/>
          <path id="Path_1259" data-name="Path 1259" d="M.071,0A5.833,5.833,0,0,1,.122.908c0,.561.048,1.335.118,2.186S.405,4.714.482,5.268a5.975,5.975,0,0,1,.1.9,4.143,4.143,0,0,1-.217-.883,21.387,21.387,0,0,1-.29-2.18A20.925,20.925,0,0,1,0,.911,4.616,4.616,0,0,1,.071,0Z" transform="translate(24.115 33.769)" fill="#263238"/>
          <path id="Path_1260" data-name="Path 1260" d="M0,0A2.843,2.843,0,0,1,.137.5c.083.319.182.794.287,1.38A34.444,34.444,0,0,1,.937,6.5a35.03,35.03,0,0,1-.118,4.65c-.057.593-.115,1.071-.169,1.4a3.033,3.033,0,0,1-.1.51,3.256,3.256,0,0,1,.032-.516c.032-.319.073-.81.115-1.4A40.32,40.32,0,0,0,.309,1.9C.217,1.316.137.845.076.516A3.228,3.228,0,0,1,0,0Z" transform="translate(35.741 27.142)" fill="#263238"/>
          <path id="Path_1261" data-name="Path 1261" d="M0,7.955a.638.638,0,0,1,.156-.083l.456-.207c.4-.178.956-.449,1.644-.813a44.981,44.981,0,0,0,5.1-3.279c1.912-1.38,3.6-2.664,4.883-3.538L12.289,0l.032.051c.418.682.657,1.275.861,1.664.1.2.178.351.236.449a.635.635,0,0,1,.08.159.793.793,0,0,1-.108-.14c-.067-.1-.156-.245-.265-.437-.223-.382-.481-.956-.9-1.629H12.3C11.03,1.01,9.357,2.311,7.454,3.694A40.338,40.338,0,0,1,2.323,6.938c-.695.354-1.275.609-1.673.771l-.469.178A.638.638,0,0,1,0,7.955Z" transform="translate(4.831 58.169)" fill="#263238"/>
          <g id="Group_1882" data-name="Group 1882" transform="translate(7.46 24.659)" opacity="0.3">
            <path id="Path_1262" data-name="Path 1262" d="M10.661,4.556l.025-.032A6.718,6.718,0,0,1,15.76,2.111l5.418-.076A22.461,22.461,0,0,0,16.165.142a7.413,7.413,0,0,0-5.1.755,10.8,10.8,0,0,0-3.082,3.4A90.65,90.65,0,0,0,0,17.68C3.63,13.333,7.037,8.893,10.661,4.556Z" transform="translate(0 0)"/>
          </g>
          <g id="Group_1883" data-name="Group 1883" transform="translate(8.123 56.952)" opacity="0.3">
            <path id="Path_1263" data-name="Path 1263" d="M10.081,3.3,9.048,0,0,7.5,8.965,1.237Z" transform="translate(0 0)"/>
          </g>
          <path id="Path_1264" data-name="Path 1264" d="M.536,0S.486.207.393.577A9.02,9.02,0,0,0,.144,2.17,7.58,7.58,0,0,0,.361,4.538,6.373,6.373,0,0,0,1.7,7.088,5.506,5.506,0,0,0,4.068,8.72a5.167,5.167,0,0,0,2.346.217A4.851,4.851,0,0,0,7.94,8.452c.338-.175.507-.319.516-.293a.582.582,0,0,1-.118.1,3.445,3.445,0,0,1-.367.249,4.486,4.486,0,0,1-1.539.542,5.17,5.17,0,0,1-2.416-.188A5.555,5.555,0,0,1,1.572,7.2,6.415,6.415,0,0,1,.215,4.564,7.519,7.519,0,0,1,.027,2.148,8.212,8.212,0,0,1,.345.555Q.431.277.489.134A.58.58,0,0,1,.536,0Z" transform="translate(2.675 51.643)" fill="#263238"/>
          <path id="Path_1265" data-name="Path 1265" d="M.006,25.244a1.442,1.442,0,0,1,0-.258c0-.185.032-.43.054-.739.048-.637.131-1.565.239-2.709.217-2.285.558-5.44.956-8.924S2,6,2.256,3.691c.124-1.128.223-2.046.293-2.7.035-.319.064-.551.086-.733A1.809,1.809,0,0,1,2.673,0a1.446,1.446,0,0,1,0,.258c0,.182-.032.427-.054.736-.048.637-.131,1.565-.239,2.709-.217,2.285-.558,5.44-.956,8.924s-.743,6.619-1,8.924C.3,22.679.2,23.6.13,24.253c-.035.319-.064.551-.083.736A1.573,1.573,0,0,1,.006,25.244Z" transform="translate(26.709 0.277)" fill="#263238"/>
          <path id="Path_1266" data-name="Path 1266" d="M0,17.159A1.075,1.075,0,0,1,.124,17L.5,16.56c.319-.382.778-.956,1.316-1.657A57.071,57.071,0,0,0,5.638,9.061,44.877,44.877,0,0,0,8.7,2.792,11.515,11.515,0,0,0,9.29.768,5.372,5.372,0,0,0,9.36,0a.916.916,0,0,1,.025.2,3.133,3.133,0,0,1-.032.58,10.427,10.427,0,0,1-.545,2.056,40.833,40.833,0,0,1-3.024,6.31,51.342,51.342,0,0,1-3.872,5.829C1.358,15.68.886,16.231.548,16.6c-.166.188-.319.319-.4.421A.711.711,0,0,1,0,17.159Z" transform="translate(17.099 40.708)" fill="#263238"/>
          <g id="Group_1884" data-name="Group 1884" transform="translate(0.1 0.134)" opacity="0.3">
            <path id="Path_1267" data-name="Path 1267" d="M0,39.172c-.019.66.1,1.864.743,2.008.985.223,3.369-3.1,3.863-3.981A28.872,28.872,0,0,0,8.482,23.361,49,49,0,0,1,11.268,8.876c1.747-4.659,5.87-8.4,10.807-8.818L1.13,0C.811,12.41.333,26.761,0,39.172Z" transform="translate(0 0)"/>
          </g>
        </g>
        <g id="freepik--Backpack--inject-39" transform="matrix(0.999, 0.035, -0.035, 0.999, 1.268, 9.588)">
          <path id="Path_1269" data-name="Path 1269" d="M5.455,33.534s10.743.211,13.607,0c3.012-.221,4.719-1.785,4.8-4.267.038-1.119,1.34-25.88.931-27.231C24.059-.394,21.3.028,19.506.028H2.187C.819.952.45,2.882.54,6.195S.071,26.526,0,28.935C-.155,34.048,5.455,33.534,5.455,33.534Z" transform="translate(0 0)" fill="#455a64"/>
          <path id="Path_1270" data-name="Path 1270" d="M18.986.033h-.72L16.2.048,8.6.108C6.991.123,5.232.141,3.344.183,2.875.2,2.39.2,1.911.256a2.471,2.471,0,0,0-.7.181,1.31,1.31,0,0,0-.56.434,1.439,1.439,0,0,0-.251.683c-.023.251,0,.5-.02.766q-.023.776-.05,1.574C.264,6.016.192,8.245.152,10.559c-.018,1.155-.043,2.334,0,3.514a2.391,2.391,0,0,0,.028.444l.023.221.05.211a1.936,1.936,0,0,0,.432.753,3.22,3.22,0,0,0,1.534.876H14.792c.547,0,1.089,0,1.627.025a13.149,13.149,0,0,0,3.1-.073,2.339,2.339,0,0,0,1.28-.658,2.216,2.216,0,0,0,.527-1.288c.146-1.9.223-3.67.289-5.286s.088-3.082.068-4.367c-.018-.643-.03-1.242-.1-1.787a3.362,3.362,0,0,0-.06-.4c-.015-.063-.025-.128-.038-.188l-.06-.181a3.01,3.01,0,0,0-.306-.638,3.84,3.84,0,0,0-.788-.893,5.021,5.021,0,0,0-.715-.5A5.291,5.291,0,0,0,19.144.1L18.976.018a1.546,1.546,0,0,1,.173.065,5.367,5.367,0,0,1,.487.251,5.306,5.306,0,0,1,.725.5,3.9,3.9,0,0,1,.806.9,3.049,3.049,0,0,1,.316.648c.02.06.04.12.063.183a1.708,1.708,0,0,1,.04.191,4.054,4.054,0,0,1,.065.4c.07.55.088,1.15.108,1.792.028,1.288,0,2.761-.05,4.372s-.128,3.391-.271,5.294a2.322,2.322,0,0,1-.552,1.353,2.485,2.485,0,0,1-1.34.7,13.272,13.272,0,0,1-3.132.08c-.535-.028-1.077-.023-1.624-.023H2.187a3.351,3.351,0,0,1-1.6-.916A2.032,2.032,0,0,1,.129,15l-.055-.226-.023-.228c-.02-.151-.023-.3-.028-.452-.043-1.2-.018-2.374,0-3.532C.066,8.245.141,6.014.214,3.89q.028-.8.055-1.571c0-.251,0-.5.02-.776A1.523,1.523,0,0,1,.54.808,1.4,1.4,0,0,1,1.148.336,2.572,2.572,0,0,1,1.876.148C2.378.09,2.847.1,3.319.078c1.89-.04,3.65-.05,5.253-.06L16.178,0h2.6A1.789,1.789,0,0,0,18.986.033Z" transform="translate(1.551 1.223)" fill="#263238"/>
          <path id="Path_1271" data-name="Path 1271" d="M.961,0S.94.07.9.2A4.325,4.325,0,0,0,.742.8,20.192,20.192,0,0,0,.491,3.16c-.063,1.029-.1,2.292-.1,3.765V8.062c0,.384.015.8,0,1.212,0,.831-.025,1.712-.04,2.635C.3,15.6.228,20,.152,24.884q0,.914-.028,1.852a6.048,6.048,0,0,0,.251,1.855,3.561,3.561,0,0,0,1,1.586,3.833,3.833,0,0,0,.781.562,3.562,3.562,0,0,0,.926.294,14.348,14.348,0,0,0,1.985.236c.673.043,1.35.058,2.038.058l4.172.078c1.411.02,2.8.035,4.174.035.685,0,1.368,0,2.041-.02.339,0,.675-.015,1-.04a4.343,4.343,0,0,0,.5-.048,4.581,4.581,0,0,0,.477-.123,3.765,3.765,0,0,0,1.642-1,3.172,3.172,0,0,0,.831-1.677c.131-1.255.173-2.51.251-3.737.113-2.44.218-4.756.316-6.928s.208-4.189.3-6.024.176-3.514.251-4.977c.038-.733.07-1.416.1-2.043s.08-1.2.055-1.714A8.589,8.589,0,0,0,22.792.778C22.709.527,22.632.329,22.579.2s-.083-.2-.083-.2a2.024,2.024,0,0,1,.1.191c.058.125.138.319.226.575A8.433,8.433,0,0,1,23.277,3.1c.03.52-.02,1.092-.043,1.719s-.06,1.31-.093,2.043C23.073,8.331,23,10,22.913,11.845c-.168,3.69-.366,8.085-.587,12.964-.065,1.22-.108,2.467-.251,3.747a3.293,3.293,0,0,1-.861,1.744,3.9,3.9,0,0,1-1.7,1.032,4.114,4.114,0,0,1-.5.125c-.171.023-.341.045-.5.05-.336.025-.673.03-1,.043-.678,0-1.358.02-2.046.02-1.373,0-2.761-.015-4.177-.035l-4.172-.078c-.685,0-1.37-.018-2.046-.06a14.4,14.4,0,0,1-2.008-.238,3.557,3.557,0,0,1-.959-.306,4.035,4.035,0,0,1-.808-.582A3.7,3.7,0,0,1,.253,28.629,6.181,6.181,0,0,1,0,26.736q.015-.939.03-1.855C.117,20,.195,15.594.26,11.91c.015-.924.033-1.8.048-2.635V6.925c0-1.468.053-2.733.123-3.765A19.255,19.255,0,0,1,.712.8,3.806,3.806,0,0,1,.88.2C.933.065.961,0,.961,0Z" transform="translate(0.815 0.831)" fill="#263238"/>
          <path id="Path_1272" data-name="Path 1272" d="M18.689,7.3a.427.427,0,0,1-.08,0H17.387l-3.654.015-12.713.03H.966V7.3C.665,5.037.339,2.608,0,.073V0H.781L19.2.02h.048V.068c-.166,2.241-.3,4.051-.392,5.3-.045.615-.083,1.094-.108,1.426,0,.158-.025.281-.03.369a.582.582,0,0,1-.015.12V7.156a2.886,2.886,0,0,1,.02-.376c.02-.334.05-.816.088-1.438.08-1.255.2-3.047.341-5.271L19.2.118.778.138H.073L.138.065C.474,2.6.8,5.04,1.1,7.286l-.063-.053,12.673.028,3.67.018h1.232Z" transform="translate(2.548 8.23)" fill="#263238"/>
          <rect id="Rectangle_1256" data-name="Rectangle 1256" width="2.432" height="11.152" transform="translate(15.753 2.458)" fill="#263238"/>
          <rect id="Rectangle_1257" data-name="Rectangle 1257" width="2.384" height="11.526" transform="translate(5.52 2.084)" fill="#263238"/>
          <path id="Path_1273" data-name="Path 1273" d="M8.462,0a2.956,2.956,0,0,1-.688,2.543,2.068,2.068,0,0,1-1.255.464c-1.338.143-2.7.226-4.044.251a2.816,2.816,0,0,1-1.388-.251,2.1,2.1,0,0,1-1-1.413A5.271,5.271,0,0,1,.029.105l1,.063a4.471,4.471,0,0,0,.033,1.2,1.127,1.127,0,0,0,.5.753,1.882,1.882,0,0,0,.9.123c1.313-.018,2.641-.1,3.948-.238a1.288,1.288,0,0,0,.69-.2,2.028,2.028,0,0,0,.4-1.536Z" transform="translate(6.904 33.057)" fill="#455a64"/>
          <rect id="Rectangle_1258" data-name="Rectangle 1258" width="12.141" height="3.534" transform="translate(5.829 22.969)" fill="#fff"/>
        </g>
        <g id="freepik--water-bottle--inject-39" transform="translate(39.127 13.775)">
          <path id="Path_1274" data-name="Path 1274" d="M5.065,6.321c.062-.084.22-4.317.617-4.592S8.327.551,8.354.156V.039L0,0V.884L5.246.678s-.676.3-.676.771.084,3.758.055,3.869A5.631,5.631,0,0,0,5.065,6.321Z" transform="translate(4.009 0.002)" fill="#263238"/>
          <path id="Path_1275" data-name="Path 1275" d="M2.072,9.867A4.993,4.993,0,0,0,4.319,7.811a7.687,7.687,0,0,0,.514-3.56C4.806,3.17,3.881-.212.368.01H0V10.926H1.782v-.917Z" transform="translate(4.32 0)" fill="#455a64"/>
          <path id="Path_1276" data-name="Path 1276" d="M2.774,9.867A4.983,4.983,0,0,1,.527,7.811a7.745,7.745,0,0,1-.516-3.56C.036,3.17.965-.212,4.478.01h.366V10.926H3.062v-.917Z" transform="translate(0 0)" fill="#455a64"/>
          <path id="Path_1277" data-name="Path 1277" d="M2.561,1.8H.345A.345.345,0,0,1,0,1.455V0H2.907V1.455a.345.345,0,0,1-.345.345Z" transform="translate(3.179 11.23)" fill="#e0e0e0"/>
          <rect id="Rectangle_1259" data-name="Rectangle 1259" width="3.64" height="0.539" rx="0.269" transform="translate(2.774 10.821)" fill="#e0e0e0"/>
          <path id="Path_1278" data-name="Path 1278" d="M0,.053a23.256,23.256,0,0,1,3.151,0A23.256,23.256,0,0,1,0,.053Z" transform="translate(2.975 11.306)" fill="#455a64"/>
        </g>
        <g id="freepik--Birds--inject-39" transform="translate(51.554 74.312)">
          <path id="Path_1284" data-name="Path 1284" d="M0,3.78c0-.014.228.078.65.171a5.166,5.166,0,0,0,1.815.07A4.872,4.872,0,0,0,4.911,2.966,5.079,5.079,0,0,0,6.638.226V.2L6.687,0l.076.185a5.429,5.429,0,0,0,2.066,2.5,5.281,5.281,0,0,0,2.524.843,5.55,5.55,0,0,0,1.8-.166c.411-.109.637-.206.641-.193a.78.78,0,0,1-.156.076,3.794,3.794,0,0,1-.471.167,5.384,5.384,0,0,1-4.407-.617A5.515,5.515,0,0,1,6.64.241L6.765.23V.261a5.139,5.139,0,0,1-1.778,2.8,4.913,4.913,0,0,1-2.51,1.052A4.981,4.981,0,0,1,.637,4,3.6,3.6,0,0,1,.16,3.85,1,1,0,0,1,0,3.78Z" transform="translate(14.985 0)" fill="#263238"/>
          <path id="Path_1285" data-name="Path 1285" d="M0,5.143a3.5,3.5,0,0,1,.292-.337,7.254,7.254,0,0,0,.715-.972A7.094,7.094,0,0,0,2.07.06c0-.016,0-.033,0-.047L2.2,0A6.329,6.329,0,0,0,3.939,3.464,8.542,8.542,0,0,0,5.207,4.491a.39.39,0,0,1-.1-.047c-.064-.037-.164-.084-.284-.164a5.67,5.67,0,0,1-.946-.752A6.228,6.228,0,0,1,2.07.018L2.2.006V.055A6.936,6.936,0,0,1,1.085,3.887a6.218,6.218,0,0,1-.756.958c-.1.1-.183.177-.238.228A.467.467,0,0,1,0,5.143Z" transform="translate(0 12.946)" fill="#263238"/>
          <path id="Path_1286" data-name="Path 1286" d="M0,2.183c0-.012.127.035.36.082a2.937,2.937,0,0,0,.993.031,2.7,2.7,0,0,0,1.33-.582A2.769,2.769,0,0,0,3.624.222V.206L3.674,0,3.75.187A2.97,2.97,0,0,0,4.874,1.548a2.9,2.9,0,0,0,1.373.465,3.189,3.189,0,0,0,.989-.08c.228-.058.351-.107.356-.1s-.027.021-.084.047a2.3,2.3,0,0,1-.259.1A2.888,2.888,0,0,1,6.243,2.1,2.94,2.94,0,0,1,4.8,1.649,3.048,3.048,0,0,1,3.624.236H3.75V.253a2.851,2.851,0,0,1-.989,1.558,2.732,2.732,0,0,1-1.4.58A2.7,2.7,0,0,1,.348,2.319,2.128,2.128,0,0,1,.085,2.23C.029,2.2-.01,2.187,0,2.183Z" transform="translate(39.208 8.835)" fill="#263238"/>
        </g>
      </g>
      <g id="Discussion-amico" transform="translate(13429.987 2720.633)">
        <g id="freepik--character-2--inject-152" transform="translate(197.128 46.108)">
          <g id="freepik--Character--inject-152" transform="translate(0 0)">
            <g id="freepik--Bottom--inject-152" transform="translate(6.226 64.679)">
              <path id="Path_1315" data-name="Path 1315" d="M347.232,311.182a5.539,5.539,0,0,1,5.114,2.414,7.67,7.67,0,0,1-.865,5.031,15.778,15.778,0,0,0-1.142,7.163c.2,2.081,1.207,7.269-.883,9.887s-6.751,4.9-8.421,1.336c-.546-1.17.532-5.225,1.013-8.18.948-5.891,1.665-11.746,1.665-11.746Z" transform="translate(-318.613 -264.939)" fill="#263238"/>
              <path id="Path_1316" data-name="Path 1316" d="M349.184,321.39a57.524,57.524,0,0,0-.661,8.643c.065,3.158-.6,5.239-1.683,6.65-1.2,1.563-4.208,2.442-3.861-.814.24-2.271,1.85-13.272,1.85-13.272Z" transform="translate(-319.724 -270.449)" fill="#ffa8a7"/>
              <path id="Path_1317" data-name="Path 1317" d="M351.474,312.56c.125,1.947-.925,7.117-3.524,11.45-2.571,4.254-6.335,9.249-7.047,12.287a36.183,36.183,0,0,1,.925-6.21l.028-.148.069-.393a1.229,1.229,0,0,1,.032-.18c.032-.166.06-.333.083-.495v-.032c.3-1.85.573-3.7.809-5.336.19-1.323.361-2.534.495-3.538.065-.5.125-.925.176-1.336.028-.19.051-.37.069-.527.083-.643.129-1.008.129-1.008l3.505-5.905a5.055,5.055,0,0,1,.513-.037A5.776,5.776,0,0,1,351.474,312.56Z" transform="translate(-318.619 -264.944)" opacity="0.15"/>
              <path id="Path_1318" data-name="Path 1318" d="M322.309,224.534c8.37-6.247,17.854-13.3,17.854-13.3l26.867,1.618-26.469,19.8-11.4,7.718s-2.178-.171-.842,3.237c.421,1.077,1.064,3.237,1.739,5.683l-5.29,14.585a75.57,75.57,0,0,1-7-14.294c-3.7-9.545-3.931-12.689-3.551-14.585C314.721,232.506,315.47,229.621,322.309,224.534Z" transform="translate(-304.207 -211.23)" fill="#455a64"/>
              <path id="Path_1319" data-name="Path 1319" d="M329.945,240.63a68.7,68.7,0,0,0-6.169,5.327,25.123,25.123,0,0,0-2.673,3,4.8,4.8,0,0,0-.851,1.646A13.446,13.446,0,0,0,320,252.57a17.67,17.67,0,0,0,.305,3.963c.227,1.323.55,2.636.9,3.944.717,2.627,1.387,5.272,2.049,7.917-.994-2.543-1.887-5.124-2.714-7.723a35.091,35.091,0,0,1-1.059-3.986,16.273,16.273,0,0,1-.338-4.162,14.245,14.245,0,0,1,.291-2.086,5.494,5.494,0,0,1,1.04-1.947,22.61,22.61,0,0,1,2.872-3A45.124,45.124,0,0,1,329.945,240.63Z" transform="translate(-306.913 -227.035)" fill="#37474f"/>
              <path id="Path_1320" data-name="Path 1320" d="M351.933,238.292c-.338.227-1.822,1.267-2.215,1.545-5.267,3.727-14.164,10.946-15.158,14.109a90.961,90.961,0,0,0-4.25,15.061s.166-4.906.351-9.711c.254-6.719,1.471-8.61,3.653-11.1,2.1-2.391,13.309-9.249,14.09-9.688a9.188,9.188,0,0,1-2.881-6.28S348.363,237.058,351.933,238.292Z" transform="translate(-312.929 -222.519)" fill="#37474f"/>
              <path id="Path_1321" data-name="Path 1321" d="M316.13,362.908c.684-.046.731,1.124,1.147,2.608a7.6,7.6,0,0,1,.222,4.453c-.56,1.882-3.528,2.261-4.985,4.763s-3.542,6.973-8.786,8.472-9.429.023-10.534-1.494-.319-3.08,2.955-5.262c3.473-2.312,4.453-3,4.453-3Z" transform="translate(-292.723 -292.767)" fill="#263238"/>
              <path id="Path_1322" data-name="Path 1322" d="M314.788,343.8a80.418,80.418,0,0,1-2.654,9.249A37.478,37.478,0,0,1,306,362.76c-.55.671-1.817,1.924-2.271,2.465a1.031,1.031,0,0,0,.143,1.582c1.188,1.082,6.113,1.235,8.828-.9s5.1-6.567,6.714-8.268c.6-.638,1.17-1.29,1.706-1.984a3.441,3.441,0,0,0,.8-2.22,9.836,9.836,0,0,1,.134-3.177,35.593,35.593,0,0,1,1.2-4.12Z" transform="translate(-298.474 -282.496)" fill="#ffa8a7"/>
              <path id="Path_1323" data-name="Path 1323" d="M372.5,214.66c2.941,8.976,2.312,13.79.68,17.642-1.355,3.209-3.889,6.543-11.2,10.067-6.936,3.339-13.41,6.876-15.135,7.686s-2.28,2.714-3.08,6.118a58.322,58.322,0,0,1-5.225,15.311c-3.7,7.242-4.721,9.383-4.721,9.383s-5.036,1.568-8.666-1.822c0,0,3.306-27.746,4.125-32.227a10.329,10.329,0,0,1,3.76-6.839c5.6-5.036,15.954-11.1,15.954-11.1s-.772-9.151,1.017-14.2Z" transform="translate(-310.155 -213.074)" fill="#455a64"/>
              <path id="Path_1324" data-name="Path 1324" d="M331.51,294.4q.541-6.058,1.341-12.079c.536-4.019,1.114-8.023,1.914-12.023.1-.5.222-1,.342-1.5l.222-.758.273-.74a11.939,11.939,0,0,1,1.572-2.714,22.387,22.387,0,0,1,4.486-4.217c1.632-1.221,3.353-2.312,5.059-3.39s3.422-2.169,5.156-3.237c-1.628,1.212-3.283,2.377-4.925,3.565s-3.306,2.312-4.879,3.579a23.121,23.121,0,0,0-4.24,4.162,11.592,11.592,0,0,0-1.434,2.543l-.25.684-.2.7c-.111.486-.227.971-.324,1.466-.416,1.965-.754,3.958-1.091,5.951l-1,5.988Q332.56,288.408,331.51,294.4Z" transform="translate(-313.574 -234.082)" fill="#37474f"/>
            </g>
            <g id="freepik--Top--inject-152">
              <path id="Path_1325" data-name="Path 1325" d="M279.815,120.652a2.853,2.853,0,0,1,1.665.129,18.239,18.239,0,0,1,2.381,1.336c1.221.661,3.182,1.748,4.592,1.688.287,0,.879-.13.49-.462a11.833,11.833,0,0,1-1.484-1.443,2.479,2.479,0,0,1-.578-1.919.823.823,0,0,1,.287-.536c.236-.176.4-.065.587.074a6.164,6.164,0,0,0,.629.384c.462.25.888.5,1.327.758,2.562,1.5,5.128,3.237,6.645,5.887.217.384,1.544,3.385,2.4,5.087.694,1.545,5.97,11.223,5.97,11.223l9.4-9.165c2.1-2.1,4.208-4.055,6.076-4.772,1.336-.513,3.186-1.2,3.186-1.2l-3.431,16.106s-9.933,7.468-11.353,8.495c-2.1,1.526-6.308,3.991-8.393,1.415-2.83-3.5-4.208-8.541-5.549-12.388s-2.025-6.183-2.775-7.51-2-1.42-2.876-1.692a13.48,13.48,0,0,1-3.45-1.507,12.379,12.379,0,0,1-2.654-1.956,3.906,3.906,0,0,1-1.027-1.23,11.018,11.018,0,0,0-.245-1.309,12.43,12.43,0,0,1-.8-1.346,4.912,4.912,0,0,1-.083-1.225,2.057,2.057,0,0,0-.879-1.447,1.905,1.905,0,0,1-.573-.675C279.139,120.971,279.445,120.754,279.815,120.652Z" transform="translate(-279.259 -97.161)" fill="#ffa8a7"/>
              <path id="Path_1326" data-name="Path 1326" d="M316.9,150.837l-1.309-2.187a6.673,6.673,0,0,1-2.668,3.131c-2.118,1.41-3.551.9-3.551.9l.772,2.631s1.6.6,4.129-1.073S316.9,150.837,316.9,150.837Z" transform="translate(-295.446 -112.909)" fill="#ff725e"/>
              <path id="Path_1327" data-name="Path 1327" d="M341.953,134.94a14.187,14.187,0,0,0-8.624,3.7c-2.2,1.85-11.838,10.881-11.838,10.881l-4.55-7s-.264,1.933-2.909,3.468c-2.775,1.619-3.8,1.068-3.8,1.068s2.072,8.324,4.351,12.416,3.584,5.429,7.306,3.75,16.444-11.145,16.444-11.145Z" transform="translate(-295.908 -105.539)" fill="#263238"/>
              <path id="Path_1328" data-name="Path 1328" d="M302.583,131.63a9.136,9.136,0,0,0,3.149,3.963,3.78,3.78,0,0,1-2.345-1.2A3.547,3.547,0,0,1,302.583,131.63Z" transform="translate(-291.78 -103.76)" fill="#f28f8f"/>
              <path id="Path_1329" data-name="Path 1329" d="M334.58,165.362a13.843,13.843,0,0,1,1.757,8.12,9.5,9.5,0,0,0-.726-9.082Z" transform="translate(-308.998 -121.376)"/>
              <g id="freepik--top--inject-152-2" data-name="freepik--top--inject-152" transform="translate(35.816)">
                <path id="Path_1330" data-name="Path 1330" d="M402.22,72.35a8.495,8.495,0,0,1,7.371-.282c3.2,1.558,3.847,3.316,4.245,7.034.6,5.586,1.036,7.265,1.739,8.518a4.708,4.708,0,0,0,2.844,2.261,3.265,3.265,0,0,1-3.168.236c.647,2.673,1.508,4.906.925,7.773a11.219,11.219,0,0,1-2.775,5.549c-1.216,1.212-3.006,1.628-4.495,2.335a9.08,9.08,0,0,0,.643-6.742c-.865-2.687-2.775-4.939-3.653-7.649-1.244-3.75-2.65-7.625-3.094-11.561A71.2,71.2,0,0,1,402.22,72.35Z" transform="translate(-381.176 -71.361)" fill="#263238"/>
                <path id="Path_1331" data-name="Path 1331" d="M400.583,72.37c.338-.583,2.511-.925,4.227.2s3.131,3.084,1.951,4.721C405.651,78.844,398.3,74.65,400.583,72.37Z" transform="translate(-380.061 -71.613)" fill="#ff725e"/>
                <path id="Path_1332" data-name="Path 1332" d="M384.082,135.889c3.237,1.272,3.575,1.387,3.575,1.387.675,1.766,3.672,6.622,2.881,11.367s-3.237,14.8-2.705,16.772,3.265,7.482,4.24,13.41a41.092,41.092,0,0,1-3.7,1.942s-1.1-6.867-2.913-9.3a86.929,86.929,0,0,1,0,8.856,28.065,28.065,0,0,1-16.671.4c-9.475-2.724-10.173-7.561-10.173-7.561s1.646-6.118,1.646-9.249-.569-8.153-.569-8.153-4.069-4-2.7-8.453c1.3-4.227,8.43-11.3,9.938-12.754a21.677,21.677,0,0,0,4.185-.333Z" transform="translate(-356.711 -105.152)" fill="#37474f"/>
                <path id="Path_1333" data-name="Path 1333" d="M389.857,135.994c-.462,2.312-1.387,2.881-4.009,5.757s-10.825,10.715-11.561,14.118c-.495-2.918-1.161-6.825-.393-10.243s2.64-7.949,5.581-10.257l10.141-.43Z" transform="translate(-365.76 -105.539)" fill="#ff725e"/>
                <g id="freepik--Head--inject-152" transform="translate(3.589 0.492)">
                  <g id="freepik--head--inject-152-2" data-name="freepik--head--inject-152" transform="translate(2.199)">
                    <path id="Path_1334" data-name="Path 1334" d="M369.664,84.885c-2.451-9.036,5.878-13.656,14.164-12.194,2.728.462,6.252,2.039,6.627,5.928,3.607,1.133,5.341,5.956,3.112,11.1-1.614,3.741-4.842,5.6-6.3,7.9Z" transform="translate(-369.229 -72.424)" fill="#263238"/>
                    <path id="Path_1335" data-name="Path 1335" d="M390.964,94.112c-2.312-1.013-3.482,1.415-3.482,1.415-1.508.925-2.377-2.086-2.705-2.992-.578-1.591-1.124-3.857-2.886-4.513a4.775,4.775,0,0,0-3.986.712,3.02,3.02,0,0,1-2.4.319c-.717-.194-.925-1.318-1.6-1.665-1.882-1.013-3.343,2.086-3.6,3.57a30.416,30.416,0,0,0-.435,6.012c.139,6.733,2.4,9.471,3.538,10.086s2.553.782,4.8.6l-.032,1.988a18.715,18.715,0,0,0-1.614,6.936,27.1,27.1,0,0,0,11.052-6.835v-9.027c.425.879,2.423,1.3,3.658-.282C392.864,98.366,393.183,95.083,390.964,94.112Z" transform="translate(-369.571 -80.361)" fill="#ffa8a7"/>
                    <path id="Path_1336" data-name="Path 1336" d="M386.1,117.84l-3.144.971a1.614,1.614,0,0,0,2.025,1.142A1.725,1.725,0,0,0,386.1,117.84Z" transform="translate(-376.61 -96.838)" fill="#b16668"/>
                    <path id="Path_1337" data-name="Path 1337" d="M387.192,119.4a1.808,1.808,0,0,0-1.822,1.387,1.531,1.531,0,0,0,.925,0,1.7,1.7,0,0,0,1.156-1.36A1.484,1.484,0,0,0,387.192,119.4Z" transform="translate(-377.906 -97.676)" fill="#f28f8f"/>
                    <path id="Path_1338" data-name="Path 1338" d="M387.9,127.711c2.183-.333,6.164-1.387,6.826-3.191a3.446,3.446,0,0,1-1.586,2.742c-1.41,1.073-5.258,1.743-5.258,1.743Z" transform="translate(-379.255 -100.429)" fill="#f28f8f"/>
                  </g>
                  <path id="Path_1339" data-name="Path 1339" d="M372.61,95.167l2.243.671a1.124,1.124,0,0,0-.74-1.452,1.235,1.235,0,0,0-1.5.782Z" transform="translate(-368.847 -84.204)" fill="#263238"/>
                  <path id="Path_1340" data-name="Path 1340" d="M392.044,96.951,390,95.823a1.124,1.124,0,0,1,1.554-.495A1.23,1.23,0,0,1,392.044,96.951Z" transform="translate(-378.195 -84.661)" fill="#263238"/>
                  <path id="Path_1341" data-name="Path 1341" d="M373.48,103.8a.948.948,0,1,0,1.022-.925.966.966,0,0,0-1.022.925Z" transform="translate(-369.315 -88.794)" fill="#263238"/>
                  <path id="Path_1342" data-name="Path 1342" d="M389,104.923a.953.953,0,1,0,1.027-.925A.98.98,0,0,0,389,104.923Z" transform="translate(-377.657 -89.397)" fill="#263238"/>
                  <path id="Path_1343" data-name="Path 1343" d="M364.476,99.033a2.053,2.053,0,0,0,.462,1,.889.889,0,0,1,.18.356,18.609,18.609,0,0,0,.661,2.673,3.186,3.186,0,0,0,2.872,2.03,3.847,3.847,0,0,0,.966-.028h.074a2.631,2.631,0,0,0,.782-.268l.046-.028.069-.037.083-.055a.772.772,0,0,0,.074-.055.614.614,0,0,0,.088-.065l.079-.065c.051-.046.1-.1.148-.148a3.275,3.275,0,0,0,.62-.971c.393-.9.268-2.2.925-2.312h.171c.925.065.837,1.466,1.387,2.5a3.727,3.727,0,0,0,3.38,2.2h.462a3.8,3.8,0,0,0,.462-.042l.148-.028.143-.032h.092a2.367,2.367,0,0,0,.536-.227,1.388,1.388,0,0,0,.176-.111,2.392,2.392,0,0,0,.31-.254,2.96,2.96,0,0,0,.587-.925,15.588,15.588,0,0,0,.5-2.59.924.924,0,0,1,.148-.37,1.665,1.665,0,0,0,.43-.925.892.892,0,0,0-.564-.86l-.49-.088a15.245,15.245,0,0,0-4.846-.208c-1.531.338-2.053.8-2.913.745s-1.327-.6-2.775-1.156a12.508,12.508,0,0,0-4.541-.462l-.462.023C364.717,98.246,364.439,98.612,364.476,99.033ZM374.6,100.54a1.249,1.249,0,0,1,.435-.333l.079-.037h.042l.213-.088.2-.074a5.234,5.234,0,0,1,.657-.166l.259-.051c.222-.032.462-.055.671-.069h.162a4.087,4.087,0,0,1,2.747.68c.342.324.217,1.688.083,2.372a.165.165,0,0,1,0,.051.234.234,0,0,1,0,.055,2.768,2.768,0,0,1-.06.277l-.042.171c-.028.092-.056.19-.093.287h0l-.042.1a.957.957,0,0,1-.055.12.653.653,0,0,1-.037.083l-.051.088a.983.983,0,0,1-.055.092l-.065.1a2.15,2.15,0,0,1-2.053.86,3.066,3.066,0,0,1-2.2-.925h0a3.353,3.353,0,0,1-.74-1.443A3.113,3.113,0,0,1,374.6,100.54Zm-8.712-1.193a1.1,1.1,0,0,1,.356-.208h.028a1.337,1.337,0,0,1,.162-.051l.1-.028h.236a2.511,2.511,0,0,1,.338-.037h.791a5.849,5.849,0,0,1,.684.1,4.547,4.547,0,0,1,2.46,1.2,4.351,4.351,0,0,1-.009,2.622.149.149,0,0,1,0,.037.358.358,0,0,0,0,.051v.037a.088.088,0,0,1-.023.06l-.056.125-.055.106v.037l-.042.069-.042.065h0a2.165,2.165,0,0,1-2.183.883,2.728,2.728,0,0,1-1.11-.328,3.4,3.4,0,0,1-1.475-2.312C365.8,101.016,365.577,99.629,365.887,99.347Z" transform="translate(-364.473 -86.281)" fill="#37474f"/>
                  <path id="Path_1344" data-name="Path 1344" d="M400.318,101.05l4.49.768a3.865,3.865,0,0,0-.874.99l-3.635-.62Z" transform="translate(-383.732 -87.813)" fill="#37474f"/>
                  <path id="Path_1345" data-name="Path 1345" d="M378.82,104.5l-.583,5.48L375,108.852l3.505-4.472A.712.712,0,0,1,378.82,104.5Z" transform="translate(-370.132 -89.603)" fill="#f28f8f"/>
                  <path id="Path_1346" data-name="Path 1346" d="M410.22,113.005a.851.851,0,1,0,.248-.6A.855.855,0,0,0,410.22,113.005Z" transform="translate(-389.065 -93.78)" fill="#fafafa"/>
                </g>
                <path id="Path_1347" data-name="Path 1347" d="M389.305,132.7v1.036a85.668,85.668,0,0,1-6.012,7.473c-3.977,4.389-7.376,7.727-8.6,10.77A32.313,32.313,0,0,0,373,158.8a17.068,17.068,0,0,1,5.905-8.731c2.881-2.312,7.538-4.079,8.416-5.549.828-1.387-.837-3.311-.837-3.311a19.483,19.483,0,0,0,4.569-2.16c1.734-1.258,1.776-3.977,1.776-3.977Z" transform="translate(-365.468 -104.335)" fill="#263238"/>
                <path id="Path_1348" data-name="Path 1348" d="M378.644,134.344a18.631,18.631,0,0,0-4.888,9.04,126.78,126.78,0,0,0-1.059,12.8s-1.036-6.012-1.6-8.546-.856-4.513,1.924-7.135c-.684-1.188-.8-1.632.647-3.366a12.947,12.947,0,0,1,2.705-2.516l2.271-1.457Z" transform="translate(-364.244 -104.582)" fill="#263238"/>
              </g>
              <path id="Path_1349" data-name="Path 1349" d="M354.768,172.56c-1.549-.157-3.043-1.586-5.036-2.345s-3.7-.782-5.087-1.336c-.564.319-.273,1.512.4,2.025,1.045.8,2.636,1.3,2.257,1.725-.56.629-2.71.194-3.362.06-2.012-.416-4.162-1.623-6.243-1.179a.925.925,0,0,0-.573.314.717.717,0,0,0,.162.855,4.065,4.065,0,0,0,.772.527,1.068,1.068,0,0,1,.532.735c.023.287-.148.564-.111.846a1.04,1.04,0,0,0,.24.49,3.424,3.424,0,0,0,.749.689,5.339,5.339,0,0,1,.689.462,7.124,7.124,0,0,1,1.216,1.2c1.1,1.79,3.459,2.312,5.373,2.659,4.092.712,5.97-.148,8.384-.1s12.689-.268,17.965-.647c5.526-.393,6.2-1.42,7.755-6.7a151.258,151.258,0,0,0,4.139-18.826c.874-6.627-2.155-10.215-7-12.111-1.147,1.013-3.672,5.785-4.781,14.567l-2.363,13.235S356.321,172.722,354.768,172.56Z" transform="translate(-310.323 -109.286)" fill="#ffa8a7"/>
              <path id="Path_1350" data-name="Path 1350" d="M380.827,206.77l-2.557.555a21.467,21.467,0,0,1,.462,3.982,13.871,13.871,0,0,1-.37,3.76l3.117.092S383.232,210.3,380.827,206.77Z" transform="translate(-332.484 -144.153)" fill="#ff725e"/>
              <path id="Path_1351" data-name="Path 1351" d="M401.106,140.81c2.978,1.05,5.165,2.183,6.682,4.573s1.813,5.35,1.17,10.312a194.867,194.867,0,0,1-4.546,19.709c-.846,2.747-1.387,3.366-4.3,3.875s-17.938.647-17.938.647a11.974,11.974,0,0,0,.342-4.486,13.457,13.457,0,0,0-.786-4.116l12.948-2.358s2.058-12.375,2.775-16.259A41.587,41.587,0,0,1,401.106,140.81Z" transform="translate(-334.344 -108.695)" fill="#263238"/>
              <path id="Path_1352" data-name="Path 1352" d="M409.78,200.525c1.79-.194,4.8,1.008,5.679,2.664-.37-1.743-2.22-3.658-5.494-3.649Z" transform="translate(-349.423 -140.266)"/>
            </g>
          </g>
        </g>
        <g id="freepik--character-1--inject-152" transform="translate(40.907 43.165)">
          <g id="freepik--character--inject-152-2" data-name="freepik--character--inject-152" transform="translate(0 0)">
            <g id="freepik--bottom--inject-152-2" data-name="freepik--bottom--inject-152" transform="translate(11.895 69.784)">
              <path id="Path_1369" data-name="Path 1369" d="M141.73,345.532l3.413.671.25-2.432-2.682.532Z" transform="translate(-107.002 -284.88)"/>
              <path id="Path_1370" data-name="Path 1370" d="M140.279,333s-1.221,1.734-1.6,2.284.953,3.81,1.387,4.472l.98-1.23a11.943,11.943,0,0,1,.06,3.006,12.319,12.319,0,0,0,.254,4.832c.925,2.719,3.422,5.336,6.377,7.311s5.147,2.312,6.409,2.178a2.362,2.362,0,0,0,2.271-1.628C156.681,353.324,140.279,333,140.279,333Z" transform="translate(-105.329 -279.09)" fill="#263238"/>
              <path id="Path_1371" data-name="Path 1371" d="M154.094,324.462l.684-1.027c.564.328-.3,1.887-.31,3.7a32.2,32.2,0,0,0,.9,8.069c1.341,4.684,2.992,8.125,3.584,10.229.8,2.812-4.074,3.5-8.837.18-2.363-1.651-5.956-5.549-6.284-7.764s.31-4.92,0-6.58-1.776-4.009-1.6-5.66c.1-.925,1.286-2.437,2.34-3.7.976-1.165,2.22-3.1,2.839-2.492l-.351.684c-.051.74.06,2.086,1.85,3.635C149.757,324.522,152.642,326.422,154.094,324.462Z" transform="translate(-107.264 -271.726)" fill="#37474f"/>
              <path id="Path_1372" data-name="Path 1372" d="M159.989,331.14a3.165,3.165,0,0,0,3.117.208h.032a2.821,2.821,0,0,0-.6,2.4c.245,1.577,1.327,12.3,1.327,12.3s-1.484-9.207-1.78-10.95c-.439-2.58-.786-3.066-2.1-3.94Z" transform="translate(-116.812 -278.09)" opacity="0.15"/>
              <path id="Path_1373" data-name="Path 1373" d="M159.333,336.346a.356.356,0,1,1-.07-.487.356.356,0,0,1,.07.487Z" transform="translate(-116.128 -280.586)" opacity="0.15"/>
              <path id="Path_1374" data-name="Path 1374" d="M160.326,341.7a.355.355,0,1,1-.037-.5.361.361,0,0,1,.037.5Z" transform="translate(-116.659 -283.455)" opacity="0.15"/>
              <path id="Path_1375" data-name="Path 1375" d="M161.326,347.128a.356.356,0,0,1-.5.065.363.363,0,0,1,.462-.56A.351.351,0,0,1,161.326,347.128Z" transform="translate(-117.197 -286.374)" opacity="0.15"/>
              <path id="Path_1376" data-name="Path 1376" d="M162.32,352.561a.356.356,0,1,1-.06-.5A.356.356,0,0,1,162.32,352.561Z" transform="translate(-117.728 -289.296)" opacity="0.15"/>
              <path id="Path_1377" data-name="Path 1377" d="M163.318,357.984a.356.356,0,1,1-.06-.495.352.352,0,0,1,.06.495Z" transform="translate(-118.263 -292.213)" opacity="0.15"/>
              <path id="Path_1378" data-name="Path 1378" d="M159.2,336.3a.134.134,0,0,1-.055-.083.143.143,0,0,1,.106-.171,5.817,5.817,0,0,1,4.245.758h0a.142.142,0,0,1-.166.231,5.638,5.638,0,0,0-4.019-.712.143.143,0,0,1-.111-.023Z" transform="translate(-116.362 -280.664)" fill="#263238"/>
              <path id="Path_1379" data-name="Path 1379" d="M160.211,341.718a.162.162,0,0,1-.055-.088.139.139,0,0,1,.106-.166,5.829,5.829,0,0,1,4.245.754h0a.148.148,0,0,1,.032.2.143.143,0,0,1-.2.032,5.65,5.65,0,0,0-4.018-.708A.143.143,0,0,1,160.211,341.718Z" transform="translate(-116.905 -283.577)" fill="#263238"/>
              <path id="Path_1380" data-name="Path 1380" d="M161.2,347.159a.142.142,0,0,1,.056-.254,5.963,5.963,0,0,1,4.245.754h0a.134.134,0,0,1,.032.194.143.143,0,0,1-.2.037,5.663,5.663,0,0,0-4.019-.712.143.143,0,0,1-.116-.018Z" transform="translate(-117.438 -286.507)" fill="#263238"/>
              <path id="Path_1381" data-name="Path 1381" d="M162.2,352.58a.157.157,0,0,1-.055-.083.148.148,0,0,1,.111-.171,5.948,5.948,0,0,1,4.245.758h0a.143.143,0,1,1-.166.231,5.649,5.649,0,0,0-4.019-.708.148.148,0,0,1-.116-.028Z" transform="translate(-117.976 -289.421)" fill="#263238"/>
              <path id="Path_1382" data-name="Path 1382" d="M163.21,358a.129.129,0,0,1-.055-.083.139.139,0,0,1,.106-.171,5.83,5.83,0,0,1,4.245.754h0a.143.143,0,0,1,.032.2.148.148,0,0,1-.2.037,5.626,5.626,0,0,0-4.014-.712A.139.139,0,0,1,163.21,358Z" transform="translate(-118.517 -292.329)" fill="#263238"/>
              <path id="Path_1383" data-name="Path 1383" d="M177.46,395.354l3.283-1.5-1.258-2.206-1.942,2.072Z" transform="translate(-126.209 -310.618)"/>
              <path id="Path_1384" data-name="Path 1384" d="M169,387s0,2.2.028,2.895,3.112,2.64,3.866,2.946l.083-1.632a12.551,12.551,0,0,1,1.85,2.5c.633.925,1.48,2.775,3.126,3.926,2.442,1.729,6.113,2.442,9.8,2.312s5.734-1.165,6.724-2.035a2.409,2.409,0,0,0,.925-2.738C195.067,394.26,169,387,169,387Z" transform="translate(-121.661 -308.119)" fill="#263238"/>
              <path id="Path_1385" data-name="Path 1385" d="M177.957,367.914l-.042-1.276c.675-.069.883,1.771,1.984,3.32a32.829,32.829,0,0,0,5.628,6.266c3.958,3.149,7.436,5.059,9.2,6.474,2.368,1.9-1.323,5.42-7.353,5.489-2.992.037-8.388-1.1-10-2.775s-2.705-4.347-3.986-5.549-3.921-2.312-4.768-3.815c-.462-.828-.388-2.835-.259-4.541.116-1.568,0-3.954.892-3.82l.116.8c.4.652,1.309,1.72,3.741,1.961C174.327,370.582,177.915,370.448,177.957,367.914Z" transform="translate(-121.268 -297.172)" fill="#37474f"/>
              <path id="Path_1386" data-name="Path 1386" d="M182.914,372.739a3.33,3.33,0,0,0,2.775-1.706V371a2.913,2.913,0,0,0,.925,2.391c1.161,1.184,8.546,9.582,8.546,9.582s-6.793-6.886-8.1-8.171c-1.928-1.914-2.511-2.113-4.162-2.058Z" transform="translate(-129.134 -299.518)" fill="#263238"/>
              <path id="Path_1387" data-name="Path 1387" d="M185.66,379.173a.365.365,0,0,1-.384.352.375.375,0,0,1-.356-.384.365.365,0,0,1,.384-.351A.375.375,0,0,1,185.66,379.173Z" transform="translate(-130.219 -303.705)" opacity="0.15"/>
              <path id="Path_1388" data-name="Path 1388" d="M189.785,383.153a.37.37,0,0,1-.735-.032.361.361,0,0,1,.379-.351.375.375,0,0,1,.356.384Z" transform="translate(-132.44 -305.844)" opacity="0.15"/>
              <path id="Path_1389" data-name="Path 1389" d="M193.9,387.124a.368.368,0,0,1-.735-.028.37.37,0,0,1,.379-.356A.375.375,0,0,1,193.9,387.124Z" transform="translate(-134.654 -307.979)" opacity="0.15"/>
              <path id="Path_1390" data-name="Path 1390" d="M198.02,391.1a.37.37,0,1,1-.351-.384.365.365,0,0,1,.351.384Z" transform="translate(-136.864 -310.118)" opacity="0.15"/>
              <path id="Path_1391" data-name="Path 1391" d="M202.14,395.074a.375.375,0,0,1-.384.356.37.37,0,1,1,.384-.356Z" transform="translate(-139.079 -312.253)" opacity="0.15"/>
              <path id="Path_1392" data-name="Path 1392" d="M185.544,377.383a.148.148,0,0,1-.111-.25,6.077,6.077,0,0,1,4.042-1.924h0a.148.148,0,1,1,0,.3,5.738,5.738,0,0,0-3.82,1.827A.162.162,0,0,1,185.544,377.383Z" transform="translate(-130.473 -301.781)" fill="#263238"/>
              <path id="Path_1393" data-name="Path 1393" d="M189.677,381.343a.141.141,0,0,1-.1-.245,6.051,6.051,0,0,1,4.042-1.928h0a.148.148,0,1,1,0,.3,5.863,5.863,0,0,0-3.82,1.827A.148.148,0,0,1,189.677,381.343Z" transform="translate(-132.702 -303.91)" fill="#263238"/>
              <path id="Path_1394" data-name="Path 1394" d="M193.837,385.333a.141.141,0,0,1-.1-.245,6.051,6.051,0,0,1,4.042-1.928h0a.148.148,0,0,1,0,.3,5.863,5.863,0,0,0-3.82,1.827A.148.148,0,0,1,193.837,385.333Z" transform="translate(-134.938 -306.055)" fill="#263238"/>
              <path id="Path_1395" data-name="Path 1395" d="M197.917,389.313a.152.152,0,0,1-.1-.042.148.148,0,0,1,0-.208,6.054,6.054,0,0,1,4.042-1.924h0a.148.148,0,1,1,0,.3,5.732,5.732,0,0,0-3.82,1.85A.148.148,0,0,1,197.917,389.313Z" transform="translate(-137.131 -308.194)" fill="#263238"/>
              <path id="Path_1396" data-name="Path 1396" d="M202.037,393.283a.141.141,0,0,1-.1-.245,6.051,6.051,0,0,1,4.042-1.928h0a.153.153,0,0,1,.143.148.148.148,0,0,1-.148.148,5.878,5.878,0,0,0-3.82,1.827A.148.148,0,0,1,202.037,393.283Z" transform="translate(-139.346 -310.328)" fill="#263238"/>
              <path id="Path_1397" data-name="Path 1397" d="M120.05,268.018c1.119-3.843,2.816-9.711,3.9-13.646,1.725-6.271,2.909-12.791,2.312-15.838-.772-4.111-4.786-8.324-10.594-12.25-6.321-4.277-14.645-9.864-14.645-9.864l-34.28.462c.1,5.526-.777,9.85,1.2,15.1,1.743,4.624,4.661,7.283,13.6,12.569,6.349,3.746,13.78,7.972,15.385,9.027,2.035,1.332,3.954,2.4,4.573,5.873a58.179,58.179,0,0,0,4.523,16.185c3.755,8.176,7.108,15.45,7.108,15.45s7.311,1.637,11.935-3.746C125.067,287.343,122.672,277.974,120.05,268.018Z" transform="translate(-66.63 -216.42)" fill="#455a64"/>
              <path id="Path_1398" data-name="Path 1398" d="M153.28,273.814c-2.469-9.336-4.976-18.576-5.743-20.578-1.642-4.25-18.358-17.041-18.876-17.452,0,0,3.362-1.817,5.346-6.913a11.937,11.937,0,0,1-2.608,7.057c2.529,2.09,8.25,6.525,10.816,8.786,3.237,2.825,6.617,6.183,7.695,10.562C150.709,258.526,152.438,268.731,153.28,273.814Z" transform="translate(-99.976 -223.113)" fill="#37474f"/>
            </g>
            <g id="freepik--top--inject-152-3" data-name="freepik--top--inject-152">
              <path id="Path_1399" data-name="Path 1399" d="M174.89,141.485c4.777-4.116,6.15-5.258,6.617-6.668a23.056,23.056,0,0,0,.652-4.9c.227-2.252.527-4.361.671-5.549.148-1.253.925-1.637,1.85-.462.786,1.031.555,2.682.657,3.815.116,1.341.832,1.212,1.586.305s4.3-5.434,5.582-6.747,2.271-1.119,2.687-.527c.24.338-.421,1.128-1.97,3.2s-2.4,3.066-2.247,3.177,1.036-.953,2.881-2.821c1.7-1.725,2.187-2.238,3.089-2.668,1.068-.509,1.651.569,1.11,1.267s-.925,1.216-3.3,3.838c-1.651,1.822-1.757,2.076-1.623,2.21s.925-.541,2.71-2.086c1.919-1.642,2.9-2.169,3.575-1.669a.68.68,0,0,1,.116.782,8.378,8.378,0,0,1-1.919,2.049c-1.2,1.027-1.586,1.42-2.192,1.947s-.689.754-.546.9,1.249-.513,3.5-2.261c.8-.62,1.85.462.361,1.827-.8.735-4.213,4.208-6.136,5.975-2.155,1.984-3.764,2.594-5.489,4.356-1.526,1.609-7.538,8.06-7.538,8.06Z" transform="translate(-112.932 -94.961)" fill="#b16668"/>
              <path id="Path_1400" data-name="Path 1400" d="M199.082,141.7a7.77,7.77,0,0,1-.462,7.237C200.738,147.809,201.348,143.92,199.082,141.7Z" transform="translate(-125.689 -106.469)" fill="#9a4a4d"/>
              <path id="Path_1401" data-name="Path 1401" d="M123.282,149.249,121.15,130.41c4.624.647,6.59,1.817,9.947,6.474,1.85,2.59,6.09,8.231,10.035,13.35l9.452-8.129s4.68,3.4,5.873,7.209c0,0-11.006,11.561-13.48,13.637-2.257,1.887-3.977,3.038-7.718-.495A170.6,170.6,0,0,1,123.282,149.249Z" transform="translate(-84.043 -100.4)" fill="#f0f0f0"/>
              <path id="Path_1402" data-name="Path 1402" d="M184.658,167.147a23.124,23.124,0,0,0-1.8-1.947,7.3,7.3,0,0,0-2.312-1.628c-.194-.074-.3.134-.139.259a21.47,21.47,0,0,1,3.778,3.607,15.33,15.33,0,0,1,1.36,1.938c.069.12.134.24.2.365l.388-.4A13.257,13.257,0,0,0,184.658,167.147Z" transform="translate(-115.856 -118.218)" fill="#e0e0e0"/>
              <path id="Path_1403" data-name="Path 1403" d="M159.688,172.121c-2,1.655-3.866,4.624-4,6.849a9.054,9.054,0,0,1,3.26-7.82Z" transform="translate(-102.6 -122.301)" fill="#e0e0e0"/>
              <g id="freepik--Chest--inject-152" transform="translate(7.918 29.205)">
                <path id="Path_1404" data-name="Path 1404" d="M59.751,134.765s-2.964,4.888-1.11,12.86c1.452,6.257,2.691,8.629,2.955,15.163.342,8.481.217,16.1.217,16.1,11.394,3.82,31.265-2.724,34.562-9.637,0,0-1.184-5.642-3.325-28.888a15.847,15.847,0,0,0-5.831-10.886l-5.864-.7-8.208-.1-4.684,1.8Z" transform="translate(-58.031 -128.67)" fill="#fafafa"/>
              </g>
              <g id="freepik--head--inject-152-3" data-name="freepik--head--inject-152" transform="translate(15.046)">
                <path id="Path_1405" data-name="Path 1405" d="M98.07,69.97c-1.753-2.95-4.689-4.694-9.776-4.43-6.169.319-9.373,3.325-9.813,5.845h0a4.379,4.379,0,0,0-2.312,2.206c-.587,1.114-1,3.158.578,8.994a23.584,23.584,0,0,0,2.775,6.442A2.867,2.867,0,0,0,81.2,90.367l-.111-4.486-.162-1.79s2.234-.176,2.284-6.331c0-.832.088-1.512.055-2.072l15.422,1.031S99.827,72.92,98.07,69.97Z" transform="translate(-74.627 -65.513)" fill="#263238"/>
                <path id="Path_1406" data-name="Path 1406" d="M75.833,93.3c1.757.925,3.385-.7,3.385-.7l.338,9.249s.18,1.785,3.02,3.353c4.032,2.229,6.58,2.534,8.324,4.911,1.3-3.986,1.956-5.988-.62-9.013V98.6a14.271,14.271,0,0,0,3.773-.375c2.451-.708,3.366-2.007,3.829-4.388.652-3.357.43-7.695-.8-13.309a4.712,4.712,0,0,0-1.7-2.775c-2.719-2.053-6.761-.079-10.206,1.258a9.411,9.411,0,0,1-5.156.236c1.2,1.327,1.475,4.624.786,7.949-.24,1.147-.638,1.387-.888,1.387-1-.028-1.387-1.258-2-1.919a2.588,2.588,0,0,0-4.032.925A4.259,4.259,0,0,0,75.833,93.3Z" transform="translate(-73.444 -71.619)" fill="#b16668"/>
                <path id="Path_1407" data-name="Path 1407" d="M98.307,117.661c-3.353-.19-5.73-.772-7.02-1.766a11.866,11.866,0,0,1-2.867-3.575s.5,3.168,2.349,4.624,4.032,2.275,7.542,2.275Z" transform="translate(-81.495 -90.675)" fill="#9a4a4d"/>
                <path id="Path_1408" data-name="Path 1408" d="M102.507,89.514l-2.455.328a1.3,1.3,0,0,1,1.1-1.424,1.207,1.207,0,0,1,1.36,1.1Z" transform="translate(-87.744 -77.821)" fill="#263238"/>
                <path id="Path_1409" data-name="Path 1409" d="M101.669,95.65a1.008,1.008,0,1,0,.971-1.04A1.008,1.008,0,0,0,101.669,95.65Z" transform="translate(-88.617 -81.154)" fill="#263238"/>
                <path id="Path_1410" data-name="Path 1410" d="M118,87.838l2.312.869a1.3,1.3,0,0,0-.749-1.632,1.207,1.207,0,0,0-1.563.763Z" transform="translate(-97.396 -77.065)" fill="#263238"/>
                <path id="Path_1411" data-name="Path 1411" d="M119.987,94.245a1.008,1.008,0,1,1-.976-1.045A1.008,1.008,0,0,1,119.987,94.245Z" transform="translate(-97.381 -80.396)" fill="#263238"/>
                <path id="Path_1412" data-name="Path 1412" d="M110.39,91.42l.823,6.423,3.394-1.249A14.992,14.992,0,0,0,110.39,91.42Z" transform="translate(-93.305 -79.44)" fill="#9a4a4d"/>
                <path id="Path_1413" data-name="Path 1413" d="M106.693,109l3.417.62a1.706,1.706,0,0,1-1.979,1.457A1.822,1.822,0,0,1,106.693,109Z" transform="translate(-91.305 -88.891)" fill="#9a4a4d"/>
                <path id="Path_1414" data-name="Path 1414" d="M107.161,110.186a1.8,1.8,0,0,0-.421,0,1.794,1.794,0,0,0,1.429,1.517,1.6,1.6,0,0,0,.555,0A1.586,1.586,0,0,0,107.161,110.186Z" transform="translate(-91.343 -89.521)" fill="#f28f8f"/>
              </g>
              <g id="freepik--Tie--inject-152" transform="translate(18.355 27.234)">
                <path id="Path_1415" data-name="Path 1415" d="M113.15,140.361s1.318-2.987,1.244-4.12l-1.965-1.771-.259,4.754Z" transform="translate(-97.571 -129.817)" fill="#ff725e"/>
                <path id="Path_1416" data-name="Path 1416" d="M113.15,140.361s1.318-2.987,1.244-4.12l-1.965-1.771-.259,4.754Z" transform="translate(-97.571 -129.817)" opacity="0.2"/>
                <path id="Path_1417" data-name="Path 1417" d="M102,143.154l-3.269-1.914-2.5,1.928,4.976,2.132Z" transform="translate(-89.002 -133.456)" fill="#ff725e"/>
                <path id="Path_1418" data-name="Path 1418" d="M102,143.154l-3.269-1.914-2.5,1.928,4.976,2.132Z" transform="translate(-89.002 -133.456)" opacity="0.2"/>
                <path id="Path_1419" data-name="Path 1419" d="M110.038,173.132c-.43-10.1-.046-17.808-.4-20.25l1.706-.282c1.387,2.862,5.785,11.353,6.164,18.326.25,2.423-.925,8.023-2.548,8.194S110.1,174.63,110.038,173.132Z" transform="translate(-96.211 -139.563)" fill="#ff725e"/>
                <path id="Path_1420" data-name="Path 1420" d="M110.038,173.132c-.43-10.1-.046-17.808-.4-20.25l1.706-.282c1.387,2.862,5.785,11.353,6.164,18.326.25,2.423-.925,8.023-2.548,8.194S110.1,174.63,110.038,173.132Z" transform="translate(-96.211 -139.563)" fill="#fff" opacity="0.1"/>
                <path id="Path_1421" data-name="Path 1421" d="M111.522,152.991c-.074-.148-.125-.25-.176-.361h0l-1.706.282h0c.032.208.051.412.079.74A2.992,2.992,0,0,0,111.522,152.991Z" transform="translate(-96.211 -139.579)" opacity="0.2"/>
                <path id="Path_1422" data-name="Path 1422" d="M107.568,144.67a7.241,7.241,0,0,1,1.614-.18,3.962,3.962,0,0,1,1.027,1.258,5.938,5.938,0,0,1-.462,2.506,2.058,2.058,0,0,1-1.706.282,3.575,3.575,0,0,1-1.341-1.563,3.237,3.237,0,0,1,.869-2.3Z" transform="translate(-94.629 -135.203)" fill="#ff725e"/>
                <path id="Path_1423" data-name="Path 1423" d="M107.568,144.67a7.241,7.241,0,0,1,1.614-.18,3.962,3.962,0,0,1,1.027,1.258,5.938,5.938,0,0,1-.462,2.506,2.058,2.058,0,0,1-1.706.282,3.575,3.575,0,0,1-1.341-1.563,3.237,3.237,0,0,1,.869-2.3Z" transform="translate(-94.629 -135.203)" fill="#fff" opacity="0.1"/>
                <path id="Path_1424" data-name="Path 1424" d="M93.571,133.865c-.055,0-.12.139-.176.148-1.23-.569-1.434-.777-1.748-.666-.587.208-1.85,2.775-2.15,3.625s-.24.814-1.387.148a19.681,19.681,0,0,1-5.286-4.513,13.577,13.577,0,0,1-2.224-4.425,15.358,15.358,0,0,0,1.29-1.919c.638-1.323.671-1.924,1.387-1.85l.032.892c.194,1.11,1.975,2.1,3.616,3.357s4.25,2.386,4.879,2.927A11.7,11.7,0,0,1,93.571,133.865Z" transform="translate(-80.6 -124.407)" fill="#e6e6e6"/>
                <path id="Path_1425" data-name="Path 1425" d="M115,135.392c-.148.462-1.813-3.01-2.52-2.89-.338.046-1.05,1.059-1.628,2.118h-.462a10.907,10.907,0,0,0,.569-2.775,16.676,16.676,0,0,0-1.124-4.3v-1.387c.19,0,.615,0,.855-.028.19.171.564.925.925,1.36.837,1.04,2.775,2.557,3.066,3.9A11.875,11.875,0,0,1,115,135.392Z" transform="translate(-96.313 -125.333)" fill="#e6e6e6"/>
              </g>
              <path id="Path_1426" data-name="Path 1426" d="M52.6,139.67c-4.4,1.517-7.912,3.45-8.971,7.727s-2.007,14.548-2.571,20.735c-.462,5.3.157,10,1.743,12.023l10.173-6.238,2.719-16.893S57.135,144.294,52.6,139.67Z" transform="translate(-40.907 -105.378)" fill="#f0f0f0"/>
              <path id="Path_1427" data-name="Path 1427" d="M55.937,195.342c-.726,1.42-1.706,2.081-3.852,3.514-2,1.336-4.351,2.668-5.295,5.2.046-2.22,1.068-3.468,3.524-5.383s6.113-4.3,6.113-4.3Z" transform="translate(-44.07 -134.788)" fill="#e0e0e0"/>
              <path id="Path_1428" data-name="Path 1428" d="M54.5,196.46c-.726,1.42-1.706,2.081-3.852,3.514-2,1.336-4.351,2.668-5.295,5.2-.832,2.234-1.808,4.139-.828,5.521.675.953,3.787,1.142,6.613.523s4.4-2.659,6.964-5.138c2.2-2.123,3.034-2.992,3.034-2.992Z" transform="translate(-42.63 -135.906)" fill="#f0f0f0"/>
              <path id="Path_1429" data-name="Path 1429" d="M60.971,195.359c-1.207-.791-1.6-1.771-3.237-2.312s-2.585-.31-4.328-.791-3.112-.624-4.222,0-.782,1.276.231,1.656,2.7.8,3.931,1.355,2.363.782,2.645,2.136a62.128,62.128,0,0,1,.832,6.534c.176,2.312.111,4.254.328,4.462s1.216.12,1.554-1.272a40.612,40.612,0,0,0,.153-6.16s1.1,3.108,1.739,5.272,1.059,3.838,1.221,4.3,1.646-.231,1.549-1.942a53.657,53.657,0,0,0-1.443-6.576l2.9,3.237c1.138,1.267,2.58,3.047,3.024,3.464s1.249-.652.74-1.924a26.919,26.919,0,0,0-2.881-4.162s2.492,1.716,2.895,1.85,1.457-.259.782-1.642c-.462-.925-1.207-1.415-3.237-2.955a12.3,12.3,0,0,1-2.872-3.08C62.367,195.817,61.849,195.937,60.971,195.359Z" transform="translate(-44.983 -133.423)" fill="#b16668"/>
              <path id="Path_1430" data-name="Path 1430" d="M67,201.623a3.245,3.245,0,0,0,3.376-1.133C70.5,201.651,68.387,202.765,67,201.623Z" transform="translate(-54.934 -138.073)" fill="#9a4a4d"/>
              <path id="Path_1431" data-name="Path 1431" d="M87.3,213.445a.763.763,0,0,1-1.045.139c-.462-.259-1.739-1.188-2.312-1.618S81.4,210,81.4,210l2,2.409s2.492,1.716,2.895,1.85a.814.814,0,0,0,1-.814Z" transform="translate(-62.675 -143.185)" fill="#9a4a4d"/>
            </g>
          </g>
        </g>
        <g id="freepik--speech-bubbles--inject-152" transform="translate(87.18 23.941)">
          <g id="freepik--speech-bubble--inject-152" transform="translate(88.811 4.573)">
            <path id="freepik--speech-bubble--inject-152-2" data-name="freepik--speech-bubble--inject-152" d="M295.647,58.65l-.2-7.4s12.851-2.007,10.238-14.96c-1.489-7.4-9.452-13.235-28.98-12.241-22.2,1.128-20.634,15.672-17.7,20.3,4.731,7.477,16.7,8.86,30.844,7.861Z" transform="translate(-257.339 -23.941)" fill="#62c9d5"/>
            <path id="Path_1484" data-name="Path 1484" d="M306.882,43.171H284.505a.425.425,0,1,1,0-.851h22.372a.425.425,0,0,1,0,.851Z" transform="translate(-271.714 -33.821)" fill="#fff"/>
            <path id="Path_1485" data-name="Path 1485" d="M306.412,54.635h-27.7a.462.462,0,1,1,0-.925h27.7a.462.462,0,0,1,0,.925Z" transform="translate(-268.58 -39.944)" fill="#fff"/>
            <path id="Path_1486" data-name="Path 1486" d="M306.882,66.161H284.505a.425.425,0,1,1,0-.851h22.372a.425.425,0,0,1,0,.851Z" transform="translate(-271.714 -46.18)" fill="#fff"/>
          </g>
          <g id="freepik--speech-bubble--inject-152-3" data-name="freepik--speech-bubble--inject-152" transform="translate(0 7.015)">
            <path id="freepik--speech-bubble--inject-152-4" data-name="freepik--speech-bubble--inject-152" d="M147.972,71.379l6.64-6.238a62.977,62.977,0,0,0,14.9.652c13.3-.786,20.809-6.576,18.821-14.465C186,42.019,177.189,38.565,161.332,39.18c-8.92.351-15.209,3.2-18.173,7.154-3.625,4.837-3.316,12.37,5.341,16.888Z" transform="translate(-140.972 -39.111)" fill="#455a64"/>
            <path id="Path_1487" data-name="Path 1487" d="M190.71,55.841H169.725a.425.425,0,1,1,0-.851H190.71a.425.425,0,1,1,0,.851Z" transform="translate(-156.201 -47.647)" fill="#fff"/>
            <path id="Path_1488" data-name="Path 1488" d="M190.235,67.315H163.922a.462.462,0,1,1,0-.925h26.312a.462.462,0,0,1,0,.925Z" transform="translate(-153.061 -53.775)" fill="#fff"/>
            <path id="Path_1489" data-name="Path 1489" d="M190.71,78.831H169.725a.425.425,0,1,1,0-.851H190.71a.425.425,0,1,1,0,.851Z" transform="translate(-156.201 -60.006)" fill="#fff"/>
          </g>
        </g>
      </g>
      <g id="freepik--speech-bubble--inject-152-5" data-name="freepik--speech-bubble--inject-152" transform="translate(13920.896 2883.232)">
        <path id="freepik--speech-bubble--inject-152-6" data-name="freepik--speech-bubble--inject-152" d="M181.655,71.379l-6.641-6.238a62.978,62.978,0,0,1-14.9.652c-13.3-.786-20.809-6.576-18.821-14.465,2.34-9.309,11.149-12.763,27.006-12.148,8.92.351,15.209,3.2,18.174,7.154,3.625,4.837,3.316,12.37-5.341,16.888Z" transform="translate(-140.972 -39.111)" fill="#455a64"/>
        <path id="Path_1487-2" data-name="Path 1487" d="M169.725,55.841h20.985a.425.425,0,1,0,0-.851H169.725a.425.425,0,1,0,0,.851Z" transform="translate(-156.553 -47.647)" fill="#fff"/>
        <path id="Path_1488-2" data-name="Path 1488" d="M163.922,67.315h26.312a.462.462,0,1,0,0-.925H163.922a.462.462,0,0,0,0,.925Z" transform="translate(-153.414 -53.775)" fill="#fff"/>
        <path id="Path_1489-2" data-name="Path 1489" d="M169.725,78.831h20.985a.425.425,0,1,0,0-.851H169.725a.425.425,0,1,0,0,.851Z" transform="translate(-156.553 -60.006)" fill="#fff"/>
      </g>
    </g>
    <path id="Icon_awesome-star" data-name="Icon awesome-star" d="M7.982.487,6.193,4.113l-4,.583a.877.877,0,0,0-.485,1.5L4.6,9.013,3.917,13a.876.876,0,0,0,1.271.923l3.58-1.882,3.58,1.882A.877.877,0,0,0,13.618,13l-.685-3.985,2.895-2.821a.877.877,0,0,0-.485-1.5l-4-.583L9.554.487a.877.877,0,0,0-1.572,0Z" transform="translate(114.041 320.991)" fill="#022b35"/>
    <path id="Icon_awesome-star-2" data-name="Icon awesome-star" d="M7.982.487,6.193,4.113l-4,.583a.877.877,0,0,0-.485,1.5L4.6,9.013,3.917,13a.876.876,0,0,0,1.271.923l3.58-1.882,3.58,1.882A.877.877,0,0,0,13.618,13l-.685-3.985,2.895-2.821a.877.877,0,0,0-.485-1.5l-4-.583L9.554.487a.877.877,0,0,0-1.572,0Z" transform="translate(148.041 464.991)" fill="#022b35"/>
    <path id="Icon_awesome-star-3" data-name="Icon awesome-star" d="M7.982.487,6.193,4.113l-4,.583a.877.877,0,0,0-.485,1.5L4.6,9.013,3.917,13a.876.876,0,0,0,1.271.923l3.58-1.882,3.58,1.882A.877.877,0,0,0,13.618,13l-.685-3.985,2.895-2.821a.877.877,0,0,0-.485-1.5l-4-.583L9.554.487a.877.877,0,0,0-1.572,0Z" transform="translate(499.041 176.991)" fill="#022b35"/>
    <path id="Icon_awesome-star-4" data-name="Icon awesome-star" d="M7.982.487,6.193,4.113l-4,.583a.877.877,0,0,0-.485,1.5L4.6,9.013,3.917,13a.876.876,0,0,0,1.271.923l3.58-1.882,3.58,1.882A.877.877,0,0,0,13.618,13l-.685-3.985,2.895-2.821a.877.877,0,0,0-.485-1.5l-4-.583L9.554.487a.877.877,0,0,0-1.572,0Z" transform="translate(620.041 392.991)" fill="#022b35"/>
    <path id="Icon_awesome-star-5" data-name="Icon awesome-star" d="M7.982.487,6.193,4.113l-4,.583a.877.877,0,0,0-.485,1.5L4.6,9.013,3.917,13a.876.876,0,0,0,1.271.923l3.58-1.882,3.58,1.882A.877.877,0,0,0,13.618,13l-.685-3.985,2.895-2.821a.877.877,0,0,0-.485-1.5l-4-.583L9.554.487a.877.877,0,0,0-1.572,0Z" transform="translate(366.041 608.991)" fill="#022b35"/>
    <path id="Icon_awesome-grin-stars" data-name="Icon awesome-grin-stars" d="M17.438.563A17.438,17.438,0,1,0,34.875,18,17.434,17.434,0,0,0,17.438.563ZM6.652,11.876l2.454-.352L10.2,9.3a.543.543,0,0,1,.977,0l1.09,2.222,2.454.352a.547.547,0,0,1,.3.928l-1.786,1.73.422,2.454a.526.526,0,0,1-.773.555L10.688,16.4l-2.2,1.146a.526.526,0,0,1-.773-.555l.422-2.454-1.786-1.73a.552.552,0,0,1,.3-.935Zm10.786,18.5c-4.261,0-9.457-2.693-10.111-6.56a1.129,1.129,0,0,1,1.455-1.259,30.392,30.392,0,0,0,8.655,1.069,30.392,30.392,0,0,0,8.655-1.069,1.127,1.127,0,0,1,1.455,1.259C26.895,27.682,21.7,30.375,17.438,30.375ZM28.526,12.8l-1.786,1.73.422,2.454a.526.526,0,0,1-.773.555l-2.2-1.139-2.2,1.146a.526.526,0,0,1-.773-.555l.422-2.454-1.786-1.73a.549.549,0,0,1,.3-.928l2.454-.352L23.7,9.309a.543.543,0,0,1,.977,0l1.09,2.222,2.454.352a.541.541,0,0,1,.309.921Z" transform="translate(678.482 590.99)" fill="#62c9d5"/>
    <path id="Icon_awesome-grin-stars-2" data-name="Icon awesome-grin-stars" d="M19.006.563A19.006,19.006,0,1,0,38.012,19.569,19,19,0,0,0,19.006.563ZM7.25,12.894l2.675-.383,1.188-2.422a.592.592,0,0,1,1.065,0l1.188,2.422,2.675.383a.6.6,0,0,1,.33,1.012L14.423,15.79l.46,2.675a.573.573,0,0,1-.843.605l-2.391-1.242-2.4,1.249a.573.573,0,0,1-.843-.605l.46-2.675L6.92,13.913a.6.6,0,0,1,.33-1.019ZM19.006,33.057c-4.644,0-10.308-2.935-11.021-7.15a1.231,1.231,0,0,1,1.586-1.372A33.126,33.126,0,0,0,19.006,25.7a33.126,33.126,0,0,0,9.434-1.165,1.228,1.228,0,0,1,1.586,1.372C29.314,30.122,23.65,33.057,19.006,33.057ZM31.092,13.905,29.145,15.79l.46,2.675a.573.573,0,0,1-.843.605l-2.4-1.242-2.4,1.249a.573.573,0,0,1-.843-.605l.46-2.675-1.947-1.885a.6.6,0,0,1,.33-1.012l2.675-.383L25.827,10.1a.592.592,0,0,1,1.065,0l1.188,2.422,2.675.383a.589.589,0,0,1,.337,1Z" transform="translate(252.914 459.446)" fill="#62c9d5"/>
  </g>
</svg>
