<svg xmlns="http://www.w3.org/2000/svg" width="819.628" height="698.995" viewBox="0 0 819.628 698.995">
  <g id="Creation_process-rafiki" data-name="Creation process-rafiki" transform="translate(0 -30.41)">
    <g id="freepik--background-complete--inject-246" transform="translate(0 70.719)">
      <rect id="Rectangle_1301" data-name="Rectangle 1301" width="819.628" height="0.41" transform="translate(0 536.692)" fill="#ebebeb"/>
      <rect id="Rectangle_1302" data-name="Rectangle 1302" width="54.292" height="0.41" transform="translate(683.209 563.068)" fill="#ebebeb"/>
      <rect id="Rectangle_1303" data-name="Rectangle 1303" width="14.245" height="0.41" transform="translate(528.709 567.527)" fill="#ebebeb"/>
      <rect id="Rectangle_1304" data-name="Rectangle 1304" width="31.457" height="0.41" transform="translate(650.113 547.856)" fill="#ebebeb"/>
      <rect id="Rectangle_1305" data-name="Rectangle 1305" width="70.799" height="0.41" transform="translate(85.995 550.61)" fill="#ebebeb"/>
      <rect id="Rectangle_1306" data-name="Rectangle 1306" width="10.376" height="0.41" transform="translate(171.401 550.61)" fill="#ebebeb"/>
      <rect id="Rectangle_1307" data-name="Rectangle 1307" width="153.566" height="0.41" transform="translate(215.513 557.527)" fill="#ebebeb"/>
      <path id="Path_1992" data-name="Path 1992" d="M364.078,518.582H47.554a9.36,9.36,0,0,1-9.344-9.36V64.278A9.36,9.36,0,0,1,47.554,55H364.078a9.36,9.36,0,0,1,9.36,9.36h0V509.221A9.36,9.36,0,0,1,364.078,518.582ZM47.554,55.328a8.95,8.95,0,0,0-8.934,8.95V509.221a8.95,8.95,0,0,0,8.934,8.95H364.078a8.983,8.983,0,0,0,8.95-8.95V64.278a8.983,8.983,0,0,0-8.95-8.95Z" transform="translate(24.426 -55)" fill="#ebebeb"/>
      <path id="Path_1993" data-name="Path 1993" d="M580.4,518.582H263.86a9.393,9.393,0,0,1-9.36-9.36V64.278A9.377,9.377,0,0,1,263.86,55H580.4a9.36,9.36,0,0,1,9.327,9.278V509.221a9.344,9.344,0,0,1-9.327,9.36ZM263.86,55.328a8.983,8.983,0,0,0-8.95,8.95V509.221a8.983,8.983,0,0,0,8.95,8.95H580.4a8.983,8.983,0,0,0,8.95-8.95V64.278a8.983,8.983,0,0,0-8.95-8.95Z" transform="translate(162.691 -55)" fill="#ebebeb"/>
      <rect id="Rectangle_1308" data-name="Rectangle 1308" width="26.917" height="150.287" transform="translate(165.991 377.947)" fill="#f0f0f0"/>
      <rect id="Rectangle_1309" data-name="Rectangle 1309" width="184.843" height="8.163" transform="translate(165.991 528.234)" fill="#f0f0f0"/>
      <rect id="Rectangle_1310" data-name="Rectangle 1310" width="160.09" height="150.287" transform="translate(190.744 377.947)" fill="#f5f5f5"/>
      <rect id="Rectangle_1311" data-name="Rectangle 1311" width="138.927" height="52.981" transform="translate(201.317 393.815)" fill="#f0f0f0"/>
      <rect id="Rectangle_1312" data-name="Rectangle 1312" width="138.927" height="52.981" transform="translate(201.317 459.402)" fill="#f0f0f0"/>
      <rect id="Rectangle_1313" data-name="Rectangle 1313" width="70.504" height="5.803" rx="1.45" transform="translate(235.545 404.601)" fill="#f5f5f5"/>
      <rect id="Rectangle_1314" data-name="Rectangle 1314" width="70.504" height="5.803" rx="1.45" transform="translate(235.545 470.204)" fill="#f5f5f5"/>
      <rect id="Rectangle_1315" data-name="Rectangle 1315" width="383.078" height="219.464" transform="translate(333.507 71.898)" fill="#e6e6e6"/>
      <rect id="Rectangle_1316" data-name="Rectangle 1316" width="386.094" height="219.464" transform="translate(336.162 71.898)" fill="#f0f0f0"/>
      <rect id="Rectangle_1317" data-name="Rectangle 1317" width="370.16" height="201.547" transform="translate(344.145 80.848)" fill="#fafafa"/>
      <path id="Path_1994" data-name="Path 1994" d="M237.65,305.867,284.467,104.32h61.374L299.024,305.867Z" transform="translate(151.919 -23.472)" fill="#fff"/>
      <path id="Path_1995" data-name="Path 1995" d="M281.15,305.867l46.8-201.547h27.72L308.853,305.867Z" transform="translate(179.727 -23.472)" fill="#fff"/>
      <path id="Path_1996" data-name="Path 1996" d="M348.23,305.867,395.047,104.32h47.325l-46.8,201.547Z" transform="translate(222.608 -23.472)" fill="#fff"/>
      <rect id="Rectangle_1318" data-name="Rectangle 1318" width="1.016" height="201.547" transform="translate(713.273 80.848)" fill="#e6e6e6"/>
      <rect id="Rectangle_1319" data-name="Rectangle 1319" width="23.015" height="219.464" transform="translate(517.71 71.898)" fill="#f0f0f0"/>
      <rect id="Rectangle_1320" data-name="Rectangle 1320" width="1.016" height="201.547" transform="translate(516.694 80.848)" fill="#e6e6e6"/>
      <rect id="Rectangle_1321" data-name="Rectangle 1321" width="0.803" height="219.464" transform="translate(528.808 71.898)" fill="#e6e6e6"/>
      <rect id="Rectangle_1322" data-name="Rectangle 1322" width="101.831" height="156.106" transform="translate(125.698 75.439)" fill="#e6e6e6"/>
      <rect id="Rectangle_1323" data-name="Rectangle 1323" width="108.076" height="156.106" transform="translate(128.075 75.439)" fill="#f5f5f5"/>
      <rect id="Rectangle_1324" data-name="Rectangle 1324" width="94.29" height="142.337" transform="translate(134.96 82.323)" fill="#fff"/>
      <rect id="Rectangle_1325" data-name="Rectangle 1325" width="60.259" height="82.602" transform="translate(151.975 105.716)" fill="#f5f5f5"/>
    </g>
    <g id="freepik--Screen--inject-246" transform="translate(445.468 278.429)">
      <path id="Path_1997" data-name="Path 1997" d="M565.226,201.856V336.112a20.064,20.064,0,0,1-20.081,20.081H291.831a20.081,20.081,0,0,1-20.081-20.081V201.856a18.562,18.562,0,0,1,.148-2.344,20.065,20.065,0,0,1,19.933-17.8H545.145a20.081,20.081,0,0,1,19.95,17.72A18.531,18.531,0,0,1,565.226,201.856Z" transform="translate(-271.75 -181.71)" fill="#fff" stroke="#62c9d5" stroke-linecap="round" stroke-linejoin="round" stroke-width="1"/>
      <path id="Path_1998" data-name="Path 1998" d="M309.139,271.682a54.1,54.1,0,0,1-3.279-28.982c3.016-17.376,16.589-33.047,33.883-36.473,25.146-4.918,49.178,14.868,74.848,13.786,18.032-.754,36.736-11.639,52.882-3.7,25.572,12.589,18.392,51.768,6.065,70.881-12.8,19.868-36.146,31.441-58.849,35.67" transform="translate(-250.388 -166.54)" fill="none" stroke="#62c9d5" stroke-linecap="round" stroke-linejoin="round" stroke-width="1" stroke-dasharray="5 5"/>
      <path id="Path_1999" data-name="Path 1999" d="M312.918,319.294l27.212,11.1,16.36-13.753-1.557-51.751-9.147-3.737L309,297.246Z" transform="translate(-247.938 -130.927)" fill="#fff" stroke="#263238" stroke-miterlimit="10" stroke-width="1"/>
      <path id="Path_2000" data-name="Path 2000" d="M328.416,318.229l-15.8-6.442a6.246,6.246,0,0,1-3.426-8.2h0a6.229,6.229,0,0,1,8.2-3.41l15.737,6.573a6.246,6.246,0,0,1,3.426,8.2h0a6.245,6.245,0,0,1-8.131,3.279Z" transform="translate(-248.125 -106.29)" fill="#62c9d5"/>
      <line id="Line_115" data-name="Line 115" x1="13.048" y2="31.982" transform="translate(89.405 132.108)" fill="none" stroke="#263238" stroke-miterlimit="10" stroke-width="1"/>
      <path id="Path_2001" data-name="Path 2001" d="M330.206,284.051a2.934,2.934,0,1,1-1.639-3.819A2.934,2.934,0,0,1,330.206,284.051Z" transform="translate(-237.998 -118.863)" fill="#263238"/>
      <path id="Path_2002" data-name="Path 2002" d="M328.416,318.229l-15.8-6.442a6.246,6.246,0,0,1-3.426-8.2h0a6.229,6.229,0,0,1,8.2-3.41l15.737,6.573a6.246,6.246,0,0,1,3.426,8.2h0a6.245,6.245,0,0,1-8.131,3.279Z" transform="translate(-248.125 -106.29)" opacity="0.2"/>
      <path id="Path_2003" data-name="Path 2003" d="M287.83,298.483A59.789,59.789,0,0,1,399.48,341.3" transform="translate(-261.471 -131.607)" fill="none" stroke="#263238" stroke-miterlimit="10" stroke-width="1"/>
      <rect id="Rectangle_1326" data-name="Rectangle 1326" width="3.328" height="3.328" transform="matrix(0.892, 0.452, -0.452, 0.892, 136.713, 208.703)" fill="none" stroke="#263238" stroke-miterlimit="10" stroke-width="1"/>
      <rect id="Rectangle_1327" data-name="Rectangle 1327" width="3.328" height="3.328" transform="matrix(0.892, 0.452, -0.452, 0.892, 25.031, 166.025)" fill="none" stroke="#263238" stroke-miterlimit="10" stroke-width="1"/>
      <line id="Line_116" data-name="Line 116" x2="91.503" y2="39.686" transform="translate(63.275 114.814)" fill="none" stroke="#263238" stroke-miterlimit="10" stroke-width="1"/>
      <path id="Path_2004" data-name="Path 2004" d="M368.7,277.107a1.639,1.639,0,1,1-.431-1.762A1.639,1.639,0,0,1,368.7,277.107Z" transform="translate(-211.807 -122.131)" fill="#62c9d5"/>
      <path id="Path_2005" data-name="Path 2005" d="M312.668,252.812a1.639,1.639,0,1,1-.4-1.792A1.639,1.639,0,0,1,312.668,252.812Z" transform="translate(-247.687 -137.687)" fill="#62c9d5"/>
      <path id="Path_2006" data-name="Path 2006" d="M565.05,199.43H271.82a20.064,20.064,0,0,1,19.966-17.72H545.1a20.081,20.081,0,0,1,19.95,17.72Z" transform="translate(-271.705 -181.71)" fill="#62c9d5"/>
      <path id="Path_2007" data-name="Path 2007" d="M415.317,187.859a3.279,3.279,0,1,1-3.279-3.279A3.279,3.279,0,0,1,415.317,187.859Z" transform="translate(-184.165 -179.875)" fill="#fff"/>
      <circle id="Ellipse_141" data-name="Ellipse 141" cx="3.279" cy="3.279" r="3.279" transform="translate(241.315 4.705)" fill="#fff"/>
      <path id="Path_2008" data-name="Path 2008" d="M435.717,187.859a3.279,3.279,0,1,1-3.278-3.279A3.278,3.278,0,0,1,435.717,187.859Z" transform="translate(-171.125 -179.875)" fill="#fff"/>
      <rect id="Rectangle_1328" data-name="Rectangle 1328" width="29.752" height="49.325" transform="translate(252.724 23.753)" fill="none" stroke="#62c9d5" stroke-linecap="round" stroke-linejoin="round" stroke-width="0.75"/>
      <rect id="Rectangle_1329" data-name="Rectangle 1329" width="6.573" height="6.573" transform="translate(258.019 27.966)" fill="#62c9d5"/>
      <rect id="Rectangle_1330" data-name="Rectangle 1330" width="6.573" height="6.573" transform="translate(271.395 27.966)" fill="#62c9d5"/>
      <rect id="Rectangle_1331" data-name="Rectangle 1331" width="6.573" height="6.573" transform="translate(258.019 39.031)" fill="#62c9d5"/>
      <rect id="Rectangle_1332" data-name="Rectangle 1332" width="6.573" height="6.573" transform="translate(271.395 39.031)" fill="#62c9d5"/>
      <rect id="Rectangle_1333" data-name="Rectangle 1333" width="6.573" height="6.573" transform="translate(258.019 50.096)" fill="#62c9d5"/>
      <rect id="Rectangle_1334" data-name="Rectangle 1334" width="6.573" height="6.573" transform="translate(271.395 50.096)" fill="#62c9d5"/>
      <rect id="Rectangle_1335" data-name="Rectangle 1335" width="6.573" height="6.573" transform="translate(258.019 61.144)" fill="#62c9d5"/>
      <rect id="Rectangle_1336" data-name="Rectangle 1336" width="6.573" height="6.573" transform="translate(271.395 61.144)" fill="#62c9d5"/>
      <rect id="Rectangle_1337" data-name="Rectangle 1337" width="6.573" height="6.573" transform="translate(271.395 27.966)" opacity="0.1"/>
      <rect id="Rectangle_1338" data-name="Rectangle 1338" width="6.573" height="6.573" transform="translate(258.019 39.031)" opacity="0.2"/>
      <rect id="Rectangle_1339" data-name="Rectangle 1339" width="6.573" height="6.573" transform="translate(271.395 39.031)" opacity="0.3"/>
      <rect id="Rectangle_1340" data-name="Rectangle 1340" width="6.573" height="6.573" transform="translate(258.019 50.096)" opacity="0.4"/>
      <rect id="Rectangle_1341" data-name="Rectangle 1341" width="6.573" height="6.573" transform="translate(271.395 50.096)" opacity="0.5"/>
      <rect id="Rectangle_1342" data-name="Rectangle 1342" width="6.573" height="6.573" transform="translate(258.019 61.144)" opacity="0.6"/>
      <rect id="Rectangle_1343" data-name="Rectangle 1343" width="6.573" height="6.573" transform="translate(271.395 61.144)" opacity="0.7"/>
    </g>
    <g id="freepik--Process--inject-246" transform="translate(87.995 30.41)">
      <path id="Path_2009" data-name="Path 2009" d="M77.22,247.351A241.1,241.1,0,0,1,312.814,57.41c112.961,0,207.186,75.406,233.3,180.318" transform="translate(-38.632 -13.15)" fill="none" stroke="#e6e6e6" stroke-linecap="round" stroke-linejoin="round" stroke-width="1" stroke-dasharray="4 4"/>
      <path id="Path_2010" data-name="Path 2010" d="M92.268,159.22a38.588,38.588,0,0,0-38.588,38.6c0,7.655,5.9,18.851,8.639,23.622,1.2,2.1,2.328,4.213,3.426,6.344l7.639,15a5.59,5.59,0,0,0,4.918,3.065h27.867a5.59,5.59,0,0,0,4.918-3.065l7.639-15c1.082-2.131,2.229-4.246,3.426-6.344,2.738-4.77,8.639-15.966,8.639-23.622a38.6,38.6,0,0,0-38.523-38.6Z" transform="translate(-53.68 51.933)" fill="#62c9d5"/>
      <path id="Path_2011" data-name="Path 2011" d="M77.208,225.507s-1.328-35.621-9.114-34.424-3.639,12.737,15.8,13.36,18.392-13.409,14.294-13.393-10.7,15.688-6.328,34.424" transform="translate(-46.832 72.28)" fill="none" stroke="#fafafa" stroke-linecap="round" stroke-linejoin="round" stroke-width="1"/>
      <path id="Path_2012" data-name="Path 2012" d="M64.39,170.716c5.229-5.492,13-9.278,24.327-7.836" transform="translate(-46.834 54.075)" fill="none" stroke="#fafafa" stroke-linecap="round" stroke-linejoin="round" stroke-width="1"/>
      <path id="Path_2013" data-name="Path 2013" d="M60.2,174.011a18.147,18.147,0,0,1,3.524-4.131" transform="translate(-49.512 58.747)" fill="none" stroke="#fafafa" stroke-linecap="round" stroke-linejoin="round" stroke-width="1"/>
      <path id="Path_2014" data-name="Path 2014" d="M103.854,226.673v.508a11.557,11.557,0,0,1-.328,2.3,10.983,10.983,0,0,1-2.475,4.721,9.18,9.18,0,0,1-6.819,3.115H74.167a9.835,9.835,0,0,1-9.295-7.836,11.557,11.557,0,0,1-.328-2.295v-.508a9.311,9.311,0,0,1,0-.967,1.8,1.8,0,0,1,0-.3,11.065,11.065,0,0,1,2.8-6.2,9.18,9.18,0,0,1,6.819-3.115H94.215a9.836,9.836,0,0,1,9.131,7.295,9.572,9.572,0,0,1,.426,2.082,1.8,1.8,0,0,1,0,.3q.063.449.082.9Z" transform="translate(-46.743 88.293)" fill="#62c9d5"/>
      <path id="Path_2015" data-name="Path 2015" d="M103.156,223.329H64.83a10.9,10.9,0,0,1,2.328-4.115,9.18,9.18,0,0,1,6.819-3.115H94.025a9.836,9.836,0,0,1,9.131,7.229Z" transform="translate(-46.552 88.293)" opacity="0.2"/>
      <path id="Path_2016" data-name="Path 2016" d="M103.377,224.26a10.983,10.983,0,0,1-2.475,4.721,9.18,9.18,0,0,1-6.819,3.115H74.035a9.835,9.835,0,0,1-9.295-7.836Z" transform="translate(-46.61 93.51)" opacity="0.2"/>
      <g id="Group_1910" data-name="Group 1910" transform="translate(17.757 313.704)" opacity="0.3">
        <path id="Path_2017" data-name="Path 2017" d="M103.867,223.042v.508H64.525v-.508a9.3,9.3,0,0,1,0-.967,1.8,1.8,0,0,1,0-.295h39.26a1.806,1.806,0,0,1,0,.3A9.308,9.308,0,0,1,103.867,223.042Z" transform="translate(-64.512 -221.78)"/>
      </g>
      <path id="Path_2018" data-name="Path 2018" d="M78.54,236.864a2.574,2.574,0,1,1-.76-1.826,2.59,2.59,0,0,1,.76,1.826Z" transform="translate(-41.099 99.922)" fill="#62c9d5"/>
      <path id="Path_2019" data-name="Path 2019" d="M74.94,235.86v63.029H90.152V412.572" transform="translate(-40.089 100.925)" fill="none" stroke="#62c9d5" stroke-miterlimit="10" stroke-width="1"/>
      <path id="Path_2020" data-name="Path 2020" d="M149.918,116.121v-3.787l-2.344-.688a22.952,22.952,0,0,0-.721-3.787l1.967-1.508-1.426-3.508-2.442.246a23.771,23.771,0,0,0-2.065-3.279l1.2-2.131-2.656-2.7-2.147,1.18a23.244,23.244,0,0,0-3.147-2.147l.3-2.426-3.492-1.475-1.541,1.9a21.309,21.309,0,0,0-3.754-.787l-.656-2.361h-3.8l-.688,2.344a22.49,22.49,0,0,0-3.77.7L117.2,89.958l-3.508,1.41.246,2.426a25.6,25.6,0,0,0-3.279,2.082l-2.115-1.213-2.656,2.623,1.18,2.164a20.131,20.131,0,0,0-2.164,3.18l-2.426-.311-1.492,3.492,1.9,1.525a21.59,21.59,0,0,0-.787,3.787l-2.361.656v3.77l2.344.7a22.951,22.951,0,0,0,.721,3.787l-1.967,1.492,1.426,3.524,2.442-.262a20.621,20.621,0,0,0,2.065,3.279l-1.213,2.147,2.672,2.688,2.147-1.164a23.082,23.082,0,0,0,3.164,2.18l-.3,2.426,3.492,1.475,1.541-1.885a23.143,23.143,0,0,0,3.787.77l.639,2.361h3.787l.688-2.344a21.146,21.146,0,0,0,3.787-.721l1.508,1.967,3.508-1.41-.246-2.426a24.475,24.475,0,0,0,3.279-2.082l2.131,1.213,2.7-2.656-1.164-2.164a20.9,20.9,0,0,0,2.164-3.18l2.426.311,1.492-3.492-1.9-1.541a22.771,22.771,0,0,0,.77-3.754Zm-25.163,6.7a8.786,8.786,0,1,1,6.253-2.515A8.786,8.786,0,0,1,124.755,122.825Z" transform="translate(-24.236 6.955)" fill="#62c9d5"/>
      <path id="Path_2021" data-name="Path 2021" d="M440.664,155.486l-5.426-5.623h0a36.448,36.448,0,0,0-1.18-7.032l2.885-5.967-7.1-11.59-6.557-.115A36.063,36.063,0,0,0,417.6,120.9h0l-2.557-7.344L401.83,110.39l-5.623,5.41h0a35.458,35.458,0,0,0-7.032,1.2l-5.967-2.918-11.573,7.147-.115,6.557h0a32.636,32.636,0,0,0-4.246,5.7l-7.344,2.492-3.18,13.114,5.426,5.623a34.56,34.56,0,0,0,1.18,7.082h0l-2.918,6.065,7.1,11.59,6.557.131a36.057,36.057,0,0,0,5.688,4.262h0l2.541,7.327,13.229,3.18,5.59-5.41a36.9,36.9,0,0,0,7.1-1.18h0l5.983,2.885,11.59-7.082.131-6.557a35.057,35.057,0,0,0,4.246-5.7h0l7.295-2.541Zm-45.6,11.737a15.278,15.278,0,1,1,18.425-11.278h0A15.311,15.311,0,0,1,395.059,167.223Z" transform="translate(140.059 20.718)" fill="#263238"/>
      <path id="Path_2022" data-name="Path 2022" d="M265.21,69.08l-6.8-4.672h0a37.438,37.438,0,0,0-2.738-7.032l1.738-6.9-9.836-10.508-6.819,1.279a37.313,37.313,0,0,0-6.8-3.279h0l-4.2-7.082-14.376-.475-4.672,6.8h0a36.293,36.293,0,0,0-7.032,2.721l-6.8-1.754-10.508,9.836,1.262,6.8h0a35.916,35.916,0,0,0-3.2,6.819l-7.065,4.2-.492,14.36,6.77,4.754a36.324,36.324,0,0,0,2.787,7.082h0l-1.639,6.819,9.836,10.508,6.819-1.246a39.62,39.62,0,0,0,6.8,3.279h0l4.18,7.049,14.376.508,4.655-6.819a37.03,37.03,0,0,0,7.114-2.721h0l6.8,1.738,10.508-9.836-1.246-6.8a37.834,37.834,0,0,0,3.2-6.8h0l7.065-4.2ZM220.425,90.833a16.163,16.163,0,1,1,16.7-15.589h0a16.179,16.179,0,0,1-16.7,15.589Z" transform="translate(25.07 -30.41)" fill="#263238"/>
      <circle id="Ellipse_142" data-name="Ellipse 142" cx="22.622" cy="22.622" r="22.622" transform="translate(214.139 44.263) rotate(-45)" fill="none" stroke="#fff" stroke-miterlimit="10" stroke-width="1"/>
      <path id="Path_2023" data-name="Path 2023" d="M402.056,132.324l2.164-8.983-5.2-2.967a54.348,54.348,0,0,0,.377-9.36l5.492-2.524-1.459-9.163-5.934-.7a54.269,54.269,0,0,0-3.18-8.918l4.049-4.426-4.918-7.9-5.77,1.639a56.53,56.53,0,0,0-6.344-6.934l2.164-5.557-7.508-5.459L371.3,64.737a57.367,57.367,0,0,0-8.524-3.934l-.246-5.95L353.5,52.688l-2.918,5.18a56.224,56.224,0,0,0-9.393-.377L338.568,52l-9.147,1.443-.721,5.934a54.26,54.26,0,0,0-8.8,3.18l-4.393-4-7.918,4.836,1.639,5.77a53.076,53.076,0,0,0-6.9,6.393l-5.7-2.164L291.144,80.9l3.836,4.688a52.573,52.573,0,0,0-3.951,8.557l-5.983.279-2.147,8.967,5.2,2.951a56.5,56.5,0,0,0-.393,9.409l-5.491,2.492,1.475,9.163,5.918.721a53.52,53.52,0,0,0,3.18,8.786l-4.065,4.426,4.918,7.9,5.754-1.639a55.1,55.1,0,0,0,6.36,6.9l-2.164,5.688,7.508,5.459,4.7-3.656a56.77,56.77,0,0,0,8.557,3.918l.246,5.983,9,2.164,2.934-5.2a54.657,54.657,0,0,0,9.409.377l2.492,5.492,9.147-1.443.738-5.9a61.967,61.967,0,0,0,8.8-3.18l4.393,4.033,7.918-4.819-1.639-5.787a51.459,51.459,0,0,0,6.868-6.36l5.623,2.049,5.459-7.508-3.672-4.688a54.1,54.1,0,0,0,3.918-8.524Zm-65.308,9.049a28.356,28.356,0,1,1,.131,0Z" transform="translate(92.409 -16.608)" fill="#62c9d5"/>
      <path id="Path_2024" data-name="Path 2024" d="M402.056,132.324l2.164-8.983-5.2-2.967a54.348,54.348,0,0,0,.377-9.36l5.492-2.524-1.459-9.163-5.934-.7a54.269,54.269,0,0,0-3.18-8.918l4.049-4.426-4.918-7.9-5.77,1.639a56.53,56.53,0,0,0-6.344-6.934l2.164-5.557-7.508-5.459L371.3,64.737a57.367,57.367,0,0,0-8.524-3.934l-.246-5.95L353.5,52.688l-2.918,5.18a56.224,56.224,0,0,0-9.393-.377L338.568,52l-9.147,1.443-.721,5.934a54.26,54.26,0,0,0-8.8,3.18l-4.393-4-7.918,4.836,1.639,5.77a53.076,53.076,0,0,0-6.9,6.393l-5.7-2.164L291.144,80.9l3.836,4.688a52.573,52.573,0,0,0-3.951,8.557l-5.983.279-2.147,8.967,5.2,2.951a56.5,56.5,0,0,0-.393,9.409l-5.491,2.492,1.475,9.163,5.918.721a53.52,53.52,0,0,0,3.18,8.786l-4.065,4.426,4.918,7.9,5.754-1.639a55.1,55.1,0,0,0,6.36,6.9l-2.164,5.688,7.508,5.459,4.7-3.656a56.77,56.77,0,0,0,8.557,3.918l.246,5.983,9,2.164,2.934-5.2a54.657,54.657,0,0,0,9.409.377l2.492,5.492,9.147-1.443.738-5.9a61.967,61.967,0,0,0,8.8-3.18l4.393,4.033,7.918-4.819-1.639-5.787a51.459,51.459,0,0,0,6.868-6.36l5.623,2.049,5.459-7.508-3.672-4.688a54.1,54.1,0,0,0,3.918-8.524Zm-65.308,9.049a28.356,28.356,0,1,1,.131,0Z" transform="translate(92.409 -16.608)" opacity="0.2"/>
      <circle id="Ellipse_143" data-name="Ellipse 143" cx="37.359" cy="37.359" r="37.359" transform="translate(398.569 59.571)" fill="none" stroke="#fff" stroke-miterlimit="10" stroke-width="1"/>
    </g>
    <g id="freepik--Stars--inject-246" transform="translate(611.311 205.466)">
      <path id="Path_2025" data-name="Path 2025" d="M451.264,156.117l-9.409-.049-5.377,7.737-2.869-8.967-9-2.738,7.639-5.491-.2-9.409,7.59,5.573,8.885-3.082-2.951,8.934Z" transform="translate(-339.877 -137.2)" fill="#62c9d5"/>
      <path id="Path_2026" data-name="Path 2026" d="M445.08,174.1l3.049-4.885-2.279-5.295,5.59,1.393,4.328-3.819.393,5.754,4.967,2.951-5.344,2.147-1.262,5.639-3.7-4.426Z" transform="translate(-326.791 -121.672)" fill="#62c9d5"/>
      <path id="Path_2027" data-name="Path 2027" d="M403.541,329.26l-1.77,13.507,10.114,9.114-13.393,2.475L392.952,366.8l-6.491-11.967-13.54-1.426,9.36-9.868-2.82-13.327,12.278,5.852Z" transform="translate(-372.92 -14.424)" fill="none" stroke="#62c9d5" stroke-miterlimit="10" stroke-width="1"/>
      <path id="Path_2028" data-name="Path 2028" d="M416.263,334.735,411.8,331.08l-5.541,1.606,2.082-5.377-3.246-4.77,5.77.328,3.524-4.557,1.475,5.573,5.426,1.951-4.852,3.131Z" transform="translate(-352.349 -21.424)" fill="#62c9d5"/>
    </g>
    <g id="freepik--Shadow--inject-246" transform="translate(78.225 691.997)">
      <ellipse id="Ellipse_144" data-name="Ellipse 144" cx="331.589" cy="18.704" rx="331.589" ry="18.704" fill="#f5f5f5"/>
    </g>
    <g id="freepik--Character--inject-246" transform="translate(135.815 149.912)">
      <path id="Path_2029" data-name="Path 2029" d="M157.566,396.609c19.146,12.557,29.1,36.473,28.031,59.325-.525,11.131-3.59,22.523-10.868,30.949s-17.77,13.032-28.277,16.393c-10.786,3.442-22.228,5.819-33.424,4.131s-22.2-8-27.113-18.2c-5.18-10.721-2.967-23.474.59-34.818s8.426-22.655,8.2-34.539c-.1-9.245-3.279-18.147-5.573-27.1s-3.819-18.589-.7-27.294,12.212-15.868,21.31-13.917" transform="translate(-82.852 55.17)" fill="none" stroke="#263238" stroke-linecap="round" stroke-linejoin="round" stroke-width="1" stroke-dasharray="5 5"/>
      <path id="Path_2030" data-name="Path 2030" d="M222.949,138.86s-14.9-13.212-30.261,0S175.509,186.218,164.1,201.3c0,0,6.2,12.753,30.7,14.311s51.227-23.327,51.227-23.327S250.161,133.418,222.949,138.86Z" transform="translate(-30.913 -84.338)" fill="#263238"/>
      <path id="Path_2031" data-name="Path 2031" d="M197.029,179.465c-1.41.475-12.475,3.541-30.589,15.081l13.114,30.293s4.131,23.376,14.081,37.867l20.491,19.1,40.244-17.835L243.5,207.332l.984-28.982S230.584,168.531,197.029,179.465Z" transform="translate(-29.417 -57.93)" fill="#62c9d5"/>
      <path id="Path_2032" data-name="Path 2032" d="M223.2,167.581a8.475,8.475,0,0,1-8.2,7.639,32.784,32.784,0,0,1-5.606,5.951c1.77,13.7,10.409,13.7,10.409,13.7-13.589,22.425-30.113,5.147-30.113,5.147a9.737,9.737,0,0,0,6.557-8.2,12.213,12.213,0,0,0-.738-5.344c-11.885-.164-18.032-8.327-17.655-20.392s7.639-23.1,7.639-23.1c7.819,3.065,21.917-.852,21.917-.852-.688,18.524,7.8,21.753,7.8,21.753S224.395,159.942,223.2,167.581Z" transform="translate(-22.13 -78.488)" fill="#f29c94"/>
      <path id="Path_2033" data-name="Path 2033" d="M185.34,161.387a7.459,7.459,0,0,0,8.442-3.557" transform="translate(-17.335 -68.458)" fill="none" stroke="#263238" stroke-linecap="round" stroke-linejoin="round" stroke-width="0.5"/>
      <path id="Path_2034" data-name="Path 2034" d="M189.779,153.153c0,1.082-.623,1.951-1.295,1.918s-1.2-.934-1.164-2.016.623-1.951,1.311-1.934S189.829,152.054,189.779,153.153Z" transform="translate(-16.07 -72.747)" fill="#263238"/>
      <path id="Path_2035" data-name="Path 2035" d="M181.883,152.353c0,1.016-.574,1.8-1.2,1.787s-1.1-.869-1.065-1.869.574-1.8,1.213-1.77S181.883,151.32,181.883,152.353Z" transform="translate(-20.992 -73.144)" fill="#263238"/>
      <path id="Path_2036" data-name="Path 2036" d="M188.87,147.842s2.9-.279,5.311,3.279" transform="translate(-15.079 -74.846)" fill="none" stroke="#263238" stroke-linecap="round" stroke-linejoin="round" stroke-width="0.75"/>
      <path id="Path_2037" data-name="Path 2037" d="M185.668,160.439V151.62l-4.278,7.475a6.262,6.262,0,0,0,4.278,1.344Z" transform="translate(-19.86 -72.428)" fill="#b66861"/>
      <path id="Path_2038" data-name="Path 2038" d="M191.463,198.673l-1.2,28.31-1.869.492c-1.049.262-2.065.459-3.065.623-18.524,3.147-28.8-7.59-28.8-7.59l16.245-33.818Z" transform="translate(-35.752 -50.009)" fill="#62c9d5"/>
      <path id="Path_2039" data-name="Path 2039" d="M183.1,146.63a7.868,7.868,0,0,0-3.1.607" transform="translate(-20.749 -75.618)" fill="none" stroke="#263238" stroke-linecap="round" stroke-linejoin="round" stroke-width="0.75"/>
      <path id="Path_2040" data-name="Path 2040" d="M184.12,271.224s1.639,46.62,6.131,116.272S219.3,551.636,219.3,551.636h23.769s-13.114-175.581-14-219.48c0,0,57.259,147.91,103.06,196.58l15.278-9.54s-62.029-145.058-68.718-166.04-14-98.355-35.621-124.124h-38.8Z" transform="translate(-18.115 -22.943)" fill="#263238"/>
      <path id="Path_2041" data-name="Path 2041" d="M210.83,428.62l3.393,19.671,14.737-.393-2.443-19.278Z" transform="translate(-1.041 104.646)" fill="#f29c94"/>
      <path id="Path_2042" data-name="Path 2042" d="M277,417.887c.328.656,8.508,14.393,8.508,14.393l10.131-10.786-9.311-12.753Z" transform="translate(41.259 91.938)" fill="#f29c94"/>
      <path id="Path_2043" data-name="Path 2043" d="M202.71,425.375l35.1-2.7L236,435.276l-27.294,2.393Z" transform="translate(-6.231 100.843)" fill="#62c9d5"/>
      <path id="Path_2044" data-name="Path 2044" d="M270.98,420.441l23.048-17.491,3.279,11.294-18.638,12.9Z" transform="translate(37.411 88.237)" fill="#62c9d5"/>
      <path id="Path_2045" data-name="Path 2045" d="M119,394.708l.131-54.948,46.325,23.753Z" transform="translate(-59.743 47.842)" fill="#62c9d5"/>
      <path id="Path_2046" data-name="Path 2046" d="M364.132,127.079,165.422,514.665l-14.7-7.524-17.229-8.836-14.409-7.393,198.694-387.6,15.934,8.163,18.606,9.54Z" transform="translate(-59.692 -103.31)" fill="#62c9d5"/>
      <path id="Path_2047" data-name="Path 2047" d="M137.71,369.174l-18.72,12.557.066-21.671Z" transform="translate(-59.75 60.819)" opacity="0.4"/>
      <path id="Path_2048" data-name="Path 2048" d="M351.795,120.175,153.084,507.761l-14.7-7.524,201.6-386.127Z" transform="translate(-47.355 -96.406)" opacity="0.2"/>
      <path id="Path_2049" data-name="Path 2049" d="M333.708,111.473,133.489,498.305l-14.409-7.393,198.694-387.6Z" transform="translate(-59.692 -103.31)" opacity="0.2"/>
      <path id="Path_2050" data-name="Path 2050" d="M165.463,363.519l-46.473,31.2.066-22.573.066-32.392Z" transform="translate(-59.75 47.836)" opacity="0.4"/>
      <path id="Path_2051" data-name="Path 2051" d="M277.4,234.412c-29.687,30.31-68.849,14.524-68.849,14.524a11.344,11.344,0,0,1-6.672-4.426l-10.737-3.836,4.1-10.36,11.688,3.147,8.524,6.311c30.621,5.377,45.752-13.442,45.752-13.442a101.339,101.339,0,0,0-7.59-23.736L265.087,180.3l.541.836C282.922,209,277.4,234.412,277.4,234.412Z" transform="translate(-13.628 -54.094)" fill="#f29c94"/>
      <path id="Path_2052" data-name="Path 2052" d="M215.361,247.385l-8.2,3.278c-7.229,5.869-17.065,2.59-17.065,2.59-30.49,7.836-43.85-1.82-43.85-1.82,4.213-13.786,12.885-29.834,20.442-42.424a35.178,35.178,0,0,0,15.819,5.246c-7.393,12.2-14.458,27.343-14.458,27.343,7.672,4.016,26.113-2.229,26.113-2.229l18.884-1.852Z" transform="translate(-42.324 -35.741)" fill="#f29c94"/>
      <path id="Path_2053" data-name="Path 2053" d="M214.57,303.025,206.8,274.6s8.377,44.948,8.426,45.9S214.57,303.025,214.57,303.025Z" transform="translate(-3.617 6.188)" opacity="0.4"/>
      <path id="Path_2054" data-name="Path 2054" d="M285.363,425.252s-7.7-4.147-8.819-1.213S285.363,425.252,285.363,425.252Z" transform="translate(40.912 101.047)" fill="none" stroke="#62c9d5" stroke-miterlimit="10" stroke-width="1"/>
      <path id="Path_2055" data-name="Path 2055" d="M285.042,425s-8.2,2.033-8.082,3.852S285.042,425,285.042,425Z" transform="translate(41.233 102.332)" fill="none" stroke="#62c9d5" stroke-miterlimit="10" stroke-width="1"/>
      <path id="Path_2056" data-name="Path 2056" d="M299.594,416.99l6.426,5.229a3.524,3.524,0,0,1,.377,5.115l-21.1,22.95-.344.328c-.984.82-5.459,4.328-7.623,2.557-2.442-2,4.918-9.409,5.344-13.278.377-2.967,1.131-9.163,1.459-11.868a3.476,3.476,0,0,1,1.147-2.2l9.836-8.77A3.524,3.524,0,0,1,299.594,416.99Z" transform="translate(41.155 96.72)" fill="#263238"/>
      <path id="Path_2057" data-name="Path 2057" d="M213.26,444.182s-3.8-7.967-5.885-6.557S213.26,444.182,213.26,444.182Z" transform="translate(-3.471 110.296)" fill="none" stroke="#62c9d5" stroke-miterlimit="10" stroke-width="1"/>
      <path id="Path_2058" data-name="Path 2058" d="M214.168,442.639s-8.459-4.606-9.442-1.934S214.168,442.639,214.168,442.639Z" transform="translate(-4.985 111.839)" fill="none" stroke="#62c9d5" stroke-miterlimit="10" stroke-width="1"/>
      <path id="Path_2059" data-name="Path 2059" d="M240.342,440.38H219.769a37.555,37.555,0,0,1-15.229,8.327c-8.295,1.852-7.524,3.279-7.524,3.279s-1.377,3.541,3.688,4.295,36.834.934,40.85,0S240.342,440.38,240.342,440.38Z" transform="translate(-9.98 112.164)" fill="#263238"/>
      <path id="Path_2060" data-name="Path 2060" d="M189.408,151.365l-3.279-.475a2.164,2.164,0,0,0,3.279.475Z" transform="translate(-16.83 -72.894)" fill="#263238"/>
      <path id="Path_2061" data-name="Path 2061" d="M181.408,150.692l-2.688-.492a1.721,1.721,0,0,0,2.688.492Z" transform="translate(-21.567 -73.335)" fill="#263238"/>
      <path id="Path_2062" data-name="Path 2062" d="M197.144,168.41a9.622,9.622,0,0,1-7.786,6.557,12.212,12.212,0,0,0-.738-5.344,40.606,40.606,0,0,0,8.524-1.213Z" transform="translate(-15.238 -61.694)" opacity="0.2"/>
      <path id="Path_2063" data-name="Path 2063" d="M177.2,217.293c-1.049.262-2.065.459-3.065.623l1.738-15.425Z" transform="translate(-24.501 -39.909)" opacity="0.2"/>
    </g>
  </g>
</svg>
