<svg xmlns="http://www.w3.org/2000/svg" width="719.271" height="710.558" viewBox="0 0 719.271 710.558">
  <g id="Group_1909" data-name="Group 1909" transform="translate(-140.979 -251.67)">
    <g id="Group_1908" data-name="Group 1908">
      <path id="Icon_awesome-pencil-alt" data-name="Icon awesome-pencil-alt" d="M236.137,67.366,214.272,89.23a5.7,5.7,0,0,1-8.063,0L153.564,36.584a5.7,5.7,0,0,1,0-8.063L175.428,6.657a22.815,22.815,0,0,1,32.2,0l28.5,28.5A22.729,22.729,0,0,1,236.137,67.366ZM134.782,47.3,10.235,171.85.18,229.476a11.4,11.4,0,0,0,13.185,13.185l57.626-10.1L195.538,108.012a5.7,5.7,0,0,0,0-8.063L142.892,47.3a5.754,5.754,0,0,0-8.11,0ZM58.849,161.179a6.613,6.613,0,0,1,0-9.391l73.04-73.04a6.64,6.64,0,1,1,9.391,9.391l-73.04,73.04a6.613,6.613,0,0,1-9.391,0ZM41.727,201.066H64.493v17.217L33.9,223.642l-14.75-14.75L24.511,178.3H41.727Z" transform="translate(617.426 497.495)" fill="#62c9d5"/>
      <path id="Icon_awesome-pencil-alt-2" data-name="Icon awesome-pencil-alt" d="M236.137,67.366,214.272,89.23a5.7,5.7,0,0,1-8.063,0L153.564,36.584a5.7,5.7,0,0,1,0-8.063L175.428,6.657a22.815,22.815,0,0,1,32.2,0l28.5,28.5A22.729,22.729,0,0,1,236.137,67.366ZM134.782,47.3,10.235,171.85.18,229.476a11.4,11.4,0,0,0,13.185,13.185l57.626-10.1L195.538,108.012a5.7,5.7,0,0,0,0-8.063L142.892,47.3a5.754,5.754,0,0,0-8.11,0ZM58.849,161.179a6.613,6.613,0,0,1,0-9.391l73.04-73.04a6.64,6.64,0,1,1,9.391,9.391l-73.04,73.04a6.613,6.613,0,0,1-9.391,0ZM41.727,201.066H64.493v17.217L33.9,223.642l-14.75-14.75L24.511,178.3H41.727Z" transform="matrix(-0.017, 1, -1, -0.017, 388.01, 519.35)" fill="#62c9d5"/>
      <g id="Group_1902" data-name="Group 1902" transform="translate(-387.629 -205.925)">
        <path id="Icon_awesome-notes-medical" data-name="Icon awesome-notes-medical" d="M422.608,80.5H321.987a80.5,80.5,0,0,0-160.994,0H60.373A60.388,60.388,0,0,0,0,140.869V583.6a60.388,60.388,0,0,0,60.373,60.373H422.608A60.388,60.388,0,0,0,482.981,583.6V140.869A60.388,60.388,0,0,0,422.608,80.5ZM241.49,50.31A30.186,30.186,0,1,1,211.3,80.5,30.114,30.114,0,0,1,241.49,50.31ZM362.235,432.67a10.092,10.092,0,0,1-10.062,10.062H281.739v70.435a10.092,10.092,0,0,1-10.062,10.062H211.3a10.092,10.092,0,0,1-10.062-10.062V442.732H130.807a10.092,10.092,0,0,1-10.062-10.062V372.3a10.092,10.092,0,0,1,10.062-10.062h70.435V291.8A10.092,10.092,0,0,1,211.3,281.739h60.373A10.092,10.092,0,0,1,281.739,291.8v70.435h70.435A10.092,10.092,0,0,1,362.235,372.3Zm0-241.49a10.092,10.092,0,0,1-10.062,10.062H130.807a10.092,10.092,0,0,1-10.062-10.062V171.056a10.092,10.092,0,0,1,10.062-10.062H352.173a10.092,10.092,0,0,1,10.062,10.062Z" transform="translate(652.121 460.595)" fill="#fff" stroke="#62c9d5" stroke-width="6"/>
        <rect id="Rectangle_1283" data-name="Rectangle 1283" width="322.236" height="309.137" transform="translate(733.018 721.017)" fill="#fff"/>
      </g>
      <g id="Problem_solving-pana" data-name="Problem solving-pana" transform="translate(301.005 518.622)">
        <g id="freepik--background-complete--inject-3" transform="translate(28.76 40.665)">
          <path id="Path_1763" data-name="Path 1763" d="M449.518,240.933l-7.007,3.741s3.171,5.881-2.917,9.258a6.413,6.413,0,0,1-7.419-.69,7.134,7.134,0,0,1-2.536-5.937c.143-2.592,1.791-5.77,6.959-7.459l-8.41-15.8-6.928,3.7,4.946,9.258s-8.378,7.7-2.655,18.405c5.477,10.249,15.94,7.72,19.872,5.612C446.419,259.426,456.255,253.219,449.518,240.933Z" transform="translate(-110.145 -81.063)" fill="#ebebeb"/>
          <rect id="Rectangle_1284" data-name="Rectangle 1284" width="7.974" height="7.443" transform="matrix(-0.882, 0.471, -0.471, -0.882, 316.291, 139.751)" fill="#ebebeb"/>
          <path id="Path_1764" data-name="Path 1764" d="M104.48,63.368l6.5,2.243s1.887-5.453,7.586-3.591a5.549,5.549,0,0,1,3.963,5.113,6.143,6.143,0,0,1-2.275,5.1c-1.736,1.435-4.756,2.251-8.838,0l-5.057,14.656,6.42,2.219,2.972-8.584s9.813.793,13.245-9.147c3.289-9.512-4.471-14.656-8.117-15.916C118.058,54.467,108.316,51.859,104.48,63.368Z" transform="translate(-44.461 -45.905)" fill="#ebebeb"/>
          <rect id="Rectangle_1285" data-name="Rectangle 1285" width="6.904" height="6.444" transform="translate(60.812 43.969) rotate(19.06)" fill="#ebebeb"/>
          <path id="Path_1765" data-name="Path 1765" d="M61.725,53.061l3.8-1.094a3.361,3.361,0,0,1,2.378-4.2,3.171,3.171,0,0,1,3.535,1.094,3.543,3.543,0,0,1,.626,3.171c-.341,1.244-1.474,2.624-4.161,2.909L70.373,63.5l3.757-1.086L72.68,57.4a7.625,7.625,0,0,0,3.171-8.68c-1.585-5.549-6.959-5.4-9.092-4.756C65.158,44.389,59.72,46.386,61.725,53.061Z" transform="translate(-35.505 -43.659)" fill="#f5f5f5"/>
          <rect id="Rectangle_1286" data-name="Rectangle 1286" width="3.963" height="3.702" transform="translate(35.366 21.593) rotate(-16.13)" fill="#f5f5f5"/>
          <path id="Path_1766" data-name="Path 1766" d="M450.518,179.074l-6.064-.166s-.135,5.089-5.43,5.033a4.9,4.9,0,0,1-4.669-3.258,5.43,5.43,0,0,1,.571-4.9c1.078-1.673,3.369-3.171,7.435-2.315l.38-13.673-6-.166-.214,8.014a11.689,11.689,0,0,0-8.719,11.208c-.246,8.862,7.649,11.145,11.05,11.24C441.434,190.163,450.336,189.774,450.518,179.074Z" transform="translate(-111.502 -67.706)" fill="#e0e0e0"/>
          <rect id="Rectangle_1287" data-name="Rectangle 1287" width="6.088" height="5.683" transform="matrix(-1, -0.028, 0.028, -1, 331.331, 89.291)" fill="#e0e0e0"/>
          <path id="Path_1770" data-name="Path 1770" d="M50.667,371.083a27.7,27.7,0,0,0-11.842-4.106c-1.934-.2-4.043-.143-5.6,1.03a1.149,1.149,0,0,0-.579,1.022,1.244,1.244,0,0,0,.547.7,16.876,16.876,0,0,0,17.438,1.324" transform="translate(-29.567 -110.681)" fill="#e0e0e0"/>
          <path id="Path_1771" data-name="Path 1771" d="M51.7,366.9a57.818,57.818,0,0,1-7.649-6.73,19.309,19.309,0,0,1-4.8-8.87,3.567,3.567,0,0,1,.38-2.965c6.1,4.756,10.883,10.915,12.064,18.564" transform="translate(-30.903 -106.835)" fill="#e0e0e0"/>
          <path id="Path_1772" data-name="Path 1772" d="M55.2,367.326a27.545,27.545,0,0,1,.143-10.035A13.6,13.6,0,0,1,60.69,349c1.054,2.465.6,5.3-.143,7.871a38.372,38.372,0,0,1-5.3,11.153" transform="translate(-34.16 -106.972)" fill="#e0e0e0"/>
          <path id="Path_1773" data-name="Path 1773" d="M58.934,385.63A18.884,18.884,0,0,0,44,399.763c3.559-.222,6.579-2.727,8.767-5.549s3.7-5.905,6.111-8.537" transform="translate(-31.92 -114.567)" fill="#e0e0e0"/>
          <path id="Path_1774" data-name="Path 1774" d="M64.051,381.984a23.423,23.423,0,0,1,2.7-22.194,28.312,28.312,0,0,1-2.7,22.194" transform="translate(-35.738 -109.209)" fill="#e0e0e0"/>
          <path id="Path_1775" data-name="Path 1775" d="M70.137,399.642a16.955,16.955,0,0,0-16.2,9.322c-.2.4-.38.912-.111,1.276a1.2,1.2,0,0,0,1.078.309c3.171-.206,6.016-2.124,8.355-4.312s4.367-4.708,6.944-6.6" transform="translate(-33.929 -117.466)" fill="#e0e0e0"/>
          <path id="Path_1776" data-name="Path 1776" d="M73.766,393.132a30.208,30.208,0,0,1-.3-16.844c.594-2.172,1.585-4.455,3.6-5.469a.713.713,0,0,1,.547-.1.793.793,0,0,1,.349.4,10.185,10.185,0,0,1,.848,4.835,30.16,30.16,0,0,1-.793,4.891c-.626,3-.967,6.206-2.608,8.783a18.157,18.157,0,0,0-1.007,1.918c-.309.65-.317.888-.6,1.4" transform="translate(-37.811 -111.471)" fill="#e0e0e0"/>
          <path id="Path_1777" data-name="Path 1777" d="M100.338,398.085a21.734,21.734,0,0,1,3.8-17.858c.277-.357.634-.737,1.086-.7.682.063.856.975.793,1.657a32.316,32.316,0,0,1-5.723,16.9" transform="translate(-43.482 -113.301)" fill="#e0e0e0"/>
          <path id="Path_1778" data-name="Path 1778" d="M102.87,402.946a25.973,25.973,0,0,0,21.314-4.336,17.248,17.248,0,0,0-11.541-1.411c-3.852.88-7.38,2.608-9.773,5.747" transform="translate(-44.127 -116.878)" fill="#e0e0e0"/>
          <path id="Path_1779" data-name="Path 1779" d="M104.866,396.684A24.646,24.646,0,0,1,124.214,385.5a11.857,11.857,0,0,1-6.341,7,35.468,35.468,0,0,1-9.29,2.711c-1.237.246-2.933.507-3.733,1.474" transform="translate(-44.537 -114.54)" fill="#e0e0e0"/>
          <path id="Path_1780" data-name="Path 1780" d="M100.273,369.713a56.009,56.009,0,0,0,2.473-11.335A18.784,18.784,0,0,0,100.5,347.17a24.674,24.674,0,0,0-.333,22.931" transform="translate(-43.012 -106.592)" fill="#e0e0e0"/>
          <path id="Path_1781" data-name="Path 1781" d="M116.89,363.593c4.383-7.927,13.316-14.315,22.353-15.2-3.488,8.68-13,15.385-22.353,15.2" transform="translate(-47.034 -106.845)" fill="#e0e0e0"/>
          <path id="Path_1782" data-name="Path 1782" d="M113.42,369.2c6.531.991,12.088,5.16,18.231,7.689a8.1,8.1,0,0,0,4.114.793,3.21,3.21,0,0,0,2.013-5.691,8.766,8.766,0,0,0-2.98-1.815c-6.65-2.766-13.776-2.838-20.775-1.157" transform="translate(-46.314 -110.89)" fill="#e0e0e0"/>
          <path id="Path_1783" data-name="Path 1783" d="M108.642,375.226c1.482.428,1.982,1.189,3.171,2.188a34.021,34.021,0,0,0,13.752,7.078c.523.135,1.213.182,1.474-.293s-.055-.919-.357-1.292a19.024,19.024,0,0,0-8.331-5.652c-3.171-1.189-5.937-2.616-9.742-2.307" transform="translate(-45.317 -112.343)" fill="#e0e0e0"/>
          <path id="Path_1784" data-name="Path 1784" d="M103.27,340.233a26.157,26.157,0,0,0,20.022,6.8,1.379,1.379,0,0,0,.912-.325c.5-.547-.1-1.4-.69-1.855-5.889-4.589-13.015-6.492-20.244-4.629" transform="translate(-44.21 -105.005)" fill="#e0e0e0"/>
          <path id="Path_1785" data-name="Path 1785" d="M109.65,336.669a27.869,27.869,0,0,1,24.976-4.122,19.816,19.816,0,0,1-11.89,5.224,37.73,37.73,0,0,1-13.079-1.1" transform="translate(-45.533 -103.288)" fill="#e0e0e0"/>
          <path id="Path_1786" data-name="Path 1786" d="M106.237,317.429c-.579-5.874-.206-10.511-.61-16.416,0-.468-.135-1.038-.579-1.2-.61-.238-1.126.515-1.332,1.141a18.841,18.841,0,0,0,2.5,16.352" transform="translate(-44.125 -96.762)" fill="#e0e0e0"/>
          <path id="Path_1787" data-name="Path 1787" d="M106.58,318.039a34.551,34.551,0,0,0,9.734-9.456c1.918-2.632,3.543-5.778,3.107-9.012a9.337,9.337,0,0,0-7.023,3.488,19.61,19.61,0,0,0-3.575,7.2c-.793,2.584-1.324,5.247-2.243,7.784" transform="translate(-44.896 -96.722)" fill="#e0e0e0"/>
          <path id="Path_1788" data-name="Path 1788" d="M118.613,315.671a78.472,78.472,0,0,0,23.954-14.125c-2.861-1.149-6.143-.46-9,.7a28.158,28.158,0,0,0-15.06,13.364" transform="translate(-47.37 -97.01)" fill="#e0e0e0"/>
          <path id="Path_1789" data-name="Path 1789" d="M110,325.109a49.18,49.18,0,0,0,13.3.071c4.383-.721,8.386-2.433,12.413-4.13a1.451,1.451,0,0,0,.84-.642.959.959,0,0,0-.3-1.062,2.489,2.489,0,0,0-1.054-.491,23.055,23.055,0,0,0-13.42.793A62.486,62.486,0,0,0,110,325.109" transform="translate(-45.605 -100.582)" fill="#e0e0e0"/>
          <path id="Path_1790" data-name="Path 1790" d="M77.55,335.577a23.5,23.5,0,0,1-.214-19.467c1.831,2.8,2.053,6.341,1.72,9.678s-1.348,6.753-1.411,10.09" transform="translate(-38.417 -100.152)" fill="#e0e0e0"/>
          <path id="Path_1791" data-name="Path 1791" d="M57.651,333a27.124,27.124,0,0,0-20.181,8.592,18.913,18.913,0,0,0,11.05-2.045,56.762,56.762,0,0,0,9.512-6.341" transform="translate(-30.566 -103.653)" fill="#e0e0e0"/>
          <path id="Path_1792" data-name="Path 1792" d="M47.744,329.5c-3.686-.3-7.229-.753-10.772.333a12.88,12.88,0,0,0-8.212,6.959,19.42,19.42,0,0,0,10.1-1.91,57.4,57.4,0,0,0,8.886-5.382" transform="translate(-28.76 -102.854)" fill="#e0e0e0"/>
          <path id="Path_1793" data-name="Path 1793" d="M62.19,328.261c-3.313-2.172-6.714-4.375-10.574-5.279s-8.331-.238-11.026,2.671c3.123,1.839,6.912,2.053,10.534,2.053s8.061-.048,11.478,1.157" transform="translate(-31.213 -101.499)" fill="#e0e0e0"/>
          <path id="Path_1794" data-name="Path 1794" d="M66.177,323.939c-5.66-5.549-7.808-15.56-5.549-23.169a35.265,35.265,0,0,1,5.549,23.169" transform="translate(-35.185 -96.971)" fill="#e0e0e0"/>
          <path id="Path_1795" data-name="Path 1795" d="M87.52,305.3c1.07-2.489,1.815-5.089,2.774-7.617a22.075,22.075,0,0,1,3.963-7.031,10.423,10.423,0,0,1,7.015-3.63,28.25,28.25,0,0,1-13.618,18.318" transform="translate(-40.944 -94.12)" fill="#e0e0e0"/>
          <path id="Path_1796" data-name="Path 1796" d="M80.166,311.608c-1.768-2.433-3.813-5.739-6.206-7.554s-5.549-2.917-8.45-2.219a19.658,19.658,0,0,0,14.656,9.773" transform="translate(-36.38 -97.148)" fill="#e0e0e0"/>
          <path id="Path_1797" data-name="Path 1797" d="M83.879,305.555a42.011,42.011,0,0,1-2.79-9.044A14.2,14.2,0,0,1,82.5,287.3c3.115,5.881,4.114,12.191,1.538,18.326" transform="translate(-39.562 -94.178)" fill="#e0e0e0"/>
          <path id="Path_1798" data-name="Path 1798" d="M87.55,284.045c1.768-5.826,7.134-10.114,12.865-12.088a4.756,4.756,0,0,1,2.251-.333,1.958,1.958,0,0,1,1.665,1.387c.206.991-.61,1.879-1.379,2.536a43.7,43.7,0,0,1-15.4,8.5" transform="translate(-40.95 -90.923)" fill="#e0e0e0"/>
          <path id="Path_1799" data-name="Path 1799" d="M87.607,276.175c.23-3.757.46-7.57,1.688-11.1s3.575-6.9,7-8.458c.587,3.8-1.094,7.57-3.107,10.836s-4.455,6.341-5.667,9.987" transform="translate(-40.944 -87.817)" fill="#e0e0e0"/>
          <path id="Path_1800" data-name="Path 1800" d="M84.667,279.207c-1.458-4.241-1.585-9.639-4.153-13.34-1.776-2.584-4.621-4.344-6.151-7.086a10.764,10.764,0,0,0,.38,8.045,23.4,23.4,0,0,0,4.7,6.738c1.886,2.005,3.5,3.519,5.247,5.644" transform="translate(-38.091 -88.264)" fill="#e0e0e0"/>
          <path id="Path_1801" data-name="Path 1801" d="M87.494,409.244c-.111,0-.206-28.329-.214-63.277s.079-63.277.19-63.277.206,28.321.214,63.277S87.613,409.244,87.494,409.244Z" transform="translate(-40.894 -93.222)" fill="#e0e0e0"/>
          <path id="Path_1802" data-name="Path 1802" d="M112.312,335.28a6.51,6.51,0,0,1-1.062.4l-2.933.991c-2.473.84-5.866,2.061-9.512,3.575s-7.134,2.838-9.052,4.534a6.659,6.659,0,0,0-1.823,2.378c-.277.666-.325,1.078-.365,1.07s0-.1,0-.3a4.526,4.526,0,0,1,.214-.793,6.341,6.341,0,0,1,1.712-2.56,15.559,15.559,0,0,1,3.963-2.449c1.585-.737,3.313-1.5,5.16-2.259,3.694-1.514,7.134-2.7,9.623-3.472,1.244-.388,2.267-.674,2.972-.864a5.712,5.712,0,0,1,1.1-.246Z" transform="translate(-40.95 -104.127)" fill="#e0e0e0"/>
          <path id="Path_1803" data-name="Path 1803" d="M120.92,310.13a2.013,2.013,0,0,1-.3.317l-.9.856-3.4,3.083-11.248,10.059c-4.407,3.924-8.22,7.673-10.859,10.495-1.324,1.411-2.378,2.584-3.075,3.4-.333.373-.6.69-.793.935a1.738,1.738,0,0,1-.309.309,1.53,1.53,0,0,1,.238-.365c.174-.222.428-.563.793-.983.674-.848,1.68-2.053,2.98-3.488a141.1,141.1,0,0,1,10.8-10.614c4.423-3.916,8.45-7.435,11.374-9.971l3.48-2.98.959-.793a2.437,2.437,0,0,1,.262-.262Z" transform="translate(-41.464 -98.912)" fill="#e0e0e0"/>
          <path id="Path_1804" data-name="Path 1804" d="M103,330.655c-.119-.048.793-2.172,1.72-4.867s1.363-4.962,1.482-4.938a16.916,16.916,0,0,1-1.094,5.073,32.111,32.111,0,0,1-1.371,3.4A5.548,5.548,0,0,1,103,330.655Z" transform="translate(-44.151 -101.135)" fill="#e0e0e0"/>
          <path id="Path_1805" data-name="Path 1805" d="M83.294,349.448a4.969,4.969,0,0,1-.682-.793l-1.744-2.227c-1.458-1.894-3.48-4.5-5.747-7.356s-4.352-5.414-5.858-7.269l-1.783-2.2a5.073,5.073,0,0,1-.61-.84,5.015,5.015,0,0,1,.737.737c.452.491,1.094,1.213,1.879,2.116,1.585,1.807,3.686,4.344,5.953,7.205s4.257,5.5,5.667,7.435c.7.967,1.26,1.76,1.633,2.307a4.932,4.932,0,0,1,.555.888Z" transform="translate(-36.662 -102.775)" fill="#e0e0e0"/>
          <path id="Path_1806" data-name="Path 1806" d="M80,343.824a9.963,9.963,0,0,1-2.275-4.264,12.008,12.008,0,0,1-.515-4.288H77.4c-.087.325-.143.5-.174.491s0-.182,0-.523H77.4a19.712,19.712,0,0,0,.721,4.177A32.553,32.553,0,0,0,80,343.824Z" transform="translate(-38.802 -104.119)" fill="#e0e0e0"/>
          <path id="Path_1807" data-name="Path 1807" d="M68.692,334.478a7.384,7.384,0,0,0-1.585-.919,10.582,10.582,0,0,0-4.407-.349,26.805,26.805,0,0,0-4.439.713,11.985,11.985,0,0,1-1.831.436,6.34,6.34,0,0,1,1.752-.713,20.654,20.654,0,0,1,4.486-.848,9.639,9.639,0,0,1,4.55.491,2.877,2.877,0,0,1,1.474,1.189Z" transform="translate(-34.497 -103.595)" fill="#e0e0e0"/>
          <path id="Path_1808" data-name="Path 1808" d="M65.292,331.579c0,.063-.927-.373-2.433-.888a24.413,24.413,0,0,0-12.262-.9c-1.585.285-2.513.579-2.536.507a2.379,2.379,0,0,1,.642-.277,16.282,16.282,0,0,1,1.839-.515,21.894,21.894,0,0,1,6.278-.436,21.663,21.663,0,0,1,6.143,1.387,15.105,15.105,0,0,1,1.736.793A2.2,2.2,0,0,1,65.292,331.579Z" transform="translate(-32.762 -102.827)" fill="#e0e0e0"/>
          <path id="Path_1809" data-name="Path 1809" d="M86.695,317.6a50.731,50.731,0,0,1-1.776-6.167,49.813,49.813,0,0,1-1.379-6.262,50.73,50.73,0,0,1,1.776,6.206,49.808,49.808,0,0,1,1.379,6.222Z" transform="translate(-40.119 -97.883)" fill="#e0e0e0"/>
          <path id="Path_1810" data-name="Path 1810" d="M86.389,319.1a29.437,29.437,0,0,0-1.966-3.694,16.2,16.2,0,0,0-2.893-2.98,2.7,2.7,0,0,1,1.118.571,8.972,8.972,0,0,1,2.108,2.18A8.093,8.093,0,0,1,86.389,319.1Z" transform="translate(-39.702 -99.387)" fill="#e0e0e0"/>
          <path id="Path_1811" data-name="Path 1811" d="M80.761,412.491s-.127-.682-.444-1.887a27,27,0,0,0-1.894-4.906A69.036,69.036,0,0,0,68.38,391.549c-2.243-2.568-4.423-4.986-6.27-7.3a51.007,51.007,0,0,1-4.478-6.46,30.724,30.724,0,0,1-2.259-4.756c-.206-.587-.365-1.046-.444-1.371a1.863,1.863,0,0,1-.119-.491s.246.65.713,1.807a33.88,33.88,0,0,0,2.378,4.708,55.023,55.023,0,0,0,4.518,6.341c1.855,2.291,4.035,4.693,6.286,7.261a64.675,64.675,0,0,1,10,14.268,25.022,25.022,0,0,1,1.791,4.994c.127.618.214,1.094.246,1.419A2.212,2.212,0,0,1,80.761,412.491Z" transform="translate(-34.161 -111.569)" fill="#e0e0e0"/>
          <path id="Path_1812" data-name="Path 1812" d="M109.933,391.419a11.225,11.225,0,0,1-1.173.658,25.779,25.779,0,0,0-3.044,2.005,34.568,34.568,0,0,0-3.963,3.646c-1.4,1.482-2.846,3.171-4.32,5.041-2.949,3.7-5.707,6.967-7.356,9.583a33.361,33.361,0,0,0-1.847,3.171,10.6,10.6,0,0,1-.65,1.181,1.815,1.815,0,0,1,.111-.333c.087-.214.206-.531.4-.919a29.628,29.628,0,0,1,1.744-3.242,103.254,103.254,0,0,1,7.277-9.678c1.482-1.847,2.941-3.575,4.367-5.049a32.993,32.993,0,0,1,4.1-3.614,20.523,20.523,0,0,1,3.171-1.918c.388-.2.705-.317.912-.4S109.925,391.4,109.933,391.419Z" transform="translate(-40.956 -115.767)" fill="#e0e0e0"/>
          <path id="Path_1813" data-name="Path 1813" d="M112.284,401.753a17.441,17.441,0,0,1-2.473.357,32.736,32.736,0,0,0-5.881,1.157,17.58,17.58,0,0,0-5.263,2.766c-1.213.935-1.783,1.712-1.839,1.665s.1-.222.365-.571a9.637,9.637,0,0,1,1.292-1.324,16.067,16.067,0,0,1,5.319-2.925,26.72,26.72,0,0,1,5.977-1.054,13.474,13.474,0,0,1,2.5-.071Z" transform="translate(-42.871 -117.904)" fill="#e0e0e0"/>
          <path id="Path_1814" data-name="Path 1814" d="M97.737,405.932c-.127-.079.991-1.783,1.855-4.074s1.007-4.352,1.149-4.328a3.963,3.963,0,0,1,0,1.332,14.766,14.766,0,0,1-.721,3.171,15.559,15.559,0,0,1-1.443,2.877A4.169,4.169,0,0,1,97.737,405.932Z" transform="translate(-43.06 -117.034)" fill="#e0e0e0"/>
          <path id="Path_1815" data-name="Path 1815" d="M117.178,363.65a1.7,1.7,0,0,1-.4.206l-1.165.531c-.507.222-1.126.5-1.823.864s-1.522.737-2.378,1.244l-1.355.793c-.468.27-.927.594-1.419.9-1,.61-2,1.355-3.068,2.116a52.513,52.513,0,0,0-11.779,12.175c-.721,1.086-1.435,2.116-2.005,3.171-.293.5-.594.975-.848,1.451l-.721,1.379c-.484.872-.793,1.7-1.165,2.378a14.205,14.205,0,0,0-.793,1.855c-.2.515-.357.872-.491,1.181a2.028,2.028,0,0,1-.19.4,1.514,1.514,0,0,1,.119-.428c.111-.317.246-.721.412-1.213s.42-1.165.745-1.887.642-1.585,1.11-2.449c.23-.444.46-.912.705-1.4s.547-.967.793-1.482c.563-1.03,1.268-2.069,1.99-3.171a54.224,54.224,0,0,1,5.414-6.65,55.354,55.354,0,0,1,6.46-5.644c1.078-.753,2.093-1.49,3.107-2.093.5-.3.967-.618,1.443-.88l1.379-.753c.864-.5,1.688-.856,2.378-1.2a20.181,20.181,0,0,1,1.863-.793l1.2-.46a1.68,1.68,0,0,1,.484-.151Z" transform="translate(-40.956 -110.009)" fill="#e0e0e0"/>
          <path id="Path_1816" data-name="Path 1816" d="M102.58,377.846a2.909,2.909,0,0,1,.975-1.451,6.111,6.111,0,0,1,3.963-1.506,10.685,10.685,0,0,1,4.13.793,6.1,6.1,0,0,1,1.585.793,9.59,9.59,0,0,1-1.657-.483,12.563,12.563,0,0,0-4.019-.674,6.428,6.428,0,0,0-3.749,1.316,13.261,13.261,0,0,0-1.229,1.213Z" transform="translate(-44.067 -112.34)" fill="#e0e0e0"/>
          <path id="Path_1817" data-name="Path 1817" d="M99.24,380.121a14.783,14.783,0,0,0,1.118-3.622,14.481,14.481,0,0,0-.254-3.789,2.465,2.465,0,0,1,.468,1.062,7.467,7.467,0,0,1,.19,2.774,7.554,7.554,0,0,1-.793,2.655C99.589,379.828,99.28,380.153,99.24,380.121Z" transform="translate(-43.374 -111.888)" fill="#e0e0e0"/>
          <path id="Path_1818" data-name="Path 1818" d="M62.87,428.42c.61,10.828,3.868,21.837,8.894,32.974H93.585c4.756-11.026,7.823-22.02,8.362-32.974Z" transform="translate(-35.833 -123.44)" fill="#e0e0e0"/>
          <path id="Path_1819" data-name="Path 1819" d="M99.312,450.468c0,.119-7.189.206-16.051.206s-16.051-.087-16.051-.206,7.189-.2,16.051-.2S99.312,450.357,99.312,450.468Z" transform="translate(-36.733 -127.97)" fill="#fafafa"/>
          <path id="Path_1820" data-name="Path 1820" d="M99.211,455.416c0,.119-6.738.206-15.06.206s-15.06-.087-15.06-.206,6.738-.206,15.06-.206S99.211,455.305,99.211,455.416Z" transform="translate(-37.122 -128.994)" fill="#fafafa"/>
          <path id="Path_1821" data-name="Path 1821" d="M74.476,437.39a61.374,61.374,0,0,1,0,10.051A61.376,61.376,0,0,1,74.476,437.39Z" transform="translate(-38.197 -125.3)" fill="#fafafa"/>
          <path id="Path_1822" data-name="Path 1822" d="M89.226,437.39a65.789,65.789,0,0,1,0,10.407A65.789,65.789,0,0,1,89.226,437.39Z" transform="translate(-41.255 -125.3)" fill="#fafafa"/>
          <path id="Path_1823" data-name="Path 1823" d="M103.076,437.28a68.431,68.431,0,0,1,0,10.614,68.428,68.428,0,0,1,0-10.614Z" transform="translate(-44.127 -125.277)" fill="#fafafa"/>
          <path id="Path_1824" data-name="Path 1824" d="M101.451,437.336c0,.111-8.434.206-18.825.206s-18.825-.1-18.825-.206,8.426-.206,18.825-.206S101.451,437.225,101.451,437.336Z" transform="translate(-36.026 -125.246)" fill="#fafafa"/>
        </g>
        <g id="freepik--Plant--inject-3" transform="translate(338.724 258.148)">
          <rect id="Rectangle_1290" data-name="Rectangle 1290" width="44.875" height="6.165" transform="translate(20.709 84.007)" fill="#263238"/>
          <path id="Path_1825" data-name="Path 1825" d="M411.615,421.075H366.6V414.75h45.015Zm-44.861-.147h44.714v-6.011H366.754Z" transform="translate(-345.964 -330.823)" fill="#263238"/>
          <path id="Path_1826" data-name="Path 1826" d="M372.94,421.03l6.458,31.864h23.9l6.245-29.814Z" transform="translate(-348.07 -332.909)" fill="#263238"/>
          <path id="Path_1827" data-name="Path 1827" d="M372.94,464.23l3.446,4.735h29.046l4.107-4.735Z" transform="translate(-348.07 -347.257)" fill="#455a64"/>
          <path id="Path_1828" data-name="Path 1828" d="M397.643,389.63c-.087,0-.2-14.76-.254-32.966s0-32.973.067-32.973.2,14.76.254,32.973S397.73,389.63,397.643,389.63Z" transform="translate(-356.183 -300.58)" fill="#263238"/>
          <path id="Path_1829" data-name="Path 1829" d="M410.7,367.11a1.961,1.961,0,0,1-.12.341l-.4.955-.294.668-.3.842c-.107.3-.22.621-.347.962s-.214.708-.327,1.1a43.755,43.755,0,0,0-1.256,5.49,66.158,66.158,0,0,0-.668,6.872,92.621,92.621,0,0,0,.354,12.549c.14,1.6.287,2.9.394,3.794.047.421.087.761.114,1.029a2.453,2.453,0,0,1,0,.361,1.217,1.217,0,0,1-.08-.347c-.047-.274-.107-.608-.174-1.029-.147-.888-.327-2.177-.5-3.78a82.586,82.586,0,0,1-.447-12.59,62.923,62.923,0,0,1,.721-6.906,41.6,41.6,0,0,1,1.336-5.51c.127-.387.227-.755.361-1.1s.254-.668.367-.962l.327-.828c.107-.254.22-.481.321-.668.18-.381.334-.668.454-.935S410.686,367.1,410.7,367.11Z" transform="translate(-359.242 -315.001)" fill="#263238"/>
          <path id="Path_1830" data-name="Path 1830" d="M408.1,349.23a2.727,2.727,0,0,1-.14.488c-.12.341-.274.8-.467,1.376l-.347.988c-.107.367-.227.761-.361,1.189-.26.855-.568,1.823-.835,2.919-.147.548-.294,1.115-.454,1.7s-.274,1.222-.414,1.87c-.314,1.282-.541,2.672-.835,4.141-.494,2.932-.928,6.171-1.229,9.591s-.407,6.679-.448,9.664,0,5.657.147,7.9c.04,1.129.114,2.144.174,3.032s.107,1.663.16,2.291.087,1.082.114,1.443a2.671,2.671,0,0,1,0,.508s-.033-.174-.08-.5-.1-.835-.167-1.443-.154-1.389-.22-2.284-.16-1.9-.214-3.032c-.154-2.251-.214-4.936-.22-7.914s.14-6.258.421-9.691.748-6.679,1.262-9.617c.3-1.463.534-2.858.862-4.147.154-.668.3-1.269.441-1.863s.321-1.162.468-1.71c.287-1.089.608-2.057.888-2.912.134-.421.267-.822.387-1.189l.367-.982c.22-.561.394-1.015.528-1.336A2.924,2.924,0,0,1,408.1,349.23Z" transform="translate(-357.808 -309.063)" fill="#263238"/>
          <path id="Path_1831" data-name="Path 1831" d="M389.29,393.234a.743.743,0,0,1,0-.174,2.507,2.507,0,0,0-.04-.508c-.033-.468-.073-1.122-.134-1.95-.107-1.723-.26-4.174-.447-7.193-.387-6.071-.955-14.46-2-23.676-.521-4.615-1.122-9-1.757-12.964-.334-2-.668-3.867-.982-5.624s-.668-3.386-.968-4.875-.621-2.825-.888-4.007-.508-2.191-.721-3.012-.354-1.443-.467-1.9c-.047-.2-.08-.367-.114-.494a.845.845,0,0,1,0-.174.6.6,0,0,1,.06.167l.147.488.521,1.883c.227.822.5,1.83.775,3.005s.628,2.511.935,4.007.668,3.112,1.008,4.875.668,3.64,1.015,5.624c.668,3.974,1.262,8.355,1.783,12.97,1.022,9.237,1.549,17.625,1.883,23.7.16,3.039.28,5.5.347,7.2,0,.828.053,1.483.073,1.957v.508a.667.667,0,0,1-.027.167Z" transform="translate(-350.668 -301.573)" fill="#263238"/>
          <path id="Path_1832" data-name="Path 1832" d="M390.213,332.483a4.444,4.444,0,0,0-4.408-3.693,6.953,6.953,0,0,0-5.343,2.9,16.8,16.8,0,0,0-2.571,5.71,38.836,38.836,0,0,0-1.583,15.194,22.966,22.966,0,0,0,6.325,13.7,2.55,2.55,0,0,0,2.177,1,2.591,2.591,0,0,0,1.149-.708,34,34,0,0,0,11.033-25.854,10.431,10.431,0,0,0-1.382-5.563c-1.075-1.61-3.566-3.339-5.4-2.672" transform="translate(-349.12 -302.274)" fill="#62c9d5"/>
          <path id="Path_1833" data-name="Path 1833" d="M368.064,305.421l-2.959,5.343c-.067.12-.16.26-.3.274s-.274-.134-.361-.26l-7.814-12.022,1.8-1.015Z" transform="translate(-342.653 -291.962)" fill="#62c9d5"/>
          <g id="Group_1903" data-name="Group 1903" transform="translate(13.977 5.778)" opacity="0.2">
            <path id="Path_1834" data-name="Path 1834" d="M368.064,305.421l-2.959,5.343c-.067.12-.16.26-.3.274s-.274-.134-.361-.26l-7.814-12.022,1.8-1.015Z" transform="translate(-356.63 -297.74)"/>
          </g>
          <path id="Path_1835" data-name="Path 1835" d="M383.892,312.2l-26.675-15.742a1.216,1.216,0,0,1-.668-.668c-.107-.394.187-.775.474-1.069a18.387,18.387,0,0,1,14.253-5.6,16.3,16.3,0,0,1,12.89,8.015c2.578,4.6,2.672,10.686-.294,15.054" transform="translate(-342.619 -289.088)" fill="#62c9d5"/>
          <path id="Path_1836" data-name="Path 1836" d="M363.32,292.553a1.2,1.2,0,0,1,.347-.047c.227,0,.568-.053,1.008-.047a19.946,19.946,0,0,1,3.7.294,21.7,21.7,0,0,1,17.291,15.628,20.43,20.43,0,0,1,.668,3.653c.047.441,0,.548.04.781a1.456,1.456,0,0,1-.207.581,4.441,4.441,0,0,0,.04-1.336,21.9,21.9,0,0,0-17.846-19.068,23.57,23.57,0,0,0-3.66-.394C363.774,292.566,363.32,292.579,363.32,292.553Z" transform="translate(-344.875 -290.207)" fill="#263238"/>
          <path id="Path_1837" data-name="Path 1837" d="M387.344,307.42a6.477,6.477,0,0,1-1.336.614c-.855.334-2.037.761-3.339,1.182s-2.551.761-3.433.975a6.5,6.5,0,0,1-1.456.28,6.526,6.526,0,0,1,1.389-.494l3.4-1.062,3.373-1.109A7.347,7.347,0,0,1,387.344,307.42Z" transform="translate(-349.677 -295.177)" fill="#263238"/>
          <path id="Path_1838" data-name="Path 1838" d="M385.778,290.53a11.214,11.214,0,0,1,.314,2.972,11.406,11.406,0,0,1-.167,2.992,19,19,0,0,1-.154-2.985,17.938,17.938,0,0,1,.007-2.979Z" transform="translate(-352.312 -289.567)" fill="#263238"/>
          <path id="Path_1839" data-name="Path 1839" d="M357.21,298.049a12.242,12.242,0,0,1,1.937-.668c1.216-.374,2.9-.848,4.782-1.3s3.6-.795,4.849-1.015a11.18,11.18,0,0,1,2.037-.274,15.239,15.239,0,0,1-2,.494c-1.236.274-2.945.668-4.822,1.109s-3.58.875-4.782,1.209a13.877,13.877,0,0,1-2,.447Z" transform="translate(-342.846 -290.982)" fill="#263238"/>
          <path id="Path_1840" data-name="Path 1840" d="M365.722,326.533c-2.291-1.736-4.715-2.084-7.594-1.964a23.2,23.2,0,0,0-8.315,2.144c-4.5,1.97-8.729,4.876-11.414,8.983s-3.627,9.551-1.616,14.025a1.957,1.957,0,0,0,.915,1.1,2.137,2.137,0,0,0,1.5-.114c5.116-1.67,10.272-3.339,14.974-5.964s8.99-6.251,11.514-11a9.556,9.556,0,0,0,1.209-3.653,4.515,4.515,0,0,0-1.176-3.567" transform="translate(-335.702 -300.865)" fill="#62c9d5"/>
          <path id="Path_1841" data-name="Path 1841" d="M366.638,326.71a1.336,1.336,0,0,1-.367.154l-1.069.367-.781.26c-.281.1-.581.227-.9.354-.668.26-1.4.521-2.191.908l-1.256.568c-.434.2-.868.447-1.336.668-.928.461-1.87,1.042-2.865,1.63a45.377,45.377,0,0,0-11.28,9.978c-.715.915-1.409,1.77-2,2.631-.287.427-.588.828-.842,1.236l-.728,1.169c-.481.735-.835,1.449-1.182,2.057-.167.307-.327.588-.461.855s-.247.514-.361.735c-.2.421-.367.755-.5,1.015a1.68,1.68,0,0,1-.194.347,2.089,2.089,0,0,1,.134-.367l.454-1.049.327-.748c.127-.274.287-.561.447-.868.327-.621.668-1.336,1.142-2.09l.715-1.189c.247-.414.548-.822.835-1.249.561-.875,1.256-1.743,1.964-2.672a44.04,44.04,0,0,1,11.354-10.018c1.008-.581,1.957-1.162,2.892-1.61.468-.234.908-.474,1.336-.668l1.269-.554c.8-.374,1.563-.621,2.217-.868.334-.12.634-.24.922-.334l.788-.234,1.089-.307a2.171,2.171,0,0,1,.434-.107Z" transform="translate(-336.572 -301.583)" fill="#263238"/>
          <path id="Path_1842" data-name="Path 1842" d="M348.284,341.25a55.078,55.078,0,0,1-5.577,1.8,53.059,53.059,0,0,1-5.677,1.489,56.317,56.317,0,0,1,5.583-1.8A53.181,53.181,0,0,1,348.284,341.25Z" transform="translate(-336.143 -306.412)" fill="#263238"/>
          <path id="Path_1843" data-name="Path 1843" d="M353.466,353.788a8.572,8.572,0,0,1-.12-1.743c-.033-1.075-.04-2.558,0-4.2s.134-3.126.227-4.194a8.329,8.329,0,0,1,.22-1.73,10.892,10.892,0,0,1,0,1.743c-.033,1.175-.08,2.611-.127,4.194s-.073,3.012-.107,4.188a9.824,9.824,0,0,1-.093,1.743Z" transform="translate(-341.553 -306.635)" fill="#263238"/>
          <path id="Path_1844" data-name="Path 1844" d="M368.862,344.921c-.093,0-.374-3.012-.628-6.746s-.394-6.759-.307-6.766.367,3.012.628,6.746S368.949,344.914,368.862,344.921Z" transform="translate(-346.397 -303.144)" fill="#263238"/>
          <path id="Path_1845" data-name="Path 1845" d="M349.67,330.964a9.838,9.838,0,0,1,1.79-.053c1.1,0,2.625.04,4.308.094s3.206.127,4.3.194a10.209,10.209,0,0,1,1.783.167,8.988,8.988,0,0,1-1.783.053c-1.1,0-2.631-.04-4.314-.094s-3.206-.12-4.3-.187a9.738,9.738,0,0,1-1.783-.174Z" transform="translate(-340.341 -302.972)" fill="#263238"/>
          <path id="Path_1846" data-name="Path 1846" d="M387.531,368.9a1.645,1.645,0,0,1-.04-.354,8.723,8.723,0,0,0-.047-1.029c-.04-.888-.047-2.184,0-3.78s.14-3.493.327-5.6.514-4.4.942-6.8.975-4.675,1.516-6.679,1.129-3.854,1.67-5.343.988-2.718,1.336-3.54l.407-.948a1.556,1.556,0,0,1,.16-.321,1.6,1.6,0,0,1-.1.347c-.093.247-.207.568-.347.962-.321.835-.748,2.057-1.249,3.566s-1.055,3.339-1.6,5.343-1.049,4.294-1.489,6.679-.735,4.675-.962,6.779-.334,4.007-.394,5.57-.087,2.879-.087,3.773v1.022A1.337,1.337,0,0,1,387.531,368.9Z" transform="translate(-352.876 -304.174)" fill="#263238"/>
          <path id="Path_1847" data-name="Path 1847" d="M385.678,359.84a7.66,7.66,0,0,1-1.069,1.169c-.668.668-1.67,1.61-2.785,2.591s-2.164,1.83-2.939,2.424a7.159,7.159,0,0,1-1.3.9,8.348,8.348,0,0,1,1.155-1.075l2.865-2.491,2.845-2.518A8.11,8.11,0,0,1,385.678,359.84Z" transform="translate(-349.614 -312.587)" fill="#263238"/>
          <path id="Path_1848" data-name="Path 1848" d="M398.6,364.613a12.172,12.172,0,0,1-1.135-1.57l-2.631-3.847c-1.022-1.449-1.95-2.752-2.672-3.807a13.169,13.169,0,0,1-1.082-1.61,11,11,0,0,1,1.262,1.469c.741.942,1.73,2.264,2.772,3.767s1.937,2.885,2.565,3.907A10.917,10.917,0,0,1,398.6,364.613Z" transform="translate(-354.095 -310.574)" fill="#263238"/>
          <path id="Path_1849" data-name="Path 1849" d="M389.4,338c.047.073-2.758,1.964-6.265,4.221s-6.392,4.007-6.438,3.947,2.758-1.964,6.265-4.221S389.356,337.919,389.4,338Z" transform="translate(-349.318 -305.332)" fill="#263238"/>
          <path id="Path_1850" data-name="Path 1850" d="M403.458,346.758a102.229,102.229,0,0,1-8.248-8.068,52.1,52.1,0,0,1,4.241,3.921,53.5,53.5,0,0,1,4.007,4.148Z" transform="translate(-355.466 -305.562)" fill="#263238"/>
          <path id="Path_1851" data-name="Path 1851" d="M410.54,341.755l2.4-.2a11.922,11.922,0,0,0,4.869-1.489,18.851,18.851,0,0,1,2.264-1.135c2.979-1.2,6.3-.982,9.5-1.142a39.485,39.485,0,0,0,15.114-3.867,1.483,1.483,0,0,0,.668-.6c.494-.9-.427-1.7-1.216-2.191-4.054-2.5-8.188-5.029-12.79-6.271s-9.818-1.029-13.745,1.67c-4.608,3.172-6.285,9.684-7.066,15.228" transform="translate(-360.558 -300.726)" fill="#62c9d5"/>
          <path id="Path_1852" data-name="Path 1852" d="M445.44,334.171a2.386,2.386,0,0,1-.407-.187l-1.142-.6c-.988-.521-2.418-1.289-4.214-2.151a39.875,39.875,0,0,0-6.525-2.518,21.565,21.565,0,0,0-8.462-.668,14.44,14.44,0,0,0-7.707,3.306A17.251,17.251,0,0,0,412.974,337a47.172,47.172,0,0,0-1.75,4.388c-.174.508-.321.908-.427,1.216a2.77,2.77,0,0,1-.167.414,2.13,2.13,0,0,1,.107-.434c.094-.314.22-.721.374-1.236a39.484,39.484,0,0,1,1.656-4.448,17.131,17.131,0,0,1,4.007-5.764,14.64,14.64,0,0,1,7.861-3.406,21.452,21.452,0,0,1,8.576.721,38.245,38.245,0,0,1,6.552,2.591c1.79.895,3.2,1.7,4.174,2.251l1.115.668A2.945,2.945,0,0,1,445.44,334.171Z" transform="translate(-360.588 -301.871)" fill="#263238"/>
          <path id="Path_1853" data-name="Path 1853" d="M447.182,337.443c-.047.073-3.2-1.964-7.033-4.548s-6.906-4.742-6.859-4.815,3.2,1.964,7.039,4.548S447.228,337.376,447.182,337.443Z" transform="translate(-368.113 -302.037)" fill="#263238"/>
          <path id="Path_1854" data-name="Path 1854" d="M446.758,327.83a7.575,7.575,0,0,1-2.291.414,7.659,7.659,0,0,1-2.338-.033,15.735,15.735,0,0,1,2.311-.234,15.977,15.977,0,0,1,2.318-.147Z" transform="translate(-371.05 -301.955)" fill="#263238"/>
          <path id="Path_1855" data-name="Path 1855" d="M427.241,325.14a6.184,6.184,0,0,1-1.035,1.616,6.631,6.631,0,0,1-1.336,1.483,6.218,6.218,0,0,1,1.035-1.61,6.961,6.961,0,0,1,1.336-1.489Z" transform="translate(-365.317 -301.062)" fill="#263238"/>
          <path id="Path_1856" data-name="Path 1856" d="M427.864,341.512a8.627,8.627,0,0,1-1.516-.822c-.908-.554-2.137-1.336-3.453-2.318s-2.471-1.857-3.3-2.511a9.3,9.3,0,0,1-1.336-1.122,8.317,8.317,0,0,1,1.443.942l3.339,2.438c1.336.948,2.511,1.783,3.386,2.384a9.565,9.565,0,0,1,1.436,1.008Z" transform="translate(-363.122 -304.25)" fill="#263238"/>
          <path id="Path_1857" data-name="Path 1857" d="M413.044,365.3c-2.3-.608-5.036,1.623-5.51,3.954s.4,4.708,1.423,6.852a34.97,34.97,0,0,0,9.531,12.429,23.516,23.516,0,0,0,14.526,5.343c-.975-4.508.254-9.223-.287-13.805a17.946,17.946,0,0,0-15.9-15.742c-1.469-.16-3.166-.387-3.747.968" transform="translate(-359.515 -314.037)" fill="#62c9d5"/>
          <path id="Path_1858" data-name="Path 1858" d="M435.786,394.428a1.12,1.12,0,0,1-.327-.154,6.081,6.081,0,0,1-.862-.574,8.976,8.976,0,0,1-2.271-3.032c-.361-.715-.775-1.483-1.175-2.338l-1.236-2.732a25.381,25.381,0,0,0-1.516-2.919,22.173,22.173,0,0,0-2.091-2.845c-1.57-1.843-3.259-3.446-4.722-4.969a32.729,32.729,0,0,1-3.6-4.321,15.67,15.67,0,0,1-1.756-3.339,9.123,9.123,0,0,1-.307-.988,1.269,1.269,0,0,1-.073-.347s.16.468.494,1.289a17.3,17.3,0,0,0,1.83,3.279,34.337,34.337,0,0,0,3.627,4.241c1.469,1.509,3.166,3.106,4.755,4.969a23.376,23.376,0,0,1,2.11,2.885,25.5,25.5,0,0,1,1.523,2.965c.421.962.828,1.877,1.2,2.738s.788,1.63,1.135,2.344a9.35,9.35,0,0,0,2.124,3.025A11.548,11.548,0,0,0,435.786,394.428Z" transform="translate(-362.321 -314.589)" fill="#263238"/>
          <path id="Path_1859" data-name="Path 1859" d="M427.91,397.922a7.18,7.18,0,0,1,.214-1.549c.18-.942.474-2.244.868-3.653s.828-2.672,1.169-3.58a6.925,6.925,0,0,1,.628-1.429,8.421,8.421,0,0,1-.414,1.5c-.287.915-.668,2.184-1.069,3.593s-.728,2.672-.962,3.62a8.582,8.582,0,0,1-.434,1.5Z" transform="translate(-366.327 -321.843)" fill="#263238"/>
          <path id="Path_1860" data-name="Path 1860" d="M439.517,385.206a9.4,9.4,0,0,1-1.616-.367c-.988-.26-2.358-.614-3.874-.955s-2.912-.608-3.914-.8a9.965,9.965,0,0,1-1.623-.354,7.379,7.379,0,0,1,1.656.134c1.022.134,2.418.367,3.947.708s2.892.735,3.874,1.049a7.639,7.639,0,0,1,1.549.588Z" transform="translate(-366.519 -320.187)" fill="#263238"/>
          <path id="Path_1861" data-name="Path 1861" d="M415.15,385.345a9.626,9.626,0,0,1,.247-1.79c.207-1.1.528-2.6.955-4.248s.888-3.119,1.249-4.174a9.063,9.063,0,0,1,.668-1.683,11.045,11.045,0,0,1-.441,1.75c-.307,1.069-.728,2.545-1.155,4.188s-.781,3.132-1.042,4.214a10.467,10.467,0,0,1-.481,1.743Z" transform="translate(-362.089 -317.107)" fill="#263238"/>
          <path id="Path_1862" data-name="Path 1862" d="M430.79,371.33c0,.087-2.872-.147-6.4-.521s-6.392-.748-6.392-.815,2.872.147,6.4.521S430.8,371.243,430.79,371.33Z" transform="translate(-363.035 -315.955)" fill="#263238"/>
          <path id="Path_1863" data-name="Path 1863" d="M411.612,423.98c0,.087-10.078.16-22.507.16s-22.514-.074-22.514-.16,10.078-.16,22.514-.16S411.612,423.893,411.612,423.98Z" transform="translate(-345.961 -333.836)" fill="#455a64"/>
          <path id="Path_1864" data-name="Path 1864" d="M408.425,443.4c0,.087-6.792.16-15.167.16s-15.168-.073-15.168-.16,6.792-.16,15.168-.16S408.425,443.313,408.425,443.4Z" transform="translate(-349.78 -340.286)" fill="#455a64"/>
          <path id="Path_1865" data-name="Path 1865" d="M408.291,446.18c0,.087-6.679.16-14.9.16s-14.9-.073-14.9-.16,6.679-.16,14.9-.16S408.291,446.093,408.291,446.18Z" transform="translate(-349.913 -341.209)" fill="#455a64"/>
          <path id="Path_1866" data-name="Path 1866" d="M408.307,441.11c0,.093-7.026.16-15.688.16s-15.688-.067-15.688-.16,7.019-.16,15.688-.16S408.307,441.023,408.307,441.11Z" transform="translate(-349.395 -339.525)" fill="#455a64"/>
        </g>
        <g id="freepik--Labyrinth--inject-3" transform="translate(121.193 29.22)">
          <path id="Path_1867" data-name="Path 1867" d="M311.687,125.734c-2.433-11.771-14.426-50.024-66.147-47.844-25.69,1.078-39.878,13.237-47.266,23.248a57.863,57.863,0,0,0-10,21.719l-.056.325H159.57v-.4c0-.119,0-11.731,1.252-17.557l.793.159c-1.086,5.144-1.221,14.918-1.237,17h27.2a59.5,59.5,0,0,1,10.051-21.695c7.459-10.162,21.853-22.5,47.884-23.6,21.2-.888,38.174,4.9,50.412,17.208a63.015,63.015,0,0,1,16.535,31.27Z" transform="translate(-148.317 -39.129)" fill="#62c9d5"/>
          <path id="Path_1868" data-name="Path 1868" d="M261.193,311.379H218.3V189.224l.468.087c40.512,7.134,58.093-10.812,65-22.147,8.117-13.388,9.512-29.542,3.8-43.207C284,115.524,272.86,95.969,245.744,96.429c-13.269.23-31.1,4.415-40.71,23.05a55.2,55.2,0,0,0-5.834,22.527v.4h-53.8v-.388c-.048-4.534,0-19.911,0-20.062v-.444l6.634.7V132.1l38.84-.055A64.356,64.356,0,0,1,200.38,109.3c7-10.384,20.435-22.7,44.571-22.7h.793c17.676.19,32.261,6.4,42.185,17.977,10.693,12.468,13.927,28.932,12.381,39.728,0,.206-1.015,25.048-19.681,41.59-13.023,11.549-31.357,16.408-54.5,14.442v37.976h7.99V207.978l.428.04a84.607,84.607,0,0,0,21.592-1.633c10.891-2.235,25.92-7.728,35.669-21.227,17.478-24.271,17.668-37.992,17.8-48.011v-2.378l-.087-2h11.89v.357c0,.254,1.9,25-18.722,52.767-12.833,17.272-27.87,28.4-42.335,31.318l-.151-.793c14.268-2.877,29.13-13.9,41.852-31.016,19.079-25.682,18.73-48.716,18.588-51.855h-10.3l.048,1.2v2.378c-.143,10.122-.333,23.993-17.946,48.463-9.876,13.713-25.111,19.285-36.153,21.552a86.4,86.4,0,0,1-21.4,1.665v30.3h-9.543V199.473l.428.04c23.114,2.037,41.4-2.743,54.336-14.2,18.413-16.313,19.42-40.821,19.428-41.067,1.522-10.661-1.665-26.871-12.191-39.149-9.773-11.382-24.16-17.5-41.6-17.692-24.3-.262-37.722,12-44.713,22.329a63.056,63.056,0,0,0-9.512,22.789l-.055.333-40.274.055v-10l-5.049-.531V141.6h52.251a56.381,56.381,0,0,1,5.9-22.472c5.446-10.487,17.018-23.082,41.456-23.494h.967c26.863,0,38,19.547,41.559,28.028,5.834,13.9,4.391,30.327-3.86,43.929-5.881,9.694-19.46,24.152-48.09,24.16a101.084,101.084,0,0,1-17.224-1.585V310.587h42.1Z" transform="translate(-145.373 -41.118)" fill="#62c9d5"/>
          <path id="Path_1869" data-name="Path 1869" d="M272.782,299.085h-.793V227.747l.293-.079A110.345,110.345,0,0,0,309.458,207.8c16.939-13.729,37.128-38.959,37.128-81.262,0-33.236-13.475-59.924-38.84-77.2C286.749,35.07,261.511,30,246.284,30c-22.472,0-76.657,5.723-94.484,58.7a107.723,107.723,0,0,0-3.258,14.759l-.793-.111a108.588,108.588,0,0,1,3.266-14.854c17.993-53.5,72.6-59.274,95.221-59.274,15.338,0,40.758,5.1,61.914,19.467,25.65,17.438,39.212,44.388,39.212,77.862,0,42.621-20.363,68.057-37.445,81.881a112.017,112.017,0,0,1-37.151,19.911Z" transform="translate(-145.866 -29.22)" fill="#62c9d5"/>
          <path id="Path_1870" data-name="Path 1870" d="M269.96,255.312h-.793l.055-31.888.333-.055c.087,0,8.989-1.443,20.53-7.673,10.653-5.755,25.793-16.883,37.453-37.254,16.646-29.082,13.61-51.467,13.578-51.689C339.15,98.042,327.855,75.7,307.555,60.3c-21.2-16.091-45.641-19.507-58.315-20.117-9.908-.476-27.156,1.189-43.136,7.459-21.663,8.5-36.042,22.892-42.732,42.8l-.793-.254c6.769-20.125,21.306-34.678,43.191-43.263A113.671,113.671,0,0,1,249.24,39.41C262,40.02,286.622,43.476,308,59.694c20.49,15.544,31.88,38.087,33.862,66.995,0,.2,3.1,22.836-13.681,52.164-11.755,20.569-27.037,31.793-37.786,37.6a74.264,74.264,0,0,1-20.419,7.689Z" transform="translate(-148.941 -31.317)" fill="#62c9d5"/>
          <path id="Path_1871" data-name="Path 1871" d="M289.649,354.436H257.84v-.793h31.016L288.9,329h.793Z" transform="translate(-168.693 -91.38)" fill="#62c9d5"/>
          <path id="Path_1872" data-name="Path 1872" d="M255.611,346.434H247.09V290.41h8.917v48.978h-.793V291.2h-7.332v54.439h7.728Z" transform="translate(-166.464 -83.378)" fill="#62c9d5"/>
          <path id="Path_1873" data-name="Path 1873" d="M184.692,111.246H170.48v-.412c.46-14.926,6.611-24.707,11.692-30.279A39.545,39.545,0,0,1,192.682,72.2l-7.522-6.516.515-.594,8.473,7.3-.563.254c-.206.1-21.219,10.051-22.266,37.809h13.047c.626-2.774,5.636-22.8,19.246-28.076L199.174,77.7c-1.657.507-12.754,4.605-18.913,25.056l-.793-.23c6.817-22.448,19.222-25.507,19.745-25.618l.222-.048,5.6,5.858-.579.206c-14.545,5.081-19.3,27.774-19.38,28l-.063.317Z" transform="translate(-150.579 -36.658)" fill="#62c9d5"/>
          <path id="Path_1874" data-name="Path 1874" d="M213.924,74.643,196.24,58.2l.539-.587,17.137,15.94a35.5,35.5,0,0,1,7.316-4.756,61.605,61.605,0,0,1,23.359-6.056c21.4-1.506,36.628,2.536,43.39,6.539l5.874-9.837c-4.534-1.99-46.425-19.4-80.644.42l-.4-.69c36.406-21.077,81.326-.484,81.778-.27l.4.182-6.738,11.327-.341-.214c-6.476-4.011-21.687-8.148-43.263-6.627C224.1,65,214.281,74.286,214.193,74.382Z" transform="translate(-155.921 -33.465)" fill="#62c9d5"/>
          <path id="Path_1875" data-name="Path 1875" d="M287.913,288.931h-.793l1.2-67.542h.388c22.733-.166,54.495-32.641,63.586-58.117,12.682-35.55,2.378-60.447-8.513-75.072a85.978,85.978,0,0,0-26.641-23.336l-5.77,10.471c3.892,1.649,33.363,15.211,33.608,47.036l12.508.1v.793l-13.293-.1v-.4c0-33.632-33.188-46.727-33.521-46.861l-.428-.159,6.579-11.89.317.119a85.986,85.986,0,0,1,27.243,23.7c11.01,14.783,21.449,39.942,8.64,75.841-5.121,14.347-15.734,29.328-29.13,40.988-12.4,10.835-25.365,17.4-34.805,17.644Z" transform="translate(-174.765 -36.401)" fill="#62c9d5"/>
          <path id="Path_1876" data-name="Path 1876" d="M276.9,328.732H266.08l.008-.4,1.26-69.753-.032-4.645h9.765v66h-.793V254.723h-8.18l.032,3.86-1.252,69.357H276.9Z" transform="translate(-170.402 -75.814)" fill="#62c9d5"/>
          <path id="Path_1877" data-name="Path 1877" d="M365.025,239.107c-.674-.793-5.033-5.224-6.119-6.341h0l-.111-.119-.119-.111h0a.317.317,0,0,1-.1-.388l.3-.277c.087,0,.143,0,.333.135h0l.222.23h0c.412.38,1.165,1.149,2.671,2.679,2,2.029,3.171,3.266,3.519,3.686Z" transform="translate(-189.575 -71.24)" fill="#62c9d5"/>
          <rect id="Rectangle_1291" data-name="Rectangle 1291" width="7.871" height="0.793" transform="translate(145.419 19.587) rotate(-51.74)" fill="#62c9d5"/>
          <path id="Path_1878" data-name="Path 1878" d="M331.276,152.288H329.5V151.5c1.26.048,2.885,0,4.463,0s3.226-.04,4.5,0v.793c-1.26-.04-2.893,0-4.471,0Z" transform="translate(-183.552 -54.57)" fill="#62c9d5"/>
          <rect id="Rectangle_1292" data-name="Rectangle 1292" width="0.793" height="9.068" transform="translate(24.189 91.464)" fill="#62c9d5"/>
          <rect id="Rectangle_1293" data-name="Rectangle 1293" width="0.793" height="7.8" transform="translate(97.588 46.489)" fill="#62c9d5"/>
          <rect id="Rectangle_1294" data-name="Rectangle 1294" width="0.793" height="9.916" transform="matrix(0.401, -0.916, 0.916, 0.401, 169.215, 144.485)" fill="#62c9d5"/>
          <rect id="Rectangle_1295" data-name="Rectangle 1295" width="0.793" height="9.528" transform="translate(131.389 158.059) rotate(-37.38)" fill="#62c9d5"/>
          <rect id="Rectangle_1296" data-name="Rectangle 1296" width="9.654" height="0.793" transform="matrix(0.963, -0.268, 0.268, 0.963, 187.891, 70.025)" fill="#62c9d5"/>
          <path id="Path_1879" data-name="Path 1879" d="M291.972,434.773H237.2V393.1h.793V433.98h53.187V384.353H237.6v-.793h54.376Z" transform="translate(-164.414 -102.693)" fill="#62c9d5"/>
          <path id="Path_1880" data-name="Path 1880" d="M285.513,428.613h-40.37V404.064h32.522v14.648h-24V411.65H269.39v.793H254.457v5.477h22.416V404.857H245.936V427.82H284.72V396.273H237.7v-.793h47.813Z" transform="translate(-164.517 -105.164)" fill="#62c9d5"/>
          <rect id="Rectangle_1297" data-name="Rectangle 1297" width="0.793" height="8.624" transform="translate(90.003 323.052)" fill="#62c9d5"/>
          <rect id="Rectangle_1298" data-name="Rectangle 1298" width="6.563" height="0.793" transform="translate(120.599 304.06)" fill="#62c9d5"/>
          <rect id="Rectangle_1299" data-name="Rectangle 1299" width="0.793" height="7.181" transform="translate(95.686 299.296)" fill="#62c9d5"/>
          <rect id="Rectangle_1300" data-name="Rectangle 1300" width="7.839" height="0.793" transform="translate(73.183 311.035)" fill="#62c9d5"/>
        </g>
        <g id="freepik--Character--inject-3" transform="translate(2.42 -23.157)">
          <path id="Path_1881" data-name="Path 1881" d="M190.445,138.06l-4.8,1.193-1.988,1.768,2.646.672,5.826-1.672Z" transform="translate(-44.869 -128.766)" fill="#455a64"/>
          <path id="Path_1882" data-name="Path 1882" d="M207.151,142.085l-7.265-8.855h-7.4l-4.688,5.483a2.111,2.111,0,0,0,.288.877,3.413,3.413,0,0,0-2.563.288l4.263,11.3L197.9,159.3l10.267-2.865ZM195.965,146.2l-3.8-1.8a10.5,10.5,0,0,0-2.742-4.195,1.835,1.835,0,0,0,.384,0,4.592,4.592,0,0,0,1.439-.493c3.249-1.617,4.112-1.974,4.112-1.974l2.07,3.783Z" transform="translate(-44.179 -130.556)" fill="#ffbe9d"/>
          <path id="Path_1883" data-name="Path 1883" d="M198.374,139.322a10.475,10.475,0,0,1-2.495-2.742,9.98,9.98,0,0,1-1.919-3.208c.151-.123,1.275,1.124,2.495,2.742A9.676,9.676,0,0,1,198.374,139.322Z" transform="translate(-41.05 -130.507)" fill="#eb996e"/>
          <path id="Path_1884" data-name="Path 1884" d="M195.921,144.6a17.042,17.042,0,0,1-4.112-1.179h-.151v-.178a11.526,11.526,0,0,0-.891-2.193,5.675,5.675,0,0,0-3.249-2.933,5.827,5.827,0,0,0-1.878.123,1.055,1.055,0,0,1,.439-.356,2.742,2.742,0,0,1,1.508-.274,5.675,5.675,0,0,1,3.811,3.1,9.762,9.762,0,0,1,.9,2.371l-.206-.233A18.519,18.519,0,0,1,195.921,144.6Z" transform="translate(-44.135 -128.936)" fill="#eb996e"/>
          <path id="Path_1885" data-name="Path 1885" d="M189.9,141.446l16.915-4.482a1.22,1.22,0,0,0,.85-1.535h0a1.206,1.206,0,0,0-1.371-.822l-18.012,4.88a7.909,7.909,0,0,1,1.618,1.96Z" transform="translate(-43.156 -130.054)" fill="#455a64"/>
          <path id="Path_1886" data-name="Path 1886" d="M95.037,295.552,105.29,290l.384,3.811-5.154,19.383a41.3,41.3,0,0,1-3.975-8.691s-1.645-7.21-1.645-7.731a5.155,5.155,0,0,1,.165-1.22" transform="translate(-77.779 -72.43)" fill="#ffbe9d"/>
          <path id="Path_1887" data-name="Path 1887" d="M156.24,441.356l1.741,41.26,22.275-.493L178.6,440.78Z" transform="translate(-55.036 -16.525)" fill="#455a64"/>
          <path id="Path_1888" data-name="Path 1888" d="M166.1,480.9c.192,0-.151-9.047-.768-20.178s-1.261-20.15-1.439-20.137.151,9.033.768,20.178S165.922,480.9,166.1,480.9Z" transform="translate(-52.216 -16.595)" fill="#263238"/>
          <path id="Path_1889" data-name="Path 1889" d="M157.43,469.386l22.275-.576.11,2.92-22.275.493Z" transform="translate(-54.595 -6.132)" fill="#263238"/>
          <path id="Path_1890" data-name="Path 1890" d="M179.324,462.957a3.332,3.332,0,0,0-.617-.877,16.037,16.037,0,0,0-5.785-4.277,11.966,11.966,0,0,0-5.25-.96,11.789,11.789,0,0,0-8.5,4.181,10.253,10.253,0,0,0-1.522,2.495,2.658,2.658,0,0,0-.3,1.028,22.078,22.078,0,0,1,2.18-3.208,11.857,11.857,0,0,1,8.225-3.811,13.626,13.626,0,0,1,8.622,2.906C178.268,461.86,179.228,463.039,179.324,462.957Z" transform="translate(-54.624 -10.573)" fill="#263238"/>
          <g id="Group_1904" data-name="Group 1904" transform="translate(101.739 441.5)" opacity="0.3">
            <path id="Path_1891" data-name="Path 1891" d="M156.63,453.36l.329,3.674h22.33l-.137-3.674Z" transform="translate(-156.63 -453.36)"/>
          </g>
          <path id="Path_1892" data-name="Path 1892" d="M108.443,443.425l-.8,24.742s-24.893,9.417-25.058,14.078l48.635-.617L132.363,443Z" transform="translate(-82.343 -15.702)" fill="#455a64"/>
          <path id="Path_1893" data-name="Path 1893" d="M112.232,459.639a2.015,2.015,0,0,1,1.439,2.262,1.933,1.933,0,0,1-2.234,1.439,2.111,2.111,0,0,1-1.508-2.4,2.015,2.015,0,0,1,2.481-1.247" transform="translate(-72.219 -9.544)" fill="#e0e0e0"/>
          <path id="Path_1894" data-name="Path 1894" d="M131.292,472.025V468.9l-47.251,1.508a3.7,3.7,0,0,0-1.631,2.454Z" transform="translate(-82.41 -6.099)" fill="#263238"/>
          <path id="Path_1895" data-name="Path 1895" d="M100.55,461.542c0,.247,1.22.329,2.413,1.069s1.851,1.727,2.07,1.631-.178-1.48-1.645-2.344S100.5,461.323,100.55,461.542Z" transform="translate(-75.685 -8.912)" fill="#263238"/>
          <path id="Path_1896" data-name="Path 1896" d="M96.83,463.14c0,.233,1,.617,1.837,1.618s1.1,2.056,1.371,2.042.37-1.371-.7-2.591S96.83,462.976,96.83,463.14Z" transform="translate(-77.063 -8.262)" fill="#263238"/>
          <path id="Path_1897" data-name="Path 1897" d="M95.344,468.778c.219,0,.521-1.165-.123-2.454s-1.782-1.8-1.878-1.6.617.891,1.138,1.974S95.111,468.764,95.344,468.778Z" transform="translate(-78.36 -7.663)" fill="#263238"/>
          <path id="Path_1898" data-name="Path 1898" d="M100.773,457.5c.1.219,1.193-.137,2.55-.082s2.426.466,2.55.26-.918-1.042-2.522-1.083S100.649,457.317,100.773,457.5Z" transform="translate(-75.605 -10.663)" fill="#263238"/>
          <path id="Path_1899" data-name="Path 1899" d="M100,454.429a4.536,4.536,0,0,0,2.454-.068,10.888,10.888,0,0,0,2.55-.85,11.94,11.94,0,0,0,1.371-.781,2.744,2.744,0,0,0,.726-.6,1.042,1.042,0,0,0,.082-1.275,1.371,1.371,0,0,0-1.056-.521,3.577,3.577,0,0,0-.932.151,8.568,8.568,0,0,0-1.508.562,8.227,8.227,0,0,0-2.234,1.535c-1.11,1.083-1.48,1.988-1.371,2.029s.644-.685,1.782-1.576a9.721,9.721,0,0,1,2.166-1.289,7.609,7.609,0,0,1,1.371-.466c.521-.151.96-.164,1.1,0s0,.123,0,.288a2.743,2.743,0,0,1-.535.425,12.952,12.952,0,0,1-1.289.781,13.136,13.136,0,0,1-2.358.959A17.685,17.685,0,0,0,100,454.429Z" transform="translate(-75.888 -12.984)" fill="#263238"/>
          <g id="Group_1905" data-name="Group 1905" transform="translate(25.455 441.801)" opacity="0.3">
            <path id="Path_1900" data-name="Path 1900" d="M125.119,453.58l-.164,5.7-23.975.37.219-5.168Z" transform="translate(-100.98 -453.58)"/>
          </g>
          <path id="Path_1901" data-name="Path 1901" d="M111.394,160.174l11.789,49.9,28.046-3.729-2.056-15.915s10.226.164,11.117-9.458c.288-3.208-2.207-17.381-4.661-30.239a22.618,22.618,0,0,0-26.73-17.916h0a22.618,22.618,0,0,0-17.5,27.361Z" transform="translate(-71.888 -130.88)" fill="#ffbe9d"/>
          <path id="Path_1902" data-name="Path 1902" d="M138.123,131.431c2.413.877,1.8,2.07,2.3,3.153s2.618,1,4.7,1.823,6.854,4.647,8.129,7.032.507,2.673.274,4.016,1.686,8.074,1.96,9.266c.521,2.262,1.522,8.924,1.522,8.924L155,166.7s-1.055-7.293-3.427-7.251-2.961,2.522-3.071,3.194a10.667,10.667,0,0,0-1.535,3.372c-.521,3.18-.288,7.827-.521,10.747-.37,4.51-5.319,11.186-5.319,11.186l-21.932,2.029s-9.938-22.481-10.582-28.348,1.6-13.708,4.894-19a25.784,25.784,0,0,1,5.812-5.908,43.183,43.183,0,0,1,4.99-2.975,23.934,23.934,0,0,1,12.214-2.413Z" transform="translate(-72.737 -131.28)" fill="#263238"/>
          <path id="Path_1903" data-name="Path 1903" d="M144.716,166.273a1.263,1.263,0,0,1-.48.809,3.345,3.345,0,0,1-2.344.973,4.606,4.606,0,0,1-3.413-1.645,8.032,8.032,0,0,1-1.727-4.263,13.708,13.708,0,0,1,1.247-8.1,4.784,4.784,0,0,1,1.713-1.864,1.563,1.563,0,0,1,.864-.3,6.182,6.182,0,0,0-2.138,2.4,14.476,14.476,0,0,0-.973,7.772,7.553,7.553,0,0,0,1.522,3.92,4.112,4.112,0,0,0,2.906,1.576,3.386,3.386,0,0,0,2.166-.672C144.5,166.534,144.661,166.246,144.716,166.273Z" transform="translate(-62.319 -123.641)" fill="#eb996e"/>
          <path id="Path_1904" data-name="Path 1904" d="M141.272,161.654c.069,0-.466.411-1.22,0a3.18,3.18,0,0,1-1.261-2.659,4.277,4.277,0,0,1,.946-2.742c.48-.589.918-.768.973-.7a7,7,0,0,0-1.193,3.427,3.043,3.043,0,0,0,.822,2.248C140.806,161.571,141.258,161.5,141.272,161.654Z" transform="translate(-61.506 -122.284)" fill="#eb996e"/>
          <path id="Path_1905" data-name="Path 1905" d="M108.148,279.35,97.84,322.242V522.635l30.9.918,2.742-119.148,15.531-73.734,14.3,75.776L175.659,520.51l27.511-.795s-4.674-48.279-3.852-61.767-4.811-56-4.811-56,.877-70.965-.589-79.5c-1.659-9.6-3.057-40.739-3.057-41.959Z" transform="translate(-76.689 -76.379)" fill="#263238"/>
          <path id="Path_1906" data-name="Path 1906" d="M142.731,317.1a46.769,46.769,0,0,1-5,1.1c-3.084.63-7.334,1.6-11.953,2.947s-8.746,2.742-11.693,3.92a34.026,34.026,0,0,1-4.811,1.755,5.483,5.483,0,0,1,1.206-.672c.781-.4,1.96-.932,3.413-1.549a107.039,107.039,0,0,1,11.679-4.112,109.817,109.817,0,0,1,12.077-2.742c1.563-.26,2.838-.425,3.715-.521a4.537,4.537,0,0,1,1.371-.123Z" transform="translate(-72.451 -62.385)" fill="#455a64"/>
          <path id="Path_1907" data-name="Path 1907" d="M164.545,314.34a4.52,4.52,0,0,1-1.124.535c-.726.3-1.823.685-3.18,1.124a63.057,63.057,0,0,1-21.932,2.741c-1.371-.069-2.563-.178-3.358-.288a4.015,4.015,0,0,1-1.22-.247,44.453,44.453,0,0,1,4.606,0,84.01,84.01,0,0,0,10.966-.631,82.4,82.4,0,0,0,10.829-2.138,43.691,43.691,0,0,1,4.414-1.1Z" transform="translate(-63.382 -63.405)" fill="#455a64"/>
          <path id="Path_1908" data-name="Path 1908" d="M162.3,345.974c-.137.137-6.648-6.141-14.558-14.023s-14.2-14.393-14.05-14.53,6.648,6.141,14.558,14.023S162.45,345.837,162.3,345.974Z" transform="translate(-63.397 -62.264)" fill="#455a64"/>
          <path id="Path_1909" data-name="Path 1909" d="M104.01,287.013l13.2-.466,1.618-7.018-12.968-.178Z" transform="translate(-74.401 -76.379)" fill="#455a64"/>
          <path id="Path_1910" data-name="Path 1910" d="M118.21,279.52l-1.22,7.43h46.36l.123-6.813Z" transform="translate(-69.589 -76.316)" fill="#455a64"/>
          <path id="Path_1911" data-name="Path 1911" d="M153.8,280.01v6.758h16.573l-.288-6.525Z" transform="translate(-55.94 -76.134)" fill="#455a64"/>
          <path id="Path_1912" data-name="Path 1912" d="M115.119,401.789c-.192,0-2.577-7.334-5.319-16.449s-4.839-16.655-4.647-16.71,2.577,7.334,5.332,16.449S115.311,401.734,115.119,401.789Z" transform="translate(-73.982 -43.276)" fill="#455a64"/>
          <path id="Path_1913" data-name="Path 1913" d="M162.724,393.176a98.843,98.843,0,0,1-6.717-9.6,96.71,96.71,0,0,1-6.127-10.02,95.464,95.464,0,0,1,6.73,9.6A97.913,97.913,0,0,1,162.724,393.176Z" transform="translate(-57.394 -41.448)" fill="#455a64"/>
          <path id="Path_1914" data-name="Path 1914" d="M115.7,193.64s-17.9,7.471-20.178,15.38c-2.509,8.773-5.086,28.073-5.086,28.073v50.828s-3.852,17.135-3.125,24.345,8.526,20,8.526,20l12.625-6.127,3.948-17.889.74-54.57-1.371-27.045Z" transform="translate(-80.625 -108.158)" fill="#c90e64"/>
          <path id="Path_1915" data-name="Path 1915" d="M109.835,199.81l11.9-9.513.576-8.1,30.637-5.2,3.5,6.854,13.708,3.715,9.212-2.742,2.248,5.25,11.46,35.133-8.663,51.555s5.14,27.415,4.482,41.644L106.2,317.271c-2.138-2.618-2.467-7.293-2.042-12.817l-1.11-69.279Z" transform="translate(-74.757 -114.328)" fill="#c90e64"/>
          <path id="Path_1916" data-name="Path 1916" d="M176.759,191.1a2.359,2.359,0,0,1-.7.192l-2.056.439-7.539,1.494c-6.374,1.275-15.079,3.112-24.784,5.373s-18.327,4.537-24.592,6.237l-7.347,2.015-2.029.521a2.207,2.207,0,0,1-.713.137,3.593,3.593,0,0,1,.672-.274l1.988-.658c1.727-.562,4.249-1.371,7.361-2.234,6.237-1.823,14.9-4.112,24.564-6.443s18.451-4.03,24.852-5.168c3.194-.576,5.785-1.014,7.594-1.275l2.07-.3A2.892,2.892,0,0,1,176.759,191.1Z" transform="translate(-73.293 -109.1)" fill="#263238"/>
          <path id="Path_1917" data-name="Path 1917" d="M118.55,260.454a16.7,16.7,0,0,1,1.8-1.631l4.976-4.29c4.181-3.633,9.87-8.759,15.887-14.695s11.24-11.556,14.928-15.682l4.359-4.907a15.778,15.778,0,0,1,1.659-1.768,17.81,17.81,0,0,1-1.439,1.946c-.96,1.22-2.385,2.947-4.195,5.058-3.605,4.222-8.773,9.911-14.8,15.86s-11.8,11.035-16.079,14.571c-2.125,1.782-3.879,3.18-5.127,4.112A15.076,15.076,0,0,1,118.55,260.454Z" transform="translate(-69.01 -99.319)" fill="#263238"/>
          <path id="Path_1918" data-name="Path 1918" d="M173.023,235.15a3.743,3.743,0,0,1-.425.562l-1.289,1.508c-1.138,1.371-2.837,3.166-4.976,5.4a215.213,215.213,0,0,1-37.2,30.774c-2.591,1.686-4.729,3-6.223,3.879-.7.384-1.261.713-1.727.987a2.209,2.209,0,0,1-.631.3,5.859,5.859,0,0,1,.548-.425l1.659-1.11c1.453-.932,3.537-2.317,6.086-4.044,5.113-3.468,12.035-8.471,19.3-14.475s13.461-11.871,17.82-16.244c2.18-2.193,3.934-3.975,5.127-5.223l1.371-1.371C172.818,235.3,173,235.137,173.023,235.15Z" transform="translate(-68.269 -92.767)" fill="#263238"/>
          <path id="Path_1919" data-name="Path 1919" d="M146.91,280.224a84.983,84.983,0,0,0,5.7-9.376,83.364,83.364,0,0,0,3.742-10.308,11.173,11.173,0,0,1-.466,3.221,37.009,37.009,0,0,1-2.632,7.4,36.586,36.586,0,0,1-4.112,6.676,11.3,11.3,0,0,1-2.234,2.385Z" transform="translate(-58.495 -83.353)" fill="#263238"/>
          <path id="Path_1920" data-name="Path 1920" d="M159,197.558l30.952-1.261,15.079-7.21,1.686-21.178-1.371-14.983,13.022-3.866s10.815,27.758,10.459,37.861c-.123,3.4-.329,6.744-.535,9.705a18.067,18.067,0,0,1-9.6,14.64L172.269,235.6,159,197.558" transform="translate(-54.012 -124.687)" fill="#c90e64"/>
          <path id="Path_1921" data-name="Path 1921" d="M105.786,230.963a27.964,27.964,0,0,1-1.8-6.127,28.787,28.787,0,0,1-1.11-6.306,28.416,28.416,0,0,1,1.809,6.127A28.868,28.868,0,0,1,105.786,230.963Z" transform="translate(-74.82 -98.929)" fill="#263238"/>
          <path id="Path_1922" data-name="Path 1922" d="M105.224,220.18a3.647,3.647,0,0,1,.1.823c0,.631.069,1.371.123,2.385.082,2.166.178,5.127.315,8.759.192,7.484.466,17.656.768,28.91a99.217,99.217,0,0,1-.4,15.942c-.315,2.454-1.014,4.715-1.371,6.854a18.31,18.31,0,0,0-.219,3.1c0,1-.137,1.974-.206,2.906a32.624,32.624,0,0,0,.233,8.677,6.264,6.264,0,0,0,.877,2.152c.329.411.548.6.535.63s0,0-.178-.123a2.4,2.4,0,0,1-.466-.425,5.579,5.579,0,0,1-1.028-2.166,29.623,29.623,0,0,1-.48-8.773c0-.932.11-1.892.151-2.906a19.519,19.519,0,0,1,.192-3.167c.356-2.193,1.014-4.4,1.3-6.854a103.055,103.055,0,0,0,.343-15.846c-.219-11.254-.411-21.425-.562-28.91,0-3.633,0-6.607-.082-8.759V221A4.384,4.384,0,0,1,105.224,220.18Z" transform="translate(-74.518 -98.318)" fill="#263238"/>
          <path id="Path_1923" data-name="Path 1923" d="M168.151,210.372a20.278,20.278,0,0,1-1.453-3.4c-.809-2.138-1.851-5.113-2.92-8.43s-1.96-6.347-2.55-8.554a18.727,18.727,0,0,1-.809-3.619,19.424,19.424,0,0,1,1.289,3.468c.781,2.4,1.713,5.291,2.742,8.485s1.96,6.073,2.742,8.471A18.835,18.835,0,0,1,168.151,210.372Z" transform="translate(-53.486 -110.853)" fill="#263238"/>
          <path id="Path_1924" data-name="Path 1924" d="M100.37,271.9a13,13,0,0,1-7.95-9.691,36.188,36.188,0,0,0,3.276,5.483A36.494,36.494,0,0,0,100.37,271.9Z" transform="translate(-78.699 -82.734)" fill="#263238"/>
          <path id="Path_1925" data-name="Path 1925" d="M110.47,284.641a8.225,8.225,0,0,1-1.933,2.454,18.081,18.081,0,0,1-13.941,4.99,8.224,8.224,0,0,1-3.057-.685c0-.11,1.193.137,3.084.178a20.054,20.054,0,0,0,13.571-4.853C109.621,285.491,110.374,284.559,110.47,284.641Z" transform="translate(-79.025 -74.419)" fill="#263238"/>
          <path id="Path_1926" data-name="Path 1926" d="M208.231,154.915c0,.206-3.4.713-7.416,2.07s-7.046,2.988-7.155,2.742a27.238,27.238,0,0,1,14.571-4.866Z" transform="translate(-41.161 -122.537)" fill="#263238"/>
          <path id="Path_1927" data-name="Path 1927" d="M201.621,150.882c0,.1-.288.219-.4.631a.631.631,0,1,0,1.056-.178c-.247-.343-.576-.37-.589-.466s.411-.315.946.123a1.193,1.193,0,0,1,.439,1.069,1.206,1.206,0,0,1-1.042,1.014,1.179,1.179,0,0,1-1.275-1.768C201.155,150.717,201.635,150.786,201.621,150.882Z" transform="translate(-38.595 -124.069)" fill="#263238"/>
          <path id="Path_1928" data-name="Path 1928" d="M151.441,182a4.948,4.948,0,0,1-1.371.356l-3.715.7L134.1,185.292l-12.255,2.317-3.715.672a5.689,5.689,0,0,1-1.371.164,5.058,5.058,0,0,1,1.371-.439c.864-.233,2.111-.535,3.674-.891,3.112-.726,7.43-1.631,12.214-2.522s9.143-1.59,12.337-2.029c1.576-.219,2.865-.384,3.756-.48a5.851,5.851,0,0,1,1.33-.082Z" transform="translate(-69.674 -112.476)" fill="#263238"/>
          <path id="Path_1929" data-name="Path 1929" d="M101.768,224.793a4.112,4.112,0,0,1-.315-1.069,22.967,22.967,0,0,1-.384-2.975,59.27,59.27,0,0,1,.343-9.87c.4-3.824.918-7.279,1.261-9.76a27.732,27.732,0,0,1,.631-4.03,19.013,19.013,0,0,1-.137,4.112c-.206,2.509-.644,5.963-1.042,9.774a80.876,80.876,0,0,0-.548,9.774C101.617,223.231,101.891,224.766,101.768,224.793Z" transform="translate(-75.518 -106.879)" fill="#263238"/>
          <path id="Path_1930" data-name="Path 1930" d="M126.2,246.323c-.178-.1,4.222-8.787,9.815-19.438s10.281-19.191,10.459-19.095-4.222,8.787-9.828,19.438S126.38,246.46,126.2,246.323Z" transform="translate(-66.175 -102.912)" fill="#263238"/>
          <path id="Path_1931" data-name="Path 1931" d="M175.061,200.13a17.828,17.828,0,0,1-1.179,3.016c-.768,1.837-1.782,4.4-2.742,7.293s-1.618,5.483-2.07,7.5a18.769,18.769,0,0,1-.809,3.125,12.024,12.024,0,0,1,.315-3.235,56.509,56.509,0,0,1,1.878-7.608,53.09,53.09,0,0,1,2.947-7.279,12.516,12.516,0,0,1,1.659-2.81Z" transform="translate(-50.581 -105.752)" fill="#263238"/>
          <path id="Path_1932" data-name="Path 1932" d="M102.946,212.21a13.49,13.49,0,0,1-1.755.48c-1.083.274-2.577.658-4.222,1.151s-3.1.973-4.112,1.371a12.6,12.6,0,0,1-1.727.562,8.79,8.79,0,0,1,1.659-.754,37.711,37.711,0,0,1,4.112-1.371c1.6-.425,3.153-.85,4.263-1.069A10.37,10.37,0,0,1,102.946,212.21Z" transform="translate(-79.177 -101.273)" fill="#e0e0e0"/>
          <path id="Path_1933" data-name="Path 1933" d="M148.632,214.23c0,.069-9.719,2.947-21.754,6.415S105,226.869,105,226.8s9.719-2.961,21.768-6.429S148.6,214.148,148.632,214.23Z" transform="translate(-74.034 -100.524)" fill="#e0e0e0"/>
          <path id="Path_1934" data-name="Path 1934" d="M176.329,205.79c0,.069-8.691,3.29-19.451,7.183s-19.52,6.991-19.547,6.922,8.677-3.29,19.451-7.2S176.3,205.708,176.329,205.79Z" transform="translate(-62.047 -103.653)" fill="#e0e0e0"/>
          <path id="Path_1935" data-name="Path 1935" d="M186.07,195.54l-.85.247-2.454.658-9.047,2.385c-7.635,2-18.2,4.743-29.91,7.635s-22.33,5.387-30.034,7.1l-9.143,1.974-2.495.507c-.576.123-.877.164-.877.164l.864-.219,2.481-.562,9.116-2.07c7.7-1.755,18.327-4.277,30.02-7.169l29.924-7.553,9.075-2.3,2.467-.6Z" transform="translate(-75.421 -107.453)" fill="#e0e0e0"/>
          <path id="Path_1936" data-name="Path 1936" d="M166.384,184c0,.082-13.009,3.386-29.088,7.375s-29.143,7.169-29.156,7.087,12.995-3.372,29.088-7.361S166.37,183.918,166.384,184Z" transform="translate(-72.87 -111.733)" fill="#e0e0e0"/>
          <path id="Path_1937" data-name="Path 1937" d="M172.5,184.4a.918.918,0,0,1,0,.26l.1.74c.068.631.151,1.563.219,2.742a75.954,75.954,0,0,1,0,9.006,73.45,73.45,0,0,1-1.151,8.938c-.219,1.138-.411,2.042-.576,2.742a3.309,3.309,0,0,1-.178.727c-.055.233-.082.247-.082.233v-.247l.123-.74q.219-1.193.493-2.673c.384-2.275.822-5.483,1.056-8.924a88.549,88.549,0,0,0,.11-8.979c0-1.014-.1-1.905-.137-2.742v-.74A1.288,1.288,0,0,1,172.5,184.4Z" transform="translate(-49.626 -111.584)" fill="#e0e0e0"/>
          <path id="Path_1938" data-name="Path 1938" d="M189.48,208.378v-.26l-.11-.74c-.082-.658-.206-1.59-.4-2.742a71.641,71.641,0,0,0-1.988-8.91,75.374,75.374,0,0,0-3.139-8.581c-.48-1.069-.877-1.933-1.165-2.522l-.315-.685a1.98,1.98,0,0,1-.1-.247s.069,0,.151.219a3.978,3.978,0,0,0,.37.658c.315.576.74,1.371,1.234,2.495a61.572,61.572,0,0,1,3.235,8.581,63.853,63.853,0,0,1,1.919,8.965c.165,1.165.26,2.111.3,2.742v.754A1.29,1.29,0,0,1,189.48,208.378Z" transform="translate(-45.384 -111.847)" fill="#e0e0e0"/>
          <path id="Path_1939" data-name="Path 1939" d="M203.289,199.9a8.358,8.358,0,0,1-.356-.891l-.9-2.454c-.8-2.07-1.96-4.88-3.468-7.909a85.909,85.909,0,0,0-4.236-7.512c-.507-.809-.987-1.549-1.371-2.207a7.2,7.2,0,0,1-.493-.822,7.386,7.386,0,0,1,.589.754c.37.493.877,1.234,1.494,2.166a74.007,74.007,0,0,1,4.318,7.5,72.825,72.825,0,0,1,3.4,7.964c.37,1.042.644,1.892.822,2.481a5.279,5.279,0,0,1,.206.932Z" transform="translate(-41.606 -113.92)" fill="#e0e0e0"/>
          <path id="Path_1940" data-name="Path 1940" d="M214.81,174.277a3.576,3.576,0,0,1-.85-.11l-2.289-.411c-1.933-.343-4.606-.781-7.567-1.193s-5.661-.685-7.608-.877l-2.317-.219a6.412,6.412,0,0,1-.85-.11,3.385,3.385,0,0,1,.85,0,17.589,17.589,0,0,1,2.33.123c1.96.137,4.661.4,7.635.809s5.648.877,7.567,1.275c.96.192,1.741.356,2.275.493a5.855,5.855,0,0,1,.822.219Z" transform="translate(-41.284 -116.43)" fill="#e0e0e0"/>
          <path id="Path_1941" data-name="Path 1941" d="M211.179,159.9h-2.536a37.553,37.553,0,0,0-6.086.521,39.424,39.424,0,0,0-5.908,1.48l-1.741.6a2.891,2.891,0,0,1-.658.219,2.742,2.742,0,0,1,.617-.315c.4-.192.987-.425,1.727-.7a32.98,32.98,0,0,1,5.935-1.576,33.992,33.992,0,0,1,6.127-.439,18.661,18.661,0,0,1,1.864.11,2.441,2.441,0,0,1,.658.1Z" transform="translate(-40.943 -120.747)" fill="#e0e0e0"/>
          <path id="Path_1942" data-name="Path 1942" d="M135.768,231c0,.082-6.758,1.659-15.079,3.537s-15.216,3.317-15.229,3.317,6.758-1.659,15.079-3.537S135.754,231,135.768,231Z" transform="translate(-73.864 -94.306)" fill="#e0e0e0"/>
          <path id="Path_1943" data-name="Path 1943" d="M137.162,233.689a37.541,37.541,0,0,1-4.8-.164,37.511,37.511,0,0,1-4.784-.452,44.764,44.764,0,0,1,4.8.165A45.686,45.686,0,0,1,137.162,233.689Z" transform="translate(-65.662 -93.541)" fill="#e0e0e0"/>
          <path id="Path_1944" data-name="Path 1944" d="M176.3,221.211s-7.827,2.166-17.518,4.674-17.573,4.482-17.587,4.4,7.813-2.166,17.518-4.674S176.268,221.128,176.3,221.211Z" transform="translate(-60.616 -97.936)" fill="#e0e0e0"/>
          <path id="Path_1945" data-name="Path 1945" d="M123.669,247.681c0,.082-3.92.85-8.8,1.714S106,250.861,106,250.861s3.934-.836,8.814-1.7S123.656,247.613,123.669,247.681Z" transform="translate(-73.663 -88.123)" fill="#e0e0e0"/>
          <path id="Path_1946" data-name="Path 1946" d="M163.808,240c0,.069-8.924,1.563-19.958,3.317s-20,3.125-20,3.043,8.924-1.563,19.958-3.317S163.808,240,163.808,240Z" transform="translate(-67.045 -90.969)" fill="#e0e0e0"/>
          <path id="Path_1947" data-name="Path 1947" d="M168.42,241.007a2.124,2.124,0,0,1-.617.1l-1.659.151c-1.371.123-3.331.3-5.483.576s-4.112.562-5.483.781l-1.645.274a2,2,0,0,1-.6,0l.589-.164c.384-.1.932-.219,1.631-.356,1.371-.274,3.3-.6,5.483-.877s4.112-.425,5.483-.493h1.672A2.737,2.737,0,0,1,168.42,241.007Z" transform="translate(-56.263 -90.605)" fill="#e0e0e0"/>
          <path id="Path_1948" data-name="Path 1948" d="M139.425,260.15a2.011,2.011,0,0,1-.329.151l-.96.411c-.836.343-2.07.809-3.591,1.371a95.585,95.585,0,0,1-24.756,5.072c-1.618.11-2.92.165-3.838.178h.027c.9,0,2.207-.137,3.824-.26a110.747,110.747,0,0,0,12.5-1.8A108.607,108.607,0,0,0,134.5,262c1.535-.507,2.742-.946,3.619-1.261l.973-.356Z" transform="translate(-74.19 -83.498)" fill="#e0e0e0"/>
          <path id="Path_1949" data-name="Path 1949" d="M177.953,254.48a4.105,4.105,0,0,1-.493.192l-1.439.493c-1.261.439-3.084,1.028-5.346,1.727-4.537,1.371-10.843,3.166-17.82,4.811s-13.5,2.81-18.176,3.55c-2.344.384-4.249.658-5.565.822l-1.508.192a4.975,4.975,0,0,1-.535,0l.521-.1,1.508-.247,5.483-.9c4.674-.8,11.1-2,18.149-3.646s13.351-3.372,17.9-4.729l5.36-1.618,1.467-.452Z" transform="translate(-65.851 -85.6)" fill="#e0e0e0"/>
          <path id="Path_1950" data-name="Path 1950" d="M165.156,271.42l-.6.123-1.741.3c-1.522.247-3.728.589-6.456.946-5.483.74-13.022,1.563-21.412,2.015s-16.011.466-21.507.315c-2.742-.068-4.976-.164-6.511-.26l-1.782-.1h1.8c1.535,0,3.756.123,6.511.164,5.483.1,13.1,0,21.494-.4s15.942-1.234,21.4-1.919c2.742-.343,4.935-.644,6.456-.864l1.768-.247Z" transform="translate(-74.205 -79.319)" fill="#e0e0e0"/>
          <path id="Path_1951" data-name="Path 1951" d="M169.971,269.172a3.279,3.279,0,0,1-.754,0h-8.841c-2.673,0-5.044.137-6.785.233l-2.056.1a3.562,3.562,0,0,1-.754,0,4.887,4.887,0,0,1,.754-.11l2.042-.192c1.741-.137,4.112-.274,6.854-.315s5.058,0,6.854.069l2.056.123Z" transform="translate(-57.06 -80.265)" fill="#e0e0e0"/>
          <path id="Path_1952" data-name="Path 1952" d="M111.032,229.162c0,.069-4.894,1.014-10.966,2.1S89.1,233.164,89.1,233.082s4.894-1.014,10.966-2.1S111.019,229.079,111.032,229.162Z" transform="translate(-79.93 -94.99)" fill="#e0e0e0"/>
          <path id="Path_1953" data-name="Path 1953" d="M110.1,244.853c0,.069-4.565.589-10.212,1.138s-10.253.932-10.253.85,4.565-.589,10.226-1.138S110.1,244.771,110.1,244.853Z" transform="translate(-79.733 -89.174)" fill="#e0e0e0"/>
          <path id="Path_1954" data-name="Path 1954" d="M111.65,257.469c0,.082-4.743.288-10.61.466s-10.61.26-10.61.178,4.743-.288,10.61-.466S111.65,257.386,111.65,257.469Z" transform="translate(-79.436 -84.504)" fill="#e0e0e0"/>
          <path id="Path_1955" data-name="Path 1955" d="M108.15,274.309a4.384,4.384,0,0,1-.781,0,13.178,13.178,0,0,1-2.111-.137A44.359,44.359,0,0,1,91.7,270.745c-.822-.356-1.48-.658-1.919-.891a2.742,2.742,0,0,1-.672-.384,4.415,4.415,0,0,1,.713.288c.466.192,1.124.48,1.96.809a54.493,54.493,0,0,0,6.607,2.152,55.285,55.285,0,0,0,6.854,1.261l2.1.219a4.59,4.59,0,0,1,.809.11Z" transform="translate(-79.926 -80.042)" fill="#e0e0e0"/>
          <path id="Path_1956" data-name="Path 1956" d="M109.372,277.32a5.826,5.826,0,0,1-.7.562c-.466.356-1.151.836-2.015,1.371a56.583,56.583,0,0,1-14.6,6.909c-1,.288-1.809.521-2.371.644a7.562,7.562,0,0,1-.877.192,5.125,5.125,0,0,1,.85-.3c.562-.165,1.371-.411,2.33-.74a65.484,65.484,0,0,0,14.558-6.854c.877-.548,1.576-1.014,2.056-1.371A4.854,4.854,0,0,1,109.372,277.32Z" transform="translate(-80.037 -77.132)" fill="#e0e0e0"/>
          <path id="Path_1957" data-name="Path 1957" d="M114.575,309.455v-1.083c0-.713.069-1.837.11-3.139.1-2.742.219-6.717.37-11.528.274-9.732.507-23.18.4-38.039s-.521-28.306-.932-38.039c-.219-4.811-.411-8.718-.535-11.514,0-1.3-.11-2.344-.151-3.139a6.637,6.637,0,0,1,0-1.083,10.6,10.6,0,0,0,.082,1.083,29.135,29.135,0,0,1,.151,3.18c.178,2.742.4,6.662.617,11.528.466,9.719.918,23.18,1.028,38.039s-.165,28.32-.48,38.053c-.164,4.866-.329,8.8-.466,11.515l-.165,3.139A8.7,8.7,0,0,1,114.575,309.455Z" transform="translate(-70.765 -105.099)" fill="#e0e0e0"/>
          <path id="Path_1958" data-name="Path 1958" d="M133.27,234.16c-.082,0-1.151-8.019-2.385-17.916s-2.166-17.93-2.084-17.943,1.138,8.005,2.371,17.916S133.339,234.146,133.27,234.16Z" transform="translate(-65.211 -106.43)" fill="#e0e0e0"/>
          <path id="Path_1959" data-name="Path 1959" d="M130.879,239.218a50.73,50.73,0,0,1-.932-5.373c-.425-2.975-.713-5.4-.644-5.415a51.541,51.541,0,0,1,.932,5.373A49.544,49.544,0,0,1,130.879,239.218Z" transform="translate(-65.027 -95.259)" fill="#e0e0e0"/>
          <path id="Path_1960" data-name="Path 1960" d="M134.628,266.168c-.082,0-.206-6.922-.274-15.462s-.069-15.476,0-15.476.206,6.922.288,15.476S134.71,266.168,134.628,266.168Z" transform="translate(-63.17 -92.737)" fill="#e0e0e0"/>
          <path id="Path_1961" data-name="Path 1961" d="M135.252,287.629c-.069,0-.987-6.264-2.043-14s-1.851-14.009-1.768-14.023,1,6.251,2.056,13.982S135.335,287.56,135.252,287.629Z" transform="translate(-64.233 -83.698)" fill="#e0e0e0"/>
          <path id="Path_1962" data-name="Path 1962" d="M156.47,252.547c-.082,0-2.18-12.844-4.7-28.69s-4.51-28.786-4.428-28.786,2.18,12.83,4.7,28.69S156.47,252.547,156.47,252.547Z" transform="translate(-58.336 -107.628)" fill="#e0e0e0"/>
          <path id="Path_1963" data-name="Path 1963" d="M152.3,271.168c-.069,0-.781-5.7-1.59-12.748s-1.371-12.789-1.371-12.789.8,5.7,1.6,12.748S152.383,271.168,152.3,271.168Z" transform="translate(-57.594 -88.881)" fill="#e0e0e0"/>
          <path id="Path_1964" data-name="Path 1964" d="M207.651,182.92a50.32,50.32,0,0,1-5.483,4.359,63.288,63.288,0,0,1-6.566,3.975,71.364,71.364,0,0,1-8.554,3.8,73.1,73.1,0,0,1-9.006,2.536,62.089,62.089,0,0,1-7.567,1.1,52.843,52.843,0,0,1-7.046.178h1.864c1.206,0,2.975-.1,5.127-.3a68.439,68.439,0,0,0,7.539-1.151,75.392,75.392,0,0,0,8.965-2.563,74.25,74.25,0,0,0,8.526-3.756,68.425,68.425,0,0,0,6.539-3.92c1.8-1.22,3.208-2.275,4.112-3.043l1.1-.864Z" transform="translate(-52.37 -112.133)" fill="#e0e0e0"/>
          <path id="Path_1965" data-name="Path 1965" d="M195.784,192.543a1.013,1.013,0,0,1,0-.356c0-.315.069-.658.1-1.028.11-1.055.247-2.33.4-3.8.3-3.208.672-7.635.891-12.543s.26-9.349.233-12.57V157.04a1.232,1.232,0,0,1,0,.356,5.61,5.61,0,0,0,.069,1.042c0,.9.1,2.207.137,3.811,0,3.221,0,7.676-.151,12.584s-.617,9.349-.987,12.543c-.178,1.6-.343,2.892-.48,3.8a7.193,7.193,0,0,1-.151,1.014A3.343,3.343,0,0,1,195.784,192.543Z" transform="translate(-40.38 -121.728)" fill="#e0e0e0"/>
          <path id="Path_1966" data-name="Path 1966" d="M216.487,156.34s.082.329.206.96.329,1.563.617,2.742c.562,2.385,1.549,5.771,2.673,10.007a45.811,45.811,0,0,1,1.837,15.229,21.11,21.11,0,0,1-8.746,16.12,76.458,76.458,0,0,1-8.225,5.36c-2.742,1.618-5.319,3.153-7.827,4.592-5.017,2.892-9.6,5.4-13.461,7.457s-7.018,3.66-9.2,4.757l-2.522,1.261-.891.411.864-.466,2.495-1.371c2.18-1.124,5.319-2.742,9.157-4.839s8.417-4.606,13.42-7.5c2.509-1.453,5.127-2.988,7.827-4.62a78.131,78.131,0,0,0,8.129-5.346,20.877,20.877,0,0,0,8.65-15.9,46.414,46.414,0,0,0-1.768-15.161c-1.1-4.236-2.056-7.649-2.591-10.034A30.888,30.888,0,0,1,216.487,156.34Z" transform="translate(-49.582 -121.988)" fill="#e0e0e0"/>
          <path id="Path_1967" data-name="Path 1967" d="M93.44,284.866v-.85c0-.548.11-1.371.192-2.426l.727-8.91c.589-7.526,1.371-17.93,2-29.431s1.055-21.932,1.371-29.485c.123-3.7.219-6.73.288-8.937q0-1.48.082-2.426v2.426c0,2.207-.11,5.236-.192,8.951-.192,7.539-.589,17.971-1.234,29.485S95.3,265.2,94.591,272.693c-.329,3.687-.617,6.717-.809,8.91-.11.987-.192,1.8-.247,2.413S93.44,284.866,93.44,284.866Z" transform="translate(-78.32 -105.225)" fill="#e0e0e0"/>
          <path id="Path_1968" data-name="Path 1968" d="M97.257,300.358a.729.729,0,0,0-.137-.329,5.152,5.152,0,0,1-.3-.973c-.26-.85-.617-2.084-1-3.619a100.992,100.992,0,0,1-2.262-12.2,96.67,96.67,0,0,1-.685-12.337,35.819,35.819,0,0,1,.11-3.77V265.76a1.369,1.369,0,0,1,0,.356V270.9a114.04,114.04,0,0,0,.781,12.337,112.528,112.528,0,0,0,2.166,12.172c.37,1.549.685,2.741.918,3.646q.151.535.247.987Z" transform="translate(-78.533 -81.418)" fill="#e0e0e0"/>
          <path id="Path_1969" data-name="Path 1969" d="M102.634,313.587v-3.7c0-2.481,0-5.922.1-10.144,0-8.554.11-20.383,0-33.447s-.3-24.907-.493-33.461c-.11-4.222-.178-7.663-.247-10.144V219.95a24.4,24.4,0,0,0,.123,2.742c0,2.481.178,5.922.315,10.144.247,8.554.493,20.383.589,33.461s0,24.893-.11,33.461c0,4.208-.123,7.663-.178,10.13,0,1.138,0,2.056-.069,2.742A4.483,4.483,0,0,0,102.634,313.587Z" transform="translate(-75.15 -98.759)" fill="#e0e0e0"/>
          <path id="Path_1970" data-name="Path 1970" d="M115.074,205.946c-.082,0-.343-3.866-.589-8.636s-.37-8.636-.288-8.65.343,3.866.576,8.636S115.156,205.932,115.074,205.946Z" transform="translate(-70.634 -110.004)" fill="#e0e0e0"/>
          <path id="Path_1971" data-name="Path 1971" d="M130.032,201.878c-.082,0-.466-3.934-.864-8.8s-.644-8.828-.576-8.828.466,3.934.864,8.8S130.1,201.864,130.032,201.878Z" transform="translate(-65.291 -111.639)" fill="#e0e0e0"/>
          <path id="Path_1972" data-name="Path 1972" d="M147.019,197.808c-.082,0-1.193-3.578-2.481-8.033s-2.275-8.088-2.207-8.115,1.193,3.578,2.481,8.033S147.088,197.78,147.019,197.808Z" transform="translate(-60.194 -112.6)" fill="#e0e0e0"/>
          <path id="Path_1973" data-name="Path 1973" d="M149.27,178.849a1.11,1.11,0,0,1-.329.082l-.96.178-3.537.617c-2.975.521-7.087,1.289-11.6,2.234s-8.595,1.892-11.528,2.6l-3.482.85-.946.219a.931.931,0,0,1-.343,0l.329-.11.932-.274,3.454-.932c2.933-.768,7-1.755,11.528-2.742s8.636-1.672,11.624-2.152l3.537-.521.973-.123A1.289,1.289,0,0,1,149.27,178.849Z" transform="translate(-69.752 -113.668)" fill="#e0e0e0"/>
          <path id="Path_1974" data-name="Path 1974" d="M120.822,188.177a27.421,27.421,0,0,1-.082-3.92,28.917,28.917,0,0,1,.192-3.907,26.169,26.169,0,0,1,.1,3.92,27.132,27.132,0,0,1-.206,3.907Z" transform="translate(-68.211 -113.086)" fill="#e0e0e0"/>
          <path id="Path_1975" data-name="Path 1975" d="M135.816,185.391a25.72,25.72,0,0,1-.8-3.523,21.656,21.656,0,0,1-.521-3.578,46.7,46.7,0,0,1,1.371,7.1Z" transform="translate(-63.096 -113.849)" fill="#e0e0e0"/>
        </g>
        <g id="freepik--Floor--inject-3" transform="translate(31.812 379.444)">
          <path id="Path_1976" data-name="Path 1976" d="M381.994,471.266c0,.111-78.219.206-174.684.206s-174.7-.1-174.7-.206,78.2-.206,174.7-.206S381.994,471.147,381.994,471.266Z" transform="translate(-32.61 -471.06)" fill="#263238"/>
        </g>
        <g id="freepik--speech-bubble--inject-3" transform="translate(-9.208 -3.508)">
          <path id="Path_1977" data-name="Path 1977" d="M62.022,104.218a2.379,2.379,0,0,0-.357,0H60.6a10.993,10.993,0,0,0-1.728.166c-.333.055-.705.087-1.086.166l-1.229.3A20.424,20.424,0,0,0,44.3,134.941a20.609,20.609,0,0,0,9.861,8.576A19.927,19.927,0,0,0,61,145.024a19.4,19.4,0,0,0,7.134-.888l.206-.063h-.166l11.961,4.146.484.166-.151-.491c-1.07-3.44-2.108-6.769-3.107-9.956l-.048.238a20.466,20.466,0,0,0,4.756-17.708,20.07,20.07,0,0,0-3.083-7.372,20.609,20.609,0,0,0-4.756-4.938,22.988,22.988,0,0,0-2.481-1.585,21.98,21.98,0,0,0-2.378-1.078,17.079,17.079,0,0,0-2.037-.658,12.58,12.58,0,0,0-1.847-.38c-.563-.079-1.054-.159-1.482-.2H62.252a1.022,1.022,0,0,0-.23,0,.674.674,0,0,0,.23,0l.658.055,1.078.079c.428.048.919.143,1.466.23a13.706,13.706,0,0,1,1.823.42,16.234,16.234,0,0,1,2.116.713,23.329,23.329,0,0,1,2.378,1.094,22.985,22.985,0,0,1,2.425,1.585,20.665,20.665,0,0,1,4.613,4.9,19.816,19.816,0,0,1,2.98,7.245,20.07,20.07,0,0,1-4.756,17.3l-.1.1v.135q1.49,4.756,3.083,9.972l.333-.325L68.4,143.6h-.166l-.19.071a19.063,19.063,0,0,1-6.975.864,19.689,19.689,0,0,1-6.666-1.458,20.132,20.132,0,0,1,2.227-37.992l1.2-.317c.38-.1.745-.135,1.086-.19a10.589,10.589,0,0,1,1.7-.222l1.054-.079A2.075,2.075,0,0,0,62.022,104.218Z" transform="translate(-41.465 -104.212)" fill="#263238"/>
          <path id="Path_1979" data-name="Path 1979" d="M73.105,127.85a1.831,1.831,0,0,1,0,.523,7.007,7.007,0,0,1-.214,1.506,6.825,6.825,0,0,1-.991,2.2,7.062,7.062,0,0,1-2.378,2.132l.079-.135v2.013h-.166l-6.056.127h-.2v-1.918l.111.174a7.137,7.137,0,0,1-.579-12.7,7.768,7.768,0,0,1,1.966-.729,7.562,7.562,0,0,1,1.966-.135,7.086,7.086,0,0,1,3.321,1.1,6.912,6.912,0,0,1,2.941,4.027,5.3,5.3,0,0,1,.2,1.839,13.221,13.221,0,0,0-.349-1.791,6.848,6.848,0,0,0-6.135-4.835,7.213,7.213,0,0,0-1.871.151,7.506,7.506,0,0,0-1.847.705,6.785,6.785,0,0,0-2.822,3.107,6.634,6.634,0,0,0-.38,4.471,6.745,6.745,0,0,0,3.718,4.415l.119.055v1.871l-.2-.19,6.064-.063-.166.159v-1.942h.079a6.975,6.975,0,0,0,3.377-4.09A10.939,10.939,0,0,0,73.105,127.85Z" transform="translate(-45.121 -107.67)" fill="#263238"/>
          <path id="Path_1980" data-name="Path 1980" d="M68.129,137.761a.8.8,0,0,1,0-.087v-.246a9.135,9.135,0,0,1,.111-.959c.055-.412.135-.927.254-1.506a10.067,10.067,0,0,1,.6-1.934,5.754,5.754,0,0,1,.547-1.046,1.371,1.371,0,0,1,.468-.436.713.713,0,0,1,.658,0,.444.444,0,0,1,.222.27.468.468,0,0,1,0,.357.975.975,0,0,1-.523.468,1.894,1.894,0,0,1-2.433-1.221,1.419,1.419,0,0,1-.055-.793.618.618,0,0,1,.618-.491.428.428,0,0,1,.357.238.6.6,0,0,1,.063.42,1.347,1.347,0,0,1-.476.7,2.053,2.053,0,0,1-1.585.491,1.783,1.783,0,0,1-1.355-.975,1.07,1.07,0,0,1-.063-.84.571.571,0,0,1,.3-.309.539.539,0,0,1,.428,0,.714.714,0,0,1,.293.3.9.9,0,0,1,.111.4,2.045,2.045,0,0,1-1.046,1.966,2.108,2.108,0,0,1-1.427.222,1.094,1.094,0,0,1-.634-.325.547.547,0,0,1-.048-.666.476.476,0,0,1,.309-.151.594.594,0,0,1,.333.055,1.015,1.015,0,0,1,.428.468c.182.373.325.737.476,1.086.571,1.379.983,2.529,1.26,3.321.135.388.238.7.309.912l.071.238v.008l-.087-.238c-.071-.214-.182-.523-.317-.912-.285-.793-.705-1.926-1.284-3.305-.151-.349-.3-.713-.476-1.078a.935.935,0,0,0-.4-.436.468.468,0,0,0-.555.079.484.484,0,0,0,.048.579,1.086,1.086,0,0,0,.594.293,2.045,2.045,0,0,0,1.371-.214,2.021,2.021,0,0,0,.919-1.133,1.879,1.879,0,0,0,.087-.793.745.745,0,0,0-.341-.571.4.4,0,0,0-.357,0,.436.436,0,0,0-.254.262.935.935,0,0,0,.063.793,1.7,1.7,0,0,0,1.284.935,1.966,1.966,0,0,0,1.538-.476,1.268,1.268,0,0,0,.452-.65.539.539,0,0,0-.055-.365.357.357,0,0,0-.293-.2.5.5,0,0,0-.341.119.6.6,0,0,0-.19.309,1.435,1.435,0,0,0,.048.793,1.863,1.863,0,0,0,.951,1.094,1.823,1.823,0,0,0,1.379.079.935.935,0,0,0,.491-.428.4.4,0,0,0-.166-.531.658.658,0,0,0-.594,0,1.228,1.228,0,0,0-.444.412,6.167,6.167,0,0,0-.547,1.03,10,10,0,0,0-.61,1.918c-.127.579-.206,1.086-.269,1.5s-.1.737-.127.959a.537.537,0,0,0,0,.254A.514.514,0,0,1,68.129,137.761Z" transform="translate(-46.019 -109.52)" fill="#263238"/>
          <path id="Path_1981" data-name="Path 1981" d="M70.1,141.057l-5.2.079a.38.38,0,0,1-.4-.38h0a.38.38,0,0,1,.38-.4l5.208-.079a.388.388,0,0,1,.4.38h0a.388.388,0,0,1-.388.4Z" transform="translate(-46.242 -111.69)" fill="#263238"/>
          <path id="Path_1982" data-name="Path 1982" d="M70.108,141.69l-5.208.079a.388.388,0,0,0-.38.4.4.4,0,0,0,.4.388h.571l.793,1.427a.491.491,0,0,0,.452.262h1.863a.5.5,0,0,0,.436-.285l.713-1.451h.4a.4.4,0,1,0,0-.793Z" transform="translate(-46.246 -111.983)" fill="#263238"/>
          <g id="Group_1906" data-name="Group 1906" transform="translate(14.911 14.671)" opacity="0.2">
            <path id="Path_1983" data-name="Path 1983" d="M61.92,123.988a4.97,4.97,0,0,1,1.371-.935,3.812,3.812,0,0,1,1.062-.333c.262,0,.412,0,.428.048a11.984,11.984,0,0,1-1.189.793A5.969,5.969,0,0,0,61.508,126a6.072,6.072,0,0,0-.428,3.171c.111.848.317,1.363.206,1.419s-.174-.063-.325-.277a3.765,3.765,0,0,1-.468-1.007,5.39,5.39,0,0,1-.214-1.657,5.493,5.493,0,0,1,.452-2.005" transform="translate(-60.277 -122.72)" fill="#fff"/>
          </g>
          <g id="Group_1907" data-name="Group 1907" transform="translate(20.185 14.146)" opacity="0.2">
            <path id="Path_1984" data-name="Path 1984" d="M67.826,122.908c-.436,0-.793-.111-.872-.341s.055-.246.214-.341a1.284,1.284,0,0,1,.65-.166,1.244,1.244,0,0,1,.658.151c.159.1.238.222.222.333" transform="translate(-66.93 -122.058)" fill="#fff"/>
          </g>
          <path id="Path_1985" data-name="Path 1985" d="M69.425,144.595s-.135-.048-.357-.1a2.869,2.869,0,0,0-.888-.1,2.964,2.964,0,0,0-.872.174c-.214.079-.341.143-.349.135a1.149,1.149,0,0,1,.325-.19,2.529,2.529,0,0,1,.9-.206,2.457,2.457,0,0,1,.9.127A.943.943,0,0,1,69.425,144.595Z" transform="translate(-46.752 -112.525)" fill="#455a64"/>
          <path id="Path_1986" data-name="Path 1986" d="M70.011,142.7s-.943.055-2.1.071-2.1,0-2.1,0,.935-.055,2.1-.079S70.011,142.68,70.011,142.7Z" transform="translate(-46.513 -112.188)" fill="#455a64"/>
          <path id="Path_1987" data-name="Path 1987" d="M69.791,143.49a2.314,2.314,0,0,1-.515.063c-.317,0-.793.048-1.237.063s-.927,0-1.244,0a2.568,2.568,0,0,1-.515,0h3A4.4,4.4,0,0,1,69.791,143.49Z" transform="translate(-46.611 -112.356)" fill="#455a64"/>
          <path id="Path_1988" data-name="Path 1988" d="M60.858,120.688c-.1.071-.468-.262-.848-.737s-.6-.951-.515-.951a2.114,2.114,0,0,1,.84.737C60.708,120.221,60.946,120.585,60.858,120.688Z" transform="translate(-45.2 -107.278)" fill="#263238"/>
          <path id="Path_1989" data-name="Path 1989" d="M67.22,117.59a10.678,10.678,0,0,1-.4-4.09,5.145,5.145,0,0,1,.4,2.029,5.017,5.017,0,0,1,0,2.061Z" transform="translate(-46.703 -106.138)" fill="#263238"/>
          <path id="Path_1990" data-name="Path 1990" d="M73.649,117.938c.1.063-.055.46-.333.872s-.579.705-.674.642.055-.452.333-.872S73.554,117.874,73.649,117.938Z" transform="translate(-47.924 -107.056)" fill="#263238"/>
        </g>
        <g id="freepik--Line--inject-3" transform="translate(153.649 70.683)">
          <path id="Path_1991" data-name="Path 1991" d="M332.611,129.969a4.883,4.883,0,0,0-3.765-1.11l-9.837-.143a7.2,7.2,0,0,1-4.32-1.181,6.975,6.975,0,0,1-2.711-3.472l-.4-1.276c-.793-2.568-1.633-5.224-2.632-7.744a39.783,39.783,0,0,0-1.966-4.3c-.357-.69-.793-1.348-1.189-2.021s-.848-1.34-1.268-1.95a57.07,57.07,0,0,0-27.434-21.4,66.448,66.448,0,0,0-31.032-3.266,72.266,72.266,0,0,0-13.752,3.171l-3.171,1.133c-.666.262-1.324.531-1.966.793l-1.062.436a45.079,45.079,0,0,0-5.636,2.9,40.275,40.275,0,0,0-9.028,7.451,38,38,0,0,0-3.313,4.241c-.84,1.26-1.665,2.624-2.592,4.3-1.181,2.124-2.219,4.13-3.218,6.072l-.951,1.839-.674,1.284a42.008,42.008,0,0,1-3,5.144c-3.1,4.328-6.42,5.786-7.72,6.214a7.563,7.563,0,0,1-1.07.317l-.341.079-.46.079a5.178,5.178,0,0,1-.61.079l-.9.071a.3.3,0,0,0,.024.594h.912a6.827,6.827,0,0,0,.69-.087l.468-.071.349-.079a7.848,7.848,0,0,0,1.157-.325c1.355-.428,4.843-1.918,8.085-6.4a41.371,41.371,0,0,0,3.091-5.239c.222-.412.444-.84.674-1.276.325-.61.65-1.237.983-1.871,1-1.926,2.029-3.908,3.171-6,.927-1.649,1.744-3,2.568-4.233a37.336,37.336,0,0,1,3.258-4.138,39.221,39.221,0,0,1,8.925-7.356,43.885,43.885,0,0,1,5.549-2.838l1.054-.436c.642-.27,1.284-.539,1.934-.793L232.6,86.04a71.687,71.687,0,0,1,13.586-3.075,65.639,65.639,0,0,1,30.6,3.258,56.207,56.207,0,0,1,26.95,21.092c.388.571.832,1.229,1.237,1.918s.793,1.3,1.165,1.966a39.642,39.642,0,0,1,1.91,4.2c.983,2.481,1.768,5,2.6,7.673l.412,1.3a7.926,7.926,0,0,0,3.083,3.963,8.164,8.164,0,0,0,4.875,1.355l9.892.143a4.011,4.011,0,0,1,3.028.848,3.8,3.8,0,0,1,.927,3.02l-.048,1.308c0,.793-.055,1.585-.1,2.378-.04.444-.071.9-.111,1.34-.063.793-.127,1.585-.214,2.378a92.609,92.609,0,0,1-2.925,14.854,107.46,107.46,0,0,1-12.873,28.488A94.162,94.162,0,0,1,305.3,199a66.031,66.031,0,0,1-6.666,6.127,67.229,67.229,0,0,1-7.38,5.065,85.829,85.829,0,0,1-16.1,7.134l-1.141.373c-.983.325-2,.658-3,.951l-2.077.626a8.315,8.315,0,0,0-2.093.927,7.577,7.577,0,0,0-2.933,3.448,7.363,7.363,0,0,0-.555,2.219,9.858,9.858,0,0,0,0,1.53v.642c0,16.2-.373,31.484-.737,46.267-.143,5.818-.285,11.5-.4,17.018a15.988,15.988,0,0,0,.373,3.694,5.992,5.992,0,0,0,1.807,3.337,3.575,3.575,0,0,0,3.8.349,4.344,4.344,0,0,0,1.49-1.2,5.611,5.611,0,0,0,.9-1.633,18.858,18.858,0,0,0,.832-5.984v-.864c.048-2.14,0-4.257,0-6.341v-6.936A32.569,32.569,0,0,1,271.9,270a3.511,3.511,0,0,1,.468-1.213,2.925,2.925,0,0,1,1.046-.737,2.663,2.663,0,0,1,2.378-.056,2.806,2.806,0,0,1,1.015,2.2,17.617,17.617,0,0,1,0,1.942v.84l-.46,36.874a11.676,11.676,0,0,0,0,2.624,4.36,4.36,0,0,0,.919,2.418,2.085,2.085,0,0,0,1.221.65c.4.048.793.1,1.126.1.713.04,1.4.055,2.116.055h.483c2.322,0,4.328-.063,5.961-.119l4.494-.19c.935-.048,1.419-.087,1.419-.087a.293.293,0,0,0,.27-.309.325.325,0,0,0-.3-.285s-.476,0-1.411.048l-4.653.143c-1.7.048-3.821.1-6.262.079-.721,0-1.379,0-2.061-.063h-.333a2.021,2.021,0,0,1-1.506-.491,3.488,3.488,0,0,1-.729-2.013,10.692,10.692,0,0,1,.04-2.5L277.7,273v-.832a17.706,17.706,0,0,0,0-2.045,5.372,5.372,0,0,0-.357-1.514,2.648,2.648,0,0,0-1.054-1.324,2.711,2.711,0,0,0-1.657-.42,4.756,4.756,0,0,0-1.585.4,3.655,3.655,0,0,0-1.379,1,4.129,4.129,0,0,0-.642,1.585,33.7,33.7,0,0,0-.507,5.85v.4c-.04,1.926,0,3.828,0,5.85v7.863a18.271,18.271,0,0,1-.793,5.747,3.8,3.8,0,0,1-1.966,2.291,2.647,2.647,0,0,1-2.814-.23,5.247,5.247,0,0,1-1.482-2.83,14.935,14.935,0,0,1-.341-3.464c.111-5.4.254-10.946.4-16.646.38-14.9.793-30.311.793-46.671v-2.085a6.341,6.341,0,0,1,.484-1.918,6.531,6.531,0,0,1,2.552-3,6.942,6.942,0,0,1,1.847-.793l2.077-.626c1.015-.3,2.045-.634,3.036-.959l1.133-.373a87.193,87.193,0,0,0,16.313-7.158,69.437,69.437,0,0,0,7.5-5.152,68.227,68.227,0,0,0,6.769-6.214,95.123,95.123,0,0,0,11.406-14.7,108.657,108.657,0,0,0,12.991-28.765,93.528,93.528,0,0,0,2.957-15.013c.087-.793.151-1.585.214-2.378,0-.444.071-.888.111-1.34.048-.793.079-1.585.1-2.378l.048-1.316A4.756,4.756,0,0,0,332.611,129.969Z" transform="translate(-186.319 -81.529)" fill="#455a64"/>
        </g>
      </g>
      <g id="freepik--speech-bubble--inject-152" transform="translate(682.982 281.576)">
        <path id="freepik--speech-bubble--inject-152-2" data-name="freepik--speech-bubble--inject-152" d="M162.657,139.07l20.571-19.325s18.308,3.725,46.17,2.02c41.214-2.435,64.464-20.37,58.3-44.809-7.249-28.836-34.538-39.537-83.659-37.632-27.633,1.089-47.116,9.913-56.3,22.161C136.514,76.47,137.474,99.805,164.29,113.8Z" transform="translate(-140.972 -39.111)" fill="#022b35"/>
        <path id="Path_1487" data-name="Path 1487" d="M235.626,57.626H170.618a1.318,1.318,0,0,1,0-2.636h65.008a1.318,1.318,0,1,1,0,2.636Z" transform="translate(-128.72 -32.243)" fill="#fff"/>
        <path id="Path_1488" data-name="Path 1488" d="M246.4,69.255H164.893a1.433,1.433,0,1,1,0-2.865H246.4a1.433,1.433,0,0,1,0,2.865Z" transform="translate(-131.246 -27.312)" fill="#fff"/>
        <path id="Path_1489" data-name="Path 1489" d="M235.626,80.616H170.618a1.318,1.318,0,1,1,0-2.636h65.008a1.318,1.318,0,1,1,0,2.636Z" transform="translate(-128.72 -22.3)" fill="#fff"/>
      </g>
    </g>
  </g>
</svg>
