<svg xmlns="http://www.w3.org/2000/svg" width="685.722" height="593.766" viewBox="0 0 685.722 593.766">
  <g id="Account-amico" transform="translate(-18.884 -50.039)">
    <g id="freepik--Floor--inject-17" transform="translate(18.884 300.567)">
      <path id="freepik--floor--inject-17-2" data-name="freepik--floor--inject-17" d="M117.205,512.62c131.1,67.028,343.664,67.028,474.752,0s131.1-175.768,0-242.723-343.649-67.028-474.752,0S-13.883,445.606,117.205,512.62Z" transform="translate(-18.884 -219.654)" fill="#f5f5f5"/>
    </g>
    <g id="freepik--Shadows--inject-17" transform="translate(130.853 427.159)">
      <path id="freepik--Shadow--inject-17" d="M377.057,364.256c7.193,4.15,21.314,2.718,31.535-3.19l58.964-34.253c10.236-5.908,12.688-14.061,5.495-18.227s-21.3-2.688-31.535,3.22l-58.934,34.282C372.345,351.952,369.879,360.105,377.057,364.256Z" transform="translate(38.051 -304.952)" fill="#ebebeb"/>
      <path id="freepik--shadow--inject-17-2" data-name="freepik--shadow--inject-17" d="M154.688,389.273l-60-34.637,60-34.637Z" transform="translate(-94.69 -298.376)" fill="#ebebeb"/>
      <path id="freepik--shadow--inject-17-3" data-name="freepik--shadow--inject-17" d="M281.352,416.98l-96.7-55.862,96.717-55.758Z" transform="translate(-51.775 -305.36)" fill="#ebebeb"/>
    </g>
    <g id="freepik--Plants--inject-17" transform="translate(21.923 309.605)">
      <g id="freepik--plants--inject-17-2" data-name="freepik--plants--inject-17" transform="translate(0 38.032)">
        <path id="Path_6794" data-name="Path 6794" d="M108.705,340.955c.177-14.032-9.63-43.233-23.972-61.622S47.615,247.34,31.367,252.7c-15.214,5.007-13.81,24.888,4.431,38.285s45.641,30.265,53.454,53.174l16.617,28.064Z" transform="translate(-20.942 -251.521)" fill="#62c9d5"/>
        <path id="Path_6795" data-name="Path 6795" d="M108.705,340.955c.177-14.032-9.63-43.233-23.972-61.622S47.615,247.34,31.367,252.7c-15.214,5.007-13.81,24.888,4.431,38.285s45.641,30.265,53.454,53.174l16.617,28.064Z" transform="translate(-20.942 -251.521)" opacity="0.1"/>
        <path id="Path_6796" data-name="Path 6796" d="M104.126,357.111a1.019,1.019,0,0,1-.916-.842c-8.862-48.019-47.118-87.426-70.2-96.3a1.034,1.034,0,1,1,.739-1.92c23.529,9.054,62.523,49.112,71.474,97.854a1.019,1.019,0,0,1-.812,1.2Z" transform="translate(-15.55 -248.461)" fill="#fff"/>
        <path id="Path_6797" data-name="Path 6797" d="M99.27,371.194c-2.156-7.917-11.639-21.048-27.089-31.993-17.1-12.1-38.846-17.828-43.765-27.148-5.908-11.2,3.589-21.594,21.269-19.2s48.521,26.971,53.07,63.395Z" transform="translate(-18.213 -231.969)" fill="#62c9d5"/>
        <path id="Path_6798" data-name="Path 6798" d="M98.1,359.829a1.034,1.034,0,0,1-.886-.679C83.016,317.925,51.88,303.14,37.4,301.087a1.021,1.021,0,0,1,.281-2.024C53.7,301.338,84.67,316.4,99.16,358.47a1.049,1.049,0,0,1-.635,1.315,1.093,1.093,0,0,1-.428.044Z" transform="translate(-13.508 -228.846)" fill="#fff"/>
      </g>
      <g id="freepik--plants--inject-17-3" data-name="freepik--plants--inject-17" transform="translate(600.167)">
        <path id="Path_6799" data-name="Path 6799" d="M438.442,313.254s1.964-29.541,19.394-51.549,16.366-31.018,4.343-35.449-39.88,22.082-33.736,57.457S438.442,313.254,438.442,313.254Z" transform="translate(-427.129 -225.772)" fill="#62c9d5"/>
        <path id="Path_6800" data-name="Path 6800" d="M438.442,313.254s1.964-29.541,19.394-51.549,16.366-31.018,4.343-35.449-39.88,22.082-33.736,57.457S438.442,313.254,438.442,313.254Z" transform="translate(-427.129 -225.772)" opacity="0.1"/>
        <path id="Path_6801" data-name="Path 6801" d="M431.585,294.941a.694.694,0,0,1-.694-.635c-2.024-32.584,20.974-59.318,29.541-65.374a.665.665,0,0,1,.945.163.694.694,0,0,1-.162.96c-8.449,5.908-31.018,32.155-29.009,64.163a.694.694,0,0,1-.635.724Z" transform="translate(-425.604 -224.327)" fill="#fff"/>
        <path id="Path_6802" data-name="Path 6802" d="M433.842,322.337a155.637,155.637,0,0,0,24.046,5.79c13.5,2.127,19.467-4.328,19.467-4.328s-5.317-12.658-12.983-16.247a75.489,75.489,0,0,1,23.426,9.615s8.242.133,11.521-12.451c0,0-4.874-7.577-21.269-11.669,0,0,9.97-2.511,24.342,1.152,1.078.428,5.672-15.834,7.06-23.337s-1.625-7.385-7.474-9-25.243-5.908-28.906-2.7-5.524,14.224-5.524,14.224A25.965,25.965,0,0,1,467,259.444s-5.258-2.053-13.441.325c-6.676,1.935-7,6.484-6.706,11.624a50.028,50.028,0,0,0,2.954,13.057s-5.214-6.676-5.376-21.166c0,0-13.677,6.794-16.011,20.383C427.063,291.038,425.261,312.648,433.842,322.337Z" transform="translate(-427.271 -210.395)" fill="#62c9d5"/>
        <path id="Path_6803" data-name="Path 6803" d="M433.7,317.124a.783.783,0,0,0,.694-.428c10.886-22.643,51.4-48.949,65.906-51.77a.753.753,0,0,0,.606-.886.783.783,0,0,0-.9-.606c-14.771,2.88-55.921,29.541-66.984,52.6a.768.768,0,0,0,.355,1.019A.871.871,0,0,0,433.7,317.124Z" transform="translate(-424.562 -207.811)" fill="#fff"/>
      </g>
    </g>
    <g id="freepik--computer-screen--inject-17" transform="translate(100.854 50.039)">
      <path id="Path_6804" data-name="Path 6804" d="M77.643,491.031c-1.669,0-2.673-1.374-2.673-3.693V238.885L379.285,63.22V310.669a13.19,13.19,0,0,1-5.908,10.339L80.066,490.278A4.918,4.918,0,0,1,77.643,491.031Z" transform="translate(-74.099 -43.751)" fill="#fafafa"/>
      <path id="Path_6805" data-name="Path 6805" d="M378.651,65.2V311.156a12.481,12.481,0,0,1-5.539,9.586L79.919,490.011a4.092,4.092,0,0,1-1.994.65c-1.64,0-1.817-1.994-1.817-2.836V239.874L378.651,65.2m1.728-2.954-306,176.625V487.825c0,2.954,1.477,4.564,3.545,4.564a5.789,5.789,0,0,0,2.851-.871L373.984,322.234a14.15,14.15,0,0,0,6.4-11.078V62.2Z" transform="translate(-74.38 -44.238)" fill="#e0e0e0"/>
      <path id="Path_6806" data-name="Path 6806" d="M74.39,238.869v41.579L380.375,103.779V62.2Z" transform="translate(-74.375 -44.238)" fill="#62c9d5"/>
      <path id="Path_6807" data-name="Path 6807" d="M90.63,201.924v5.908c0,1.211.871,1.713,1.92,1.108l94.073-54.311V144.29L92.55,198.6a4.3,4.3,0,0,0-1.92,3.323Z" transform="translate(-66.628 -5.077)" fill="#fafafa"/>
      <path id="Path_6808" data-name="Path 6808" d="M165.708,140.436c1.063-.62,1.92-.118,1.92,1.108v5.908a4.269,4.269,0,0,1-1.92,3.323l-10.088,5.82V146.256Z" transform="translate(-35.625 -7.043)" fill="#455a64"/>
      <path id="Path_6809" data-name="Path 6809" d="M74.38,231.274a14.15,14.15,0,0,1,6.4-11.078L373.984,50.912c3.53-2.038,6.4-.384,6.4,3.693V68l-306,176.669Z" transform="translate(-74.38 -50.039)" fill="#455a64"/>
      <path id="Path_6810" data-name="Path 6810" d="M259.474,66.274a6.6,6.6,0,0,0-2.954,5.184c0,1.92,1.344,2.688,2.954,1.743a6.632,6.632,0,0,0,2.954-5.2C262.487,66.068,261.143,65.314,259.474,66.274Z" transform="translate(12.509 -42.493)" fill="#62c9d5"/>
      <path id="Path_6811" data-name="Path 6811" d="M265.954,62.553A6.6,6.6,0,0,0,263,67.738c0,1.92,1.344,2.688,2.954,1.743a6.661,6.661,0,0,0,2.954-5.2C268.908,62.361,267.549,61.593,265.954,62.553Z" transform="translate(15.6 -44.266)" fill="#62c9d5"/>
      <path id="Path_6812" data-name="Path 6812" d="M272.344,58.833a6.6,6.6,0,0,0-2.954,5.184c0,1.92,1.344,2.688,2.954,1.743a6.661,6.661,0,0,0,2.954-5.2C275.342,58.641,274,57.873,272.344,58.833Z" transform="translate(18.649 -46.041)" fill="#62c9d5"/>
      <g id="Group_312" data-name="Group 312" transform="translate(173.449 51.035)" opacity="0.1">
        <path id="Path_6813" data-name="Path 6813" d="M218.663,108.957a14.5,14.5,0,0,0-6.543,11.373c0,4.18,2.954,5.908,6.543,3.781a14.475,14.475,0,0,0,6.558-11.358C225.236,108.573,222.282,106.875,218.663,108.957Z" transform="translate(-182.121 -73.392)"/>
        <path id="Path_6814" data-name="Path 6814" d="M198.368,120.686a14.475,14.475,0,0,0-6.558,11.358c0,4.18,2.954,5.908,6.558,3.8a14.5,14.5,0,0,0,6.543-11.373C204.911,120.287,201.987,118.618,198.368,120.686Z" transform="translate(-191.81 -67.795)"/>
        <path id="Path_6815" data-name="Path 6815" d="M238.973,97.305a14.475,14.475,0,0,0-6.543,11.358c0,4.18,2.954,5.908,6.543,3.781a14.46,14.46,0,0,0,6.558-11.358C245.531,96.833,242.607,95.134,238.973,97.305Z" transform="translate(-172.432 -78.977)"/>
        <path id="Path_6816" data-name="Path 6816" d="M259.3,85.49a14.475,14.475,0,0,0-6.558,11.358c0,4.18,2.954,5.908,6.558,3.781a14.475,14.475,0,0,0,6.558-11.358C265.856,85.092,262.917,83.393,259.3,85.49Z" transform="translate(-162.744 -84.591)"/>
      </g>
      <path id="Path_6817" data-name="Path 6817" d="M97.066,225.713l71.208-41.121c3.53-2.038,6.4-.384,6.4,3.693v68.372a14.15,14.15,0,0,1-6.4,11.078L97.066,308.841c-3.53,2.038-6.4.384-6.4-3.693V236.791a14.15,14.15,0,0,1,6.4-11.078Z" transform="translate(-66.609 13.732)" fill="#e0e0e0"/>
      <path id="Path_6818" data-name="Path 6818" d="M166.066,200.367l149.181-86.082c3.53-2.053,6.4-.4,6.4,3.693v68.358a14.15,14.15,0,0,1-6.4,11.078L166.066,283.495c-3.53,2.038-6.4.384-6.4-3.693V211.445a14.15,14.15,0,0,1,6.4-11.078Z" transform="translate(-33.693 -19.812)" fill="#e0e0e0"/>
      <path id="Path_6819" data-name="Path 6819" d="M97.066,303.908l113.2-65.359c3.545-2.038,6.41-.591,6.41,3.235a13.722,13.722,0,0,1-6.4,10.62L97.066,317.762c-3.53,2.038-6.4.591-6.4-3.235a13.722,13.722,0,0,1,6.4-10.62Z" transform="translate(-66.609 39.447)" fill="#e0e0e0"/>
      <path id="Path_6820" data-name="Path 6820" d="M97.066,320.327l113.2-65.359c3.545-2.038,6.41-.591,6.41,3.235a13.722,13.722,0,0,1-6.4,10.62L97.066,334.182c-3.53,2.038-6.4.591-6.4-3.235a13.722,13.722,0,0,1,6.4-10.62Z" transform="translate(-66.609 47.281)" fill="#e0e0e0"/>
      <path id="Path_6821" data-name="Path 6821" d="M97.066,336.738l113.2-65.359c3.545-2.038,6.41-.591,6.41,3.235a13.722,13.722,0,0,1-6.4,10.62L97.066,350.592c-3.53,2.038-6.4.591-6.4-3.235a13.722,13.722,0,0,1,6.4-10.62Z" transform="translate(-66.609 55.109)" fill="#e0e0e0"/>
    </g>
    <g id="freepik--Envelope--inject-17" transform="translate(184.854 238.773)">
      <g id="freepik--Letter--inject-17">
        <path id="Path_6822" data-name="Path 6822" d="M131.25,298.717a8.523,8.523,0,0,1,3.84-6.647L331.4,178.737a8.478,8.478,0,0,1,7.681,0l4.328,2.5a8.478,8.478,0,0,1,3.826,6.647V338.361a8.508,8.508,0,0,1-3.826,6.647L147.128,458.341a8.479,8.479,0,0,1-7.681,0l-4.328-2.5a8.508,8.508,0,0,1-3.84-6.647Z" transform="translate(-131.25 -177.817)" fill="#62c9d5"/>
        <path id="Path_6823" data-name="Path 6823" d="M132,294.936l10.9,6.292L345.743,184.1a8.08,8.08,0,0,0-2.7-2.88l-4.254-2.481a8.419,8.419,0,0,0-7.651,0L134.733,292.07A7.947,7.947,0,0,0,132,294.936Z" transform="translate(-130.892 -177.817)" fill="#fff" opacity="0.4"/>
        <path id="Path_6824" data-name="Path 6824" d="M131.25,260.891V411.372a8.508,8.508,0,0,0,3.84,6.647l4.328,2.5a5.659,5.659,0,0,0,1.049.473,8.54,8.54,0,0,0,1.58.369,9.453,9.453,0,0,0,3.028-.118,5.608,5.608,0,0,0,.753-.192l.458-.177a2.334,2.334,0,0,1-1.846,0,2.659,2.659,0,0,1-1.167-2.526V267.833a3.383,3.383,0,0,1,1.994-3.279l-1.994-1.152-10.915-6.292A7.858,7.858,0,0,0,131.25,260.891Z" transform="translate(-131.25 -139.991)" opacity="0.1"/>
        <path id="Path_6825" data-name="Path 6825" d="M139.4,299.333l90.912,33.972a14.77,14.77,0,0,0,17.533-5.775l14.593-22.363L342.962,181.79,265.344,306.009l78.017,30.531a7.931,7.931,0,0,1-1.2,3.826l-77.028-33.972-17.016,27.1a14.771,14.771,0,0,1-18.493,5.672l-12.082-5.332L140.563,456.83A2.659,2.659,0,0,1,139.4,454.3v-2.5l77.811-118.06Z" transform="translate(-127.373 -175.922)" opacity="0.2"/>
      </g>
    </g>
    <g id="freepik--mobile-screen--inject-17" transform="translate(358.85 87.866)">
      <path id="Path_6826" data-name="Path 6826" d="M249.05,177.212V522.693c0,4.077,2.865,5.731,6.4,3.693l155.208-89.612a14.15,14.15,0,0,0,6.4-11.078V80.214c0-4.077-2.866-5.731-6.4-3.693L255.446,166.134a14.12,14.12,0,0,0-6.4,11.078Z" transform="translate(-249.05 -75.649)" fill="#fafafa" stroke="#e0e0e0" stroke-miterlimit="10" stroke-width="1.17"/>
      <path id="Path_6827" data-name="Path 6827" d="M255.14,153a3.53,3.53,0,0,1,1.669-2.688l17.725-10.206c.916-.532,1.654-.177,1.654.783a3.515,3.515,0,0,1-1.654,2.688l-17.725,10.206C255.893,154.319,255.14,153.965,255.14,153Z" transform="translate(-246.145 -45.017)" fill="#455a64"/>
      <path id="Path_6828" data-name="Path 6828" d="M255.14,157.665a3.515,3.515,0,0,1,1.669-2.688l17.725-10.206c.916-.532,1.654-.177,1.654.768a3.515,3.515,0,0,1-1.654,2.7l-17.725,10.192C255.893,158.964,255.14,158.625,255.14,157.665Z" transform="translate(-246.145 -42.794)" fill="#455a64"/>
      <path id="Path_6829" data-name="Path 6829" d="M255.14,162.326a3.515,3.515,0,0,1,1.669-2.688l17.725-10.206c.916-.532,1.654-.192,1.654.768a3.486,3.486,0,0,1-1.654,2.688l-17.725,10.206C255.893,163.684,255.14,163.286,255.14,162.326Z" transform="translate(-246.145 -40.572)" fill="#455a64"/>
      <path id="Path_6830" data-name="Path 6830" d="M360.644,100.654V97.892a.192.192,0,0,0-.281-.177l-2.127.96a.251.251,0,0,1-.354-.162,4.531,4.531,0,0,0-.473-1.049.576.576,0,0,1,0-.517l1.477-2.865a.31.31,0,0,0-.133-.414l-1.477-.886a.325.325,0,0,0-.414.1l-1.772,2.659a.546.546,0,0,1-.458.222,5.258,5.258,0,0,0-1.152.118.251.251,0,0,1-.325-.222l-.236-2.319a.171.171,0,0,0-.281-.148l-2.393,1.374a.635.635,0,0,0-.281.443l-.236,2.659a.961.961,0,0,1-.251.5,13.3,13.3,0,0,0-1.329,1.477.443.443,0,0,1-.473.133l-1.477-.532a.369.369,0,0,0-.428.162l-1.758,3.043a.384.384,0,0,0,.074.443l1.241,1.063a.473.473,0,0,1,.118.473,14.854,14.854,0,0,0-.561,1.861.916.916,0,0,1-.3.458l-2.186,1.477a.65.65,0,0,0-.251.473v2.747a.177.177,0,0,0,.281.177l2.127-.96a.266.266,0,0,1,.354.177,4.537,4.537,0,0,0,.473,1.049.576.576,0,0,1,0,.517l-1.477,2.851a.34.34,0,0,0,.133.428l1.477.886a.325.325,0,0,0,.414-.1l1.773-2.659a.546.546,0,0,1,.458-.222,5.259,5.259,0,0,0,1.152-.118.251.251,0,0,1,.325.222l.236,2.319c0,.162.133.236.281.148l2.393-1.374a.68.68,0,0,0,.281-.458l.236-2.659a.871.871,0,0,1,.251-.487,13.288,13.288,0,0,0,1.329-1.477.443.443,0,0,1,.473-.133l1.477.532a.369.369,0,0,0,.428-.162l1.758-3.043a.384.384,0,0,0-.089-.458l-1.226-1.049a.473.473,0,0,1-.118-.473,14.848,14.848,0,0,0,.561-1.861.8.8,0,0,1,.3-.458l2.186-1.477A.679.679,0,0,0,360.644,100.654Zm-9.35,8.715c-2.23,1.3-4.032.251-4.032-2.319a8.862,8.862,0,0,1,4.032-7c2.23-1.285,4.032-.236,4.032,2.334a8.862,8.862,0,0,1-4.032,6.986Z" transform="translate(-204.638 -67.493)" fill="#37474f"/>
      <path id="Path_6831" data-name="Path 6831" d="M316.525,145.648c18.138-10.472,32.835-1.979,32.835,18.965s-14.7,46.394-32.835,56.866-32.835,1.979-32.835-18.95S298.387,156.121,316.525,145.648Z" transform="translate(-232.525 -44.396)" fill="#455a64"/>
      <path id="Path_6832" data-name="Path 6832" d="M309.214,155.83c5.908-3.4,10.649-.65,10.649,6.145a23.544,23.544,0,0,1-10.649,18.434c-5.908,3.4-10.664.65-10.664-6.145a23.529,23.529,0,0,1,10.664-18.434Z" transform="translate(-225.436 -38.094)" fill="#62c9d5"/>
      <path id="Path_6833" data-name="Path 6833" d="M333.286,183.915c0-11.152-7.843-15.686-17.5-10.1l-6.13,3.486c-9.66,5.583-17.5,19.2-17.5,30.324v3.057a18.359,18.359,0,0,0,5.642.871,29.748,29.748,0,0,0,14.638-4.431,64.709,64.709,0,0,0,20.856-20.6Z" transform="translate(-228.489 -29.961)" fill="#62c9d5"/>
      <path id="Path_6834" data-name="Path 6834" d="M286.89,227.832l59.289-34.223c1.758-1.019,3.19-.3,3.19,1.625a6.868,6.868,0,0,1-3.19,5.3L286.905,234.76c-1.772,1.034-3.205.3-3.205-1.61A6.853,6.853,0,0,1,286.89,227.832Z" transform="translate(-232.52 -19.597)" fill="#62c9d5"/>
      <path id="Path_6835" data-name="Path 6835" d="M282.585,246.817l71.991-41.667c1.772-1.019,3.205-.3,3.205,1.625a6.853,6.853,0,0,1-3.205,5.3l-71.991,41.667c-1.772,1.019-3.205.3-3.205-1.625A6.853,6.853,0,0,1,282.585,246.817Z" transform="translate(-234.581 -14.092)" fill="#455a64"/>
      <path id="Path_6836" data-name="Path 6836" d="M332.21,231.6l20.162-11.639c1.063-.606,1.92-.325,1.92.635a3.855,3.855,0,0,1-1.92,2.836L332.21,235.073c-1.049.606-1.92.325-1.92-.62A3.9,3.9,0,0,1,332.21,231.6Z" transform="translate(-210.295 -6.957)" fill="#37474f"/>
      <path id="Path_6837" data-name="Path 6837" d="M264.43,268.09,294.045,251c1.758-1.019,3.19-.192,3.19,1.846v20.324a7.09,7.09,0,0,1-3.19,5.539L264.43,295.8c-1.758,1.019-3.19.192-3.19-1.846V273.629A7.09,7.09,0,0,1,264.43,268.09Z" transform="translate(-243.235 7.793)" fill="#62c9d5"/>
      <path id="Path_6838" data-name="Path 6838" d="M267.22,268.212l20.162-11.639c1.063-.606,1.92-.325,1.92.62a3.855,3.855,0,0,1-1.92,2.851L267.22,271.683c-1.063.606-1.92.325-1.92-.62A3.855,3.855,0,0,1,267.22,268.212Z" transform="translate(-241.298 10.507)" fill="#fafafa"/>
      <path id="Path_6839" data-name="Path 6839" d="M265.3,276.206v5.908c0,1.226.857,1.713,1.92,1.108l20.162-11.639a4.239,4.239,0,0,0,1.92-3.323v-5.908c0-1.226-.857-1.713-1.92-1.108l-20.162,11.58A4.269,4.269,0,0,0,265.3,276.206Z" transform="translate(-241.298 12.764)" fill="#fafafa"/>
      <path id="Path_6840" data-name="Path 6840" d="M296.93,249.33l29.541-17.089c1.772-1.019,3.205-.192,3.205,1.846v20.324a7.06,7.06,0,0,1-3.205,5.539L296.93,277.04c-1.772,1.019-3.19.192-3.19-1.846V254.869a7.045,7.045,0,0,1,3.19-5.539Z" transform="translate(-227.731 -1.156)" fill="#62c9d5"/>
      <path id="Path_6841" data-name="Path 6841" d="M299.72,249.452l20.162-11.639c1.049-.606,1.905-.325,1.905.62a3.885,3.885,0,0,1-1.905,2.851L299.72,252.923c-1.064.606-1.92.325-1.92-.635a3.855,3.855,0,0,1,1.92-2.836Z" transform="translate(-225.794 1.558)" fill="#fafafa"/>
      <path id="Path_6842" data-name="Path 6842" d="M297.8,257.446v5.908c0,1.226.857,1.713,1.92,1.108l20.162-11.639a4.268,4.268,0,0,0,1.905-3.323v-5.908c0-1.226-.871-1.713-1.92-1.108l-20.162,11.639a4.239,4.239,0,0,0-1.905,3.323Z" transform="translate(-225.794 3.815)" fill="#fafafa"/>
      <path id="Path_6843" data-name="Path 6843" d="M329.435,230.575l29.541-17.1c1.758-1.019,3.19-.192,3.19,1.846v20.339a7.09,7.09,0,0,1-3.19,5.539l-29.541,17.089c-1.772,1.019-3.205.192-3.205-1.846V236.114a7.06,7.06,0,0,1,3.205-5.539Z" transform="translate(-212.232 -10.11)" fill="#62c9d5"/>
      <path id="Path_6844" data-name="Path 6844" d="M332.21,230.672l20.162-11.565c1.063-.62,1.92-.34,1.92.62a3.811,3.811,0,0,1-1.92,2.836L332.21,234.2c-1.049.62-1.92.34-1.92-.62A3.855,3.855,0,0,1,332.21,230.672Z" transform="translate(-210.295 -7.371)" fill="#fafafa"/>
      <path id="Path_6845" data-name="Path 6845" d="M330.29,238.693V244.6c0,1.211.871,1.713,1.92,1.108l20.162-11.654a4.224,4.224,0,0,0,1.92-3.323v-5.908c0-1.226-.857-1.728-1.92-1.108L332.21,235.355A4.254,4.254,0,0,0,330.29,238.693Z" transform="translate(-210.295 -5.142)" fill="#fafafa"/>
      <path id="Path_6846" data-name="Path 6846" d="M267.636,316.524l119.2-68.815c3.545-2.038,6.4-.591,6.4,3.235a13.678,13.678,0,0,1-6.4,10.62l-119.2,68.815c-3.53,2.038-6.4.591-6.4-3.235A13.722,13.722,0,0,1,267.636,316.524Z" transform="translate(-243.235 5.99)" fill="#e0e0e0"/>
      <path id="Path_6847" data-name="Path 6847" d="M267.636,335.294l119.2-68.815c3.545-2.038,6.4-.591,6.4,3.235a13.678,13.678,0,0,1-6.4,10.62l-119.2,68.83c-3.53,2.038-6.4.591-6.4-3.249a13.722,13.722,0,0,1,6.4-10.62Z" transform="translate(-243.235 14.944)" fill="#e0e0e0"/>
      <path id="Path_6848" data-name="Path 6848" d="M292.875,328.958l41.594-24.017c1.772-1.019,3.205-.192,3.205,1.846v13.4a7.06,7.06,0,0,1-3.205,5.539L292.875,349.74c-1.772,1.019-3.205.192-3.205-1.846V334.5a7.06,7.06,0,0,1,3.205-5.539Z" transform="translate(-229.672 33.525)" fill="#62c9d5"/>
      <path id="Path_6849" data-name="Path 6849" d="M268.284,295.523a6.632,6.632,0,0,0-2.954,5.2c0,1.905,1.344,2.688,2.954,1.728a6.632,6.632,0,0,0,2.954-5.2C271.282,295.345,269.938,294.563,268.284,295.523Z" transform="translate(-241.284 29.044)" fill="#fafafa"/>
      <path id="Path_6850" data-name="Path 6850" d="M274.724,291.807a6.6,6.6,0,0,0-2.954,5.2c0,1.905,1.329,2.688,2.954,1.728a6.632,6.632,0,0,0,2.954-5.2C277.722,291.629,276.378,290.817,274.724,291.807Z" transform="translate(-238.212 27.266)" fill="#fafafa"/>
      <path id="Path_6851" data-name="Path 6851" d="M281.154,288.147a6.632,6.632,0,0,0-2.954,5.2c0,1.905,1.344,2.688,2.954,1.728a6.632,6.632,0,0,0,2.954-5.2C284.152,287.9,282.808,287.114,281.154,288.147Z" transform="translate(-235.144 25.504)" fill="#fafafa"/>
      <path id="Path_6852" data-name="Path 6852" d="M287.594,284.363a6.617,6.617,0,0,0-2.954,5.2c0,1.905,1.344,2.688,2.954,1.728a6.632,6.632,0,0,0,2.954-5.2C290.592,284.185,289.248,283.4,287.594,284.363Z" transform="translate(-232.072 23.721)" fill="#fafafa"/>
      <path id="Path_6853" data-name="Path 6853" d="M294.024,280.643a6.632,6.632,0,0,0-2.954,5.2c0,1.905,1.344,2.688,2.954,1.728a6.632,6.632,0,0,0,2.954-5.2C297.022,280.465,295.678,279.683,294.024,280.643Z" transform="translate(-229.005 21.946)" fill="#fafafa"/>
      <path id="Path_6854" data-name="Path 6854" d="M300.454,276.923a6.632,6.632,0,0,0-2.954,5.2c0,1.905,1.344,2.688,2.954,1.728a6.6,6.6,0,0,0,2.954-5.2C303.452,276.745,302.123,275.962,300.454,276.923Z" transform="translate(-225.937 20.171)" fill="#fafafa"/>
      <path id="Path_6855" data-name="Path 6855" d="M306.894,273.2a6.632,6.632,0,0,0-2.954,5.2c0,1.905,1.344,2.688,2.954,1.728a6.632,6.632,0,0,0,2.954-5.2C309.937,273.1,308.548,272.238,306.894,273.2Z" transform="translate(-222.865 18.401)" fill="#fafafa"/>
      <path id="Path_6856" data-name="Path 6856" d="M268.284,314.3a6.662,6.662,0,0,0-2.954,5.2c0,1.92,1.344,2.688,2.954,1.728a6.6,6.6,0,0,0,2.954-5.184C271.282,314.123,269.938,313.355,268.284,314.3Z" transform="translate(-241.284 38.006)" fill="#fafafa"/>
      <path id="Path_6857" data-name="Path 6857" d="M274.724,310.58a6.617,6.617,0,0,0-2.954,5.2c0,1.92,1.329,2.688,2.954,1.728a6.6,6.6,0,0,0,2.954-5.184C277.722,310.4,276.378,309.635,274.724,310.58Z" transform="translate(-238.212 36.231)" fill="#fafafa"/>
      <path id="Path_6858" data-name="Path 6858" d="M281.154,306.862a6.662,6.662,0,0,0-2.954,5.2c0,1.92,1.344,2.688,2.954,1.728a6.6,6.6,0,0,0,2.954-5.184C284.152,306.685,282.808,305.9,281.154,306.862Z" transform="translate(-235.144 34.454)" fill="#fafafa"/>
      <path id="Path_6859" data-name="Path 6859" d="M287.594,303.13a6.632,6.632,0,0,0-2.954,5.2c0,1.92,1.344,2.688,2.954,1.728a6.6,6.6,0,0,0,2.954-5.184C290.592,302.967,289.248,302.184,287.594,303.13Z" transform="translate(-232.072 32.678)" fill="#fafafa"/>
      <path id="Path_6860" data-name="Path 6860" d="M294.024,299.422a6.632,6.632,0,0,0-2.954,5.2c0,1.92,1.344,2.688,2.954,1.728a6.6,6.6,0,0,0,2.954-5.185C297.022,299.245,295.678,298.462,294.024,299.422Z" transform="translate(-229.005 30.905)" fill="#fafafa"/>
      <path id="Path_6861" data-name="Path 6861" d="M300.454,295.7a6.632,6.632,0,0,0-2.954,5.2c0,1.92,1.344,2.688,2.954,1.728a6.573,6.573,0,0,0,2.954-5.2C303.452,295.525,302.123,294.742,300.454,295.7Z" transform="translate(-225.937 29.13)" fill="#fafafa"/>
      <path id="Path_6862" data-name="Path 6862" d="M306.894,291.983a6.632,6.632,0,0,0-2.954,5.2c0,1.92,1.344,2.688,2.954,1.728a6.617,6.617,0,0,0,2.954-5.2C309.937,291.805,308.548,291.023,306.894,291.983Z" transform="translate(-222.865 27.356)" fill="#fafafa"/>
    </g>
    <g id="freepik--Key--inject-17" transform="translate(544.883 181.938)">
      <path id="Path_6863" data-name="Path 6863" d="M406.3,372.936a28.73,28.73,0,0,1-14.549-3.84C381.1,362.936,375,350.086,375,333.794c0-28.625,18.2-61.548,41.357-74.96,12.511-7.223,24.933-8.006,34.991-2.2,10.635,6.144,16.75,19.009,16.75,35.287,0,28.625-18.2,61.563-41.431,74.975a41.209,41.209,0,0,1-20.368,6.041Zm30.516-99.523a21.8,21.8,0,0,0-10.118,3.323c-16.838,9.675-31.018,35.833-31.018,57.058,0,8.6,2.408,15.125,6.44,17.444,4.594,2.659,10.989-.236,14.372-2.2,16.883-9.734,31.121-35.892,31.121-57.117,0-8.6-2.408-15.11-6.44-17.444a8.39,8.39,0,0,0-4.357-1.064Z" transform="translate(-375 -85.22)" fill="#455a64"/>
      <path id="Path_6864" data-name="Path 6864" d="M442.5,289.493c0-16.085-10.133-22.023-10.133-22.023h0c4.032,2.334,6.44,8.862,6.44,17.444,0,21.225-14.239,47.384-31.121,57.117-3.382,1.964-9.763,4.859-14.372,2.2,0,0,8.552,5.317,20.368-1.137C430.783,333.774,442.5,310.718,442.5,289.493Z" transform="translate(-366.265 -78.214)" fill="#37474f"/>
      <path id="Path_6865" data-name="Path 6865" d="M422.494,149.606a10.664,10.664,0,0,0-21.314,0h0V319.038h0a5.332,5.332,0,0,0,3.117,4.431,16.7,16.7,0,0,0,15.066,0,5.317,5.317,0,0,0,3.131-4.431h0v-169.4h0Z" transform="translate(-362.511 -139.339)" fill="#37474f"/>
      <path id="Path_6866" data-name="Path 6866" d="M423.276,175.642a13.618,13.618,0,0,0-6.159-10.664,4.283,4.283,0,0,0-4.431-.384h0l-26.262,15.14-.635.369a.99.99,0,0,0-.266.162,9.224,9.224,0,0,0-1.255,1.019,8.715,8.715,0,0,0,10.265,13.855l.5-.3,26.454-15.228h0a4.328,4.328,0,0,0,1.787-3.973Z" transform="translate(-371.801 -127.503)" fill="#455a64"/>
      <path id="Path_6867" data-name="Path 6867" d="M424.75,204.361a13.618,13.618,0,0,0-6.159-10.65,4.254,4.254,0,0,0-4.431-.4h0l-30.811,17.725-.635.369a1.15,1.15,0,0,0-.266.162,8.4,8.4,0,0,0-1.256,1.019,8.744,8.744,0,0,0,1.95,13.855,8.862,8.862,0,0,0,4.165,1.034,8.685,8.685,0,0,0,4.15-1.034c.177-.089.34-.207.5-.3l31.018-17.725h0a4.328,4.328,0,0,0,1.772-4.062Z" transform="translate(-373.275 -113.802)" fill="#455a64"/>
    </g>
  </g>
</svg>
