<svg xmlns="http://www.w3.org/2000/svg" width="1087.786" height="809.334" viewBox="0 0 1087.786 809.334">
  <g id="Consulting-rafiki" transform="translate(0 -55)">
    <g id="freepik--background-complete--inject-33" transform="translate(0 55)">
      <rect id="Rectangle_1238" data-name="Rectangle 1238" width="72.055" height="0.544" transform="translate(906.735 747.287)" fill="#ebebeb"/>
      <rect id="Rectangle_1239" data-name="Rectangle 1239" width="18.906" height="0.544" transform="translate(701.687 753.204)" fill="#ebebeb"/>
      <rect id="Rectangle_1240" data-name="Rectangle 1240" width="41.749" height="0.544" transform="translate(862.81 727.098)" fill="#ebebeb"/>
      <rect id="Rectangle_1241" data-name="Rectangle 1241" width="93.963" height="0.544" transform="translate(114.13 730.753)" fill="#ebebeb"/>
      <rect id="Rectangle_1242" data-name="Rectangle 1242" width="13.771" height="0.544" transform="translate(227.478 730.753)" fill="#ebebeb"/>
      <rect id="Rectangle_1243" data-name="Rectangle 1243" width="203.808" height="0.544" transform="translate(286.022 739.934)" fill="#ebebeb"/>
      <path id="Path_6994" data-name="Path 6994" d="M470.692,670.252H50.611a12.423,12.423,0,0,1-12.4-12.422V67.314A12.423,12.423,0,0,1,50.611,55H470.692a12.423,12.423,0,0,1,12.423,12.423V657.829A12.423,12.423,0,0,1,470.692,670.252ZM50.611,55.435A11.879,11.879,0,0,0,38.754,67.314V657.829a11.879,11.879,0,0,0,11.857,11.879H470.692a11.9,11.9,0,0,0,11.879-11.879V67.314a11.9,11.9,0,0,0-11.879-11.879Z" transform="translate(44.919 -55)" fill="#ebebeb"/>
      <path id="Path_6995" data-name="Path 6995" d="M687.025,670.252h-420.1A12.444,12.444,0,0,1,254.5,657.829V67.314A12.444,12.444,0,0,1,266.923,55h420.1A12.423,12.423,0,0,1,699.4,67.314V657.829A12.423,12.423,0,0,1,687.025,670.252ZM266.923,55.435a11.9,11.9,0,0,0-11.879,11.879V657.829a11.9,11.9,0,0,0,11.879,11.878h420.1A11.9,11.9,0,0,0,698.9,657.829V67.314a11.9,11.9,0,0,0-11.879-11.879Z" transform="translate(299.183 -55)" fill="#ebebeb"/>
      <rect id="Rectangle_1244" data-name="Rectangle 1244" width="1087.786" height="0.544" transform="translate(0 712.282)" fill="#ebebeb"/>
      <rect id="Rectangle_1245" data-name="Rectangle 1245" width="155.009" height="525.857" transform="translate(836.311 35.614)" fill="#fafafa"/>
      <rect id="Rectangle_1246" data-name="Rectangle 1246" width="193.8" height="335.125" transform="translate(801.459 221.756)" fill="#e0e0e0"/>
      <path id="Path_6996" data-name="Path 6996" d="M385.5,135.41v84.042H504.874V135.41Z" transform="translate(453.183 39.528)" fill="#e0e0e0"/>
      <rect id="Rectangle_1247" data-name="Rectangle 1247" width="24.802" height="24.802" transform="translate(813.881 234.178)" fill="#fafafa"/>
      <rect id="Rectangle_1248" data-name="Rectangle 1248" width="24.802" height="24.802" transform="translate(861.94 234.178)" fill="#fafafa"/>
      <rect id="Rectangle_1249" data-name="Rectangle 1249" width="24.802" height="24.802" transform="translate(909.998 234.178)" fill="#fafafa"/>
      <rect id="Rectangle_1250" data-name="Rectangle 1250" width="24.823" height="24.802" transform="translate(958.056 234.178)" fill="#f0f0f0"/>
      <rect id="Rectangle_1251" data-name="Rectangle 1251" width="24.802" height="24.823" transform="translate(813.881 279.256)" fill="#f0f0f0"/>
      <rect id="Rectangle_1252" data-name="Rectangle 1252" width="24.802" height="24.823" transform="translate(861.94 279.256)" fill="#f0f0f0"/>
      <rect id="Rectangle_1253" data-name="Rectangle 1253" width="24.802" height="24.823" transform="translate(909.998 279.256)" fill="#fafafa"/>
      <rect id="Rectangle_1254" data-name="Rectangle 1254" width="24.823" height="24.823" transform="translate(958.056 279.256)" fill="#fafafa"/>
      <rect id="Rectangle_1255" data-name="Rectangle 1255" width="24.802" height="24.802" transform="translate(813.881 324.334)" fill="#f0f0f0"/>
      <rect id="Rectangle_1256" data-name="Rectangle 1256" width="24.802" height="24.802" transform="translate(861.94 324.334)" fill="#fafafa"/>
      <rect id="Rectangle_1257" data-name="Rectangle 1257" width="24.802" height="24.802" transform="translate(909.998 324.334)" fill="#fafafa"/>
      <rect id="Rectangle_1258" data-name="Rectangle 1258" width="24.802" height="24.802" transform="translate(861.94 195.192)" fill="#fafafa"/>
      <rect id="Rectangle_1259" data-name="Rectangle 1259" width="24.802" height="24.802" transform="translate(909.998 195.192)" fill="#f0f0f0"/>
      <rect id="Rectangle_1260" data-name="Rectangle 1260" width="24.823" height="24.802" transform="translate(958.056 324.334)" fill="#f0f0f0"/>
      <rect id="Rectangle_1261" data-name="Rectangle 1261" width="24.802" height="24.802" transform="translate(813.881 369.412)" fill="#fafafa"/>
      <rect id="Rectangle_1262" data-name="Rectangle 1262" width="24.802" height="24.802" transform="translate(861.94 369.412)" fill="#f0f0f0"/>
      <rect id="Rectangle_1263" data-name="Rectangle 1263" width="24.802" height="24.802" transform="translate(909.998 369.412)" fill="#f0f0f0"/>
      <rect id="Rectangle_1264" data-name="Rectangle 1264" width="24.823" height="24.802" transform="translate(958.056 369.412)" fill="#fafafa"/>
      <rect id="Rectangle_1265" data-name="Rectangle 1265" width="24.802" height="24.823" transform="translate(813.881 414.512)" fill="#f0f0f0"/>
      <rect id="Rectangle_1266" data-name="Rectangle 1266" width="24.802" height="24.823" transform="translate(861.94 414.512)" fill="#fafafa"/>
      <rect id="Rectangle_1267" data-name="Rectangle 1267" width="24.802" height="24.823" transform="translate(909.998 414.512)" fill="#fafafa"/>
      <rect id="Rectangle_1268" data-name="Rectangle 1268" width="24.823" height="24.823" transform="translate(958.056 414.512)" fill="#f0f0f0"/>
      <rect id="Rectangle_1269" data-name="Rectangle 1269" width="24.802" height="24.802" transform="translate(813.881 459.589)" fill="#f0f0f0"/>
      <rect id="Rectangle_1270" data-name="Rectangle 1270" width="24.802" height="24.802" transform="translate(861.94 459.589)" fill="#fafafa"/>
      <rect id="Rectangle_1271" data-name="Rectangle 1271" width="24.802" height="24.802" transform="translate(909.998 459.589)" fill="#f0f0f0"/>
      <rect id="Rectangle_1272" data-name="Rectangle 1272" width="24.823" height="24.802" transform="translate(958.056 459.589)" fill="#fafafa"/>
      <rect id="Rectangle_1273" data-name="Rectangle 1273" width="24.802" height="24.823" transform="translate(813.881 504.667)" fill="#fafafa"/>
      <rect id="Rectangle_1274" data-name="Rectangle 1274" width="24.802" height="24.823" transform="translate(861.94 504.667)" fill="#fafafa"/>
      <rect id="Rectangle_1275" data-name="Rectangle 1275" width="24.802" height="24.823" transform="translate(909.998 504.667)" fill="#f0f0f0"/>
      <rect id="Rectangle_1276" data-name="Rectangle 1276" width="24.823" height="24.823" transform="translate(958.056 504.667)" fill="#f0f0f0"/>
      <rect id="Rectangle_1277" data-name="Rectangle 1277" width="155.009" height="525.857" transform="translate(836.007 35.614)" fill="#fff" opacity="0.1"/>
      <g id="Group_323" data-name="Group 323" transform="translate(872.361 35.614)" opacity="0.3">
        <path id="Path_6997" data-name="Path 6997" d="M504.472,71.37H455.043L400.98,597.227h49.407Z" transform="translate(-400.98 -71.37)" fill="#fff"/>
      </g>
      <rect id="Rectangle_1278" data-name="Rectangle 1278" width="157.62" height="13.336" transform="translate(835.006 28.957)" fill="#e0e0e0"/>
      <rect id="Rectangle_1279" data-name="Rectangle 1279" width="157.62" height="13.336" transform="translate(835.006 556.881)" fill="#ebebeb"/>
      <path id="Path_6998" data-name="Path 6998" d="M551.4,627.979H380.53V62.33H551.4ZM393.562,614.925H538.39V75.383H393.562Z" transform="translate(447.34 -46.383)" fill="#ebebeb"/>
      <rect id="Rectangle_1280" data-name="Rectangle 1280" width="155.009" height="525.857" transform="translate(667.226 35.614)" fill="#fafafa"/>
      <rect id="Rectangle_1281" data-name="Rectangle 1281" width="132.558" height="162.667" transform="translate(677.951 396.041)" fill="#e6e6e6"/>
      <path id="Path_6999" data-name="Path 6999" d="M393.089,245.33H345.27V262.3h47.819Z" transform="translate(405.889 168.746)" fill="#e6e6e6"/>
      <path id="Path_7000" data-name="Path 7000" d="M393.089,260.44H345.27v16.969h47.819Z" transform="translate(405.889 186.509)" fill="#fafafa"/>
      <path id="Path_7001" data-name="Path 7001" d="M393.089,275.55H345.27v16.969h47.819Z" transform="translate(405.889 204.272)" fill="#e6e6e6"/>
      <path id="Path_7002" data-name="Path 7002" d="M393.089,290.66H345.27v16.969h47.819Z" transform="translate(405.889 222.035)" fill="#fafafa"/>
      <path id="Path_7003" data-name="Path 7003" d="M364.727,245.33h-47.8V262.3h47.8Z" transform="translate(372.574 168.746)" fill="#fafafa"/>
      <path id="Path_7004" data-name="Path 7004" d="M364.727,260.44h-47.8v16.969h47.8Z" transform="translate(372.574 186.509)" fill="#fafafa"/>
      <path id="Path_7005" data-name="Path 7005" d="M364.727,275.55h-47.8v16.969h47.8Z" transform="translate(372.574 204.272)" fill="#e6e6e6"/>
      <path id="Path_7006" data-name="Path 7006" d="M364.727,290.66h-47.8v16.969h47.8Z" transform="translate(372.574 222.035)" fill="#fafafa"/>
      <rect id="Rectangle_1282" data-name="Rectangle 1282" width="155.009" height="525.857" transform="translate(666.726 35.614)" fill="#fff" opacity="0.1"/>
      <g id="Group_324" data-name="Group 324" transform="translate(703.275 35.614)" opacity="0.3">
        <path id="Path_7007" data-name="Path 7007" d="M426.752,71.37H377.345L323.26,597.227h49.429Z" transform="translate(-323.26 -71.37)" fill="#fff"/>
      </g>
      <rect id="Rectangle_1283" data-name="Rectangle 1283" width="157.62" height="13.336" transform="translate(665.921 28.957)" fill="#e0e0e0"/>
      <rect id="Rectangle_1284" data-name="Rectangle 1284" width="157.62" height="13.336" transform="translate(665.921 556.881)" fill="#ebebeb"/>
      <path id="Path_7008" data-name="Path 7008" d="M473.689,627.979H302.82V62.33H473.689ZM315.83,614.925H460.658V75.383H315.83Z" transform="translate(355.987 -46.383)" fill="#ebebeb"/>
      <rect id="Rectangle_1285" data-name="Rectangle 1285" width="155.009" height="525.857" transform="translate(261.069 35.614)" fill="#fafafa"/>
      <rect id="Rectangle_1286" data-name="Rectangle 1286" width="155.009" height="525.857" transform="translate(260.764 35.614)" fill="#fff" opacity="0.1"/>
      <g id="Group_325" data-name="Group 325" transform="translate(297.14 35.614)" opacity="0.3">
        <path id="Path_7009" data-name="Path 7009" d="M240.072,71.37H190.643L136.58,597.227h49.407Z" transform="translate(-136.58 -71.37)" fill="#fff"/>
      </g>
      <rect id="Rectangle_1287" data-name="Rectangle 1287" width="157.62" height="13.336" transform="translate(259.785 28.957)" fill="#e0e0e0"/>
      <rect id="Rectangle_1288" data-name="Rectangle 1288" width="157.62" height="13.336" transform="translate(259.785 556.881)" fill="#ebebeb"/>
      <path id="Path_7010" data-name="Path 7010" d="M287,627.979H116.13V62.33H287ZM129.162,614.925H273.968V75.383H129.162Z" transform="translate(136.519 -46.383)" fill="#ebebeb"/>
      <rect id="Rectangle_1289" data-name="Rectangle 1289" width="155.009" height="525.857" transform="translate(92.222 35.614)" fill="#fafafa"/>
      <rect id="Rectangle_1290" data-name="Rectangle 1290" width="119.983" height="100.685" transform="translate(103.884 258.306)" fill="#e6e6e6"/>
      <rect id="Rectangle_1291" data-name="Rectangle 1291" width="15.36" height="15.36" transform="translate(111.563 270.859)" fill="#fafafa"/>
      <rect id="Rectangle_1292" data-name="Rectangle 1292" width="15.36" height="15.36" transform="translate(141.325 270.859)" fill="#fafafa"/>
      <rect id="Rectangle_1293" data-name="Rectangle 1293" width="15.36" height="15.36" transform="translate(171.087 270.859)" fill="#fafafa"/>
      <rect id="Rectangle_1294" data-name="Rectangle 1294" width="15.36" height="15.36" transform="translate(200.827 270.859)" fill="#fafafa"/>
      <rect id="Rectangle_1295" data-name="Rectangle 1295" width="15.36" height="15.36" transform="translate(111.563 298.771)" fill="#fafafa"/>
      <rect id="Rectangle_1296" data-name="Rectangle 1296" width="15.36" height="15.36" transform="translate(141.325 298.771)" fill="#fafafa"/>
      <rect id="Rectangle_1297" data-name="Rectangle 1297" width="15.36" height="15.36" transform="translate(171.087 298.771)" fill="#fafafa"/>
      <rect id="Rectangle_1298" data-name="Rectangle 1298" width="15.36" height="15.36" transform="translate(200.827 298.771)" fill="#e6e6e6"/>
      <rect id="Rectangle_1299" data-name="Rectangle 1299" width="15.36" height="15.36" transform="translate(111.563 326.662)" fill="#e6e6e6"/>
      <rect id="Rectangle_1300" data-name="Rectangle 1300" width="15.36" height="15.36" transform="translate(141.325 326.662)" fill="#e6e6e6"/>
      <rect id="Rectangle_1301" data-name="Rectangle 1301" width="15.36" height="15.36" transform="translate(171.087 326.662)" fill="#fafafa"/>
      <rect id="Rectangle_1302" data-name="Rectangle 1302" width="15.36" height="15.36" transform="translate(200.827 326.662)" fill="#e6e6e6"/>
      <rect id="Rectangle_1303" data-name="Rectangle 1303" width="119.983" height="100.685" transform="translate(103.884 357.729)" fill="#e6e6e6"/>
      <rect id="Rectangle_1304" data-name="Rectangle 1304" width="15.36" height="15.36" transform="translate(111.563 370.26)" fill="#fafafa"/>
      <rect id="Rectangle_1305" data-name="Rectangle 1305" width="15.36" height="15.36" transform="translate(141.325 370.26)" fill="#fafafa"/>
      <rect id="Rectangle_1306" data-name="Rectangle 1306" width="15.36" height="15.36" transform="translate(171.087 370.26)" fill="#fafafa"/>
      <rect id="Rectangle_1307" data-name="Rectangle 1307" width="15.36" height="15.36" transform="translate(200.827 370.26)" fill="#fafafa"/>
      <rect id="Rectangle_1308" data-name="Rectangle 1308" width="15.36" height="15.36" transform="translate(111.563 398.173)" fill="#fafafa"/>
      <rect id="Rectangle_1309" data-name="Rectangle 1309" width="15.36" height="15.36" transform="translate(141.325 398.173)" fill="#fafafa"/>
      <rect id="Rectangle_1310" data-name="Rectangle 1310" width="15.36" height="15.36" transform="translate(171.087 398.173)" fill="#fafafa"/>
      <rect id="Rectangle_1311" data-name="Rectangle 1311" width="15.36" height="15.36" transform="translate(200.827 398.173)" fill="#e6e6e6"/>
      <rect id="Rectangle_1312" data-name="Rectangle 1312" width="15.36" height="15.36" transform="translate(111.563 426.086)" fill="#e6e6e6"/>
      <rect id="Rectangle_1313" data-name="Rectangle 1313" width="15.36" height="15.36" transform="translate(141.325 426.086)" fill="#e6e6e6"/>
      <rect id="Rectangle_1314" data-name="Rectangle 1314" width="15.36" height="15.36" transform="translate(171.087 426.086)" fill="#fafafa"/>
      <rect id="Rectangle_1315" data-name="Rectangle 1315" width="15.36" height="15.36" transform="translate(200.827 426.086)" fill="#e6e6e6"/>
      <rect id="Rectangle_1316" data-name="Rectangle 1316" width="119.983" height="100.685" transform="translate(103.884 457.131)" fill="#e6e6e6"/>
      <rect id="Rectangle_1317" data-name="Rectangle 1317" width="15.36" height="15.36" transform="translate(111.563 469.684)" fill="#fafafa"/>
      <rect id="Rectangle_1318" data-name="Rectangle 1318" width="15.36" height="15.36" transform="translate(141.325 469.684)" fill="#fafafa"/>
      <rect id="Rectangle_1319" data-name="Rectangle 1319" width="15.36" height="15.36" transform="translate(171.087 469.684)" fill="#fafafa"/>
      <rect id="Rectangle_1320" data-name="Rectangle 1320" width="15.36" height="15.36" transform="translate(200.827 469.684)" fill="#fafafa"/>
      <rect id="Rectangle_1321" data-name="Rectangle 1321" width="15.36" height="15.36" transform="translate(111.563 497.597)" fill="#fafafa"/>
      <rect id="Rectangle_1322" data-name="Rectangle 1322" width="15.36" height="15.36" transform="translate(141.325 497.597)" fill="#fafafa"/>
      <rect id="Rectangle_1323" data-name="Rectangle 1323" width="15.36" height="15.36" transform="translate(171.087 497.597)" fill="#fafafa"/>
      <rect id="Rectangle_1324" data-name="Rectangle 1324" width="15.36" height="15.36" transform="translate(200.827 497.597)" fill="#e6e6e6"/>
      <rect id="Rectangle_1325" data-name="Rectangle 1325" width="15.36" height="15.36" transform="translate(111.563 525.509)" fill="#e6e6e6"/>
      <rect id="Rectangle_1326" data-name="Rectangle 1326" width="15.36" height="15.36" transform="translate(141.325 525.509)" fill="#e6e6e6"/>
      <rect id="Rectangle_1327" data-name="Rectangle 1327" width="15.36" height="15.36" transform="translate(171.087 525.509)" fill="#fafafa"/>
      <rect id="Rectangle_1328" data-name="Rectangle 1328" width="15.36" height="15.36" transform="translate(200.827 525.509)" fill="#e6e6e6"/>
      <rect id="Rectangle_1329" data-name="Rectangle 1329" width="155.009" height="525.857" transform="translate(90.177 35.614)" fill="#fff" opacity="0.1"/>
      <g id="Group_326" data-name="Group 326" transform="translate(128.293 35.614)" opacity="0.3">
        <path id="Path_7011" data-name="Path 7011" d="M162.44,71.37H113.033L58.97,597.227h49.407Z" transform="translate(-58.97 -71.37)" fill="#fff"/>
      </g>
      <rect id="Rectangle_1330" data-name="Rectangle 1330" width="157.62" height="13.336" transform="translate(90.939 28.957)" fill="#e0e0e0"/>
      <rect id="Rectangle_1331" data-name="Rectangle 1331" width="157.62" height="13.336" transform="translate(90.939 556.881)" fill="#ebebeb"/>
      <path id="Path_7012" data-name="Path 7012" d="M209.389,627.979H38.52V62.33H209.389ZM51.552,614.925H196.358V75.383H51.552Z" transform="translate(45.283 -46.383)" fill="#ebebeb"/>
      <path id="Path_7013" data-name="Path 7013" d="M245.9,506.012l-1.74.218c-.109-.892-10.682-89.394,11.139-161.71,21.756-71.794,6.744-117.7,6.527-118.134l1.675-.566c.152.457,15.229,46.8-6.527,119.2C235.257,416.987,245.787,505.142,245.9,506.012Z" transform="translate(283.9 145.811)" fill="#e0e0e0"/>
      <path id="Path_7014" data-name="Path 7014" d="M260.247,236.441a27.5,27.5,0,0,0-14.707-9.072l.413-1.719a29.218,29.218,0,0,1,15.642,9.66Z" transform="translate(288.65 145.611)" fill="#e0e0e0"/>
      <rect id="Rectangle_1332" data-name="Rectangle 1332" width="5.765" height="1.762" transform="translate(551.339 392.207) rotate(-29.47)" fill="#e0e0e0"/>
      <path id="Path_7015" data-name="Path 7015" d="M263.632,265.45a41.749,41.749,0,0,0-22.582-21.93l.653-1.61a43.512,43.512,0,0,1,23.54,22.822Z" transform="translate(283.371 164.726)" fill="#e0e0e0"/>
      <path id="Path_7016" data-name="Path 7016" d="M255.136,288.861h-1.762a24.105,24.105,0,0,0-9.094-18.471l1.088-1.371A25.911,25.911,0,0,1,255.136,288.861Z" transform="translate(287.169 196.596)" fill="#e0e0e0"/>
      <path id="Path_7017" data-name="Path 7017" d="M248.363,290.318l-1.653-.631a17.666,17.666,0,0,1,10.008-9.877l.609,1.654a15.751,15.751,0,0,0-8.963,8.855Z" transform="translate(290.025 209.28)" fill="#e0e0e0"/>
      <path id="Path_7018" data-name="Path 7018" d="M242.959,337.7l-1.349-1.11c2.176-2.589,3.764-12.4,4.634-17.666.2-1.262.37-2.328.522-3.111l1.719.326c-.131.761-.3,1.827-.522,3.068C246.679,327.1,245.221,334.977,242.959,337.7Z" transform="translate(284.03 251.601)" fill="#e0e0e0"/>
      <path id="Path_7019" data-name="Path 7019" d="M250.834,346.029a17.4,17.4,0,0,0-16.774-11.574v-1.762A19.167,19.167,0,0,1,252.6,345.485Z" transform="translate(275.154 271.441)" fill="#e0e0e0"/>
      <rect id="Rectangle_1333" data-name="Rectangle 1333" width="18.579" height="1.762" transform="matrix(0.666, -0.746, 0.746, 0.666, 527.03, 649.725)" fill="#e0e0e0"/>
      <path id="Path_7020" data-name="Path 7020" d="M276.916,313.707c2.807,9.072-16.752,26.368-16.752,26.368s-25.911-3.242-28.718-12.336,3.764-23.931,16.317-27.8S274.023,304.635,276.916,313.707Z" transform="translate(271.328 231.817)" fill="#f0f0f0"/>
      <path id="Path_7021" data-name="Path 7021" d="M279.11,269.392c-2.48,9.638-21.016,16.491-21.016,16.491s-12.923-14.946-10.443-24.584,12.727-20.276,21.408-18.035S281.59,259.754,279.11,269.392Z" transform="translate(290.759 165.962)" fill="#ebebeb"/>
      <path id="Path_7022" data-name="Path 7022" d="M245.723,322.734c11.618,4.547,18.753,25.106,18.753,25.106s-19.167,10.334-30.806,5.809-23.931-17.4-20.624-25.824S234.083,318.209,245.723,322.734Z" transform="translate(249.807 256.686)" fill="#f5f5f5"/>
      <path id="Path_7023" data-name="Path 7023" d="M245.936,282.3a24.886,24.886,0,0,0,7.941,4.5,8.463,8.463,0,0,0,8.485-2c2.5-2.872,1.827-7.31.261-10.769-3.111-6.853-14.576-18.471-23.387-15.229C226.53,263.7,240.258,278.1,245.936,282.3Z" transform="translate(275.091 183.927)" fill="#e6e6e6"/>
      <path id="Path_7024" data-name="Path 7024" d="M252.949,283.1c-1.675,2.067-3.437,4.656-2.524,7.158a5.308,5.308,0,0,0,5.852,2.872,15.707,15.707,0,0,0,6.287-3.067c4.482-3.133,13.684-9.66,7.81-15.773S256.451,278.723,252.949,283.1Z" transform="translate(294.099 200.599)" fill="#ebebeb"/>
      <path id="Path_7025" data-name="Path 7025" d="M236.485,237.367a4.612,4.612,0,0,0-4.2,3.394c-.37,2.176,1.479,4.177,3.263,5.548,4.46,3.437,17.84,12.705,20.842,3.764C259.219,241.631,242.4,236.649,236.485,237.367Z" transform="translate(273.012 159.305)" fill="#e0e0e0"/>
      <path id="Path_7026" data-name="Path 7026" d="M252.885,224.127c-2.763.261-5.526-.74-8.289-.566s-5.852,2.393-5.221,5.113,3.677,3.329,6.222,3.5a50.693,50.693,0,0,0,13.053-.914,4,4,0,0,0,2.632-1.327c1.131-1.653-.653-3.872-2.567-4.351a28.418,28.418,0,0,1-5.787-1.371Z" transform="translate(281.305 143.132)" fill="#e6e6e6"/>
      <path id="Path_7027" data-name="Path 7027" d="M262.554,233.15c2.785,0,5.461-1.11,8.245-1.11s5.983,2,5.548,4.743-3.459,3.59-6,3.916a49.647,49.647,0,0,1-13.053,0,4.046,4.046,0,0,1-2.741-1.153c-1.218-1.588.413-3.894,2.176-4.612a27.545,27.545,0,0,0,5.7-1.762Z" transform="translate(298.743 153.123)" fill="#f0f0f0"/>
      <path id="Path_7028" data-name="Path 7028" d="M269.8,327.145a3.916,3.916,0,0,1,2.371-1.175,2.676,2.676,0,0,1,2.35,2.306,7.723,7.723,0,0,1-.435,3.5c-1.893,6.287-23,51.866-27.869,43.685-2.872-4.852,4.2-20.864,6.287-25.411a66.072,66.072,0,0,1,17.3-22.909Z" transform="translate(288.649 263.544)" fill="#f0f0f0"/>
      <path id="Path_7029" data-name="Path 7029" d="M250.89,230.974a23.932,23.932,0,0,1,6.766-10.008c3.329-2.415,8.7-2.589,11.1.74,2.719,3.72,0,9.377-4.155,11.356s-9.007,1.371-13.576.74a12.618,12.618,0,0,0-.109-2.023Z" transform="translate(294.939 138.002)" fill="#e6e6e6"/>
      <path id="Path_7030" data-name="Path 7030" d="M308.937,424.871h0a203.416,203.416,0,0,1-68.313,0h0L214.06,346.55H335.522Z" transform="translate(251.643 287.738)" fill="#f0f0f0"/>
      <circle id="Ellipse_219" data-name="Ellipse 219" cx="45.1" cy="45.1" r="45.1" transform="translate(500.077 35.94)" fill="#e0e0e0"/>
      <circle id="Ellipse_220" data-name="Ellipse 220" cx="45.1" cy="45.1" r="45.1" transform="translate(490.425 116.463) rotate(-80.78)" fill="#ebebeb"/>
      <path id="Path_7031" data-name="Path 7031" d="M304.953,111.082a36.2,36.2,0,1,1-36.2-36.2A36.2,36.2,0,0,1,304.953,111.082Z" transform="translate(273.379 -31.63)" fill="#fff" opacity="0.8"/>
      <path id="Path_7032" data-name="Path 7032" d="M248.872,96.482a3.677,3.677,0,1,1,5.2,0,3.677,3.677,0,0,1-5.2,0Z" transform="translate(291.301 -13.614)" fill="#e0e0e0"/>
      <path id="Path_7033" data-name="Path 7033" d="M250.389,91.673l21.364-.653.065,2.219-19.363.587L250.367,127.5l-2.2-.131Z" transform="translate(291.742 -12.656)" fill="#e0e0e0"/>
    </g>
    <g id="freepik--Shadow--inject-33" transform="translate(122.071 815.079)">
      <ellipse id="freepik--path--inject-33" cx="421.822" cy="24.627" rx="421.822" ry="24.627" fill="#f5f5f5"/>
    </g>
    <g id="freepik--character-2--inject-33" transform="translate(524.96 297.903)">
      <path id="Path_7034" data-name="Path 7034" d="M553.021,523.129l11.052-175.917A113.478,113.478,0,0,0,450.813,226.62h0A113.474,113.474,0,0,0,337.531,333.686L326,539.163H535.943a17.122,17.122,0,0,0,17.078-16.034Z" transform="translate(-141.724 -96.151)" fill="#62c9d5"/>
      <path id="Path_7035" data-name="Path 7035" d="M553.412,516.774l10.66-169.542A113.478,113.478,0,0,0,450.813,226.64h0A113.474,113.474,0,0,0,337.531,333.706L326,539.139H529.612A23.931,23.931,0,0,0,553.412,516.774Z" transform="translate(-141.724 -96.128)" opacity="0.1"/>
      <path id="Path_7036" data-name="Path 7036" d="M536.855,539.163l12.053-191.951A113.5,113.5,0,0,0,435.648,226.62h0A113.457,113.457,0,0,0,322.366,333.707l-11.6,205.456Z" transform="translate(-159.628 -96.151)" fill="#62c9d5"/>
      <path id="Path_7037" data-name="Path 7037" d="M420.288,403.315h2.893a3.285,3.285,0,0,0,3.089-2.937l4.351-30.088H413l4.351,30.088a3.307,3.307,0,0,0,2.937,2.937Z" transform="translate(-39.449 72.743)" fill="#62c9d5"/>
      <path id="Path_7038" data-name="Path 7038" d="M420.288,403.315h2.893a3.285,3.285,0,0,0,3.089-2.937l4.351-30.088H413l4.351,30.088a3.307,3.307,0,0,0,2.937,2.937Z" transform="translate(-39.449 72.743)" fill="#fff" opacity="0.7"/>
      <path id="Path_7039" data-name="Path 7039" d="M289.3,403.315h2.611a3.133,3.133,0,0,0,2.807-2.937l3.938-30.088H282.64l3.894,30.088a3.133,3.133,0,0,0,2.763,2.937Z" transform="translate(-192.696 72.743)" fill="#62c9d5"/>
      <path id="Path_7040" data-name="Path 7040" d="M289.3,403.315h2.611a3.133,3.133,0,0,0,2.807-2.937l3.938-30.088H282.64l3.894,30.088a3.133,3.133,0,0,0,2.763,2.937Z" transform="translate(-192.696 72.743)" fill="#fff" opacity="0.5"/>
      <path id="Path_7041" data-name="Path 7041" d="M326.919,403.315h2.633a3.133,3.133,0,0,0,2.807-2.937l3.872-30.088H320.24l3.829,30.088a3.133,3.133,0,0,0,2.85,2.937Z" transform="translate(-148.495 72.743)" fill="#62c9d5"/>
      <path id="Path_7042" data-name="Path 7042" d="M326.919,403.315h2.633a3.133,3.133,0,0,0,2.807-2.937l3.872-30.088H320.24l3.829,30.088a3.133,3.133,0,0,0,2.85,2.937Z" transform="translate(-148.495 72.743)" fill="#fff" opacity="0.7"/>
      <path id="Path_7043" data-name="Path 7043" d="M379.788,403.315h2.894a3.329,3.329,0,0,0,3.111-2.937l4.351-30.088H372.5l4.351,30.088a3.285,3.285,0,0,0,2.937,2.937Z" transform="translate(-87.06 72.743)" fill="#62c9d5"/>
      <path id="Path_7044" data-name="Path 7044" d="M379.788,403.315h2.894a3.329,3.329,0,0,0,3.111-2.937l4.351-30.088H372.5l4.351,30.088a3.285,3.285,0,0,0,2.937,2.937Z" transform="translate(-87.06 72.743)" fill="#fff" opacity="0.5"/>
      <path id="Path_7045" data-name="Path 7045" d="M397.358,410.943H319.995l-5.113-74.579-1.11-16.012h0l-.5-7.375a49.089,49.089,0,0,0-.761-5.765,6.722,6.722,0,0,0-.261-1.284,4.352,4.352,0,0,0-.239-.914,44.62,44.62,0,0,0-11.77-20.037A37.985,37.985,0,0,0,276.07,274.1h75.166a37.746,37.746,0,0,1,26.346,10.878,44.664,44.664,0,0,1,11.792,20.037,4.357,4.357,0,0,1,.239.914,49.1,49.1,0,0,1,1.022,7.049l.5,7.375h0Z" transform="translate(-200.42 -40.335)" fill="#62c9d5"/>
      <path id="Path_7046" data-name="Path 7046" d="M397.358,410.943H319.995l-5.113-74.579-1.11-16.012h0l-.5-7.375a49.089,49.089,0,0,0-.761-5.765,6.722,6.722,0,0,0-.261-1.284,4.352,4.352,0,0,0-.239-.914,44.62,44.62,0,0,0-11.77-20.037A37.985,37.985,0,0,0,276.07,274.1h75.166a37.746,37.746,0,0,1,26.346,10.878,44.664,44.664,0,0,1,11.792,20.037,4.357,4.357,0,0,1,.239.914,49.1,49.1,0,0,1,1.022,7.049l.5,7.375h0Z" transform="translate(-200.42 -40.335)" opacity="0.1"/>
      <g id="Group_327" data-name="Group 327" transform="translate(258.246 330.795)" opacity="0.1">
        <path id="Path_7047" data-name="Path 7047" d="M360,318.7h31.067c7.571,0,13.684,4.786,13.684,10.682v18.362c0,5.918-6.113,10.682-13.684,10.682H360Z" transform="translate(-360 -318.7)"/>
      </g>
      <rect id="Rectangle_1334" data-name="Rectangle 1334" width="160.427" height="39.748" rx="5.42" transform="translate(280.023 370.521) rotate(180)" fill="#62c9d5"/>
      <path id="Path_7048" data-name="Path 7048" d="M528.3,318.1a44.077,44.077,0,0,1-36.571,43.512l-7.941,106.016c-.7,9.007-7.245,15.9-15.077,15.9H383.39c7.832,0,14.359-6.9,15.055-15.9l4.351-56.565,3.677-49.516a43.9,43.9,0,0,0,31.611-23.192,23.908,23.908,0,0,0,1.153-2.371,43.511,43.511,0,0,0,3.785-17.883,45.281,45.281,0,0,0-.914-8.985c-.239-1.175-.544-2.35-.87-3.5a44.706,44.706,0,0,0-7.31-14.337h0A44.186,44.186,0,0,0,398.967,274h85.326a43.294,43.294,0,0,1,19.689,4.656,43.75,43.75,0,0,1,15.229,12.553h0A43.968,43.968,0,0,1,528.3,318.1Z" transform="translate(-74.258 -40.453)" fill="#62c9d5"/>
      <path id="Path_7049" data-name="Path 7049" d="M528.3,318.1a44.077,44.077,0,0,1-36.571,43.512l-7.941,106.016c-.7,9.007-7.245,15.9-15.077,15.9H383.39c7.832,0,14.359-6.9,15.055-15.9l4.351-56.565,3.677-49.516a43.9,43.9,0,0,0,31.611-23.192,23.908,23.908,0,0,0,1.153-2.371,43.511,43.511,0,0,0,3.785-17.883,45.281,45.281,0,0,0-.914-8.985c-.239-1.175-.544-2.35-.87-3.5a44.706,44.706,0,0,0-7.31-14.337h0A44.186,44.186,0,0,0,398.967,274h85.326a43.294,43.294,0,0,1,19.689,4.656,43.75,43.75,0,0,1,15.229,12.553h0A43.968,43.968,0,0,1,528.3,318.1Z" transform="translate(-74.258 -40.453)" opacity="0.1"/>
      <path id="Path_7050" data-name="Path 7050" d="M591.989,318.074c0,21.756-14.337,39.878-33.156,43.511l-7.266,105.994c-.631,9.007-6.527,15.925-13.663,15.925H310.035c-7.092,0-13.053-6.918-13.663-15.925l-7.288-106.19c-18.449-3.873-32.394-21.756-32.394-43.25a46.906,46.906,0,0,1,7.375-25.476,41.336,41.336,0,0,1,14.729-13.945,36.44,36.44,0,0,1,17.861-4.677,37.942,37.942,0,0,1,26.368,10.878,44.556,44.556,0,0,1,11.77,20.015,4.737,4.737,0,0,1,.239.957,47.861,47.861,0,0,1,1.022,7.027l.522,7.375h0l6.2,90.721H505.162l6.723-97.9c.957-13.837,7.7-25.367,17.056-30.828a36.985,36.985,0,0,1,20.69-8.028,21.76,21.76,0,0,1,2.393-.109,36.18,36.18,0,0,1,17.4,4.351,3.38,3.38,0,0,1,.479.261,40.987,40.987,0,0,1,13.837,12.553h0A47.057,47.057,0,0,1,591.989,318.074Z" transform="translate(-223.203 -40.406)" fill="#62c9d5"/>
      <path id="Path_7051" data-name="Path 7051" d="M501.446,483.474H310c-7.092,0-13.053-6.918-13.663-15.925l-7.288-106.19c-18.449-3.873-32.394-21.756-32.394-43.25a46.905,46.905,0,0,1,7.375-25.476,41.335,41.335,0,0,1,14.729-13.945,36.441,36.441,0,0,1,17.861-4.677,37.943,37.943,0,0,1,26.368,10.878,44.555,44.555,0,0,1,11.77,20.015,4.738,4.738,0,0,1,.239.957,47.868,47.868,0,0,1,1.023,7.027l.522,7.375h0l6.288,90.786H505.209Z" transform="translate(-223.25 -40.441)" fill="#fff" opacity="0.1"/>
      <path id="Path_7052" data-name="Path 7052" d="M453.275,246.379c-3.785,2.176-7.245,3.981-10.878,5.831s-7.2,3.546-10.878,5.243c-7.31,3.329-14.707,6.527-22.321,9.29a245.47,245.47,0,0,1-23.409,7.4,149.765,149.765,0,0,1-25.15,4.5l-1.806.174h-.848a203.588,203.588,0,0,1-21.321-3.7c-6.831-1.523-13.6-3.024-20.3-4.743s-13.358-3.481-20.015-5.4-13.249-3.894-19.841-6.135l3.024-15.1c13.684.87,27.347,2.176,40.879,3.59l20.211,2.023c6.657.653,13.467,1.218,19.428,1.436H357.42a146.052,146.052,0,0,0,20.146-5.091c6.81-2.176,13.619-4.656,20.429-7.571s13.554-5.918,20.255-9.116c3.437-1.566,6.766-3.22,10.029-4.852s6.744-3.372,9.725-4.917Z" transform="translate(-199.903 -104.815)" fill="#263238"/>
      <path id="Path_7053" data-name="Path 7053" d="M453.275,246.379c-3.785,2.176-7.245,3.981-10.878,5.831s-7.2,3.546-10.878,5.243c-7.31,3.329-14.707,6.527-22.321,9.29a245.47,245.47,0,0,1-23.409,7.4,149.765,149.765,0,0,1-25.15,4.5l-1.806.174h-.848a203.588,203.588,0,0,1-21.321-3.7c-6.831-1.523-13.6-3.024-20.3-4.743s-13.358-3.481-20.015-5.4-13.249-3.894-19.841-6.135l3.024-15.1c13.684.87,27.347,2.176,40.879,3.59l20.211,2.023c6.657.653,13.467,1.218,19.428,1.436H357.42a146.052,146.052,0,0,0,20.146-5.091c6.81-2.176,13.619-4.656,20.429-7.571s13.554-5.918,20.255-9.116c3.437-1.566,6.766-3.22,10.029-4.852s6.744-3.372,9.725-4.917Z" transform="translate(-199.903 -104.815)" opacity="0.1"/>
      <path id="Path_7054" data-name="Path 7054" d="M285.365,229.474a37.179,37.179,0,0,0-10.53-5.134l-5.635,22,16.882,7.092,1.915-2.35a14.99,14.99,0,0,0-2.633-21.6Z" transform="translate(-208.496 -98.832)" fill="#ffc3bd"/>
      <path id="Path_7055" data-name="Path 7055" d="M277.229,250.979l5.635-21.995-15.751-8.594-4.743,15.49Z" transform="translate(-216.525 -103.475)" fill="#ffc3bd"/>
      <path id="Path_7056" data-name="Path 7056" d="M333.41,259.672h.87c8.311-.892,32.742-5,50.408-22.43-2.632-5.091-6.244-9.029-10.66-9.921C361.845,225.016,346.92,233.74,333.41,259.672Z" transform="translate(-133.013 -95.744)" opacity="0.2"/>
      <path id="Path_7057" data-name="Path 7057" d="M340,388.4c20.842-56.282,7.136-108.039,9.747-136.691A32.634,32.634,0,0,1,376.158,222.6c14.228-2.741,31.829-5.831,48.6-8.093a32.808,32.808,0,0,1,37.289,33.025C460.592,332.379,433.4,388.4,433.4,388.4l-43.947-.2Z" transform="translate(-125.266 -110.754)" fill="#62c9d5"/>
      <path id="Path_7058" data-name="Path 7058" d="M340,388.4c20.842-56.282,7.136-108.039,9.747-136.691A32.634,32.634,0,0,1,376.158,222.6c14.228-2.741,31.829-5.831,48.6-8.093a32.808,32.808,0,0,1,37.289,33.025C460.592,332.379,433.4,388.4,433.4,388.4l-43.947-.2Z" transform="translate(-125.266 -110.754)" fill="#fff" opacity="0.8"/>
      <g id="freepik--character-2--inject-102--inject-33" transform="translate(0 264.375)">
        <path id="Path_7059" data-name="Path 7059" d="M266.369,382.54,260.8,419.155h17.687L290.1,382.54Z" transform="translate(-218.371 -177.231)" fill="#ffc3bd"/>
        <path id="Path_7060" data-name="Path 7060" d="M281.464,395.93l23.648-.566a1.327,1.327,0,0,1,1.479,1.305v17.4a3.981,3.981,0,0,1-3.894,3.546c-8.224,0-12.14-.3-22.539,0a265.881,265.881,0,0,1-33.112-2.176c-8.419-1.436-6.135-9.333-2.328-9.464,17.187-.631,26.8-4.221,32.982-8.7a6.353,6.353,0,0,1,3.764-1.349Z" transform="translate(-241.298 -162.165)" fill="#263238"/>
        <path id="Path_7061" data-name="Path 7061" d="M262.33,397.225l2.241-14.685h23.736l-5.7,18.318Z" transform="translate(-216.572 -177.231)" opacity="0.2"/>
        <path id="Path_7062" data-name="Path 7062" d="M421.675,288.257s-143.914,1.436-146.155,47.014c-3.176,65.528-14.25,165.343-14.25,165.343l27.129,7.462s38.725-99.054,40.226-150.245c40.487-8.05,144.545,0,156.772-26.585a71.184,71.184,0,0,0,4.612-43.076Z" transform="translate(-217.818 -288.17)" fill="#62c9d5"/>
        <path id="Path_7063" data-name="Path 7063" d="M421.675,288.257s-143.914,1.436-146.155,47.014c-3.176,65.528-14.25,165.343-14.25,165.343l27.129,7.462s38.725-99.054,40.226-150.245c40.487-8.05,144.545,0,156.772-26.585a71.184,71.184,0,0,0,4.612-43.076Z" transform="translate(-217.818 -288.17)" opacity="0.6"/>
        <path id="Path_7064" data-name="Path 7064" d="M321.56,389.744l9.594,24.845H350.56l-6.679-26.129Z" transform="translate(-146.943 -170.272)" fill="#ffc3bd"/>
        <path id="Path_7065" data-name="Path 7065" d="M347.932,402.033l-3.764-19.123-24.519,3.046,6.287,16.621Z" transform="translate(-149.189 -176.796)" opacity="0.2"/>
        <path id="Path_7066" data-name="Path 7066" d="M343.539,396.692h24.78a1.523,1.523,0,0,1,1.632,1.392h0l1.2,18.558a3.829,3.829,0,0,1-3.851,3.742c-8.7-.152-12.749-.631-23.648-.631-6.679,0-20.211.653-29.457.653s-8.985-8.7-5.091-9.377c17.622-3.524,24.432-8.376,30.632-13.053a6.527,6.527,0,0,1,3.807-1.284Z" transform="translate(-164.593 -160.599)" fill="#263238"/>
        <path id="Path_7067" data-name="Path 7067" d="M421.616,288.222S291.082,297.076,294.3,342.611c3.5,49.864,55.782,165.5,55.782,165.5h26.3s-17.4-104.906-25.411-155.727c36.811,0,122.115,5.548,134.385-21.1a71.336,71.336,0,0,0,4.569-43.076Z" transform="translate(-179.056 -288.135)" fill="#62c9d5"/>
        <path id="Path_7068" data-name="Path 7068" d="M421.616,288.222S291.082,297.076,294.3,342.611c3.5,49.864,55.782,165.5,55.782,165.5h26.3s-17.4-104.906-25.411-155.727c36.811,0,122.115,5.548,134.385-21.1a71.336,71.336,0,0,0,4.569-43.076Z" transform="translate(-179.056 -288.135)" opacity="0.5"/>
      </g>
      <path id="Path_7069" data-name="Path 7069" d="M370.249,218.749c3,11.618,3.938,26.107-12.292,32.09-4.5,7.179-6.7,14.75,10.639,12.053a53.388,53.388,0,0,0,35-19.8c-10.377-9.094-8.485-36.985-5.852-52.714Z" transform="translate(-107.913 -138.754)" fill="#ffc3bd"/>
      <path id="Path_7070" data-name="Path 7070" d="M388.544,213.14c-14.9,2.545-27.151,14.076-33.721,27.673s-8.158,29.087-8.028,44.208,1.849,30.175,1.436,45.274c-.457,17.4-4.656,29.74-10.66,46.144,0,3.894,5.9,6.092,10.878,7.114,10.4-22.691,17.231-44.4,16.513-69.335-.544-18.1-.783-38.725,2.176-56.565s24.3-41.14,23.279-44.36Z" transform="translate(-128.122 -111.998)" fill="#263238"/>
      <path id="Path_7071" data-name="Path 7071" d="M373.978,218.461a14.468,14.468,0,0,1-11.008,2.654,50.03,50.03,0,0,0-.609-8.441l18.014-14.794a40.734,40.734,0,0,1,.762,5.83A16.513,16.513,0,0,1,373.978,218.461Z" transform="translate(-98.98 -129.937)" opacity="0.3"/>
      <path id="Path_7072" data-name="Path 7072" d="M364.37,173.954c-19.036,10.769-19.232,41.205-13.358,58.74a26.368,26.368,0,0,0,46.187,7.745c9.311-11.77,7.963-23.648,7.506-44.1S383.428,163.206,364.37,173.954Z" transform="translate(-116.306 -162.663)" fill="#ffc3bd"/>
      <path id="Path_7073" data-name="Path 7073" d="M368.438,208.85c-6.135,2.632-12.858,6.048-19.058,5.308a26.346,26.346,0,0,0,45.687,6.527c7.68-9.66,10.051-16.186,7.876-33.765C391.02,200.887,381.557,203.193,368.438,208.85Z" transform="translate(-114.239 -142.822)" opacity="0.2"/>
      <path id="Path_7074" data-name="Path 7074" d="M368,179.409a17.4,17.4,0,0,0,1.936,20.82c1.719,1.806,3.829,3.2,5.482,5.047a14.881,14.881,0,0,1,3.742,10.573,10.878,10.878,0,0,1,10.334-9.2q-3.873,11.987-7.745,23.931a33.112,33.112,0,0,0,18.884-26.107C402.282,189.025,383.224,155.935,368,179.409Z" transform="translate(-95.391 -161.244)" fill="#263238"/>
      <path id="Path_7075" data-name="Path 7075" d="M347.895,185.882a13.336,13.336,0,0,0-3.024,5.678,5.265,5.265,0,0,0,2.176,5.613,7.941,7.941,0,0,0,5.178.261l17.4-3.024c9.964-1.74,19.928-3.459,29.762-5.831,4.351-1.044,9.377-2.719,11.117-6.9,5.635-13.6-18.427-15.36-26.477-14.99C370.325,167.411,356.467,175.287,347.895,185.882Z" transform="translate(-119.716 -166.65)" fill="#263238"/>
      <path id="Path_7076" data-name="Path 7076" d="M379.6,186.027c-5.7,1.284-8.137,9.485-7.984,14.75,0,5.983,4.351,9.877,9.4,6.266a18.427,18.427,0,0,0,7.136-11.487C389.17,189.921,385.32,184.743,379.6,186.027Z" transform="translate(-88.109 -144.104)" fill="#ffc3bd"/>
      <path id="Path_7077" data-name="Path 7077" d="M359.979,201.559a7.071,7.071,0,0,1-5.939.892c2.176-4.917,1.914-3.807,2.589-12.161Z" transform="translate(-108.761 -138.86)" fill="#ed847e"/>
      <path id="Path_7078" data-name="Path 7078" d="M366.557,185.284c-1.632-1.827-6.092-2.524-8.507-2.176h0a.957.957,0,0,1-1.066-.783,1.044,1.044,0,0,1,.827-1.153c3.046-.457,8.115.457,10.182,2.741h0a.979.979,0,0,1,0,1.371,1.154,1.154,0,0,1-.435.283A.957.957,0,0,1,366.557,185.284Z" transform="translate(-105.309 -149.713)" fill="#263238"/>
      <path id="Path_7079" data-name="Path 7079" d="M348.663,188.338h0a.957.957,0,0,1-.261-1.305,10.116,10.116,0,0,1,7.462-5.113h0a.892.892,0,0,1,.914.892,1.023,1.023,0,0,1-.936,1.066,8.2,8.2,0,0,0-5.874,4.112.979.979,0,0,1-.783.5.761.761,0,0,1-.522-.152Z" transform="translate(-115.567 -148.7)" fill="#263238"/>
      <path id="Path_7080" data-name="Path 7080" d="M356,204.5a82.188,82.188,0,0,1,5.765,8.354l1.349-.566c6.135-2.654,7.876-6.353,7.963-9.638a13.968,13.968,0,0,0-2.328-7.332c-2.176,3.764-7.68,6.766-10.682,8.224C356.783,204.175,356,204.5,356,204.5Z" transform="translate(-106.457 -132.947)" fill="#2e353a"/>
      <path id="Path_7081" data-name="Path 7081" d="M356.93,203.544l.892,1.218a1.828,1.828,0,0,0,2.176.587c4.525-2.176,7.528-4.351,8.7-6.81a1.762,1.762,0,0,0,0-1.479,13.759,13.759,0,0,0-1-1.74C365.415,199.084,359.932,202.086,356.93,203.544Z" transform="translate(-105.363 -132.947)" fill="#fff"/>
      <path id="Path_7082" data-name="Path 7082" d="M359.25,208.328c6.135-2.654,7.876-6.353,7.963-9.638a17.817,17.817,0,0,0-6.07,4.59,8.7,8.7,0,0,0-1.893,5.047Z" transform="translate(-102.636 -128.985)" fill="#de5753"/>
      <path id="Path_7083" data-name="Path 7083" d="M352.422,188c-1.066.2-1.653,1.719-1.349,3.35s1.458,2.806,2.524,2.589,1.653-1.7,1.349-3.329A2.893,2.893,0,0,0,352.422,188Z" transform="translate(-112.342 -141.552)" fill="#263238"/>
      <path id="Path_7084" data-name="Path 7084" d="M361,186.632c-1.066.2-1.653,1.7-1.349,3.35s1.458,2.806,2.524,2.589,1.653-1.719,1.349-3.35S362.068,186.436,361,186.632Z" transform="translate(-102.256 -143.186)" fill="#263238"/>
      <path id="Path_7085" data-name="Path 7085" d="M347.87,193.729,361.6,190.64l.239,5.831-12.771,3.046Z" transform="translate(-116.014 -138.448)" fill="#fff" opacity="0.9"/>
      <g id="Group_328" data-name="Group 328" transform="translate(249.761 46.666)" opacity="0.8">
        <path id="Path_7086" data-name="Path 7086" d="M356.1,192.712l1.632,5.352,17.622-3.785L374.31,188.1Z" transform="translate(-356.1 -188.1)" fill="#fff" opacity="0.9"/>
      </g>
      <path id="Path_7087" data-name="Path 7087" d="M354.267,193.288l-.087-2.154,4.177-.914.609,2.023Z" transform="translate(-108.596 -138.942)" fill="#263238"/>
      <path id="Path_7088" data-name="Path 7088" d="M351.92,388.033s24.78,9.594,30.458,11.465a71.12,71.12,0,0,0,20.385,4.677,25.019,25.019,0,0,0,19.3-7.2c5.918-6.309,7.767-15.882,9.311-24.867q6.788-39.574,13.619-79.147c2.176-13.053,7.9-32.634,7.419-40.009-.892-13.706-9.616-29.892-31.829-38.79-8.7-3.459-17.165-2.176-24.432,6.527-4.351,5.178-17.013,17.666-20.124,39.661-2.48,17.622-6.353,40.444-6.113,58.349C370.195,342.237,360.8,371.912,351.92,388.033Z" transform="translate(-111.253 -112.889)" fill="#263238"/>
      <path id="Path_7089" data-name="Path 7089" d="M459.867,233.409c2.524,22.931-10.16,80.735-12.6,84.216-10.4,33.526-38.964,15.447-43.1,13.9-7.2-2.654-14.533-7.854-21.386-11.313-13.293-6.527-25.889-11.922-38.247-20.124l6.962-13.75c13.554,4.612,51.909,14.533,58.24,16.078,2.741.718,13.423,6.309,13.315-1.066,1.5-2.458,3.59-50.343,8.18-67.269a14.272,14.272,0,0,1,2.676-5.2l.413-.522a14.663,14.663,0,0,1,25.541,5.047Z" transform="translate(-119.929 -100.591)" fill="#263238"/>
      <path id="Path_7090" data-name="Path 7090" d="M459.867,233.409c2.524,22.931-10.16,80.735-12.6,84.216-10.4,33.526-38.964,15.447-43.1,13.9-7.2-2.654-14.533-7.854-21.386-11.313-13.293-6.527-25.889-11.922-38.247-20.124l6.962-13.75c13.554,4.612,51.909,14.533,58.24,16.078,2.741.718,13.423,6.309,13.315-1.066,1.5-2.458,3.59-50.343,8.18-67.269a14.272,14.272,0,0,1,2.676-5.2l.413-.522a14.663,14.663,0,0,1,25.541,5.047Z" transform="translate(-119.929 -100.591)" fill="#fff" opacity="0.1"/>
      <path id="Path_7091" data-name="Path 7091" d="M384.01,312.9h-64.4L312.26,228.88h64.4Z" transform="translate(-157.876 -93.495)" fill="#263238"/>
      <path id="Path_7092" data-name="Path 7092" d="M384.01,312.9h-64.4L312.26,228.88h64.4Z" transform="translate(-157.876 -93.495)" fill="#fff" opacity="0.5"/>
      <path id="Path_7093" data-name="Path 7093" d="M382.96,312.711h-64.4L311.21,228.69h64.4Z" transform="translate(-159.11 -93.718)" fill="#62c9d5"/>
      <path id="Path_7094" data-name="Path 7094" d="M382.96,312.711h-64.4L311.21,228.69h64.4Z" transform="translate(-159.11 -93.718)" fill="#fff" opacity="0.8"/>
      <path id="Path_7095" data-name="Path 7095" d="M347.58,236.778H320.494l-.914-10.508h27.064Z" transform="translate(-149.271 -96.563)" fill="#62c9d5"/>
      <path id="Path_7096" data-name="Path 7096" d="M319.58,226.764l2.654-.914h28.043l.392,4.46-2.089,2.415-.131,3.655-.87.892-.936-10.508Z" transform="translate(-149.271 -97.057)" fill="#62c9d5"/>
      <path id="Path_7097" data-name="Path 7097" d="M319.58,226.764l2.654-.914h28.043l.392,4.46-2.089,2.415-.131,3.655-.87.892-.936-10.508Z" transform="translate(-149.271 -97.057)" opacity="0.5"/>
      <path id="Path_7098" data-name="Path 7098" d="M361.973,258.811l1.458,7.854C359.95,275.736,340,273.343,340,273.343V250.13l17.6,4.09A5.874,5.874,0,0,1,361.973,258.811Z" transform="translate(-125.266 -68.514)" fill="#ffc3bd"/>
      <path id="Path_7099" data-name="Path 7099" d="M351.665,250.13l.087,23.257-17.666.435-4.047-20.45Z" transform="translate(-136.974 -68.514)" fill="#ffc3bd"/>
      <path id="Path_7100" data-name="Path 7100" d="M372.934,410.956l6.723-97.9c.957-13.837,7.7-25.367,17.056-30.828A36.985,36.985,0,0,1,417.4,274.2a21.775,21.775,0,0,1,2.393-.109,36.179,36.179,0,0,1,17.4,4.351,3.36,3.36,0,0,1,.479.261,40.986,40.986,0,0,1,13.837,12.553h0a47.058,47.058,0,0,1,8.267,26.846c0,21.756-14.337,39.878-33.156,43.511l-7.288,105.907c-.631,9.007-6.527,15.925-13.663,15.925H369.17Z" transform="translate(-90.974 -40.348)" fill="#62c9d5"/>
      <path id="Path_7101" data-name="Path 7101" d="M372.934,410.956l6.723-97.9c.957-13.837,7.7-25.367,17.056-30.828A36.985,36.985,0,0,1,417.4,274.2a21.775,21.775,0,0,1,2.393-.109,36.179,36.179,0,0,1,17.4,4.351,3.36,3.36,0,0,1,.479.261,40.986,40.986,0,0,1,13.837,12.553h0a47.058,47.058,0,0,1,8.267,26.846c0,21.756-14.337,39.878-33.156,43.511l-7.288,105.907c-.631,9.007-6.527,15.925-13.663,15.925H369.17Z" transform="translate(-90.974 -40.348)" fill="#fff" opacity="0.1"/>
    </g>
    <g id="freepik--text-balloon--inject-33" transform="translate(302.404 175.331)">
      <path id="Path_7102" data-name="Path 7102" d="M304.34,132.221v90.961a8.7,8.7,0,0,1-8.7,8.7H202.48l-33.286,25.737a6.353,6.353,0,0,1-10.182-5.091V231.883h-5.2a8.7,8.7,0,0,1-8.7-8.7V132.2a8.572,8.572,0,0,1,8.7-8.528H295.79a8.55,8.55,0,0,1,8.55,8.55Z" transform="translate(-131.817 -94.605)" fill="none" stroke="#62c9d5" stroke-miterlimit="10" stroke-width="1"/>
      <rect id="Rectangle_1335" data-name="Rectangle 1335" width="17.774" height="2.176" transform="translate(67.508 16.252)" fill="#62c9d5"/>
      <path id="Path_7103" data-name="Path 7103" d="M141.176,143.42H139V132.694a14.946,14.946,0,0,1,14.946-14.924h39.661v2.176H153.9a12.792,12.792,0,0,0-12.771,12.749Z" transform="translate(-139 -101.54)" fill="#62c9d5"/>
      <path id="Path_7104" data-name="Path 7104" d="M207.675,206.013a6.853,6.853,0,0,1-6.875-7.353h0c2.328-26.52,23.344-28.957,25.976-59.11.761-8.7-2.415-11.966-8.485-11.966s-9.812,3.285-10.573,11.966l-.435,4.96a8.985,8.985,0,0,1-8.963,8.2h0a8.985,8.985,0,0,1-8.942-9.768l.2-2.176c1.7-19.406,12.2-30.458,30.763-30.458s27.108,11.1,25.411,30.458c-2.763,31.437-25.715,36.31-27.673,58.479a1.658,1.658,0,0,1,0,.326A6.918,6.918,0,0,1,211.2,206.1Zm9.42,18.449h0a9.137,9.137,0,0,1-9.116,8.354h0a9.137,9.137,0,0,1-9.116-9.942h0A9.137,9.137,0,0,1,208,214.52h0a9.159,9.159,0,0,1,9.094,9.942Z" transform="translate(-79.817 -110.31)" fill="#62c9d5"/>
      <path id="Path_7105" data-name="Path 7105" d="M215.889,149.212H165.851a4.351,4.351,0,0,1,0-8.7h50.038a4.351,4.351,0,0,1,0,8.7Z" transform="translate(-112.55 -74.808)" fill="#62c9d5"/>
      <path id="Path_7106" data-name="Path 7106" d="M208.924,157.132H165.891a4.351,4.351,0,0,1,0-8.7h43.033a4.351,4.351,0,0,1,0,8.7Z" transform="translate(-112.503 -65.497)" fill="#62c9d5"/>
      <path id="Path_7107" data-name="Path 7107" d="M202.006,165.042H165.891a4.351,4.351,0,1,1,0-8.7h36.114a4.351,4.351,0,1,1,0,8.7Z" transform="translate(-112.503 -56.198)" fill="#62c9d5"/>
    </g>
    <g id="freepik--character-1--inject-33" transform="translate(98.988 336.663)">
      <path id="Path_7108" data-name="Path 7108" d="M157.826,323.51H126.041c-7.745,0-14.011,4.9-14.011,10.878v18.8c0,6.048,6.266,10.878,14.011,10.878h31.785Z" transform="translate(32.711 -21.01)" fill="#62c9d5"/>
      <path id="Path_7109" data-name="Path 7109" d="M71.273,524.407,60.221,348.49A113.456,113.456,0,0,1,173.459,227.92h0a113.479,113.479,0,0,1,113.3,107.088l11.574,205.455H88.286A17.122,17.122,0,0,1,71.273,524.407Z" transform="translate(-28.457 -133.383)" fill="#62c9d5"/>
      <path id="Path_7110" data-name="Path 7110" d="M70.881,518.032,60.221,348.49A113.456,113.456,0,0,1,173.459,227.92h0a113.479,113.479,0,0,1,113.3,107.088l11.574,205.455H94.812A23.931,23.931,0,0,1,70.881,518.032Z" transform="translate(-28.457 -133.383)" opacity="0.1"/>
      <path id="Path_7111" data-name="Path 7111" d="M87.473,540.463,75.421,348.49a113.456,113.456,0,0,1,113.26-120.57h0A113.474,113.474,0,0,1,301.962,334.986l11.6,205.476Z" transform="translate(-10.589 -133.383)" fill="#62c9d5"/>
      <path id="Path_7112" data-name="Path 7112" d="M84.776,404.627H81.882a3.35,3.35,0,0,1-3.111-2.959L74.42,371.58H92.064l-4.351,30.088a3.307,3.307,0,0,1-2.937,2.959Z" transform="translate(-11.502 35.5)" fill="#62c9d5"/>
      <path id="Path_7113" data-name="Path 7113" d="M84.776,404.627H81.882a3.35,3.35,0,0,1-3.111-2.959L74.42,371.58H92.064l-4.351,30.088a3.307,3.307,0,0,1-2.937,2.959Z" transform="translate(-11.502 35.5)" fill="#fff" opacity="0.7"/>
      <path id="Path_7114" data-name="Path 7114" d="M214.861,404.627h-2.632a3.155,3.155,0,0,1-2.806-2.959L205.55,371.58h15.99l-3.873,30.088A3.155,3.155,0,0,1,214.861,404.627Z" transform="translate(142.65 35.5)" fill="#62c9d5"/>
      <path id="Path_7115" data-name="Path 7115" d="M214.861,404.627h-2.632a3.155,3.155,0,0,1-2.806-2.959L205.55,371.58h15.99l-3.873,30.088A3.155,3.155,0,0,1,214.861,404.627Z" transform="translate(142.65 35.5)" fill="#fff" opacity="0.5"/>
      <path id="Path_7116" data-name="Path 7116" d="M177.275,404.627h-2.654a3.155,3.155,0,0,1-2.806-2.959L167.92,371.58h16.012l-3.873,30.088a3.176,3.176,0,0,1-2.785,2.959Z" transform="translate(98.413 35.5)" fill="#62c9d5"/>
      <path id="Path_7117" data-name="Path 7117" d="M177.275,404.627h-2.654a3.155,3.155,0,0,1-2.806-2.959L167.92,371.58h16.012l-3.873,30.088a3.176,3.176,0,0,1-2.785,2.959Z" transform="translate(98.413 35.5)" fill="#fff" opacity="0.7"/>
      <path id="Path_7118" data-name="Path 7118" d="M125.276,404.627h-2.894a3.329,3.329,0,0,1-3.111-2.959L114.92,371.58h17.644l-4.351,30.088a3.307,3.307,0,0,1-2.937,2.959Z" transform="translate(36.108 35.5)" fill="#62c9d5"/>
      <path id="Path_7119" data-name="Path 7119" d="M125.276,404.627h-2.894a3.329,3.329,0,0,1-3.111-2.959L114.92,371.58h17.644l-4.351,30.088a3.307,3.307,0,0,1-2.937,2.959Z" transform="translate(36.108 35.5)" fill="#fff" opacity="0.5"/>
      <path id="Path_7120" data-name="Path 7120" d="M163.71,412.146h77.363l5.113-74.513,1.088-16.012h0l.522-7.375a49.686,49.686,0,0,1,.74-5.765,6.577,6.577,0,0,1,.283-1.262,4.546,4.546,0,0,1,.239-.935,44.555,44.555,0,0,1,11.77-20.015,37.963,37.963,0,0,1,24.149-10.878H209.81a37.855,37.855,0,0,0-26.368,10.878,44.556,44.556,0,0,0-11.77,20.015,4.543,4.543,0,0,0-.239.935,48.8,48.8,0,0,0-1.023,7.027l-.5,7.375h0Z" transform="translate(93.464 -77.579)" fill="#62c9d5"/>
      <path id="Path_7121" data-name="Path 7121" d="M163.71,412.146h77.363l5.113-74.513,1.088-16.012h0l.522-7.375a49.686,49.686,0,0,1,.74-5.765,6.577,6.577,0,0,1,.283-1.262,4.546,4.546,0,0,1,.239-.935,44.555,44.555,0,0,1,11.77-20.015,37.963,37.963,0,0,1,24.149-10.878H209.81a37.855,37.855,0,0,0-26.368,10.878,44.556,44.556,0,0,0-11.77,20.015,4.543,4.543,0,0,0-.239.935,48.8,48.8,0,0,0-1.023,7.027l-.5,7.375h0Z" transform="translate(93.464 -77.579)" opacity="0.1"/>
      <g id="Group_329" data-name="Group 329" transform="translate(151.115 294.864)" opacity="0.1">
        <path id="Path_7122" data-name="Path 7122" d="M159.711,320H128.623c-7.549,0-13.663,4.786-13.663,10.682v18.384c0,5.9,6.113,10.682,13.663,10.682h31.089Z" transform="translate(-114.96 -320)"/>
      </g>
      <rect id="Rectangle_1336" data-name="Rectangle 1336" width="160.427" height="39.748" rx="5.42" transform="translate(174.089 294.842)" fill="#62c9d5"/>
      <path id="Path_7123" data-name="Path 7123" d="M45.5,319.375a44.077,44.077,0,0,0,36.571,43.511L90.1,468.815c.7,9.007,7.223,15.925,15.055,15.925H190.5c-7.832,0-14.359-6.918-15.055-15.925L171.1,412.251l-3.742-49.407a44.055,44.055,0,0,1-31.568-23.213c-.413-.783-.783-1.588-1.131-2.393a43.316,43.316,0,0,1-3.807-17.861,43.9,43.9,0,0,1,.933-9c.241-1.185.546-2.359.851-3.491a45.078,45.078,0,0,1,7.332-14.359h0a44.229,44.229,0,0,1,15.229-12.553,43.685,43.685,0,0,1,19.58-4.656h-85.2a44.16,44.16,0,0,0-34.961,17.209h0A43.968,43.968,0,0,0,45.5,319.375Z" transform="translate(-45.5 -77.661)" fill="#62c9d5"/>
      <path id="Path_7124" data-name="Path 7124" d="M45.5,319.375a44.077,44.077,0,0,0,36.571,43.511L90.1,468.815c.7,9.007,7.223,15.925,15.055,15.925H190.5c-7.832,0-14.359-6.918-15.055-15.925L171.1,412.251l-3.742-49.407a44.055,44.055,0,0,1-31.568-23.213c-.413-.783-.783-1.588-1.131-2.393a43.316,43.316,0,0,1-3.807-17.861,43.9,43.9,0,0,1,.933-9c.241-1.185.546-2.359.851-3.491a45.078,45.078,0,0,1,7.332-14.359h0a44.229,44.229,0,0,1,15.229-12.553,43.685,43.685,0,0,1,19.58-4.656h-85.2a44.16,44.16,0,0,0-34.961,17.209h0A43.968,43.968,0,0,0,45.5,319.375Z" transform="translate(-45.5 -77.661)" opacity="0.1"/>
      <path id="Path_7125" data-name="Path 7125" d="M84.72,319.34c0,21.756,14.337,39.9,33.156,43.511l7.266,106.016c.631,9.029,6.527,15.925,13.663,15.925H366.674c7.092,0,13.053-6.9,13.663-15.925L387.625,362.7C406.052,358.827,420,340.944,420,319.427a46.905,46.905,0,0,0-7.354-25.476,41.466,41.466,0,0,0-14.75-13.945,36.636,36.636,0,0,0-17.84-4.656,37.812,37.812,0,0,0-26.368,10.878,44.664,44.664,0,0,0-11.792,20.015,6.532,6.532,0,0,0-.218.936,45.948,45.948,0,0,0-1.022,7.027l-.522,7.375h0l-6.2,90.591H171.547l-6.723-97.9c-.979-13.837-7.7-25.367-17.056-30.828a37.289,37.289,0,0,0-20.69-8.028h-2.393a36.18,36.18,0,0,0-17.4,4.351,2.618,2.618,0,0,0-.5.239,41.619,41.619,0,0,0-13.837,12.553h0A46.905,46.905,0,0,0,84.72,319.34Z" transform="translate(0.606 -77.626)" fill="#62c9d5"/>
      <path id="Path_7126" data-name="Path 7126" d="M128.372,484.752h191.45c7.092,0,13.053-6.9,13.663-15.925l7.288-106.168c18.427-3.872,32.373-21.756,32.373-43.272a46.9,46.9,0,0,0-7.354-25.476,41.466,41.466,0,0,0-14.75-13.945,36.637,36.637,0,0,0-17.84-4.656,37.812,37.812,0,0,0-26.368,10.878A44.663,44.663,0,0,0,295.042,306.2a6.523,6.523,0,0,0-.217.936,45.94,45.94,0,0,0-1.023,7.027l-.522,7.375h0l-6.2,90.591H124.63Z" transform="translate(47.523 -77.673)" fill="#fff" opacity="0.1"/>
      <path id="Path_7127" data-name="Path 7127" d="M153.13,412.36l18.558,5.134,16.665-43.62-18.558-5.134Z" transform="translate(81.027 32.161)" fill="#ffc3bd"/>
      <path id="Path_7128" data-name="Path 7128" d="M183.457,392.49a9.681,9.681,0,0,0-5.939-3.611l-19.036-3.72a1.762,1.762,0,0,0-2.176,1.175l-5.9,17.4a3.807,3.807,0,0,0,2.328,4.873h.13c7.049,2.785,11.813,1.828,22.822,3.96,6.81,1.305,21.06,5.831,30.589,5.439s9.507-9.812,5.5-10.508C197.641,405.326,186.764,396.8,183.457,392.49Z" transform="translate(77.568 51.379)" fill="#263238"/>
      <g id="Group_330" data-name="Group 330" transform="translate(242.228 400.901)" opacity="0.2">
        <path id="Path_7129" data-name="Path 7129" d="M183.991,373.9l-8.594,22.5-18.558-5.178,8.572-22.474Z" transform="translate(-156.84 -368.74)"/>
      </g>
      <path id="Path_7130" data-name="Path 7130" d="M170.257,304.6S281.995,304,278.514,341.415c-2.35,25.28-14.489,51.844-23.931,77.494-13.728,37.18-25.628,69.618-25.628,69.618L203.5,479.716S226.365,372.2,241.768,361.191H147.283c-31.263,0-44.773-34.331-14.337-74.361C151.548,286.9,170.257,304.6,170.257,304.6Z" transform="translate(37.183 -64.13)" fill="#62c9d5"/>
      <path id="Path_7131" data-name="Path 7131" d="M170.257,304.628s111.737-.609,108.256,36.811c1.719,23.257-49.581,147.069-49.581,147.069L203.478,479.7s22.865-107.517,38.268-118.525H147.283c-31.263,0-44.773-34.33-14.337-74.361C151.548,286.919,170.257,304.628,170.257,304.628Z" transform="translate(37.183 -64.154)" opacity="0.6"/>
      <path id="Path_7132" data-name="Path 7132" d="M220.513,302.485c-13.75,12.553-40.748-17.165-45.1-20.69-9.311-7.615-36.68-33.156-35.244-42.032,4.351-26.107,47.166,10.878,59.545,36.376Z" transform="translate(65.727 -129.954)" fill="#263238"/>
      <path id="Path_7133" data-name="Path 7133" d="M136.367,228.208c-6.9,1.458-14.359-1.023-19.21,4.09s-6.875,12.292-7.571,19.3a128.357,128.357,0,0,0,1.523,29.283q2.176,17.687,4.547,35.353a105.125,105.125,0,0,1-1.11,29.087h0a4.678,4.678,0,0,0,2.654,5.069s53.5,1.827,69.053,1.24c8.267-.3,2.589-22.06,5.134-34.809.566-2.828,6.092-14.446,6.918-17.4,3.829-14.032,1.284-23.692-2.176-37.79-2.589-10.247-3.655-25.019-8.876-26.107C177.855,233.582,155.555,224.118,136.367,228.208Z" transform="translate(29.542 -134.237)" fill="#62c9d5"/>
      <path id="Path_7134" data-name="Path 7134" d="M136.367,228.208c-6.9,1.458-14.359-1.023-19.21,4.09s-6.875,12.292-7.571,19.3a128.357,128.357,0,0,0,1.523,29.283q2.176,17.687,4.547,35.353a105.125,105.125,0,0,1-1.11,29.087h0a4.678,4.678,0,0,0,2.654,5.069s53.5,1.827,69.053,1.24c8.267-.3,2.589-22.06,5.134-34.809.566-2.828,6.092-14.446,6.918-17.4,3.829-14.032,1.284-23.692-2.176-37.79-2.589-10.247-3.655-25.019-8.876-26.107C177.855,233.582,155.555,224.118,136.367,228.208Z" transform="translate(29.542 -134.237)" fill="#fff" opacity="0.8"/>
      <path id="Path_7135" data-name="Path 7135" d="M131.355,236.278c-.718-1.088-19.58-16.926-22.952,1.371-4.765,25.476,5.091,50.539,5.091,50.539s2.176,27.565,10.269,30.327,15.621,3.437,18.318-1.284a28,28,0,0,0,2.7-11.77S143.865,255.249,131.355,236.278Z" transform="translate(26.918 -132.256)" fill="#263238"/>
      <path id="Path_7136" data-name="Path 7136" d="M126.838,211.59c1.936,11.726,3.568,33.156-4.808,40.7,0,0,20.472,10.726,33.917,29.435a17.731,17.731,0,0,0,6.222-19.8,17.274,17.274,0,0,0-8.7-10.4c-7.941-4.351-7.179-12.575-5-20.276Z" transform="translate(44.467 -152.58)" fill="#e8bfbf"/>
      <path id="Path_7137" data-name="Path 7137" d="M125.47,220.74l7.636,2.937a25.04,25.04,0,0,0,10.269,1.653h0a16.359,16.359,0,0,0,0,7.266,14.663,14.663,0,0,1-15.229-4.873,25.215,25.215,0,0,1-2.676-6.984Z" transform="translate(48.51 -141.824)" opacity="0.2"/>
      <path id="Path_7138" data-name="Path 7138" d="M220.747,399.728h20.8L219.768,347.58l-14.1,23.931Z" transform="translate(142.791 7.286)" fill="#ffc3bd"/>
      <path id="Path_7139" data-name="Path 7139" d="M239.412,372.306l-24.388-5.548a1.719,1.719,0,0,0-2.045,1.11l-6.81,18.753a3.742,3.742,0,0,0,2.567,4.634h0c8.55,1.784,12.749,2.176,23.474,4.634,6.527,1.5,23.322,5.9,32.438,7.963s11.509-6.853,7.876-8.55c-16.273-7.527-25.084-14.729-29.805-20.864a5.875,5.875,0,0,0-3.307-2.132Z" transform="translate(143.206 29.77)" fill="#263238"/>
      <g id="Group_331" data-name="Group 331" transform="translate(348.461 354.866)" opacity="0.2">
        <path id="Path_7140" data-name="Path 7140" d="M219.768,347.58l9.268,22.213-18.71,10.443-4.656-8.7Z" transform="translate(-205.67 -347.58)"/>
      </g>
      <path id="Path_7141" data-name="Path 7141" d="M112.752,284.245l-2.176,7.092c-.283.544.348,1.11,1.262,1.153l80.5,2.437c.74,0,1.327-.3,1.392-.761l.935-7.136c0-.479-.566-.914-1.327-.957l-79.191-2.393A1.458,1.458,0,0,0,112.752,284.245Z" transform="translate(30.922 -67.854)" fill="#263238"/>
      <path id="Path_7142" data-name="Path 7142" d="M218.815,345.319C192.338,356.61,163.621,367.88,148,367.88c-31.285,0-59.067-22.582-29.457-73.969,18.623,0,50.974.522,50.974.522s60.916-17.4,105.254-12.27a50.038,50.038,0,0,1,43.272,39.922c11.226,56.565,28.522,117.742,28.522,117.742l-22.256,15.229s-34.7-72.947-54.672-130.8C259.063,327.588,239.635,336.443,218.815,345.319Z" transform="translate(25.545 -70.732)" fill="#62c9d5"/>
      <path id="Path_7143" data-name="Path 7143" d="M318.157,322.094a50.038,50.038,0,0,0-43.272-39.965C230.633,277.081,169.63,294.4,169.63,294.4s-32.351-.587-50.974-.522c-30.088,51.169-1.827,73.969,29.457,73.969,15.621,0,44.338-11.27,70.815-22.561,20.82-8.876,40.248-17.731,50.821-21.125,19.972,57.914,54.672,130.882,54.672,130.882l22.256-15.229S329.383,378.658,318.157,322.094Z" transform="translate(25.431 -70.741)" opacity="0.5"/>
      <path id="Path_7144" data-name="Path 7144" d="M201.649,324.92a208.162,208.162,0,0,1-3.263,21.647c-.109-.239-.2-.457-.283-.7s0-.109,0-.174a3.9,3.9,0,0,0-.283-.7c-5.918-14.707-11.7-29.784-16.6-43.99h.152C194.034,306.384,202.671,314.042,201.649,324.92Z" transform="translate(114.049 -47.461)" fill="#62c9d5"/>
      <path id="Path_7145" data-name="Path 7145" d="M201.649,324.92a208.162,208.162,0,0,1-3.263,21.647c-.109-.239-.2-.457-.283-.7s0-.109,0-.174a3.9,3.9,0,0,0-.283-.7c-5.918-14.707-11.7-29.784-16.6-43.99h.152C194.034,306.384,202.671,314.042,201.649,324.92Z" transform="translate(114.049 -47.461)" opacity="0.6"/>
      <path id="Path_7146" data-name="Path 7146" d="M118.57,225.815c6.527,18.384,8.92,26.3,21.147,33.2,18.427,10.4,39.53-1.7,38.616-21.756-.827-17.948-11.378-45.013-31.829-47.188a26.607,26.607,0,0,0-27.934,35.658Z" transform="translate(38.462 -178.075)" fill="#e8bfbf"/>
      <path id="Path_7147" data-name="Path 7147" d="M132.963,207.123c.457,1.588,1.61,2.524,2.611,2.176s1.392-1.74,1-3.285-1.588-2.524-2.611-2.176S132.528,205.6,132.963,207.123Z" transform="translate(57.117 -161.776)" fill="#263238"/>
      <path id="Path_7148" data-name="Path 7148" d="M140.807,204.643c.457,1.61,1.61,2.545,2.611,2.176s1.392-1.74,1-3.285-1.61-2.524-2.589-2.176S140.372,203.142,140.807,204.643Z" transform="translate(66.351 -164.691)" fill="#263238"/>
      <path id="Path_7149" data-name="Path 7149" d="M141,202.606l3.35-2.176S143.284,203.846,141,202.606Z" transform="translate(66.767 -165.699)" fill="#263238"/>
      <path id="Path_7150" data-name="Path 7150" d="M137.91,204.43a42.445,42.445,0,0,0,8.224,8.18,6.744,6.744,0,0,1-5.156,2.5Z" transform="translate(63.135 -160.997)" fill="#ed847e"/>
      <path id="Path_7151" data-name="Path 7151" d="M117.05,227.64a55.28,55.28,0,0,1,3.024,10.247A14.207,14.207,0,0,1,108,252.681a13.641,13.641,0,0,0,15.729-7.114,18.558,18.558,0,0,1-9.2,10.138,19.732,19.732,0,0,0,15.773-7.593c-1.023,2.654-2.176,5.287-3.089,7.941A34.091,34.091,0,0,0,139.5,243.173c1.153-2.176,2.023-5,.5-6.918s-3.938-1.784-6.157-1.827-4.9-.566-5.7-2.632.674-4.134,2.284-5.548,3.546-2.719,4.134-4.786a9.007,9.007,0,0,0-.3-4.482q-1.5-6-2.959-12.031a12.487,12.487,0,0,0-1.5-4.025c-4.351-6.527-9.2,3.046-10.878,6.287a28.522,28.522,0,0,0-1.871,20.429Z" transform="translate(27.973 -167.738)" fill="#263238"/>
      <path id="Path_7152" data-name="Path 7152" d="M117.987,220.835a15.36,15.36,0,0,0,10.095,5.852c5.33.653,7.2-4.351,5.069-8.9-1.936-4.177-7.027-9.507-12.053-8.093S114.985,216.831,117.987,220.835Z" transform="translate(37.762 -155.08)" fill="#e8bfbf"/>
      <path id="Path_7153" data-name="Path 7153" d="M138.159,199.876a1.022,1.022,0,0,1-.8.827c-4.351.827-6.875,6.07-6.875,6.113a1,1,0,0,1-1.305.5.979.979,0,0,1-.479-1.284c.2-.2,2.893-6.222,8.289-7.266a1,1,0,0,1,1.131.783.565.565,0,0,1,.044.326Z" transform="translate(52.203 -167.669)" fill="#263238"/>
      <path id="Path_7154" data-name="Path 7154" d="M139.179,197.277a1.066,1.066,0,0,0-.827.218c-.239.261-1.044.718-.587.957,2.654,1.349,6.331,3.568,9.159,3.111.479,0,1.61-.5,1.371-.848a1.392,1.392,0,0,0-1.305-.413c-2.176.3-5.243-1.806-7.332-2.894a1.96,1.96,0,0,0-.479-.131Z" transform="translate(62.801 -169.421)" fill="#263238"/>
      <path id="Path_7155" data-name="Path 7155" d="M133.14,205.076l3.372-2.176S135.446,206.359,133.14,205.076Z" transform="translate(57.527 -162.796)" fill="#263238"/>
      <path id="Path_7156" data-name="Path 7156" d="M159.983,187.117c-7.419-1.349-8.376-1.849-15.9-1.371A37.551,37.551,0,0,0,123,193.034a34.374,34.374,0,0,0-11.509,18.405,53.193,53.193,0,0,0-.566,21.93,14.272,14.272,0,0,0,4.221,9.181A55.8,55.8,0,0,1,117.125,231a18.8,18.8,0,0,1,6.527-9.594,10.2,10.2,0,0,0,3.481-3.089,12.682,12.682,0,0,0,.783-3.96,12.227,12.227,0,0,1,5.091-7.462,41.753,41.753,0,0,1,8.2-4.221c9.159-3.938,19.145-6.2,27.586-11.509A39.964,39.964,0,0,0,159.983,187.117Z" transform="translate(30.379 -183.17)" fill="#263238"/>
      <path id="Path_7157" data-name="Path 7157" d="M117.71,217.521a14.4,14.4,0,0,0,7.767,4.852c3.611.827,12.64.609,13.184-.326s-2.676-11.074-6.331-11.683a24.672,24.672,0,0,0,8.833,5.482,28.85,28.85,0,0,0,11.313,0c1.915-.435-2.371-8.354-5.482-10.617,9.377,1.958,19.3,4.2,26.107,10.878s9.747,17.252,9.4,27.108a13.489,13.489,0,0,0,5.026-10.7,39.965,39.965,0,0,1-2.763,31.045c9.964-8.18,13.684-22.474,11.074-35.092s-10.878-23.6-20.907-31.676c-8.7-6.9-19.058-12.053-30.088-12.314C130.372,184.039,103.569,200.487,117.71,217.521Z" transform="translate(34.689 -184.466)" fill="#263238"/>
      <path id="Path_7158" data-name="Path 7158" d="M136.807,240.781c0-.718.174-1.675.261-2.676a9.311,9.311,0,0,0-7.571-9.921h0a3.851,3.851,0,0,1-2.959-2.524c-1.675-4.873-2.328-6.353-3.938-11.139-4.351-1.066-9.594.566-14.141,1.044a39.639,39.639,0,0,0-.261,16.621,7.462,7.462,0,0,0,1.392,3.394,59.327,59.327,0,0,0,13.576,8.354C127.082,245.132,132.586,241.151,136.807,240.781Z" transform="translate(27.318 -149.551)" fill="#e8bfbf"/>
      <path id="Path_7159" data-name="Path 7159" d="M117.7,230.421s-11.987,77.341.37,89.2c7.245,6.918,13.51,3.089,17.4-1.24a15.446,15.446,0,0,0,3.785-11.922l-8.419-79.234S122.574,222.328,117.7,230.421Z" transform="translate(33.241 -135.927)" fill="#e8bfbf"/>
      <path id="Path_7160" data-name="Path 7160" d="M180.311,295.925a32.851,32.851,0,0,0,10.138-16.273,31.741,31.741,0,0,0,.435-6.744c-.109-14.011-4.068-39.7-4.068-39.7l-11.378-3.764s-3.546,19.58-4.351,30.284c-.152,2.176-.392,4.59-.653,7.223-.5,4.786-1.11,10.051-1.653,14.424Z" transform="translate(99.425 -131.596)" fill="#e8bfbf"/>
      <path id="Path_7161" data-name="Path 7161" d="M188.523,286.031c3.5-3.2,4.09-7.071,5.9-15.229,1.719-7.789-.218-17.4-1.827-15.947a1.567,1.567,0,0,0-.435.674c-2.763,6.527-13.51.8-16.556-2.458a22.209,22.209,0,0,1-3.437-4.177,3.5,3.5,0,0,1,0-3.96c-3.307-1.371-5.961,11.639-4.351,14.837l.827,2.415a33.657,33.657,0,0,0,5.961,10.747l5.983,7.2Z" transform="translate(97.717 -113.5)" fill="#263238"/>
      <path id="Path_7162" data-name="Path 7162" d="M172.429,240.935,171.08,221.05a80.793,80.793,0,0,0,10.878,4.242c5.526,1.893,13.053-1.436,11.313,2.176A151.2,151.2,0,0,1,184,243.045Z" transform="translate(102.128 -141.459)" fill="#e8bfbf"/>
      <path id="Path_7163" data-name="Path 7163" d="M171.08,231.806l8.528-19.906,11.139,6.81c3.068,6.657,2.7,19.58,2.7,19.58S177.955,238.9,171.08,231.806Z" transform="translate(102.128 -152.216)" fill="#e8bfbf"/>
      <path id="Path_7164" data-name="Path 7164" d="M137.356,215.594c.283,1.414,1.305,2.415,2.176,2.176s1.414-1.5,1.11-2.915-1.305-2.415-2.176-2.176S137.052,214.267,137.356,215.594Z" transform="translate(62.383 -151.341)" fill="#263238"/>
      <path id="Path_7165" data-name="Path 7165" d="M171.571,412.147l-6.723-97.9c-.979-13.837-7.7-25.367-17.057-30.828a37.29,37.29,0,0,0-20.69-8.028h-2.393a36.18,36.18,0,0,0-17.4,4.351,2.607,2.607,0,0,0-.5.239,41.619,41.619,0,0,0-13.837,12.553h0A46.905,46.905,0,0,0,84.7,319.38c0,21.756,14.337,39.9,33.156,43.511l7.266,106.016c.631,9.029,6.527,15.925,13.663,15.925h36.484Z" transform="translate(0.582 -77.579)" fill="#62c9d5"/>
      <path id="Path_7166" data-name="Path 7166" d="M171.571,412.147l-6.723-97.9c-.979-13.837-7.7-25.367-17.057-30.828a37.29,37.29,0,0,0-20.69-8.028h-2.393a36.18,36.18,0,0,0-17.4,4.351,2.607,2.607,0,0,0-.5.239,41.619,41.619,0,0,0-13.837,12.553h0A46.905,46.905,0,0,0,84.7,319.38c0,21.756,14.337,39.9,33.156,43.511l7.266,106.016c.631,9.029,6.527,15.925,13.663,15.925h36.484Z" transform="translate(0.582 -77.579)" fill="#fff" opacity="0.1"/>
    </g>
    <g id="freepik--Table--inject-33" transform="translate(287.175 580.508)">
      <ellipse id="Ellipse_221" data-name="Ellipse 221" cx="72.969" cy="18.666" rx="72.969" ry="18.666" transform="translate(171.043 232.265)" fill="#263238"/>
      <ellipse id="Ellipse_222" data-name="Ellipse 222" cx="72.969" cy="15.555" rx="72.969" ry="15.555" transform="translate(171.043 232.265)" fill="#fff" opacity="0.3"/>
      <path id="Path_7167" data-name="Path 7167" d="M260.966,491.588H248.914L234.99,341.43h39.9Z" transform="translate(-10.928 -243.789)" fill="#263238"/>
      <path id="Path_7168" data-name="Path 7168" d="M274.89,345.709c0,4.351-8.92,7.919-19.95,7.919s-19.95-3.546-19.95-7.919,8.942-7.919,19.95-7.919S274.89,341.336,274.89,345.709Z" transform="translate(-10.928 -248.068)" fill="#263238"/>
      <path id="Path_7169" data-name="Path 7169" d="M274.89,345.709c0,4.351-8.92,7.919-19.95,7.919s-19.95-3.546-19.95-7.919,8.942-7.919,19.95-7.919S274.89,341.336,274.89,345.709Z" transform="translate(-10.928 -248.068)" fill="#fff" opacity="0.7"/>
      <path id="Path_7170" data-name="Path 7170" d="M132,345.049a6.744,6.744,0,0,1,2.328-4.7c16.861,16.969,123.834,30.045,253.28,30.045s236.419-13.053,253.3-30.045a6.743,6.743,0,0,1,2.328,4.7c0,19.167-114.457,34.809-255.63,34.809S132,364.216,132,345.049Z" transform="translate(-132 -245.059)" fill="#fff" opacity="0.7"/>
      <path id="Path_7171" data-name="Path 7171" d="M133.11,360.723C149.971,343.753,256.944,330.7,386.39,330.7s236.419,13.053,253.3,30.023c-16.882,16.969-123.855,30.045-253.3,30.045S149.971,377.692,133.11,360.723Z" transform="translate(-130.695 -256.403)" fill="#fff" opacity="0.7"/>
      <path id="Path_7172" data-name="Path 7172" d="M132,361.009c0-19.189,114.435-34.809,255.608-34.809s255.63,15.534,255.63,34.809a6.658,6.658,0,0,1-2.328,4.677c-16.882-16.969-123.855-30.023-253.3-30.023s-236.419,13.053-253.28,30.023A6.657,6.657,0,0,1,132,361.009Z" transform="translate(-132 -261.693)" fill="#fff" opacity="0.7"/>
      <path id="Path_7173" data-name="Path 7173" d="M353.7,338.109l-106.951-2.023a2.176,2.176,0,0,1-1.936-2.437h0a2.176,2.176,0,0,1,2.045-2.35l106.951,2.023a2.176,2.176,0,0,1,1.958,2.437h0a2.176,2.176,0,0,1-2.067,2.35Z" transform="translate(0.595 -255.698)" fill="#263238"/>
      <path id="Path_7174" data-name="Path 7174" d="M353.7,338.109l-106.951-2.023a2.176,2.176,0,0,1-1.936-2.437h0a2.176,2.176,0,0,1,2.045-2.35l106.951,2.023a2.176,2.176,0,0,1,1.958,2.437h0a2.176,2.176,0,0,1-2.067,2.35Z" transform="translate(0.595 -255.698)" fill="#fff" opacity="0.2"/>
      <path id="Path_7175" data-name="Path 7175" d="M347.536,333.4l-51.126,7.723a2.176,2.176,0,0,1-2.176-2.067h0A2.393,2.393,0,0,1,296,336.383l51.126-7.723a2.176,2.176,0,0,1,2.176,2.067h0a2.393,2.393,0,0,1-1.762,2.676Z" transform="translate(58.686 -258.801)" fill="#263238"/>
      <path id="Path_7176" data-name="Path 7176" d="M404.056,328.66H295.974L245.74,334.4l104.036,1.958Z" transform="translate(1.709 -258.801)" fill="#263238"/>
      <path id="Path_7177" data-name="Path 7177" d="M404.056,328.66H295.974L245.74,334.4l104.036,1.958Z" transform="translate(1.709 -258.801)" fill="#fff" opacity="0.6"/>
      <path id="Path_7178" data-name="Path 7178" d="M347.536,333.4l-51.126,7.723a2.176,2.176,0,0,1-2.176-2.067h0A2.393,2.393,0,0,1,296,336.383l51.126-7.723a2.176,2.176,0,0,1,2.176,2.067h0a2.393,2.393,0,0,1-1.762,2.676Z" transform="translate(58.686 -258.801)" fill="#fff" opacity="0.5"/>
      <path id="Path_7179" data-name="Path 7179" d="M352.733,373.992,253,372.121a7.745,7.745,0,0,1-6.766-7.745l-3-60.22c-.218-4.2,2.5-7.571,6-7.506l99.728,1.893a7.7,7.7,0,0,1,6.766,7.745l3.024,60.2C358.955,370.685,356.258,374.057,352.733,373.992Z" transform="translate(-1.248 -296.432)" fill="#62c9d5"/>
      <path id="Path_7180" data-name="Path 7180" d="M352.733,373.992,253,372.121a7.745,7.745,0,0,1-6.766-7.745l-3-60.22c-.218-4.2,2.5-7.571,6-7.506l99.728,1.893a7.7,7.7,0,0,1,6.766,7.745l3.024,60.2C358.955,370.685,356.258,374.057,352.733,373.992Z" transform="translate(-1.248 -296.432)" fill="#fff" opacity="0.2"/>
      <path id="Path_7181" data-name="Path 7181" d="M351.4,373.805l-99.728-1.893a7.745,7.745,0,0,1-6.788-7.745l-3-60.111c-.218-4.2,2.5-7.571,6.026-7.506l99.706,1.871a7.745,7.745,0,0,1,6.788,7.745l3.046,60.133C357.627,370.5,354.907,373.87,351.4,373.805Z" transform="translate(-2.835 -296.55)" fill="#62c9d5"/>
      <path id="Path_7182" data-name="Path 7182" d="M351.4,373.805l-99.728-1.893a7.745,7.745,0,0,1-6.788-7.745l-3-60.111c-.218-4.2,2.5-7.571,6.026-7.506l99.706,1.871a7.745,7.745,0,0,1,6.788,7.745l3.046,60.133C357.627,370.5,354.907,373.87,351.4,373.805Z" transform="translate(-2.835 -296.55)" fill="#fff" opacity="0.6"/>
      <path id="Path_7183" data-name="Path 7183" d="M262.386,319.509a11.77,11.77,0,0,0,11.509,10.573,9.551,9.551,0,0,0,9.66-10.573A11.813,11.813,0,0,0,272.046,309a9.551,9.551,0,0,0-9.66,10.508Z" transform="translate(21.221 -281.914)" fill="#fff"/>
    </g>
  </g>
</svg>
