<svg xmlns="http://www.w3.org/2000/svg" width="1629" height="831.856" viewBox="0 0 1629 831.856">
  <g id="freepik--background-complete--inject-3" transform="translate(0)" opacity="0.4">
    <rect id="Rectangle_13" data-name="Rectangle 13" width="28.706" height="346.776" transform="translate(1268.531 485.08)" fill="#e0e0e0"/>
    <rect id="Rectangle_14" data-name="Rectangle 14" width="14.353" height="383.216" transform="translate(1275.707 139.978)" fill="#e0e0e0"/>
    <circle id="Ellipse_1" data-name="Ellipse 1" cx="44.377" cy="44.377" r="44.377" transform="translate(1238.507 108.863)" fill="#ebebeb"/>
    <path id="Path_208" data-name="Path 208" d="M572.741,126.271h-19.7a2.688,2.688,0,0,1-2.688-2.713h0a2.663,2.663,0,0,1,2.688-2.688h19.7a2.688,2.688,0,0,1,2.714,2.688h0A2.713,2.713,0,0,1,572.741,126.271Z" transform="translate(719.626 74.82)" fill="#e0e0e0"/>
    <path id="Path_209" data-name="Path 209" d="M592.229,238.609H548.612a2.967,2.967,0,0,1-2.992-2.967h0a2.992,2.992,0,0,1,2.992-2.992h43.616a2.967,2.967,0,0,1,2.967,2.992h0A2.967,2.967,0,0,1,592.229,238.609Z" transform="translate(712.362 246.496)" fill="#e0e0e0"/>
    <rect id="Rectangle_15" data-name="Rectangle 15" width="28.706" height="346.776" transform="translate(34.796 481.682)" fill="#e0e0e0"/>
    <rect id="Rectangle_16" data-name="Rectangle 16" width="14.353" height="383.216" transform="translate(41.972 136.58)" fill="#e0e0e0"/>
    <ellipse id="Ellipse_2" data-name="Ellipse 2" cx="44.377" cy="44.377" rx="44.377" ry="44.377" transform="translate(0 188.881) rotate(-83.45)" fill="#ebebeb"/>
    <path id="Path_210" data-name="Path 210" d="M86.237,124.957h-19.7a2.713,2.713,0,0,1-2.713-2.713h0a2.713,2.713,0,0,1,2.713-2.713h19.7a2.713,2.713,0,0,1,2.713,2.713h0A2.713,2.713,0,0,1,86.237,124.957Z" transform="translate(-27.604 72.763)" fill="#e0e0e0"/>
    <path id="Path_211" data-name="Path 211" d="M105.689,237.259H62.047a2.992,2.992,0,0,1-2.967-2.992h0a2.967,2.967,0,0,1,2.967-2.967h43.642a2.967,2.967,0,0,1,2.967,2.967h0a2.967,2.967,0,0,1-2.967,2.992Z" transform="translate(-34.884 244.423)" fill="#e0e0e0"/>
    <rect id="Rectangle_17" data-name="Rectangle 17" width="237.253" height="751.952" transform="translate(682.093 73.818)" fill="#f5f5f5"/>
    <rect id="Rectangle_18" data-name="Rectangle 18" width="118.626" height="749.872" transform="translate(800.745 73.818)" fill="#ebebeb"/>
    <rect id="Rectangle_19" data-name="Rectangle 19" width="83.784" height="73.818" transform="translate(709.201)" fill="#f5f5f5"/>
    <rect id="Rectangle_20" data-name="Rectangle 20" width="19.957" height="73.818" transform="translate(773.003)" fill="#ebebeb"/>
    <path id="Path_212" data-name="Path 212" d="M310.73,75.421V71.11H574.71v4.311" transform="translate(351.609 -1.603)" fill="#e0e0e0"/>
    <rect id="Rectangle_21" data-name="Rectangle 21" width="20.084" height="42.348" transform="translate(728.93 106.023)" fill="#fafafa"/>
    <path id="Path_213" data-name="Path 213" d="M437.172,109.251c0,.456-26.576.811-59.313.811s-59.339-.355-59.339-.811,26.55-.811,59.339-.811S437.172,108.82,437.172,109.251Z" transform="translate(363.573 55.73)" fill="#e0e0e0"/>
    <rect id="Rectangle_22" data-name="Rectangle 22" width="20.084" height="42.348" transform="translate(848.596 106.023)" fill="#e0e0e0"/>
    <path id="Path_214" data-name="Path 214" d="M484.362,109.251c0,.456-26.576.811-59.313.811s-59.339-.355-59.339-.811,26.55-.811,59.339-.811S484.362,108.82,484.362,109.251Z" transform="translate(436.049 55.73)" fill="#e0e0e0"/>
    <rect id="Rectangle_23" data-name="Rectangle 23" width="20.084" height="42.348" transform="translate(848.596 190.086)" fill="#e0e0e0"/>
    <path id="Path_215" data-name="Path 215" d="M484.362,142.411c0,.431-26.576.811-59.313.811s-59.339-.38-59.339-.811,26.55-.812,59.339-.812S484.362,141.955,484.362,142.411Z" transform="translate(436.049 106.658)" fill="#e0e0e0"/>
    <rect id="Rectangle_24" data-name="Rectangle 24" width="20.084" height="42.348" transform="translate(848.596 276.711)" fill="#e0e0e0"/>
    <path id="Path_216" data-name="Path 216" d="M484.362,176.561c0,.456-26.576.811-59.313.811s-59.339-.355-59.339-.811,26.55-.811,59.339-.811S484.362,176.13,484.362,176.561Z" transform="translate(436.049 159.107)" fill="#e0e0e0"/>
    <rect id="Rectangle_25" data-name="Rectangle 25" width="20.084" height="42.348" transform="translate(848.596 363.335)" fill="#e0e0e0"/>
    <path id="Path_217" data-name="Path 217" d="M484.362,210.721c0,.456-26.576.812-59.313.812s-59.339-.355-59.339-.812,26.55-.811,59.339-.811S484.362,210.265,484.362,210.721Z" transform="translate(436.049 211.571)" fill="#e0e0e0"/>
    <rect id="Rectangle_26" data-name="Rectangle 26" width="20.084" height="42.348" transform="translate(848.596 447.448)" fill="#e0e0e0"/>
    <path id="Path_218" data-name="Path 218" d="M484.362,243.9c0,.431-26.576.811-59.313.811s-59.339-.38-59.339-.811,26.55-.811,59.339-.811S484.362,243.445,484.362,243.9Z" transform="translate(436.049 262.531)" fill="#e0e0e0"/>
    <rect id="Rectangle_27" data-name="Rectangle 27" width="20.084" height="42.348" transform="translate(848.596 531.943)" fill="#e0e0e0"/>
    <rect id="Rectangle_28" data-name="Rectangle 28" width="20.084" height="42.348" transform="translate(848.596 617.527)" fill="#e0e0e0"/>
    <path id="Path_219" data-name="Path 219" d="M484.362,277.211c0,.456-26.576.811-59.313.811s-59.339-.355-59.339-.811,26.55-.811,59.339-.811S484.362,276.755,484.362,277.211Z" transform="translate(436.049 313.689)" fill="#e0e0e0"/>
    <rect id="Rectangle_29" data-name="Rectangle 29" width="20.084" height="42.348" transform="translate(728.93 191.38)" fill="#fafafa"/>
    <path id="Path_220" data-name="Path 220" d="M437.172,142.911c0,.456-26.576.812-59.313.812s-59.339-.355-59.339-.812,26.55-.811,59.339-.811S437.172,142.48,437.172,142.911Z" transform="translate(363.573 107.426)" fill="#e0e0e0"/>
    <rect id="Rectangle_30" data-name="Rectangle 30" width="20.084" height="42.348" transform="translate(728.93 276.736)" fill="#fafafa"/>
    <path id="Path_221" data-name="Path 221" d="M437.172,176.556c0,.456-26.576.811-59.313.811s-59.339-.355-59.339-.811,26.55-.786,59.339-.786S437.172,176.125,437.172,176.556Z" transform="translate(363.573 159.138)" fill="#e0e0e0"/>
    <rect id="Rectangle_31" data-name="Rectangle 31" width="20.084" height="42.348" transform="translate(728.93 362.092)" fill="#fafafa"/>
    <path id="Path_222" data-name="Path 222" d="M437.172,210.241c0,.431-26.576.812-59.313.812s-59.339-.38-59.339-.812,26.55-.811,59.339-.811S437.172,209.785,437.172,210.241Z" transform="translate(363.573 210.834)" fill="#e0e0e0"/>
    <rect id="Rectangle_32" data-name="Rectangle 32" width="20.084" height="42.348" transform="translate(728.93 447.448)" fill="#fafafa"/>
    <path id="Path_223" data-name="Path 223" d="M437.172,243.9c0,.431-26.576.811-59.313.811s-59.339-.38-59.339-.811,26.55-.811,59.339-.811S437.172,243.445,437.172,243.9Z" transform="translate(363.573 262.531)" fill="#e0e0e0"/>
    <rect id="Rectangle_33" data-name="Rectangle 33" width="20.084" height="42.348" transform="translate(728.93 532.83)" fill="#fafafa"/>
    <path id="Path_224" data-name="Path 224" d="M437.172,277.561c0,.456-26.576.811-59.313.811s-59.339-.355-59.339-.811,26.55-.811,59.339-.811S437.172,277.1,437.172,277.561Z" transform="translate(363.573 314.227)" fill="#e0e0e0"/>
    <rect id="Rectangle_34" data-name="Rectangle 34" width="20.084" height="42.348" transform="translate(728.93 618.186)" fill="#fafafa"/>
    <rect id="Rectangle_35" data-name="Rectangle 35" width="174.44" height="331.054" transform="translate(914.503 494.716)" fill="#e0e0e0"/>
    <rect id="Rectangle_36" data-name="Rectangle 36" width="81.781" height="331.054" transform="translate(1007.162 494.716)" fill="#ebebeb"/>
    <rect id="Rectangle_37" data-name="Rectangle 37" width="15.671" height="38.114" transform="translate(951.069 525.857)" fill="#f5f5f5"/>
    <rect id="Rectangle_38" data-name="Rectangle 38" width="15.671" height="38.114" transform="translate(951.069 674.989)" fill="#f5f5f5"/>
    <path id="Path_225" data-name="Path 225" d="M502.829,272.369c0,.33-20.743.583-46.33.583s-46.33-.254-46.33-.583,20.743-.609,46.33-.609S502.829,272.039,502.829,272.369Z" transform="translate(504.333 306.563)" fill="#f5f5f5"/>
    <rect id="Rectangle_39" data-name="Rectangle 39" width="15.671" height="38.114" transform="translate(951.069 600.993)" fill="#f5f5f5"/>
    <path id="Path_226" data-name="Path 226" d="M502.829,302c0,.33-20.743.583-46.33.583s-46.33-.254-46.33-.583,20.743-.609,46.33-.609S502.829,301.669,502.829,302Z" transform="translate(504.333 352.07)" fill="#f5f5f5"/>
    <rect id="Rectangle_40" data-name="Rectangle 40" width="15.671" height="38.114" transform="translate(1024.533 525.857)" fill="#e0e0e0"/>
    <rect id="Rectangle_41" data-name="Rectangle 41" width="15.671" height="38.114" transform="translate(1058.538 525.857)" fill="#e0e0e0"/>
    <rect id="Rectangle_42" data-name="Rectangle 42" width="15.671" height="38.114" transform="translate(1024.533 598.179)" fill="#e0e0e0"/>
    <rect id="Rectangle_43" data-name="Rectangle 43" width="15.671" height="38.114" transform="translate(1058.538 598.179)" fill="#e0e0e0"/>
    <rect id="Rectangle_44" data-name="Rectangle 44" width="15.671" height="38.114" transform="translate(1024.533 670.475)" fill="#e0e0e0"/>
    <rect id="Rectangle_45" data-name="Rectangle 45" width="15.671" height="38.114" transform="translate(1058.538 670.475)" fill="#e0e0e0"/>
    <rect id="Rectangle_46" data-name="Rectangle 46" width="200.661" height="8.292" transform="translate(901.392 486.703)" fill="#e0e0e0"/>
    <path id="Path_227" data-name="Path 227" d="M584.921,239.563c0,.33-39,.583-87.081.583s-87.081-.254-87.081-.583,39-.583,87.081-.583S584.921,239.234,584.921,239.563Z" transform="translate(505.239 256.218)" fill="#ebebeb"/>
    <rect id="Rectangle_47" data-name="Rectangle 47" width="203.653" height="533.033" transform="translate(519.419 292.737)" fill="#ebebeb"/>
    <rect id="Rectangle_48" data-name="Rectangle 48" width="101.814" height="533.033" transform="translate(621.233 292.737)" fill="#e0e0e0"/>
    <rect id="Rectangle_49" data-name="Rectangle 49" width="71.916" height="63.371" transform="translate(542.673 229.366)" fill="#ebebeb"/>
    <rect id="Rectangle_50" data-name="Rectangle 50" width="17.142" height="63.371" transform="translate(597.447 229.366)" fill="#e0e0e0"/>
    <rect id="Rectangle_51" data-name="Rectangle 51" width="226.577" height="3.702" transform="translate(502.455 289.035)" fill="#e0e0e0"/>
    <rect id="Rectangle_52" data-name="Rectangle 52" width="17.244" height="36.339" transform="translate(559.612 320.352)" fill="#fff"/>
    <path id="Path_228" data-name="Path 228" d="M356.184,190.415c0,.38-22.823.71-50.894.71s-50.92-.33-50.92-.71,22.823-.685,50.92-.685S356.184,190.009,356.184,190.415Z" transform="translate(265.049 180.578)" fill="#e0e0e0"/>
    <rect id="Rectangle_53" data-name="Rectangle 53" width="17.244" height="36.339" transform="translate(662.339 320.352)" fill="#f5f5f5"/>
    <path id="Path_229" data-name="Path 229" d="M396.679,190.415c0,.38-22.823.71-50.92.71s-50.92-.33-50.92-.71,22.823-.685,50.92-.685S396.679,190.009,396.679,190.415Z" transform="translate(327.205 180.578)" fill="#ebebeb"/>
    <rect id="Rectangle_54" data-name="Rectangle 54" width="17.244" height="36.339" transform="translate(662.339 392.522)" fill="#f5f5f5"/>
    <path id="Path_230" data-name="Path 230" d="M396.679,218.865c0,.38-22.823.685-50.92.685s-50.92-.3-50.92-.685,22.823-.685,50.92-.685S396.679,218.484,396.679,218.865Z" transform="translate(327.205 224.273)" fill="#ebebeb"/>
    <rect id="Rectangle_55" data-name="Rectangle 55" width="17.244" height="36.339" transform="translate(662.339 466.873)" fill="#f5f5f5"/>
    <path id="Path_231" data-name="Path 231" d="M396.679,248.2c0,.38-22.823.685-50.92.685s-50.92-.3-50.92-.685,22.823-.71,50.92-.71S396.679,247.82,396.679,248.2Z" transform="translate(327.205 269.288)" fill="#ebebeb"/>
    <rect id="Rectangle_56" data-name="Rectangle 56" width="17.244" height="36.339" transform="translate(662.339 541.198)" fill="#f5f5f5"/>
    <path id="Path_232" data-name="Path 232" d="M396.679,277.495c0,.38-22.823.71-50.92.71s-50.92-.33-50.92-.71,22.823-.685,50.92-.685S396.679,277.114,396.679,277.495Z" transform="translate(327.205 314.319)" fill="#ebebeb"/>
    <rect id="Rectangle_57" data-name="Rectangle 57" width="17.244" height="36.339" transform="translate(662.339 613.419)" fill="#f5f5f5"/>
    <path id="Path_233" data-name="Path 233" d="M396.679,305.975c0,.38-22.823.71-50.92.71s-50.92-.33-50.92-.71,22.823-.685,50.92-.685S396.679,305.594,396.679,305.975Z" transform="translate(327.205 358.06)" fill="#ebebeb"/>
    <rect id="Rectangle_58" data-name="Rectangle 58" width="17.244" height="36.339" transform="translate(662.339 685.944)" fill="#f5f5f5"/>
    <rect id="Rectangle_59" data-name="Rectangle 59" width="17.244" height="36.339" transform="translate(662.339 759.382)" fill="#f5f5f5"/>
    <path id="Path_234" data-name="Path 234" d="M396.679,334.565c0,.406-22.823.71-50.92.71s-50.92-.3-50.92-.71,22.823-.685,50.92-.685S396.679,334.184,396.679,334.565Z" transform="translate(327.205 401.969)" fill="#ebebeb"/>
    <rect id="Rectangle_60" data-name="Rectangle 60" width="17.244" height="36.339" transform="translate(559.612 393.638)" fill="#fff"/>
    <path id="Path_235" data-name="Path 235" d="M356.184,219.295c0,.406-22.823.71-50.894.71s-50.92-.3-50.92-.71,22.823-.685,50.92-.685S356.184,218.914,356.184,219.295Z" transform="translate(265.049 224.933)" fill="#e0e0e0"/>
    <rect id="Rectangle_61" data-name="Rectangle 61" width="17.244" height="36.339" transform="translate(559.612 466.898)" fill="#fff"/>
    <path id="Path_236" data-name="Path 236" d="M356.184,248.21c0,.38-22.823.685-50.894.685s-50.92-.3-50.92-.685,22.823-.71,50.92-.71S356.184,247.83,356.184,248.21Z" transform="translate(265.049 269.304)" fill="#e0e0e0"/>
    <rect id="Rectangle_62" data-name="Rectangle 62" width="17.244" height="36.339" transform="translate(559.612 540.159)" fill="#fff"/>
    <path id="Path_237" data-name="Path 237" d="M356.184,277.085c0,.38-22.823.685-50.894.685s-50.92-.3-50.92-.685,22.823-.685,50.92-.685S356.184,276.7,356.184,277.085Z" transform="translate(265.049 313.689)" fill="#e0e0e0"/>
    <rect id="Rectangle_63" data-name="Rectangle 63" width="17.244" height="36.339" transform="translate(559.612 613.419)" fill="#fff"/>
    <path id="Path_238" data-name="Path 238" d="M356.184,305.975c0,.38-22.823.71-50.894.71s-50.92-.33-50.92-.71,22.823-.685,50.92-.685S356.184,305.594,356.184,305.975Z" transform="translate(265.049 358.06)" fill="#e0e0e0"/>
    <rect id="Rectangle_64" data-name="Rectangle 64" width="17.244" height="36.339" transform="translate(559.612 686.679)" fill="#fff"/>
    <path id="Path_239" data-name="Path 239" d="M356.184,334.865c0,.38-22.823.71-50.894.71s-50.92-.33-50.92-.71,22.823-.685,50.92-.685S356.184,334.484,356.184,334.865Z" transform="translate(265.049 402.43)" fill="#e0e0e0"/>
    <rect id="Rectangle_65" data-name="Rectangle 65" width="17.244" height="36.339" transform="translate(559.612 759.965)" fill="#fff"/>
    <rect id="Rectangle_66" data-name="Rectangle 66" width="174.44" height="331.054" transform="translate(397.75 494.716)" fill="#e0e0e0"/>
    <rect id="Rectangle_67" data-name="Rectangle 67" width="81.781" height="331.054" transform="translate(490.409 494.716)" fill="#ebebeb"/>
    <rect id="Rectangle_68" data-name="Rectangle 68" width="15.671" height="38.114" transform="translate(434.317 525.857)" fill="#f5f5f5"/>
    <rect id="Rectangle_69" data-name="Rectangle 69" width="15.671" height="38.114" transform="translate(434.317 674.989)" fill="#f5f5f5"/>
    <path id="Path_240" data-name="Path 240" d="M299.05,272.369c0,.33-20.743.583-46.33.583s-46.33-.254-46.33-.583,20.743-.609,46.33-.609S299.05,272.039,299.05,272.369Z" transform="translate(191.36 306.563)" fill="#f5f5f5"/>
    <rect id="Rectangle_70" data-name="Rectangle 70" width="15.671" height="38.114" transform="translate(434.317 600.993)" fill="#f5f5f5"/>
    <path id="Path_241" data-name="Path 241" d="M299.05,302c0,.33-20.743.583-46.33.583s-46.33-.254-46.33-.583,20.743-.609,46.33-.609S299.05,301.669,299.05,302Z" transform="translate(191.36 352.07)" fill="#f5f5f5"/>
    <rect id="Rectangle_71" data-name="Rectangle 71" width="15.671" height="38.114" transform="translate(507.78 525.857)" fill="#e0e0e0"/>
    <rect id="Rectangle_72" data-name="Rectangle 72" width="15.671" height="38.114" transform="translate(541.785 525.857)" fill="#e0e0e0"/>
    <rect id="Rectangle_73" data-name="Rectangle 73" width="15.671" height="38.114" transform="translate(507.78 598.179)" fill="#e0e0e0"/>
    <rect id="Rectangle_74" data-name="Rectangle 74" width="15.671" height="38.114" transform="translate(541.785 598.179)" fill="#e0e0e0"/>
    <rect id="Rectangle_75" data-name="Rectangle 75" width="15.671" height="38.114" transform="translate(507.78 670.475)" fill="#e0e0e0"/>
    <rect id="Rectangle_76" data-name="Rectangle 76" width="15.671" height="38.114" transform="translate(541.785 670.475)" fill="#e0e0e0"/>
    <rect id="Rectangle_77" data-name="Rectangle 77" width="200.661" height="8.292" transform="translate(384.64 486.703)" fill="#e0e0e0"/>
    <path id="Path_242" data-name="Path 242" d="M381.141,239.563c0,.33-38.976.583-87.081.583s-87.081-.254-87.081-.583,39-.583,87.081-.583S381.141,239.234,381.141,239.563Z" transform="translate(192.266 256.218)" fill="#ebebeb"/>
    <rect id="Rectangle_78" data-name="Rectangle 78" width="156.157" height="205.986" transform="translate(283.13 618.871)" fill="#ebebeb"/>
    <rect id="Rectangle_79" data-name="Rectangle 79" width="73.21" height="205.986" transform="translate(366.052 618.871)" fill="#e0e0e0"/>
    <rect id="Rectangle_80" data-name="Rectangle 80" width="14.049" height="34.107" transform="translate(315.868 646.765)" fill="#f5f5f5"/>
    <rect id="Rectangle_81" data-name="Rectangle 81" width="14.049" height="34.107" transform="translate(315.868 780.277)" fill="#f5f5f5"/>
    <path id="Path_243" data-name="Path 243" d="M244.112,317.91c0,.38-18.562.685-41.461.685s-41.461-.3-41.461-.685,18.562-.71,41.461-.71S244.112,317.53,244.112,317.91Z" transform="translate(121.94 376.351)" fill="#f5f5f5"/>
    <rect id="Rectangle_82" data-name="Rectangle 82" width="14.049" height="34.107" transform="translate(315.868 714.016)" fill="#f5f5f5"/>
    <path id="Path_244" data-name="Path 244" d="M244.112,344.415c0,.38-18.562.71-41.461.71s-41.461-.33-41.461-.71,18.562-.685,41.461-.685S244.112,344.034,244.112,344.415Z" transform="translate(121.94 417.097)" fill="#f5f5f5"/>
    <rect id="Rectangle_83" data-name="Rectangle 83" width="14.049" height="34.107" transform="translate(381.597 646.765)" fill="#f5f5f5"/>
    <rect id="Rectangle_84" data-name="Rectangle 84" width="14.049" height="34.107" transform="translate(412.077 646.765)" fill="#f5f5f5"/>
    <rect id="Rectangle_85" data-name="Rectangle 85" width="14.049" height="34.107" transform="translate(381.597 711.48)" fill="#f5f5f5"/>
    <rect id="Rectangle_86" data-name="Rectangle 86" width="14.049" height="34.107" transform="translate(412.077 711.48)" fill="#f5f5f5"/>
    <rect id="Rectangle_87" data-name="Rectangle 87" width="14.049" height="34.107" transform="translate(381.597 776.22)" fill="#f5f5f5"/>
    <rect id="Rectangle_88" data-name="Rectangle 88" width="14.049" height="34.107" transform="translate(412.077 776.22)" fill="#f5f5f5"/>
    <rect id="Rectangle_89" data-name="Rectangle 89" width="179.639" height="7.43" transform="translate(271.389 611.695)" fill="#e0e0e0"/>
    <path id="Path_245" data-name="Path 245" d="M317.623,288.56c0,.38-34.918.685-77.952.685s-77.952-.3-77.952-.685,34.893-.71,77.952-.71S317.623,288.23,317.623,288.56Z" transform="translate(122.754 331.275)" fill="#ebebeb"/>
    <path id="Path_246" data-name="Path 246" d="M435.1,147.96H577.513s-12.679-22.823-49.246-19.6c-35.02,3.2-36.795-11.259-54.6-13.034S441.034,127.192,435.1,147.96Z" transform="translate(542.621 66.065)" fill="#ebebeb"/>
    <path id="Path_247" data-name="Path 247" d="M200.88,103.322H343.191S330.512,80.5,293.945,83.746c-35.02,3.2-36.8-11.259-54.6-13.06S206.814,82.554,200.88,103.322Z" transform="translate(182.897 -2.498)" fill="#ebebeb"/>
    <path id="Path_248" data-name="Path 248" d="M571.48,174.843H830.668s-22.822-41.714-89.642-35.5c-63.7,5.782-66.946-20.54-99.354-23.761S582.282,137.034,571.48,174.843Z" transform="translate(752.079 66.264)" fill="#fafafa"/>
    <path id="Path_249" data-name="Path 249" d="M603.2,127.1h225s-19.881-36.212-77.8-30.937c-55.332,5.072-58.147-17.751-86.218-20.616S612.583,94.284,603.2,127.1Z" transform="translate(800.795 4.817)" fill="#ebebeb"/>
  </g>
</svg>
