<svg id="Layer_1" data-name="Layer 1" xmlns="http://www.w3.org/2000/svg" xmlns:xlink="http://www.w3.org/1999/xlink" viewBox="0 0 1039 638"><defs><clipPath id="clip-path"><path d="M488.68,378.5a19.69,19.69,0,0,1,.39-3.9,18.88,18.88,0,0,1,1.14-3.75,19.43,19.43,0,0,1,1.84-3.46,20.14,20.14,0,0,1,5.52-5.52A19.83,19.83,0,0,1,501,360a20.07,20.07,0,0,1,11.55-1.14,20.63,20.63,0,0,1,3.76,1.14,20.24,20.24,0,0,1,6.49,4.34,20.62,20.62,0,0,1,2.48,3,19.48,19.48,0,0,1,1.85,3.46,20,20,0,0,1,0,15.3,19.48,19.48,0,0,1-1.85,3.46,20.62,20.62,0,0,1-2.48,3,20.24,20.24,0,0,1-6.49,4.34,20.63,20.63,0,0,1-3.76,1.14A20,20,0,0,1,501,397a19.83,19.83,0,0,1-3.46-1.85,20.14,20.14,0,0,1-5.52-5.52,19.43,19.43,0,0,1-1.84-3.46,18.88,18.88,0,0,1-1.14-3.75A19.69,19.69,0,0,1,488.68,378.5Z" fill="none"/></clipPath><clipPath id="clip-path-2"><rect x="488.5" y="358.5" width="40.25" height="40" fill="none"/></clipPath><clipPath id="clip-path-3"><path d="M489.68,294a20.13,20.13,0,0,1,1.45-7.46,18.93,18.93,0,0,1,1.76-3.37,19.29,19.29,0,0,1,2.36-3,19,19,0,0,1,2.88-2.42,18.09,18.09,0,0,1,3.28-1.81A18.54,18.54,0,0,1,516,276a18.17,18.17,0,0,1,3.29,1.81,19,19,0,0,1,2.88,2.42,19.29,19.29,0,0,1,2.36,3,19.61,19.61,0,0,1,1.76,3.37,20.82,20.82,0,0,1,1.08,3.66,20.24,20.24,0,0,1,0,7.6,20.82,20.82,0,0,1-1.08,3.66,19.61,19.61,0,0,1-1.76,3.37,19.29,19.29,0,0,1-2.36,3,19,19,0,0,1-2.88,2.42A18.8,18.8,0,0,1,516,312a18.54,18.54,0,0,1-17.82-1.81,19,19,0,0,1-2.88-2.42,19.29,19.29,0,0,1-2.36-3,18.93,18.93,0,0,1-1.76-3.37,20.13,20.13,0,0,1-1.45-7.46Z" fill="none"/></clipPath><clipPath id="clip-path-4"><rect x="489.5" y="274.5" width="38.25" height="39" fill="none"/></clipPath></defs><path d="M910,172.61c-2-13.68-3.42-58.76,11.86-89.73,12.81-26,42.39-49.25,59.12-46.15,15.51,2.9,16.75,22.51.71,37.92s-50.48,44.62-55.1,68l-2.7,20.55Z" fill="#62c9d5"/><path d="M910,172.61c-2-13.68-3.42-58.76,11.86-89.73,12.81-26,42.39-49.25,59.12-46.15,15.51,2.9,16.75,22.51.71,37.92s-50.48,44.62-55.1,68l-2.7,20.55Z" opacity="0.15"/><path d="M915.16,149.85A1,1,0,0,0,916,149c5.63-47.78,40.76-88.94,62.91-99.14a1,1,0,0,0,.49-1.33,1,1,0,0,0-.56-.53,1,1,0,0,0-.77,0C955.49,58.39,919.71,100.24,914,148.74a1,1,0,0,0,.19.74,1,1,0,0,0,.68.37Z" fill="#fff"/><path d="M918.41,192.31c1.07-8,8.61-22.09,22.31-34.78,15.1-14.08,35.69-22.51,39.18-32.26,4.3-11.71-6.34-20.61-23.27-16s-48.75,40.85-48.41,77Z" fill="#62c9d5"/><path d="M918.41,192.31c1.07-8,8.61-22.09,22.31-34.78,15.1-14.08,35.69-22.51,39.18-32.26,4.3-11.71-6.34-20.61-23.27-16s-48.75,40.85-48.41,77Z" opacity="0.3"/><path d="M913.88,184.68a1,1,0,0,0,.79-.78c8.41-42.08,36.92-60.57,50.79-64.5a1,1,0,0,0,.69-1.23.92.92,0,0,0-.45-.62,1,1,0,0,0-.77-.09c-15.35,4.33-43.62,23.09-52.25,66.08a1,1,0,0,0,.78,1.18A1,1,0,0,0,913.88,184.68Z" fill="#fff"/><path d="M340.54,427.67v-283a32.69,32.69,0,0,1,.17-3.43c.11-1.14.28-2.28.5-3.4a32.45,32.45,0,0,1,.84-3.33,33.68,33.68,0,0,1,1.15-3.24c.44-1.05.93-2.09,1.47-3.1s1.13-2,1.77-3,1.32-1.87,2-2.76,1.5-1.73,2.31-2.54,1.66-1.58,2.54-2.31,1.81-1.41,2.76-2,1.94-1.23,3-1.77,2-1,3.1-1.47a33.68,33.68,0,0,1,3.24-1.15,32.45,32.45,0,0,1,3.33-.84c1.12-.22,2.26-.39,3.4-.5a32.69,32.69,0,0,1,3.43-.17H912.15a32.69,32.69,0,0,1,3.43.17c1.14.11,2.28.28,3.4.5a31.19,31.19,0,0,1,3.33.84,33.68,33.68,0,0,1,3.24,1.15c1.06.44,2.09.93,3.1,1.47s2,1.13,3,1.77,1.87,1.32,2.76,2,1.73,1.5,2.54,2.31,1.58,1.66,2.31,2.54a33.85,33.85,0,0,1,2,2.76c.64,1,1.23,1.94,1.77,3s1,2,1.47,3.1.82,2.14,1.16,3.24.61,2.21.83,3.33.39,2.26.5,3.4a32.69,32.69,0,0,1,.17,3.43v283a32.69,32.69,0,0,1-.17,3.43c-.11,1.14-.28,2.28-.5,3.4s-.5,2.24-.83,3.33-.72,2.18-1.16,3.24-.93,2.09-1.47,3.1-1.13,2-1.77,2.95a33.85,33.85,0,0,1-2,2.76c-.73.88-1.5,1.73-2.31,2.54s-1.66,1.58-2.54,2.31-1.81,1.41-2.76,2-1.94,1.23-3,1.77-2,1-3.1,1.47-2.14.82-3.24,1.16A33.75,33.75,0,0,1,919,462c-1.12.22-2.26.39-3.4.5a32.69,32.69,0,0,1-3.43.17H375.54a32.69,32.69,0,0,1-3.43-.17c-1.14-.11-2.28-.28-3.4-.5s-2.23-.5-3.33-.83-2.18-.72-3.24-1.16-2.09-.93-3.1-1.47-2-1.13-3-1.77-1.87-1.32-2.76-2-1.73-1.5-2.54-2.31-1.58-1.66-2.31-2.54-1.41-1.81-2-2.76-1.23-1.94-1.77-2.95-1-2-1.47-3.1a33.68,33.68,0,0,1-1.15-3.24,31.81,31.81,0,0,1-.84-3.33c-.22-1.12-.39-2.26-.5-3.4A32.69,32.69,0,0,1,340.54,427.67Z" fill="#37474f"/><path d="M340.54,428.17v-284c0-1.13,0-2.26.16-3.38s.28-2.24.5-3.35.5-2.2.82-3.29.71-2.14,1.14-3.18.92-2.07,1.45-3.06a32.88,32.88,0,0,1,1.74-2.91c.63-.94,1.3-1.84,2-2.72s1.47-1.71,2.27-2.51,1.64-1.55,2.51-2.27a33.59,33.59,0,0,1,2.72-2c.94-.62,1.91-1.2,2.9-1.74s2-1,3.07-1.45,2.1-.81,3.18-1.14,2.18-.6,3.29-.82,2.22-.38,3.35-.5,2.25-.16,3.38-.16H912.65c1.13,0,2.26,0,3.38.16s2.25.28,3.35.5,2.21.5,3.29.82,2.14.71,3.19,1.14,2.06.92,3.06,1.45,2,1.12,2.9,1.74a33.59,33.59,0,0,1,2.72,2c.87.72,1.71,1.47,2.51,2.27a33.6,33.6,0,0,1,2.27,2.51c.72.88,1.39,1.78,2,2.72a32.88,32.88,0,0,1,1.74,2.91c.53,1,1,2,1.45,3.06s.81,2.1,1.14,3.18.6,2.18.82,3.29.39,2.22.5,3.35.16,2.25.16,3.38v284c0,1.13,0,2.26-.16,3.38s-.28,2.24-.5,3.35a33.64,33.64,0,0,1-.82,3.29q-.49,1.62-1.14,3.18c-.44,1.05-.92,2.07-1.45,3.07s-1.11,2-1.74,2.9a35.12,35.12,0,0,1-4.29,5.23c-.8.8-1.64,1.55-2.51,2.27a33.59,33.59,0,0,1-2.72,2c-.94.63-1.91,1.21-2.9,1.74s-2,1-3.06,1.45-2.11.81-3.19,1.14-2.18.6-3.29.82a33.8,33.8,0,0,1-3.35.5c-1.12.11-2.25.16-3.38.16H375c-1.13,0-2.26-.05-3.38-.16s-2.24-.28-3.35-.5-2.21-.5-3.29-.82-2.14-.71-3.18-1.14-2.07-.92-3.07-1.45-2-1.11-2.9-1.74a33.59,33.59,0,0,1-2.72-2c-.87-.72-1.71-1.47-2.51-2.27s-1.55-1.64-2.27-2.51a33.59,33.59,0,0,1-2-2.72c-.63-.94-1.21-1.91-1.74-2.9s-1-2-1.45-3.07-.81-2.1-1.14-3.18-.6-2.18-.82-3.29-.39-2.22-.5-3.35S340.54,429.3,340.54,428.17Z" fill="none" stroke="#707070"/><path d="M1038.13,518l-3.44-1.84,3.13-.74A2.33,2.33,0,0,1,1038.13,518Z" fill="#e0e0e0"/><path d="M1038.13,518l-3.44-1.84,3.13-.74A2.33,2.33,0,0,1,1038.13,518Z" fill="#e0e0e0" opacity="0.5"/><polygon points="881.17 385.39 869.93 405.41 886.31 414.13 898.23 396.38 881.17 385.39" fill="#ffa8a7"/><path d="M921,340.29c-6.24-1.07-15.69-1.35-21.84,9.19S879.81,386,879.81,386s7.73,10,18.93,11.83l18.3-29Z" fill="#62c9d5"/><rect x="892.3" y="585.5" width="13.98" height="23.93" fill="#ffa8a7"/><polygon points="865.82 579.68 851.84 580.15 851.14 554.83 865.11 554.36 865.82 579.68" fill="#ffa8a7"/><path d="M892.3,602.53v-2c-1.33.58-4.44,12.43-10,17.49-4.41,4-10.42,8.66-12,13.14-1.59,4.67,8.37,7.25,12.49,6.51,4.78-.84,13.08-4.21,15.16-7.34s3.06-7.72,4.75-10,5.59-4.9,6.51-7.5c.5-1.46-.1-4.64-.8-7.35-.65-2.44-1.36-5.18-2.2-5V602c-1,1.12-3.82,2.24-7,2.36C897.25,604.5,892.29,604.09,892.3,602.53Z" fill="#263238"/><path d="M851.7,575.85c-.73,0-1.31,1-2.92,2.77a30.17,30.17,0,0,1-8.22,5.91c-5.24,2.64-15.38,6.66-20,8.76-2.88,1.29-2.74,4.77.23,6.75s10.15,3.4,18.78,1.47c4.68-1,10.8-5.39,14.68-5.15s11.11.18,14-1.79,1.71-6.12.9-9.79c-.88-3.94-2.14-10-3.45-9.71v1.23c-1.68,2.54-10.23,3.58-13.93,1.71Z" fill="#263238"/><path d="M962.58,440c3.06,21.6-1.07,25.7-21.59,46.43-11,11.13-28.82,27.44-28.82,27.44s.25,6.9.39,22.37c.13,13.62-5.56,58-5.56,58s-9.27,3.91-15.64-.15c0,0-2.88-33-4.43-50.17-2.1-23.26-3.21-35-2-40,1.05-4.42,22-30.8,26.77-38.19l-44.4,25.79a151.28,151.28,0,0,1,1.29,19.72c-.49,18.49-2.76,55.43-2.76,55.43s-10.16,4.54-15.2.62c0,0-12.79-80.77-12.79-87.4,0-10.08,43.74-40.15,52-47.15,4.73-4,10-8.31,10-8.31Z" fill="#455a64"/><path d="M911.68,465.7a32.11,32.11,0,0,1-10.15-14.48,72.82,72.82,0,0,0,1.58,11c1.22,4.8-35.83,29.25-35.83,29.25Z" fill="#37474f"/><path d="M897.72,292.6c.15-.63.33-1.25.54-1.87s.45-1.22.72-1.81a18.82,18.82,0,0,1,.89-1.73,17.49,17.49,0,0,1,1.06-1.63c.38-.53.78-1,1.21-1.53s.88-.95,1.35-1.39a17.73,17.73,0,0,1,1.49-1.26,19,19,0,0,1,1.6-1.11,18.78,18.78,0,0,1,1.7-.94,17.54,17.54,0,0,1,1.79-.77q.91-.35,1.86-.6c.62-.17,1.26-.3,1.9-.41s1.29-.18,1.93-.22,1.3-.05,2,0,1.3.08,1.94.16,1.28.21,1.92.36a18,18,0,0,1,1.87.53c.61.21,1.22.45,1.81.72s1.17.57,1.73.89,1.11.68,1.63,1.06,1,.78,1.53,1.21,1,.88,1.39,1.36a17.6,17.6,0,0,1,1.26,1.48,19,19,0,0,1,1.11,1.6c.34.56.65,1.12.94,1.71a17.38,17.38,0,0,1,.77,1.78q.35.91.6,1.86c.16.63.3,1.26.41,1.9s.17,1.29.22,1.94,0,1.29,0,1.94-.08,1.3-.16,1.94-.21,1.29-.36,1.92a18,18,0,0,1-.53,1.87c-.21.61-.45,1.22-.72,1.81s-.57,1.17-.89,1.73-.68,1.11-1.06,1.63-.78,1-1.21,1.53-.88.95-1.36,1.4-1,.86-1.48,1.25a18.77,18.77,0,0,1-3.31,2.05c-.58.29-1.18.55-1.78.78s-1.23.42-1.86.59-1.26.3-1.9.41-1.29.18-1.94.22-1.29.05-1.94,0-1.3-.08-1.94-.16-1.29-.21-1.92-.35-1.25-.33-1.87-.54-1.22-.45-1.81-.72a18.82,18.82,0,0,1-1.73-.89c-.56-.33-1.11-.68-1.63-1.06s-1-.78-1.53-1.21-1-.88-1.4-1.35-.86-1-1.25-1.49a19,19,0,0,1-1.11-1.6,18.78,18.78,0,0,1-.94-1.7c-.29-.59-.55-1.18-.78-1.79s-.42-1.23-.59-1.86-.3-1.26-.41-1.9-.18-1.29-.22-1.93,0-1.3,0-2,.08-1.3.16-1.94S897.58,293.24,897.72,292.6Z" fill="#263238"/><path d="M958.72,352.31s4.9,4,4.9,16.69v27.38l-.7,46c-9.79,10.66-53.85,6.62-64.75-16.63,0,0,.08-48.6.08-59.49s6.12-25,22.77-26l21.56,5Z" fill="#263238"/><path d="M951.33,311.24s-3.22,15.1-4.5,17.58a6.82,6.82,0,0,1-4,3.18l.22-10.62Z" fill="#263238"/><path d="M947.29,289.6a7.41,7.41,0,0,1,6.12,2.16c2.64,2.71,1.16,11.18-2.13,19.48l-6.06.69Z" fill="#263238"/><path d="M943.46,311.93c1.22.72,2.95-1.6,4.44-3.17s6.39-3.67,8.83,1.44-2.16,12.15-6,13.36c-6.63,2.08-7.64-2.18-7.64-2.18l-.5,23.93c-5.71,6.39-25.26,4.89-21.57-.64v-7.34s-6,.92-8.94.46c-4.89-.76-8-4.6-9.43-9.89-2.38-8.48-3.28-15.32-1.23-32,2.22-18.28,23.47-18.47,35-11.25S943.46,311.93,943.46,311.93Z" fill="#ffa8a7"/><path d="M925.53,303.72a5.63,5.63,0,1,0,0,11.26h1a5.63,5.63,0,0,0,0-11.26Zm1,12.4h-1a6.77,6.77,0,1,1,0-13.54h1a6.77,6.77,0,0,1,0,13.54Z" fill="#263238"/><path d="M904.91,303.72a5.63,5.63,0,0,0,0,11.26h1a5.63,5.63,0,1,0,0-11.26Zm1,12.4h-1a6.77,6.77,0,1,1,0-13.54h1a6.77,6.77,0,0,1,0,13.54Z" fill="#263238"/><path d="M918.84,308a4.49,4.49,0,0,0-3.58-1.83,3.67,3.67,0,0,0-3.12,1.23l-.9-.69a4.67,4.67,0,0,1,4.08-1.63,5.57,5.57,0,0,1,4.5,2.37Z" fill="#263238"/><rect x="932.7" y="307.97" width="14.39" height="1.14" fill="#263238"/><path d="M943.46,314c.61,0,2.93-3.85,4.44-5.22,2.1-1.91-.61-19.16-.61-19.16s2-4.3-2-8.73c-2.86-3.16-7.66-3.51-15.85-4.8-4.29-.67-10.8-1.88-15.1-2.68-5.12-.95-9.36-1.95-13,1.23a9.07,9.07,0,0,0-2.51,10.17A9.28,9.28,0,0,0,904,289.5s2.23,2,10,2.92,19.87-.17,21.53-.4c2.25-.31,2.72,1.87,4,7.85C940.52,305.07,941.44,313.94,943.46,314Z" fill="#263238"/><path d="M947.28,291l7.34-3.95a4,4,0,0,0-2.38-2.1,4.07,4.07,0,0,0-3.17.26,4.4,4.4,0,0,0-1.79,5.79Z" fill="#263238"/><path d="M921,337.39s10.89-2.19,14.68-4.21A12.61,12.61,0,0,0,941,328a17.24,17.24,0,0,1-3,6.11c-2.79,3.57-17,6.19-17,6.19Z" fill="#f28f8f"/><path d="M923.65,309.22a2.19,2.19,0,1,0,2.18-2.28A2.23,2.23,0,0,0,923.65,309.22Z" fill="#263238"/><path d="M927.15,300.18l4.67,2.57a2.81,2.81,0,0,0-1.09-3.67,2.61,2.61,0,0,0-3.58,1.1Z" fill="#263238"/><path d="M922,324.28l-5,1.87a2.59,2.59,0,0,0,1.33,1.55,2.65,2.65,0,0,0,2,.11,2.8,2.8,0,0,0,1.6-3.53Z" fill="#f28f8f"/><path d="M903.62,302.09l4.26-3.26a2.56,2.56,0,0,0-3.67-.58A2.82,2.82,0,0,0,903.62,302.09Z" fill="#263238"/><path d="M905.5,308.59a2.19,2.19,0,1,0,2.18-2.27,2.19,2.19,0,0,0-2.18,2.27Z" fill="#263238"/><polygon points="916.28 306.84 916.03 320.07 908.21 318.35 916.28 306.84" fill="#f28f8f"/><path d="M902.91,416.83v1.22a3.57,3.57,0,0,1-1.78,3.09l-34,19.58a3.54,3.54,0,0,1-3.56,0l-62.36-36a3.57,3.57,0,0,1-1.78-3.09v-.87l65.91,38.05Z" fill="#62c9d5"/><path d="M902.91,416.83v1.22a3.57,3.57,0,0,1-1.78,3.09l-34,19.58a3.54,3.54,0,0,1-3.56,0l-62.36-36a3.57,3.57,0,0,1-1.78-3.09v-.87l65.91,38.05Z" opacity="0.6"/><path d="M799.47,400.78l37-21.34a2.13,2.13,0,0,1,2.13,0l64.13,37a.5.5,0,0,1,.23.41.47.47,0,0,1-.23.41l-37.32,21.54Z" fill="#62c9d5"/><path d="M799.47,400.78l37-21.34a2.13,2.13,0,0,1,2.13,0l64.13,37a.5.5,0,0,1,.23.41.47.47,0,0,1-.23.41l-37.32,21.54Z" opacity="0.5"/><polygon points="865.7 435.7 885.63 424.2 827.33 390.54 807.28 401.98 865.7 435.7" fill="#263238"/><polygon points="875.5 403.71 875.13 403.92 865.35 409.56 847.98 399.52 847.62 399.32 857.75 393.47 875.5 403.71" fill="#263238"/><polygon points="875.13 403.92 865.35 409.56 847.98 399.52 857.75 393.88 875.13 403.92" fill="#263238"/><path d="M865.35,438.83v2.38a3.56,3.56,0,0,1-1.77-.48l-62.36-36a3.57,3.57,0,0,1-1.78-3.09v-.87Z" opacity="0.7"/><path d="M864.34,439.36a4.16,4.16,0,0,1-3.67-.28l-62.08-35.84a4.18,4.18,0,0,1-2.05-2.94l-6.8-40.54c0-.23,0-.45-.06-.68a4.28,4.28,0,0,1,1.23-3l64.51,37.25a3.13,3.13,0,0,1,1.58,2.19Z" fill="#62c9d5"/><path d="M864.34,439.36a4.16,4.16,0,0,1-3.67-.28l-62.08-35.84a4.18,4.18,0,0,1-2.05-2.94l-6.8-40.54c0-.23,0-.45-.06-.68a4.28,4.28,0,0,1,1.23-3l64.51,37.25a3.13,3.13,0,0,1,1.58,2.19Z" opacity="0.5"/><path d="M865.35,438.83l-.41.25a4.53,4.53,0,0,1-.59.28L857,395.51a3.14,3.14,0,0,0-1.52-2.19L791,356.07a3.61,3.61,0,0,1,.86-.65l64.64,37.31a3.14,3.14,0,0,1,1.52,2.19Z" fill="#e0e0e0"/><path d="M829.39,402c-.46-2.71-3.26-6.32-6.26-8s-5.07-1-4.6,1.77,3.26,6.32,6.25,8.05S829.85,404.66,829.39,402Z" fill="#62c9d5"/><path d="M842.1,428.33a22.14,22.14,0,0,0-1-5.16c-1-3-3.8-14.55-10.29-16.29a4.54,4.54,0,0,0-2.37-.07c-1.8.49-2.62,2.36-3,4a28.31,28.31,0,0,0,0,7.47,14.63,14.63,0,0,0-3.47-2.9,7.08,7.08,0,0,0-4-1.42,1,1,0,0,0-.68,1.84c.65.78,1.45,1.44,2.1,2.22.5.69,1,1.4,1.4,2.13.82,1.32,1.74,2.57,2.66,3.83a26.73,26.73,0,0,0,6.53,6.76,24.74,24.74,0,0,0,9.79,3.9c4.74.59,9.34.52,12.33-.52Z" fill="#ffa8a7"/><path d="M957.42,352.66c-4.36-2.25-10.75,6.67-8.72,16s12,42.11,12,42.11-45.22,4-49.06,4.52c-2.68.32-5.68-1-8.17-1.86-3.37-1.13-6.79-1.91-10.12-3.14a4.36,4.36,0,0,0-1.85-.39,1.46,1.46,0,0,0-1.35,1.14,1.91,1.91,0,0,0,.28,1.09,14.23,14.23,0,0,0,4.66,5.43,20.88,20.88,0,0,1,2.74,1.94c.53.52,1.69,2,1.23,2.78l-18,10.34s4.14,3.6,19.12-.6a97.69,97.69,0,0,0,15.75-5.6s53.28,2.22,62.92-.69c3.4-1,4.62-3.45,2.32-14.42-2.63-12.7-10.18-35.87-11.89-42C965.59,356.07,964.69,356.37,957.42,352.66Z" fill="#ffa8a7"/><path d="M955.17,350.77s7.22,2,10.33,6.12,15.1,43.63,15.1,43.63a28.1,28.1,0,0,1-22.83,6.11S948.12,379.28,947.1,372C945.27,360.65,950.8,351.74,955.17,350.77Z" fill="#62c9d5"/><path d="M916.21,377.3c-.59-3.06,1.32-4.71,4.27-3.67a10.8,10.8,0,0,1,6.36,7.34C927.43,384.07,916.78,380.33,916.21,377.3Z" fill="#62c9d5"/><path d="M936.39,386.83l-8.68-5.52c.44,2.35-2.73,2-5.58,1s-6.34-3-6.79-5.35l-7.57-.09c-.69,0-.71.9,0,1.65,1.88,2.09,6.23,5.8,15.39,9s12.66,2.21,14,1.23C937.57,388.4,937.18,387.33,936.39,386.83Z" fill="#62c9d5"/><path d="M332.87,443.17v-314a18.25,18.25,0,0,1,.1-2c.06-.65.16-1.3.28-1.94s.29-1.28.48-1.91.41-1.24.66-1.84a19.27,19.27,0,0,1,.84-1.78c.31-.58.65-1.14,1-1.68a17.9,17.9,0,0,1,1.17-1.58,20.91,20.91,0,0,1,2.77-2.77,17.9,17.9,0,0,1,1.58-1.17c.54-.36,1.1-.7,1.68-1a19.27,19.27,0,0,1,1.78-.84c.6-.25,1.22-.47,1.84-.66s1.26-.35,1.91-.48,1.29-.22,1.94-.28a18.25,18.25,0,0,1,2-.1H429.4a18.25,18.25,0,0,1,2,.1c.65.06,1.3.16,1.94.28s1.28.29,1.91.48,1.24.41,1.84.66a19.27,19.27,0,0,1,1.78.84c.58.31,1.14.65,1.68,1a17.9,17.9,0,0,1,1.58,1.17,20.91,20.91,0,0,1,2.77,2.77,17.9,17.9,0,0,1,1.17,1.58c.36.54.7,1.1,1,1.68a19.27,19.27,0,0,1,.84,1.78c.25.6.47,1.22.66,1.84s.35,1.26.48,1.91.22,1.29.28,1.94a18.25,18.25,0,0,1,.1,2v314a18.25,18.25,0,0,1-.1,2c-.06.65-.16,1.3-.28,1.94s-.29,1.28-.48,1.91-.41,1.24-.66,1.85-.53,1.19-.84,1.77-.65,1.14-1,1.68a17.9,17.9,0,0,1-1.17,1.58,20.91,20.91,0,0,1-2.77,2.77,20.44,20.44,0,0,1-3.26,2.18,19.27,19.27,0,0,1-1.78.84c-.6.25-1.22.47-1.84.66s-1.26.35-1.91.48-1.29.22-1.94.29-1.3.09-2,.09H352.87c-.66,0-1.31,0-2-.09s-1.3-.16-1.94-.29-1.28-.29-1.91-.48-1.24-.41-1.84-.66a19.27,19.27,0,0,1-1.78-.84,20.44,20.44,0,0,1-3.26-2.18,20.91,20.91,0,0,1-2.77-2.77,17.9,17.9,0,0,1-1.17-1.58c-.36-.54-.7-1.1-1-1.68s-.59-1.17-.84-1.77-.47-1.23-.66-1.85-.35-1.26-.48-1.91-.22-1.29-.28-1.94A18.25,18.25,0,0,1,332.87,443.17Z"/><path d="M47.5,115V58c0-.92,0-1.83.13-2.74a28.6,28.6,0,0,1,1.08-5.39,26.74,26.74,0,0,1,2.1-5.07c.43-.81.9-1.59,1.41-2.36a26.71,26.71,0,0,1,1.64-2.2,26.68,26.68,0,0,1,3.88-3.88,26.71,26.71,0,0,1,2.2-1.64c.77-.51,1.55-1,2.36-1.41a26.74,26.74,0,0,1,5.07-2.1,28.6,28.6,0,0,1,5.39-1.08C73.67,30,74.58,30,75.5,30H574c.92,0,1.83,0,2.74.13a28.6,28.6,0,0,1,5.39,1.08,26.74,26.74,0,0,1,5.07,2.1c.81.43,1.59.9,2.36,1.41a26.71,26.71,0,0,1,2.2,1.64,26.68,26.68,0,0,1,3.88,3.88,26.71,26.71,0,0,1,1.64,2.2c.51.77,1,1.55,1.41,2.36a26.74,26.74,0,0,1,2.1,5.07,28.6,28.6,0,0,1,1.08,5.39c.09.91.13,1.82.13,2.74v57c0,.92,0,1.84-.13,2.75s-.23,1.82-.41,2.72a27.23,27.23,0,0,1-.67,2.66,26.57,26.57,0,0,1-.92,2.59,25.56,25.56,0,0,1-1.18,2.48,27.55,27.55,0,0,1-3.05,4.57,27.17,27.17,0,0,1-1.84,2,27.45,27.45,0,0,1-2,1.85,26.59,26.59,0,0,1-2.2,1.63c-.77.51-1.55,1-2.36,1.42s-1.64.82-2.48,1.17-1.71.66-2.59.93-1.77.49-2.67.67-1.8.31-2.72.4-1.82.13-2.74.13H75.5c-.92,0-1.83,0-2.74-.13s-1.82-.23-2.72-.4-1.79-.41-2.67-.67-1.74-.58-2.59-.93-1.67-.74-2.48-1.17-1.59-.91-2.36-1.42a26.59,26.59,0,0,1-2.2-1.63,27.45,27.45,0,0,1-2-1.85,27.17,27.17,0,0,1-1.84-2,27.55,27.55,0,0,1-3-4.57,25.56,25.56,0,0,1-1.18-2.48,26.57,26.57,0,0,1-.92-2.59,27.23,27.23,0,0,1-.67-2.66c-.18-.9-.32-1.81-.41-2.72S47.5,115.93,47.5,115Z" fill="#64cad5"/><text transform="translate(85.11 79)" font-size="26" fill="#022b35" font-family="Poppins-SemiBold, Poppins" font-weight="600">My</text><text transform="translate(124.21 79)" font-size="26" fill="#022b35" font-family="Poppins-SemiBold, Poppins" font-weight="600"> </text><text transform="translate(130.4 79)" font-size="26" fill="#022b35" font-family="Poppins-SemiBold, Poppins" font-weight="600">c</text><text transform="translate(146.06 79)" font-size="26" fill="#022b35" font-family="Poppins-SemiBold, Poppins" font-weight="600">a</text><text transform="translate(163.68 79)" font-size="26" fill="#022b35" font-family="Poppins-SemiBold, Poppins" font-weight="600">t</text><text transform="translate(173.77 79)" font-size="26" fill="#022b35" font-family="Poppins-SemiBold, Poppins" font-weight="600"> </text><text transform="translate(179.96 79)" font-size="26" fill="#022b35" font-family="Poppins-SemiBold, Poppins" font-weight="600">i</text><text transform="translate(187.19 79)" font-size="26" fill="#022b35" font-family="Poppins-SemiBold, Poppins" font-weight="600">s</text><text transform="translate(201.36 79)" font-size="26" fill="#022b35" font-family="Poppins-SemiBold, Poppins" font-weight="600"> </text><text transform="translate(207.54 79)" font-size="26" fill="#022b35" font-family="Poppins-SemiBold, Poppins" font-weight="600">m</text><text transform="translate(234.79 79)" font-size="26" fill="#022b35" font-family="Poppins-SemiBold, Poppins" font-weight="600">i</text><text transform="translate(242.02 79)" font-size="26" fill="#022b35" font-family="Poppins-SemiBold, Poppins" font-weight="600">s</text><text transform="translate(256.19 79)" font-size="26" fill="#022b35" font-family="Poppins-SemiBold, Poppins" font-weight="600">s</text><text transform="translate(270.36 79)" font-size="26" fill="#022b35" font-family="Poppins-SemiBold, Poppins" font-weight="600">i</text><text transform="translate(277.59 79)" font-size="26" fill="#022b35" font-family="Poppins-SemiBold, Poppins" font-weight="600">n</text><text transform="translate(294.77 79)" font-size="26" fill="#022b35" font-family="Poppins-SemiBold, Poppins" font-weight="600">g</text><text transform="translate(312.4 79)" font-size="26" fill="#022b35" font-family="Poppins-SemiBold, Poppins" font-weight="600"> </text><text transform="translate(318.59 79)" font-size="26" fill="#022b35" font-family="Poppins-SemiBold, Poppins" font-weight="600">s</text><text transform="translate(332.76 79)" font-size="26" fill="#022b35" font-family="Poppins-SemiBold, Poppins" font-weight="600">i</text><text transform="translate(339.99 79)" font-size="26" fill="#022b35" font-family="Poppins-SemiBold, Poppins" font-weight="600">n</text><text transform="translate(357.17 79)" font-size="26" fill="#022b35" font-family="Poppins-SemiBold, Poppins" font-weight="600">c</text><text transform="translate(372.83 79)" font-size="26" fill="#022b35" font-family="Poppins-SemiBold, Poppins" font-weight="600">e</text><text transform="translate(388.87 79)" font-size="26" fill="#022b35" font-family="Poppins-SemiBold, Poppins" font-weight="600"> </text><text transform="translate(395.06 79)" font-size="26" fill="#022b35" font-family="Poppins-SemiBold, Poppins" font-weight="600">t</text><text transform="translate(405.15 79)" font-size="26" fill="#022b35" font-family="Poppins-SemiBold, Poppins" font-weight="600">h</text><text transform="translate(422.33 79)" font-size="26" fill="#022b35" font-family="Poppins-SemiBold, Poppins" font-weight="600">e</text><text transform="translate(438.37 79)" font-size="26" fill="#022b35" font-family="Poppins-SemiBold, Poppins" font-weight="600"> </text><text transform="translate(444.56 79)" font-size="26" fill="#022b35" font-family="Poppins-SemiBold, Poppins" font-weight="600">m</text><text transform="translate(471.81 79)" font-size="26" fill="#022b35" font-family="Poppins-SemiBold, Poppins" font-weight="600">o</text><text transform="translate(488.4 79)" font-size="26" fill="#022b35" font-family="Poppins-SemiBold, Poppins" font-weight="600">r</text><text transform="translate(498.9 79)" font-size="26" fill="#022b35" font-family="Poppins-SemiBold, Poppins" font-weight="600">n</text><text transform="translate(516.09 79)" font-size="26" fill="#022b35" font-family="Poppins-SemiBold, Poppins" font-weight="600">i</text><text transform="translate(523.32 79)" font-size="26" fill="#022b35" font-family="Poppins-SemiBold, Poppins" font-weight="600">n</text><text transform="translate(540.5 79)" font-size="26" fill="#022b35" font-family="Poppins-SemiBold, Poppins" font-weight="600">g</text><text transform="translate(558.13 79)" font-size="26" fill="#022b35" font-family="Poppins-SemiBold, Poppins" font-weight="600">.</text><text transform="translate(564.89 79)" font-size="26" fill="#022b35" font-family="Poppins-SemiBold, Poppins" font-weight="600"> </text><text transform="translate(571.08 79)" font-size="26" fill="#022b35" font-family="Poppins-SemiBold, Poppins" font-weight="600"> </text><text transform="translate(140.11 118)" font-size="26" fill="#022b35" font-family="Poppins-SemiBold, Poppins" font-weight="600">C</text><text transform="translate(160.08 118)" font-size="26" fill="#022b35" font-family="Poppins-SemiBold, Poppins" font-weight="600">a</text><text transform="translate(177.71 118)" font-size="26" fill="#022b35" font-family="Poppins-SemiBold, Poppins" font-weight="600">n</text><text transform="translate(194.9 118)" font-size="26" fill="#022b35" font-family="Poppins-SemiBold, Poppins" font-weight="600"> </text><text transform="translate(201.08 118)" font-size="26" fill="#022b35" font-family="Poppins-SemiBold, Poppins" font-weight="600">a</text><text transform="translate(218.71 118)" font-size="26" fill="#022b35" font-family="Poppins-SemiBold, Poppins" font-weight="600">n</text><text transform="translate(235.9 118)" font-size="26" fill="#022b35" font-family="Poppins-SemiBold, Poppins" font-weight="600">y</text><text transform="translate(251.63 118)" font-size="26" fill="#022b35" font-family="Poppins-SemiBold, Poppins" font-weight="600">o</text><text transform="translate(268.22 118)" font-size="26" fill="#022b35" font-family="Poppins-SemiBold, Poppins" font-weight="600">n</text><text transform="translate(285.4 118)" font-size="26" fill="#022b35" font-family="Poppins-SemiBold, Poppins" font-weight="600">e</text><text transform="translate(301.44 118)" font-size="26" fill="#022b35" font-family="Poppins-SemiBold, Poppins" font-weight="600"> </text><text transform="translate(307.63 118)" font-size="26" fill="#022b35" font-family="Poppins-SemiBold, Poppins" font-weight="600">h</text><text transform="translate(324.82 118)" font-size="26" fill="#022b35" font-family="Poppins-SemiBold, Poppins" font-weight="600">e</text><text transform="translate(340.86 118)" font-size="26" fill="#022b35" font-family="Poppins-SemiBold, Poppins" font-weight="600">l</text><text transform="translate(348.09 118)" font-size="26" fill="#022b35" font-family="Poppins-SemiBold, Poppins" font-weight="600">p</text><text transform="translate(365.72 118)" font-size="26" fill="#022b35" font-family="Poppins-SemiBold, Poppins" font-weight="600"> </text><text transform="translate(371.9 118)" font-size="26" fill="#022b35" font-family="Poppins-SemiBold, Poppins" font-weight="600">m</text><text transform="translate(399.15 118)" font-size="26" fill="#022b35" font-family="Poppins-SemiBold, Poppins" font-weight="600">e</text><text transform="translate(415.19 118)" font-size="26" fill="#022b35" font-family="Poppins-SemiBold, Poppins" font-weight="600"> </text><text transform="translate(421.38 118)" font-size="26" fill="#022b35" font-family="Poppins-SemiBold, Poppins" font-weight="600">f</text><text transform="translate(430.35 118)" font-size="26" fill="#022b35" font-family="Poppins-SemiBold, Poppins" font-weight="600">i</text><text transform="translate(437.58 118)" font-size="26" fill="#022b35" font-family="Poppins-SemiBold, Poppins" font-weight="600">n</text><text transform="translate(454.77 118)" font-size="26" fill="#022b35" font-family="Poppins-SemiBold, Poppins" font-weight="600">d</text><text transform="translate(472.39 118)" font-size="26" fill="#022b35" font-family="Poppins-SemiBold, Poppins" font-weight="600"> </text><text transform="translate(478.58 118)" font-size="26" fill="#022b35" font-family="Poppins-SemiBold, Poppins" font-weight="600">i</text><text transform="translate(485.81 118)" font-size="26" fill="#022b35" font-family="Poppins-SemiBold, Poppins" font-weight="600">t</text><text transform="translate(495.9 118)" font-size="26" fill="#022b35" font-family="Poppins-SemiBold, Poppins" font-weight="600">?</text><path d="M910.49,149h0l-5-5,5-5h0a.57.57,0,0,0,.12-.18.52.52,0,0,0-.12-.55l-2.36-2.36a.53.53,0,0,0-.55-.12.57.57,0,0,0-.18.12h0l-5,5-5-5h0a.76.76,0,0,0-.19-.12.52.52,0,0,0-.54.12l-2.36,2.36a.52.52,0,0,0-.12.55.36.36,0,0,0,.12.18h0l5,5-5,5h0a.36.36,0,0,0-.12.18.5.5,0,0,0,.12.54l2.36,2.37a.52.52,0,0,0,.54.11.52.52,0,0,0,.19-.11h0l5-5,5,5h0a.42.42,0,0,0,.18.11.53.53,0,0,0,.55-.11l2.36-2.37a.5.5,0,0,0,.12-.54.76.76,0,0,0-.12-.19Z" fill="#fff"/><text transform="translate(540.68 309.5)" font-size="16" fill="#fff" font-family="Poppins-Medium, Poppins" font-weight="500"><tspan xml:space="preserve">There&apos;s a brown cat roaming in my  </tspan></text><text transform="translate(540.68 334.5)" font-size="16" fill="#fff" font-family="Poppins-Medium, Poppins" font-weight="500">garden, is this yours? </text><text transform="translate(540.68 286.5)" font-size="16" fill="#64cad5" font-family="Poppins-Medium, Poppins" font-weight="500">Sammi </text><text transform="translate(540.68 371.5)" font-size="16" fill="#64cad5" font-family="Poppins-Medium, Poppins" font-weight="500">Sam </text><text transform="translate(604.68 285.5)" font-size="13" fill="#9f9f9f" font-family="Poppins-Light, Poppins" font-weight="300"><tspan xml:space="preserve">Today at  9.10 am </tspan></text><text transform="translate(581.68 370.5)" font-size="13" fill="#9f9f9f" font-family="Poppins-Light, Poppins" font-weight="300"><tspan xml:space="preserve">Today at  9.45 am </tspan></text><text transform="translate(540.68 396.5)" font-size="16" fill="#fff" font-family="Poppins-Medium, Poppins" font-weight="500">Guys lets help her find her cat.</text><path d="M360.21,421.36s1.55-26-7.69-48S328,335.91,312,331.79s-31.79,8.56-16.17,21.86S340.49,382.86,348,423.8Z" fill="#62c9d5"/><path d="M360.21,421.36s1.55-26-7.69-48S328,335.91,312,331.79s-31.79,8.56-16.17,21.86S340.49,382.86,348,423.8Z" opacity="0.15"/><path d="M356.6,413.83h.17a.88.88,0,0,0,.67-1c-9.81-45.28-39.39-68.69-53.67-74.68a.89.89,0,1,0-.69,1.63c14,5.89,43,28.85,52.63,73.42a.9.9,0,0,0,.89.67Z" fill="#fff"/><path d="M291.48,401.17c.35,3.45,3.14,6.1,5.89,8.34s5.57,4.65,6.3,8c1.47,6.87-6.66,13.21-4.89,20a10.94,10.94,0,0,0,5.73,6.4c2.2,1.07,4.46,2,6.75,2.87a33,33,0,0,0,3.4.82,15.7,15.7,0,0,1,9.22,4.12c3.75,4.06,3.28,10.32,4.61,15.7a24.45,24.45,0,0,0,30.91,16.19A26.05,26.05,0,0,0,373,446.36c-2.41-4.27-6-7.85-8.12-12.3-3.45-7.36-2.38-16.11-6.46-23.22-3.92-6.73-9.28-11.77-17.29-13-5.1-.76-10.73.41-15.7-1.43s-9.12-4.65-14.19-5.89a18.14,18.14,0,0,0-15.7,2.65,9.62,9.62,0,0,0-4.06,8.05Z" fill="#62c9d5"/><path d="M291.48,401.17c.35,3.45,3.14,6.1,5.89,8.34s5.57,4.65,6.3,8c1.47,6.87-6.66,13.21-4.89,20a10.94,10.94,0,0,0,5.73,6.4c2.2,1.07,4.46,2,6.75,2.87a33,33,0,0,0,3.4.82,15.7,15.7,0,0,1,9.22,4.12c3.75,4.06,3.28,10.32,4.61,15.7a24.45,24.45,0,0,0,30.91,16.19A26.05,26.05,0,0,0,373,446.36c-2.41-4.27-6-7.85-8.12-12.3-3.45-7.36-2.38-16.11-6.46-23.22-3.92-6.73-9.28-11.77-17.29-13-5.1-.76-10.73.41-15.7-1.43s-9.12-4.65-14.19-5.89a18.14,18.14,0,0,0-15.7,2.65,9.62,9.62,0,0,0-4.06,8.05Z" opacity="0.3"/><path d="M347.41,428.21a.56.56,0,0,0-.23-.31c-14.11-20-36.21-29.46-43.77-31.13a.78.78,0,0,0-.78.21.81.81,0,0,0-.18.8.78.78,0,0,0,.63.52c7.08,1.57,27.61,10.34,41.43,28.67a43.18,43.18,0,0,0-34.4,3,.78.78,0,0,0,.39,1.43.89.89,0,0,0,.45-.12,41.7,41.7,0,0,1,35.15-2.14,65.55,65.55,0,0,1,11.77,40.33.79.79,0,0,0,.69.81h0a.78.78,0,0,0,.8-.77A66.94,66.94,0,0,0,347.41,428.21Z" fill="#fff"/><path d="M445.9,504.08a29.77,29.77,0,0,1,3.54.2,28.37,28.37,0,0,1,3.4.59,24.49,24.49,0,0,1,3.14,1,18.75,18.75,0,0,1,2.74,1.3,13.94,13.94,0,0,1,2.26,1.59,10.82,10.82,0,0,1,1.68,1.8,7.75,7.75,0,0,1,1,2,6.25,6.25,0,0,1,.35,2,6.34,6.34,0,0,1-.35,2,7.7,7.7,0,0,1-1,2,10.5,10.5,0,0,1-1.68,1.81,13.9,13.9,0,0,1-2.26,1.58,19.86,19.86,0,0,1-2.74,1.31,24.48,24.48,0,0,1-3.14,1,28.37,28.37,0,0,1-3.4.6,31.43,31.43,0,0,1-7.08,0,28.37,28.37,0,0,1-3.4-.6,24.48,24.48,0,0,1-3.14-1,20.57,20.57,0,0,1-2.75-1.31,14.25,14.25,0,0,1-2.25-1.58,10.5,10.5,0,0,1-1.68-1.81,7.7,7.7,0,0,1-1-2,6.34,6.34,0,0,1-.35-2,6.25,6.25,0,0,1,.35-2,7.75,7.75,0,0,1,1-2,10.82,10.82,0,0,1,1.68-1.8,14.29,14.29,0,0,1,2.25-1.59,19.39,19.39,0,0,1,2.75-1.3,24.49,24.49,0,0,1,3.14-1,28.37,28.37,0,0,1,3.4-.59A29.77,29.77,0,0,1,445.9,504.08Z" opacity="0.1"/><path d="M456.12,515.42c.11-.17.2-.33.3-.5v-.13c0-.14.12-.27.18-.42a.33.33,0,0,1,0-.14,2.39,2.39,0,0,1,.15-.54,5.23,5.23,0,0,0,0-.56v-.75c0-.13-.06-.25-.1-.37a.54.54,0,0,0,0-.18,2.14,2.14,0,0,0-.22-.52.43.43,0,0,0,0-.16,1.39,1.39,0,0,0-.22-.37l-.14-.22-.11-.14-.19-.22-.11-.11a12.81,12.81,0,0,0-19.38,0l-.09.09-.18.24-.13.16a1,1,0,0,0-.15.2c-.09.13-.16.25-.24.39v.12a3.21,3.21,0,0,0-.22.54V512a2.88,2.88,0,0,0-.09.4v.74a4.37,4.37,0,0,0,.18,1.13v.11c.06.16.12.31.19.46v.11a3.3,3.3,0,0,0,.31.51,3,3,0,0,0,.44.55l.48.48.12.11.5.38.13.1a5.7,5.7,0,0,0,.71.45,17.16,17.16,0,0,0,15.54,0,7.68,7.68,0,0,0,.71-.45l.15-.1.47-.38.15-.11.46-.46a3.75,3.75,0,0,0,.44-.53Z" fill="#62c9d5"/><path d="M456.12,515.42c.11-.17.2-.33.3-.5v-.13c0-.14.12-.27.18-.42a.33.33,0,0,1,0-.14,2.39,2.39,0,0,1,.15-.54,5.23,5.23,0,0,0,0-.56v-.75c0-.13-.06-.25-.1-.37a.54.54,0,0,0,0-.18,2.14,2.14,0,0,0-.22-.52.43.43,0,0,0,0-.16,1.39,1.39,0,0,0-.22-.37l-.14-.22-.11-.14-.19-.22-.11-.11a12.81,12.81,0,0,0-19.38,0l-.09.09-.18.24-.13.16a1,1,0,0,0-.15.2c-.09.13-.16.25-.24.39v.12a3.21,3.21,0,0,0-.22.54V512a2.88,2.88,0,0,0-.09.4v.74a4.37,4.37,0,0,0,.18,1.13v.11c.06.16.12.31.19.46v.11a3.3,3.3,0,0,0,.31.51,3,3,0,0,0,.44.55l.48.48.12.11.5.38.13.1a5.7,5.7,0,0,0,.71.45,17.16,17.16,0,0,0,15.54,0,7.68,7.68,0,0,0,.71-.45l.15-.1.47-.38.15-.11.46-.46a3.75,3.75,0,0,0,.44-.53Z" opacity="0.2"/><path d="M445.9,496.33a1.65,1.65,0,0,0-.84.2.58.58,0,0,0-.33.44c-.2,5-.61,7.47-2.22,10.15a1.69,1.69,0,0,0,1,1.39,4.89,4.89,0,0,0,2.4.57h0a5,5,0,0,0,2.42-.57,1.71,1.71,0,0,0,1-1.39c-1.62-2.68-2-5.11-2.22-10.15a.61.61,0,0,0-.35-.44A1.73,1.73,0,0,0,445.9,496.33Z" fill="#62c9d5"/><path d="M445.9,496.33a1.65,1.65,0,0,0-.84.2.58.58,0,0,0-.33.44c-.2,5-.61,7.47-2.22,10.15a1.69,1.69,0,0,0,1,1.39,4.89,4.89,0,0,0,2.4.57h0a5,5,0,0,0,2.42-.57,1.71,1.71,0,0,0,1-1.39c-1.62-2.68-2-5.11-2.22-10.15a.61.61,0,0,0-.35-.44A1.73,1.73,0,0,0,445.9,496.33Z" opacity="0.3"/><path d="M447.11,497.48h-2.49c0,1.58-.17,3.11-.31,4.58,1,0,2-.09,3-.18C447.27,500.47,447.18,499,447.11,497.48Z" opacity="0.15"/><path d="M439.76,516.06a5,5,0,0,1-.95-8.27,12.86,12.86,0,0,0-2.6,2.28l-.09.09-.19.24-.13.16a2.43,2.43,0,0,0-.14.2,4.11,4.11,0,0,0-.24.39v.13a3.11,3.11,0,0,0-.22.53V512a2.71,2.71,0,0,0-.09.41v.73a4.3,4.3,0,0,0,.18,1.13v.11c0,.16.12.31.18.46v.11a4.39,4.39,0,0,0,.32.51h0a2.59,2.59,0,0,0,.44.55h0l.47.48.13.11.49.39.13.09a6.67,6.67,0,0,0,.72.45,17.14,17.14,0,0,0,15.53,0,6.67,6.67,0,0,0,.72-.45l.15-.09.47-.39.15-.11.46-.46C451.19,519.17,443.33,518.29,439.76,516.06Z" opacity="0.15"/><path d="M421.2,483.67a34.89,34.89,0,0,0,49.34-49.34l2.26-2.26c15.68,15.7,17.18,39.65,1.48,55.33s-39.61,14.18-55.31-1.46Z" fill="#37474f"/><path d="M475.2,434.64l-2.28,2.27a29.73,29.73,0,0,0-2.38-2.62L472.8,432C473.64,432.92,474.43,433.79,475.2,434.64Z" fill="#263238"/><path d="M421.2,483.67c.83.83,1.7,1.62,2.6,2.36l-2.25,2.25A26.64,26.64,0,0,1,419,485.9Z" fill="#263238"/><path d="M483.86,462.41c-1,8.27-4,17.83-12,24.87a39.24,39.24,0,0,1-33.27,10,36.83,36.83,0,0,0,35.65-9.86c15.22-15.22,14.27-38.22-.13-53.9C474.74,434.22,485.67,447.55,483.86,462.41Z" fill="#64cad5"/><path d="M417.72,489.11a2,2,0,0,1-1.39-.59,2,2,0,0,1,0-2.78l56.3-56.27a2,2,0,1,1,2.79,2.8l-56.29,56.25A2,2,0,0,1,417.72,489.11Z" fill="#37474f"/><path d="M472.63,429.47l-56.3,56.27a2,2,0,0,0-.46,2.08,2.51,2.51,0,0,0,.6.1,2,2,0,0,0,1.42-.59l56.28-56.25a1.24,1.24,0,1,0-1.54-1.61Z" fill="#455a64"/><path d="M413.47,459a32.32,32.32,0,1,0,13.89-26.56A32.33,32.33,0,0,0,413.47,459Z" fill="#62c9d5"/><path d="M413.47,459a32.32,32.32,0,1,0,13.89-26.56A32.33,32.33,0,0,0,413.47,459Z" fill="#fff" opacity="0.5"/><path d="M452.51,431.94c-1.39-.53-3.33-.75-2.38.55s1.83,1.69,1.36,2.7S450,437,450,437.86s.24,1.83.86,1.83,2.69-1.06,3.48-.66,3.52,1.63,4.27.88,1.16-.51,2.24-1.26,1.57-2.11.75-2.44-1.05,0-2.37-.66-1.59-1.83-3-2.09A22.25,22.25,0,0,1,452.51,431.94Z" fill="#455a64"/><path d="M443.59,434c-.77.76-1,.44-2.11,1.18a4,4,0,0,1-3,.67c-.71-.18-1.34-1.83-1.1-2.58s1.39-.55,2.66-.22a7.33,7.33,0,0,0,3.94-.22c1.19-.33.45.44-.31,1.17Zm3.66-3.75c-1.83.2-5.66.15-7-.88-.66-.51-1.45-1.17-2.33-1.74a32.42,32.42,0,0,0-18.63,12.82,9.88,9.88,0,0,0,.51,2.64,6.17,6.17,0,0,0,3.17,3.43c1.39.9.59,1.56,1,2.75a7.06,7.06,0,0,0,1.16,2.63c.66.81-.87,1.25-1.58,2.09s-1,1.34-1.14,3.67a16.22,16.22,0,0,0,1.58,5.66c.29,1-1.08,1.5-1.47,3.2s-2.16,5.92-1.57,8.93,1.61,3.09,2.12,1.43.61-3.39,2-4.24,3.17.24,4.71-1.72a3.93,3.93,0,0,1,3.2-2c1.34-.35,1.14-1.18,2.77-2.5s2.56-2.83,1.43-4.1-2.09-1.56-2.62-3.66a16.85,16.85,0,0,0-3.15-6.16c-1.38-1.63-4.6-1.59-5.5-2.36s-.84-3.15-.44-3.92-.35-1.34-1.23-1.45-1.11-.81-.89-2,2.4-1.83,3.77-1.41,1.83,1.35,1.43,3.19a3.65,3.65,0,0,0,1.5,4c1.12.81.86-.79.33-2s-.27-2,1.17-3.67,3-.88,4.95-2.16,1.63.13,2.79.81,1.22,0,2.14-1,2.07.64,3.66.26-.46-2.88.2-4.05,1.84-.63,1.93-2.73,1-1.83,1.83-2.31S449.14,430.06,447.25,430.26Z" fill="#455a64"/><path d="M476.7,468.7v.09a2.36,2.36,0,0,0-1.67.69c-1.34,1.42-1.17.63-3.22,1.12s-1.84,1.63-2.18,2.82-2.75,1.73-3.83,1.84-2.53,2.47-2.73,3.84-1.93,1.3-3.32,2.09a44.23,44.23,0,0,0-3.66,3.17,3,3,0,0,1-3.32.18c-1-.62-1.32-2.85-1.26-4.67a9.91,9.91,0,0,1,1.55-5.2c1-1.58.83-1.41,1.49-4.25a4.6,4.6,0,0,0-1.84-5.06c-.93-.68-2.87-.75-3.66-1.65s-.79-1.83-.37-4.61,1.84-2.83,3.39-3.8a10.15,10.15,0,0,1,5.92-1.41,5.52,5.52,0,0,1,3.76,2.09c.84.95.86,2.33,1.57,2.71s1.52.24,2.22.7,1,1,1.83,1.17.66-.86.73-1.35-.62-.66-1.5-1a1.4,1.4,0,0,1-1.08-1.41c0-.72-.79-.39-1.12-.81s-.67.7-.88,1.1-.23-.46-.23-.46-.59.42-.65.11.57-.82.77-1.48-.78-.88-1.15-1.61a2.4,2.4,0,0,0-2.07-1.18c-.9,0-1-.31-1.59.26a3.79,3.79,0,0,1-3.06,0c-.52-.31.33-1.26,1.19-2.05s1.68,0,2.69-.83.22-1.22-.27-1.61-.44-1,.64-2,1.7-.38,1.83.33a2,2,0,0,0,1.41,1.58c.73.31.77-.27,1.19-1.37a2.15,2.15,0,0,1,2.29-1.49,14.62,14.62,0,0,0,3.9-.36c.88-.33,1.84.49,2.17,1.37a6.91,6.91,0,0,0,2.82,2.4,1.25,1.25,0,0,0,1.1,0A32.2,32.2,0,0,1,476.7,468.7Z" fill="#455a64"/><path d="M465.15,481.23c-.67-.42-.71-.15-1.37.26s-1.54.8-1.67,1.44-.36,1.4.31,1.16.74-.83,1.58-.88S466.18,481.85,465.15,481.23Z" fill="#455a64"/><path d="M464.31,435.52c-16.91-13.18-25.65-1.56-18.85,10.7s23.14,22,27.65,17.46S476.88,445.32,464.31,435.52Z" fill="#fff" opacity="0.1"/><path d="M431.68,470.79c-10-18.14,0-41.63,16.05-44.07H445.9a32.34,32.34,0,1,0,23.05,55C462.37,485.83,441.65,488.91,431.68,470.79Z" opacity="0.1"/><path d="M414.93,167.5a1.39,1.39,0,0,1,.12-.57,1.34,1.34,0,0,1,.32-.49,1.51,1.51,0,0,1,.49-.33,1.56,1.56,0,0,1,.57-.11h18a1.66,1.66,0,0,1,.58.11,1.58,1.58,0,0,1,.48.33,1.51,1.51,0,0,1,.33.49,1.53,1.53,0,0,1,0,1.14,1.51,1.51,0,0,1-.33.49,1.58,1.58,0,0,1-.48.33,1.66,1.66,0,0,1-.58.11h-18a1.56,1.56,0,0,1-.57-.11,1.51,1.51,0,0,1-.49-.33,1.34,1.34,0,0,1-.32-.49A1.39,1.39,0,0,1,414.93,167.5Z" fill="#fff"/><path d="M414.93,171.5a1.39,1.39,0,0,1,.12-.57,1.34,1.34,0,0,1,.32-.49,1.51,1.51,0,0,1,.49-.33,1.56,1.56,0,0,1,.57-.11h18a1.66,1.66,0,0,1,.58.11,1.58,1.58,0,0,1,.48.33,1.51,1.51,0,0,1,.33.49,1.53,1.53,0,0,1,0,1.14,1.51,1.51,0,0,1-.33.49,1.58,1.58,0,0,1-.48.33,1.66,1.66,0,0,1-.58.11h-18a1.56,1.56,0,0,1-.57-.11,1.51,1.51,0,0,1-.49-.33,1.34,1.34,0,0,1-.32-.49A1.39,1.39,0,0,1,414.93,171.5Z" fill="#fff"/><path d="M422.93,175.5a1.39,1.39,0,0,1,.12-.57,1.34,1.34,0,0,1,.32-.49,1.51,1.51,0,0,1,.49-.33,1.56,1.56,0,0,1,.57-.11h10a1.66,1.66,0,0,1,.58.11,1.58,1.58,0,0,1,.48.33,1.51,1.51,0,0,1,.33.49,1.53,1.53,0,0,1,0,1.14,1.51,1.51,0,0,1-.33.49,1.58,1.58,0,0,1-.48.33,1.66,1.66,0,0,1-.58.11h-10a1.56,1.56,0,0,1-.57-.11,1.51,1.51,0,0,1-.49-.33,1.34,1.34,0,0,1-.32-.49A1.39,1.39,0,0,1,422.93,175.5Z" fill="#fff"/><polygon points="711.55 238.73 714.78 239.25 712.89 236.57 714.38 233.66 711.26 234.62 708.95 232.31 708.9 235.57 705.98 237.06 709.08 238.12 709.58 241.35 711.55 238.73" fill="#fff"/><polygon points="740.55 126.81 743.78 127.33 741.89 124.65 743.38 121.74 740.26 122.7 737.95 120.39 737.9 123.65 734.98 125.13 738.08 126.19 738.58 129.43 740.55 126.81" fill="#fff"/><polygon points="525.85 218.12 529.08 218.64 527.2 215.96 528.68 213.05 525.56 214.01 523.25 211.7 523.2 214.96 520.28 216.44 523.38 217.5 523.88 220.74 525.85 218.12" fill="#fff"/><polygon points="854.3 274.88 857.53 275.4 855.65 272.72 857.14 269.81 854.01 270.77 851.7 268.46 851.65 271.72 848.73 273.2 851.83 274.26 852.33 277.5 854.3 274.88" fill="#fff"/><polygon points="783.2 194.74 786.43 195.25 784.55 192.57 786.04 189.66 782.91 190.62 780.6 188.31 780.55 191.57 777.63 193.06 780.73 194.12 781.23 197.35 783.2 194.74" fill="#fff"/><polygon points="909.2 212.43 912.43 212.95 910.55 210.27 912.04 207.35 908.91 208.31 906.6 206 906.55 209.27 903.63 210.75 906.73 211.81 907.23 215.04 909.2 212.43" fill="#fff"/><polygon points="623.48 183.35 626.71 183.87 624.83 181.19 626.32 178.27 623.19 179.24 620.89 176.93 620.83 180.19 617.91 181.67 621.01 182.73 621.52 185.97 623.48 183.35" fill="#fff"/><path d="M508.68,355c.71,0,1.41,0,2.11.1s1.4.18,2.09.31a20.31,20.31,0,0,1,2,.52,19.59,19.59,0,0,1,2,.71c.65.27,1.29.57,1.91.9s1.22.69,1.81,1.08a20.58,20.58,0,0,1,1.69,1.26,21.16,21.16,0,0,1,1.57,1.42c.49.5,1,1,1.41,1.56a19.16,19.16,0,0,1,1.26,1.7,20.41,20.41,0,0,1,1.08,1.8,20.79,20.79,0,0,1,.91,1.91c.27.65.5,1.32.71,2s.37,1.35.51,2.05a20.86,20.86,0,0,1,.31,2.08c.07.7.1,1.41.1,2.11s0,1.41-.1,2.11a20.86,20.86,0,0,1-.31,2.08c-.14.7-.31,1.38-.51,2.05s-.44,1.34-.71,2a20.79,20.79,0,0,1-.91,1.91,20.41,20.41,0,0,1-1.08,1.8,19.16,19.16,0,0,1-1.26,1.7c-.44.54-.92,1.06-1.41,1.56a21.16,21.16,0,0,1-1.57,1.42,20.58,20.58,0,0,1-1.69,1.26c-.59.39-1.19.75-1.81,1.08s-1.26.63-1.91.9a19.59,19.59,0,0,1-2,.71,20.31,20.31,0,0,1-2,.52c-.69.13-1.39.24-2.09.31s-1.4.1-2.11.1-1.4,0-2.1-.1-1.4-.18-2.09-.31-1.37-.31-2.05-.52a20.32,20.32,0,0,1-2-.71,20.85,20.85,0,0,1-1.91-.9,21.16,21.16,0,0,1-3.51-2.34c-.54-.45-1.06-.92-1.56-1.42s-1-1-1.42-1.56-.86-1.11-1.25-1.7a20.5,20.5,0,0,1-1.09-1.8c-.33-.63-.63-1.26-.9-1.91a20.5,20.5,0,0,1-.71-2,17.54,17.54,0,0,1-.51-2.05,20.86,20.86,0,0,1-.31-2.08c-.07-.7-.11-1.41-.11-2.11s0-1.41.11-2.11a20.86,20.86,0,0,1,.31-2.08,17.54,17.54,0,0,1,.51-2.05,20.5,20.5,0,0,1,.71-2c.27-.65.57-1.28.9-1.91a20.5,20.5,0,0,1,1.09-1.8c.39-.59.81-1.16,1.25-1.7s.92-1.06,1.42-1.56,1-1,1.56-1.42a21.46,21.46,0,0,1,5.42-3.24,20.32,20.32,0,0,1,2-.71c.68-.21,1.36-.38,2.05-.52s1.38-.24,2.09-.31S508,355,508.68,355Z" fill="#fff"/><path d="M508.68,355c.71,0,1.41,0,2.11.1s1.4.18,2.09.31a20.31,20.31,0,0,1,2,.52,19.59,19.59,0,0,1,2,.71c.65.27,1.29.57,1.91.9s1.22.69,1.81,1.08a20.58,20.58,0,0,1,1.69,1.26,21.16,21.16,0,0,1,1.57,1.42c.49.5,1,1,1.41,1.56a19.16,19.16,0,0,1,1.26,1.7,20.41,20.41,0,0,1,1.08,1.8,20.79,20.79,0,0,1,.91,1.91c.27.65.5,1.32.71,2s.37,1.35.51,2.05a20.86,20.86,0,0,1,.31,2.08c.07.7.1,1.41.1,2.11s0,1.41-.1,2.11a20.86,20.86,0,0,1-.31,2.08c-.14.7-.31,1.38-.51,2.05s-.44,1.34-.71,2a20.79,20.79,0,0,1-.91,1.91,20.41,20.41,0,0,1-1.08,1.8,19.16,19.16,0,0,1-1.26,1.7c-.44.54-.92,1.06-1.41,1.56a21.16,21.16,0,0,1-1.57,1.42,20.58,20.58,0,0,1-1.69,1.26c-.59.39-1.19.75-1.81,1.08s-1.26.63-1.91.9a19.59,19.59,0,0,1-2,.71,20.31,20.31,0,0,1-2,.52c-.69.13-1.39.24-2.09.31s-1.4.1-2.11.1-1.4,0-2.1-.1-1.4-.18-2.09-.31-1.37-.31-2.05-.52a20.32,20.32,0,0,1-2-.71,20.85,20.85,0,0,1-1.91-.9,21.16,21.16,0,0,1-3.51-2.34c-.54-.45-1.06-.92-1.56-1.42s-1-1-1.42-1.56-.86-1.11-1.25-1.7a20.5,20.5,0,0,1-1.09-1.8c-.33-.63-.63-1.26-.9-1.91a20.5,20.5,0,0,1-.71-2,17.54,17.54,0,0,1-.51-2.05,20.86,20.86,0,0,1-.31-2.08c-.07-.7-.11-1.41-.11-2.11s0-1.41.11-2.11a20.86,20.86,0,0,1,.31-2.08,17.54,17.54,0,0,1,.51-2.05,20.5,20.5,0,0,1,.71-2c.27-.65.57-1.28.9-1.91a20.5,20.5,0,0,1,1.09-1.8c.39-.59.81-1.16,1.25-1.7s.92-1.06,1.42-1.56,1-1,1.56-1.42a21.46,21.46,0,0,1,5.42-3.24,20.32,20.32,0,0,1,2-.71c.68-.21,1.36-.38,2.05-.52s1.38-.24,2.09-.31S508,355,508.68,355Z" fill="none" stroke="#64cad5"/><g clip-path="url(#clip-path)"><g style="isolation:isolate"><g clip-path="url(#clip-path-2)"><path d="M498.89,396.52c.37-3.91,2.86-8.32,4.57-8.79l7.7-.76c.8-.18,5.11.59,6.6.83l1.39,9.45s0,3.36,0,9c0,0,.71,6.81.91,8.94-4.88,3.06-16.08,3.28-20.58.72C499,409.22,498.5,400.8,498.89,396.52Z" fill="#263238"/><path d="M505.94,380.5a5,5,0,0,0,2.15.77c.66,0,1.28.33,1.94.42,1.43.19,1.82,3.59,3,2.79.35-1.54,3.14-4.91,3.2-9,0-2.06-.83-4.13-2.86-4.47a4.23,4.23,0,0,0-.45-1.18,3.52,3.52,0,0,0-1.22-.9,7.51,7.51,0,0,0-3.17-.69,13.5,13.5,0,0,0-3.23.25,5.18,5.18,0,0,1-3.3.06c-.93-.4-.56,1.56-.17,1.91-.4,0-.62-.64-.95-.69s-.45.49-.45.72a3.28,3.28,0,0,0,.64,2.5c-.78.56-.34,1.43.23,2a12.33,12.33,0,0,1,1.49,2.39A9,9,0,0,0,505.94,380.5Z" fill="#37474f"/><path d="M509.81,373.42c-.68,1.12-.6,4.8-.37,8.13a4.29,4.29,0,0,0,.62.14c1.42.19,1.81,3.59,3,2.79.34-1.54,3.13-4.91,3.19-9,0-2.06-.83-4.12-2.86-4.47A5.28,5.28,0,0,0,509.81,373.42Z" fill="#455a64"/><path d="M509.81,373.42a3.66,3.66,0,0,0,2.64,2.47,8.92,8.92,0,0,0-.11,3.05,1.7,1.7,0,0,0,.22.62.73.73,0,0,0,.56.35.49.49,0,0,0,.51-.38,8,8,0,0,1,.47-.86,1.18,1.18,0,0,1,.27-.32,1.45,1.45,0,0,1,1.34-.4,1.47,1.47,0,0,1,1,.93,3,3,0,0,1-1.68,3.68c-1.85.49-2.23-.77-2.23-.77l.22,5.92c-2.23,2.6-7.31,2.24-6.22.79l-.3-2.58a8.76,8.76,0,0,1-2.23,0c-1.34-.27-2.41-1.82-2.76-3.29-.73-3-.52-7.4.4-9.43C504.32,375.35,507.06,373.71,509.81,373.42Z" fill="#ffa8a7"/><path d="M507.51,377.36a.61.61,0,0,1,.43,1,.56.56,0,0,1-.43.19.62.62,0,0,1-.44-1A.6.6,0,0,1,507.51,377.36Z" fill="#263238"/><path d="M503.54,378.07a.61.61,0,0,1-.6.63.66.66,0,0,1-.45-.17.68.68,0,0,1-.19-.43.63.63,0,0,1,.28-.59.61.61,0,0,1,.65,0A.62.62,0,0,1,503.54,378.07Z" fill="#263238"/><path d="M506.51,385.92a25.91,25.91,0,0,0,3.74-1.12,5.55,5.55,0,0,0,1.89-1.81,6.36,6.36,0,0,1-1,1.92c-.81.95-4.51,1.73-4.51,1.73Z" fill="#f28f8f"/><path d="M506,384.17l-.07.08c-.32.28-.88.11-1.23,0-.13,0-.24-.09-.36,0a.85.85,0,0,0-.25.43,2,2,0,0,0-.14,1.24c.09.33.22.62.61.66a.42.42,0,0,0,.27,0s.06-.05.1-.06.1,0,.17.08a.88.88,0,0,0,.56.36,1,1,0,0,0,.51-.09c.08-.05.1-.16.19-.15s.16.08.21.1a.85.85,0,0,0,.31.09.6.6,0,0,0,.56-.56c.1,0,.19.09.29.13a1.06,1.06,0,0,0,.56,0,.64.64,0,0,0,.42-.6c.2,0,.45.12.59-.1s0-.48,0-.67a3,3,0,0,0-.39-.92c-.07-.13-.22-.45-.39-.46s-.15.08-.22.13a1.55,1.55,0,0,1-.56.28.88.88,0,0,1-.6-.05.52.52,0,0,1-.15-.54,1.5,1.5,0,0,1-.42.15,1.7,1.7,0,0,1-.55,0,1.13,1.13,0,0,1,0,.18.31.31,0,0,1-.05.26Z" fill="#37474f"/><polygon points="505.28 377.37 505.41 381.04 503.19 380.49 505.28 377.37" fill="#f28f8f"/><path d="M507.45,375.73l1.42.66a.82.82,0,0,0-.4-1.06.75.75,0,0,0-.59,0A.77.77,0,0,0,507.45,375.73Z" fill="#263238"/><path d="M501.76,376.88l1.32-.85a.76.76,0,0,0-.48-.36.82.82,0,0,0-.59.1A.84.84,0,0,0,501.76,376.88Z" fill="#263238"/><path d="M507.37,382l-2.27.42a1.1,1.1,0,0,0,.45.75,1.11,1.11,0,0,0,.85.2,1.22,1.22,0,0,0,1-1.37Z" fill="#b16668"/><path d="M507.11,382.47a.85.85,0,0,1,.22,0,1.22,1.22,0,0,1-.93.85h-.08v-.07A.82.82,0,0,1,507.11,382.47Z" fill="#ffa8a7"/><path d="M526.18,405s-.8-4.26-2.67-10.56c-1.35-4.55-1.68-5.23-4.62-6.07l-1.33-.19c-1.86,3.46-1.27,6.41.22,9.85l2.49,7.56C521.78,405.43,526.16,405.4,526.18,405Z" fill="#ffa8a7"/><path d="M517.18,387.71c1.71.21,3.88.58,4.8,2s1.45,3.41,2.24,6.08,1,3.91,1,3.91a4.5,4.5,0,0,1-2.58,1.49,14.86,14.86,0,0,1-3.87.41s-1.86-5.24-2.27-6.66a9.72,9.72,0,0,1,.64-7.18Z" fill="#b0bec5"/></g></g></g><path d="M508.68,270c.71,0,1.41,0,2.11.1s1.4.18,2.09.31a20.31,20.31,0,0,1,2,.52,19.59,19.59,0,0,1,2,.71c.65.27,1.29.57,1.91.9s1.22.69,1.81,1.08a20.58,20.58,0,0,1,1.69,1.26,21.16,21.16,0,0,1,1.57,1.42c.49.5,1,1,1.41,1.56a19.16,19.16,0,0,1,1.26,1.7,20.41,20.41,0,0,1,1.08,1.8,20.79,20.79,0,0,1,.91,1.91c.27.65.5,1.32.71,2s.37,1.35.51,2.05a20.86,20.86,0,0,1,.31,2.08c.07.7.1,1.41.1,2.11s0,1.41-.1,2.11a20.86,20.86,0,0,1-.31,2.08c-.14.7-.31,1.38-.51,2.05s-.44,1.34-.71,2a20.79,20.79,0,0,1-.91,1.91,20.41,20.41,0,0,1-1.08,1.8,19.16,19.16,0,0,1-1.26,1.7c-.44.54-.92,1.06-1.41,1.56a21.16,21.16,0,0,1-1.57,1.42,20.58,20.58,0,0,1-1.69,1.26c-.59.39-1.19.75-1.81,1.08s-1.26.63-1.91.9a19.59,19.59,0,0,1-2,.71,20.31,20.31,0,0,1-2,.52c-.69.13-1.39.24-2.09.31s-1.4.1-2.11.1-1.4,0-2.1-.1-1.4-.18-2.09-.31-1.37-.31-2.05-.52a20.32,20.32,0,0,1-2-.71,20.85,20.85,0,0,1-1.91-.9,21.16,21.16,0,0,1-3.51-2.34c-.54-.45-1.06-.92-1.56-1.42s-1-1-1.42-1.56-.86-1.11-1.25-1.7a20.5,20.5,0,0,1-1.09-1.8c-.33-.63-.63-1.26-.9-1.91a20.5,20.5,0,0,1-.71-2,17.54,17.54,0,0,1-.51-2.05,20.86,20.86,0,0,1-.31-2.08c-.07-.7-.11-1.41-.11-2.11s0-1.41.11-2.11a20.86,20.86,0,0,1,.31-2.08,17.54,17.54,0,0,1,.51-2.05,20.5,20.5,0,0,1,.71-2c.27-.65.57-1.28.9-1.91a20.5,20.5,0,0,1,1.09-1.8c.39-.59.81-1.16,1.25-1.7s.92-1.06,1.42-1.56,1-1,1.56-1.42a21.46,21.46,0,0,1,5.42-3.24,20.32,20.32,0,0,1,2-.71c.68-.21,1.36-.38,2.05-.52s1.38-.24,2.09-.31S508,270,508.68,270Z" fill="#fff"/><path d="M508.68,270c.71,0,1.41,0,2.11.1s1.4.18,2.09.31a20.31,20.31,0,0,1,2,.52,19.59,19.59,0,0,1,2,.71c.65.27,1.29.57,1.91.9s1.22.69,1.81,1.08a20.58,20.58,0,0,1,1.69,1.26,21.16,21.16,0,0,1,1.57,1.42c.49.5,1,1,1.41,1.56a19.16,19.16,0,0,1,1.26,1.7,20.41,20.41,0,0,1,1.08,1.8,20.79,20.79,0,0,1,.91,1.91c.27.65.5,1.32.71,2s.37,1.35.51,2.05a20.86,20.86,0,0,1,.31,2.08c.07.7.1,1.41.1,2.11s0,1.41-.1,2.11a20.86,20.86,0,0,1-.31,2.08c-.14.7-.31,1.38-.51,2.05s-.44,1.34-.71,2a20.79,20.79,0,0,1-.91,1.91,20.41,20.41,0,0,1-1.08,1.8,19.16,19.16,0,0,1-1.26,1.7c-.44.54-.92,1.06-1.41,1.56a21.16,21.16,0,0,1-1.57,1.42,20.58,20.58,0,0,1-1.69,1.26c-.59.39-1.19.75-1.81,1.08s-1.26.63-1.91.9a19.59,19.59,0,0,1-2,.71,20.31,20.31,0,0,1-2,.52c-.69.13-1.39.24-2.09.31s-1.4.1-2.11.1-1.4,0-2.1-.1-1.4-.18-2.09-.31-1.37-.31-2.05-.52a20.32,20.32,0,0,1-2-.71,20.85,20.85,0,0,1-1.91-.9,21.16,21.16,0,0,1-3.51-2.34c-.54-.45-1.06-.92-1.56-1.42s-1-1-1.42-1.56-.86-1.11-1.25-1.7a20.5,20.5,0,0,1-1.09-1.8c-.33-.63-.63-1.26-.9-1.91a20.5,20.5,0,0,1-.71-2,17.54,17.54,0,0,1-.51-2.05,20.86,20.86,0,0,1-.31-2.08c-.07-.7-.11-1.41-.11-2.11s0-1.41.11-2.11a20.86,20.86,0,0,1,.31-2.08,17.54,17.54,0,0,1,.51-2.05,20.5,20.5,0,0,1,.71-2c.27-.65.57-1.28.9-1.91a20.5,20.5,0,0,1,1.09-1.8c.39-.59.81-1.16,1.25-1.7s.92-1.06,1.42-1.56,1-1,1.56-1.42a21.46,21.46,0,0,1,5.42-3.24,20.32,20.32,0,0,1,2-.71c.68-.21,1.36-.38,2.05-.52s1.38-.24,2.09-.31S508,270,508.68,270Z" fill="none" stroke="#64cad5"/><g clip-path="url(#clip-path-3)"><g style="isolation:isolate"><g clip-path="url(#clip-path-4)"><path d="M506.84,295.59c-.63-.79-1.69-1.41-3.19-3.21-2-2.48-3.16-7.71.3-10.64,2.17-6,7.65-5.71,10.93-4.78,4.66,1.31,6.08,5.22,4.79,9Z" fill="#292d30"/><path d="M504.74,281.1c-1.46-2.44-5.28-2.74-7.64-1.37a5.37,5.37,0,0,0-2.73,6.44c.74,2.91.44,4.45-1.37,6.08-2.67,2.47-.5,5.82,1.62,7.21s.85,3,1.87,4.26,4.41-.08,4.78-3.1c.34-2.8-3.93-4.54-1.77-7.51,1.68-2.28,1.79-4.19.94-6.84s.52-4.91,3.12-3.81Z" fill="#37474f"/><path d="M503.25,288.14a1.37,1.37,0,0,1,1.13-.58,1.39,1.39,0,0,1,1.12.61c.19.28.32.6.5.87a1,1,0,0,0,.81.53.88.88,0,0,0,.69-.33,2.11,2.11,0,0,0,.36-.68,7.46,7.46,0,0,1,.26-.84c.13-.28.33-.52.44-.82.23-.68.38-1.32.56-2a3.86,3.86,0,0,0,2.5-2.13c.22-.45.12-.6.59-.49a9.32,9.32,0,0,0,1.48.24,7.39,7.39,0,0,0,3.61-.4c.25-.12.52-.45.82-.38s.39.34.51.51a5.86,5.86,0,0,1,.63,1.37,15,15,0,0,1,.45,5.08v.15c-.22,4.64-1.42,6.56-2.74,7.19a6,6,0,0,1-3.32.32V299a3.62,3.62,0,0,1,.94,4.13,15.62,15.62,0,0,1-4.33-1.27c-3.06-1.53-3.35-2.93-3.35-2.93l-.05-7.05a1.72,1.72,0,0,1-1.28.7,1.75,1.75,0,0,1-1.37-.51C502.86,291,502.31,289.19,503.25,288.14Z" fill="#ffbda7"/><path d="M513.11,287.61a.63.63,0,0,1-.56.68.6.6,0,0,1-.45-.12.62.62,0,0,1-.23-.42.67.67,0,0,1,.57-.68.58.58,0,0,1,.67.54Z" fill="#263238"/><path d="M518.73,284.87l-1.52-.54a.81.81,0,0,1,.41-.48.83.83,0,0,1,.62,0,.86.86,0,0,1,.49,1.05Z" fill="#263238"/><path d="M512.64,284.7l-1.54.58a.79.79,0,0,1,0-.62.81.81,0,0,1,.45-.44A.87.87,0,0,1,512.64,284.7Z" fill="#263238"/><path d="M512.86,291.71l2.66.91a1.42,1.42,0,0,1-.77.84,1.44,1.44,0,0,1-1.15,0,1.3,1.3,0,0,1-.73-.71A1.29,1.29,0,0,1,512.86,291.71Z" fill="#b16668"/><path d="M514.38,293.52a1.48,1.48,0,0,0-1.47-1.36h-.13a1.24,1.24,0,0,0,.82,1.23,1.5,1.5,0,0,0,.78.13Z" fill="#f28f8f"/><path d="M518.46,287.43a.63.63,0,0,1-.56.68.59.59,0,0,1-.69-.54.63.63,0,0,1,.56-.68.62.62,0,0,1,.46.12.66.66,0,0,1,.23.42Z" fill="#263238"/><path d="M513.62,296.36c-1.64-.25-5.11-1.15-5.7-2.44a3.8,3.8,0,0,0,1.33,1.85c1,.79,4.36,1.53,4.36,1.53Z" fill="#f0997a"/><path d="M510.16,286,505,287.73a1.62,1.62,0,0,1,.68.76l4.48-1.55Z" fill="#263238"/><path d="M520,287.4a2,2,0,0,1-.85,1.51,1.68,1.68,0,0,1-.68.21,1.49,1.49,0,0,1-1.46-.57h0v0l0,0,0-.07,0-.08v0a3.19,3.19,0,0,1-.11-.33,2.29,2.29,0,0,1,0-1.37,2.8,2.8,0,0,1,1.56-.78,3.18,3.18,0,0,1,.43-.06h.95l.11,0a.72.72,0,0,1,.24.14,4.71,4.71,0,0,1-.07,1.49Zm-5.59.6a2,2,0,0,1-.41.93h0a1.85,1.85,0,0,1-1.37.62,1.54,1.54,0,0,1-1.37-.56l0-.06-.05-.06v-.19l0-.06a.62.62,0,0,0-.07-.19.2.2,0,0,1,0-.11c0-.06,0-.13-.06-.18v-.06c-.12-.45-.27-1.33,0-1.55a2.58,2.58,0,0,1,1.75-.44h.1a1.71,1.71,0,0,1,.45,0l.17,0a3.34,3.34,0,0,1,.43.1l.13.05a.59.59,0,0,1,.14.06h0a.81.81,0,0,1,.3.22,2,2,0,0,1-.07,1.4Zm6.1-2.87h-.3a8.82,8.82,0,0,0-2.93.31,11.11,11.11,0,0,1-1.77.75c-.52.07-.91-.26-1.92-.48a10,10,0,0,0-3.14.13l-.31.07a.51.51,0,0,0-.34.55,1.27,1.27,0,0,0,.33.6.66.66,0,0,1,.11.24,10.93,10.93,0,0,0,.44,1.68,2,2,0,0,0,.43.58,1.2,1.2,0,0,0,.21.17l.12.07a1.42,1.42,0,0,0,.36.14h.86a2.23,2.23,0,0,0,2.11-1.42c.29-.68.18-1.58.77-1.62h.11c.44.07.42.91.68,1.5a2.79,2.79,0,0,0,.45.63l.11.09,0,.05.06,0,0,0,.06,0h0a2,2,0,0,0,.53.17h0a2.22,2.22,0,0,0,.63,0,1.89,1.89,0,0,0,1.77-1.32,11.41,11.41,0,0,0,.31-1.73.48.48,0,0,1,.1-.23,1.28,1.28,0,0,0,.25-.68A.51.51,0,0,0,520.46,285.13Z" fill="#263238"/><path d="M515.4,287l.28,4.1,2.28-.68L515.65,287A.42.42,0,0,0,515.4,287Z" fill="#f0997a"/><path d="M519.26,314.55c-.21,2.34-.11,10-.11,10-7.4,4.53-19.13-.11-19.13-.11.68-1.73,1.32-3,1.25-4.65l-1.62-9.37a19.44,19.44,0,0,0,2.67-11l8.2-1.47,6.6,1.36c1.06,1,1.06,3.42,2.57,6.26C521.52,309.06,521.42,312.29,519.26,314.55Z" fill="#ffbda7"/><path d="M552.7,315.31l1.14-1.62a.91.91,0,0,0-.89-.54c-.69,0-1.64,1.06-3.1,1.31s-3.41.09-3.3-.12,1.42-1.08,1.64-1.86-.25-1.27-1.26-.69a21.47,21.47,0,0,1-3.07,1.44c-1.56.63-2.73,1.84-3.94,1.76l-8.67-.61s-5.84-8.68-7.89-11.46c-1.71-2.31-3-3.1-6.24-3.61l.42,9.12,7.87,9.64c.84,1,1.58,2.65,3.72,2.74s9-.34,12-.55a17.44,17.44,0,0,1,2.74.28,13.37,13.37,0,0,0,4.71-.39,6.11,6.11,0,0,0,3.9-3.12C553.41,315.48,552.7,315.31,552.7,315.31Z" fill="#ffbda7"/><path d="M500,312.2l1.57-2.55a9.5,9.5,0,0,1-1.36,3.74Z" fill="#f0997a"/><path d="M520.93,313.5c2.5-2.86,1.74-5.92,0-8.31-1-1.4-4.34-6-4.34-6l-2.14-.4a30.24,30.24,0,0,1,3,5.8,15.4,15.4,0,0,0-3.26,5.58,14.16,14.16,0,0,0-7.4-5.62c-.93-2.69-1.68-5.63-1.68-5.63l-1.6.29s.36,8-1.1,12.05c-1,2.67-2.24,2.24-2.24,2.24s.9,4.7.68,6.58-1.1,3.06-2.34,7a59.33,59.33,0,0,0-1.75,7.07c3.81-.15,5.72-3.71,5.72-3.71s4.33,5.23,10.51,5.37c7,.16,8.47-3.42,8.47-3.42l-1.36-10.56Z" fill="#f0f0f0"/><path d="M503.19,299.22c-2.73.43-4.38.55-5.7,2s-5.64,11.32-5.64,11.32l-5.25-6.71c-1-1.53-.82-2.6-1.36-3.85l-3-.86c0,.17-.21.23-.82,0-1.42-.55-3.64-3.16-4.21-3.69s-.86.29-.73.95-.49,2.13-.26,3.21a4.41,4.41,0,0,0,1.51,2.78c1,1,3.56,2.3,4.55,3.66s4,6.83,5.7,9.35c2.14,3.21,4.21,4.07,5.53,3.34,2.05-1.1,4.78-6.11,7.13-9.67C502.36,308.51,503.44,305.77,503.19,299.22Z" fill="#ffbda7"/><path d="M491.85,312.59a5.79,5.79,0,0,1,1.45,3.24,4.45,4.45,0,0,0-1.13-3.86Z" fill="#f0997a"/></g></g></g></svg>