<svg xmlns="http://www.w3.org/2000/svg" xmlns:xlink="http://www.w3.org/1999/xlink" width="500" height="500" viewBox="0 0 500 500">
  <defs>
    <linearGradient id="linear-gradient" x1="0.5" y1="1" x2="0.5" gradientUnits="objectBoundingBox">
      <stop offset="0" stop-color="gray" stop-opacity="0.251"/>
      <stop offset="0.54" stop-color="gray" stop-opacity="0.122"/>
      <stop offset="1" stop-color="gray" stop-opacity="0.102"/>
    </linearGradient>
    <linearGradient id="linear-gradient-4" x1="0.5" y1="1" x2="0.5" y2="0" xlink:href="#linear-gradient"/>
    <linearGradient id="linear-gradient-12" x1="0" y1="0.5" x2="1" y2="0.5" xlink:href="#linear-gradient"/>
  </defs>
  <g id="Group_318" data-name="Group 318" transform="translate(-130 -2322)">
    <g id="Group_317" data-name="Group 317" transform="translate(130 2322)">
      <g id="Ellipse_129" data-name="Ellipse 129" fill="#fff" stroke="#62c9d5" stroke-width="27">
        <circle cx="250" cy="250" r="250" stroke="none"/>
        <circle cx="250" cy="250" r="236.5" fill="none"/>
      </g>
    </g>
    <g id="undraw_schedule_pnbk" transform="translate(180.178 2412.62)">
      <path id="Path_1541" data-name="Path 1541" d="M237.08,113.31c-23.088-.046-45.334-9.071-66.617-19.114s-42.4-21.243-65.068-26.048c-14.6-3.089-31.154-2.88-42.524,8.09C51.934,86.795,48.8,104.314,47.3,120.519c-1.125,12.181-1.629,24.975,2.711,36.137,3.016,7.752,8.158,14.147,11.8,21.539,12.664,25.714,5.149,58.44-7.047,84.663-5.723,12.277-12.428,24.061-16.745,37.068s-6.065,27.767-1.606,40.637c4.426,12.761,14.379,22.065,25.026,28.414,21.662,12.94,46.833,15.787,71.331,16.943,54.238,2.563,108.56-2,162.739-6.6,20.049-1.695,40.188-3.406,59.816-8.47,10.9-2.809,22.116-7,29.827-16.246,9.787-11.738,11.751-30.961,4.582-44.807-12.03-23.247-43.6-27.738-52.261-52.859-4.768-13.829-.72-29.637,5.262-42.937,12.836-28.506,34.982-54,35.284-85.944.206-21.94-11.39-43.383-28.655-52.984-18.1-10.077-42.733-7.6-55.35,10.97C281.02,105.166,257.468,113.352,237.08,113.31Z" transform="translate(-33.808 -66.434)" fill="#62c9d5" opacity="0.1"/>
      <path id="Path_1542" data-name="Path 1542" d="M978.395,689.859s-5.13-3.385-10.215-.977c0,0,1.565,3.018,8,2.73Z" transform="translate(-671.147 -428.551)" fill="#62c9d5"/>
      <path id="Path_1543" data-name="Path 1543" d="M989.42,692.87s1.561,5.944-2.35,9.989c0,0-2.354-2.455,0-8.457Z" transform="translate(-681.542 -431.378)" fill="#62c9d5"/>
      <path id="Path_1544" data-name="Path 1544" d="M993.032,674.005s-.38-5.059-11.792-3.381c0,0-.054,3.264,3.953,4.809S991.033,675.675,993.032,674.005Z" transform="translate(-678.755 -418.22)" fill="#62c9d5"/>
      <path id="Path_1545" data-name="Path 1545" d="M1006.505,679.11s4.83,1.553.526,12.26c0,0-3.185-.714-3.757-4.971S1004.414,680.663,1006.505,679.11Z" transform="translate(-691.527 -423.362)" fill="#62c9d5"/>
      <path id="Path_1546" data-name="Path 1546" d="M1011.261,651.427s.651-8.319-11.016-7.464c0,0-.835,7.514,8.954,9.463Z" transform="translate(-689.817 -402.851)" fill="#62c9d5"/>
      <path id="Path_1547" data-name="Path 1547" d="M1026.622,629.466s-1.6-9.426-13.262-6.616c0,0-.046,8.152,11.354,8.866Z" transform="translate(-697.467 -390.282)" fill="#62c9d5"/>
      <path id="Path_1548" data-name="Path 1548" d="M1038.76,606.475s-2.676-9.183-14.23-6.433c0,0,2.747,8.257,13.462,8.132Z" transform="translate(-703.975 -377)" fill="#62c9d5"/>
      <path id="Path_1549" data-name="Path 1549" d="M1052.215,583.4s-2.617-9.53-13.775-6.679c0,0,3.723,9.054,13.04,8.294Z" transform="translate(-712.078 -363.401)" fill="#62c9d5"/>
      <path id="Path_1550" data-name="Path 1550" d="M1062.4,558.7s-2.012-11.638-12.4-9.075c0,0,3.022,10.6,11.646,10.77Z" transform="translate(-718.813 -347.713)" fill="#62c9d5"/>
      <path id="Path_1551" data-name="Path 1551" d="M1069.39,533.3s-2.413-11.751-12.94-8.349c0,0,4.128,11.1,12.2,9.951Z" transform="translate(-722.57 -333.191)" fill="#62c9d5"/>
      <path id="Path_1552" data-name="Path 1552" d="M1075.542,505.58s-3.836-11.746-11.972-11.429c0,0,3.924,12.41,11.271,13.775Z" transform="translate(-726.718 -315.606)" fill="#62c9d5"/>
      <path id="Path_1553" data-name="Path 1553" d="M1080.235,479.569s-4.174-14.142-10.795-13.053c0,0,2.889,10.811,10.561,15.253Z" transform="translate(-730.138 -299.476)" fill="#62c9d5"/>
      <path id="Path_1554" data-name="Path 1554" d="M1082.436,452.486S1078.524,440.7,1072,440.23c0,0,2.663,11.6,10.3,15.315Z" transform="translate(-731.629 -284.197)" fill="#62c9d5"/>
      <path id="Path_1555" data-name="Path 1555" d="M1086.114,426.424s-4.88-11.8-9.183-12.064c0,0,2.116,11.613,8.766,14Z" transform="translate(-734.502 -269.126)" fill="#62c9d5"/>
      <path id="Path_1556" data-name="Path 1556" d="M1090.013,399.375S1087,386.544,1082.7,385.5c0,0,.593,10.477,6.883,14.831Z" transform="translate(-737.863 -252.313)" fill="#62c9d5"/>
      <path id="Path_1557" data-name="Path 1557" d="M1094.83,370.227s-3.156-10.21-6.65-11.767c0,0,.693,12.039,5.844,14.268Z" transform="translate(-741.055 -236.56)" fill="#62c9d5"/>
      <path id="Path_1558" data-name="Path 1558" d="M1103.682,340.448l.639-18.008s-6.52,13.587-1.119,21.184Z" transform="translate(-748.559 -215.576)" fill="#62c9d5"/>
      <path id="Path_1559" data-name="Path 1559" d="M1115.883,303.334s4.7-13.153,5.844-13.884c0,0-9.225,8.528-8.323,19.506Z" transform="translate(-755.714 -196.357)" fill="#62c9d5"/>
      <path id="Path_1560" data-name="Path 1560" d="M1024.781,661.753s8.273-1.085,8.023,10.611c0,0-7.476,1.215-9.914-8.453Z" transform="translate(-703.019 -413.235)" fill="#62c9d5"/>
      <path id="Path_1561" data-name="Path 1561" d="M1043.4,638.68s9.563-.033,8.766,11.938c0,0-8.023,1.432-10.674-9.68Z" transform="translate(-713.855 -399.809)" fill="#62c9d5"/>
      <path id="Path_1562" data-name="Path 1562" d="M1057.774,616.917s8.678-4.07,14.234,6.433c0,0-8.019,3.394-15-4.738Z" transform="translate(-722.896 -386.678)" fill="#62c9d5"/>
      <path id="Path_1563" data-name="Path 1563" d="M1070.885,592.4s8.883-4.333,14.1,5.932c0,0-9.255,3.189-14.835-4.308Z" transform="translate(-730.552 -372.32)" fill="#62c9d5"/>
      <path id="Path_1564" data-name="Path 1564" d="M1078.887,567.452s8.553-8.169,15.378.1c0,0-8.737,6.721-15.775,1.724Z" transform="translate(-735.41 -356.215)" fill="#62c9d5"/>
      <path id="Path_1565" data-name="Path 1565" d="M1085.865,540.117s8.607-8.349,15.378.384c0,0-9.659,6.858-15.683,1.369Z" transform="translate(-739.529 -340.292)" fill="#62c9d5"/>
      <path id="Path_1566" data-name="Path 1566" d="M1090.15,508.958s6.629-10.436,14.43-8.1c0,0-6.875,11.049-14.355,10.557Z" transform="translate(-742.203 -319.318)" fill="#62c9d5"/>
      <path id="Path_1567" data-name="Path 1567" d="M1094.591,482.189s6.679-13.145,12.995-10.853c0,0-4.813,10.1-13.166,13.07Z" transform="translate(-744.69 -302.162)" fill="#62c9d5"/>
      <path id="Path_1568" data-name="Path 1568" d="M1095,455.175s6.866-10.344,13.3-9.083c0,0-5.61,10.49-13.963,12.076Z" transform="translate(-744.644 -287.55)" fill="#62c9d5"/>
      <path id="Path_1569" data-name="Path 1569" d="M1097.19,426.359s5.318-11.6,9.647-11.709c0,0-2.555,11.529-9.292,13.662Z" transform="translate(-746.304 -269.295)" fill="#62c9d5"/>
      <path id="Path_1570" data-name="Path 1570" d="M1099.71,401.7s5.915-11.755,10.361-11.776c0,0-3.026,10.047-10.16,12.811Z" transform="translate(-747.772 -254.888)" fill="#62c9d5"/>
      <path id="Path_1571" data-name="Path 1571" d="M1101.85,373.268s4.425-9.726,8.085-10.828c0,0-2.212,11.855-7.6,13.408Z" transform="translate(-749.019 -238.879)" fill="#62c9d5"/>
      <path id="Path_1572" data-name="Path 1572" d="M1106.594,343.741l9.885-15.061s-2.53,14.856-11.329,17.949Z" transform="translate(-750.942 -219.211)" fill="#62c9d5"/>
      <path id="Path_1573" data-name="Path 1573" d="M1118.182,312.747s11.492-7.931,11.905-9.217c0,0-5.844,11.112-16.7,13.074Z" transform="translate(-755.742 -204.56)" fill="#62c9d5"/>
      <path id="Path_1574" data-name="Path 1574" d="M1126.067,299.379s13.2-12.686,16.563-12.669c0,0-10.882.5-16.881,11.993Z" transform="translate(-762.943 -194.761)" fill="#62c9d5"/>
      <path id="Path_1575" data-name="Path 1575" d="M1102.15,347.263l.48.063c2.479-19.41,6.095-30.89,10.181-32.3l-.159-.455C1108.324,316.073,1104.692,327.377,1102.15,347.263Z" transform="translate(-749.194 -210.991)" fill="#444053"/>
      <path id="Path_1576" data-name="Path 1576" d="M1093.42,437.286l.726.063c.15-1.812.267-3.669.346-5.514.693-16.067,1.77-30.815,3.181-41.872l-.417-.522c-1.415,11.079-2.793,26.277-3.486,42.361C1093.687,433.637,1093.57,435.482,1093.42,437.286Z" transform="translate(-744.108 -254.608)" fill="#444053"/>
      <path id="Path_1577" data-name="Path 1577" d="M959.648,589.97c.129-.058,12.915-5.765,26.185-19.385a105.369,105.369,0,0,0,19.139-27.133c6.132-12.494,9.872-27.847,11.129-42.761l-.755.355c-2.818,33.474-18.058,56.353-30.18,68.809-13.141,13.5-25.78,19.152-25.906,19.2Z" transform="translate(-665.95 -319.419)" fill="#444053"/>
      <path id="Path_1578" data-name="Path 1578" d="M425.566,115.31H115.839c-1.524,0-2.759,1.6-2.759,3.573v10.411H428.325V118.883C428.325,116.91,427.09,115.31,425.566,115.31Z" transform="translate(-79.99 -94.908)" fill="#3f3d56"/>
      <path id="Path_1579" data-name="Path 1579" d="M113.08,148.81V383.087c0,3.979,2.491,7.2,5.564,7.2H422.761c3.073,0,5.563-3.226,5.563-7.2V148.81Z" transform="translate(-79.99 -114.424)" fill="#fff"/>
      <circle id="Ellipse_145" data-name="Ellipse 145" cx="1.67" cy="1.67" r="1.67" transform="translate(37.891 25.616)" fill="#fa5959" opacity="0.8"/>
      <circle id="Ellipse_146" data-name="Ellipse 146" cx="1.67" cy="1.67" r="1.67" transform="translate(42.483 25.616)" fill="#fed253" opacity="0.8"/>
      <circle id="Ellipse_147" data-name="Ellipse 147" cx="1.67" cy="1.67" r="1.67" transform="translate(47.074 25.616)" fill="#8ccf4d" opacity="0.8"/>
      <g id="Group_166" data-name="Group 166" transform="translate(48.744 48.574)" opacity="0.3">
        <rect id="Rectangle_440" data-name="Rectangle 440" width="284.355" height="212.888" fill="none" stroke="#3f3d56" stroke-miterlimit="10" stroke-width="1"/>
        <rect id="Rectangle_441" data-name="Rectangle 441" width="185.842" height="212.888" transform="translate(49.257)" fill="none" stroke="#3f3d56" stroke-miterlimit="10" stroke-width="1"/>
        <rect id="Rectangle_442" data-name="Rectangle 442" width="180.329" height="212.888" transform="translate(52.013)" fill="none" stroke="#3f3d56" stroke-miterlimit="10" stroke-width="1"/>
        <rect id="Rectangle_443" data-name="Rectangle 443" width="81.816" height="212.888" transform="translate(101.27)" fill="none" stroke="#3f3d56" stroke-miterlimit="10" stroke-width="1"/>
        <line id="Line_47" data-name="Line 47" y2="212.888" transform="translate(142.178)" fill="none" stroke="#3f3d56" stroke-miterlimit="10" stroke-width="1"/>
        <rect id="Rectangle_444" data-name="Rectangle 444" width="284.355" height="151.109" transform="translate(0 30.89)" fill="none" stroke="#3f3d56" stroke-miterlimit="10" stroke-width="1"/>
        <rect id="Rectangle_445" data-name="Rectangle 445" width="284.355" height="90.165" transform="translate(0 61.362)" fill="none" stroke="#3f3d56" stroke-miterlimit="10" stroke-width="1"/>
        <rect id="Rectangle_446" data-name="Rectangle 446" width="284.355" height="29.22" transform="translate(0 91.834)" fill="none" stroke="#3f3d56" stroke-miterlimit="10" stroke-width="1"/>
      </g>
      <rect id="Rectangle_447" data-name="Rectangle 447" width="29.637" height="10.853" transform="translate(85.18 60.471)" fill="#3f3d56" opacity="0.1"/>
      <rect id="Rectangle_448" data-name="Rectangle 448" width="22.124" height="10.853" transform="translate(61.475 90.108)" fill="#3f3d56" opacity="0.1"/>
      <rect id="Rectangle_449" data-name="Rectangle 449" width="29.637" height="10.853" transform="translate(123.108 60.471)" fill="#3f3d56" opacity="0.1"/>
      <rect id="Rectangle_450" data-name="Rectangle 450" width="29.637" height="10.853" transform="translate(158.727 60.471)" fill="#3f3d56" opacity="0.1"/>
      <rect id="Rectangle_451" data-name="Rectangle 451" width="29.637" height="10.853" transform="translate(191.707 60.471)" fill="#3f3d56" opacity="0.1"/>
      <rect id="Rectangle_452" data-name="Rectangle 452" width="29.637" height="10.853" transform="translate(228.646 60.471)" fill="#3f3d56" opacity="0.1"/>
      <rect id="Rectangle_453" data-name="Rectangle 453" width="29.637" height="10.853" transform="translate(266.244 60.471)" fill="#3f3d56" opacity="0.1"/>
      <rect id="Rectangle_454" data-name="Rectangle 454" width="29.637" height="10.853" transform="translate(294.487 60.471)" fill="#3f3d56" opacity="0.1"/>
      <rect id="Rectangle_455" data-name="Rectangle 455" width="19.256" height="18.642" transform="translate(132.324 119.308)" fill="url(#linear-gradient)"/>
      <rect id="Rectangle_456" data-name="Rectangle 456" width="18.592" height="18" transform="translate(132.64 119.629)" fill="#7cfcff"/>
      <rect id="Rectangle_457" data-name="Rectangle 457" width="19.256" height="18.642" transform="translate(163.86 115.267)" fill="url(#linear-gradient)"/>
      <rect id="Rectangle_458" data-name="Rectangle 458" width="18.592" height="18" transform="translate(164.187 115.588)" fill="#ffffa5"/>
      <rect id="Rectangle_459" data-name="Rectangle 459" width="19.256" height="18.642" transform="translate(224.582 178.716)" fill="url(#linear-gradient)"/>
      <rect id="Rectangle_460" data-name="Rectangle 460" width="18.592" height="18" transform="translate(224.932 179.037)" fill="#ffffa5"/>
      <rect id="Rectangle_461" data-name="Rectangle 461" width="19.256" height="18.642" transform="translate(89.779 86.084)" fill="url(#linear-gradient-4)"/>
      <rect id="Rectangle_462" data-name="Rectangle 462" width="18.592" height="18" transform="translate(90.075 86.406)" fill="#ffffa5"/>
      <rect id="Rectangle_463" data-name="Rectangle 463" width="19.256" height="18.642" transform="translate(120.193 112.8)" fill="url(#linear-gradient-4)"/>
      <rect id="Rectangle_464" data-name="Rectangle 464" width="18.592" height="18" transform="translate(120.501 113.121)" fill="#ff69b4"/>
      <rect id="Rectangle_465" data-name="Rectangle 465" width="19.256" height="18.642" transform="translate(242.486 178.582)" fill="url(#linear-gradient)"/>
      <rect id="Rectangle_466" data-name="Rectangle 466" width="18.592" height="18" transform="translate(242.843 178.904)" fill="#7cfcff"/>
      <rect id="Rectangle_467" data-name="Rectangle 467" width="19.256" height="18.642" transform="translate(269.363 86.331)" fill="url(#linear-gradient)"/>
      <rect id="Rectangle_468" data-name="Rectangle 468" width="18.592" height="18" transform="translate(269.73 86.652)" fill="#7cfcff"/>
      <rect id="Rectangle_469" data-name="Rectangle 469" width="19.256" height="18.642" transform="translate(267.704 145.606)" fill="url(#linear-gradient)"/>
      <rect id="Rectangle_470" data-name="Rectangle 470" width="18.592" height="18" transform="translate(268.07 145.927)" fill="#7cfcff"/>
      <rect id="Rectangle_471" data-name="Rectangle 471" width="19.256" height="18.642" transform="translate(279.317 149.78)" fill="url(#linear-gradient)"/>
      <rect id="Rectangle_472" data-name="Rectangle 472" width="18.592" height="18" transform="translate(279.688 150.101)" fill="#7cfcff"/>
      <rect id="Rectangle_473" data-name="Rectangle 473" width="19.256" height="18.642" transform="translate(230.355 172.075)" fill="url(#linear-gradient-4)"/>
      <rect id="Rectangle_474" data-name="Rectangle 474" width="18.592" height="18" transform="translate(230.704 172.396)" fill="#ff69b4"/>
      <rect id="Rectangle_475" data-name="Rectangle 475" width="19.256" height="18.642" transform="translate(232.014 115.722)" fill="url(#linear-gradient-4)"/>
      <rect id="Rectangle_476" data-name="Rectangle 476" width="18.592" height="18" transform="translate(232.364 116.043)" fill="#ff69b4"/>
      <rect id="Rectangle_477" data-name="Rectangle 477" width="22.124" height="10.853" transform="translate(61.475 119.328)" fill="#3f3d56" opacity="0.1"/>
      <rect id="Rectangle_478" data-name="Rectangle 478" width="22.124" height="10.853" transform="translate(61.475 149.801)" fill="#3f3d56" opacity="0.1"/>
      <rect id="Rectangle_479" data-name="Rectangle 479" width="22.124" height="10.853" transform="translate(61.475 180.273)" fill="#3f3d56" opacity="0.1"/>
      <rect id="Rectangle_480" data-name="Rectangle 480" width="22.124" height="10.853" transform="translate(61.475 210.745)" fill="#3f3d56" opacity="0.1"/>
      <rect id="Rectangle_481" data-name="Rectangle 481" width="22.124" height="10.853" transform="translate(61.475 241.217)" fill="#3f3d56" opacity="0.1"/>
      <path id="Path_1580" data-name="Path 1580" d="M214.083,369.865c.618-.392.371-1.444-.263-1.807a3.1,3.1,0,0,0-2.137-.1.872.872,0,0,0-.459-.918v-.159a1.141,1.141,0,0,0-.25-1.62,3.267,3.267,0,0,0-1.987-.351,2.647,2.647,0,0,0-.835-2.254.7.7,0,0,0-.459-.221c-.417,0-.534.534-.564.931a17.626,17.626,0,0,1-.513,3.085l-12.974,21.706c-1.444,2.087,3.043-4.174,1.6-2.066a18.364,18.364,0,0,1-2.555,3.168,12.589,12.589,0,0,1-2.884,1.933,3.4,3.4,0,0,1-1.97-.559,7.931,7.931,0,0,1-1.9-1.874,36.994,36.994,0,0,1-3.06-4.546,5.89,5.89,0,0,1-.7-1.624,14.984,14.984,0,0,0-.355-2.726,4.453,4.453,0,0,0-.559-.885l-.9-1.19v-.054c-.1-1.762-1.532-3.122-2.868-4.283a7.726,7.726,0,0,0-3.865-2.221c-.8-.1-1.624.05-2.425-.05-.655-.083-1.277-.33-1.929-.438a8.181,8.181,0,0,0-1.891-.038l-.267-.246a7.48,7.48,0,0,0,3.377-2.839c.618-1,.956-2.15,1.528-3.177.7-1.252,1.732-2.288,2.5-3.49a12.894,12.894,0,0,0,1.453-9.843,23.811,23.811,0,0,0-4.592-9.033c-4.007-5.184-10.728-7.1-17.056-6.094q-.626.1-1.252.238a16.08,16.08,0,0,0-3.1.989,7.931,7.931,0,0,0-3.385,2.642,6.1,6.1,0,0,0-.589,1.094,6.44,6.44,0,0,0-.284.9,9.354,9.354,0,0,0-.154,2.822c.025.321.058.643.1.964l.063.484c.042.321.088.643.134.964.067.484.129.968.175,1.444a9.183,9.183,0,0,1,.054,1.014v.255a4.142,4.142,0,0,1-.113.747,3.128,3.128,0,0,1-.125.4,4.942,4.942,0,0,1-.589,1.081,13.661,13.661,0,0,1-1.056,1.3l-.363.417c-.121.138-.238.28-.359.417a15.3,15.3,0,0,0-1.307,1.766,8.587,8.587,0,0,0-.513.968,6.92,6.92,0,0,0-.3.776,6.429,6.429,0,0,0-.225,1.085,1.028,1.028,0,0,1-.025.276v.547a4.792,4.792,0,0,0,.058.543,3.856,3.856,0,0,0,.125.526,3.569,3.569,0,0,0,.2.509c0,.046.042.092.067.138l.067.138c.046.092.092.18.134.271a1.778,1.778,0,0,1,.138.417v.3a1.707,1.707,0,0,1-.618,1.064c-.083.079-.167.15-.255.225l-.134.109-.271.213-.259.209a5.256,5.256,0,0,0-.63.626,23.321,23.321,0,0,0-6.988.685,9.451,9.451,0,0,1-2.5.455,1.252,1.252,0,0,1-1.085-.455,1.6,1.6,0,0,1-.113-1,8.641,8.641,0,0,0-.668-4.091,2.275,2.275,0,0,0-.668-.973.943.943,0,0,0-1.11-.058,10.407,10.407,0,0,1-.288,6.959A22.481,22.481,0,0,1,124.7,369.4c-.952,1.624-1.486,3.481-2.333,5.164.948,3.21.735,6.637,1.252,9.951a45.751,45.751,0,0,0,2.621,8.966c.835,2.208,1.7,4.512,3.473,6.065a3.164,3.164,0,0,0,2.15.935,3.757,3.757,0,0,0,1.67-.634,6.544,6.544,0,0,0,1.415-1.039,3.657,3.657,0,0,0,.417-.555,2.167,2.167,0,0,0,.313.785c1.019-2.2,2.137-4.341,3.339-6.441a5.521,5.521,0,0,0,1-.685.9.9,0,0,0,.058.225c-.054.2-.1.417-.159.605s-.117.388-.175.576-.088.28-.134.417-.113.334-.175.5-.134.363-.2.543-.1.259-.15.384c-.129.317-.263.626-.417.935a2.924,2.924,0,0,0,.359.146l.079.025a2.926,2.926,0,0,0,.33.083h.121a2.347,2.347,0,0,0,.246.025h.363a3.573,3.573,0,0,0,.881-.15l.163.668a23.856,23.856,0,0,1,.8,4.592,35.617,35.617,0,0,0,.113,5.26c.171.9.518,1.757.643,2.659a11.333,11.333,0,0,1-.046,2.551q-.292,3.072-.584,6.149a5.26,5.26,0,0,1-.526,2.171c-.288.5-.756,1.073-.463,1.57a10.433,10.433,0,0,1,1.465-.28c-.18.651-.342,1.307-.5,1.966a3.465,3.465,0,0,0-.117,1.515,10.173,10.173,0,0,1,.451,1.39,4.685,4.685,0,0,1-.735,2.112c-.735,1.778.046,3.782.835,5.543l2.3,5.226,1.891,4.287c.559,1.252,1.123,2.546,1.67,3.832a124.4,124.4,0,0,1,6.019,18.05,2.154,2.154,0,0,0,.313.785c.317.417.9.551,1.369.81a2.561,2.561,0,0,1,.284,4.078c.263,3.139-2.087,6.174-3.3,9.079-2.788,6.679-2.283,14.218-3.239,21.4l1.081-.63a1.34,1.34,0,0,1,.351.23q-.038.2-.088.417a6.541,6.541,0,0,1-.693,1.741c-.63,1.081-1.595,2.045-1.741,3.289a20.548,20.548,0,0,0,.138,2.258v.209c-.1-.092-.242-.083-.459.088a2.692,2.692,0,0,0-.68,1.281c-.188.538-.338,1.085-.488,1.632l-.559,1.928a22.422,22.422,0,0,1-1.131,3.4,14.578,14.578,0,0,0-1,2.3,7.151,7.151,0,0,0-.171,1.979,5.931,5.931,0,0,0,.271,1.878,4.667,4.667,0,0,0,2.734,2.592,12.839,12.839,0,0,0,3.8.718,3.192,3.192,0,0,0,1-.029,2.709,2.709,0,0,0,.964-.505,8.044,8.044,0,0,0,2.83-5.844,8.628,8.628,0,0,0-.238-1.327c.109-2.375-.238-4.763-.058-7.13.038.271.075.538.117.806l.417,2.659a.555.555,0,0,0-.142-.25,6.111,6.111,0,0,0-.159,3.043,18.159,18.159,0,0,0,.877,2.951l.568,1.586a2.842,2.842,0,0,0,2.655,2.242,21.8,21.8,0,0,0,4.792.835,1.085,1.085,0,0,0,.63-.117,3.071,3.071,0,0,0,.284-.238,2.808,2.808,0,0,1,.459-.267,3.03,3.03,0,0,0,1.469-1.741,2.747,2.747,0,0,0-.271-2.25,5.262,5.262,0,0,0-.647-.785l-2.855-3.026a17.983,17.983,0,0,0-1.394-1.478.522.522,0,0,0-.459-.15,14.725,14.725,0,0,1-.543-6.324c.042-.634.388-1.949.526-3.031a4.889,4.889,0,0,0,1.515-.835,2.288,2.288,0,0,0,.872-1.3c1.44-7.355,3.757-14.485,5.944-21.652.217-.705.417-1.415.639-2.121.092-.3.175-.605.263-.91s.146-.493.217-.739c.117-.417.234-.835.346-1.252.033-.113.063-.225.1-.338a.4.4,0,0,1,0-.067c.138-.514.271-1.027.417-1.54.05-.2.1-.392.154-.593.163-.651.326-1.311.48-1.966a2.17,2.17,0,0,0,.058-.275,1.165,1.165,0,0,0-.046-.7h0a.906.906,0,0,0-.163-.234c-.046-.054-.1-.109-.146-.159a2.291,2.291,0,0,1-.159-.18,1.616,1.616,0,0,1-.292-.547v-.6c0-.184-.025-.417-.038-.635a6.679,6.679,0,0,1,.188-.835c.05-.163.1-.326.154-.488s.125-.417.192-.605a1.532,1.532,0,0,0,.38-1.031q.388-.969.856-1.9a5.727,5.727,0,0,0,.764-2.054,8.146,8.146,0,0,0-.242-1.949c-.417-2.713.835-5.356,1.757-7.931a35.177,35.177,0,0,0,1.553-5.844,12.418,12.418,0,0,1,1.273-4.441,6.612,6.612,0,0,0,.685-1.186,4.668,4.668,0,0,0,.184-1.344A14.831,14.831,0,0,1,181.261,435a3.38,3.38,0,0,0,.342-1.039.383.383,0,0,0,0-.071v-.1l.213-.033a28.254,28.254,0,0,0,.48-7.18,10.949,10.949,0,0,0-3.669-6.929h.042a2.289,2.289,0,0,0,1.052-2.037,3.97,3.97,0,0,0-1.478-3.1,1.482,1.482,0,0,1-.5-.518,1.574,1.574,0,0,1-.063-.672,3.435,3.435,0,0,0-2.116-3.189.8.8,0,0,1-.346-.2.835.835,0,0,1-.092-.609,3.728,3.728,0,0,0-1.8-3.406,5.878,5.878,0,0,0,.079-2.7,1.989,1.989,0,0,0-1.979-1.544c.735-2-.309-4.233-.033-6.349.121-.91.484-1.782.53-2.7a5.518,5.518,0,0,1,.242-2.455c.4-.726,1.361-1.294,1.115-2.087-.1-.338-.417-.572-.564-.9s.438-.835.739-.651c.142-.109.284-.221.417-.338a6.724,6.724,0,0,0,.25,1.252c.2.685.518,1.327.73,2.008a16.33,16.33,0,0,0,.943,3.118c.835,1.524,2.6,2.279,3.794,3.544.7.739,1.206,1.67,1.928,2.371a10.513,10.513,0,0,0,1.795,1.348l3.857,2.5a4.434,4.434,0,0,0,1.319.655,2.25,2.25,0,0,0,2.651-1.908,2.6,2.6,0,0,1-.948-.589.369.369,0,0,0,.163-.025,6.082,6.082,0,0,0,2.475-1.315c2.747-2.187,4.721-5.172,6.65-8.106,2.02-3.076,11.742-11.216,11.742-11.216v-3.3a11.871,11.871,0,0,0,3.239-2.759,3.577,3.577,0,0,0,.814-2.087A1.858,1.858,0,0,0,214.083,369.865Zm-80.856,7.91q-.28,1.8-.689,3.573a33.959,33.959,0,0,1-1.152,4.036l-.15.417c-.138-.259-.276-.513-.417-.776-.313-.655-.568-1.336-.835-2.016l-1.611-4.341a2.033,2.033,0,0,1-.1-1.732,1.937,1.937,0,0,1,.918-.689,18.152,18.152,0,0,1,3.531-1.2,9.663,9.663,0,0,0,1.135-.3,17.113,17.113,0,0,0-.626,3.026Zm1.782-5.427a.647.647,0,0,1,0-.63,1.436,1.436,0,0,1,.417-.292l.121-.083c-.167.346-.355.68-.538,1.018Zm3.339-4.721a8.732,8.732,0,0,0-1.286,1.319,13.778,13.778,0,0,0-1.1,1.7,1.252,1.252,0,0,0-.459-1.252,2.662,2.662,0,0,1-.417-.284.877.877,0,0,1,.175-1.227,2.546,2.546,0,0,1,1.3-.442l1.924-.284c-.058.163-.1.321-.138.48ZM156.365,507.32a6.986,6.986,0,0,0-.113-1.724h.71C156.766,506.151,156.566,506.739,156.365,507.32Z" transform="translate(-85.402 -223.316)" fill="url(#linear-gradient-12)"/>
      <path id="Path_1581" data-name="Path 1581" d="M170.15,338.976c-3.339.538-7.055,1.824-8.349,4.955-.964,2.367-.217,5.03.029,7.572a5.844,5.844,0,0,1-.071,2.016,7.065,7.065,0,0,1-1.77,2.772,14.7,14.7,0,0,0-2.542,3.565,5.182,5.182,0,0,0-.171,4.258,3.068,3.068,0,0,1,.417,1.123c.042.868-.868,1.419-1.536,1.974-2.5,2.087-2.4,5.844-2.421,9.112A46.213,46.213,0,0,1,149.4,395.6a5.89,5.89,0,0,0,6.583-.86,21.933,21.933,0,0,1-1.494,4.308c2.121,1.027,4.679-.66,5.744-2.763s1.19-4.55,1.945-6.783,2.087-4.174,2.676-6.424a5.977,5.977,0,0,1,.76-2.154,5.668,5.668,0,0,1,1.336-1.14,13.036,13.036,0,0,0,4.721-6.4,25.99,25.99,0,0,0,7.894.906,8.774,8.774,0,0,0,6.75-3.7c.618-1,.952-2.146,1.524-3.172.7-1.252,1.732-2.288,2.5-3.486a12.89,12.89,0,0,0,1.448-9.835,23.467,23.467,0,0,0-4.592-9.021C183.2,339.886,176.479,337.962,170.15,338.976Z" transform="translate(-101.149 -225.057)" fill="#303d5c"/>
      <path id="Path_1582" data-name="Path 1582" d="M145.542,431.7c-.188,1.194-.417,2.388-.685,3.569a34.926,34.926,0,0,1-1.152,4.032,3.848,3.848,0,0,0-.363,1.853,3.37,3.37,0,0,0,.447,1.1c1.524,2.709,3.586,5.326,3.757,8.432a4.505,4.505,0,0,0,.417,2.25q1.766-3.8,3.9-7.414c1.486-2.5,3.139-5.068,3.565-7.965a14.923,14.923,0,0,0-.054-4.091,8.871,8.871,0,0,0-1.465-4.3c-1.01-1.319-3.757-3.31-5.564-2.9C146.243,426.753,145.809,430,145.542,431.7Z" transform="translate(-97.616 -276.034)" fill="#62c9d5"/>
      <path id="Path_1583" data-name="Path 1583" d="M277.391,432.587a17.97,17.97,0,0,0,5.614-3.139,18.363,18.363,0,0,0,2.555-3.168l4.7-6.775a12.38,12.38,0,0,0,2.5-5.243,17.265,17.265,0,0,0,4.688-10.661c.033-.4.167-.918.564-.931a.7.7,0,0,1,.459.221,2.643,2.643,0,0,1,.835,2.25,3.1,3.1,0,0,1,1.987.351c.559.4.71,1.394.109,1.724a.86.86,0,0,1,.6.973,3.131,3.131,0,0,1,2.141.1c.634.359.877,1.411.263,1.8a1.862,1.862,0,0,1,1.19,1.782,3.539,3.539,0,0,1-.814,2.087c-1.8,2.421-4.984,3.4-7.075,5.577A16.85,16.85,0,0,0,295.862,422l-6.057,9.217c-1.924,2.922-3.9,5.915-6.645,8.094a6.082,6.082,0,0,1-2.475,1.315,2.726,2.726,0,0,1-2.6-.722,4.225,4.225,0,0,1-.756-2.592C277.228,435.755,277.5,434.152,277.391,432.587Z" transform="translate(-196.933 -262.316)" fill="#ee8e9e"/>
      <path id="Path_1584" data-name="Path 1584" d="M213.665,773.671a5.049,5.049,0,0,1,.647.785,2.738,2.738,0,0,1,.271,2.246,3,3,0,0,1-1.465,1.737,2.68,2.68,0,0,0-.463.267,2.648,2.648,0,0,1-.284.242,1.157,1.157,0,0,1-.63.117,22.276,22.276,0,0,1-4.788-.835,3.858,3.858,0,0,1-1.979-.927,3.787,3.787,0,0,1-.676-1.315l-.568-1.582a18.344,18.344,0,0,1-.872-2.947,6.044,6.044,0,0,1,.159-3.039.956.956,0,0,1,.209.622,6.8,6.8,0,0,0,1.219,2.947,2.992,2.992,0,0,0,.476.6,3.03,3.03,0,0,0,1.423.6,17.647,17.647,0,0,0,3.031.388.835.835,0,0,0,.417-.05.748.748,0,0,0,.346-.417,1.845,1.845,0,0,0,0-1.252c-.276-.772-1.031-1.277-1.39-2.012-.271-.543.1-1.14.651-.68a17.367,17.367,0,0,1,1.4,1.478Z" transform="translate(-132.22 -475.391)" fill="#303d5c"/>
      <path id="Path_1585" data-name="Path 1585" d="M208.115,746.688c-.163,2.55-.276,5.305,1.119,7.447.505.768,1.177,1.415,1.749,2.137a2.546,2.546,0,0,1,.626,1.29,1.993,1.993,0,0,1-1.72,1.912,5.554,5.554,0,0,1-2.759-.417,6.644,6.644,0,0,1-2.342-1.1c-1.215-1.027-1.536-2.738-1.778-4.308L202.442,750a8.724,8.724,0,0,1,.518-5.51l.935-2.738a1.252,1.252,0,0,1,.417-.68,1.161,1.161,0,0,1,.714-.134c.893.046,3.152.372,3.586,1.319C208.979,743.077,208.177,745.707,208.115,746.688Z" transform="translate(-131.917 -459.374)" fill="#ee8e9e"/>
      <path id="Path_1586" data-name="Path 1586" d="M208.115,746.688c-.163,2.55-.276,5.305,1.119,7.447.505.768,1.177,1.415,1.749,2.137a2.546,2.546,0,0,1,.626,1.29,1.993,1.993,0,0,1-1.72,1.912,5.554,5.554,0,0,1-2.759-.417,6.644,6.644,0,0,1-2.342-1.1c-1.215-1.027-1.536-2.738-1.778-4.308L202.442,750a8.724,8.724,0,0,1,.518-5.51l.935-2.738a1.252,1.252,0,0,1,.417-.68,1.161,1.161,0,0,1,.714-.134c.893.046,3.152.372,3.586,1.319C208.979,743.077,208.177,745.707,208.115,746.688Z" transform="translate(-131.917 -459.374)" opacity="0.05"/>
      <path id="Path_1587" data-name="Path 1587" d="M229.763,564.778a.467.467,0,0,1,0,.071,3.127,3.127,0,0,1-.342,1.031A14.827,14.827,0,0,0,228.1,571.2a4.667,4.667,0,0,1-.184,1.344,6.682,6.682,0,0,1-.685,1.181,12.47,12.47,0,0,0-1.273,4.437,35.068,35.068,0,0,1-1.553,5.819c-.931,2.58-2.183,5.218-1.757,7.931a8.149,8.149,0,0,1,.242,1.949,5.66,5.66,0,0,1-.764,2.049,19.553,19.553,0,0,0-.835,1.9c-.271.693-.513,1.4-.726,2.12a2.88,2.88,0,0,0,.159,2.609,3.181,3.181,0,0,1,.472.572,1.532,1.532,0,0,1,0,.985q-.5,2.087-1.06,4.174c-.292,1.085-.6,2.162-.918,3.239-2.346,7.877-5.009,15.674-6.579,23.743-.225,1.16-1.716,1.991-2.868,2.246a3.757,3.757,0,0,1-3.3-.881c-.079-.071-.154-.15-.225-.225-1.211-1.3-1.39-3.3-1.3-5.105.417-8.3,4.592-15.9,6.579-23.973a46.377,46.377,0,0,0,1.294-8.9c.463-10.018.651-20.613-2.183-30.243-.589-2-1.286-4.266-.225-6.061a6.034,6.034,0,0,1,3.135-2.292,20.166,20.166,0,0,1,15.637.418,4.861,4.861,0,0,1-.025.6,6.161,6.161,0,0,0,.317,2.763A3.511,3.511,0,0,1,229.763,564.778Z" transform="translate(-148.333 -353.065)" fill="#303d5c"/>
      <path id="Path_1588" data-name="Path 1588" d="M178.236,756.635l-.53,1.928a21.854,21.854,0,0,1-1.127,3.394,14.578,14.578,0,0,0-1,2.3,7.153,7.153,0,0,0-.171,1.979,5.907,5.907,0,0,0,.271,1.874,4.654,4.654,0,0,0,2.73,2.588,12.723,12.723,0,0,0,3.8.714,3.072,3.072,0,0,0,1-.025,2.709,2.709,0,0,0,.964-.505,8.025,8.025,0,0,0,2.826-5.844,7.178,7.178,0,0,0-.3-1.494c-.138-.184-1.469.568-.9,1.2.835.927-1.624.447-2.876.367a10.824,10.824,0,0,1-1.632-.267l-2.029-.418c-.664-.142-1.428-.371-1.67-1.006s.276-1.394.676-2.012a13.162,13.162,0,0,0,1.582-5.585c.046-.38.522-2.847-.459-2.087a2.767,2.767,0,0,0-.68,1.281C178.533,755.542,178.382,756.089,178.236,756.635Z" transform="translate(-116.293 -466.754)" fill="#303d5c"/>
      <path id="Path_1589" data-name="Path 1589" d="M220.671,655.334a2.842,2.842,0,0,1-.154-2.609c.092-.326.2-.647.3-.968l-7.965-2.7c-.029.718-.063,1.428-.1,2.137a46.133,46.133,0,0,1-1.29,8.9c-1.991,8.065-6.17,15.666-6.579,23.965-.1,1.912.109,4.049,1.524,5.335a3.757,3.757,0,0,0,3.294.885c1.156-.255,2.642-1.089,2.872-2.25,1.578-8.069,4.229-15.862,6.579-23.747q1.1-3.669,1.979-7.4a1.519,1.519,0,0,0,0-.981,2.919,2.919,0,0,0-.468-.576Z" transform="translate(-133.465 -405.856)" opacity="0.05"/>
      <path id="Path_1590" data-name="Path 1590" d="M183.264,735.258c-.63,1.085-1.59,2.045-1.737,3.289a20.54,20.54,0,0,0,.138,2.254,7.326,7.326,0,0,1-.33,1.841q-1.165,4.2-2.68,8.29a2.275,2.275,0,0,0-.213,1.127c.1.639.722,1.06,1.315,1.315a14.021,14.021,0,0,0,6.1.672,3.2,3.2,0,0,0,1.716-.417,2.971,2.971,0,0,0,.968-2.4c.142-2.588-.3-5.189,0-7.76.1-.939.3-1.862.447-2.793a8.129,8.129,0,0,0-.117-3.895,8.928,8.928,0,0,0-1.461-2.45,7.7,7.7,0,0,0-2.025-2.02c-.242-.142-.931-.584-1.177-.309-.125.142-.071.522-.088.7a7.317,7.317,0,0,1-.142.8,6.61,6.61,0,0,1-.714,1.753Z" transform="translate(-118.065 -454.126)" fill="#ee8e9e"/>
      <path id="Path_1591" data-name="Path 1591" d="M213.96,567.98a2.191,2.191,0,0,0-.146,1.816c.263,1.1.705,2.158,1.064,3.231a44.957,44.957,0,0,1,1.369,5.877c.334,1.795,1.044,3.794.756,5.6a39.915,39.915,0,0,1,4.229,13.278c.163,1.19-2.48,2.726-2.429,3.924.1,2.388,2,2.58.6,4.483-.071.1.526,2.229.447,2.321-.572.689-1.3,1.252-1.912,1.883a14.472,14.472,0,0,0-2.016,2.951c-3.632,6.562-8.883,14-7.263,21.326a1.3,1.3,0,0,1-.693,1.315,3.59,3.59,0,0,1-1.536.355h-.25c-1.211-1.3-1.39-3.3-1.3-5.105.417-8.3,4.592-15.9,6.579-23.973a46.377,46.377,0,0,0,1.294-8.9c.463-10.018.651-20.613-2.183-30.243-.589-2-1.286-4.266-.225-6.061a6.033,6.033,0,0,1,3.135-2.292,20.167,20.167,0,0,1,15.637.417,4.859,4.859,0,0,1-.025.6,6.161,6.161,0,0,0,.317,2.763,3.511,3.511,0,0,1,.313,1.2s.142-1.615.138-1.59c-3.235.463-6.65,2.58-9.914,3.06a23.133,23.133,0,0,0-4.972,1.094A2.238,2.238,0,0,0,213.96,567.98Z" transform="translate(-148.291 -353.035)" opacity="0.05"/>
      <path id="Path_1592" data-name="Path 1592" d="M170.088,534.606q-.655,2.087-1.156,4.216a3.527,3.527,0,0,0-.117,1.515,10.115,10.115,0,0,1,.451,1.386,4.685,4.685,0,0,1-.735,2.112c-.735,1.774.05,3.778.835,5.535l2.3,5.218,1.9,4.283q.845,1.91,1.67,3.828a124.119,124.119,0,0,1,6.015,18.029,2.22,2.22,0,0,0,.309.785c.321.418.9.551,1.369.81a2.552,2.552,0,0,1,.284,4.074c.267,3.135-2.087,6.161-3.294,9.067-2.788,6.679-2.283,14.193-3.239,21.372l1.081-.635c1.039.476,1,1.949,1.561,2.947.835,1.5,2.889,1.707,4.592,1.595a3.555,3.555,0,0,0,1.532-.355,1.294,1.294,0,0,0,.693-1.315c-1.615-7.326,3.632-14.764,7.267-21.326a14.455,14.455,0,0,1,2.012-2.951c.618-.651,1.34-1.2,1.916-1.883,1.6-1.924,1.807-4.638,1.7-7.142a39.982,39.982,0,0,0-4.55-16.868c.292-1.8-.417-3.8-.751-5.6a43.948,43.948,0,0,0-1.382-5.873c-.359-1.081-.8-2.133-1.064-3.235a2.207,2.207,0,0,1,.146-1.816,2.249,2.249,0,0,1,1.027-.664,23.136,23.136,0,0,1,4.972-1.094l11.2-1.607a28.425,28.425,0,0,0,.476-7.176,11.033,11.033,0,0,0-7.9-9.229,1.694,1.694,0,0,0-1.461.1A58.274,58.274,0,0,0,170.088,534.606Z" transform="translate(-112.123 -337.436)" fill="#303d5c"/>
      <path id="Path_1593" data-name="Path 1593" d="M185.792,386.313a5.5,5.5,0,0,1-.488,3.206,5.033,5.033,0,0,1-1.252,1.407,9.6,9.6,0,0,1-3.69,1.833,4,4,0,0,0-2.208.964c-.785.948-.259,2.384.417,3.419a8.855,8.855,0,0,0,4.838,4c1.67.451,3.41.175,5.1.467,1.223.213,2.375.718,3.582,1.006A10.578,10.578,0,0,0,201.8,399.9c-1.795-1.378-3.657-2.843-4.592-4.9a6.958,6.958,0,0,1-.351-4.692c.417-1.528,1.4-3.014,1.1-4.592s-1.837-2.634-3.339-3.16a21.791,21.791,0,0,0-4.233-.839c-.789-.108-5.8-1.215-6.111-.668-.175.309.864,2.137.993,2.542a9.668,9.668,0,0,1,.526,2.722Z" transform="translate(-117.671 -249.632)" fill="#ee8e9e"/>
      <circle id="Ellipse_148" data-name="Ellipse 148" cx="10.16" cy="10.16" r="10.16" transform="translate(64.276 120.017)" fill="#ee8e9e"/>
      <path id="Path_1594" data-name="Path 1594" d="M170.828,413.776l6.892,1.16a25.784,25.784,0,0,0,5.147.518,14.34,14.34,0,0,1,2.839,0c.651.109,1.273.355,1.924.438.806.1,1.624-.054,2.429.05a7.755,7.755,0,0,1,3.861,2.216c1.332,1.16,2.763,2.5,2.868,4.279a1.3,1.3,0,0,1-.083.593,1.74,1.74,0,0,1-.513.534,16.8,16.8,0,0,0-2.876,3.957,15.248,15.248,0,0,1-3.423,3.694c-.3-.192-.872.313-.743.647s.459.564.568.9c.246.781-.718,1.357-1.119,2.087a5.572,5.572,0,0,0-.238,2.45c-.05.914-.417,1.787-.53,2.692-.28,2.116.768,4.345.029,6.345a2,2,0,0,1,1.979,1.54,5.823,5.823,0,0,1-.079,2.7,3.719,3.719,0,0,1,1.8,3.4.584.584,0,0,0,.417.81,3.44,3.44,0,0,1,2.116,3.185,1.594,1.594,0,0,0,.063.676,1.5,1.5,0,0,0,.5.513,3.957,3.957,0,0,1,1.478,3.1,2.239,2.239,0,0,1-1.048,2.033,18.568,18.568,0,0,1-4.629,1.377,40.728,40.728,0,0,1-4.479.8,41.269,41.269,0,0,1-4.174.129l-9.217-.038c-2.592,0-5.184,0-7.768-.2-2.413-.163-4.88-.463-7.217.171-.292-.5.175-1.069.463-1.565a5.209,5.209,0,0,0,.526-2.171l.584-6.14a11.3,11.3,0,0,0,.046-2.546c-.125-.906-.468-1.762-.643-2.659a36.075,36.075,0,0,1-.109-5.251,24.048,24.048,0,0,0-.806-4.592l-1.828-7.514a29.661,29.661,0,0,0-.9-3.757q-2.108-5.427-4.421-10.736a1.14,1.14,0,0,1,.083-.952l1.524-2.73a17.279,17.279,0,0,1,1.394-2.225,8.766,8.766,0,0,1,5.143-3.156,9.066,9.066,0,0,1,5.982.885c.71.38,1.369.835,2.087,1.211A8.9,8.9,0,0,0,170.828,413.776Z" transform="translate(-101.76 -266.805)" fill="#62c9d5"/>
      <path id="Path_1595" data-name="Path 1595" d="M250.859,434.55l2.4,3.2a4.457,4.457,0,0,1,.559.885,14.443,14.443,0,0,1,.355,2.717,5.728,5.728,0,0,0,.705,1.624,36.523,36.523,0,0,0,3.051,4.537,7.859,7.859,0,0,0,1.9,1.874,3.122,3.122,0,0,0,2.555.455,1.573,1.573,0,0,0-.835.76,9.3,9.3,0,0,0-.593,5.944,6.011,6.011,0,0,0,.668,1.945,2.888,2.888,0,0,0,1.528,1.323,2.246,2.246,0,0,1-2.651,1.9,4.313,4.313,0,0,1-1.315-.655l-3.857-2.5a10.732,10.732,0,0,1-1.795-1.348c-.722-.718-1.223-1.628-1.924-2.367-1.194-1.252-2.947-2.02-3.79-3.54a16.271,16.271,0,0,1-.948-3.114c-.213-.68-.526-1.323-.73-2.008a8.98,8.98,0,0,1,.789-6.412A26.053,26.053,0,0,1,250.859,434.55Z" transform="translate(-175.413 -280.888)" fill="#62c9d5"/>
      <path id="Path_1596" data-name="Path 1596" d="M185.624,349.765a13.467,13.467,0,0,0-3.573-3.719,12.249,12.249,0,0,0-6.449-2.726,6.979,6.979,0,0,0-2.9.472c-.046-2.868-.756-4.78-2.55-4.492-3.339.538-7.055,1.824-8.349,4.955-.964,2.367-.217,5.03.029,7.572a5.844,5.844,0,0,1-.071,2.016,7.065,7.065,0,0,1-1.77,2.772,14.7,14.7,0,0,0-2.542,3.565,5.182,5.182,0,0,0-.171,4.258,3.068,3.068,0,0,1,.417,1.123c.042.868-.868,1.419-1.536,1.974-2.5,2.087-2.4,5.844-2.421,9.112a46.213,46.213,0,0,1-4.337,19.281,5.89,5.89,0,0,0,6.583-.86,21.934,21.934,0,0,1-1.494,4.308c2.121,1.027,4.679-.66,5.744-2.763s1.19-4.55,1.945-6.783,2.087-4.174,2.676-6.424a5.977,5.977,0,0,1,.76-2.154,5.669,5.669,0,0,1,1.336-1.14c2.187-1.57-1.035-13.462-.179-16.017,1.252.28,3.611-5.844,4.942-12.105a6.3,6.3,0,0,0,2.893.288,3.582,3.582,0,0,1,1.031-.071,2.655,2.655,0,0,1,.9.367,22.823,22.823,0,0,0,3.081,1.582,17.183,17.183,0,0,0,6.975.6A6.95,6.95,0,0,0,185.624,349.765Z" transform="translate(-101.149 -225.381)" fill="#303d5c"/>
      <g id="Group_167" data-name="Group 167" transform="translate(48.251 113.907)" opacity="0.1">
        <path id="Path_1597" data-name="Path 1597" d="M150.594,395.952a46.089,46.089,0,0,0,4.358-19.264c.021-3.256-.088-7.038,2.421-9.112.668-.555,1.578-1.106,1.536-1.974a3.135,3.135,0,0,0-.417-1.123,5.248,5.248,0,0,1,.167-4.258,14.609,14.609,0,0,1,2.546-3.565,7.084,7.084,0,0,0,1.766-2.772,5.935,5.935,0,0,0,.075-2.016c-.25-2.542-.993-5.205-.029-7.572,1.252-3.031,4.755-4.329,8.01-4.9a1.831,1.831,0,0,0-.877-.058c-3.339.538-7.055,1.824-8.349,4.955-.964,2.367-.217,5.03.029,7.572a5.843,5.843,0,0,1-.071,2.016,7.066,7.066,0,0,1-1.77,2.772,14.7,14.7,0,0,0-2.542,3.565,5.181,5.181,0,0,0-.171,4.258,3.068,3.068,0,0,1,.417,1.123c.042.868-.868,1.419-1.536,1.974-2.5,2.087-2.4,5.844-2.421,9.112a46.213,46.213,0,0,1-4.337,19.264,5.71,5.71,0,0,0,3.227.605,5.51,5.51,0,0,1-2.033-.605Z" transform="translate(-149.4 -339.313)"/>
        <path id="Path_1598" data-name="Path 1598" d="M162.755,477.208a21.936,21.936,0,0,0,1.482-4.308,5.57,5.57,0,0,1-1.444.956,21.838,21.838,0,0,1-1.252,3.339,3.172,3.172,0,0,0,1.962.25A3.12,3.12,0,0,1,162.755,477.208Z" transform="translate(-156.472 -417.137)"/>
        <path id="Path_1599" data-name="Path 1599" d="M208.068,349.458a7,7,0,0,1,1.937-.451h-.23a6.8,6.8,0,0,0-1.716.129C208.064,349.229,208.068,349.341,208.068,349.458Z" transform="translate(-183.574 -344.955)"/>
        <path id="Path_1600" data-name="Path 1600" d="M217.776,372.162a22.777,22.777,0,0,1-3.076-1.582,2.671,2.671,0,0,0-.906-.367,3.128,3.128,0,0,0-.943.058,3.872,3.872,0,0,1,.651.309,22.829,22.829,0,0,0,3.081,1.582,13.775,13.775,0,0,0,5.151.668,12.08,12.08,0,0,1-3.957-.668Z" transform="translate(-186.364 -357.307)"/>
        <path id="Path_1601" data-name="Path 1601" d="M205.628,369.71a1.3,1.3,0,0,1-.058.275,6.312,6.312,0,0,0,1.511.042A6.68,6.68,0,0,1,205.628,369.71Z" transform="translate(-182.123 -357.021)"/>
      </g>
      <path id="Path_1602" data-name="Path 1602" d="M136.128,431.617a3.732,3.732,0,0,1-1,2.968,6.577,6.577,0,0,1-1.415,1.039,3.757,3.757,0,0,1-1.67.63,3.177,3.177,0,0,1-2.146-.931c-1.77-1.553-2.655-3.853-3.473-6.061A45.589,45.589,0,0,1,123.8,420.3c-.5-3.306-.284-6.729-1.231-9.939.835-1.67,1.378-3.531,2.333-5.151a23.986,23.986,0,0,0,1.607-3.014,10.436,10.436,0,0,0,.284-6.954.943.943,0,0,1,1.11.058,2.3,2.3,0,0,1,.668.973,8.624,8.624,0,0,1,.668,4.087,1.586,1.586,0,0,0,.113,1,1.252,1.252,0,0,0,1.085.459,9.8,9.8,0,0,0,2.5-.455,23.272,23.272,0,0,1,7.727-.639,3.727,3.727,0,0,1,1.507.367,1.4,1.4,0,0,1,.776,1.252l-6.178.906a2.546,2.546,0,0,0-1.3.442.877.877,0,0,0-.175,1.223,2.871,2.871,0,0,0,.417.284,1.252,1.252,0,0,1-.05,2.033,1.438,1.438,0,0,0-.417.292c-.25.338.083.785.192,1.194a1.507,1.507,0,0,1-.743,1.54,5.161,5.161,0,0,1-1.724.58,18.494,18.494,0,0,0-3.527,1.2,1.937,1.937,0,0,0-.918.689,2.063,2.063,0,0,0,.1,1.732l1.611,4.333a19.17,19.17,0,0,0,.835,2.016c.417.835.914,1.645,1.336,2.5a26.1,26.1,0,0,1,1.006,2.425C134.229,427.948,135.853,429.283,136.128,431.617Z" transform="translate(-85.518 -257.902)" fill="#ee8e9e"/>
      <rect id="Rectangle_482" data-name="Rectangle 482" width="19.256" height="18.642" transform="translate(84.543 145.606)" fill="url(#linear-gradient)"/>
      <rect id="Rectangle_483" data-name="Rectangle 483" width="18.592" height="18" transform="translate(84.841 145.927)" fill="#7cfcff"/>
      <path id="Path_1603" data-name="Path 1603" d="M325.209,411.134a1.92,1.92,0,0,0-.705,1.031.417.417,0,0,0,.163.468.468.468,0,0,0,.284,0,2.651,2.651,0,0,0,1.252-.589,1.251,1.251,0,0,0-.371.3.417.417,0,0,0-.05.451.589.589,0,0,0,.417.213,4,4,0,0,0,1.791-.083,2.458,2.458,0,0,0-.743.438,1,1,0,0,0-.338.772.384.384,0,0,0,.134.288.48.48,0,0,0,.2.071,4.827,4.827,0,0,0,1.67,0,.856.856,0,0,0,.7-.417,1.052,1.052,0,0,0-.163-.806,4.5,4.5,0,0,1-.417-2.037.8.8,0,0,0-.058-.417.743.743,0,0,0-.372-.271,3.222,3.222,0,0,0-2.045-.417A4.3,4.3,0,0,0,325.209,411.134Z" transform="translate(-227.284 -266.627)" fill="#ee8e9e"/>
    </g>
  </g>
</svg>
