<svg xmlns="http://www.w3.org/2000/svg" width="500" height="500" viewBox="0 0 500 500">
  <g id="Group_314" data-name="Group 314" transform="translate(-774 -2518)">
    <g id="Group_184" data-name="Group 184" transform="translate(774 2518)">
      <g id="Ellipse_153" data-name="Ellipse 153" fill="#fff" stroke="#62c9d5" stroke-width="27">
        <circle cx="250" cy="250" r="250" stroke="none"/>
        <circle cx="250" cy="250" r="236.5" fill="none"/>
      </g>
    </g>
    <g id="Group_173" data-name="Group 173" transform="translate(858.292 2619.034)">
      <g id="Group_165" data-name="Group 165">
        <g id="undraw_pending_approval_xuu9">
          <path id="Path_895" data-name="Path 895" d="M560.749,478.737l-72.244,1.27a8.673,8.673,0,1,1-.3-17.343l72.244-1.27a4.062,4.062,0,0,1,4.132,3.99l.162,9.221a4.062,4.062,0,0,1-3.718,4.118Q560.885,478.735,560.749,478.737Z" transform="translate(-391.226 -305.113)" fill="#62c9d5"/>
          <path id="Path_896" data-name="Path 896" d="M548.455,479.891l-59.27,2.706a4.061,4.061,0,0,1-4.243-3.872l-.627-13.741a4.062,4.062,0,0,1,3.872-4.243l59.27-2.706a4.061,4.061,0,0,1,4.243,3.872l.627,13.741a4.067,4.067,0,0,1-3.719,4.233Z" transform="translate(-392.883 -303.909)" fill="#2f2e41"/>
          <path id="Path_897" data-name="Path 897" d="M428.108,630.569V553.7a4.066,4.066,0,0,1,4.062-4.062h9.223a4.066,4.066,0,0,1,4.062,4.062v76.866a4.066,4.066,0,0,1-4.062,4.062h-9.223a4.066,4.066,0,0,1-4.061-4.062Z" transform="translate(-372.766 -336.699)" fill="#62c9d5"/>
          <path id="Path_898" data-name="Path 898" d="M465.8,630.569V553.7a4.066,4.066,0,0,1,4.062-4.062h9.223a4.066,4.066,0,0,1,4.062,4.062v76.866a4.066,4.066,0,0,1-4.062,4.062h-9.223a4.066,4.066,0,0,1-4.062-4.062Z" transform="translate(-386.258 -336.699)" fill="#62c9d5"/>
          <circle id="Ellipse_76" data-name="Ellipse 76" cx="31.868" cy="31.868" r="31.868" transform="translate(50.085 68.988)" fill="#62c9d5"/>
          <path id="Path_899" data-name="Path 899" d="M494.3,380.438a7.559,7.559,0,0,0,2.76-1.62,5.082,5.082,0,0,0,1.486-4.023,3.419,3.419,0,0,0-1.52-2.631,4.421,4.421,0,0,0-4.216-.049l.059-12.441-1.25-.006-.069,14.625.963-.606c1.117-.7,2.711-1.195,3.838-.472a2.2,2.2,0,0,1,.951,1.7,3.84,3.84,0,0,1-1.1,3c-1.38,1.318-3.393,1.73-5.689,2.1l.2,1.234A20.6,20.6,0,0,0,494.3,380.438Z" transform="translate(-395.103 -268.701)" fill="#2f2e41"/>
          <rect id="Rectangle_298" data-name="Rectangle 298" width="6.731" height="1.25" transform="translate(103.98 91.223) rotate(-7.523)" fill="#2f2e41"/>
          <rect id="Rectangle_299" data-name="Rectangle 299" width="6.731" height="1.25" transform="translate(82.918 94.004) rotate(-7.523)" fill="#2f2e41"/>
          <path id="Path_900" data-name="Path 900" d="M356.258,370.322l45.755,55.922a8.673,8.673,0,0,1-13.424,10.984l-45.755-55.922a4.061,4.061,0,0,1,.571-5.715l7.138-5.84A4.062,4.062,0,0,1,356.258,370.322Z" transform="translate(-341.915 -271.982)" fill="#62c9d5"/>
          <path id="Path_901" data-name="Path 901" d="M377.208,389.761l37.571,45.92a4.061,4.061,0,0,1-.571,5.715l-12.192,9.975a4.061,4.061,0,0,1-5.715-.572l-37.571-45.92a4.066,4.066,0,0,1,.571-5.715l12.192-9.975a4.062,4.062,0,0,1,5.715.572Z" transform="translate(-347.605 -278.94)" fill="#2f2e41"/>
          <path id="Path_336" data-name="Path 336" d="M725.7,301.581a6.053,6.053,0,0,0-5.535-3.7H609.684a5.992,5.992,0,0,0-5.989,5.989v139.77a5.992,5.992,0,0,0,5.989,5.989H720.17a6,6,0,0,0,5.989-5.989V303.866a5.881,5.881,0,0,0-.454-2.286Zm-.876,142.056a4.665,4.665,0,0,1-4.659,4.659H609.684a4.66,4.66,0,0,1-4.659-4.657V303.867a4.665,4.665,0,0,1,4.659-4.659H720.17a4.682,4.682,0,0,1,4.324,2.931,5.171,5.171,0,0,1,.175.526,4.62,4.62,0,0,1,.159,1.2Z" transform="translate(-435.615 -246.585)" fill="#3f3d56"/>
          <path id="Path_337" data-name="Path 337" d="M737.771,346.3H704.492a2.662,2.662,0,0,1,0-5.325h33.279a2.662,2.662,0,0,1,0,5.325Z" transform="translate(-470.741 -262.012)" fill="#3f3d56"/>
          <path id="Path_338" data-name="Path 338" d="M737.771,368.073H704.492a2.662,2.662,0,0,1,0-5.325h33.279a2.662,2.662,0,0,1,0,5.325Z" transform="translate(-470.741 -269.804)" fill="#3f3d56"/>
          <path id="Path_339" data-name="Path 339" d="M664.155,364.1h-24.32a3,3,0,0,1-3-3V332.4a3,3,0,0,1,3-3h24.32a3,3,0,0,1,3,3v28.7a3,3,0,0,1-3,3Z" transform="translate(-447.479 -257.87)" fill="#62c9d5"/>
          <path id="Path_340" data-name="Path 340" d="M714.036,412.648h-75.21a2.662,2.662,0,1,1,0-5.325h75.21a2.662,2.662,0,0,1,0,5.325Z" transform="translate(-447.236 -285.759)" fill="#ccc"/>
          <path id="Path_341" data-name="Path 341" d="M714.036,434.417h-75.21a2.662,2.662,0,1,1,0-5.325h75.21a2.662,2.662,0,0,1,0,5.325Z" transform="translate(-447.236 -293.551)" fill="#ccc"/>
          <path id="Path_342" data-name="Path 342" d="M714.036,456.185h-75.21a2.662,2.662,0,1,1,0-5.325h75.21a2.662,2.662,0,0,1,0,5.325Z" transform="translate(-447.236 -301.342)" fill="#ccc"/>
          <path id="Path_343" data-name="Path 343" d="M714.036,477.954h-75.21a2.662,2.662,0,1,1,0-5.325h75.21a2.662,2.662,0,0,1,0,5.325Z" transform="translate(-447.236 -309.134)" fill="#ccc"/>
          <path id="Path_344" data-name="Path 344" d="M714.036,499.723h-75.21a2.662,2.662,0,1,1,0-5.325h75.21a2.662,2.662,0,0,1,0,5.325Z" transform="translate(-447.236 -316.926)" fill="#ccc"/>
          <circle id="Ellipse_44" data-name="Ellipse 44" cx="38.114" cy="38.114" r="38.114" transform="translate(255.187)" fill="#62c9d5"/>
          <circle id="Ellipse_77" data-name="Ellipse 77" cx="4.485" cy="4.485" r="4.485" transform="translate(288.079 55.38)" fill="#fff"/>
          <path id="Path_902" data-name="Path 902" d="M789.663,238.343A12.978,12.978,0,0,0,776.815,251.1c0,.065,0,.52,0,1.115a3.29,3.29,0,0,0,3.29,3.29h0a3.292,3.292,0,0,0,3.291-3.292v0c0-.4,0-.685,0-.7A6.24,6.24,0,1,1,793,256.757h0s-4.682,3.015-6.11,7.15h0a9.163,9.163,0,0,0-.378,2.61c0,.363.021,3.541.063,6.12a3.391,3.391,0,0,0,3.392,3.336h0a3.392,3.392,0,0,0,3.392-3.392v-.021c-.014-2.362-.022-5.113-.022-5.312,0-2.539,2.45-5.069,4.462-6.719a13.534,13.534,0,0,0,4.654-7.41,8.464,8.464,0,0,0,.244-1.836,12.942,12.942,0,0,0-12.943-12.943Z" transform="translate(-497.58 -225.275)" fill="#fff"/>
          <path id="Path_903" data-name="Path 903" d="M428.993,324.238c5.706-3.751,12.876-2.063,19.218-1.573,5.73.443,12.522.007,16.552-4.675,4.193-4.87,3.842-12.1.371-17.254a21.843,21.843,0,0,0-15.089-9.117,24.207,24.207,0,0,0-18.812,5.2l2.039.845c-1.189-11.361-9.542-21.632-20.749-24.418-11.34-2.819-24.021,1.992-30.071,12.1-5.964,9.968-5.258,23.876,3.327,32.16a17.487,17.487,0,0,0,15.422,4.923c5.249-1,9.913-4.824,10.9-10.227.911-5.009-1.079-10.7-5.951-12.886a9.715,9.715,0,0,0-8.491.136,8.253,8.253,0,0,0-4.185,6.6,7.3,7.3,0,0,0,.776,3.811c.676,1.381,2.738.171,2.063-1.206a5.54,5.54,0,0,1,1.145-6.081,6.724,6.724,0,0,1,6.92-1.4c4.306,1.384,6.208,6.324,5.4,10.515-.909,4.694-4.916,7.71-9.479,8.483a15.173,15.173,0,0,1-13.246-4.779c-7.214-7.38-7.838-19.267-2.972-28.075,4.937-8.936,15.467-13.734,25.5-12.235,9.918,1.482,18.087,9.283,20.632,18.9a24.214,24.214,0,0,1,.68,3.674,1.213,1.213,0,0,0,2.039.845c8.475-7.039,22.572-6.284,29.521,2.571,3.408,4.343,4.412,11.086.433,15.448-3.789,4.154-10.083,4.158-15.258,3.7-6.621-.582-13.9-1.95-19.83,1.949-1.28.841-.084,2.911,1.206,2.063Z" transform="translate(-355.029 -237.481)" fill="#2f2e41"/>
          <path id="Path_904" data-name="Path 904" d="M468.5,584.84H420.712a3.588,3.588,0,0,1-3.584-3.584V565.327a3.588,3.588,0,0,1,3.584-3.584H468.5a3.588,3.588,0,0,1,3.584,3.584v15.928A3.588,3.588,0,0,1,468.5,584.84Z" transform="translate(-368.836 -341.031)" fill="#2f2e41"/>
          <path id="Path_905" data-name="Path 905" d="M467.439,461.69a21.755,21.755,0,0,0-14.848-16.2c2.723-.876,4.455-2.174,4.455-3.625,0-2.639-5.705-4.778-12.743-4.778s-12.743,2.139-12.743,4.778c0,1.472,1.779,2.788,4.571,3.665-11.562,3.447-19.954,13.51-19.954,25.359,0,0-3.559,22.816-6.354,41.054-1.788,11.668,7.981,22.1,20.693,22.1h44.709a5.134,5.134,0,0,0,5.311-4.924S472.3,486.544,467.439,461.69Z" transform="translate(-366.146 -296.412)" fill="#2f2e41"/>
        </g>
      </g>
    </g>
  </g>
</svg>
