<svg xmlns="http://www.w3.org/2000/svg" width="500" height="500" viewBox="0 0 500 500">
  <g id="Group_316" data-name="Group 316" transform="translate(-1154.999 -2718)">
    <g id="Group_155" data-name="Group 155" transform="translate(1154.999 2718)">
      <g id="Ellipse_129" data-name="Ellipse 129" fill="#fff" stroke="#62c9d5" stroke-width="27">
        <circle cx="250" cy="250" r="250" stroke="none"/>
        <circle cx="250" cy="250" r="236.5" fill="none"/>
      </g>
    </g>
    <g id="undraw_Share_re_9kfx" transform="translate(1242.135 2804.869)">
      <circle id="Ellipse_142" data-name="Ellipse 142" cx="18.849" cy="18.849" r="18.849" transform="translate(16.204 6.622)" fill="#ff6584"/>
      <path id="Path_1515" data-name="Path 1515" d="M452.439,656.48a146.919,146.919,0,0,0,47.112,10.9,118.465,118.465,0,0,0,22.871-.507c6.616-.879,13.335-2.682,18.85-6.582a27.962,27.962,0,0,0,10.917-16.42,36.764,36.764,0,0,0-1.432-21,52.32,52.32,0,0,0-11.531-18.631c-4.586-4.694-11.01-8.963-17.878-8.16-6.6.773-11.4,6.11-13.163,12.285-2.108,7.4.317,15.235,3.607,21.9a69.6,69.6,0,0,0,25.139,27.543,72.857,72.857,0,0,0,35.584,11.4c12.676.571,26.31-2.368,36.3-10.559a31.79,31.79,0,0,0,10.72-16.68c1.774-6.924,1.31-14.236-.225-21.158-3.332-15.026-12.133-27.942-17.228-42.324a68.059,68.059,0,0,1-2.908-10.786c-.168-.941-1.6-.542-1.435.4,2.635,14.8,10.975,27.535,16.449,41.313,4.987,12.551,7.955,27.96.568,40.214-6.645,11.024-19.842,16.4-32.15,17.769a68.647,68.647,0,0,1-35.387-5.745,71.165,71.165,0,0,1-28.275-22.513,54.828,54.828,0,0,1-9.037-17.807c-1.774-6.575-1.358-14.023,3.335-19.333a13.043,13.043,0,0,1,8.109-4.431,16.057,16.057,0,0,1,9.436,2.038c6.182,3.286,10.782,9,14.332,14.9,3.667,6.1,6.251,13.017,6.507,20.187a29.978,29.978,0,0,1-5.517,18.895c-8.273,11.14-23.821,12.492-36.581,12.577a145.436,145.436,0,0,1-46.059-7.186q-5.39-1.761-10.629-3.941c-.884-.367-1.269,1.073-.4,1.435Z" transform="translate(-350.976 -348.82)" fill="#e6e6e6"/>
      <path id="Path_1516" data-name="Path 1516" d="M370.364,619.37l-4-6.134a3.228,3.228,0,0,1,.942-4.461l24.341-18.921a3.228,3.228,0,0,1,4.461.942l4,6.134a3.228,3.228,0,0,1-.942,4.461l-24.341,18.921a3.228,3.228,0,0,1-4.461-.941Z" transform="translate(-281.79 -359.988)" fill="#2f2e41"/>
      <path id="Path_1517" data-name="Path 1517" d="M367.149,624.607l6.42-3.519a3.228,3.228,0,0,1,4.377,1.278l17.046,30.713a3.228,3.228,0,0,1-1.278,4.377l-6.42,3.519a3.228,3.228,0,0,1-4.377-1.278l-17.046-30.713A3.228,3.228,0,0,1,367.149,624.607Z" transform="translate(-281.28 -375.793)" fill="#2f2e41"/>
      <path id="Path_1518" data-name="Path 1518" d="M275.131,496.853a3.224,3.224,0,0,1-3.212-3.013l-.478-7.305a3.224,3.224,0,0,1,3.007-3.428l57.234-3.748a6.885,6.885,0,1,1,.9,13.74l-57.234,3.748Q275.238,496.852,275.131,496.853Z" transform="translate(-209.876 -304.556)" fill="#62c9d5"/>
      <path id="Path_1519" data-name="Path 1519" d="M297.951,497.116a3.228,3.228,0,0,1-3.22-3.1l-.408-10.911a3.224,3.224,0,0,1,3.1-3.342L344.49,478a3.224,3.224,0,0,1,3.342,3.1l.408,10.912a3.224,3.224,0,0,1-3.1,3.342l-47.065,1.76Z" transform="translate(-238.571 -303.878)" fill="#ccc"/>
      <path id="Path_1520" data-name="Path 1520" d="M299.446,616.521v-23.68a68.555,68.555,0,0,0-25.11-53.469c-12.027-9.7-29.448-16.95-54.4-15.329l9.507-38.029-82.107,56.178,80.378,56.178L219.5,562.5S269.628,553,299.446,616.521Z" transform="translate(-147.332 -307.918)" fill="#3f3d56"/>
      <path id="Path_1521" data-name="Path 1521" d="M330.871,613.219l-5.921-4.305a3.228,3.228,0,0,1-.712-4.5l35.883-49.351a3.228,3.228,0,0,1,4.5-.712l5.921,4.305a3.228,3.228,0,0,1,.712,4.5l-35.883,49.351a3.228,3.228,0,0,1-4.5.712Z" transform="translate(-256.468 -342.046)" fill="#2f2e41"/>
      <path id="Path_1522" data-name="Path 1522" d="M324.153,649.115l4.742-5.577a3.228,3.228,0,0,1,4.545-.368l26.88,22.612a3.228,3.228,0,0,1,.368,4.545l-4.742,5.577a3.228,3.228,0,0,1-4.545.368l-26.88-22.612a3.228,3.228,0,0,1-.368-4.545Z" transform="translate(-255.82 -386.735)" fill="#2f2e41"/>
      <circle id="Ellipse_143" data-name="Ellipse 143" cx="25.297" cy="25.297" r="25.297" transform="translate(73.04 112.084)" fill="#62c9d5"/>
      <path id="Path_1523" data-name="Path 1523" d="M363.135,409.873a6,6,0,0,1-2.494-.486,4.035,4.035,0,0,1-2.173-2.621,2.714,2.714,0,0,1,.445-2.371,3.51,3.51,0,0,1,3.144-1.148l-3.322-9.3.934-.334,3.906,10.933-.881-.2a3,3,0,0,0-3,.658,1.743,1.743,0,0,0-.264,1.523,3.049,3.049,0,0,0,1.618,1.955c1.381.623,3,.4,4.813.072l.177.976a16.35,16.35,0,0,1-2.9.342Z" transform="translate(-275.745 -261.35)" fill="#2f2e41"/>
      <rect id="Rectangle_437" data-name="Rectangle 437" width="5.343" height="0.992" transform="translate(75.27 135.522) rotate(-11.864)" fill="#2f2e41"/>
      <rect id="Rectangle_438" data-name="Rectangle 438" width="5.343" height="0.992" transform="translate(88.314 132.054) rotate(-11.864)" fill="#2f2e41"/>
      <path id="Path_1524" data-name="Path 1524" d="M385.374,544.7H342.716a4.221,4.221,0,0,1-4.216-4.216L347.43,472a4.211,4.211,0,0,1,4.214-4.184h15.139a22.833,22.833,0,0,1,22.807,22.807v49.86a4.221,4.221,0,0,1-4.216,4.216Z" transform="translate(-265.835 -298.745)" fill="#ccc"/>
      <path id="Path_1525" data-name="Path 1525" d="M292.376,527.649a3.229,3.229,0,0,1-2.947-1.9l-3-6.68a3.224,3.224,0,0,1,1.622-4.261l52.333-23.477a6.885,6.885,0,0,1,5.636,12.563l-52.332,23.477A3.206,3.206,0,0,1,292.376,527.649Z" transform="translate(-233.921 -310.291)" fill="#62c9d5"/>
      <path id="Path_1526" data-name="Path 1526" d="M321,520.484a3.229,3.229,0,0,1-2.947-1.9l-5.118-11.409a3.228,3.228,0,0,1,1.622-4.261l42.973-19.278a3.224,3.224,0,0,1,4.261,1.622l5.118,11.409a3.224,3.224,0,0,1-1.622,4.261L322.31,520.2A3.21,3.21,0,0,1,321,520.484Z" transform="translate(-249.978 -306.575)" fill="#ccc"/>
      <path id="Path_1527" data-name="Path 1527" d="M355.231,350.069c-4.119-1.517-7.5,2.48-11.237,3.4-3.571.876-7.417-1.184-9.324-4.186-2.225-3.5-1.674-8.049.35-11.507a16.12,16.12,0,0,1,10.349-7.125c4.8-1.163,9.792-.591,14.525.59a60.44,60.44,0,0,1,13.116,4.722c3.775,1.954,7.352,4.626,9.559,8.328a15.291,15.291,0,0,1,2,11.406,12.006,12.006,0,0,1-3.048,5.271c-1.494,1.582-3.206,2.953-4.6,4.63-2.107,2.537-3.522,6.694-1.445,9.695a4.857,4.857,0,0,0,1.761,1.561c.848.442,1.6-.842.751-1.285a4.1,4.1,0,0,1-2-3.967,8.072,8.072,0,0,1,1.981-4.951c1.459-1.754,3.263-3.173,4.8-4.85a13.4,13.4,0,0,0,3.18-5.537,16.578,16.578,0,0,0-1.7-12,23.446,23.446,0,0,0-9.439-9.014,58.574,58.574,0,0,0-13.386-5.146c-4.93-1.334-10.107-2.086-15.18-1.162a18.524,18.524,0,0,0-11.461,6.516,13.681,13.681,0,0,0-2.566,12.049,11.029,11.029,0,0,0,8.282,7.467,9.474,9.474,0,0,0,5.761-.751c1.933-.866,3.689-2.213,5.745-2.789a4.435,4.435,0,0,1,2.817.075c.9.331,1.288-1.106.4-1.435Z" transform="translate(-261.841 -228.549)" fill="#2f2e41"/>
      <path id="Path_1528" data-name="Path 1528" d="M746,442.553v-23.68A68.555,68.555,0,0,1,771.11,365.4c12.027-9.7,29.448-16.95,54.4-15.329l-9.507-38.029,82.107,56.178L817.736,424.4l8.211-35.868S775.818,379.028,746,442.553Z" transform="translate(-542.048 -220.242)" fill="#3f3d56"/>
      <path id="Path_1529" data-name="Path 1529" d="M833.375,317.7a6.885,6.885,0,0,1,3.593-12.2L894,299.4a3.228,3.228,0,0,1,3.548,2.864l-.247.026.247-.026.777,7.28a3.224,3.224,0,0,1-2.864,3.548l-57.032,6.09a7,7,0,0,1-.744.04A6.833,6.833,0,0,1,833.375,317.7Z" transform="translate(-584.792 -213.861)" fill="#62c9d5"/>
      <path id="Path_1530" data-name="Path 1530" d="M869.847,426.974v-7.321a3.228,3.228,0,0,1,3.224-3.224h61.017a3.228,3.228,0,0,1,3.224,3.224v7.321a3.228,3.228,0,0,1-3.224,3.224H873.071A3.228,3.228,0,0,1,869.847,426.974Z" transform="translate(-604.464 -272.848)" fill="#62c9d5"/>
      <path id="Path_1531" data-name="Path 1531" d="M806.9,405.7a3.2,3.2,0,0,1-1.612-1.869l-2.3-6.952a3.228,3.228,0,0,1,2.051-4.072l57.941-19.131a3.224,3.224,0,0,1,4.072,2.051l-.236.078.236-.078,2.3,6.952a3.228,3.228,0,0,1-2.051,4.072l-57.941,19.131a3.205,3.205,0,0,1-2.461-.182Z" transform="translate(-570.688 -251.221)" fill="#62c9d5"/>
      <path id="Path_1532" data-name="Path 1532" d="M936.671,407.681l-26-23.446a3.228,3.228,0,0,1-.235-4.554l4.9-5.437a3.225,3.225,0,0,1,4.554-.235l26,23.446a3.228,3.228,0,0,1,.235,4.554l-4.9,5.437A3.2,3.2,0,0,1,939,408.506q-.086,0-.17,0A3.2,3.2,0,0,1,936.671,407.681Z" transform="translate(-624.501 -251.051)" fill="#62c9d5"/>
      <circle id="Ellipse_144" data-name="Ellipse 144" cx="25.297" cy="25.297" r="25.297" transform="translate(240.533 21.804)" fill="#62c9d5"/>
      <path id="Path_1533" data-name="Path 1533" d="M768.456,355.241a19.734,19.734,0,0,1,0-19.937l26.815-46.445a3.224,3.224,0,0,1,5.584,0l41.289,71.515a3.224,3.224,0,0,1-2.792,4.836H785.722a19.734,19.734,0,0,1-17.266-9.969Z" transform="translate(-552.003 -207.743)" fill="#ccc"/>
      <path id="Path_1534" data-name="Path 1534" d="M872.9,224.173c1.64-.046,3.681-.1,5.253-1.251a4.035,4.035,0,0,0,1.587-3.012,2.714,2.714,0,0,0-.923-2.229,3.5,3.5,0,0,0-3.312-.477l1.339-9.784-.983-.135-1.574,11.5.821-.377a3,3,0,0,1,3.07.027,1.744,1.744,0,0,1,.572,1.436,3.049,3.049,0,0,1-1.181,2.246c-1.224.894-2.85,1.009-4.7,1.061Z" transform="translate(-605.99 -167.445)" fill="#2f2e41"/>
      <rect id="Rectangle_439" data-name="Rectangle 439" width="5.343" height="0.992" transform="translate(278.106 40.82)" fill="#2f2e41"/>
      <path id="Path_1535" data-name="Path 1535" d="M738.533,144.231a20.949,20.949,0,0,0-10.538-13.53,20.278,20.278,0,0,0-17.4-.54,20.048,20.048,0,0,0-11.529,13.464,20.909,20.909,0,0,0-.317,9.171,23.79,23.79,0,0,0,4.017,8.929c1.96,2.838,4.263,5.413,6.378,8.132a75.785,75.785,0,0,1,15.5,37.909,45.227,45.227,0,0,1,.228,9.417c-.57,6.094-2.93,12.063-8.349,15.379a28.365,28.365,0,0,1-9.5,3.31,43.216,43.216,0,0,1-11.238.878c-6.371-.453-12.745-3.111-16.445-8.525a15.191,15.191,0,0,1-1.9-3.911c-.295-.914,1.142-1.3,1.435-.4,1.96,6.075,7.907,9.82,13.925,10.962a34.064,34.064,0,0,0,11.322-.011,35.023,35.023,0,0,0,10.031-2.714,15.022,15.022,0,0,0,6.726-6.218,21.921,21.921,0,0,0,2.477-8.476c.663-6.49-.417-13.209-2.034-19.486a75,75,0,0,0-7.886-19.153,73.653,73.653,0,0,0-5.86-8.574c-2.132-2.687-4.406-5.271-6.328-8.118a24.454,24.454,0,0,1-3.931-8.939,22.656,22.656,0,0,1,.161-9.318A21.472,21.472,0,0,1,708.33,129.6a22.086,22.086,0,0,1,17.627-1.421,22.513,22.513,0,0,1,12.6,11.594,21.463,21.463,0,0,1,1.406,4.062c.219.931-1.215,1.329-1.435.4Z" transform="translate(-477.741 -126.964)" fill="#2f2e41"/>
      <path id="Path_1536" data-name="Path 1536" d="M776.372,154.889A11.455,11.455,0,0,0,763,147.518c-.932.218-1.329-1.217-.4-1.435a12.8,12.8,0,0,1,15.207,8.411c.312.908-1.125,1.3-1.435.4Z" transform="translate(-522.595 -136.413)" fill="#2f2e41"/>
      <path id="Path_1537" data-name="Path 1537" d="M790.223,168.2a2.731,2.731,0,0,1,1.429-3.584l6.836-2.938a2.728,2.728,0,0,1,2.155,5.013l-6.836,2.938a2.728,2.728,0,0,1-3.584-1.429Z" transform="translate(-539.1 -144.349)" fill="#2f2e41"/>
      <path id="Path_1538" data-name="Path 1538" d="M813.943,387.486l-7.3-.592a3.228,3.228,0,0,1-2.953-3.475l4.641-57.169a6.885,6.885,0,0,1,13.724,1.114l-4.642,57.169a3.224,3.224,0,0,1-3.208,2.964C814.121,387.5,814.032,387.494,813.943,387.486Z" transform="translate(-548.423 -224.211)" fill="#62c9d5"/>
      <path id="Path_1539" data-name="Path 1539" d="M158.021,194.652c-2.608-6.1.967-14.051,7.257-16.148s13.923,2.12,15.5,8.561a17.332,17.332,0,1,1,33.132-3.723A14.056,14.056,0,0,1,238.8,195.894l-83.023-.148" transform="translate(-151.588 -145.206)" fill="#f2f2f2"/>
      <path id="Path_1540" data-name="Path 1540" d="M497.021,334.652c-2.608-6.1.967-14.05,7.257-16.148s13.923,2.12,15.5,8.561a17.332,17.332,0,1,1,33.132-3.723A14.056,14.056,0,0,1,577.8,335.894l-83.023-.148" transform="translate(-366.31 -215.763)" fill="#f2f2f2"/>
    </g>
  </g>
</svg>
