<svg xmlns="http://www.w3.org/2000/svg" xmlns:xlink="http://www.w3.org/1999/xlink" width="301.523" height="261.796" viewBox="0 0 301.523 261.796">
  <defs>
    <clipPath id="clip-path">
      <path id="Path_9787" data-name="Path 9787" d="M192.6,106.9l47.227-27.27c.846-.491,1.53-.09,1.53.884v72.554a3.389,3.389,0,0,1-1.53,2.653L192.6,182.944c-.846.484-1.536.09-1.536-.884V109.57A3.363,3.363,0,0,1,192.6,106.9Z" transform="translate(-191.06 -79.425)" fill="none"/>
    </clipPath>
  </defs>
  <g id="Active_Support-amico" data-name="Active Support-amico" transform="translate(-19.71 -55.49)">
    <g id="freepik--Floor--inject-571" transform="translate(43.824 159.502)">
      <ellipse id="freepik--floor--inject-571-2" data-name="freepik--floor--inject-571" cx="138.704" cy="78.892" rx="138.704" ry="78.892" fill="#f5f5f5"/>
    </g>
    <g id="freepik--Shadow--inject-571" transform="translate(237.345 233.515)">
      <ellipse id="freepik--shadow--inject-571-2" data-name="freepik--shadow--inject-571" cx="33.169" cy="20.796" rx="33.169" ry="20.796" fill="#e6e6e6"/>
    </g>
    <g id="freepik--Plants--inject-571" transform="translate(19.71 163.935)">
      <path id="Path_9717" data-name="Path 9717" d="M54.5,253.515a48.582,48.582,0,0,0-3.279-13.948c-2.924-7.21-8.52-14.451-14.968-15.807s-9.172,2.969-7.816,7.229c1.175,3.666,5.964,6.713,9.6,9.914s10.43,10.972,12.315,18.414l3.64.4Z" transform="translate(-22.683 -223.507)" fill="#62c9d5"/>
      <g id="Group_200" data-name="Group 200" transform="translate(5.411)" opacity="0.15">
        <path id="Path_9718" data-name="Path 9718" d="M54.5,253.515a48.582,48.582,0,0,0-3.279-13.948c-2.924-7.21-8.52-14.451-14.968-15.807s-9.172,2.969-7.816,7.229c1.175,3.666,5.964,6.713,9.6,9.914s10.43,10.972,12.315,18.414l3.64.4Z" transform="translate(-28.094 -223.507)"/>
      </g>
      <path id="Path_9719" data-name="Path 9719" d="M54.233,258.394a.4.4,0,0,1-.4-.387c-.678-18.8-19.047-29.3-19.247-29.419a.407.407,0,0,1,.394-.71c.194.11,18.969,10.843,19.66,30.084a.407.407,0,0,1-.387.42Z" transform="translate(-24.918 -225.043)" fill="#fff"/>
      <path id="Path_9720" data-name="Path 9720" d="M54.422,300.584a14.463,14.463,0,0,1-9.63,1.362,9.036,9.036,0,0,1-5.054-2.427c-1.517-1.562-1.756-3.137-2.182-5.228a6.319,6.319,0,0,0-.878-2.466c-1.291-1.73-3.769-1.7-5.861-2.149a8.7,8.7,0,0,1-6.558-5.686c-.858-2.911.536-6.454,3.35-7.6l-3.453-2.214a15.324,15.324,0,0,1-2.956-2.259,5.112,5.112,0,0,1-1.491-3.324,4.894,4.894,0,0,1,3.04-4.221,10.327,10.327,0,0,1,5.4-.555,24.588,24.588,0,0,1,5.4,1.291,3.873,3.873,0,0,0,1.51.342,4,4,0,0,0,1.846-.852c3.95-2.582,10.385-2.407,12.5,2.511.31.723.5,1.5.833,2.207,1.226,2.653,4.679,1.852,6.913,3.092a5.654,5.654,0,0,1,2.582,4.047c.445,2.621-.284,5.609-.768,8.2s-1.1,5-1.8,7.448c-.574,2.027-1.207,4.034-1.878,6.028C55.145,298.538,54.835,300.326,54.422,300.584Z" transform="translate(-19.71 -237.491)" fill="#62c9d5"/>
      <path id="Path_9721" data-name="Path 9721" d="M59.19,296.223a36.209,36.209,0,0,0-9.43-14.2.407.407,0,0,0-.219-.207,47.6,47.6,0,0,0-3.827-3.227A19.583,19.583,0,0,1,47,268.295a.4.4,0,1,0-.729-.342,20.009,20.009,0,0,0-1.491,9.953A62.284,62.284,0,0,0,27.009,269a.413.413,0,0,0-.5.284.4.4,0,0,0,.284.5A60.756,60.756,0,0,1,47.888,281.4c-5.809-1.013-12.734,1.788-13.051,1.936a.4.4,0,0,0,.155.775.432.432,0,0,0,.155,0c.077-.039,8.216-3.331,13.967-1.543a35.531,35.531,0,0,1,9.333,13.922.4.4,0,0,0,.381.271h.136a.4.4,0,0,0,.226-.536Z" transform="translate(-22.116 -239.184)" fill="#fff"/>
    </g>
    <g id="freepik--Device--inject-571" transform="translate(49.284 55.49)">
      <g id="freepik--Laptop--inject-571">
        <path id="Path_9722" data-name="Path 9722" d="M73.69,283.3a6.015,6.015,0,0,0,2.814,4.667L155.215,333.4a6.2,6.2,0,0,0,5.615,0l107.678-62.169a5.28,5.28,0,0,0,0-9.327l-78.7-45.439a6.235,6.235,0,0,0-5.615,0L76.5,278.645A6.009,6.009,0,0,0,73.69,283.3Z" transform="translate(-68.423 -112.328)" fill="#37474f"/>
        <path id="Path_9723" data-name="Path 9723" d="M158,362.626V368.7a5.732,5.732,0,0,1-2.808-.645L76.458,322.6a5.26,5.26,0,0,1-.284-9.146c-1.259.9-1.162,2.227.284,3.059L155.2,361.948A5.738,5.738,0,0,0,158,362.626Z" transform="translate(-68.409 -146.953)" fill="#263238"/>
        <path id="Path_9724" data-name="Path 9724" d="M68.163,221.9a6.028,6.028,0,0,1-2.633-4.763V123.222a6.2,6.2,0,0,1,2.808-4.86L176.016,56.194a5.275,5.275,0,0,1,8.081,4.66v93.918a6.2,6.2,0,0,1-2.808,4.86L73.611,221.806a6.048,6.048,0,0,1-5.447.1Z" transform="translate(-65.53 -55.49)" fill="#455a64"/>
        <path id="Path_9725" data-name="Path 9725" d="M73.275,257.664a6.061,6.061,0,0,1-5.112-.071,6.028,6.028,0,0,1-2.633-4.763V158.912a5.628,5.628,0,0,1,.826-2.762l5.267,3.034h0a5.738,5.738,0,0,0-.826,2.762V255.87C70.8,257.535,71.881,258.278,73.275,257.664Z" transform="translate(-65.53 -91.181)" fill="#263238"/>
        <path id="Path_9726" data-name="Path 9726" d="M73.69,128.114v93.911c0,1.794,1.291,2.517,2.814,1.626l107.678-62.175a6.2,6.2,0,0,0,2.808-4.86V62.7c0-1.788-1.259-2.517-2.808-1.62L76.5,123.248a6.2,6.2,0,0,0-2.814,4.867Z" transform="translate(-68.423 -57.336)" fill="#37474f"/>
        <path id="Path_9727" data-name="Path 9727" d="M77.409,281.9l78.711,45.439a6.235,6.235,0,0,0,5.615,0l107.678-62.169c1.556-.9,1.556-2.349,0-3.227l-78.7-45.439a6.235,6.235,0,0,0-5.615,0L77.409,278.659C75.854,279.549,75.854,281,77.409,281.9Z" transform="translate(-69.328 -112.343)" fill="#455a64"/>
        <path id="Path_9728" data-name="Path 9728" d="M79.461,132.643,183.28,72.714c.929-.536,1.685-.1,1.685.975v81.325a3.731,3.731,0,0,1-1.685,2.917l-103.819,59.9c-.936.536-1.691.1-1.691-.975V135.528A3.7,3.7,0,0,1,79.461,132.643Z" transform="translate(-69.87 -61.516)" fill="#fafafa"/>
        <path id="Path_9729" data-name="Path 9729" d="M91.885,282.529l99.952-57.715a3.079,3.079,0,0,1,2.808,0l5.112,2.95a.858.858,0,0,1,0,1.62L99.791,287.092a3.079,3.079,0,0,1-2.808,0l-5.1-2.943a.858.858,0,0,1,0-1.62Z" transform="translate(-74.671 -115.406)" fill="#37474f"/>
        <path id="Path_9730" data-name="Path 9730" d="M112.289,294.325l99.952-57.709a3.118,3.118,0,0,1,2.808,0l31.446,18.156a.858.858,0,0,1,0,1.62l-99.836,57.625a3.111,3.111,0,0,1-2.814,0L112.3,295.945a.852.852,0,0,1-.006-1.62Z" transform="translate(-81.902 -119.593)" fill="#263238"/>
        <path id="Path_9731" data-name="Path 9731" d="M203.392,263.926l3.124-1.8c.136-.077.129-.207,0-.29l-3.621-2.091a.542.542,0,0,0-.5,0l-3.13,1.807c-.136.071-.129.2,0,.284l3.614,2.091A.555.555,0,0,0,203.392,263.926Zm-6.177-7.177-3.137,1.82c-.136.077-.123.207,0,.29l3.614,2.085a.555.555,0,0,0,.5,0l3.13-1.807a.159.159,0,0,0,0-.29l-3.621-2.085a.542.542,0,0,0-.491,0ZM187.1,262.635l-5.293,3.053c-.136.077-.129.207,0,.29l3.614,2.091a.575.575,0,0,0,.5,0l5.293-3.053c.136-.077.123-.207,0-.29l-3.6-2.091A.555.555,0,0,0,187.1,262.635Zm5.538-3.227-3.13,1.807a.159.159,0,0,0,0,.29l3.621,2.091a.562.562,0,0,0,.5,0l3.13-1.807a.154.154,0,0,0,0-.284l-3.621-2.1A.542.542,0,0,0,192.639,259.408Zm-12.263,7.1-3.13,1.8a.159.159,0,0,0,0,.29l3.621,2.091a.542.542,0,0,0,.5,0l3.13-1.807c.129-.071.123-.2,0-.284l-3.634-2.091a.542.542,0,0,0-.5,0Zm-4.576,2.64-3.124,1.807c-.136.071-.129.2,0,.284l3.621,2.091a.562.562,0,0,0,.5,0l3.13-1.807c.136-.077.123-.207,0-.29l-3.614-2.091a.555.555,0,0,0-.523-.006Zm14.238,8.494,3.13-1.807a.159.159,0,0,0,0-.29l-3.621-2.085a.542.542,0,0,0-.5,0l-3.13,1.807c-.136.077-.123.207,0,.29l3.614,2.085a.555.555,0,0,0,.491-.013Zm-4.576,2.64,3.13-1.807c.136-.077.123-.206,0-.29l-3.614-2.085a.555.555,0,0,0-.5,0l-3.13,1.807a.159.159,0,0,0,0,.29l3.621,2.091a.561.561,0,0,0,.484-.019Zm-4.576,2.64,3.13-1.807a.151.151,0,0,0,0-.284l-3.614-2.091a.542.542,0,0,0-.5,0l-3.13,1.807c-.136.077-.129.207,0,.29l3.621,2.091a.561.561,0,0,0,.478-.019Zm-4.57,2.64,3.13-1.807c.129-.071.123-.2,0-.284l-3.653-2.117a.542.542,0,0,0-.5,0l-3.13,1.8c-.136.077-.123.207,0,.29l3.614,2.091a.555.555,0,0,0,.523.013ZM198.828,266.6l3.13-1.807a.159.159,0,0,0,0-.29l-3.621-2.091a.562.562,0,0,0-.5,0l-3.13,1.807a.154.154,0,0,0,0,.284l3.621,2.091a.561.561,0,0,0,.484-.006Zm-4.221,8.391,6.984-4.034c.136-.077.123-.207,0-.284l-8.8-5.073a.555.555,0,0,0-.5,0l-3.608,2.085c-.136.077-.129.207,0,.29l4.647,2.685c.148.084.155.213,0,.284l-2.885,1.672c-.136.077-.129.207,0,.29l3.621,2.085a.542.542,0,0,0,.536,0Zm-23.378-3.227-3.13,1.807c-.136.077-.123.207,0,.284l3.614,2.091a.555.555,0,0,0,.5,0l3.124-1.807c.136-.077.129-.207,0-.29l-3.621-2.091a.562.562,0,0,0-.5.019Zm-4.576,2.64-3.13,1.807a.159.159,0,0,0,0,.29l3.621,2.085a.542.542,0,0,0,.5,0l3.13-1.807a.159.159,0,0,0,0-.29L167.15,274.4a.542.542,0,0,0-.51.013ZM143.8,304.014a.562.562,0,0,0,.5,0l3.13-1.807a.151.151,0,0,0,0-.284l-3.614-2.091a.575.575,0,0,0-.5,0l-3.124,1.807c-.136.077-.129.207,0,.29Zm-13.748-8.462-3.13,1.807a.159.159,0,0,0,0,.29l3.621,2.085a.542.542,0,0,0,.5,0l3.13-1.807a.159.159,0,0,0,0-.29l-3.621-2.085A.542.542,0,0,0,130.051,295.552Zm7.364,6.2a.561.561,0,0,0,.5,0l3.13-1.807a.159.159,0,0,0,0-.29l-3.621-2.091a.542.542,0,0,0-.5,0l-3.13,1.807c-.129.077-.123.2,0,.284Zm14.445,3.873,3.13-1.807c.136-.071.123-.2,0-.284l-3.614-2.091a.555.555,0,0,0-.5,0l-3.13,1.8a.159.159,0,0,0,0,.29l3.621,2.091a.542.542,0,0,0,.5.006Zm-5.073,2.633a.574.574,0,0,0,.5,0l3.124-1.807c.136-.077.129-.207,0-.29l-3.621-2.091a.542.542,0,0,0-.5,0l-3.143,1.814c-.136.071-.129.2,0,.284Zm-12.16-15.361L131.5,294.7a.151.151,0,0,0,0,.284l3.614,2.091a.542.542,0,0,0,.5,0l3.13-1.807c.136-.077.129-.207,0-.29l-3.621-2.091a.562.562,0,0,0-.491.013Zm22.868-13.206-3.13,1.807c-.136.077-.123.207,0,.29l3.614,2.085a.555.555,0,0,0,.5,0l3.13-1.807a.159.159,0,0,0,0-.29l-3.621-2.085a.542.542,0,0,0-.5.006ZM139.216,290.26l-3.13,1.807a.154.154,0,0,0,0,.284l3.621,2.091a.542.542,0,0,0,.5,0l3.13-1.807c.136-.077.123-.207,0-.29l-3.614-2.091a.574.574,0,0,0-.5.006Zm22.868-13.206-3.124,1.807c-.136.077-.129.207,0,.29l3.621,2.085a.542.542,0,0,0,.5,0l3.13-1.807c.136-.077.129-.207,0-.29l-3.614-2.085a.555.555,0,0,0-.529,0Zm-9.146,5.28-3.13,1.807a.159.159,0,0,0,0,.29l3.608,2.085a.562.562,0,0,0,.5,0l3.13-1.807c.136-.077.123-.207,0-.284l-3.627-2.078a.542.542,0,0,0-.5-.013Zm-4.57,2.64-3.13,1.807c-.136.077-.129.207,0,.29l3.621,2.091a.542.542,0,0,0,.5,0l3.13-1.807a.151.151,0,0,0,0-.284l-3.621-2.091a.562.562,0,0,0-.516-.006Zm-4.576,2.646-3.13,1.807c-.136.071-.123.2,0,.284l3.614,2.091a.555.555,0,0,0,.5,0l3.13-1.8a.159.159,0,0,0,0-.29l-3.621-2.091a.542.542,0,0,0-.516,0Zm23.378,3.227,3.13-1.807c.136-.078.129-.207,0-.291l-3.621-2.091a.561.561,0,0,0-.5,0l-3.13,1.807a.151.151,0,0,0,0,.284l3.621,2.091a.542.542,0,0,0,.478-.006Zm40.172-39.907-3.13,1.807a.154.154,0,0,0,0,.284l3.621,2.091a.542.542,0,0,0,.5,0l3.13-1.807c.136-.077.123-.207,0-.29l-3.614-2.091a.575.575,0,0,0-.523-.006Zm-5.538,3.195-3.124,1.807c-.136.077-.129.207,0,.29l3.621,2.085a.542.542,0,0,0,.5,0l3.13-1.807c.136-.077.129-.207,0-.29l-3.614-2.085a.555.555,0,0,0-.529-.013Zm10.114-5.809-3.13,1.807c-.136.071-.123.2,0,.284l3.614,2.091a.574.574,0,0,0,.5,0l3.13-1.807a.159.159,0,0,0,0-.29l-3.621-2.091a.542.542,0,0,0-.516-.032Zm-23.675,24.41,3.13-1.807a.159.159,0,0,0,0-.29l-3.621-2.085a.542.542,0,0,0-.5,0l-3.13,1.807a.159.159,0,0,0,0,.29l3.621,2.085a.542.542,0,0,0,.478-.039Zm28.748-27.044a.555.555,0,0,0-.5,0l-3.124,1.8c-.136.077-.129.207,0,.29l3.621,2.091a.542.542,0,0,0,.5,0l3.13-1.807c.136-.071.129-.2,0-.284Zm-45.245,42.534,3.13-1.8c.136-.077.123-.207,0-.29l-3.614-2.091a.555.555,0,0,0-.5,0l-3.143,1.762c-.129.071-.123.2,0,.284l3.621,2.091a.542.542,0,0,0,.491.006Zm56.089-32.382,3.13-1.807c.136-.077.123-.207,0-.284l-3.614-2.091a.555.555,0,0,0-.5,0l-3.124,1.807c-.136.077-.129.207,0,.29l3.621,2.091a.562.562,0,0,0,.471-.045Zm-9.74-.342,3.13-1.807a.159.159,0,0,0,0-.29l-3.621-2.085a.542.542,0,0,0-.5,0l-3.13,1.807c-.136.077-.123.207,0,.29l3.614,2.085a.555.555,0,0,0,.484-.039Zm4.066-6.822a.555.555,0,0,0-.5,0l-3.124,1.807c-.136.077-.129.207,0,.29l3.621,2.085a.542.542,0,0,0,.5,0l3.13-1.807c.136-.077.129-.207,0-.29Zm.962-.562,8.791,5.08a.562.562,0,0,0,.5,0l3.13-1.807a.154.154,0,0,0,0-.284l-8.791-5.08a.562.562,0,0,0-.5,0l-3.13,1.807c-.168.039-.161.168,0,.245Zm-10.611,5.809-3.13,1.807a.159.159,0,0,0,0,.29L213,258.111a.542.542,0,0,0,.5,0l3.13-1.807c.136-.077.123-.207,0-.29l-3.614-2.085a.555.555,0,0,0-.523-.019Zm-34.441,19.854-3.13,1.807c-.136.077-.123.207,0,.29l3.614,2.091a.555.555,0,0,0,.5,0l3.124-1.807c.136-.077.129-.2,0-.284l-3.6-2.085A.561.561,0,0,0,178.071,273.782Zm44.671-15.342a.555.555,0,0,0,.5,0l3.13-1.807c.129-.071.123-.2,0-.284l-3.64-2.1a.562.562,0,0,0-.5,0l-3.13,1.807c-.136.077-.123.207,0,.29Zm-40.1,12.7-3.124,1.807c-.136.077-.129.207,0,.29l3.621,2.091a.562.562,0,0,0,.5,0l3.13-1.807a.151.151,0,0,0,0-.284l-3.614-2.091A.555.555,0,0,0,182.641,271.142Zm-34.279,30.219a.562.562,0,0,0,.5,0l3.13-1.807a.154.154,0,0,0,0-.284l-3.621-2.091a.542.542,0,0,0-.5,0l-3.13,1.807a.159.159,0,0,0,0,.29Zm-6.88-6.454-3.13,1.8c-.136.077-.129.207,0,.29l3.614,2.091a.555.555,0,0,0,.5,0l3.124-1.807c.136-.071.129-.2,0-.284l-3.614-2.091A.542.542,0,0,0,141.481,294.907Zm11.934,3.873,3.124-1.807c.136-.077.129-.207,0-.29l-3.621-2.085a.542.542,0,0,0-.5,0l-3.13,1.807c-.136.077-.129.207,0,.29l3.614,2.085a.555.555,0,0,0,.51,0Zm4.57-2.64,3.13-1.807c.136-.077.123-.207,0-.29l-3.614-2.085a.555.555,0,0,0-.5,0l-3.13,1.807a.159.159,0,0,0,0,.29l3.621,2.085a.542.542,0,0,0,.516-.026Zm4.576-2.64,3.13-1.807a.159.159,0,0,0,0-.29l-3.621-2.091a.562.562,0,0,0-.5,0l-3.13,1.807c-.136.077-.123.207,0,.284l3.614,2.091a.555.555,0,0,0,.523-.019Zm-16.53-1.207L142.9,294.1a.159.159,0,0,0,0,.29l3.621,2.091a.562.562,0,0,0,.5,0l3.13-1.807c.136-.077.123-.207,0-.284l-3.614-2.091a.574.574,0,0,0-.484-.032Zm4.576-2.64-3.13,1.807c-.136.077-.123.207,0,.29l3.614,2.091a.574.574,0,0,0,.5,0l3.13-1.807a.154.154,0,0,0,0-.284L151.1,289.66a.542.542,0,0,0-.478-.032Zm18.3-10.585-3.124,1.807a.151.151,0,0,0,0,.284l3.621,2.091a.542.542,0,0,0,.5,0l3.13-1.807c.136-.077.129-.207,0-.29l-3.614-2.091a.574.574,0,0,0-.51.006Zm-4.57,2.64-3.13,1.807c-.136.077-.123.207,0,.284l3.614,2.091a.555.555,0,0,0,.5,0l3.13-1.807a.159.159,0,0,0,0-.29l-3.621-2.091a.562.562,0,0,0-.484.006Zm9.146-5.28-3.13,1.807c-.129.071-.123.2,0,.284l3.621,2.091a.542.542,0,0,0,.5,0l3.13-1.8a.159.159,0,0,0,0-.29l-3.621-2.091a.542.542,0,0,0-.484,0ZM155.19,286.988l-3.13,1.807c-.136.077-.129.207,0,.29l3.621,2.085a.542.542,0,0,0,.5,0l3.13-1.807c.136-.077.129-.207,0-.29l-3.621-2.085a.542.542,0,0,0-.484,0Zm4.57-2.64-3.13,1.807a.159.159,0,0,0,0,.29l3.621,2.085a.542.542,0,0,0,.5,0l3.13-1.807c.136-.077.123-.207,0-.29l-3.621-2.085a.542.542,0,0,0-.484,0Zm-3.337,18.64,3.13-1.807a.154.154,0,0,0,0-.284l-3.627-2.117a.542.542,0,0,0-.5,0l-3.13,1.807c-.136.077-.123.207,0,.29l3.614,2.091a.575.575,0,0,0,.523.019Zm-26.844-2.711-3.614-2.085a.555.555,0,0,0-.5,0L122.331,300a.159.159,0,0,0,0,.29l3.621,2.085a.542.542,0,0,0,.5,0l3.13-1.807c.168-.077.155-.207.013-.29Zm6.855,2.014L132.82,300.2a.574.574,0,0,0-.5,0l-4.815,2.775a.159.159,0,0,0,0,.29l3.621,2.091a.542.542,0,0,0,.5,0l4.815-2.775c.2-.077.155-.207.013-.29Zm-12.405-6.048-3.614-2.091a.555.555,0,0,0-.5,0l-3.873,2.227a.154.154,0,0,0,0,.284l3.621,2.091a.542.542,0,0,0,.5,0l3.873-2.227c.168-.077.155-.206.013-.284Zm2.956-1.71a.542.542,0,0,0,.5,0l3.13-1.807a.159.159,0,0,0,0-.29l-3.627-2.046a.542.542,0,0,0-.5,0l-3.13,1.807a.159.159,0,0,0,0,.29Zm15.839,10.056-3.608-2.1a.542.542,0,0,0-.5,0l-6.022,3.472a.159.159,0,0,0,0,.29l3.621,2.085a.542.542,0,0,0,.5,0l6.015-3.472C142.972,304.8,142.966,304.666,142.824,304.589Zm3,4.234-3.621-2.091a.562.562,0,0,0-.5,0l-3.873,2.22a.159.159,0,0,0,0,.29l3.621,2.091a.562.562,0,0,0,.5,0l3.873-2.22c.148-.084.142-.213,0-.3ZM161,274.9a.574.574,0,0,0,.5,0l3.13-1.807a.154.154,0,0,0,0-.284l-3.621-2.091a.542.542,0,0,0-.5,0l-3.13,1.807c-.136.077-.123.207,0,.29Zm-9.146,5.28a.555.555,0,0,0,.5,0l3.124-1.807c.136-.071.129-.2,0-.284L151.86,276a.562.562,0,0,0-.5,0l-3.111,1.807c-.136.077-.129.206,0,.29Zm-20.286,11.708a.555.555,0,0,0,.5,0l3.124-1.807c.136-.077.129-.207,0-.29l-3.621-2.085a.542.542,0,0,0-.5,0l-3.13,1.807c-.136.077-.123.207,0,.29Zm24.862-14.348a.562.562,0,0,0,.5,0l3.13-1.807c.136-.077.123-.207,0-.284l-3.614-2.091a.555.555,0,0,0-.5,0l-3.13,1.807a.159.159,0,0,0,0,.29Zm-9.146,5.28a.542.542,0,0,0,.5,0l3.13-1.8a.159.159,0,0,0,0-.29l-3.621-2.091a.542.542,0,0,0-.5,0l-3.13,1.807c-.129.071-.123.2,0,.284Zm1.059,26.334a.555.555,0,0,0-.5,0l-4.815,2.782a.154.154,0,0,0,0,.284l3.621,2.091a.542.542,0,0,0,.5,0l4.815-2.782a.159.159,0,0,0,0-.29Zm-7.623-22.545a.562.562,0,0,0,.5,0l3.13-1.807a.159.159,0,0,0,0-.29l-3.621-2.091a.562.562,0,0,0-.5,0l-3.13,1.807a.154.154,0,0,0,0,.284Zm-4.576,2.64a.542.542,0,0,0,.5,0l3.13-1.807c.136-.077.129-.207,0-.29l-3.614-2.091a.574.574,0,0,0-.5,0l-3.124,1.807a.151.151,0,0,0,0,.284ZM233.075,260.2a.542.542,0,0,0-.5,0l-7.707,4.447a.159.159,0,0,0,0,.29l3.621,2.091a.562.562,0,0,0,.5,0l7.719-4.4a.151.151,0,0,0,0-.284Zm-10.114,5.809a.562.562,0,0,0-.5,0l-3.13,1.807a.154.154,0,0,0,0,.284l3.621,2.091a.562.562,0,0,0,.5,0l3.13-1.807a.159.159,0,0,0,0-.29ZM161,300.29l3.13-1.807a.151.151,0,0,0,0-.284l-3.614-2a.542.542,0,0,0-.5,0l-3.13,1.807c-.136.077-.129.207,0,.29l3.621,2.091a.561.561,0,0,0,.5-.039Zm52.81-28.993a.542.542,0,0,0-.5,0l-3.13,1.807c-.136.077-.123.207,0,.29l3.614,2.085a.555.555,0,0,0,.5,0l3.13-1.807a.159.159,0,0,0,0-.29Zm23.836-13.761a.555.555,0,0,0-.5,0l-3.13,1.807a.159.159,0,0,0,0,.29l3.621,2.085a.542.542,0,0,0,.5,0l3.13-1.807c.136-.077.123-.207,0-.29Zm8.191-.555-8.791-5.073a.542.542,0,0,0-.5,0l-3.13,1.807c-.136.071-.123.2,0,.284l8.784,5.073a.555.555,0,0,0,.5,0l3.13-1.807c.155-.013.148-.142.006-.226Zm-49.118,24.178a.562.562,0,0,0-.5,0l-3.873,2.22c-.136.077-.123.207,0,.29l3.614,2.091a.574.574,0,0,0,.5,0l3.873-2.22a.159.159,0,0,0,0-.29Zm11.56-6.609a.542.542,0,0,0-.5,0l-4.815,2.782a.159.159,0,0,0,0,.291l3.621,2.085a.542.542,0,0,0,.5,0l4.815-2.782a.154.154,0,0,0,0-.284Zm-22.145,12.786a.542.542,0,0,0-.5,0l-25.759,14.845c-.136.077-.123.207,0,.29l3.614,2.091a.574.574,0,0,0,.5,0l25.753-14.845a.151.151,0,0,0,0-.284Zm-27.2,15.7a.555.555,0,0,0-.5,0l-3.873,2.22a.159.159,0,0,0,0,.29l3.621,2.085a.542.542,0,0,0,.5,0l3.873-2.227c.136-.071.123-.2,0-.284Zm32.5-18.763a.555.555,0,0,0-.5,0l-3.873,2.22c-.136.077-.129.207,0,.29l3.621,2.085a.542.542,0,0,0,.5,0l3.873-2.227c.136-.071.123-.2,0-.284Zm-37.8,21.822a.542.542,0,0,0-.5,0l-3.873,2.227c-.136.077-.123.207,0,.29l3.614,2.085a.555.555,0,0,0,.5,0l3.873-2.227a.151.151,0,0,0,0-.284Zm48.408-27.935a.555.555,0,0,0-.5,0l-3.873,2.227a.151.151,0,0,0,0,.284l3.621,2.091a.562.562,0,0,0,.5,0l3.873-2.227c.136-.077.123-.207,0-.29Zm16.368-9.456a.574.574,0,0,0-.5,0l-3.124,1.807a.151.151,0,0,0,0,.284l3.621,2.091a.542.542,0,0,0,.5,0l3.13-1.807c.136-.077.129-.207,0-.29Zm10.024-7.274,3.124-1.807c.136-.077.129-.207,0-.29l-3.621-2.085a.542.542,0,0,0-.5,0l-3.13,1.807c-.136.077-.129.207,0,.29l3.614,2.085a.555.555,0,0,0,.491,0Zm-20.454-.135,3.13-1.807c.136-.071.123-.2,0-.284l-3.614-2.091a.574.574,0,0,0-.5,0l-3.13,1.807a.159.159,0,0,0,0,.29l3.621,2.091a.542.542,0,0,0,.478-.006Zm-10.327,17.924,9.146-5.28a.159.159,0,0,0,0-.29l-3.685-2.091a.561.561,0,0,0-.5,0l-9.152,5.273c-.136.077-.129.207,0,.29l3.614,2.085a.555.555,0,0,0,.523.013Zm25.74-15.161a.542.542,0,0,0,.5,0l3.13-1.807a.159.159,0,0,0,0-.29l-3.621-2.085a.542.542,0,0,0-.5,0l-3.13,1.807a.159.159,0,0,0,0,.29Zm-4.673-2.969,3.13-1.807a.159.159,0,0,0,0-.29L218.23,256.9a.542.542,0,0,0-.5,0l-3.13,1.807c-.129.071-.123.2,0,.284l3.621,2.091a.562.562,0,0,0,.445.006Zm-25.643,20.77,3.13-1.807a.154.154,0,0,0,0-.284l-3.621-2.091a.542.542,0,0,0-.5,0l-3.13,1.807a.159.159,0,0,0,0,.29l3.621,2.091a.562.562,0,0,0,.445-.006Zm20.2-11.96a.543.543,0,0,0,.5,0l3.13-1.807a.151.151,0,0,0,0-.284l-3.621-2.091a.562.562,0,0,0-.5,0l-3.13,1.807c-.136.077-.129.207,0,.29Zm-43.07,25.172,3.13-1.807a.159.159,0,0,0,0-.29l-3.621-2.085a.542.542,0,0,0-.5,0l-3.13,1.807c-.136.077-.123.207,0,.29l3.614,2.085a.555.555,0,0,0,.452-.007Zm4.57-2.64,3.13-1.807c.136-.077.129-.207,0-.29l-3.614-2.091a.562.562,0,0,0-.5,0l-3.13,1.807a.151.151,0,0,0,0,.284l3.621,2.091a.542.542,0,0,0,.426,0Zm-9.146,5.28,3.13-1.807c.136-.077.123-.207,0-.29l-3.614-2.085a.555.555,0,0,0-.5,0l-3.13,1.807a.159.159,0,0,0,0,.29l3.621,2.085a.542.542,0,0,0,.445-.006Zm18.247-10.553,3.124-1.8c.136-.077.129-.207,0-.29l-3.621-2.091a.542.542,0,0,0-.5,0l-3.13,1.807c-.136.071-.123.2,0,.284l3.614,2.091a.555.555,0,0,0,.51,0Zm-4.576,2.646,3.13-1.807a.159.159,0,0,0,0-.29l-3.621-2.091a.562.562,0,0,0-.5,0l-3.13,1.807a.154.154,0,0,0,0,.284l3.621,2.091a.562.562,0,0,0,.5-.013Zm9.146-5.286,3.13-1.807c.136-.077.123-.207,0-.284l-3.614-2.091a.574.574,0,0,0-.5,0l-3.124,1.807c-.136.077-.129.206,0,.29l3.621,2.091a.561.561,0,0,0,.491-.026Zm20.925-39.062a.555.555,0,0,0,.5,0l3.13-1.807c.129-.071.123-.2,0-.284l-.962-.555a.555.555,0,0,0-.5,0l-3.13,1.807a.159.159,0,0,0,0,.29Zm-22.5,14.522a.542.542,0,0,0,.5,0l3.13-1.807a.159.159,0,0,0,0-.29l-3.621-2.085a.542.542,0,0,0-.5,0l-3.13,1.807a.159.159,0,0,0,0,.29Zm9.139-5.3a.542.542,0,0,0,.5,0l3.13-1.807c.136-.077.123-.207,0-.29l-3.614-2.091a.574.574,0,0,0-.5,0l-3.13,1.807a.154.154,0,0,0,0,.284Zm-14.735,8.507a.574.574,0,0,0,.5,0l3.13-1.807a.159.159,0,0,0,0-.29L181.292,259a.562.562,0,0,0-.5,0l-3.13,1.807c-.136.071-.123.2,0,.284Zm10.159-5.867a.555.555,0,0,0,.5,0l3.124-1.807c.136-.077.129-.207,0-.29l-3.621-2.085a.542.542,0,0,0-.5,0l-3.13,1.807c-.136.077-.129.207,0,.29Zm-19.305,11.121a.542.542,0,0,0,.5,0l3.13-1.807c.136-.077.129-.207,0-.29l-3.627-2.046a.542.542,0,0,0-.5,0l-3.13,1.807c-.136.077-.129.207,0,.29Zm4.583-2.582a.542.542,0,0,0,.5,0l3.13-1.807c.136-.077.123-.207,0-.29l-3.621-2.091a.561.561,0,0,0-.5,0l-3.13,1.807a.154.154,0,0,0,0,.284Zm23.513-15.11a.542.542,0,0,0,.5,0l3.13-1.807c.136-.077.129-.207,0-.29l-.962-.555a.542.542,0,0,0-.5,0l-3.13,1.807c-.136.077-.123.207,0,.29Zm13.722-7.919a.562.562,0,0,0,.5,0l3.13-1.807a.151.151,0,0,0,0-.284l-.962-.555a.542.542,0,0,0-.5,0l-3.13,1.807c-.136.077-.123.207,0,.29Zm7.6,4.389a.562.562,0,0,0,.5,0l3.13-1.807c.136-.077.123-.207,0-.284l-3.621-2.091a.542.542,0,0,0-.5,0l-3.13,1.807a.159.159,0,0,0,0,.29Zm11.431,11.618,3.13-1.807c.136-.077.123-.207,0-.29l-3.614-2.091a.574.574,0,0,0-.5,0l-3.13,1.807a.154.154,0,0,0,0,.284l3.621,2.091a.542.542,0,0,0,.5-.039Zm-28.18-10.714a.562.562,0,0,0,.5,0l3.13-1.807a.159.159,0,0,0,0-.29l-.962-.555a.542.542,0,0,0-.5,0l-3.13,1.807c-.136.077-.129.207,0,.29Zm-37.242,23.029a.555.555,0,0,0,.5,0l3.13-1.807a.159.159,0,0,0,0-.29l-3.621-2.085a.542.542,0,0,0-.5,0l-3.13,1.807c-.136.077-.123.207,0,.29Z" transform="translate(-83.405 -120.956)" fill="#455a64"/>
        <path id="Path_9732" data-name="Path 9732" d="M226.967,320.638l30.884-17.859a3.731,3.731,0,0,1,3.369,0L278.931,313c.929.542.929,1.414,0,1.936L248.04,332.8a3.692,3.692,0,0,1-3.369,0L226.96,322.581A1.027,1.027,0,0,1,226.967,320.638Z" transform="translate(-122.522 -143.027)" fill="#263238"/>
        <g id="freepik--Window--inject-571" transform="translate(13.541 19.851)">
          <path id="Path_9733" data-name="Path 9733" d="M184.165,86.875v4.718L113.87,132.178c-.484.278-.878.052-.878-.51l.052-1.691a8.562,8.562,0,0,0-1.291-.4L90.7,141.731a1.969,1.969,0,0,0-.884,1.53v1.781a1.936,1.936,0,0,1-.878,1.53l-2.427,1.4V143.26a1.936,1.936,0,0,1,.878-1.53l95.9-55.366C183.771,86.087,184.165,86.313,184.165,86.875Z" transform="translate(-86.51 -86.246)" fill="#62c9d5"/>
          <path id="Path_9734" data-name="Path 9734" d="M184.171,160.461a1.936,1.936,0,0,1-.884,1.523l-95.9,55.366c-.484.284-.878.052-.878-.51V150.909l2.427-1.4c.484-.278,1.291-4.557,1.762-4.841l21.054-12.154c.484-.278,1.633,2.879,2.117,2.582L184.165,94.53v65.931Z" transform="translate(-86.51 -89.183)" fill="#ebebeb"/>
          <path id="Path_9735" data-name="Path 9735" d="M92.518,196.443,134.639,172.1c.484-.284.878-.052.878.51v41.4a1.936,1.936,0,0,1-.878,1.53L92.518,239.881c-.484.278-.878.052-.878-.51v-41.4a1.936,1.936,0,0,1,.878-1.53Z" transform="translate(-88.329 -116.645)" fill="#fafafa"/>
          <path id="Path_9736" data-name="Path 9736" d="M92.518,164.558,181.8,113.013c.484-.284.878-.052.878.51v6.2a1.936,1.936,0,0,1-.878,1.523L92.518,172.8c-.484.278-.878.052-.878-.51v-6.2a1.936,1.936,0,0,1,.878-1.53Z" transform="translate(-88.329 -95.694)" fill="#455a64"/>
          <path id="Path_9737" data-name="Path 9737" d="M181.4,140.784v1.639c0,.342.239.478.529.31l25.953-14.987V124.88l-25.953,14.987A1.175,1.175,0,0,0,181.4,140.784Z" transform="translate(-120.154 -99.944)" fill="#fafafa"/>
          <path id="Path_9738" data-name="Path 9738" d="M225.212,122.353a.327.327,0,0,1,.529.3V124.3a1.162,1.162,0,0,1-.529.917l-2.782,1.607v-2.866Z" transform="translate(-134.702 -99.025)" fill="#62c9d5"/>
          <path id="Path_9739" data-name="Path 9739" d="M225.524,125.218l-.316-.1a1.659,1.659,0,0,0,.052-.4.723.723,0,0,0-.284-.645.439.439,0,0,0-.452,0,1.581,1.581,0,0,0-.645,1.291.736.736,0,0,0,.284.645.419.419,0,0,0,.2.052.5.5,0,0,0,.252-.077,1.323,1.323,0,0,0,.5-.645l.31.1h.032a.11.11,0,0,0,.11-.077.116.116,0,0,0-.045-.142Zm-1,.594a.213.213,0,0,1-.219,0,.542.542,0,0,1-.168-.465,1.394,1.394,0,0,1,.5-1.091.329.329,0,0,1,.142-.045.11.11,0,0,1,.077,0c.11.058.168.232.168.458a1.355,1.355,0,0,1-.5,1.142Z" transform="translate(-135.215 -99.637)" fill="#fafafa"/>
          <path id="Path_9740" data-name="Path 9740" d="M184.165,94.53v5.738L86.51,156.647v-5.738l1.814-1.046c.484-.284.645-.71.878-1.53l.613-2.136a2.233,2.233,0,0,1,.884-1.53l21.054-12.154a.775.775,0,0,1,1.239.3l.755,1.368c.278.478.413.762.9.478Z" transform="translate(-86.51 -89.183)" fill="#e6e6e6"/>
          <path id="Path_9741" data-name="Path 9741" d="M230.8,91.726c.645-.355,1.11-.071,1.11.645a2.453,2.453,0,0,1-1.11,1.936c-.645.355-1.117.065-1.117-.645A2.433,2.433,0,0,1,230.8,91.726Z" transform="translate(-137.273 -88.135)" fill="#455a64"/>
          <path id="Path_9742" data-name="Path 9742" d="M224.6,95.3c.613-.355,1.11-.071,1.11.645a2.453,2.453,0,0,1-1.11,1.936c-.645.355-1.11.065-1.11-.645A2.446,2.446,0,0,1,224.6,95.3Z" transform="translate(-135.078 -89.401)" fill="#455a64"/>
          <path id="Path_9743" data-name="Path 9743" d="M218.39,98.916c.613-.355,1.11-.071,1.11.645a2.453,2.453,0,0,1-1.11,1.936c-.645.355-1.11.065-1.11-.645A2.446,2.446,0,0,1,218.39,98.916Z" transform="translate(-132.876 -90.684)" fill="#455a64"/>
          <path id="Path_9744" data-name="Path 9744" d="M91.807,182.263l-1.388.794.529-1.013a.258.258,0,0,0,0-.245c-.045-.052-.116,0-.161.071l-.749,1.446h0v.052a.315.315,0,0,0,0,.077.162.162,0,0,0,0,.058h0v.032h0l.749.581a.084.084,0,0,0,.077,0,.323.323,0,0,0,.084-.11.232.232,0,0,0,0-.239l-.529-.4,1.388-.8a.31.31,0,0,0,.11-.239C91.949,182.27,91.865,182.224,91.807,182.263Z" transform="translate(-87.76 -120.118)" fill="#455a64" opacity="0.5"/>
          <path id="Path_9745" data-name="Path 9745" d="M94.51,180.634l1.388-.8-.529-.407c-.045-.032-.052-.142,0-.232s.11-.142.155-.11l.755.581h0a.194.194,0,0,1,0,.065.322.322,0,0,1,0,.077.263.263,0,0,1,0,.052h0l-.755,1.446a.232.232,0,0,1-.071.084.071.071,0,0,1-.084,0,.258.258,0,0,1,0-.245l.529-1.02-1.388.839c-.065.039-.11,0-.11-.1a.29.29,0,0,1,.11-.226Z" transform="translate(-89.308 -119.16)" fill="#455a64" opacity="0.5"/>
          <path id="Path_9746" data-name="Path 9746" d="M100.76,175.278c0-.084-.084-.071-.116,0l-.194.465c-.323-.039-.716.278-.981.839a1.921,1.921,0,0,0,0,1.936.5.5,0,0,0,.645.039,1.711,1.711,0,0,0,.645-.755c.045-.1.045-.207,0-.245s-.116,0-.155.09c-.258.542-.645.781-.929.536a1.381,1.381,0,0,1,0-1.426c.181-.387.445-.645.645-.645l-.142.349c-.039.09,0,.181.052.142l.568-.368a.194.194,0,0,0,.065-.155Z" transform="translate(-91.014 -117.793)" fill="#455a64" opacity="0.5"/>
          <path id="Path_9747" data-name="Path 9747" d="M124.131,156.658l.51-1.071a.329.329,0,0,0,0-.329c-.065-.058-.161,0-.219.123l-.5,1.071-.5-.491c-.065-.052-.155,0-.219.129a.329.329,0,0,0,0,.329l.5.491-.5,1.065a.336.336,0,0,0,0,.336.1.1,0,0,0,.11,0,.348.348,0,0,0,.11-.136l.5-1.065.5.484a.077.077,0,0,0,.11,0,.284.284,0,0,0,.11-.129.336.336,0,0,0,0-.336Z" transform="translate(-99.501 -110.707)" fill="#455a64" opacity="0.5"/>
          <path id="Path_9748" data-name="Path 9748" d="M104.46,150.31v-1.788a1.936,1.936,0,0,1,.878-1.53l79.35-45.787c.484-.278.878-.052.878.51V103.5a1.936,1.936,0,0,1-.878,1.53l-79.35,45.787C104.854,151.1,104.46,150.871,104.46,150.31Z" transform="translate(-92.874 -91.508)" fill="#fafafa"/>
          <path id="Path_9749" data-name="Path 9749" d="M227.43,102.72l.232.491a.058.058,0,0,0,.071,0l.523-.2c.077,0,.116.084.052.194l-.374.7a.265.265,0,0,0,0,.136l.09.645c0,.1-.077.232-.148.226l-.465-.058a.1.1,0,0,0-.09.052l-.465.594c-.077.09-.161.058-.148-.058l.09-.736a.11.11,0,0,0,0-.1l-.381-.271c-.058-.045,0-.2.058-.265l.516-.394a.239.239,0,0,0,.077-.123l.232-.755C227.262,102.7,227.366,102.643,227.43,102.72Z" transform="translate(-136.107 -92.075)" fill="none" stroke="#e0e0e0" stroke-miterlimit="10" stroke-width="0.75"/>
          <g id="Group_201" data-name="Group 201" transform="translate(93.426 7.454)" opacity="0.5">
            <path id="Path_9750" data-name="Path 9750" d="M231.563,99.825a.316.316,0,0,1-.265-.155.31.31,0,0,1,.116-.42l2.478-1.433a.31.31,0,0,1,.31.529l-2.466,1.433A.271.271,0,0,1,231.563,99.825Z" transform="translate(-231.259 -97.795)" fill="#455a64"/>
            <path id="Path_9751" data-name="Path 9751" d="M231.563,102.045a.316.316,0,0,1-.265-.155.3.3,0,0,1,.116-.413l2.479-1.439a.31.31,0,0,1,.31.529l-2.466,1.439a.323.323,0,0,1-.174.039Z" transform="translate(-231.259 -98.582)" fill="#455a64"/>
            <path id="Path_9752" data-name="Path 9752" d="M231.563,104.256a.3.3,0,0,1-.148-.568l2.478-1.433a.3.3,0,0,1,.42.11.31.31,0,0,1-.11.42l-2.466,1.433A.323.323,0,0,1,231.563,104.256Z" transform="translate(-231.259 -99.36)" fill="#455a64"/>
          </g>
        </g>
        <g id="freepik--question-mark--inject-571" transform="translate(31.488 94.009)">
          <path id="Path_9753" data-name="Path 9753" d="M119.85,216.541c3.543-3.608,4.454-5.247,4.454-6.693s-.607-2.356-2.491-1.291a5.99,5.99,0,0,0-2.788,3.421,2.169,2.169,0,0,1-1.381,1.291l-2.459.542c-.587.136-.981-.239-.839-.826a16.973,16.973,0,0,1,7.61-10.656c4.583-2.646,7.255-.645,7.255,3.821,0,4.292-2.259,7.874-4.518,10.45a3.35,3.35,0,0,0-.7,1.878v1.459a2.091,2.091,0,0,1-.942,1.633l-3.021,1.743c-.523.3-.942.058-.942-.542v-4.4A3.053,3.053,0,0,1,119.85,216.541Z" transform="translate(-114.315 -201.142)" fill="#455a64"/>
          <path id="Path_9754" data-name="Path 9754" d="M121.61,242.2a5.164,5.164,0,0,1,2.5-4.46c1.62-.942,2.466-.11,2.466,1.594a5.164,5.164,0,0,1-2.466,4.479C122.449,244.772,121.61,243.907,121.61,242.2Z" transform="translate(-116.901 -213.98)" fill="#455a64"/>
        </g>
      </g>
    </g>
    <g id="freepik--support-character--inject-571" transform="translate(109.157 59.386)">
      <path id="Path_9755" data-name="Path 9755" d="M241.065,63.045,238.7,61.664h0a1.4,1.4,0,0,0-1.439.136L178.283,95.84a4.479,4.479,0,0,0-2.027,3.5v84.817a1.446,1.446,0,0,0,.574,1.291h0l2.388,1.381,58.012-35.564a4.473,4.473,0,0,0,2.02-3.5Z" transform="translate(-164.661 -61.525)" fill="#62c9d5"/>
      <path id="Path_9756" data-name="Path 9756" d="M179.179,206.457l-2.356-1.362h0a1.42,1.42,0,0,1-.568-1.291V118.968a4.227,4.227,0,0,1,.645-2.1l2.414,1.375a4.2,4.2,0,0,0-.645,2.1v84.823a1.452,1.452,0,0,0,.51,1.284Z" transform="translate(-164.66 -81.149)" opacity="0.15"/>
      <path id="Path_9757" data-name="Path 9757" d="M181.957,97.985,240.93,63.938c1.117-.645,2.02-.123,2.02,1.168v84.817a4.473,4.473,0,0,1-2.02,3.5l-58.974,34.047c-1.117.645-2.027.123-2.027-1.168V101.483a4.479,4.479,0,0,1,2.027-3.5Z" transform="translate(-165.965 -62.283)" fill="#62c9d5"/>
      <path id="Path_9758" data-name="Path 9758" d="M239.065,61.683l2.311,1.336a1.485,1.485,0,0,0-1.355.181L181.046,97.247a4.034,4.034,0,0,0-1.362,1.394l-2.395-1.375a4.073,4.073,0,0,1,1.362-1.407l58.941-34.008a1.394,1.394,0,0,1,1.439-.129Z" transform="translate(-165.029 -61.545)" fill="#fff" opacity="0.4"/>
      <path id="Path_9759" data-name="Path 9759" d="M192.6,106.9l47.227-27.27c.846-.491,1.53-.09,1.53.884v72.554a3.389,3.389,0,0,1-1.53,2.653L192.6,182.944c-.846.484-1.536.09-1.536-.884V109.57A3.363,3.363,0,0,1,192.6,106.9Z" transform="translate(-169.912 -67.872)" fill="#fff"/>
      <path id="Path_9760" data-name="Path 9760" d="M249.98,145.583l.478-.394a5.88,5.88,0,0,0-2.943-1.73l-.155.594A5.376,5.376,0,0,1,249.98,145.583Z" transform="translate(-189.874 -90.576)" fill="#37474f"/>
      <path id="Path_9761" data-name="Path 9761" d="M252.317,148.776l-.975-.955a1.291,1.291,0,0,1,0-1.788h0a1.291,1.291,0,0,1,1.788,0l.968.955a1.291,1.291,0,0,1,0,1.788h0A1.291,1.291,0,0,1,252.317,148.776Z" transform="translate(-191.158 -91.361)" fill="#62c9d5"/>
      <g id="Group_202" data-name="Group 202" transform="translate(21.148 11.553)" clip-path="url(#clip-path)">
        <g id="freepik--character-boy--inject-571" transform="translate(11.089 17.876)">
          <path id="Path_9762" data-name="Path 9762" d="M262.623,176.873,264.8,180.6s14.29-7.577,15.1-8.571.755-3,.878-4.086a11.653,11.653,0,0,0-.562-4.015c-.161-1.136,1.472-1.2,2.278.381.594,1.149.645,2.466,1.149,2.478a14.133,14.133,0,0,0,2.007-1.71c.884-.968,2.485-2.582,3.7-2.362a1.058,1.058,0,0,1,.807.871,5.642,5.642,0,0,0,.452,1.936,3.052,3.052,0,0,1,.478.775,6.784,6.784,0,0,1,0,1.252c.052.6.645.852.71,1.439a9.9,9.9,0,0,1-.148,1.349c0,.29.09.542.09.833a2.7,2.7,0,0,1-.736,1.588,16.878,16.878,0,0,1-4.241,3.55c-1.291.852-3.021,1.607-4.518,2.407s-18.318,13.722-20.557,12.2c-.917-.645-3.33-3.724-5.867-7.171" transform="translate(-225.11 -126.826)" fill="#ffa8a7"/>
          <path id="Path_9763" data-name="Path 9763" d="M250.515,183.175a115.544,115.544,0,0,1-7.1-11.185c-2.582-7.229.342-12.044.342-12.044s3.711-1.149,6.8,3.731c1.362,2.149,4.925,8.191,7.261,12.179" transform="translate(-220.334 -125.809)" fill="#ffa8a7"/>
          <path id="Path_9764" data-name="Path 9764" d="M234.47,159.357s4.092-1.659,6.745-1.484,4.615.923,6.564,4.053c2.582,4.176,6.9,11.392,6.9,11.392a20.763,20.763,0,0,1-8.358,8.939L238.394,170.3Z" transform="translate(-217.54 -125.111)" fill="#455a64"/>
          <g id="freepik--character-boy--inject-571-2" data-name="freepik--character-boy--inject-571">
            <path id="Path_9765" data-name="Path 9765" d="M212.184,166.946a8.823,8.823,0,0,0-2.892,4.253,20.931,20.931,0,0,0-.878,6.235v13.586l-.174,25.714c8.623,2.937,19.583.349,28.78-9.875,0,0-.51-32.917-.51-38.294v-.742c-.336-7.623-6.913-11.16-13.393-7.494L217.67,163.4l-5.467,3.543Z" transform="translate(-208.24 -125.471)" fill="#f0f0f0"/>
            <path id="Path_9766" data-name="Path 9766" d="M216.12,122.916s-4.228-.329-5.163,3.6c-.858,3.5,5.518,17.311,5.376,17.078S216.12,122.916,216.12,122.916Z" transform="translate(-209.175 -112.719)" fill="#263238"/>
            <path id="Path_9767" data-name="Path 9767" d="M234.159,109.418s-1.568-4.221-9.185-1.22c-3.873,1.53-5.325,6.325-5.325,6.325Z" transform="translate(-212.286 -107.121)" fill="#62c9d5"/>
            <path id="Path_9768" data-name="Path 9768" d="M234.159,109.418s-1.568-4.221-9.185-1.22c-3.873,1.53-5.325,6.325-5.325,6.325Z" transform="translate(-212.286 -107.121)" opacity="0.4"/>
            <path id="Path_9769" data-name="Path 9769" d="M223.5,122.535c0,5.809,4.066,9.41,9.088,8.062s9.088-7.1,9.088-12.909-4.331-5.809-9.352-4.454S223.5,116.739,223.5,122.535Z" transform="translate(-213.651 -109.026)" fill="#263238"/>
            <path id="Path_9770" data-name="Path 9770" d="M216.15,142.27s1.336,6.906,1.872,7.958a2.065,2.065,0,0,0,1.646,1.091l-.09-5.086Z" transform="translate(-211.045 -119.583)" fill="#263238"/>
            <path id="Path_9771" data-name="Path 9771" d="M217.022,125.45a3.731,3.731,0,0,0-2.582,1.73c-1.1,1.594-.484,5.506.891,9.126l2.517-.342Z" transform="translate(-210.238 -113.62)" fill="#263238"/>
            <path id="Path_9772" data-name="Path 9772" d="M218.035,131.474c-.51.484-1.226-.445-1.852-1.033s-2.659-1.071-3.679,1.672.9,5.609,2.5,5.764c2.762.258,3.176-1.9,3.176-1.9l.09,11.792c4.641,4.918,12.76-.878,9.107-3.053v-3.5a16.006,16.006,0,0,0,3.724-.775c2.033-.91,3.311-3.1,3.931-5.809.988-4.344,1.362-7.745.523-15.536-.917-8.546-9.778-6.261-14.561-1.5S218.035,131.474,218.035,131.474Z" transform="translate(-209.65 -109.329)" fill="#ffa8a7"/>
            <path id="Path_9773" data-name="Path 9773" d="M220.03,130.591c-.258.077-1.226-1.517-1.852-2.014-.871-.684.252-9.281.252-9.281-1.007-2.22.852-5.57,2.795-6.932a11.353,11.353,0,0,1,4.615-1.7q2.091-.374,4.17-.574a37.762,37.762,0,0,0,5.047-.607,17.427,17.427,0,0,0,3.769-1.368c1.059-.484,1.936.607,1,2.42a13.677,13.677,0,0,1-3.421,4.3c-4.118,3.092-8.9,3.834-13.064,4.292-.936.1-1.142,1.207-1.646,4.208C221.25,125.944,220.882,130.313,220.03,130.591Z" transform="translate(-211.646 -107.433)" fill="#263238"/>
            <path id="Path_9774" data-name="Path 9774" d="M212.159,124.1l-3.059-1.078a2.035,2.035,0,0,1,2.311-1.5A1.912,1.912,0,0,1,212.159,124.1Z" transform="translate(-208.545 -112.202)" fill="#263238"/>
            <path id="Path_9775" data-name="Path 9775" d="M231.133,155.244s-4.518.161-6.119-.387a3.873,3.873,0,0,1-2.194-1.936,6.687,6.687,0,0,0,1.246,2.62c1.162,1.4,7.067,1.078,7.067,1.078Z" transform="translate(-213.41 -123.359)" fill="#f28f8f"/>
            <path id="Path_9776" data-name="Path 9776" d="M233.007,135.5a1.4,1.4,0,0,1-.9,1.291c-.5.129-.9-.252-.9-.852a1.4,1.4,0,0,1,.9-1.33C232.607,134.5,233.007,134.854,233.007,135.5Z" transform="translate(-216.381 -116.86)" fill="#263238"/>
            <path id="Path_9777" data-name="Path 9777" d="M230.615,129.58l-1.936,1.762a1.71,1.71,0,0,1,.452-1.936.9.9,0,0,1,1.485.174Z" transform="translate(-215.441 -114.91)" fill="#263238"/>
            <path id="Path_9778" data-name="Path 9778" d="M235.034,146.93l2.072.342a1.42,1.42,0,0,1-1.407,1.168C235.124,148.35,234.827,147.672,235.034,146.93Z" transform="translate(-217.717 -121.236)" fill="#f28f8f"/>
            <path id="Path_9779" data-name="Path 9779" d="M245.955,126.166l-1.775-1.1c.368-.645,1.052-.988,1.543-.684A1.368,1.368,0,0,1,245.955,126.166Z" transform="translate(-220.983 -113.2)" fill="#263238"/>
            <path id="Path_9780" data-name="Path 9780" d="M244.73,131.89a1.4,1.4,0,0,1-.91,1.336c-.5.129-.91-.252-.91-.852a1.394,1.394,0,0,1,.91-1.33C244.323,130.909,244.73,131.29,244.73,131.89Z" transform="translate(-220.533 -115.594)" fill="#263238"/>
            <path id="Path_9781" data-name="Path 9781" d="M238.77,132.93l.1,6.338,3.259-1.7Z" transform="translate(-219.065 -116.272)" fill="#f28f8f"/>
          </g>
        </g>
        <path id="Path_9782" data-name="Path 9782" d="M193.065,210.109c2.543-26.14,6.654-35.428,13.1-38.029,2.162,1.691,2.511,9.4.065,15.194,0,0-5.383,17.336-5.809,23.236a95.972,95.972,0,0,0,.613,16.53,2.362,2.362,0,0,0,.962,1.665c1.375.942,1.252,2.259,2.22,3.531.762.994,1.485,1.188,1.291,1.549a1.736,1.736,0,0,1-1.936.994,5.2,5.2,0,0,1-1.685-.968,14.116,14.116,0,0,0,1.7,3.937c1.743,2.821,1.614,4.686-2.659,5.209-2.679.329-4.583-1.375-5.764-8.094-.336-1.936-1.162-5.422-1.478-7.926A76.29,76.29,0,0,1,193.065,210.109Z" transform="translate(-191.69 -112.277)" fill="#ffa8a7"/>
        <path id="Path_9783" data-name="Path 9783" d="M208.781,170.16s-4.686,1.51-7.1,5.26-4.828,9.817-6.661,20.654c0,0,2.84,4.092,10.592.936,0,0,3.673-13.787,4.1-19.266C210.162,171.767,208.781,170.16,208.781,170.16Z" transform="translate(-192.464 -111.596)" fill="#455a64"/>
        <path id="Path_9784" data-name="Path 9784" d="M218.225,109.553c-4.383,2.743-6.274,6.074-6.383,10.088a76.958,76.958,0,0,0,.329,8.262,6.758,6.758,0,0,0-2.8,5.163c0,2.717,2.2,4.331,4.918,3.6a6.88,6.88,0,0,0,4.918-6.235,3.543,3.543,0,0,0-2.988-3.724,40.017,40.017,0,0,1,.032-11.56c.975-5.809,11.831-9.159,14.264-5.809C229.785,106.448,224.318,105.712,218.225,109.553Z" transform="translate(-197.552 -89.173)" fill="#62c9d5"/>
        <path id="Path_9785" data-name="Path 9785" d="M218.225,109.553c-4.383,2.743-6.274,6.074-6.383,10.088a76.958,76.958,0,0,0,.329,8.262,6.758,6.758,0,0,0-2.8,5.163c0,2.717,2.2,4.331,4.918,3.6a6.88,6.88,0,0,0,4.918-6.235,3.543,3.543,0,0,0-2.988-3.724,40.017,40.017,0,0,1,.032-11.56c.975-5.809,11.831-9.159,14.264-5.809C229.785,106.448,224.318,105.712,218.225,109.553Z" transform="translate(-197.552 -89.173)" opacity="0.15"/>
        <path id="Path_9786" data-name="Path 9786" d="M218.051,143.4a1.749,1.749,0,0,0-2.356-1.723,3.3,3.3,0,0,0-2.356,2.988,1.749,1.749,0,0,0,2.362,1.7A3.292,3.292,0,0,0,218.051,143.4Z" transform="translate(-198.959 -101.46)" fill="#62c9d5"/>
      </g>
      <path id="Path_9788" data-name="Path 9788" d="M161.394,207.9a2.619,2.619,0,0,0-.29.336h0a1.884,1.884,0,0,0-.342.645h0a.645.645,0,0,0,0,.42.458.458,0,0,0,.136.252.6.6,0,0,0,.116.1l-2.369-1.368a.581.581,0,0,1-.226-.226.736.736,0,0,1,0-.568h0a1.8,1.8,0,0,1,.219-.452,3.8,3.8,0,0,1,.413-.516Z" transform="translate(-158.318 -112.939)" fill="#62c9d5"/>
      <path id="Path_9789" data-name="Path 9789" d="M162.7,202.415c-1.233,1.291-.8,2.162.968,1.936l9.9-1.142V191.12Z" transform="translate(-159.609 -107.475)" fill="#62c9d5"/>
      <path id="Path_9790" data-name="Path 9790" d="M161.39,201.663c-.781.813-.891,1.459-.426,1.775l-2.369-1.368c-.5-.31-.387-.968.4-1.794L169.871,189l2.395,1.388Z" transform="translate(-158.294 -106.723)" fill="#62c9d5"/>
      <path id="Path_9791" data-name="Path 9791" d="M161.394,207.9a2.619,2.619,0,0,0-.29.336h0a2.156,2.156,0,0,0-.342.645h0a.787.787,0,0,0,0,.42.484.484,0,0,0,.136.252.6.6,0,0,0,.116.1l-2.369-1.368a.581.581,0,0,1-.226-.226.736.736,0,0,1,0-.568h0a2.054,2.054,0,0,1,.219-.452,3.8,3.8,0,0,1,.413-.516Z" transform="translate(-158.318 -112.939)" opacity="0.15"/>
      <path id="Path_9792" data-name="Path 9792" d="M172.647,190.368l-10.876,11.3h0l-2.4-1.388h0L170.252,189Z" transform="translate(-158.676 -106.723)" fill="#fff" opacity="0.4"/>
      <path id="Path_9793" data-name="Path 9793" d="M262.332,176.065l2.182,3.731s14.29-7.577,15.1-8.571.755-3,.878-4.086a11.653,11.653,0,0,0-.562-4.015c-.194-1.388,1.8-1.065,2.433-.516a6.01,6.01,0,0,1,1.026,1.491c.31.516.891,2.2,1.485,2.3.465.084,1.388-.574,1.768-.858a22.873,22.873,0,0,0,3.743-4.337,2.137,2.137,0,0,1,.865-.749,2.078,2.078,0,0,1,1.756.458,4,4,0,0,1,1.291,1.149,3.716,3.716,0,0,1,.439,1.142c.645,2.737-.762,5.047-2.42,7.1a24.817,24.817,0,0,1-5.848,5.163c-1.291.852-3.021,1.607-4.518,2.407S264.4,192.123,262.158,190.6A39.718,39.718,0,0,1,255,183.384" transform="translate(-192.582 -96.589)" fill="#ffa8a7"/>
    </g>
    <g id="freepik--Character--inject-571" transform="translate(218.042 82.58)">
      <path id="Path_9794" data-name="Path 9794" d="M429.68,148.53c5.164,0,7.874,1.549,10.017,6.319,2.052,4.563,8.423,17.8,8.107,21.009s-13.4,16.865-13.4,16.865l-3.737-4.518,8.107-13.619-7.984-11.553Z" transform="translate(-363.402 -115.569)" fill="#ffa8a7"/>
      <g id="freepik--character--inject-571-2" data-name="freepik--character--inject-571" transform="translate(0)">
        <path id="Path_9795" data-name="Path 9795" d="M397.817,366.16s.581,1.762.9,3.311c.252,1.226.607,3.272.174,4.2s-2.1,1.517-4.7,1.5c-1.685,0-4.305,1.13-6.1,2.136s-5.712,1.446-7.674,1.213c-2.311-.271-4.705-1.614-5.08-2.582s-.691-2.266,5.57-4.273c.052,0,7.571-2.466,10.2-5.376Z" transform="translate(-344.074 -192.732)" fill="#263238"/>
        <path id="Path_9796" data-name="Path 9796" d="M400.173,366.349l-1.194-.148-5.512.11c-2.633,2.911-10.153,5.364-10.2,5.377l-1,.336c-1.091.878-.168,2.369,2.414,2.582s10.63-2.478,12.412-3.337a5.331,5.331,0,0,0,3.085-4.918Z" transform="translate(-346.43 -192.746)" fill="#ffa8a7"/>
        <path id="Path_9797" data-name="Path 9797" d="M406.575,362.76v2.369c0,.865-1.007,2.143-3.64,2.046-1.846-.065-3.137-.562-3.066-2.085v-2.175Z" transform="translate(-352.831 -191.527)" fill="#ffa8a7"/>
        <path id="Path_9798" data-name="Path 9798" d="M430.167,345.929c.471.194.568,1.11.587,2.924,0,1.368.252,3.769-1.368,4.208s-3.963.123-4.957-1.194a61.588,61.588,0,0,0-3.873-5.112c-1.543-1.749-3.227-3.389-3.8-5.809-.523-2.182,0-3.1,1.478-3.7s2.84-.1,4.905,1.62a9.641,9.641,0,0,0,1.84.975C426.359,340.275,429.69,345.735,430.167,345.929Z" transform="translate(-358.752 -182.396)" fill="#263238"/>
        <path id="Path_9799" data-name="Path 9799" d="M434.331,346.971l-.065,2.227s-1.484,2.911-5.622,0c-.09-.219-.465-4.518-.465-4.518Z" transform="translate(-362.87 -185.116)" fill="#ffa8a7"/>
        <path id="Path_9800" data-name="Path 9800" d="M426.438,340.786a9.645,9.645,0,0,1-1.839-.975h0c-1.665-.536-5.163.084-3.6,2.511a18.8,18.8,0,0,0,4.957,5.086c1.872.923,2.524-.219,2.524-.219l-.645-5.222A4.117,4.117,0,0,0,426.438,340.786Z" transform="translate(-360.186 -183.327)" fill="#ffa8a7"/>
        <path id="Path_9801" data-name="Path 9801" d="M424.461,266.79a52.875,52.875,0,0,0-2.407-11.515s1.4-9.824,2.5-19.24c2.582-22.119.865-22.474-2.259-30.168,0,0-28.354-3.647-29.542,8.145-1.478,14.684-.807,43.16-.562,48.369s.645,7.564,2.22,18.472c1.175,8.307,2.291,26.463,2.291,26.463,3.718,2.143,7.293-.374,7.293-.374s3.556-22.326,3.472-28.335a51.281,51.281,0,0,0-1.936-13.148s2.414-23.933,3.027-27.754c0,0,.684,7.635.936,12.844s1.659,10.211,2.9,19.912c1.078,8.391,2.872,25.966,2.872,25.966,3.718,2.143,6.312,1.175,6.312,1.175S425.28,274.084,424.461,266.79Z" transform="translate(-349.979 -135.71)" fill="#62c9d5"/>
        <path id="Path_9802" data-name="Path 9802" d="M411.09,140.134l1.039,11.024,9.682-.613-.775-12.225Z" transform="translate(-356.811 -111.949)" fill="#ffa8a7"/>
        <path id="Path_9803" data-name="Path 9803" d="M423.8,153.209c-.988-2.917-2.988-4.628-7.423-4.679l-1.633.052c-.31,1.626-5.08,2.943-9.791,1.291-.645.174-2.485.51-3.511.645l-2.259.329c-3.427,1.123-4.944,7.1-5.273,16.53s-1.743,29.651-1.743,29.651,7.377,3.95,19.021,2.42c10.424-1.368,14.477-7.532,14.116-6.745a71.747,71.747,0,0,0-5.383-15.135C425.41,164.072,425.262,157.54,423.8,153.209Z" transform="translate(-350.102 -115.569)" fill="#455a64"/>
        <path id="Path_9804" data-name="Path 9804" d="M412.7,207.088a40.825,40.825,0,0,0,5.77-.349c9.5-1.246,13.709-6.454,14.1-6.8a71.646,71.646,0,0,0-5.37-15.084c2.775-6.816,4.1-11.85,4.557-15.729-.452,2.827-4.628,13.774-10.095,17.059,0,0,3.085.478,5.725,4.1S427.861,206.307,412.7,207.088Z" transform="translate(-357.382 -122.873)" fill="#37474f"/>
        <path id="Path_9805" data-name="Path 9805" d="M378.336,151.59c-4.55.574-8.468,1.388-10.127,5.854a49.558,49.558,0,0,1-9.882,16.472c-2.827,3.027-14.432,8.823-17.046,8.391s-4.97-4.157-6.312-3.382,1.6,3.434,1.439,4.092-4.873-.71-7.1-2.291-3.55,2.956-.645,6.351,8.339,3.66,14.251,2.478,16.717-4.692,21.009-8.694c5.628-5.26,6.654-8.12,9.094-12.651C380.788,162.182,378.336,151.59,378.336,151.59Z" transform="translate(-326.993 -116.654)" fill="#ffa8a7"/>
        <path id="Path_9806" data-name="Path 9806" d="M402.2,112.2s-3.653-4.357-.787-8.6c3.382-5.009,9.333-6.7,16.691-4.518,3.64,1.078,8.991,6.112,9.262,13.173.207,5.441-15.052,9.036-14.806,12.767Z" transform="translate(-352.992 -97.703)" fill="#263238"/>
        <path id="Path_9807" data-name="Path 9807" d="M398.962,122.39s-2.143,3.227-1.865,3.589a5.1,5.1,0,0,0,1.646.7Z" transform="translate(-351.84 -106.301)" fill="#f28f8f"/>
        <path id="Path_9808" data-name="Path 9808" d="M406.326,106.011c-2.085,1.078-5.686,3.066-6.616,10.747-.949,7.881.807,10.617,1.878,11.65.729.7,4.473.949,6.454.342,2.446-.755,7.745-3.369,10.217-7.435,2.917-4.789,3.518-11.166.148-13.67A12.652,12.652,0,0,0,406.326,106.011Z" transform="translate(-352.68 -100.191)" fill="#ffa8a7"/>
        <path id="Path_9809" data-name="Path 9809" d="M408.768,105.442s-1.82,7.19.355,11.734c0,0,1.291-2.808,3.685-2s2.207,4.047.3,5.7a3.6,3.6,0,0,1-3.763.8s.065,3.982,3.466,5.557c0,0,7.1,3.4,13.554-3.466,5.809-6.235,5.08-17.427-3.511-20.26S408.768,105.442,408.768,105.442Z" transform="translate(-355.735 -99.286)" fill="#263238"/>
        <path id="Path_9810" data-name="Path 9810" d="M448.288,141.08h0A10.288,10.288,0,0,1,438,130.753V117.56h0a10.282,10.282,0,0,1,10.282,10.282Z" transform="translate(-366.352 -104.588)" fill="#263238"/>
        <path id="Path_9811" data-name="Path 9811" d="M399.49,100.391c-3.195,3.227-3.376,12.657,5.893,14.968l6.074-16.646C407.92,96.409,402.343,97.474,399.49,100.391Z" transform="translate(-351.995 -97.462)" fill="#263238"/>
        <path id="Path_9812" data-name="Path 9812" d="M407.58,127.2a1.833,1.833,0,1,1,1.246-3.447Z" transform="translate(-355.121 -106.738)" fill="#263238"/>
        <path id="Path_9813" data-name="Path 9813" d="M417.77,248.415l1.543-9.869a21.713,21.713,0,0,0,8.765-3.047s-1.936,2.911-7.035,4.124l-1.575,11.431-.645,11.973Z" transform="translate(-359.179 -146.405)" opacity="0.1"/>
      </g>
    </g>
  </g>
</svg>
