<svg xmlns="http://www.w3.org/2000/svg" width="349.688" height="260.559" viewBox="0 0 349.688 260.559">
  <g id="Add_files-rafiki" data-name="Add files-rafiki" transform="translate(0 -55)">
    <g id="freepik--background-complete--inject-659" transform="translate(0 55)">
      <rect id="Rectangle_1442" data-name="Rectangle 1442" width="349.688" height="0.175" transform="translate(0 228.976)" fill="#ebebeb"/>
      <rect id="Rectangle_1443" data-name="Rectangle 1443" width="23.163" height="0.175" transform="translate(291.486 240.229)" fill="#ebebeb"/>
      <rect id="Rectangle_1444" data-name="Rectangle 1444" width="9.015" height="0.175" transform="translate(182.068 238.039)" fill="#ebebeb"/>
      <rect id="Rectangle_1445" data-name="Rectangle 1445" width="18.981" height="0.175" transform="translate(225.57 238.781)" fill="#ebebeb"/>
      <rect id="Rectangle_1446" data-name="Rectangle 1446" width="39.242" height="0.175" transform="translate(251.544 233.738)" fill="#ebebeb"/>
      <rect id="Rectangle_1447" data-name="Rectangle 1447" width="18.554" height="0.175" transform="translate(36.689 241.83)" fill="#ebebeb"/>
      <rect id="Rectangle_1448" data-name="Rectangle 1448" width="16.086" height="0.175" transform="translate(61.468 241.83)" fill="#ebebeb"/>
      <rect id="Rectangle_1449" data-name="Rectangle 1449" width="42.529" height="0.175" transform="translate(91.618 237.956)" fill="#ebebeb"/>
      <path id="Path_9814" data-name="Path 9814" d="M177.239,252.783H42.2a3.993,3.993,0,0,1-3.986-3.993V58.958A3.993,3.993,0,0,1,42.2,55H177.239a3.993,3.993,0,0,1,3.993,3.993v189.8A3.993,3.993,0,0,1,177.239,252.783ZM42.2,55.14a3.819,3.819,0,0,0-3.812,3.819V248.79a3.819,3.819,0,0,0,3.812,3.819H177.239a3.826,3.826,0,0,0,3.819-3.819V58.958a3.826,3.826,0,0,0-3.819-3.819Z" transform="translate(-11.487 -55)" fill="#ebebeb"/>
      <path id="Path_9815" data-name="Path 9815" d="M393.543,252.783H258.493a4,4,0,0,1-3.993-3.993V58.958A4,4,0,0,1,258.493,55H393.543a3.993,3.993,0,0,1,3.979,3.958V248.79A3.994,3.994,0,0,1,393.543,252.783ZM258.493,55.14a3.826,3.826,0,0,0-3.819,3.819V248.79a3.826,3.826,0,0,0,3.819,3.819H393.543a3.826,3.826,0,0,0,3.819-3.819V58.958a3.826,3.826,0,0,0-3.819-3.819Z" transform="translate(-76.509 -55)" fill="#ebebeb"/>
      <path id="Path_9816" data-name="Path 9816" d="M245.5,260.156c-1.4-4.021-12.442,1.448-16.925,8.113a34.55,34.55,0,0,0-5.658,15.54c.1-7.259.217-15.065.329-22.429.909-1.832,2.979-6.064,4.462-9.421,4.973-11.19,16.785-15.386,20.862-22.422,5.35-9.26,5.315-23.142.769-28.157-3.958-4.35-17.058,25.094-18.533,28.381a87.423,87.423,0,0,0-7.5,27.849c.112-6.917.217-13.288.3-18.184.28-15.981.622-21.121.783-22.7.546-.769,1.189-1.672,1.567-2.154,3.168-4.077,10.2-8.938,13.715-14.869,5.133-8.665,4.308-19.03.7-22.891-3.763-4.035-10.421,5.5-13.953,14.953s-2.021,18.5-3.014,26.352c-.2,1.539-.42,7.385-.615,15.5-1.077-8.728-3.21-14.575-7.169-20.023-4.9-6.7-9.092-14.862-13.071-13.806s-1.853,11.847,1.322,19.429c2.8,6.756,16.785,13.484,18.813,18.918-.245,10.994-.462,24.926-.615,37.892-1.1-6.7-.343-7.26-4.847-17.519-2.672-6.1-13.645-13.617-14.953-9.428s.7,12.106,4.819,17.652c3.343,4.476,10.756,4.469,12.47,7.246.406.65,1.727,3.133,2.483,4.56-.182,15.834-.259,29.814-.168,34.577l.7.049c0-1.231.056-9.288.2-19.946,1.8-5.672,13.925-8.98,17.666-14.883C244.37,272.185,247.188,264.982,245.5,260.156Z" transform="translate(-60.238 -91.334)" fill="#e6e6e6"/>
      <path id="Path_9817" data-name="Path 9817" d="M236.774,377.981H213.513a2.672,2.672,0,0,1-2.623-2.14L209.24,367.7h31.808l-1.658,8.141A2.665,2.665,0,0,1,236.774,377.981Z" transform="translate(-62.903 -149.005)" fill="#f0f0f0"/>
      <path id="Path_9818" data-name="Path 9818" d="M240.454,368.275H207.318a1.56,1.56,0,0,1-1.553-1.4l-.7-6.022a1.567,1.567,0,0,1,1.553-1.734h34.493a1.56,1.56,0,0,1,1.546,1.734l-.7,6.022A1.553,1.553,0,0,1,240.454,368.275Z" transform="translate(-61.645 -146.426)" fill="#f0f0f0"/>
      <rect id="Rectangle_1450" data-name="Rectangle 1450" width="22.275" height="95.052" transform="translate(302.564 226.059) rotate(180)" fill="#f0f0f0"/>
      <rect id="Rectangle_1451" data-name="Rectangle 1451" width="115.411" height="2.916" transform="translate(301.06 228.976) rotate(180)" fill="#f0f0f0"/>
      <rect id="Rectangle_1452" data-name="Rectangle 1452" width="96.129" height="95.052" transform="translate(184.153 131.007)" fill="#f5f5f5"/>
      <rect id="Rectangle_1453" data-name="Rectangle 1453" width="78.617" height="20.128" transform="translate(192.909 168.473)" fill="#f0f0f0"/>
      <rect id="Rectangle_1454" data-name="Rectangle 1454" width="78.617" height="20.128" transform="translate(192.909 194.377)" fill="#f0f0f0"/>
      <rect id="Rectangle_1455" data-name="Rectangle 1455" width="21.995" height="4.343" rx="2.172" transform="translate(243.215 171.941) rotate(180)" fill="#f5f5f5"/>
      <rect id="Rectangle_1456" data-name="Rectangle 1456" width="78.617" height="20.128" transform="translate(192.909 142.568)" fill="#f0f0f0"/>
      <path id="Path_9819" data-name="Path 9819" d="M318.485,261.943H336.13a2.182,2.182,0,0,0,2.175-2.168h0a2.182,2.182,0,0,0-2.175-2.175H318.485a2.182,2.182,0,0,0-2.175,2.175h0A2.182,2.182,0,0,0,318.485,261.943Z" transform="translate(-95.091 -115.907)" fill="#f5f5f5"/>
      <path id="Path_9820" data-name="Path 9820" d="M318.485,336.023H336.13a2.175,2.175,0,0,0,2.175-2.168h0a2.182,2.182,0,0,0-2.175-2.175H318.485a2.182,2.182,0,0,0-2.175,2.175h0A2.175,2.175,0,0,0,318.485,336.023Z" transform="translate(-95.091 -138.177)" fill="#f5f5f5"/>
      <rect id="Rectangle_1457" data-name="Rectangle 1457" width="98.108" height="2.714" transform="translate(280.282 131.007) rotate(180)" fill="#f0f0f0"/>
      <rect id="Rectangle_1458" data-name="Rectangle 1458" width="24.394" height="2.714" transform="translate(280.282 128.3)" fill="#e6e6e6"/>
      <rect id="Rectangle_1459" data-name="Rectangle 1459" width="22.009" height="142.344" transform="translate(125.104 228.976) rotate(180)" fill="#e0e0e0"/>
      <path id="Path_9821" data-name="Path 9821" d="M67.21,307.088H140.9l7.742-175.208H74.952Z" transform="translate(-20.205 -78.112)" fill="#e6e6e6"/>
      <path id="Path_9822" data-name="Path 9822" d="M51.84,307.088h81.519l7.735-175.208H59.582Z" transform="translate(-15.584 -78.112)" fill="#f0f0f0"/>
      <path id="Path_9823" data-name="Path 9823" d="M129.333,302.194l6.518-158.024H71.515L64.99,302.194Z" transform="translate(-19.538 -81.807)" fill="#fff"/>
      <path id="Path_9824" data-name="Path 9824" d="M114.511,302.194,136.38,144.17h-6.861L107.65,302.194Z" transform="translate(-32.362 -81.807)" fill="#fafafa"/>
      <path id="Path_9825" data-name="Path 9825" d="M98.461,302.194,120.33,144.17h-11.7L86.76,302.194Z" transform="translate(-26.082 -81.807)" fill="#fafafa"/>
      <rect id="Rectangle_1460" data-name="Rectangle 1460" width="89.191" height="83.436" transform="translate(294.437 101.493) rotate(180)" fill="#e6e6e6"/>
      <rect id="Rectangle_1461" data-name="Rectangle 1461" width="90.667" height="83.436" transform="translate(293.136 101.493) rotate(180)" fill="#f5f5f5"/>
      <rect id="Rectangle_1462" data-name="Rectangle 1462" width="89.191" height="3.413" transform="translate(294.437 104.906) rotate(180)" fill="#e6e6e6"/>
      <rect id="Rectangle_1463" data-name="Rectangle 1463" width="84.61" height="3.413" transform="translate(284.604 104.906) rotate(180)" fill="#f5f5f5"/>
      <rect id="Rectangle_1464" data-name="Rectangle 1464" width="73.092" height="82.918" transform="translate(289.262 23.226) rotate(90)" fill="#fafafa"/>
      <rect id="Rectangle_1465" data-name="Rectangle 1465" width="73.092" height="0.553" transform="translate(206.903 23.233) rotate(90)" fill="#e6e6e6"/>
      <path id="Path_9826" data-name="Path 9826" d="M379.7,161.3,365.362,88.21H346.57L360.907,161.3Z" transform="translate(-104.187 -64.984)" fill="#fff"/>
      <path id="Path_9827" data-name="Path 9827" d="M352.911,161.3,338.573,88.21H330.09L344.427,161.3Z" transform="translate(-99.233 -64.984)" fill="#fff"/>
      <rect id="Rectangle_1466" data-name="Rectangle 1466" width="78.022" height="0.888" rx="0.444" transform="translate(286.492 14.764) rotate(90)" fill="#ebebeb"/>
      <rect id="Rectangle_1467" data-name="Rectangle 1467" width="95.5" height="12.771" transform="translate(295.941 27.527) rotate(180)" fill="#e6e6e6" opacity="0.5"/>
      <rect id="Rectangle_1468" data-name="Rectangle 1468" width="95.5" height="1.588" transform="translate(295.941 16.344) rotate(180)" fill="#e0e0e0"/>
      <rect id="Rectangle_1469" data-name="Rectangle 1469" width="96.402" height="1.392" rx="0.696" transform="translate(296.395 15.456) rotate(180)" fill="#ebebeb"/>
      <path id="Path_9828" data-name="Path 9828" d="M286.286,94.554h95.738a.329.329,0,0,0,.329-.336h0a.329.329,0,0,0-.329-.329H286.286a.336.336,0,0,0-.336.329h0A.336.336,0,0,0,286.286,94.554Z" transform="translate(-85.964 -66.691)" fill="#fff"/>
    </g>
    <g id="freepik--Shadow--inject-659" transform="translate(39.242 299.725)">
      <ellipse id="freepik--path--inject-659" cx="135.602" cy="7.917" rx="135.602" ry="7.917" fill="#f5f5f5"/>
    </g>
    <g id="freepik--Folder--inject-659" transform="translate(44.638 139.464)">
      <rect id="Rectangle_1470" data-name="Rectangle 1470" width="0.713" height="10.84" transform="translate(0 67.44) rotate(-6.67)" fill="#62c9d5"/>
      <rect id="Rectangle_1471" data-name="Rectangle 1471" width="0.713" height="5.469" transform="translate(1.729 82.212) rotate(-6.67)" fill="#62c9d5"/>
      <path id="Path_9829" data-name="Path 9829" d="M113.518,237.508l-.839-2.357a7.6,7.6,0,0,0-8.043-4.994l-33.423,3.91a7.6,7.6,0,0,0-6.665,8.434l9.511,81.337a5.21,5.21,0,0,0,5.784,4.574l119.593-13.988a5.21,5.21,0,0,0,4.588-5.784l-8.253-70.315a5.21,5.21,0,0,0-5.777-4.574l-69.448,8.127A6.651,6.651,0,0,1,113.518,237.508Z" transform="translate(-64.027 -192.105)" fill="#62c9d5"/>
      <rect id="Rectangle_1472" data-name="Rectangle 1472" width="38.529" height="53.083" transform="translate(15.043 17.563) rotate(-11.27)" fill="#62c9d5"/>
      <rect id="Rectangle_1473" data-name="Rectangle 1473" width="38.529" height="53.083" transform="translate(15.043 17.563) rotate(-11.27)" fill="#fff" opacity="0.7"/>
      <g id="Group_203" data-name="Group 203" transform="translate(22.016 18.431)" opacity="0.4">
        <path id="Path_9830" data-name="Path 9830" d="M121.073,206.234,97.8,210.878a2.1,2.1,0,0,1-2.455-1.637h0a2.1,2.1,0,0,1,1.637-2.455l23.289-4.623a2.1,2.1,0,0,1,2.455,1.637h0A2.1,2.1,0,0,1,121.073,206.234Z" transform="translate(-95.304 -202.124)" fill="#62c9d5"/>
        <path id="Path_9831" data-name="Path 9831" d="M123.527,218.57l-23.275,4.665A2.1,2.1,0,0,1,97.8,221.6h0a2.1,2.1,0,0,1,1.637-2.448l23.275-4.637a2.1,2.1,0,0,1,2.448,1.637h0A2.1,2.1,0,0,1,123.527,218.57Z" transform="translate(-96.045 -205.838)" fill="#62c9d5"/>
        <path id="Path_9832" data-name="Path 9832" d="M125.977,230.865,102.7,235.5a2.1,2.1,0,0,1-2.448-1.637h0a2.1,2.1,0,0,1,1.637-2.448l23.275-4.644a2.1,2.1,0,0,1,2.448,1.637h0A2.1,2.1,0,0,1,125.977,230.865Z" transform="translate(-96.781 -209.523)" fill="#62c9d5"/>
        <path id="Path_9833" data-name="Path 9833" d="M128.433,243.225l-23.275,4.637a2.1,2.1,0,0,1-2.455-1.637h0a2.1,2.1,0,0,1,1.637-2.455l23.275-4.637a2.1,2.1,0,0,1,2.455,1.637h0a2.1,2.1,0,0,1-1.637,2.455Z" transform="translate(-97.517 -213.239)" fill="#62c9d5"/>
        <path id="Path_9834" data-name="Path 9834" d="M124.522,257.3l-16.911,3.371a2.1,2.1,0,0,1-2.448-1.637h0a2.1,2.1,0,0,1,1.637-2.455l16.911-3.371a2.1,2.1,0,0,1,2.448,1.637h0A2.1,2.1,0,0,1,124.522,257.3Z" transform="translate(-98.257 -217.469)" fill="#62c9d5"/>
      </g>
      <rect id="Rectangle_1474" data-name="Rectangle 1474" width="38.529" height="53.083" transform="matrix(0.991, -0.136, 0.136, 0.991, 68.495, 5.222)" fill="#62c9d5"/>
      <rect id="Rectangle_1475" data-name="Rectangle 1475" width="38.529" height="53.083" transform="matrix(0.991, -0.136, 0.136, 0.991, 68.495, 5.222)" fill="#fff" opacity="0.7"/>
      <g id="Group_204" data-name="Group 204" transform="translate(74.993 8.038)" opacity="0.4">
        <path id="Path_9835" data-name="Path 9835" d="M196.935,191.416l-23.513,3.217a2.1,2.1,0,0,1-2.35-1.783h0a2.1,2.1,0,0,1,1.783-2.35l23.513-3.217a2.1,2.1,0,0,1,2.35,1.783h0a2.1,2.1,0,0,1-1.783,2.35Z" transform="translate(-171.054 -187.264)" fill="#62c9d5"/>
        <path id="Path_9836" data-name="Path 9836" d="M198.636,203.848l-23.513,3.217a2.1,2.1,0,0,1-2.35-1.783h0a2.1,2.1,0,0,1,1.783-2.343l23.513-3.217a2.1,2.1,0,0,1,2.35,1.776h0A2.1,2.1,0,0,1,198.636,203.848Z" transform="translate(-171.566 -191.004)" fill="#62c9d5"/>
        <path id="Path_9837" data-name="Path 9837" d="M183.3,219.616l-6.476.888a2.1,2.1,0,0,1-2.35-1.783h0a2.1,2.1,0,0,1,1.783-2.35l6.483-.888a2.1,2.1,0,0,1,2.343,1.783h0a2.1,2.1,0,0,1-1.783,2.35Z" transform="translate(-172.076 -195.742)" fill="#62c9d5"/>
        <path id="Path_9838" data-name="Path 9838" d="M201.268,217.159l-6.483.888a2.1,2.1,0,0,1-2.343-1.783h0a2.1,2.1,0,0,1,1.783-2.35l6.476-.881a2.1,2.1,0,0,1,2.35,1.776h0A2.1,2.1,0,0,1,201.268,217.159Z" transform="translate(-177.479 -195.005)" fill="#62c9d5"/>
        <path id="Path_9839" data-name="Path 9839" d="M202.036,228.716l-23.513,3.217a2.1,2.1,0,0,1-2.35-1.783h0a2.1,2.1,0,0,1,1.783-2.343l23.513-3.224a2.1,2.1,0,0,1,2.35,1.783h0A2.1,2.1,0,0,1,202.036,228.716Z" transform="translate(-172.588 -198.477)" fill="#62c9d5"/>
        <path id="Path_9840" data-name="Path 9840" d="M197.318,242.409l-17.093,2.336a2.1,2.1,0,0,1-2.343-1.776h0a2.1,2.1,0,0,1,1.776-2.35l17.093-2.336a2.1,2.1,0,0,1,2.343,1.776h0A2.1,2.1,0,0,1,197.318,242.409Z" transform="translate(-173.101 -202.596)" fill="#62c9d5"/>
      </g>
      <rect id="Rectangle_1476" data-name="Rectangle 1476" width="38.529" height="53.083" transform="translate(32.265 11.018) rotate(-4.98)" fill="#62c9d5"/>
      <rect id="Rectangle_1477" data-name="Rectangle 1477" width="38.529" height="53.083" transform="translate(32.265 11.018) rotate(-4.98)" fill="#fff" opacity="0.8"/>
      <g id="Group_205" data-name="Group 205" transform="translate(38.351 15.379)" opacity="0.4">
        <path id="Path_9841" data-name="Path 9841" d="M144.572,201.956l-23.646,2.056a2.1,2.1,0,0,1-2.259-1.9h0a2.1,2.1,0,0,1,1.9-2.252l23.646-2.1a2.1,2.1,0,0,1,2.259,1.9h0a2.1,2.1,0,0,1-1.9,2.294Z" transform="translate(-118.661 -197.76)" fill="#62c9d5"/>
        <path id="Path_9842" data-name="Path 9842" d="M145.662,214.471l-23.646,2.1a2.1,2.1,0,0,1-2.259-1.9h0a2.1,2.1,0,0,1,1.9-2.259l23.646-2.1a2.1,2.1,0,0,1,2.259,1.9h0a2.1,2.1,0,0,1-1.9,2.259Z" transform="translate(-118.988 -201.533)" fill="#62c9d5"/>
        <path id="Path_9843" data-name="Path 9843" d="M146.752,226.971l-23.646,2.1a2.1,2.1,0,0,1-2.259-1.9h0a2.1,2.1,0,0,1,1.9-2.259l23.646-2.1a2.1,2.1,0,0,1,2.259,1.9h0A2.1,2.1,0,0,1,146.752,226.971Z" transform="translate(-119.316 -205.291)" fill="#62c9d5"/>
        <path id="Path_9844" data-name="Path 9844" d="M147.862,239.489l-23.646,2.1a2.1,2.1,0,0,1-2.259-1.9h0a2.1,2.1,0,0,1,1.9-2.259l23.646-2.056a2.1,2.1,0,0,1,2.259,1.9h0a2.1,2.1,0,0,1-1.9,2.217Z" transform="translate(-119.65 -209.066)" fill="#62c9d5"/>
        <path id="Path_9845" data-name="Path 9845" d="M142.461,252.781l-17.184,1.5a2.1,2.1,0,0,1-2.28-1.9h0a2.1,2.1,0,0,1,1.9-2.259l17.184-1.5a2.1,2.1,0,0,1,2.259,1.9h0A2.1,2.1,0,0,1,142.461,252.781Z" transform="translate(-119.962 -213.05)" fill="#62c9d5"/>
      </g>
      <rect id="Rectangle_1478" data-name="Rectangle 1478" width="38.529" height="53.083" transform="translate(78.934 6.959) rotate(-2.76)" fill="#62c9d5"/>
      <rect id="Rectangle_1479" data-name="Rectangle 1479" width="38.529" height="53.083" transform="translate(78.934 6.959) rotate(-2.76)" fill="#fff" opacity="0.8"/>
      <g id="Group_206" data-name="Group 206" transform="translate(84.696 12.573)" opacity="0.4">
        <path id="Path_9846" data-name="Path 9846" d="M210.813,197.91l-23.7,1.147a2.1,2.1,0,0,1-2.182-1.979h0a2.1,2.1,0,0,1,1.979-2.182l23.709-1.147a2.1,2.1,0,0,1,2.182,1.979h0A2.1,2.1,0,0,1,210.813,197.91Z" transform="translate(-184.927 -193.747)" fill="#62c9d5"/>
        <path id="Path_9847" data-name="Path 9847" d="M211.42,210.447l-23.709,1.14a2.1,2.1,0,0,1-2.182-1.979h0a2.1,2.1,0,0,1,1.986-2.182l23.7-1.147a2.1,2.1,0,0,1,2.182,1.986h0a2.1,2.1,0,0,1-1.979,2.182Z" transform="translate(-185.108 -197.514)" fill="#62c9d5"/>
        <path id="Path_9848" data-name="Path 9848" d="M194.853,224.208l-6.532.315a2.1,2.1,0,0,1-2.182-1.979h0a2.1,2.1,0,0,1,1.979-2.182l6.532-.322a2.1,2.1,0,0,1,2.182,1.986h0A2.1,2.1,0,0,1,194.853,224.208Z" transform="translate(-185.291 -201.651)" fill="#62c9d5"/>
        <path id="Path_9849" data-name="Path 9849" d="M212.963,223.29l-6.532.315a2.1,2.1,0,0,1-2.182-1.979h0a2.1,2.1,0,0,1,1.979-2.182l6.532-.315a2.1,2.1,0,0,1,2.182,1.979h0A2.1,2.1,0,0,1,212.963,223.29Z" transform="translate(-190.735 -201.377)" fill="#62c9d5"/>
        <path id="Path_9850" data-name="Path 9850" d="M212.63,235.517l-23.709,1.14a2.1,2.1,0,0,1-2.182-1.979h0a2.1,2.1,0,0,1,1.986-2.182l23.7-1.147a2.1,2.1,0,0,1,2.182,1.986h0A2.1,2.1,0,0,1,212.63,235.517Z" transform="translate(-185.471 -205.051)" fill="#62c9d5"/>
        <path id="Path_9851" data-name="Path 9851" d="M206.757,248.5l-17.226.832a2.1,2.1,0,0,1-2.182-1.979h0a2.1,2.1,0,0,1,1.979-2.182l17.226-.832a2.1,2.1,0,0,1,2.182,1.979h0A2.1,2.1,0,0,1,206.757,248.5Z" transform="translate(-185.655 -208.956)" fill="#62c9d5"/>
      </g>
      <path id="Path_9852" data-name="Path 9852" d="M128.83,239.714l-.615-2.3a6.728,6.728,0,0,0-7.49-4.9L87.3,236.427a8.393,8.393,0,0,0-7.371,8.295l1.9,79.624a4.595,4.595,0,0,0,5.294,4.462L206.713,314.82a5.749,5.749,0,0,0,5.057-5.672l-1.637-68.832a4.6,4.6,0,0,0-5.3-4.462l-69.441,8.12a5.882,5.882,0,0,1-6.56-4.259Z" transform="translate(-68.667 -192.808)" fill="#62c9d5"/>
      <path id="Path_9853" data-name="Path 9853" d="M128.83,239.714l-.615-2.3a6.728,6.728,0,0,0-7.49-4.9L87.3,236.427a8.393,8.393,0,0,0-7.371,8.295l1.9,79.624a4.595,4.595,0,0,0,5.294,4.462L206.713,314.82a5.749,5.749,0,0,0,5.057-5.672l-1.637-68.832a4.6,4.6,0,0,0-5.3-4.462l-69.441,8.12a5.882,5.882,0,0,1-6.56-4.259Z" transform="translate(-68.667 -192.808)" opacity="0.3"/>
    </g>
    <g id="freepik--Character--inject-659" transform="translate(188.495 95.41)">
      <path id="Path_9854" data-name="Path 9854" d="M309.83,187.674c-.518,2.595-1.07,5.154-1.692,7.693s-1.231,5.105-1.909,7.644l-1.035,3.8-.133.49c-.063.21-.133.42-.217.636a6.423,6.423,0,0,1-.7,1.35,4.9,4.9,0,0,1-1.308,1.329,4.2,4.2,0,0,1-1.909.7,5.476,5.476,0,0,1-2.986-.636,10.942,10.942,0,0,1-1.944-1.35,16.936,16.936,0,0,1-2.846-3.21l1.993-1.734a24.382,24.382,0,0,0,3.007,2,7.286,7.286,0,0,0,1.441.622c.427.14.8.119.8.049s-.07,0-.1,0,0,0,0-.119a2.341,2.341,0,0,1,.133-.427l.161-.776.811-3.819,1.644-7.637c.531-2.546,1.1-5.1,1.658-7.616Z" transform="translate(-276.623 -134.99)" fill="#ffc3bd"/>
      <path id="Path_9855" data-name="Path 9855" d="M311.22,176.276c-5.966,4.567-5.721,13.176-5.721,13.176L316.165,192s3.28-8.658,1.951-11.826C316.731,176.877,314.584,173.7,311.22,176.276Z" transform="translate(-280.335 -131.585)" fill="#263238"/>
      <path id="Path_9856" data-name="Path 9856" d="M294.172,210.463l-3.923-3.923-2.1,6.141a7.436,7.436,0,0,0,6.483.1Z" transform="translate(-275.12 -140.966)" fill="#ffc3bd"/>
      <path id="Path_9857" data-name="Path 9857" d="M283.07,205.67l-.72,4.854,4.035,1.9,2.119-6.141Z" transform="translate(-273.376 -140.705)" fill="#ffc3bd"/>
      <path id="Path_9858" data-name="Path 9858" d="M357.856,402.718l-6,.587-6.245-14.288,6-.587Z" transform="translate(-292.394 -195.647)" fill="#ffc3bd"/>
      <path id="Path_9859" data-name="Path 9859" d="M412.279,374.063l-4.511,4.231L398.04,367.6l4.511-4.231Z" transform="translate(-308.156 -188.113)" fill="#ffc3bd"/>
      <path id="Path_9860" data-name="Path 9860" d="M408.584,379.075l3.385-6.1a.5.5,0,0,1,.615-.231l5.21,1.986a.993.993,0,0,1,.483,1.4c-1.217,2.1-1.909,3.063-3.4,5.749-.916,1.65-2.7,5.434-3.966,7.693s-3.588,1.154-3.266.091c1.448-4.77,1.175-7.42.769-9.518A1.608,1.608,0,0,1,408.584,379.075Z" transform="translate(-311.035 -190.922)" fill="#263238"/>
      <path id="Path_9861" data-name="Path 9861" d="M348.671,407.05h7.371a.6.6,0,0,1,.58.448l1.6,5.826a.916.916,0,0,1-.9,1.168H340.356c-2.7,0-3.259-2.721-2.147-2.972,5-1.105,7.875-2.63,9.421-4.084a1.525,1.525,0,0,1,1.042-.385Z" transform="translate(-290.007 -201.244)" fill="#263238"/>
      <path id="Path_9862" data-name="Path 9862" d="M345.62,389.027l3.217,7.364H355.1l-3.476-7.952Z" transform="translate(-292.397 -195.65)" opacity="0.2"/>
      <path id="Path_9863" data-name="Path 9863" d="M402.551,363.38l-4.511,4.231,5.022,5.511,4.511-4.238Z" transform="translate(-308.156 -188.116)" opacity="0.2"/>
      <path id="Path_9864" data-name="Path 9864" d="M316.1,173.865s-2.7,1.182,6.35,36.99l25.136-2.175c-1.3-10.19-1.86-16.5,1.21-37.92A74,74,0,0,0,338,170.277a80.5,80.5,0,0,0-11.414.986A106.442,106.442,0,0,0,316.1,173.865Z" transform="translate(-283.409 -130.056)" fill="#263238"/>
      <path id="Path_9865" data-name="Path 9865" d="M343.729,170h3.105c1.014,1.56-2.273,8.393-7.693,12.861a13.778,13.778,0,0,0-4.371-6.336Z" transform="translate(-289.135 -129.982)" fill="#fff"/>
      <path id="Path_9866" data-name="Path 9866" d="M329.725,171.57s-.636.091-2.154.441c-1.014,1.56-2.728,8.225.259,11.624a13.414,13.414,0,0,1,4.329-6.581Z" transform="translate(-286.545 -130.454)" fill="#fff"/>
      <path id="Path_9867" data-name="Path 9867" d="M340.245,152.05c-.4,3.735-.539,10.491,2.245,12.757a42.275,42.275,0,0,1-8.98,6.378c-4.371-3.021-2.434-5.392-2.434-5.392,4.007-1.329,3.637-4.357,2.679-7.155Z" transform="translate(-287.896 -124.585)" fill="#ffc3bd"/>
      <path id="Path_9868" data-name="Path 9868" d="M334.59,178s3.686-4.014,5.6-3.245.434,2.147.266,3.441.741,4.735-1.811,3.84S334.59,178,334.59,178Z" transform="translate(-289.081 -131.382)" fill="#62c9d5"/>
      <path id="Path_9869" data-name="Path 9869" d="M332.36,178.158s-1.741-3.077-3.623-2.665-.762,1.49-.594,2.651c.217,1.483-1.35,4.336.916,3.5A6.616,6.616,0,0,0,332.36,178.158Z" transform="translate(-286.998 -131.622)" fill="#62c9d5"/>
      <g id="Group_207" data-name="Group 207" transform="translate(44.394 45.306)" opacity="0.2">
        <path id="Path_9870" data-name="Path 9870" d="M333,178.126a3.993,3.993,0,0,0,.35,1.8,8.4,8.4,0,0,0,.608-1.133,8.468,8.468,0,0,0-.888-1.238A1.572,1.572,0,0,0,333,178.126Z" transform="translate(-332.995 -177.56)"/>
        <path id="Path_9871" data-name="Path 9871" d="M335.936,177.58c-.79.7-1.336,1.3-1.336,1.3a9.536,9.536,0,0,0,.7,1.21,2.406,2.406,0,0,0,.7-1.588A1.658,1.658,0,0,0,335.936,177.58Z" transform="translate(-333.478 -177.566)"/>
      </g>
      <path id="Path_9872" data-name="Path 9872" d="M334.151,180.069c-.525,0-.846-.566-.881-1.916s1-.6,1-.6,1.4-.7,1.147.916C335.235,179.747,334.689,180.069,334.151,180.069Z" transform="translate(-288.684 -132.189)" fill="#62c9d5"/>
      <path id="Path_9873" data-name="Path 9873" d="M338.94,155.9l-3.84,3.9a12.333,12.333,0,0,1,.525,1.993c1.546-.357,3.784-1.965,3.8-3.616A6.489,6.489,0,0,0,338.94,155.9Z" transform="translate(-289.234 -125.743)" opacity="0.2"/>
      <path id="Path_9874" data-name="Path 9874" d="M332.6,132.632s-4.2,5.812-4.9,8.393c-2.853,1.665-3.427-6.525-1.916-11.575C330.5,132.408,332.6,132.632,332.6,132.632Z" transform="translate(-286.192 -117.791)" fill="#263238"/>
      <path id="Path_9875" data-name="Path 9875" d="M341.112,139.137c-1.56,5.966-2.1,8.525-5.749,11.022-5.5,3.763-12.491.546-12.75-5.77-.231-5.679,2.357-14.484,8.742-15.722a8.392,8.392,0,0,1,9.756,10.47Z" transform="translate(-285.477 -117.506)" fill="#ffc3bd"/>
      <path id="Path_9876" data-name="Path 9876" d="M351.159,138.878s-3,4.861-3.406,6.994c-2.175,1.476-3.091-5-2.175-9.092C346.578,133.136,351.159,138.878,351.159,138.878Z" transform="translate(-292.278 -119.631)" fill="#263238"/>
      <path id="Path_9877" data-name="Path 9877" d="M348.427,128.649c-.867.657-1.783-1.769-.923-3.63-1.658.1-3.651-.881-3.224-2.483-3.266,1.1-4.476-2.224-4.1-4.525.455-2.8,2.888-3.392,4.322-2.658,0-1.252,3.161-3.861,4.364-1.818,2.231-.79,5.826-.546,5.749,2.2,1.476.042,5.833,1.713,4.2,5.6,1.923.112,2.965,2.553,1.9,4.4a2.972,2.972,0,0,1,.608,4.826c.888,1.846-1.8,4.595-3.238,4.266-1.091,1.671-2.763,2.93-3.854,1.5-2.1,1.546-4.511-.42-3.972-1.93C347.874,134.027,345.448,130.061,348.427,128.649Z" transform="translate(-290.742 -112.78)" fill="#263238"/>
      <path id="Path_9878" data-name="Path 9878" d="M353.921,125.69c1.567,2.616,1.434,5.6-.287,6.609s-4.4-.245-5.966-2.86-1.441-5.6.287-6.609S352.354,123.082,353.921,125.69Z" transform="translate(-292.683 -115.696)" fill="#62c9d5"/>
      <path id="Path_9879" data-name="Path 9879" d="M331.565,129.055c-.091.748-2.154.552-2.749-.769-.853.9-2.86,1.357-3.546.385a2.385,2.385,0,0,1-4.1.566c-.6-1.042-1-2.979.21-3.364-.7-.6-.49-3.434,1.343-3.077.769-1.511,2.874-3.224,4.413-1.888.839-.7,4.2-2.154,5.553.511a2.385,2.385,0,0,1,3.574,1.119,2.284,2.284,0,0,1,3.112,1.979c1.546.42,1.651,3.091.7,3.665.371,1.35.175,2.8-1.245,2.672-.273,1.818-2.707,2.1-3.28,1.112C333.971,132.979,330.747,131.216,331.565,129.055Z" transform="translate(-284.874 -114.914)" fill="#263238"/>
      <path id="Path_9880" data-name="Path 9880" d="M331,124.668c1.769-2.448,8.225-3.5,13.813.2,5.036,3.308,4.707,10.994.7,10.582s-7.966-5.105-7.966-5.105Z" transform="translate(-288.002 -115.688)" fill="#263238"/>
      <path id="Path_9881" data-name="Path 9881" d="M347.77,150.088a4.518,4.518,0,0,1-2.644,2.2c-1.518.455-2.3-.888-1.909-2.336.357-1.3,1.567-3.105,3.1-2.923a2.021,2.021,0,0,1,1.455,3.063Z" transform="translate(-291.644 -123.071)" fill="#ffc3bd"/>
      <path id="Path_9882" data-name="Path 9882" d="M323.29,227.637s-8.5,37.626-2.8,64.154c3.8,17.764,17.484,53.649,17.484,53.649l10.728-.273s-10.386-37.661-12.533-52.453C332.5,267.382,341.7,226.07,341.7,226.07Z" transform="translate(-284.251 -146.838)" fill="#62c9d5"/>
      <path id="Path_9883" data-name="Path 9883" d="M338.363,239.18l5.343,8.455a259.4,259.4,0,0,0-3.07,30.283C333.118,264.42,336.713,246.321,338.363,239.18Z" transform="translate(-289.518 -150.779)" opacity="0.2"/>
      <path id="Path_9884" data-name="Path 9884" d="M343.735,395.656l13.246-.343-.762-4.063-13.519.636Z" transform="translate(-291.519 -196.495)" fill="#263238"/>
      <path id="Path_9885" data-name="Path 9885" d="M333.2,226.985s4.987,39.9,15.806,61.685c8.735,17.6,32.045,42.662,32.045,42.662l5.959-6.141s-15.743-27.22-22.233-38.906c-15.925-28.674-2.909-50.53-11.938-61.055Z" transform="translate(-288.663 -146.585)" fill="#62c9d5"/>
      <path id="Path_9886" data-name="Path 9886" d="M399.461,373.373l7.693-7.5L404.6,362.4l-8.162,8.141Z" transform="translate(-307.675 -187.822)" fill="#263238"/>
      <path id="Path_9887" data-name="Path 9887" d="M350.341,222.981l1.329,2.154c.1.161-.091.357-.378.385l-26.366,2.28c-.224,0-.42-.077-.448-.217l-.42-2.231c-.035-.154.154-.3.4-.322l25.457-2.2A.448.448,0,0,1,350.341,222.981Z" transform="translate(-285.914 -145.86)" fill="#62c9d5"/>
      <path id="Path_9888" data-name="Path 9888" d="M350.341,222.981l1.329,2.154c.1.161-.091.357-.378.385l-26.366,2.28c-.224,0-.42-.077-.448-.217l-.42-2.231c-.035-.154.154-.3.4-.322l25.457-2.2A.448.448,0,0,1,350.341,222.981Z" transform="translate(-285.914 -145.86)" fill="#fff" opacity="0.5"/>
      <path id="Path_9889" data-name="Path 9889" d="M356.732,226.138l.7-.056c.133,0,.231-.091.217-.175l-.574-2.9c0-.091-.14-.147-.28-.133l-.7.056c-.14,0-.238.091-.217.175l.573,2.9C356.473,226.089,356.6,226.152,356.732,226.138Z" transform="translate(-295.48 -145.878)" fill="#62c9d5"/>
      <path id="Path_9890" data-name="Path 9890" d="M327.7,228.647l.7-.056c.133,0,.231-.091.217-.175l-.573-2.9a.252.252,0,0,0-.28-.133l-.7.056c-.14,0-.238.091-.217.175l.574,2.9C327.443,228.612,327.569,228.66,327.7,228.647Z" transform="translate(-286.753 -146.63)" fill="#62c9d5"/>
      <path id="Path_9891" data-name="Path 9891" d="M342.226,227.4l.7-.063c.14,0,.238-.091.217-.175l-.574-2.9c0-.084-.14-.147-.273-.133l-.7.063c-.133,0-.231.091-.217.175l.574,2.9C341.967,227.346,342.086,227.4,342.226,227.4Z" transform="translate(-291.122 -146.254)" fill="#62c9d5"/>
      <path id="Path_9892" data-name="Path 9892" d="M334.118,142.984c-.1.49-.434.839-.755.776s-.5-.518-.413-1.007.441-.839.762-.776S334.216,142.487,334.118,142.984Z" transform="translate(-288.581 -121.555)" fill="#263238"/>
      <ellipse id="Ellipse_53" data-name="Ellipse 53" cx="0.909" cy="0.594" rx="0.909" ry="0.594" transform="translate(38.626 20.991) rotate(-78.88)" fill="#263238"/>
      <path id="Path_9893" data-name="Path 9893" d="M325.819,140.253l-1.119-.573S325.127,140.722,325.819,140.253Z" transform="translate(-286.108 -120.867)" fill="#263238"/>
      <path id="Path_9894" data-name="Path 9894" d="M328.394,143.61a13.289,13.289,0,0,1-2.364,2.8,2.14,2.14,0,0,0,1.685.7Z" transform="translate(-286.508 -122.048)" fill="#ed847e"/>
      <path id="Path_9895" data-name="Path 9895" d="M331.249,151.356a4.1,4.1,0,0,0,2.8-1.063.126.126,0,1,0-.182-.168,3.987,3.987,0,0,1-3.5.9.119.119,0,0,0-.14.1.112.112,0,0,0,.1.14,4.28,4.28,0,0,0,.923.091Z" transform="translate(-287.769 -123.989)" fill="#263238"/>
      <path id="Path_9896" data-name="Path 9896" d="M338.429,139.929a.259.259,0,0,0,.126-.035.245.245,0,0,0,.084-.336,2.86,2.86,0,0,0-2.217-1.4.245.245,0,1,0-.014.49,2.378,2.378,0,0,1,1.811,1.2A.245.245,0,0,0,338.429,139.929Z" transform="translate(-289.556 -120.41)" fill="#263238"/>
      <path id="Path_9897" data-name="Path 9897" d="M324.374,137.514a.266.266,0,0,0,.119,0,2.4,2.4,0,0,1,2.168-.14.245.245,0,0,0,.224-.434,2.853,2.853,0,0,0-2.637.147.245.245,0,0,0-.091.329A.231.231,0,0,0,324.374,137.514Z" transform="translate(-285.936 -119.967)" fill="#263238"/>
      <path id="Path_9898" data-name="Path 9898" d="M357.836,179.16c.476.462.8.825,1.175,1.238s.7.818,1.035,1.231c.664.832,1.3,1.686,1.9,2.56a42.15,42.15,0,0,1,3.133,5.532,35.846,35.846,0,0,1,2.175,5.994c.273,1.028.518,2.1.7,3.126a6.7,6.7,0,0,1-.483,4.42,5.839,5.839,0,0,1-1.56,1.86,7.883,7.883,0,0,1-1.825,1.049,13.22,13.22,0,0,1-3.5.825,29.376,29.376,0,0,1-6.385-.084,65.535,65.535,0,0,1-11.959-2.539l.643-2.539c1.9.315,3.861.608,5.791.811s3.875.385,5.784.427a30.3,30.3,0,0,0,5.532-.308,8.77,8.77,0,0,0,2.28-.7,1.923,1.923,0,0,0,1.028-.916,1.4,1.4,0,0,0,.084-.5,2.457,2.457,0,0,0,0-.378,2.529,2.529,0,0,0-.112-.525c-.2-.9-.455-1.79-.734-2.672a36.587,36.587,0,0,0-2.1-5.119,37.459,37.459,0,0,0-2.853-4.777c-.525-.769-1.077-1.518-1.651-2.238-.287-.364-.587-.7-.881-1.056s-.629-.7-.86-.951Z" transform="translate(-291.381 -132.735)" fill="#ffc3bd"/>
      <path id="Path_9899" data-name="Path 9899" d="M343.249,211.015l-4.9-2.595-.224,6.483s3.5.224,5.5-1.4Z" transform="translate(-290.145 -141.532)" fill="#ffc3bd"/>
      <path id="Path_9900" data-name="Path 9900" d="M317.892,239.231l4.042-43.928-8.637-6.616-26.366-2.427-4.581,49.7Z" transform="translate(-273.376 -134.87)" fill="#62c9d5"/>
      <path id="Path_9901" data-name="Path 9901" d="M317.892,239.231l4.042-43.928-8.637-6.616-26.366-2.427-4.581,49.7Z" transform="translate(-273.376 -134.87)" fill="#fff" opacity="0.8"/>
      <path id="Path_9902" data-name="Path 9902" d="M335.237,196.346,326.6,189.73l2.266,7.917Z" transform="translate(-286.679 -135.913)" fill="#62c9d5"/>
      <circle id="Ellipse_54" data-name="Ellipse 54" cx="10.77" cy="10.77" r="10.77" transform="translate(1.294 87.226)" fill="#62c9d5"/>
      <circle id="Ellipse_55" data-name="Ellipse 55" cx="8.588" cy="8.588" r="8.588" transform="matrix(0.785, -0.62, 0.62, 0.785, 0, 96.574)" fill="#fff"/>
      <path id="Path_9903" data-name="Path 9903" d="M289.8,249.863l-3.791-.441.441-3.791-2.714-.322-.441,3.791-3.791-.448-.322,2.721,3.791.448-.448,3.784,2.721.322.441-3.791,3.791.448Z" transform="translate(-272.423 -152.622)" fill="#62c9d5"/>
      <path id="Path_9904" data-name="Path 9904" d="M318.941,210.07h0a2.937,2.937,0,0,1-3.2,2.658l-19.233-1.769a2.944,2.944,0,0,1-2.658-3.2h0a2.937,2.937,0,0,1,3.2-2.658l19.233,1.769a2.937,2.937,0,0,1,2.658,3.2Z" transform="translate(-276.831 -140.531)" fill="#62c9d5" opacity="0.4"/>
      <path id="Path_9905" data-name="Path 9905" d="M312.06,221.649h0a2.937,2.937,0,0,1-3.2,2.658l-13.442-1.238a2.937,2.937,0,0,1-2.658-3.2h0a2.937,2.937,0,0,1,3.2-2.658L309.4,218.46A2.944,2.944,0,0,1,312.06,221.649Z" transform="translate(-276.504 -144.172)" fill="#62c9d5" opacity="0.4"/>
      <path id="Path_9906" data-name="Path 9906" d="M334.17,208.8l.734,4.847,2.028,1.252.224-6.483Z" transform="translate(-288.955 -141.532)" fill="#ffc3bd"/>
      <path id="Path_9907" data-name="Path 9907" d="M360.322,170.955c3.084.546,7.406,9.386,7.406,9.386l-7.77,6.994s-6.182-6.742-5.854-10.756C354.391,173.186,356.406,170.256,360.322,170.955Z" transform="translate(-294.944 -130.237)" fill="#263238"/>
      <path id="Path_9908" data-name="Path 9908" d="M406.957,385.387a.928.928,0,0,0,.238-.035c.741-.252,1.224-1.615,1.448-2.406a.133.133,0,0,0-.042-.126.1.1,0,0,0-.133,0c-.224.112-2.2,1.168-2.259,1.944a.455.455,0,0,0,.21.434.853.853,0,0,0,.539.189Zm1.4-2.224c-.343,1.091-.783,1.811-1.2,1.951a.566.566,0,0,1-.552-.126.224.224,0,0,1-.112-.217c0-.476,1.154-1.224,1.832-1.609Z" transform="translate(-310.611 -193.953)" fill="#62c9d5"/>
      <path id="Path_9909" data-name="Path 9909" d="M406.388,383.192a4.443,4.443,0,0,0,1.937-.455.126.126,0,0,0,.056-.1.112.112,0,0,0-.063-.1c-.063-.035-1.623-.9-2.462-.594a.7.7,0,0,0-.462.434.49.49,0,0,0,.112.6,1.4,1.4,0,0,0,.881.224Zm1.6-.56c-.664.287-1.958.462-2.322.154-.063-.056-.126-.14-.042-.329a.475.475,0,0,1,.308-.294,3.3,3.3,0,0,1,2.056.5Z" transform="translate(-310.349 -193.674)" fill="#62c9d5"/>
      <path id="Path_9910" data-name="Path 9910" d="M347.947,408.1a9.731,9.731,0,0,0,2.007-.259.119.119,0,0,0,0-.224c-.3-.147-2.979-1.4-3.651-.923a.392.392,0,0,0-.175.378.874.874,0,0,0,.364.7A2.393,2.393,0,0,0,347.947,408.1Zm1.588-.42c-.79.147-2.259.343-2.867-.112a.7.7,0,0,1-.266-.51.154.154,0,0,1,.07-.161C346.842,406.638,348.423,407.19,349.535,407.68Z" transform="translate(-292.549 -201.105)" fill="#62c9d5"/>
      <path id="Path_9911" data-name="Path 9911" d="M350.5,407.223a.147.147,0,0,0,.084,0,.119.119,0,0,0,.035-.126c0-.112-.629-2.749-2.1-2.581-.364.049-.469.224-.483.371-.091.7,1.595,2.021,2.4,2.357Zm-1.832-2.5c.93,0,1.469,1.539,1.651,2.154-.874-.462-2.1-1.56-2.021-1.986,0-.035,0-.133.273-.161Z" transform="translate(-293.123 -200.481)" fill="#62c9d5"/>
      <path id="Path_9912" data-name="Path 9912" d="M333.762,141.813l-1.112-.573S333.077,142.282,333.762,141.813Z" transform="translate(-288.498 -121.336)" fill="#263238"/>
    </g>
  </g>
</svg>
