<svg xmlns="http://www.w3.org/2000/svg" width="360.908" height="234.094" viewBox="0 0 360.908 234.094">
  <g id="House_searching-amico" data-name="House searching-amico" transform="translate(94.307 -69.743)">
    <g id="freepik--Floor--inject-113" transform="translate(-94.308 110.43)">
      <path id="freepik--floor--inject-113-2" data-name="freepik--floor--inject-113" d="M70.668,340.29c70.473,37.767,184.732,37.767,255.205,0s70.465-98.991,0-136.758-184.732-37.767-255.205,0S.2,302.531,70.668,340.29Z" transform="translate(-17.816 -175.207)" fill="#f5f5f5"/>
    </g>
    <g id="freepik--Clouds--inject-113" transform="translate(-23.527 69.743)">
      <g id="freepik--clouds--inject-113-2" data-name="freepik--clouds--inject-113">
        <path id="Path_361" data-name="Path 361" d="M99.5,72.1l-4.339,2.48c0-.192.037-.384.037-.57v-1.24c0-2.219-1.562-3.1-3.484-2.009a6.67,6.67,0,0,0-2.077,2c-.316-2.8-2.48-3.837-5.17-2.3a11.527,11.527,0,0,0-5.214,9.032v1.86a4.959,4.959,0,0,0,.484,2.195L76.164,85.6a4.277,4.277,0,0,0-1.934,3.348c0,1.24.868,1.736,1.934,1.116L99.5,76.56a4.271,4.271,0,0,0,1.934-3.348C101.451,71.985,100.583,71.483,99.5,72.1Z" transform="translate(-74.23 -69.743)" fill="#ebebeb"/>
        <path id="Path_362" data-name="Path 362" d="M133.052,92.711,129.8,94.57a3.472,3.472,0,0,0,0-.434v-.924c0-1.674-1.178-2.356-2.628-1.519A5.157,5.157,0,0,0,125.6,93.2c-.236-2.108-1.891-2.889-3.9-1.73a8.679,8.679,0,0,0-3.936,6.819V99.7a3.769,3.769,0,0,0,.335,1.637l-2.7,1.556a3.23,3.23,0,0,0-1.457,2.529c0,.93.651,1.308,1.457.843l17.624-10.179a3.217,3.217,0,0,0,1.457-2.523C134.509,92.624,133.858,92.246,133.052,92.711Z" transform="translate(-89.323 -82.38)" fill="#ebebeb"/>
        <path id="Path_363" data-name="Path 363" d="M414.032,119.97l-3.255,1.86a3.484,3.484,0,0,0,0-.434v-.942c0-1.674-1.178-2.356-2.628-1.513a5.015,5.015,0,0,0-1.569,1.506c-.236-2.108-1.86-2.9-3.9-1.736a8.679,8.679,0,0,0-3.93,6.819v1.407a3.72,3.72,0,0,0,.329,1.637l-2.7,1.556a3.236,3.236,0,0,0-1.463,2.529c0,.93.657,1.308,1.463.843l17.624-10.179a3.218,3.218,0,0,0,1.457-2.523C415.489,119.883,414.838,119.505,414.032,119.97Z" transform="translate(-196.118 -98.625)" fill="#ebebeb"/>
      </g>
    </g>
    <g id="freepik--Houses--inject-113" transform="translate(-92.446 110.43)">
      <g id="freepik--House--inject-113" transform="translate(0 7.462)">
        <path id="Path_364" data-name="Path 364" d="M99.59,218.44,34.36,256.1v3.136l59.793,34.518,65.23-37.654v-3.136Z" transform="translate(-33.532 -190.195)" fill="#62c9d5"/>
        <path id="Path_365" data-name="Path 365" d="M34.36,263.47l59.793,34.518v3.136L34.36,266.606V263.47" transform="translate(-33.532 -197.563)" opacity="0.15"/>
        <path id="Path_366" data-name="Path 366" d="M105.85,297.374l65.23-37.654v3.136L105.85,300.51Z" transform="translate(-45.229 -196.949)" opacity="0.1"/>
        <rect id="Rectangle_1" data-name="Rectangle 1" width="5.696" height="0.468" transform="translate(117.469 56.525) rotate(-63.09)" fill="#455a64"/>
        <rect id="Rectangle_2" data-name="Rectangle 2" width="0.468" height="4.776" transform="matrix(0.85, -0.526, 0.526, 0.85, 114.884, 51.295)" fill="#455a64"/>
        <path id="Path_367" data-name="Path 367" d="M174.388,245.14v12.245a.184.184,0,0,1-.109.159.585.585,0,0,1-.552,0,.184.184,0,0,1-.117-.159V245.14Z" transform="translate(-56.315 -194.564)" fill="#455a64"/>
        <path id="Path_368" data-name="Path 368" d="M183.385,239.477a5.687,5.687,0,1,1-5.687-5.687,5.687,5.687,0,0,1,5.687,5.687Z" transform="translate(-56.054 -192.707)" fill="#62c9d5"/>
        <path id="Path_369" data-name="Path 369" d="M179.478,238.021c.736-2.308,1.514-3.212,1.02-3.5a5.687,5.687,0,1,0,1.581,8.565C180.364,243.583,178.524,241.015,179.478,238.021Z" transform="translate(-56.053 -192.706)" opacity="0.2"/>
        <path id="Path_370" data-name="Path 370" d="M171.316,241.728a4,4,0,1,1-4-4A4,4,0,0,1,171.316,241.728Z" transform="translate(-54.632 -193.351)" fill="#62c9d5"/>
        <path id="Path_371" data-name="Path 371" d="M167.423,237.73a3.957,3.957,0,0,0-2.334.761c-.108,2.434,1.966,4.817,1.38,5.62s-2,.309-2.509-.376a4,4,0,1,0,3.454-6.005Z" transform="translate(-54.737 -193.351)" opacity="0.2"/>
        <circle id="Ellipse_3" data-name="Ellipse 3" cx="7.335" cy="7.335" r="7.335" transform="translate(110.353 36.734)" fill="#62c9d5"/>
        <path id="Path_372" data-name="Path 372" d="M179.778,237.784a7.335,7.335,0,1,1-10.748-8.054,7.436,7.436,0,0,0-1.673,1.347,7.327,7.327,0,0,0,12.462,6.691Z" transform="translate(-54.956 -192.042)" opacity="0.1"/>
        <rect id="Rectangle_3" data-name="Rectangle 3" width="5.696" height="0.468" transform="translate(8.791 59.651) rotate(-63.09)" fill="#455a64"/>
        <rect id="Rectangle_4" data-name="Rectangle 4" width="0.468" height="4.776" transform="matrix(0.85, -0.526, 0.526, 0.85, 6.186, 54.413)" fill="#455a64"/>
        <path id="Path_373" data-name="Path 373" d="M44.438,248.87v12.245a.192.192,0,0,1-.117.159.636.636,0,0,1-.552,0,.184.184,0,0,1-.109-.159V248.87Z" transform="translate(-35.054 -195.174)" fill="#455a64"/>
        <path id="Path_374" data-name="Path 374" d="M53.435,243.2a5.687,5.687,0,1,1-5.687-5.687,5.687,5.687,0,0,1,5.687,5.687Z" transform="translate(-34.792 -193.315)" fill="#62c9d5"/>
        <path id="Path_375" data-name="Path 375" d="M49.538,241.742c.736-2.308,1.514-3.212,1.02-3.488a5.587,5.587,0,0,0-2.8-.744,5.687,5.687,0,1,0,4.383,9.309C50.45,247.312,48.576,244.736,49.538,241.742Z" transform="translate(-34.793 -193.315)" opacity="0.2"/>
        <path id="Path_376" data-name="Path 376" d="M41.366,245.458a3.99,3.99,0,1,1-1.169-2.829A4,4,0,0,1,41.366,245.458Z" transform="translate(-33.37 -193.962)" fill="#62c9d5"/>
        <path id="Path_377" data-name="Path 377" d="M37.473,241.46a3.947,3.947,0,0,0-2.334.753c-.109,2.442,1.957,4.826,1.38,5.621s-2.007.309-2.509-.368a4,4,0,1,0,3.454-6.005Z" transform="translate(-33.475 -193.962)" opacity="0.2"/>
        <circle id="Ellipse_4" data-name="Ellipse 4" cx="7.335" cy="7.335" r="7.335" transform="translate(1.656 39.845)" fill="#62c9d5"/>
        <path id="Path_378" data-name="Path 378" d="M49.822,241.513a7.327,7.327,0,1,1-10.739-8.063,7.669,7.669,0,0,0-1.715,1.347,7.327,7.327,0,0,0,12.454,6.691Z" transform="translate(-33.696 -192.651)" opacity="0.1"/>
        <path id="Path_379" data-name="Path 379" d="M130.05,278.483l9.108-5.253,8.171,4.717-9.1,5.244Z" transform="translate(-49.188 -199.16)" fill="#f0f0f0"/>
        <path id="Path_380" data-name="Path 380" d="M53.868,257.945,53.86,229.7l43.492,25.1v28.253Z" transform="translate(-36.722 -192.038)" fill="#f0f0f0"/>
        <path id="Path_381" data-name="Path 381" d="M53.86,240.908l43.492,25.117V254.8L53.86,229.7Z" transform="translate(-36.722 -192.038)" fill="#e0e0e0"/>
        <path id="Path_382" data-name="Path 382" d="M154.772,252.958V225.5l-16.309-3.923V218.44l-32.6,34.518v28.253Z" transform="translate(-45.231 -190.195)" fill="#fafafa"/>
        <path id="Path_383" data-name="Path 383" d="M144.84,218.44v3.136l19.028,4.709v-3.136Z" transform="translate(-51.608 -190.195)" fill="#263238"/>
        <path id="Path_384" data-name="Path 384" d="M111.886,193.129l43.475,25.108-19.028-4.709L92.85,188.42Z" transform="translate(-43.102 -185.284)" fill="#37474f"/>
        <path id="Path_385" data-name="Path 385" d="M102.068,257.07l35.337-39.243V214.69L99.35,258.625Z" transform="translate(-44.165 -189.582)" fill="#37474f"/>
        <path id="Path_386" data-name="Path 386" d="M85.415,184.67,128.9,209.778,90.911,253.755,47.36,228.605Z" transform="translate(-35.659 -184.67)" fill="#455a64"/>
        <path id="Path_387" data-name="Path 387" d="M76.55,233.31l5.478,3.162v7.937l-5.478-3.136Z" transform="translate(-40.435 -192.628)" fill="#263238"/>
        <path id="Path_388" data-name="Path 388" d="M83.1,236.472l5.47-3.162v4.826l-5.47,6.273Z" transform="translate(-41.507 -192.628)" fill="#37474f"/>
        <path id="Path_389" data-name="Path 389" d="M81.917,226.88l-6.047,3.488v1.581l6.047,3.471,6.039-3.471v-1.581Z" transform="translate(-40.324 -191.576)" fill="#f5f5f5"/>
        <path id="Path_390" data-name="Path 390" d="M75.87,232.631l6.047,3.471v-1.581L75.87,231.05Z" transform="translate(-40.324 -192.259)" fill="#e0e0e0"/>
        <path id="Path_391" data-name="Path 391" d="M89.139,232.631,83.1,236.1v-1.581l6.039-3.471Z" transform="translate(-41.507 -192.259)" fill="#ebebeb"/>
        <path id="Path_392" data-name="Path 392" d="M78.3,230.6l4.015-2.317,4.015,2.317-4.015,2.308Z" transform="translate(-40.721 -191.805)" fill="#62c9d5"/>
        <path id="Path_393" data-name="Path 393" d="M82.315,228.28v4.625L78.3,230.6Z" transform="translate(-40.721 -191.805)" fill="#37474f"/>
        <path id="Path_394" data-name="Path 394" d="M83.1,228.28l4.015,2.317L83.1,232.905Z" transform="translate(-41.507 -191.805)" fill="#263238"/>
        <path id="Path_395" data-name="Path 395" d="M110.07,267.159l12.236-7.059v9.418l-12.236,7.059Z" transform="translate(-45.919 -197.012)" fill="#455a64"/>
        <path id="Path_396" data-name="Path 396" d="M121.763,269.262V260.48l-11.693,6.741v8.79Z" transform="translate(-45.919 -197.074)" fill="#e0e0e0"/>
        <path id="Path_397" data-name="Path 397" d="M122.306,271.3l-.544-.318-11.693,6.75v.627Z" transform="translate(-45.919 -198.792)" fill="#37474f"/>
        <path id="Path_398" data-name="Path 398" d="M110.07,272.665l12.236-7.059v-.636l-12.236,7.059Z" transform="translate(-45.919 -197.808)" fill="#455a64"/>
        <path id="Path_399" data-name="Path 399" d="M145.82,246.509l12.228-7.059v9.418l-12.228,7.059Z" transform="translate(-51.769 -193.633)" fill="#455a64"/>
        <path id="Path_400" data-name="Path 400" d="M157.5,248.612V239.83l-11.684,6.741v8.79Z" transform="translate(-51.769 -193.695)" fill="#e0e0e0"/>
        <path id="Path_401" data-name="Path 401" d="M158.048,250.648l-.544-.318-11.684,6.75v.627Z" transform="translate(-51.769 -195.413)" fill="#37474f"/>
        <path id="Path_402" data-name="Path 402" d="M145.82,252.015l12.228-7.059v-.636l-12.228,7.067Z" transform="translate(-51.769 -194.43)" fill="#455a64"/>
        <path id="Path_403" data-name="Path 403" d="M130.05,274.8V255.972l9.108-5.252v18.827Z" transform="translate(-49.188 -195.477)" fill="#37474f"/>
        <path id="Path_404" data-name="Path 404" d="M138.84,269.34v-18.4l-8.79,5.068v18.4Z" transform="translate(-49.188 -195.513)" fill="#455a64"/>
        <path id="Path_405" data-name="Path 405" d="M140.878,250.72l-.318.184v18.4l.318.243Z" transform="translate(-50.908 -195.477)" fill="#263238"/>
        <path id="Path_406" data-name="Path 406" d="M92.74,263.408l-6.39-3.688v9.409l6.39,3.688Z" transform="translate(-42.038 -196.949)" fill="#455a64"/>
        <path id="Path_407" data-name="Path 407" d="M87,268.872V260.09l5.846,3.379v8.782Z" transform="translate(-42.145 -197.01)" fill="#fafafa"/>
        <path id="Path_408" data-name="Path 408" d="M86.35,270.908l.544-.318,5.846,3.379v.627Z" transform="translate(-42.038 -198.728)" fill="#37474f"/>
        <path id="Path_409" data-name="Path 409" d="M92.74,268.879l-6.39-3.663v-.636l6.39,3.663Z" transform="translate(-42.038 -197.745)" fill="#455a64"/>
        <path id="Path_410" data-name="Path 410" d="M87,260.09l5.846,3.379v1.815L87,261.93Z" transform="translate(-42.145 -197.01)" fill="#f5f5f5"/>
        <path id="Path_411" data-name="Path 411" d="M69.99,250.268,63.6,246.58V256l6.39,3.688Z" transform="translate(-38.316 -194.799)" fill="#455a64"/>
        <path id="Path_412" data-name="Path 412" d="M64.26,255.742V246.96l5.838,3.371v8.782Z" transform="translate(-38.424 -194.862)" fill="#fafafa"/>
        <path id="Path_413" data-name="Path 413" d="M63.6,257.778l.552-.318,5.838,3.371v.636Z" transform="translate(-38.316 -196.58)" fill="#37474f"/>
        <path id="Path_414" data-name="Path 414" d="M69.99,255.739l-6.39-3.663v-.636l6.39,3.663Z" transform="translate(-38.316 -195.595)" fill="#455a64"/>
        <path id="Path_415" data-name="Path 415" d="M64.26,246.96l5.838,3.371v1.74l-5.838-3.346Z" transform="translate(-38.424 -194.862)" fill="#f5f5f5"/>
      </g>
      <g id="freepik--house--inject-113-2" data-name="freepik--house--inject-113" transform="translate(226.676 0)">
        <path id="Path_416" data-name="Path 416" d="M358.915,215.16l-54.045,31.2v2.6l54.045,31.2,54.052-31.2v-2.6Z" transform="translate(-304.184 -196.963)" fill="#62c9d5"/>
        <path id="Path_417" data-name="Path 417" d="M304.87,260.19l54.052,31.2-.007,2.6-54.045-31.2v-2.6" transform="translate(-304.184 -210.788)" opacity="0.15"/>
        <path id="Path_418" data-name="Path 418" d="M382.867,291.395l54.045-31.2v2.6l-54.052,31.2Z" transform="translate(-328.129 -210.788)" opacity="0.1"/>
        <rect id="Rectangle_5" data-name="Rectangle 5" width="4.719" height="0.388" transform="translate(101.988 44.312) rotate(-63.09)" fill="#455a64"/>
        <path id="Path_421" data-name="Path 421" d="M455.448,237.9c.61-1.913,1.261-2.661.845-2.9a4.712,4.712,0,1,0,1.317,7.1C456.211,242.5,454.665,240.356,455.448,237.9Z" transform="translate(-348.516 -202.866)" opacity="0.2"/>
        <g id="Group_12" data-name="Group 12" transform="translate(94.722 27.92)">
          <rect id="Rectangle_6" data-name="Rectangle 6" width="0.389" height="3.964" transform="matrix(0.849, -0.529, 0.529, 0.849, 5.666, 10.877)" fill="#455a64"/>
          <path id="Path_419" data-name="Path 419" d="M451.5,245.74v10.145a.153.153,0,0,1-.09.132.485.485,0,0,1-.457,0,.159.159,0,0,1-.1-.132V245.74Z" transform="translate(-443.729 -234.271)" fill="#455a64"/>
          <path id="Path_420" data-name="Path 420" d="M458.684,239.1a4.712,4.712,0,1,1-4.712-4.712,4.712,4.712,0,0,1,4.712,4.712Z" transform="translate(-443.238 -230.787)" fill="#62c9d5"/>
          <path id="Path_422" data-name="Path 422" d="M447.195,241.642a3.312,3.312,0,1,1-3.312-3.312,3.312,3.312,0,0,1,3.312,3.312Z" transform="translate(-440.57 -231.996)" fill="#62c9d5"/>
          <path id="Path_423" data-name="Path 423" d="M444.082,238.33a3.292,3.292,0,0,0-1.933.631c-.09,2.017,1.629,3.992,1.15,4.657s-1.663.256-2.079-.312a3.312,3.312,0,1,0,2.862-4.976Z" transform="translate(-440.77 -231.996)" opacity="0.2"/>
          <circle id="Ellipse_5" data-name="Ellipse 5" cx="6.077" cy="6.077" r="6.077" transform="translate(1.379)" fill="#62c9d5"/>
        </g>
        <path id="Path_424" data-name="Path 424" d="M454.549,237.031a6.077,6.077,0,1,1-8.911-6.7,6.056,6.056,0,0,0-1.427,1.116,6.07,6.07,0,0,0,10.325,5.544Z" transform="translate(-346.459 -201.62)" opacity="0.1"/>
        <rect id="Rectangle_7" data-name="Rectangle 7" width="4.719" height="0.388" transform="translate(7.266 44.09) rotate(-63.09)" fill="#455a64"/>
        <rect id="Rectangle_8" data-name="Rectangle 8" width="0.389" height="3.964" transform="matrix(0.849, -0.529, 0.529, 0.849, 5.693, 38.911)" fill="#455a64"/>
        <path id="Path_425" data-name="Path 425" d="M314.815,245.42v10.145a.166.166,0,0,1-.1.132.527.527,0,0,1-.457,0,.173.173,0,0,1-.09-.132V245.42Z" transform="translate(-307.039 -206.253)" fill="#455a64"/>
        <path id="Path_426" data-name="Path 426" d="M321.994,238.772a4.712,4.712,0,1,1-4.712-4.712A4.712,4.712,0,0,1,321.994,238.772Z" transform="translate(-306.548 -202.765)" fill="#62c9d5"/>
        <path id="Path_427" data-name="Path 427" d="M318.758,237.565c.61-1.913,1.254-2.661.845-2.9a4.712,4.712,0,1,0,1.31,7.1C319.52,242.174,317.968,240.046,318.758,237.565Z" transform="translate(-306.548 -202.764)" opacity="0.2"/>
        <path id="Path_428" data-name="Path 428" d="M310.5,241.316a3.312,3.312,0,1,1-3.312-3.306A3.312,3.312,0,0,1,310.5,241.316Z" transform="translate(-303.88 -203.978)" fill="#62c9d5"/>
        <path id="Path_429" data-name="Path 429" d="M307.389,238a3.27,3.27,0,0,0-1.933.624c-.09,2.023,1.629,3.992,1.143,4.657s-1.663.256-2.079-.3A3.312,3.312,0,1,0,307.382,238Z" transform="translate(-304.076 -203.975)" opacity="0.2"/>
        <circle id="Ellipse_6" data-name="Ellipse 6" cx="6.077" cy="6.077" r="6.077" transform="translate(1.372 27.691)" fill="#62c9d5"/>
        <path id="Path_430" data-name="Path 430" d="M317.856,236.68a6.077,6.077,0,1,1-8.9-6.68,6.158,6.158,0,0,0-1.421,1.116,6.077,6.077,0,0,0,10.325,5.544Z" transform="translate(-304.488 -201.519)" opacity="0.1"/>
        <path id="Path_431" data-name="Path 431" d="M398.57,195.58,403.1,198.2v5.239l-4.532-2.619Z" transform="translate(-332.953 -190.951)" fill="#e0e0e0"/>
        <path id="Path_432" data-name="Path 432" d="M405.11,198.2l4.539-2.619v10.471l-4.539-2.613Z" transform="translate(-334.961 -190.951)" fill="#f0f0f0"/>
        <path id="Path_433" data-name="Path 433" d="M402.893,189.15l-5,2.883v1.31l5,2.883,5.01-2.883v-1.31Z" transform="translate(-332.744 -188.977)" fill="#455a64"/>
        <path id="Path_434" data-name="Path 434" d="M397.89,194.62l5,2.883v-1.31l-5-2.883Z" transform="translate(-332.744 -190.254)" fill="#37474f"/>
        <path id="Path_435" data-name="Path 435" d="M410.12,194.62l-5.01,2.883v-1.31l5.01-2.883Z" transform="translate(-334.961 -190.254)" fill="#263238"/>
        <path id="Path_436" data-name="Path 436" d="M400.31,192.463l3.326-1.913,3.333,1.913-3.333,1.92Z" transform="translate(-333.487 -189.407)" fill="#62c9d5"/>
        <path id="Path_437" data-name="Path 437" d="M403.636,190.55v3.832l-3.326-1.92Z" transform="translate(-333.487 -189.407)" fill="#37474f"/>
        <path id="Path_438" data-name="Path 438" d="M405.11,190.55l3.333,1.913-3.333,1.92Z" transform="translate(-334.961 -189.407)" fill="#263238"/>
        <path id="Path_439" data-name="Path 439" d="M382.867,261.082l-.007-23.4,13.492,7.8v23.4Z" transform="translate(-328.129 -203.877)" fill="#f0f0f0"/>
        <path id="Path_440" data-name="Path 440" d="M382.86,237.68l13.492,7.8V254.8l-13.492-7.782Z" transform="translate(-328.129 -203.877)" fill="#e0e0e0"/>
        <path id="Path_441" data-name="Path 441" d="M429.377,246.365v-23.4l-13.541-7.8-13.506,23.4v23.4Z" transform="translate(-334.107 -196.963)" fill="#fafafa"/>
        <path id="Path_442" data-name="Path 442" d="M398.112,241.312l15.737-27.3v-2.6l-17.99,31.2Z" transform="translate(-332.12 -195.811)" fill="#37474f"/>
        <path id="Path_443" data-name="Path 443" d="M382.86,188.9l27,15.6-17.989,31.2-9-5.2Z" transform="translate(-328.129 -188.9)" fill="#455a64"/>
        <path id="Path_444" data-name="Path 444" d="M421.82,214.009l15.793,9.1,2.252-1.3-18.045-10.4Z" transform="translate(-340.091 -195.811)" fill="#263238"/>
        <path id="Path_445" data-name="Path 445" d="M429.97,243.605l5.294-3.035v7.8l-5.294,3.035Z" transform="translate(-342.593 -204.764)" fill="#455a64"/>
        <path id="Path_446" data-name="Path 446" d="M434.814,248.226V240.95l-4.844,2.772V251Z" transform="translate(-342.593 -204.881)" fill="#e0e0e0"/>
        <path id="Path_447" data-name="Path 447" d="M435.264,251.713l-.45-.263-4.844,2.772v.527Z" transform="translate(-342.593 -208.105)" fill="#37474f"/>
        <path id="Path_448" data-name="Path 448" d="M429.97,249l5.294-3.035v-.527l-5.294,3.035Z" transform="translate(-342.593 -206.259)" fill="#455a64"/>
        <path id="Path_449" data-name="Path 449" d="M405.99,257.435l5.294-3.035v7.8l-5.294,3.042Z" transform="translate(-335.231 -209.01)" fill="#455a64"/>
        <path id="Path_450" data-name="Path 450" d="M410.834,262.053V254.77l-4.844,2.779v7.276Z" transform="translate(-335.231 -209.124)" fill="#e0e0e0"/>
        <path id="Path_451" data-name="Path 451" d="M411.284,265.536l-.45-.256-4.844,2.772v.527Z" transform="translate(-335.231 -212.351)" fill="#37474f"/>
        <path id="Path_452" data-name="Path 452" d="M405.99,262.832l5.294-3.035v-.527l-5.294,3.035Z" transform="translate(-335.231 -210.506)" fill="#455a64"/>
        <path id="Path_453" data-name="Path 453" d="M416.95,230.321l6.757-3.9v5.849l-6.757,3.9Z" transform="translate(-338.596 -200.42)" fill="#455a64"/>
        <path id="Path_454" data-name="Path 454" d="M423.256,232.119V226.79l-6.306,3.645v5.329Z" transform="translate(-338.596 -200.533)" fill="#e0e0e0"/>
        <path id="Path_455" data-name="Path 455" d="M423.707,234.743l-.451-.263-6.306,3.645v.52Z" transform="translate(-338.596 -202.894)" fill="#37474f"/>
        <path id="Path_456" data-name="Path 456" d="M443.612,227.716H441.36v-1.3Z" transform="translate(-346.09 -200.42)"/>
        <path id="Path_457" data-name="Path 457" d="M416.38,265.741v-15.6l7.547-4.352v15.6Z" transform="translate(-338.421 -206.367)" fill="#37474f"/>
        <path id="Path_458" data-name="Path 458" d="M423.663,261.255V246.01l-7.283,4.2v15.245Z" transform="translate(-338.421 -206.434)" fill="#455a64"/>
        <path id="Path_459" data-name="Path 459" d="M427.153,245.79l-.263.152v15.245l.263.2Z" transform="translate(-341.647 -206.367)" fill="#263238"/>
        <path id="Path_460" data-name="Path 460" d="M376.885,261.082v-23.4l-13.485,7.8v23.4Z" transform="translate(-322.154 -203.877)" fill="#fafafa"/>
        <path id="Path_461" data-name="Path 461" d="M376.885,237.68l-13.485,7.8V254.8l13.492-7.782Z" transform="translate(-322.154 -203.877)" fill="#f5f5f5"/>
        <path id="Path_462" data-name="Path 462" d="M324.37,246.365v-23.4l13.534-7.8,13.513,23.4v23.4Z" transform="translate(-310.171 -196.963)" fill="#ebebeb"/>
        <path id="Path_463" data-name="Path 463" d="M359.644,241.312l-15.744-27.3v-2.6l18,31.2Z" transform="translate(-316.167 -195.811)" fill="#455a64"/>
        <path id="Path_464" data-name="Path 464" d="M370.9,188.9l-27,15.6,18,31.2,9-5.2Z" transform="translate(-316.167 -188.9)" fill="#37474f"/>
        <path id="Path_465" data-name="Path 465" d="M335.908,214.009l-15.786,9.1-2.252-1.3,18.038-10.4Z" transform="translate(-308.175 -195.811)" fill="#263238"/>
        <path id="Path_466" data-name="Path 466" d="M336.164,244.465l-5.294-3.035v7.8l5.294,3.028Z" transform="translate(-312.167 -205.028)" fill="#455a64"/>
        <path id="Path_467" data-name="Path 467" d="M331.52,249.083V241.8l4.844,2.779v7.276Z" transform="translate(-312.366 -205.142)" fill="#fafafa"/>
        <path id="Path_468" data-name="Path 468" d="M331.52,241.8l4.844,2.8v.963l-4.844-2.779Z" transform="translate(-312.366 -205.142)" fill="#f5f5f5"/>
        <path id="Path_469" data-name="Path 469" d="M349.88,252.4l4.844,2.8v.963l-4.844-2.779Z" transform="translate(-318.003 -208.396)" fill="#f5f5f5"/>
        <path id="Path_470" data-name="Path 470" d="M330.87,252.573l.45-.263,4.844,2.772v.52Z" transform="translate(-312.167 -208.369)" fill="#37474f"/>
        <path id="Path_471" data-name="Path 471" d="M336.164,249.862l-5.294-3.035V246.3l5.294,3.035Z" transform="translate(-312.167 -206.523)" fill="#455a64"/>
        <path id="Path_472" data-name="Path 472" d="M345.786,230.321l-6.756-3.9v5.849l6.756,3.9Z" transform="translate(-314.672 -200.42)" fill="#455a64"/>
        <path id="Path_473" data-name="Path 473" d="M339.68,232.119V226.79l6.306,3.645v5.329Z" transform="translate(-314.872 -200.533)" fill="#fafafa"/>
        <path id="Path_474" data-name="Path 474" d="M339.68,226.79l6.306,3.645v.963l-6.306-3.617Z" transform="translate(-314.872 -200.533)" fill="#f5f5f5"/>
        <path id="Path_475" data-name="Path 475" d="M339.03,234.743l.45-.263,6.306,3.645v.52Z" transform="translate(-314.672 -202.894)" fill="#37474f"/>
        <path id="Path_476" data-name="Path 476" d="M321.12,227.716h2.252v-1.3Z" transform="translate(-309.173 -200.42)"/>
        <path id="Path_477" data-name="Path 477" d="M354.524,255.086l-5.294-3.056v7.8l5.294,3.056Z" transform="translate(-317.804 -208.283)" fill="#455a64"/>
        <path id="Path_478" data-name="Path 478" d="M349.88,259.676V252.4l4.844,2.8v7.276Z" transform="translate(-318.003 -208.396)" fill="#fafafa"/>
        <path id="Path_479" data-name="Path 479" d="M349.23,263.163l.45-.263,4.844,2.8v.52Z" transform="translate(-317.804 -211.62)" fill="#37474f"/>
        <path id="Path_480" data-name="Path 480" d="M354.524,260.452l-5.294-3.035v-.527l5.294,3.035Z" transform="translate(-317.804 -209.775)" fill="#455a64"/>
        <path id="Path_481" data-name="Path 481" d="M349.88,252.4l4.844,2.8v.963l-4.844-2.779Z" transform="translate(-318.003 -208.396)" fill="#f5f5f5"/>
        <path id="Path_482" data-name="Path 482" d="M392.863,254.708,386.1,250.8v7.193l6.763,3.9Z" transform="translate(-329.124 -207.905)" fill="#263238"/>
        <path id="Path_483" data-name="Path 483" d="M386.7,257.858V251.15l6.348,3.666v6.708Z" transform="translate(-329.308 -208.013)" fill="#fafafa"/>
        <path id="Path_484" data-name="Path 484" d="M386.7,251.15v1.559l6.348,3.673v-1.566Z" transform="translate(-329.308 -208.013)" fill="#f0f0f0"/>
        <path id="Path_485" data-name="Path 485" d="M386.1,261.073l.416-.243,6.348,3.666v.478Z" transform="translate(-329.124 -210.985)" fill="#37474f"/>
        <path id="Path_486" data-name="Path 486" d="M386.1,255.883l.416-.243,6.348,3.666v.485Z" transform="translate(-329.124 -209.391)" fill="#37474f"/>
        <path id="Path_487" data-name="Path 487" d="M390.78,260.693l.416.236v-7.186l-.416-.242Z" transform="translate(-330.561 -208.734)" fill="#37474f"/>
        <g id="freepik--Plants--inject-113" transform="translate(44.35 51.016)">
          <path id="Path_488" data-name="Path 488" d="M374.622,273.94l1.2-.693a20.672,20.672,0,0,0,.146-5.9c-.6-3.825-3.215-5.149-4.158-4.768s-1.164,1.518.547,3.728A12.793,12.793,0,0,1,374.622,273.94Z" transform="translate(-368.864 -262.519)" fill="#62c9d5"/>
          <g id="Group_8" data-name="Group 8" transform="translate(2.22)" opacity="0.2">
            <path id="Path_489" data-name="Path 489" d="M374.622,273.94l1.2-.693a20.672,20.672,0,0,0,.146-5.9c-.6-3.825-3.215-5.149-4.158-4.768s-1.164,1.518.547,3.728A12.793,12.793,0,0,1,374.622,273.94Z" transform="translate(-371.083 -262.519)"/>
          </g>
          <path id="Path_490" data-name="Path 490" d="M375.639,272.7h0a.083.083,0,0,1-.076-.1c.5-3.583-.942-7.512-2.564-9.1a.083.083,0,0,1,.118-.118c1.649,1.608,3.118,5.6,2.62,9.244a.083.083,0,0,1-.1.069Z" transform="translate(-369.444 -262.779)" fill="#fff"/>
          <path id="Path_491" data-name="Path 491" d="M370.312,277.356c-.194.111-.582-.125-.735-.229a1.8,1.8,0,0,1-.6-.693,1.7,1.7,0,0,1-.152-1.012,4.4,4.4,0,0,1,.125-.541c.055-.18.1-.353.152-.527a1.282,1.282,0,0,0,.076-.534,1.338,1.338,0,0,0-.652-.825,1.324,1.324,0,0,1-.651-.991,1.519,1.519,0,0,1,.381-.908c.208-.263.45-.492.638-.769a.908.908,0,0,0,.069-1.088,5.87,5.87,0,0,1-.457-.845.845.845,0,0,1,.146-.894.991.991,0,0,1,.741-.187,1.663,1.663,0,0,1,.693.242c.693.381,1.081,1.2,1.809,1.49a6.505,6.505,0,0,0,.88.215,1.067,1.067,0,0,1,.728.5c.27.533-.229,1.192-.042,1.76s.658.693.929,1.15a1.012,1.012,0,0,1,.132.651,3.208,3.208,0,0,1-.277,1.116,8.868,8.868,0,0,1-.61,1Z" transform="translate(-367.88 -263.988)" fill="#62c9d5"/>
          <g id="Group_9" data-name="Group 9" transform="translate(0 3.316)" opacity="0.1">
            <path id="Path_492" data-name="Path 492" d="M370.312,277.356c-.194.111-.582-.125-.735-.229a1.8,1.8,0,0,1-.6-.693,1.7,1.7,0,0,1-.152-1.012,4.4,4.4,0,0,1,.125-.541c.055-.18.1-.353.152-.527a1.282,1.282,0,0,0,.076-.534,1.338,1.338,0,0,0-.652-.825,1.324,1.324,0,0,1-.651-.991,1.519,1.519,0,0,1,.381-.908c.208-.263.45-.492.638-.769a.908.908,0,0,0,.069-1.088,5.87,5.87,0,0,1-.457-.845.845.845,0,0,1,.146-.894.991.991,0,0,1,.741-.187,1.663,1.663,0,0,1,.693.242c.693.381,1.081,1.2,1.809,1.49a6.505,6.505,0,0,0,.88.215,1.067,1.067,0,0,1,.728.5c.27.533-.229,1.192-.042,1.76s.658.693.929,1.15a1.012,1.012,0,0,1,.132.651,3.208,3.208,0,0,1-.277,1.116,8.868,8.868,0,0,1-.61,1Z" transform="translate(-367.88 -267.304)"/>
          </g>
          <path id="Path_493" data-name="Path 493" d="M372.991,276.567h0a.1.1,0,0,1-.083-.09c.146-3.4-1.455-7.145-2.619-8.233a.086.086,0,0,1,.118-.125c1.185,1.109,2.82,4.92,2.675,8.364A.09.09,0,0,1,372.991,276.567Z" transform="translate(-368.611 -264.232)" fill="#fff"/>
          <path id="Path_494" data-name="Path 494" d="M372.33,274.278h0a11.785,11.785,0,0,0-2.467-.4.083.083,0,0,1-.083-.09.09.09,0,0,1,.09-.083,11.629,11.629,0,0,1,2.509.409.083.083,0,0,1,.055.1A.09.09,0,0,1,372.33,274.278Z" transform="translate(-368.463 -265.955)" fill="#fff"/>
        </g>
        <path id="Path_495" data-name="Path 495" d="M416.38,272.652l7.547-4.352,6.77,3.908-7.547,4.345Z" transform="translate(-338.421 -213.278)" fill="#f0f0f0"/>
      </g>
      <path id="Path_496" data-name="Path 496" d="M224.727,290.9,145.22,336.8v3.53L227.779,388l79.5-45.9v-3.529Z" transform="translate(-51.67 -194.589)" fill="#62c9d5"/>
      <path id="Path_497" data-name="Path 497" d="M284.15,365.164l9.117,5.328,15.314-8.841-9.142-5.311-15.289,8.824" transform="translate(-74.402 -205.296)" fill="#f0f0f0"/>
      <path id="Path_498" data-name="Path 498" d="M145.22,345.78l82.559,47.666v3.529L145.22,349.31v-3.53" transform="translate(-51.67 -203.568)" opacity="0.15"/>
      <path id="Path_499" data-name="Path 499" d="M243.93,393.791l79.5-45.9v3.53l-79.5,45.9Z" transform="translate(-67.821 -203.913)" opacity="0.1"/>
      <rect id="Rectangle_9" data-name="Rectangle 9" width="7.829" height="0.644" transform="translate(243.131 135.327) rotate(-63.09)" fill="#263238"/>
      <rect id="Rectangle_10" data-name="Rectangle 10" width="0.636" height="6.566" transform="matrix(0.85, -0.526, 0.526, 0.85, 239.55, 128.089)" fill="#263238"/>
      <path id="Path_500" data-name="Path 500" d="M324.791,327.72v16.82a.268.268,0,0,1-.159.217.836.836,0,0,1-.761,0,.259.259,0,0,1-.151-.217V327.72Z" transform="translate(-80.876 -200.613)" fill="#263238"/>
      <circle id="Ellipse_7" data-name="Ellipse 7" cx="7.812" cy="7.812" r="7.812" transform="translate(241.029 114.059)" fill="#455a64"/>
      <path id="Path_501" data-name="Path 501" d="M331.812,317.942c1-3.178,2.083-4.416,1.4-4.8a7.812,7.812,0,1,0,2.175,11.768C333.075,325.578,330.507,322.057,331.812,317.942Z" transform="translate(-80.52 -198.061)" fill="#37474f"/>
      <circle id="Ellipse_8" data-name="Ellipse 8" cx="5.487" cy="5.487" r="5.487" transform="translate(231.051 118.601)" fill="#455a64"/>
      <path id="Path_502" data-name="Path 502" d="M315.252,317.54a5.471,5.471,0,0,0-3.212,1.037c-.142,3.346,2.7,6.624,1.907,7.728s-2.76.418-3.438-.51a5.487,5.487,0,1,0,4.742-8.255Z" transform="translate(-78.714 -198.947)" fill="#37474f"/>
      <circle id="Ellipse_9" data-name="Ellipse 9" cx="10.07" cy="10.07" r="10.07" transform="translate(231.281 125.636) rotate(-76.72)" fill="#455a64"/>
      <path id="Path_503" data-name="Path 503" d="M332.238,317.615a10.037,10.037,0,1,1-14.762-11.065,10.279,10.279,0,0,0-2.359,1.848,10.368,10.368,0,0,0-.268,2.3,10.037,10.037,0,0,0,17.388,6.917Z" transform="translate(-79.032 -197.149)" fill="#37474f"/>
      <rect id="Rectangle_11" data-name="Rectangle 11" width="7.829" height="0.644" transform="translate(105.62 133.332) rotate(-63.09)" fill="#263238"/>
      <rect id="Rectangle_12" data-name="Rectangle 12" width="0.636" height="6.566" transform="matrix(0.85, -0.526, 0.526, 0.85, 102.056, 126.132)" fill="#263238"/>
      <path id="Path_504" data-name="Path 504" d="M160.421,325.37v16.82a.259.259,0,0,1-.151.217.837.837,0,0,1-.761,0,.268.268,0,0,1-.159-.217V325.37Z" transform="translate(-53.982 -200.228)" fill="#263238"/>
      <circle id="Ellipse_10" data-name="Ellipse 10" cx="7.812" cy="7.812" r="7.812" transform="translate(103.536 112.102)" fill="#455a64"/>
      <path id="Path_505" data-name="Path 505" d="M167.422,315.592c1-3.178,2.074-4.416,1.4-4.8a7.812,7.812,0,1,0,2.175,11.768C168.684,323.237,166.108,319.707,167.422,315.592Z" transform="translate(-53.623 -197.677)" fill="#37474f"/>
      <circle id="Ellipse_11" data-name="Ellipse 11" cx="5.487" cy="5.487" r="5.487" transform="translate(93.558 116.635)" fill="#455a64"/>
      <path id="Path_506" data-name="Path 506" d="M150.861,315.2a5.5,5.5,0,0,0-3.212,1.029c-.151,3.346,2.7,6.624,1.907,7.728s-2.76.418-3.446-.51a5.487,5.487,0,1,0,4.751-8.247Z" transform="translate(-51.816 -198.565)" fill="#37474f"/>
      <circle id="Ellipse_12" data-name="Ellipse 12" cx="10.07" cy="10.07" r="10.07" transform="translate(91.665 116.203) rotate(-45)" fill="#455a64"/>
      <path id="Path_507" data-name="Path 507" d="M167.838,315.265A10.037,10.037,0,1,1,153.084,304.2a9.936,9.936,0,0,0-2.359,1.848,10.358,10.358,0,0,0-.268,2.3,10.037,10.037,0,0,0,17.38,6.917Z" transform="translate(-52.133 -196.765)" fill="#37474f"/>
      <path id="Path_508" data-name="Path 508" d="M189.09,322.069l64.218,37.069V302.649L189.09,265.58Z" transform="translate(-58.848 -190.446)" fill="#f0f0f0"/>
      <path id="Path_509" data-name="Path 509" d="M231.369,344.859v31.783L167.16,339.564V307.79Z" transform="translate(-55.26 -197.352)" fill="#f0f0f0"/>
      <path id="Path_510" data-name="Path 510" d="M167.16,318.379l64.209,37.077v-10.6L167.16,307.79Z" transform="translate(-55.26 -197.352)" fill="#e0e0e0"/>
      <path id="Path_511" data-name="Path 511" d="M189.09,276.167l64.218,37.068V302.647L189.09,265.57Z" transform="translate(-58.848 -190.444)" fill="#e0e0e0"/>
      <path id="Path_512" data-name="Path 512" d="M265.87,305.065l42.806-24.715v56.489L265.87,361.555Z" transform="translate(-71.411 -192.863)" fill="#fafafa"/>
      <path id="Path_513" data-name="Path 513" d="M243.93,348.658l18.35-17.648v38.833l-18.35,10.6Z" transform="translate(-67.821 -201.151)" fill="#fafafa"/>
      <path id="Path_514" data-name="Path 514" d="M287.273,265.57l-21.4,37.077,42.806-24.715Z" transform="translate(-71.411 -190.444)" fill="#fafafa"/>
      <path id="Path_515" data-name="Path 515" d="M262.21,307.424l24.464-42.371V262.41L262.21,304.781Z" transform="translate(-70.812 -189.927)" fill="#62c9d5"/>
      <path id="Path_516" data-name="Path 516" d="M262.21,307.424l24.464-42.371V262.41L262.21,304.781Z" transform="translate(-70.812 -189.927)" opacity="0.1"/>
      <rect id="Rectangle_13" data-name="Rectangle 13" width="48.92" height="74.145" transform="translate(127.188 77.778) rotate(-60)" fill="#62c9d5"/>
      <path id="Path_517" data-name="Path 517" d="M185.44,268.74l64.209,37.077v2.643L185.44,271.391Z" transform="translate(-58.251 -190.963)" fill="#62c9d5"/>
      <path id="Path_518" data-name="Path 518" d="M185.44,268.74l64.209,37.077v2.643L185.44,271.391Z" transform="translate(-58.251 -190.963)" opacity="0.15"/>
      <path id="Path_519" data-name="Path 519" d="M291.46,262.41l26.756,15.448-2.3,1.321L291.46,265.053Z" transform="translate(-75.598 -189.927)" fill="#62c9d5"/>
      <path id="Path_520" data-name="Path 520" d="M291.46,262.41l26.756,15.448-2.3,1.321L291.46,265.053Z" transform="translate(-75.598 -189.927)" opacity="0.15"/>
      <path id="Path_521" data-name="Path 521" d="M320.1,282.115H317.05V280.35Z" transform="translate(-79.785 -192.863)" fill="#62c9d5"/>
      <path id="Path_522" data-name="Path 522" d="M320.1,282.115H317.05V280.35Z" transform="translate(-79.785 -192.863)" opacity="0.3"/>
      <path id="Path_523" data-name="Path 523" d="M200.87,264.827V252.114l7.318-4.224,7.293,12.629v12.755Z" transform="translate(-60.776 -187.552)" fill="#f0f0f0"/>
      <path id="Path_524" data-name="Path 524" d="M207.627,247.628l-9.033,5.211-1.154-.669,10.187-5.88Z" transform="translate(-60.214 -187.29)" opacity="0.2"/>
      <path id="Path_525" data-name="Path 525" d="M218.34,274.5l7.3-12.663,3.73-6.474-11.032,6.382Z" transform="translate(-63.634 -188.774)" fill="#fafafa"/>
      <path id="Path_526" data-name="Path 526" d="M198.82,253.927h1.715v-.987Z" transform="translate(-60.44 -188.378)" opacity="0.4"/>
      <path id="Path_527" data-name="Path 527" d="M218.653,263.269l-9.033-15.64V246.29l10.162,17.631Z" transform="translate(-62.207 -187.29)" fill="#62c9d5"/>
      <path id="Path_528" data-name="Path 528" d="M218.653,263.269l-9.033-15.64V246.29l10.162,17.631Z" transform="translate(-62.207 -187.29)" opacity="0.1"/>
      <path id="Path_529" data-name="Path 529" d="M219.782,262.733,209.62,245.1l10.513-6.072L230.3,256.661Z" transform="translate(-62.207 -186.102)" fill="#62c9d5"/>
      <path id="Path_530" data-name="Path 530" d="M219.782,262.733,209.62,245.1l10.513-6.072L230.3,256.661Z" transform="translate(-62.207 -186.102)" fill="#fff" opacity="0.3"/>
      <path id="Path_531" data-name="Path 531" d="M212.55,259.724l-7.31-4.224v8.431l7.31,4.224Z" transform="translate(-61.491 -188.797)" fill="#455a64"/>
      <path id="Path_532" data-name="Path 532" d="M206.13,263.579V256.01l6.566,3.8v7.561Z" transform="translate(-61.636 -188.88)" fill="#e0e0e0"/>
      <path id="Path_533" data-name="Path 533" d="M205.24,265.495l.744-.435,6.566,3.789v.87Z" transform="translate(-61.491 -190.361)" fill="#37474f"/>
      <path id="Path_534" data-name="Path 534" d="M237.42,285.937V273.224L244.747,269l7.293,12.629v12.755Z" transform="translate(-66.756 -191.005)" fill="#f0f0f0"/>
      <path id="Path_535" data-name="Path 535" d="M244.186,268.738l-9.033,5.211-1.163-.669,10.2-5.88Z" transform="translate(-66.195 -190.744)" opacity="0.2"/>
      <path id="Path_536" data-name="Path 536" d="M254.9,295.607l7.293-12.663,3.73-6.474L254.9,282.852Z" transform="translate(-69.616 -192.228)" fill="#fafafa"/>
      <path id="Path_537" data-name="Path 537" d="M235.38,275.037h1.706v-.987Z" transform="translate(-66.422 -191.832)" opacity="0.4"/>
      <path id="Path_538" data-name="Path 538" d="M255.213,284.379l-9.033-15.64V267.4l10.154,17.631Z" transform="translate(-68.189 -190.744)" fill="#62c9d5"/>
      <path id="Path_539" data-name="Path 539" d="M255.213,284.379l-9.033-15.64V267.4l10.154,17.631Z" transform="translate(-68.189 -190.744)" opacity="0.1"/>
      <path id="Path_540" data-name="Path 540" d="M256.334,283.842,246.18,266.211l10.505-6.08,10.162,17.631Z" transform="translate(-68.189 -189.554)" fill="#62c9d5"/>
      <path id="Path_541" data-name="Path 541" d="M256.334,283.842,246.18,266.211l10.505-6.08,10.162,17.631Z" transform="translate(-68.189 -189.554)" fill="#fff" opacity="0.3"/>
      <path id="Path_542" data-name="Path 542" d="M249.1,280.825l-7.31-4.215v8.431l7.31,4.224Z" transform="translate(-67.471 -192.251)" fill="#455a64"/>
      <path id="Path_543" data-name="Path 543" d="M242.69,284.689V277.12l6.557,3.789v7.569Z" transform="translate(-67.618 -192.334)" fill="#e0e0e0"/>
      <path id="Path_544" data-name="Path 544" d="M241.79,286.6l.753-.435,6.557,3.789v.87Z" transform="translate(-67.471 -193.815)" fill="#37474f"/>
      <path id="Path_545" data-name="Path 545" d="M184.9,283.83,249.121,320.9v2.392l-21.4,22.95L163.5,309.164V306.78Z" transform="translate(-54.661 -193.432)" fill="#62c9d5"/>
      <path id="Path_546" data-name="Path 546" d="M184.9,283.83,249.121,320.9l-21.4,22.95L163.5,306.78Z" transform="translate(-54.661 -193.432)" fill="#62c9d5"/>
      <path id="Path_547" data-name="Path 547" d="M240.28,351.1v2.392l21.4-22.95V328.15Z" transform="translate(-67.224 -200.683)" opacity="0.1"/>
      <path id="Path_548" data-name="Path 548" d="M227.718,350.731,163.5,313.654V311.27l64.218,37.069Z" transform="translate(-54.661 -197.921)" opacity="0.15"/>
      <path id="Path_549" data-name="Path 549" d="M193.419,331.384,178.13,322.56V338.8l15.289,8.824Z" transform="translate(-57.055 -199.769)" fill="#263238"/>
      <path id="Path_550" data-name="Path 550" d="M179.25,338.365V323.21L193.6,331.5v15.147Z" transform="translate(-57.238 -199.875)" fill="#fafafa"/>
      <path id="Path_551" data-name="Path 551" d="M179.25,323.21v3.538l14.352,8.28V331.49Z" transform="translate(-57.238 -199.875)" fill="#f0f0f0"/>
      <path id="Path_552" data-name="Path 552" d="M178.13,341.874l.937-.544,14.352,8.28V350.7Z" transform="translate(-57.055 -202.84)" fill="#37474f"/>
      <path id="Path_553" data-name="Path 553" d="M178.13,332.164l.937-.544,14.352,8.28v1.087Z" transform="translate(-57.055 -201.251)" fill="#37474f"/>
      <path id="Path_554" data-name="Path 554" d="M186.89,343.863l.937.544V328.164l-.937-.544Z" transform="translate(-58.488 -200.597)" fill="#37474f"/>
      <path id="Path_555" data-name="Path 555" d="M226.319,350.384,211.03,341.56V357.8l15.289,8.824Z" transform="translate(-62.438 -202.877)" fill="#263238"/>
      <path id="Path_556" data-name="Path 556" d="M212.15,357.365V342.21l14.352,8.28v15.155Z" transform="translate(-62.621 -202.984)" fill="#fafafa"/>
      <path id="Path_557" data-name="Path 557" d="M212.15,342.21v3.53l14.352,8.289V350.49Z" transform="translate(-62.621 -202.984)" fill="#f0f0f0"/>
      <path id="Path_558" data-name="Path 558" d="M211.03,360.874l.937-.544,14.352,8.28V369.7Z" transform="translate(-62.438 -205.949)" fill="#37474f"/>
      <path id="Path_559" data-name="Path 559" d="M211.03,351.164l.937-.544,14.352,8.28v1.087Z" transform="translate(-62.438 -204.36)" fill="#37474f"/>
      <path id="Path_560" data-name="Path 560" d="M219.79,362.863l.937.544V347.164l-.937-.544Z" transform="translate(-63.871 -203.705)" fill="#37474f"/>
      <path id="Path_561" data-name="Path 561" d="M254.9,352.5l15.289-8.832v16.242L254.9,368.736Z" transform="translate(-69.616 -203.223)" fill="#263238"/>
      <path id="Path_562" data-name="Path 562" d="M269.252,359.475V344.32L254.9,352.609v15.147Z" transform="translate(-69.616 -203.329)" fill="#e6e6e6"/>
      <path id="Path_563" data-name="Path 563" d="M269.252,344.32v1.556l-14.352,8.28v-1.547Z" transform="translate(-69.616 -203.329)" fill="#e0e0e0"/>
      <path id="Path_564" data-name="Path 564" d="M270.189,362.984l-.937-.544L254.9,370.72v1.087Z" transform="translate(-69.616 -206.294)" fill="#37474f"/>
      <path id="Path_565" data-name="Path 565" d="M270.189,353.274l-.937-.544L254.9,361.01V362.1Z" transform="translate(-69.616 -204.705)" fill="#37474f"/>
      <path id="Path_566" data-name="Path 566" d="M264.237,364.973l-.937.544V349.274l.937-.544Z" transform="translate(-70.99 -204.051)" fill="#37474f"/>
      <path id="Path_567" data-name="Path 567" d="M283.81,289.654,299.1,280.83v16.243L283.81,305.9Z" transform="translate(-74.346 -192.941)" fill="#263238"/>
      <path id="Path_568" data-name="Path 568" d="M298.162,296.635V281.48l-14.352,8.28v15.155Z" transform="translate(-74.346 -193.047)" fill="#e6e6e6"/>
      <path id="Path_569" data-name="Path 569" d="M298.162,281.48v1.556l-14.352,8.28V289.76Z" transform="translate(-74.346 -193.047)" fill="#e0e0e0"/>
      <path id="Path_570" data-name="Path 570" d="M299.1,300.144l-.937-.544-14.352,8.28v1.087Z" transform="translate(-74.346 -196.012)" fill="#37474f"/>
      <path id="Path_571" data-name="Path 571" d="M299.1,290.434l-.937-.544-14.352,8.289v1.087Z" transform="translate(-74.346 -194.423)" fill="#37474f"/>
      <path id="Path_572" data-name="Path 572" d="M293.147,302.133l-.937.544V286.434l.937-.544Z" transform="translate(-75.72 -193.769)" fill="#37474f"/>
      <path id="Path_573" data-name="Path 573" d="M284.15,359.637V331.392l15.289-8.832v28.253Z" transform="translate(-74.402 -199.769)" fill="#37474f"/>
      <path id="Path_574" data-name="Path 574" d="M298.879,350.45v-27.5l-14.729,8.506v27.5Z" transform="translate(-74.402 -199.833)" fill="#455a64"/>
      <path id="Path_575" data-name="Path 575" d="M302.32,322.56l-.56.326v27.5l.56.427Z" transform="translate(-77.283 -199.769)" fill="#263238"/>
    </g>
  </g>
</svg>
