<svg xmlns="http://www.w3.org/2000/svg" width="307.333" height="229" viewBox="0 0 307.333 229">
  <g id="Humanitarian_Help-rafiki" data-name="Humanitarian Help-rafiki" transform="translate(0 -55)">
    <g id="freepik--background-complete--inject-678" transform="translate(0 55)">
      <rect id="Rectangle_1480" data-name="Rectangle 1480" width="307.333" height="0.154" transform="translate(0 201.242)" fill="#ebebeb"/>
      <rect id="Rectangle_1481" data-name="Rectangle 1481" width="11.611" height="0.154" transform="translate(256.181 211.132)" fill="#ebebeb"/>
      <rect id="Rectangle_1482" data-name="Rectangle 1482" width="18.114" height="0.154" transform="translate(180.128 210.062)" fill="#ebebeb"/>
      <rect id="Rectangle_1483" data-name="Rectangle 1483" width="28.957" height="0.154" transform="translate(226.609 205.428)" fill="#ebebeb"/>
      <rect id="Rectangle_1484" data-name="Rectangle 1484" width="6.743" height="0.154" transform="translate(32.245 206.46)" fill="#ebebeb"/>
      <rect id="Rectangle_1485" data-name="Rectangle 1485" width="23.702" height="0.154" transform="translate(44.459 206.46)" fill="#ebebeb"/>
      <rect id="Rectangle_1486" data-name="Rectangle 1486" width="33.284" height="0.154" transform="translate(105.108 209.054)" fill="#ebebeb"/>
      <path id="Path_9913" data-name="Path 9913" d="M160.4,228.828H41.714a3.51,3.51,0,0,1-3.5-3.51V58.479A3.51,3.51,0,0,1,41.714,55H160.4a3.51,3.51,0,0,1,3.51,3.51V225.318A3.51,3.51,0,0,1,160.4,228.828ZM41.714,55.123a3.356,3.356,0,0,0-3.35,3.356V225.318a3.356,3.356,0,0,0,3.35,3.356H160.4a3.362,3.362,0,0,0,3.356-3.356V58.479a3.362,3.362,0,0,0-3.356-3.356Z" transform="translate(-14.724 -55)" fill="#ebebeb"/>
      <path id="Path_9914" data-name="Path 9914" d="M376.7,228.828H258.01a3.516,3.516,0,0,1-3.51-3.51V58.479A3.516,3.516,0,0,1,258.01,55H376.7a3.51,3.51,0,0,1,3.5,3.479V225.318A3.51,3.51,0,0,1,376.7,228.828ZM258.01,55.123a3.362,3.362,0,0,0-3.356,3.356V225.318a3.362,3.362,0,0,0,3.356,3.356H376.7a3.362,3.362,0,0,0,3.356-3.356V58.479a3.362,3.362,0,0,0-3.356-3.356Z" transform="translate(-98.067 -55)" fill="#ebebeb"/>
      <rect id="Rectangle_1487" data-name="Rectangle 1487" width="11.611" height="0.154" transform="translate(256.181 211.132)" fill="#ebebeb"/>
      <rect id="Rectangle_1488" data-name="Rectangle 1488" width="18.114" height="0.154" transform="translate(180.128 210.062)" fill="#ebebeb"/>
      <rect id="Rectangle_1489" data-name="Rectangle 1489" width="28.957" height="0.154" transform="translate(226.609 205.428)" fill="#ebebeb"/>
      <rect id="Rectangle_1490" data-name="Rectangle 1490" width="6.743" height="0.154" transform="translate(32.245 206.46)" fill="#ebebeb"/>
      <rect id="Rectangle_1491" data-name="Rectangle 1491" width="23.702" height="0.154" transform="translate(44.459 206.46)" fill="#ebebeb"/>
      <rect id="Rectangle_1492" data-name="Rectangle 1492" width="33.284" height="0.154" transform="translate(105.108 209.054)" fill="#ebebeb"/>
      <circle id="Ellipse_56" data-name="Ellipse 56" cx="16.621" cy="16.621" r="16.621" transform="translate(86.329 193.608) rotate(-67.5)" fill="#e0e0e0"/>
      <circle id="Ellipse_57" data-name="Ellipse 57" cx="16.621" cy="16.621" r="16.621" transform="translate(191.532 184.615) rotate(-45)" fill="#e0e0e0"/>
      <path id="Path_9915" data-name="Path 9915" d="M73.431,236.64,56.11,271.977v33.2h67.042V236.64Z" transform="translate(-21.621 -124.992)" fill="#f5f5f5"/>
      <path id="Path_9916" data-name="Path 9916" d="M81.848,246.93,70.71,269.654v7.6H98.155V246.93Z" transform="translate(-27.247 -128.957)" fill="#ebebeb"/>
      <rect id="Rectangle_1493" data-name="Rectangle 1493" width="11.673" height="68.535" transform="translate(79.661 111.648)" fill="#e0e0e0"/>
      <rect id="Rectangle_1494" data-name="Rectangle 1494" width="159.389" height="80.048" transform="translate(243.783 180.183) rotate(180)" fill="#ebebeb"/>
      <rect id="Rectangle_1495" data-name="Rectangle 1495" width="209.294" height="5.557" transform="translate(243.783 185.74) rotate(180)" fill="#e6e6e6"/>
      <circle id="Ellipse_58" data-name="Ellipse 58" cx="16.621" cy="16.621" r="16.621" transform="translate(32.442 193.612) rotate(-67.5)" fill="#e6e6e6"/>
      <path id="Path_9917" data-name="Path 9917" d="M81.4,340.459a8.243,8.243,0,1,1-8.237,8.237,8.243,8.243,0,0,1,8.237-8.237m0-2.459a10.7,10.7,0,1,0,10.7,10.7A10.7,10.7,0,0,0,81.4,338Z" transform="translate(-27.243 -164.049)" fill="#f5f5f5"/>
      <circle id="Ellipse_59" data-name="Ellipse 59" cx="16.621" cy="16.621" r="16.621" transform="translate(137.649 184.616) rotate(-45)" fill="#e6e6e6"/>
      <path id="Path_9918" data-name="Path 9918" d="M255.471,340.459a8.243,8.243,0,1,1-8.237,8.237,8.243,8.243,0,0,1,8.237-8.237m0-2.459a10.7,10.7,0,1,0,10.7,10.7A10.7,10.7,0,0,0,255.471,338Z" transform="translate(-94.318 -164.049)" fill="#f5f5f5"/>
      <rect id="Rectangle_1496" data-name="Rectangle 1496" width="54.447" height="72.512" transform="translate(186.791 105.489)" fill="#e0e0e0"/>
      <rect id="Rectangle_1497" data-name="Rectangle 1497" width="15.594" height="21.685" transform="translate(198.421 156.316)" fill="#fafafa"/>
      <rect id="Rectangle_1498" data-name="Rectangle 1498" width="4.001" height="7.425" transform="translate(204.217 156.316)" fill="#f5f5f5"/>
      <rect id="Rectangle_1499" data-name="Rectangle 1499" width="15.594" height="16.842" transform="translate(216.068 161.153)" fill="#fafafa"/>
      <rect id="Rectangle_1500" data-name="Rectangle 1500" width="2.053" height="16.842" transform="translate(216.068 178.001) rotate(180)" fill="#ebebeb"/>
      <rect id="Rectangle_1501" data-name="Rectangle 1501" width="4.001" height="7.425" transform="translate(221.864 161.153)" fill="#f5f5f5"/>
      <rect id="Rectangle_1502" data-name="Rectangle 1502" width="31.606" height="72.512" transform="translate(272.844 177.995) rotate(180)" fill="#f0f0f0"/>
      <rect id="Rectangle_1503" data-name="Rectangle 1503" width="11.629" height="72.512" transform="translate(198.414 177.995) rotate(180)" fill="#f0f0f0"/>
      <circle id="Ellipse_60" data-name="Ellipse 60" cx="24.98" cy="24.98" r="24.98" transform="translate(119.061 111.648)" fill="#fff"/>
      <rect id="Rectangle_1504" data-name="Rectangle 1504" width="8.04" height="28.324" transform="translate(140.021 122.466)" fill="#ebebeb"/>
      <rect id="Rectangle_1505" data-name="Rectangle 1505" width="8.04" height="28.324" transform="translate(158.197 132.608) rotate(90)" fill="#ebebeb"/>
      <circle id="Ellipse_61" data-name="Ellipse 61" cx="23.032" cy="23.032" r="23.032" transform="translate(126.185 54.235) rotate(-80.78)" fill="#fafafa"/>
      <circle id="Ellipse_62" data-name="Ellipse 62" cx="25.287" cy="25.287" r="25.287" transform="translate(136.223 65.1) rotate(-80.78)" fill="#fafafa"/>
      <circle id="Ellipse_63" data-name="Ellipse 63" cx="20.388" cy="20.388" r="20.388" transform="translate(104.345 48.087) rotate(-45)" fill="#fafafa"/>
      <circle id="Ellipse_64" data-name="Ellipse 64" cx="11.341" cy="11.341" r="11.341" transform="translate(99.754 39.566)" fill="#fafafa"/>
      <circle id="Ellipse_65" data-name="Ellipse 65" cx="12.871" cy="12.871" r="12.871" transform="translate(169.377 50.904) rotate(-45)" fill="#fafafa"/>
      <circle id="Ellipse_66" data-name="Ellipse 66" cx="16.375" cy="16.375" r="16.375" transform="translate(224.28 8.679)" fill="#f5f5f5"/>
      <circle id="Ellipse_67" data-name="Ellipse 67" cx="12.441" cy="12.441" r="12.441" transform="translate(213.511 15.981)" fill="#f5f5f5"/>
      <circle id="Ellipse_68" data-name="Ellipse 68" cx="14.494" cy="14.494" r="14.494" transform="translate(239.628 16.602)" fill="#f5f5f5"/>
      <circle id="Ellipse_69" data-name="Ellipse 69" cx="8.808" cy="8.808" r="8.808" transform="translate(254.651 20.979) rotate(-13.28)" fill="#f5f5f5"/>
      <circle id="Ellipse_70" data-name="Ellipse 70" cx="14.254" cy="14.254" r="14.254" transform="translate(55.756 12.883)" fill="#f5f5f5"/>
      <circle id="Ellipse_71" data-name="Ellipse 71" cx="10.83" cy="10.83" r="10.83" transform="translate(69.77 16.154) rotate(-13.28)" fill="#f5f5f5"/>
      <circle id="Ellipse_72" data-name="Ellipse 72" cx="12.5" cy="12.5" r="12.5" transform="translate(45.667 9)" fill="#f5f5f5"/>
      <circle id="Ellipse_73" data-name="Ellipse 73" cx="7.665" cy="7.665" r="7.665" transform="translate(37.76 24.989) rotate(-45)" fill="#f5f5f5"/>
    </g>
    <g id="freepik--Shadow--inject-678" transform="translate(34.489 270.084)">
      <ellipse id="freepik--path--inject-678" cx="119.178" cy="6.958" rx="119.178" ry="6.958" fill="#f5f5f5"/>
    </g>
    <g id="freepik--Supplies--inject-678" transform="translate(45.553 217.432)">
      <rect id="Rectangle_1506" data-name="Rectangle 1506" width="40.974" height="32.62" transform="translate(0 24.943)" fill="#62c9d5"/>
      <rect id="Rectangle_1507" data-name="Rectangle 1507" width="40.974" height="32.62" transform="translate(0 24.943)" fill="#fff" opacity="0.7"/>
      <rect id="Rectangle_1508" data-name="Rectangle 1508" width="14.5" height="32.62" transform="translate(26.474 24.943)" fill="#62c9d5" opacity="0.4"/>
      <path id="Path_9919" data-name="Path 9919" d="M131.039,382.49c0,3.424-1.414,6.2-3.159,6.2s-3.159-2.772-3.159-6.2,1.414-6.19,3.159-6.19S131.039,379.072,131.039,382.49Z" transform="translate(-93.612 -341.239)" fill="#fff"/>
      <rect id="Rectangle_1509" data-name="Rectangle 1509" width="1.186" height="7.622" transform="translate(33.671 37.439)" fill="#62c9d5"/>
      <rect id="Rectangle_1510" data-name="Rectangle 1510" width="2.01" height="4.512" transform="translate(36.523 40.248) rotate(90)" fill="#62c9d5"/>
      <rect id="Rectangle_1511" data-name="Rectangle 1511" width="5.175" height="12.336" transform="translate(15.822 57.557) rotate(180)" fill="#fff" opacity="0.7"/>
      <rect id="Rectangle_1512" data-name="Rectangle 1512" width="5.175" height="5.784" transform="translate(15.822 30.727) rotate(180)" fill="#fff" opacity="0.7"/>
      <rect id="Rectangle_1513" data-name="Rectangle 1513" width="40.974" height="32.62" transform="translate(32.854 24.943)" fill="#62c9d5"/>
      <rect id="Rectangle_1514" data-name="Rectangle 1514" width="40.974" height="32.62" transform="translate(32.854 24.943)" fill="#fff" opacity="0.7"/>
      <rect id="Rectangle_1515" data-name="Rectangle 1515" width="14.5" height="32.62" transform="translate(59.321 24.943)" fill="#62c9d5" opacity="0.4"/>
      <path id="Path_9920" data-name="Path 9920" d="M184.479,382.49c0,3.424-1.414,6.2-3.159,6.2s-3.159-2.772-3.159-6.2,1.414-6.19,3.159-6.19S184.479,379.072,184.479,382.49Z" transform="translate(-114.204 -341.239)" fill="#fff"/>
      <rect id="Rectangle_1516" data-name="Rectangle 1516" width="1.186" height="7.622" transform="translate(66.519 37.439)" fill="#62c9d5"/>
      <rect id="Rectangle_1517" data-name="Rectangle 1517" width="2.01" height="4.512" transform="translate(69.371 40.248) rotate(90)" fill="#62c9d5"/>
      <rect id="Rectangle_1518" data-name="Rectangle 1518" width="5.175" height="12.336" transform="translate(43.5 24.943)" fill="#fff" opacity="0.7"/>
      <rect id="Rectangle_1519" data-name="Rectangle 1519" width="5.175" height="5.784" transform="translate(43.5 51.773)" fill="#fff" opacity="0.7"/>
      <rect id="Rectangle_1520" data-name="Rectangle 1520" width="40.974" height="24.943" transform="translate(19.337)" fill="#62c9d5"/>
      <rect id="Rectangle_1521" data-name="Rectangle 1521" width="40.974" height="24.943" transform="translate(19.337)" fill="#fff" opacity="0.7"/>
      <rect id="Rectangle_1522" data-name="Rectangle 1522" width="14.5" height="24.943" transform="translate(45.811)" fill="#62c9d5" opacity="0.4"/>
      <ellipse id="Ellipse_74" data-name="Ellipse 74" cx="3.159" cy="6.196" rx="3.159" ry="6.196" transform="translate(50.44 6.276)" fill="#fff"/>
      <rect id="Rectangle_1523" data-name="Rectangle 1523" width="1.186" height="7.622" transform="translate(53.009 8.661)" fill="#62c9d5"/>
      <rect id="Rectangle_1524" data-name="Rectangle 1524" width="2.01" height="4.512" transform="translate(55.855 11.47) rotate(90)" fill="#62c9d5"/>
      <rect id="Rectangle_1525" data-name="Rectangle 1525" width="5.175" height="8.495" transform="translate(29.983)" fill="#fff" opacity="0.7"/>
      <rect id="Rectangle_1526" data-name="Rectangle 1526" width="5.175" height="5.784" transform="translate(29.983 19.159)" fill="#fff" opacity="0.7"/>
    </g>
    <g id="freepik--character-1--inject-678" transform="translate(83.545 76.852)">
      <path id="Path_9921" data-name="Path 9921" d="M180.079,156l2.207,3.688c.756,1.229,1.506,2.459,2.28,3.645,1.537,2.416,3.129,4.782,4.8,7.02.412.572.848,1.1,1.266,1.653.215.277.436.529.652.793l.326.4.166.2h0l-.055-.049-.111-.08c-.3-.191-.412-.172-.381-.141a.8.8,0,0,0,.381.135,7.9,7.9,0,0,0,1.6.074,66.826,66.826,0,0,0,8.206-1.168l1.524,3.633a31.151,31.151,0,0,1-4.143,2.256,25.416,25.416,0,0,1-4.622,1.635,13.134,13.134,0,0,1-2.821.387,8.193,8.193,0,0,1-1.813-.154,5.894,5.894,0,0,1-2.385-1.063,3.856,3.856,0,0,1-.313-.258l-.16-.148-.117-.111-.209-.215-.418-.424c-.277-.289-.565-.572-.83-.861-.522-.615-1.082-1.156-1.567-1.752a83.253,83.253,0,0,1-5.6-7.376c-.854-1.229-1.69-2.539-2.459-3.836s-1.555-2.588-2.311-4Z" transform="translate(-150.274 -115.77)" fill="#ff8b7b"/>
      <path id="Path_9922" data-name="Path 9922" d="M216.91,181.266l4.4-4.106,3.276,5s-2.963,3.614-6.491,1.973Z" transform="translate(-167.128 -123.924)" fill="#62c9d5"/>
      <path id="Path_9923" data-name="Path 9923" d="M229.571,175.233l.615,2.735a1.229,1.229,0,0,1-.43,1.229l-2.379,1.881-3.276-5,3.8-1.672a1.229,1.229,0,0,1,1.666.824Z" transform="translate(-169.899 -122.827)" fill="#62c9d5"/>
      <path id="Path_9924" data-name="Path 9924" d="M204.838,406.227a.125.125,0,0,1,.012-.227c.252-.092,2.459-.867,3.073-.424a.412.412,0,0,1,.16.356h0a.713.713,0,0,1-.313.566c-.615.43-2.1,0-2.92-.264Zm2.9-.479a5.18,5.18,0,0,0-2.459.369,3.373,3.373,0,0,0,2.342.172.424.424,0,0,0,.2-.375.141.141,0,0,0-.061-.141Z" transform="translate(-162.45 -211.887)" fill="#62c9d5"/>
      <path id="Path_9925" data-name="Path 9925" d="M205.87,403.326a.891.891,0,0,1,.713-.123c.332.08.406.264.406.406,0,.615-1.383,1.561-2.047,1.758a.111.111,0,0,1-.086,0h0a.135.135,0,0,1-.037-.117A3.181,3.181,0,0,1,205.87,403.326Zm.873.289a.145.145,0,0,0-.1-.123l-.123-.049h-.055a.676.676,0,0,0-.467.1,2.951,2.951,0,0,0-.91,1.512c.695-.307,1.684-1.076,1.684-1.438Z" transform="translate(-162.468 -211.015)" fill="#62c9d5"/>
      <path id="Path_9926" data-name="Path 9926" d="M196.642,399.793l5.237-.08-.326-12.183-5.243.086Z" transform="translate(-159.19 -204.986)" fill="#ff8b7b"/>
      <path id="Path_9927" data-name="Path 9927" d="M201.314,406.36l-5.723.092a.4.4,0,0,0-.406.363l-.5,4.684a.854.854,0,0,0,.861.922c2.059-.068,5.028-.24,7.622-.277,3.036-.049,2.741.074,6.3,0,2.151-.031,2.5-2.219,1.574-2.4-4.2-.836-4.628-.879-8.421-3.012A2.692,2.692,0,0,0,201.314,406.36Z" transform="translate(-158.564 -212.242)" fill="#263238"/>
      <path id="Path_9928" data-name="Path 9928" d="M201.553,387.54l.166,6.276-5.237.086-.172-6.282Z" transform="translate(-159.19 -204.99)" opacity="0.2"/>
      <path id="Path_9929" data-name="Path 9929" d="M183.411,118.3c-.2,3.928.148,11.642-2.711,14.137,1.961,2.121,5.206,3.811,9.767,4.094s3.522-2.268,2.422-3.946c-4.229-1.137-3.473-4.917-2.532-7.843Z" transform="translate(-153.175 -101.243)" fill="#ff8b7b"/>
      <path id="Path_9930" data-name="Path 9930" d="M177.46,138.576c.111-1.1.8-3.307,3.762-2.545s6.46.492,9.122.645,2.809,3.491,2.809,3.491Z" transform="translate(-151.927 -108.015)" fill="#62c9d5"/>
      <path id="Path_9931" data-name="Path 9931" d="M173.935,139.067c6.313-.068,14.187.7,18.44,2.047a2.827,2.827,0,0,1,1.979,2.545c.252,4.758.94,20.419,1.537,44.834l-28.084.455a296,296,0,0,0-2.207-40.371,8.47,8.47,0,0,1,8.335-9.509Z" transform="translate(-147.332 -109.244)" fill="#263238"/>
      <rect id="Rectangle_1527" data-name="Rectangle 1527" width="39.249" height="23.893" transform="translate(52.717 37.223) rotate(7.481)" fill="#62c9d5"/>
      <rect id="Rectangle_1528" data-name="Rectangle 1528" width="39.249" height="23.893" transform="translate(52.717 37.223) rotate(7.481)" fill="#fff" opacity="0.7"/>
      <rect id="Rectangle_1529" data-name="Rectangle 1529" width="26.64" height="23.929" transform="translate(65.701 38.757) rotate(7.36)" fill="#62c9d5" opacity="0.4"/>
      <ellipse id="Ellipse_75" data-name="Ellipse 75" cx="5.944" cy="5.802" rx="5.944" ry="5.802" transform="translate(71.831 57.613) rotate(-82.65)" fill="#fff"/>
      <rect id="Rectangle_1530" data-name="Rectangle 1530" width="2.182" height="7.308" transform="translate(77.751 48.696) rotate(7.36)" fill="#62c9d5"/>
      <rect id="Rectangle_1531" data-name="Rectangle 1531" width="1.924" height="8.292" transform="translate(82.6 52.046) rotate(97.36)" fill="#62c9d5"/>
      <rect id="Rectangle_1532" data-name="Rectangle 1532" width="2.262" height="8.15" transform="translate(58.063 37.769) rotate(7.36)" fill="#fff" opacity="0.7"/>
      <rect id="Rectangle_1533" data-name="Rectangle 1533" width="2.262" height="5.55" transform="translate(55.708 56) rotate(7.36)" fill="#fff" opacity="0.7"/>
      <path id="Path_9932" data-name="Path 9932" d="M210.486,153.61c.135.615.32,1.365.486,2.053l.529,2.114c.375,1.408.756,2.809,1.18,4.192s.854,2.754,1.352,4.094,1,2.655,1.58,3.909c.289.615.584,1.229.9,1.844.154.307.32.615.479.885l.252.424.123.209h0V173.3l-.068-.08a1.875,1.875,0,0,0-.762-.535.676.676,0,0,0-.289-.068c-.074,0,.049.074.227.092a7.528,7.528,0,0,0,1.592-.117,69.144,69.144,0,0,0,8.243-2.268l1.942,3.43a34.185,34.185,0,0,1-3.922,2.834,26.386,26.386,0,0,1-4.512,2.244,12.7,12.7,0,0,1-2.889.725,7.376,7.376,0,0,1-2.041,0,5.857,5.857,0,0,1-1.371-.412A5.249,5.249,0,0,1,212,178.111a4.8,4.8,0,0,1-.338-.369l-.154-.2-.086-.123-.191-.264-.369-.565c-.234-.357-.479-.713-.7-1.07-.455-.719-.879-1.444-1.266-2.176a57.63,57.63,0,0,1-3.8-8.95c-.5-1.518-.959-3.036-1.365-4.579-.2-.762-.393-1.537-.572-2.317s-.326-1.531-.486-2.4Z" transform="translate(-161.645 -114.849)" fill="#ff8b7b"/>
      <path id="Path_9933" data-name="Path 9933" d="M198.429,145.1c-2.508,4.413,4.217,19.135,4.217,19.135l10.449-3.977s-.4-7.45-3.147-13.209C207.1,141.143,201.176,140.264,198.429,145.1Z" transform="translate(-159.791 -110.367)" fill="#263238"/>
      <path id="Path_9934" data-name="Path 9934" d="M247.6,177.24l-1.893.166a9.78,9.78,0,0,0-3.147.805l-2.834,1.229a.793.793,0,0,0-.43.977l1.106,3.35a.793.793,0,0,0,.842.541,15.151,15.151,0,0,0,4.376-1l2.41-.977a1.1,1.1,0,0,0,.615-1l.117-2.766a1.229,1.229,0,0,0-1.162-1.334Z" transform="translate(-175.737 -123.955)" fill="#62c9d5"/>
      <path id="Path_9935" data-name="Path 9935" d="M241.392,179.1c.565-.658,1.229-3.4.842-4.106s-1.039,1.094-1.444,1.574c-1.125,1.328-2.065,2.674-1.266,3.073S240.4,180.254,241.392,179.1Z" transform="translate(-175.727 -123.028)" fill="#62c9d5"/>
      <path id="Path_9936" data-name="Path 9936" d="M205.887,112.584c.037.424.289.744.565.719s.467-.387.436-.811-.289-.744-.565-.713S205.85,112.166,205.887,112.584Z" transform="translate(-162.879 -98.729)" fill="#263238"/>
      <path id="Path_9937" data-name="Path 9937" d="M205.06,113.05a15.028,15.028,0,0,0,2.311,3.424,2.459,2.459,0,0,1-1.979.565Z" transform="translate(-162.562 -99.22)" fill="#ff5652"/>
      <path id="Path_9938" data-name="Path 9938" d="M203.411,108.56a.405.405,0,0,1-.123-.037.246.246,0,0,1-.074-.344,2.459,2.459,0,0,1,1.93-1.229.24.24,0,0,1,.252.24.252.252,0,0,1-.246.258h0a1.979,1.979,0,0,0-1.518.971A.252.252,0,0,1,203.411,108.56Z" transform="translate(-161.835 -96.869)" fill="#263238"/>
      <path id="Path_9939" data-name="Path 9939" d="M182.387,106.9c.744,5.151.922,8.206,3.756,10.628,4.266,3.639,10.449.682,11.279-4.6.731-4.751-.615-12.379-5.852-13.978a7.173,7.173,0,0,0-9.183,7.954Z" transform="translate(-153.793 -93.664)" fill="#ff8b7b"/>
      <path id="Path_9940" data-name="Path 9940" d="M191.451,106.39a2.459,2.459,0,0,0,.615-3.688c-.836-.99-2.317-2.7-1.481-3.424s5.139-2.2,3.553-5.169-4.917-4.788-7.13-2.582-2.889,1.063-6.46.615-5.169,3.19-3.952,4.635-3.19,2.17-1.746,4.069c-2.7,1.4-.08,5.815,2.053,7.714s.682,5.089,4.3,6.27S193.086,110.5,191.451,106.39Z" transform="translate(-150.478 -90.55)" fill="#263238"/>
      <path id="Path_9941" data-name="Path 9941" d="M200.881,122.032a.338.338,0,0,1-.3-.172c-.117-.191-2.815-4.782-.94-7.376.645-.885,1.315-1.3,2-1.229,1.137.086,1.948,1.408,2.532,2.545a.345.345,0,0,1-.615.313c-.27-.522-1.082-2.108-1.979-2.176-.436,0-.9.289-1.4.965-1.61,2.219.947,6.571.977,6.614a.35.35,0,0,1-.123.473A.369.369,0,0,1,200.881,122.032Z" transform="translate(-160.221 -99.296)" fill="#62c9d5"/>
      <path id="Path_9942" data-name="Path 9942" d="M148.363,403.2a.111.111,0,0,1-.074-.1.123.123,0,0,1,.074-.123c.246-.111,2.409-1.057,3.024-.664a.393.393,0,0,1,.191.344h0a.7.7,0,0,1-.27.615c-.615.473-2.09.178-2.926-.037Zm2.852-.707a5.212,5.212,0,0,0-2.41.559,3.434,3.434,0,0,0,2.348,0,.437.437,0,0,0,.172-.393.141.141,0,0,0-.068-.135Z" transform="translate(-140.686 -210.645)" fill="#62c9d5"/>
      <path id="Path_9943" data-name="Path 9943" d="M149.218,400.276a.959.959,0,0,1,.7-.172c.338.055.43.24.443.375.061.615-1.229,1.66-1.905,1.912a.135.135,0,0,1-.086,0h-.037a.154.154,0,0,1-.043-.123A3.508,3.508,0,0,1,149.218,400.276Zm.9.227s0-.074-.111-.117l-.129-.037h-.1a.713.713,0,0,0-.412.135,2.9,2.9,0,0,0-.774,1.58c.664-.357,1.567-1.2,1.53-1.561Z" transform="translate(-140.686 -209.828)" fill="#62c9d5"/>
      <path id="Path_9944" data-name="Path 9944" d="M139.82,395.608l5.059,1.322L148.3,385.2l-5.059-1.315Z" transform="translate(-137.423 -203.58)" fill="#ff8b7b"/>
      <path id="Path_9945" data-name="Path 9945" d="M143.739,402.545l-5.532-1.444a.406.406,0,0,0-.486.246l-1.752,4.376a.854.854,0,0,0,.615,1.119c2,.486,2.674.5,5.188,1.156,2.932.762,3.442,2.36,7,2.391,2.151,0,2.551-2.151,1.635-2.367-2.9-.682-4.555-3.209-5.489-4.751A1.844,1.844,0,0,0,143.739,402.545Z" transform="translate(-135.92 -210.21)" fill="#263238"/>
      <path id="Path_9946" data-name="Path 9946" d="M149.333,385.2l-1.764,6.048-5.059-1.315,1.764-6.048Z" transform="translate(-138.459 -203.58)" opacity="0.2"/>
      <path id="Path_9947" data-name="Path 9947" d="M152.626,270.151c3.024-19.712,1.733-38.9,5.975-50.12l18.557-.3s-8.052,35.94-11.679,51.632c-3.762,16.344-15.711,54.263-15.711,54.263l-8.187-2.145S147.813,284.368,152.626,270.151Z" transform="translate(-138.101 -140.327)" fill="#62c9d5"/>
      <path id="Path_9948" data-name="Path 9948" d="M181.35,260.3c0,3.9.289,8.114.682,12.613,2.391-10.517,5.741-25.392,7.991-35.436C183.212,242.569,181.35,250.394,181.35,260.3Z" transform="translate(-153.426 -147.167)" opacity="0.2"/>
      <path id="Path_9949" data-name="Path 9949" d="M198.154,115.587a4.155,4.155,0,0,0,2,2.5c1.3.7,2.28-.381,2.194-1.776-.074-1.229-.836-3.116-2.274-3.239a1.9,1.9,0,0,0-1.924,2.52Z" transform="translate(-159.86 -99.225)" fill="#ff8b7b"/>
      <path id="Path_9950" data-name="Path 9950" d="M202.89,114.83a2.489,2.489,0,0,1,1.844,2.661c0,.725-1.451,6.233-4.4,7.278s-2.95.338-2.514-.412S202.226,119.883,202.89,114.83Z" transform="translate(-159.691 -99.906)" fill="#62c9d5"/>
      <path id="Path_9951" data-name="Path 9951" d="M188.2,270.187c-2.526-20.647-5.932-39.492-3.295-50.458l18.09-.289s-1.051,36.769-1.924,52.738c-.91,16.6-2.182,55.6-2.182,55.6L190,327.91S186.968,291.049,188.2,270.187Z" transform="translate(-154.427 -140.216)" fill="#62c9d5"/>
      <path id="Path_9952" data-name="Path 9952" d="M202.152,393.767l-10.566.166-.6-3.424,11.777-.369Z" transform="translate(-157.14 -205.992)" fill="#263238"/>
      <path id="Path_9953" data-name="Path 9953" d="M149.572,391.462,139.35,388.8l.338-3.461,11.451,2.8Z" transform="translate(-137.242 -204.143)" fill="#263238"/>
    </g>
    <g id="freepik--character-2--inject-678" transform="translate(183.048 88.422)">
      <path id="Path_9954" data-name="Path 9954" d="M343.411,112.882c-6.46,5.219-8.1,13.646-5.778,17.463,3.307,5.428,16.6,6.866,22.9,3.6,2.932-1.524,5.581-18.772-2.926-22.067C354.388,107.239,347.062,109.925,343.411,112.882Z" transform="translate(-312.763 -109.375)" fill="#263238"/>
      <path id="Path_9955" data-name="Path 9955" d="M374.164,374.505l-4.69,3.338L356.32,365.334l5.667-6.134Z" transform="translate(-320.35 -205.641)" fill="#ffc3bd"/>
      <path id="Path_9956" data-name="Path 9956" d="M374.05,384.743l4.751-4.395a.443.443,0,0,1,.615-.043l3.731,3.024a.891.891,0,0,1-.043,1.328c-1.678,1.506-2.557,2.151-4.647,4.088-1.285,1.186-3.829,3.768-5.606,5.409s-3.356.086-2.754-.744c2.711-3.737,3.178-5.864,3.5-7.769a1.617,1.617,0,0,1,.455-.9Z" transform="translate(-325.609 -213.733)" fill="#263238"/>
      <path id="Path_9957" data-name="Path 9957" d="M373.838,390.111a2.274,2.274,0,0,1-1.229.707.658.658,0,0,1-.615-.289.43.43,0,0,1-.061-.412c.277-.744,2.7-1.494,2.969-1.58a.135.135,0,0,1,.141.049.142.142,0,0,1,0,.154,10.635,10.635,0,0,1-1.2,1.371Zm-1.494-.123a.572.572,0,0,0-.16.209.154.154,0,0,0,.031.16.424.424,0,0,0,.387.2c.449,0,1.18-.615,1.985-1.641a7.789,7.789,0,0,0-2.243,1.076Z" transform="translate(-326.356 -216.944)" fill="#62c9d5"/>
      <path id="Path_9958" data-name="Path 9958" d="M375.178,388.181l-.049.031c-.7.252-2.459.32-2.8-.2-.08-.123-.117-.326.135-.615a1.051,1.051,0,0,1,.7-.357,3.375,3.375,0,0,1,2.016.947.129.129,0,0,1,.037.123A.253.253,0,0,1,375.178,388.181Zm-2.459-.676-.055.061c-.166.184-.117.264-.1.289.2.313,1.487.363,2.262.178a2.815,2.815,0,0,0-1.647-.725.768.768,0,0,0-.455.2Z" transform="translate(-326.497 -216.366)" fill="#62c9d5"/>
      <path id="Path_9959" data-name="Path 9959" d="M363.8,396.461l-5.557.191L357.17,377.24l7.72.111Z" transform="translate(-320.677 -212.592)" fill="#ffc3bd"/>
      <path id="Path_9960" data-name="Path 9960" d="M353.073,405.913l6.239-.043a.4.4,0,0,1,.418.375l.375,4.917a.977.977,0,0,1-.959,1c-2.17,0-3.209-.141-5.95-.123-1.69,0-4.167.2-6.5.221s-2.3-2.287-1.315-2.5c4.413-.965,5.188-2.262,6.761-3.5a1.561,1.561,0,0,1,.928-.338Z" transform="translate(-315.892 -223.624)" fill="#263238"/>
      <path id="Path_9961" data-name="Path 9961" d="M329.241,166.566c-.332,1.309-.7,2.563-1.076,3.836s-.762,2.532-1.186,3.793c-.842,2.52-1.74,5.022-2.864,7.548-.289.615-.584,1.266-.922,1.918a17,17,0,0,1-1.229,2.041,6.6,6.6,0,0,1-1.229,1.322,3.756,3.756,0,0,1-1.715.719,4.79,4.79,0,0,1-1.082.037,7.276,7.276,0,0,1-1.432-.313,11.023,11.023,0,0,1-1.131-.393,24.828,24.828,0,0,1-3.756-1.979,33.157,33.157,0,0,1-3.313-2.4,1.574,1.574,0,0,1,1.475-2.711h.049l3.639,1.162a35.282,35.282,0,0,0,3.473.965,5.408,5.408,0,0,0,.75.123,1.468,1.468,0,0,0,.479,0h-.1a1.66,1.66,0,0,0-.824.357l-.068.055h0a1.882,1.882,0,0,0,.117-.191,10.27,10.27,0,0,0,.682-1.358c.234-.516.461-1.07.682-1.641.867-2.287,1.641-4.721,2.391-7.161l1.113-3.688,1.076-3.688h0a3.129,3.129,0,0,1,6.036,1.641Z" transform="translate(-301.63 -129.916)" fill="#62c9d5"/>
      <path id="Path_9962" data-name="Path 9962" d="M301.82,182.879l-2.053-.5a1.1,1.1,0,0,0-1.328.836l-.615,2.741a1.1,1.1,0,0,0,.615,1.229l3.19,1.549a4.917,4.917,0,0,0,2.834,1.684,1.543,1.543,0,0,0,1.592-1.039l.234-.645a1.6,1.6,0,0,0-.2-1.457l-2.151-2.987a3.651,3.651,0,0,0-2.114-1.414Z" transform="translate(-297.8 -137.495)" fill="#263238"/>
      <path id="Path_9963" data-name="Path 9963" d="M307.838,187.549c-.227-.854.332-3.854.965-4.4s.584,1.3.713,2.016c.32,1.74,1.039,3.073.461,4.235C309.571,190.2,308.225,189.036,307.838,187.549Z" transform="translate(-301.648 -137.763)" fill="#263238"/>
      <path id="Path_9964" data-name="Path 9964" d="M332.02,164.357a251.375,251.375,0,0,0,.43,26.191l22.374.731c.547-8.335,1.082-13.775,5.882-28.6a4.727,4.727,0,0,0-3.731-6.147c-1.229-.2-2.588-.375-3.965-.486a70.225,70.225,0,0,0-10.16-.332c-.922.055-1.875.135-2.8.227a8.943,8.943,0,0,0-8.028,8.415Z" transform="translate(-310.919 -127.21)" fill="#62c9d5"/>
      <path id="Path_9965" data-name="Path 9965" d="M348.724,155.78s-3.184.516-.67,7.315a34.839,34.839,0,0,0,10.83-6.983Z" transform="translate(-316.792 -127.256)" fill="#fff"/>
      <ellipse id="Ellipse_76" data-name="Ellipse 76" cx="3.079" cy="2.741" rx="3.079" ry="2.741" transform="matrix(0.189, -0.982, 0.982, 0.189, 34.168, 43.911)" fill="#fff"/>
      <path id="Path_9966" data-name="Path 9966" d="M371.418,171c-.283,3.387-.51,9.189.191,12.828.5-2.422,1.18-5.132,2.121-8.384Z" transform="translate(-326.062 -133.121)" opacity="0.2"/>
      <path id="Path_9967" data-name="Path 9967" d="M359.322,137.45c-.99,3.282-2.274,9.318-.221,11.6a44.507,44.507,0,0,1-10.326,5.723c-2.625-5.3.166-6.054.166-6.054,3.743-.762,3.94-3.5,3.577-6.085Z" transform="translate(-317.009 -120.193)" fill="#ffc3bd"/>
      <path id="Path_9968" data-name="Path 9968" d="M360.5,141.6l-4.917,2.625a10.958,10.958,0,0,1,.123,1.844c1.057,0,3.743-.916,4.684-2.674A2.612,2.612,0,0,0,360.5,141.6Z" transform="translate(-320.065 -121.792)" opacity="0.2"/>
      <path id="Path_9969" data-name="Path 9969" d="M362.377,121.027c-.615,5.477-.731,7.806-3.639,10.492-4.37,4.038-10.966,2.108-12.017-3.43-.947-4.991.191-13.1,5.667-15.035a7.511,7.511,0,0,1,9.988,7.972Z" transform="translate(-316.536 -110.623)" fill="#ffc3bd"/>
      <path id="Path_9970" data-name="Path 9970" d="M359.531,113.537c-3.774,2.176,4.346,10.615,6.4,10.5a5.42,5.42,0,0,0,1.6-8.273C365.586,113.758,364.172,110.876,359.531,113.537Z" transform="translate(-321.207 -110.565)" fill="#263238"/>
      <path id="Path_9971" data-name="Path 9971" d="M364.452,135.86a.35.35,0,0,1-.061-.695c2.459-.424,3.983-1.229,4.34-2.231a2.17,2.17,0,0,0-.652-2.059,1.192,1.192,0,0,0-.867-.424c-1.463-.1-3.534,1.758-4.3,2.459l-.16.141a.35.35,0,0,1-.492-.037.344.344,0,0,1,.037-.486l.154-.141c.922-.817,3.073-2.748,4.825-2.631a1.881,1.881,0,0,1,1.346.658,2.78,2.78,0,0,1,.781,2.754c-.455,1.291-2.09,2.194-4.868,2.686Z" transform="translate(-322.606 -117.227)" fill="#62c9d5"/>
      <path id="Path_9972" data-name="Path 9972" d="M359.16,112.839c2.68,1.229-9.632,1.291-12.17,4.53C349.1,114.148,352.252,109.624,359.16,112.839Z" transform="translate(-316.755 -110.285)" fill="#263238"/>
      <path id="Path_9973" data-name="Path 9973" d="M326.2,212.42s-11.537,49.087-10.511,61.67c1.229,14.709,24.919,35.823,24.919,35.823l6.761-7.376s-14.3-16.16-19.762-28.809c1.77-12.644,17.6-48.657,16.934-60.7Z" transform="translate(-304.669 -149.081)" fill="#62c9d5"/>
      <path id="Path_9974" data-name="Path 9974" d="M326.2,212.42s-11.537,49.087-10.511,61.67c1.229,14.709,24.919,35.823,24.919,35.823l6.761-7.376s-14.3-16.16-19.762-28.809c1.77-12.644,17.6-48.657,16.934-60.7Z" transform="translate(-304.669 -149.081)" fill="#fff" opacity="0.4"/>
      <path id="Path_9975" data-name="Path 9975" d="M363.02,358.842l-8.1,7.284-2.385-1.494,8.845-8.4Z" transform="translate(-318.893 -204.496)" fill="#62c9d5"/>
      <path id="Path_9976" data-name="Path 9976" d="M343.289,245.434c-6.485,8.98-6.8,25.5-6.393,34.772,2.225-8.525,6.989-21.009,10.7-32.473C347.511,243.326,346.319,241.211,343.289,245.434Z" transform="translate(-312.82 -160.92)" fill="#62c9d5" opacity="0.3"/>
      <path id="Path_9977" data-name="Path 9977" d="M339.63,212.11s4.536,42.523,5.981,57.053c1.709,17.254,4.217,44.914,4.217,44.914l8.3-.344s1.844-23.45.467-38.9c.246-20.505,3.829-49.118-.774-61.786Z" transform="translate(-313.919 -148.962)" fill="#62c9d5"/>
      <path id="Path_9978" data-name="Path 9978" d="M339.63,212.11s4.536,42.523,5.981,57.053c1.709,17.254,4.217,44.914,4.217,44.914l8.3-.344s1.844-23.45.467-38.9c.246-20.505,3.829-49.118-.774-61.786Z" transform="translate(-313.919 -148.962)" fill="#fff" opacity="0.4"/>
      <path id="Path_9979" data-name="Path 9979" d="M364.365,377.655l-9.521-.27-.664-2.993,10.769-.3Z" transform="translate(-319.525 -211.378)" fill="#62c9d5"/>
      <path id="Path_9980" data-name="Path 9980" d="M357.146,127.829c0,.449-.277.8-.566.787s-.516-.387-.492-.836.277-.8.565-.781S357.164,127.387,357.146,127.829Z" transform="translate(-320.26 -116.166)" fill="#263238"/>
      <path id="Path_9981" data-name="Path 9981" d="M348.926,127.476c0,.443-.277.793-.565.781s-.516-.387-.492-.836.277-.793.566-.781S348.944,127.009,348.926,127.476Z" transform="translate(-317.092 -116.027)" fill="#263238"/>
      <path id="Path_9982" data-name="Path 9982" d="M348.337,126.433l-1.057-.363S347.79,126.937,348.337,126.433Z" transform="translate(-316.866 -115.808)" fill="#263238"/>
      <path id="Path_9983" data-name="Path 9983" d="M350.977,129.19a11.974,11.974,0,0,1-1.727,2.778,1.93,1.93,0,0,0,1.58.375Z" transform="translate(-317.625 -117.01)" fill="#ed847e"/>
      <path id="Path_9984" data-name="Path 9984" d="M355.449,136.222a3.748,3.748,0,0,1-.75,0,.129.129,0,1,1,0-.258,3.547,3.547,0,0,0,2.95-1.229.129.129,0,0,1,.184-.031.135.135,0,0,1,0,.184,3.688,3.688,0,0,1-2.385,1.334Z" transform="translate(-319.675 -119.125)" fill="#263238"/>
      <path id="Path_9985" data-name="Path 9985" d="M371.371,132.644a4.026,4.026,0,0,1-2.52,1.764c-1.377.3-1.979-.959-1.524-2.219.406-1.131,1.617-2.649,2.969-2.379a1.807,1.807,0,0,1,1.076,2.834Z" transform="translate(-324.533 -117.237)" fill="#ffc3bd"/>
      <path id="Path_9986" data-name="Path 9986" d="M359.163,124.494a.277.277,0,0,1-.135-.154,2.084,2.084,0,0,0-1.266-1.414.264.264,0,0,1-.178-.326.258.258,0,0,1,.326-.178,2.594,2.594,0,0,1,1.623,1.764.258.258,0,0,1-.178.326.227.227,0,0,1-.191-.018Z" transform="translate(-320.833 -114.398)" fill="#263238"/>
      <path id="Path_9987" data-name="Path 9987" d="M346.574,123.241a.277.277,0,0,1-.191-.049.264.264,0,0,1-.055-.369,2.631,2.631,0,0,1,2.127-1.113.258.258,0,0,1,.246.277.264.264,0,0,1-.277.252,2.059,2.059,0,0,0-1.672.9.27.27,0,0,1-.178.1Z" transform="translate(-316.48 -114.128)" fill="#263238"/>
      <path id="Path_9988" data-name="Path 9988" d="M353.231,406.348a.707.707,0,0,1-.117-.615.486.486,0,0,1,.283-.375c.67-.3,2.28.781,2.459.9a.123.123,0,0,1,.049.129.147.147,0,0,1-.1.111c-.731.172-2.028.4-2.52-.074A.24.24,0,0,1,353.231,406.348Zm2.207-.049c-.658-.412-1.6-.873-1.948-.719a.191.191,0,0,0-.117.166.467.467,0,0,0,.1.467,2.693,2.693,0,0,0,1.967.074Z" transform="translate(-319.104 -223.407)" fill="#62c9d5"/>
      <path id="Path_9989" data-name="Path 9989" d="M355.895,405a2.12,2.12,0,0,1-.615-1.5.5.5,0,0,1,.467-.369.615.615,0,0,1,.547.172c.559.529.467,2.127.461,2.194a.154.154,0,0,1-.074.111.135.135,0,0,1-.129,0,2.79,2.79,0,0,1-.658-.608Zm.264-1.438-.055-.061a.393.393,0,0,0-.344-.111.208.208,0,0,0-.227.16c-.1.381.467,1.279.971,1.7A3.2,3.2,0,0,0,356.159,403.564Z" transform="translate(-319.949 -222.566)" fill="#62c9d5"/>
      <path id="Path_9990" data-name="Path 9990" d="M355.315,210.892l.357,2.041c.061.16-.141.313-.4.307l-23.025-.75c-.2,0-.356-.117-.356-.24v-2.035c0-.141.184-.252.406-.246l22.663.738A.375.375,0,0,1,355.315,210.892Z" transform="translate(-310.936 -148.137)" fill="#fff"/>
      <path id="Path_9991" data-name="Path 9991" d="M364.481,213.655h.615c.123,0,.221-.061.221-.135v-2.612c0-.074-.1-.141-.221-.148h-.615c-.123,0-.221.055-.221.135v2.637C364.26,213.587,364.358,213.655,364.481,213.655Z" transform="translate(-323.409 -148.442)" fill="#62c9d5"/>
      <path id="Path_9992" data-name="Path 9992" d="M364.481,213.655h.615c.123,0,.221-.061.221-.135v-2.612c0-.074-.1-.141-.221-.148h-.615c-.123,0-.221.055-.221.135v2.637C364.26,213.587,364.358,213.655,364.481,213.655Z" transform="translate(-323.409 -148.442)" fill="#fff" opacity="0.4"/>
      <path id="Path_9993" data-name="Path 9993" d="M335.081,212.68h.615c.123,0,.221-.061.221-.135v-2.637c0-.08-.1-.148-.221-.148h-.615c-.123,0-.221.055-.221.135v2.637C334.86,212.612,334.946,212.68,335.081,212.68Z" transform="translate(-312.081 -148.056)" fill="#62c9d5"/>
      <path id="Path_9994" data-name="Path 9994" d="M335.081,212.68h.615c.123,0,.221-.061.221-.135v-2.637c0-.08-.1-.148-.221-.148h-.615c-.123,0-.221.055-.221.135v2.637C334.86,212.612,334.946,212.68,335.081,212.68Z" transform="translate(-312.081 -148.056)" fill="#fff" opacity="0.4"/>
      <path id="Path_9995" data-name="Path 9995" d="M349.781,213.17h.615c.123,0,.221-.061.221-.135V210.4c0-.08-.1-.148-.221-.148h-.615c-.123,0-.221.055-.221.135v2.637C349.56,213.1,349.658,213.17,349.781,213.17Z" transform="translate(-317.745 -148.245)" fill="#62c9d5"/>
      <path id="Path_9996" data-name="Path 9996" d="M349.781,213.17h.615c.123,0,.221-.061.221-.135V210.4c0-.08-.1-.148-.221-.148h-.615c-.123,0-.221.055-.221.135v2.637C349.56,213.1,349.658,213.17,349.781,213.17Z" transform="translate(-317.745 -148.245)" fill="#fff" opacity="0.4"/>
      <path id="Path_9997" data-name="Path 9997" d="M366.48,161.154c.842,3.584,1.512,7.112,2.035,10.738.258,1.844.5,3.633.651,5.489a42.264,42.264,0,0,1,.148,5.766c-.037.516-.086,1.039-.172,1.6-.037.277-.1.578-.16.867l-.129.486a4.734,4.734,0,0,1-.209.615,4.265,4.265,0,0,1-1.069,1.537,5.023,5.023,0,0,1-1.279.842,6.76,6.76,0,0,1-2.1.547,14.445,14.445,0,0,1-3.258-.08,27.606,27.606,0,0,1-2.87-.529,56.834,56.834,0,0,1-10.449-3.688,1.555,1.555,0,0,1,.965-2.938h.049c3.411.725,6.915,1.42,10.265,1.795.83.092,1.66.148,2.459.166a9.65,9.65,0,0,0,2.084-.135,1.192,1.192,0,0,0,.467-.172s-.061,0-.166.1a1.18,1.18,0,0,0-.326.436c-.055.154,0,0,0,0v-.166l.055-.449c0-.332.037-.695.043-1.076a42.675,42.675,0,0,0-.375-4.917c-.221-1.7-.461-3.418-.762-5.139-.615-3.43-1.285-6.921-2-10.314v-.037a3.129,3.129,0,0,1,6.1-1.358Z" transform="translate(-316.643 -128.419)" fill="#62c9d5"/>
      <path id="Path_9998" data-name="Path 9998" d="M340.256,189.921l-1.875-.32a1.1,1.1,0,0,0-1.266.922L336.7,193.3a1.094,1.094,0,0,0,.676,1.174l3.288,1.328s2.7,2.114,4.85,1.113v-2.293l-2.692-3.233A4.3,4.3,0,0,0,340.256,189.921Z" transform="translate(-312.786 -140.283)" fill="#263238"/>
      <path id="Path_9999" data-name="Path 9999" d="M356.557,126.823l-1.057-.363S356.01,127.327,356.557,126.823Z" transform="translate(-320.034 -115.958)" fill="#263238"/>
      <path id="Path_10000" data-name="Path 10000" d="M357.3,133.762l1.026,2.157a.793.793,0,0,1,.08.461c-.123,1.168,1.881,5.686-9.128,5.182-3.233-.154-3.62-6.325-3.288-8.267a.818.818,0,0,1,.615-.676l2.373-.516a.954.954,0,0,1,.3,0l7.413,1.229A.805.805,0,0,1,357.3,133.762Z" transform="translate(-316.332 -118.128)" fill="#62c9d5"/>
    </g>
  </g>
</svg>
