<svg xmlns="http://www.w3.org/2000/svg" width="247.572" height="249.645" viewBox="0 0 247.572 249.645">
  <g id="Location_tracking-bro" data-name="Location tracking-bro" transform="translate(-40.71 -36.19)">
    <g id="freepik--Graphics--inject-48" transform="translate(41.21 44.822)">
      <g id="Group_184" data-name="Group 184" transform="translate(0 0)" opacity="0.3">
        <line id="Line_1" data-name="Line 1" y2="1.435" transform="translate(24.556 20.74)" fill="none" stroke="#000" stroke-linejoin="round" stroke-width="1"/>
        <line id="Line_2" data-name="Line 2" y2="10.846" transform="translate(24.556 25.274)" fill="none" stroke="#000" stroke-linejoin="round" stroke-width="1" stroke-dasharray="5.4 5.4"/>
        <path id="Path_9227" data-name="Path 9227" d="M84,116.5v1.435h1.435" transform="translate(-59.444 -78.831)" fill="none" stroke="#000" stroke-linejoin="round" stroke-width="1"/>
        <line id="Line_3" data-name="Line 3" x2="88.745" transform="translate(28.809 39.104)" fill="none" stroke="#000" stroke-linejoin="round" stroke-width="1" stroke-dasharray="4.909 4.909"/>
        <path id="Path_9228" data-name="Path 9228" d="M248.5,119h1.435v1.435" transform="translate(-129.541 -79.896)" fill="none" stroke="#000" stroke-linejoin="round" stroke-width="1"/>
        <line id="Line_4" data-name="Line 4" y2="142.592" transform="translate(120.394 43.42)" fill="none" stroke="#000" stroke-linejoin="round" stroke-width="1" stroke-dasharray="5.02 5.02"/>
        <path id="Path_9229" data-name="Path 9229" d="M251,377.5v1.435h1.435" transform="translate(-130.606 -190.048)" fill="none" stroke="#000" stroke-linejoin="round" stroke-width="1"/>
        <line id="Line_5" data-name="Line 5" x2="2.582" transform="translate(123.55 188.886)" fill="none" stroke="#000" stroke-linejoin="round" stroke-width="1" stroke-dasharray="3 3"/>
        <line id="Line_6" data-name="Line 6" x2="1.435" transform="translate(126.994 188.886)" fill="none" stroke="#000" stroke-linejoin="round" stroke-width="1"/>
        <line id="Line_7" data-name="Line 7" y1="1.435" transform="translate(6.766 183.435)" fill="none" stroke="#000" stroke-linejoin="round" stroke-width="1"/>
        <line id="Line_8" data-name="Line 8" y1="57.554" transform="translate(6.766 122.931)" fill="none" stroke="#000" stroke-linejoin="round" stroke-width="1" stroke-dasharray="5.143 5.143"/>
        <path id="Path_9230" data-name="Path 9230" d="M53,261.435V260h1.435" transform="translate(-46.234 -139.979)" fill="none" stroke="#000" stroke-linejoin="round" stroke-width="1"/>
        <line id="Line_9" data-name="Line 9" x2="19.604" transform="translate(10.818 120.021)" fill="none" stroke="#000" stroke-linejoin="round" stroke-width="1" stroke-dasharray="4.556 4.556"/>
        <path id="Path_9231" data-name="Path 9231" d="M96.5,260h1.435v1.435" transform="translate(-64.77 -139.979)" fill="none" stroke="#000" stroke-linejoin="round" stroke-width="1"/>
        <line id="Line_10" data-name="Line 10" y2="61.153" transform="translate(33.164 124.302)" fill="none" stroke="#000" stroke-linejoin="round" stroke-width="1" stroke-dasharray="4.957 4.957"/>
        <path id="Path_9232" data-name="Path 9232" d="M99,376.5v1.435h1.435" transform="translate(-65.836 -189.622)" fill="none" stroke="#000" stroke-linejoin="round" stroke-width="1"/>
        <line id="Line_11" data-name="Line 11" x2="62.765" transform="translate(37.52 188.313)" fill="none" stroke="#000" stroke-linejoin="round" stroke-width="1" stroke-dasharray="5.087 5.087"/>
        <path id="Path_9233" data-name="Path 9233" d="M218.5,377.935h1.435V376.5" transform="translate(-116.757 -189.622)" fill="none" stroke="#000" stroke-linejoin="round" stroke-width="1"/>
        <line id="Line_12" data-name="Line 12" y1="119.636" transform="translate(103.178 64.36)" fill="none" stroke="#000" stroke-linejoin="round" stroke-width="1" stroke-dasharray="5.023 5.023"/>
        <path id="Path_9234" data-name="Path 9234" d="M221,159.435V158h1.435" transform="translate(-117.822 -96.515)" fill="none" stroke="#000" stroke-linejoin="round" stroke-width="1"/>
        <line id="Line_13" data-name="Line 13" x2="110.575" transform="translate(107.413 61.485)" fill="none" stroke="#000" stroke-linejoin="round" stroke-width="1" stroke-dasharray="4.878 4.878"/>
        <line id="Line_14" data-name="Line 14" x2="1.435" transform="translate(219.388 61.485)" fill="none" stroke="#000" stroke-linejoin="round" stroke-width="1"/>
        <path id="Path_9235" data-name="Path 9235" d="M85.773,57.747a6.887,6.887,0,0,0-13.773,0c0,3.8,6.887,11.478,6.887,11.478S85.773,61.546,85.773,57.747Z" transform="translate(-54.33 -50.86)" fill="none" stroke="#000" stroke-linejoin="round" stroke-width="1"/>
        <path id="Path_9236" data-name="Path 9236" d="M84.759,60.67a2.95,2.95,0,1,0-2.95,2.95A2.95,2.95,0,0,0,84.759,60.67Z" transform="translate(-57.253 -53.783)" fill="none" stroke="#000" stroke-linejoin="round" stroke-width="1"/>
        <path id="Path_9237" data-name="Path 9237" d="M432.972,136.347a5.624,5.624,0,0,0-11.242,0c0,3.1,5.624,9.371,5.624,9.371S432.972,139.452,432.972,136.347Z" transform="translate(-203.358 -84.968)" fill="none" stroke="#000" stroke-linejoin="round" stroke-width="1"/>
        <circle id="Ellipse_45" data-name="Ellipse 45" cx="2.41" cy="2.41" r="2.41" transform="translate(221.586 48.969)" fill="none" stroke="#000" stroke-linejoin="round" stroke-width="1"/>
        <path id="Path_9238" data-name="Path 9238" d="M410.641,193.031a11.219,11.219,0,1,0-22.433,0c0,6.192,11.214,18.7,11.214,18.7S410.641,199.223,410.641,193.031Z" transform="translate(-189.072 -106.553)" fill="none" stroke="#000" stroke-linejoin="round" stroke-width="1"/>
        <circle id="Ellipse_46" data-name="Ellipse 46" cx="4.809" cy="4.809" r="4.809" transform="translate(205.54 81.669)" fill="none" stroke="#000" stroke-linejoin="round" stroke-width="1"/>
        <path id="Path_9239" data-name="Path 9239" d="M91.539,212.734a8.734,8.734,0,1,0-17.469,0c0,4.821,8.734,14.554,8.734,14.554S91.539,217.555,91.539,212.734Z" transform="translate(-55.212 -116.116)" fill="none" stroke="#000" stroke-linejoin="round" stroke-width="1"/>
        <path id="Path_9240" data-name="Path 9240" d="M90.253,216.442a3.742,3.742,0,1,0-3.742,3.742A3.742,3.742,0,0,0,90.253,216.442Z" transform="translate(-58.92 -119.824)" fill="none" stroke="#000" stroke-linejoin="round" stroke-width="1"/>
        <path id="Path_9241" data-name="Path 9241" d="M52.447,387.028a5.618,5.618,0,1,0-11.237,0c0,3.1,5.618,9.366,5.618,9.366S52.447,390.133,52.447,387.028Z" transform="translate(-41.21 -191.714)" fill="none" stroke="#000" stroke-linejoin="round" stroke-width="1"/>
        <circle id="Ellipse_47" data-name="Ellipse 47" cx="2.41" cy="2.41" r="2.41" transform="translate(3.208 192.904)" fill="none" stroke="#000" stroke-linejoin="round" stroke-width="1"/>
      </g>
    </g>
    <g id="freepik--Device--inject-48" transform="translate(90.254 36.69)">
      <path id="Path_9242" data-name="Path 9242" d="M254.33,61.179V235.81a17.515,17.515,0,0,1-17.492,17.515H153.775A17.515,17.515,0,0,1,136.26,235.81V61.179A17.515,17.515,0,0,1,153.775,43.67h34.731l.034.126c1.027,3.7,3.392,6.1,6.014,6.1h1.5c2.623,0,4.987-2.4,6.014-6.1l.04-.126h34.725A17.515,17.515,0,0,1,254.33,61.179Z" transform="translate(-130.757 -39.664)" fill="#d6d6d6"/>
      <path id="Path_9243" data-name="Path 9243" d="M208.678,171.576V116.317h25.365a1.148,1.148,0,0,0,1.044-.666L254.33,73.529V68.008l-21.05,46.014h-24.6V43.67h-2.3V71.979c-22.909-2.261-36.332,8.539-43.58,18.112a61.761,61.761,0,0,0-9.991,20.338L136.26,99.922v2.72L165.9,121.459h0v33.578l-29.624-5.406v2.336L206.4,164.753v6.313l-70.122,56.011v2.938l31.713-25.331,24.166,32.711a1.148,1.148,0,0,0,.924.465,1.228,1.228,0,0,0,.287-.034l38.1-9.756v25.256h2.3V205.8a1.148,1.148,0,0,0-.631-1.021l-8.557-4.327L239.2,184.5l15.133,5.831V187.9l-15.076-5.8a1.148,1.148,0,0,0-1.263.293l-15.564,16.981-29.3-14.823,15.116-12.08A1.148,1.148,0,0,0,208.678,171.576Zm22.772,34.932v19.133l-37.922,9.716L169.769,203.22l21.383-17.084ZM206.382,162.4l-38.2-6.967v-32.55l38.2,24.275Zm0-17.98-51.534-32.711A59.936,59.936,0,0,1,164.6,91.463c10.02-13.234,24.068-19.013,41.75-17.216Z" transform="translate(-130.757 -39.664)" fill="#fff"/>
      <path id="Path_9244" data-name="Path 9244" d="M316.937,190.8H313.5l-8.677,21.7H287.469l9.159-21.216h-13.5V170.554h20.246l13.561-26.324Z" transform="translate(-193.341 -82.515)" fill="#c4c4c4"/>
      <rect id="Rectangle_1431" data-name="Rectangle 1431" width="17.216" height="14.347" transform="translate(9.945 24.281)" fill="#c4c4c4"/>
      <rect id="Rectangle_1432" data-name="Rectangle 1432" width="12.396" height="10.33" transform="translate(30.031 24.281)" fill="#c4c4c4"/>
      <path id="Path_9245" data-name="Path 9245" d="M177.68,136.148l42.61,27.517V105.951S189.812,103.012,177.68,136.148Z" transform="translate(-148.406 -66.175)" fill="#c4c4c4"/>
      <rect id="Rectangle_1433" data-name="Rectangle 1433" width="8.034" height="6.697" transform="translate(46.1 24.281)" fill="#c4c4c4"/>
      <path id="Path_9246" data-name="Path 9246" d="M235.495,314,220,324.9l8.608,16.069,30.989-1.722,1.722-14.921-12.051-5.165L244.1,327.2l-5.165-2.869,4.591-8.608Z" transform="translate(-166.44 -154.858)" fill="#c4c4c4"/>
      <path id="Path_9247" data-name="Path 9247" d="M150.159,257.1v31l-13.9,7.07V256.45Z" transform="translate(-130.757 -130.334)" fill="#c4c4c4"/>
      <path id="Path_9248" data-name="Path 9248" d="M186.482,276.969V258.817L167.2,257.91v28.86Z" transform="translate(-143.941 -130.957)" fill="#c4c4c4"/>
      <path id="Path_9249" data-name="Path 9249" d="M205.84,259.73v16.545l11.569-5.882V260.269Z" transform="translate(-160.406 -131.732)" fill="#c4c4c4"/>
      <path id="Path_9250" data-name="Path 9250" d="M257.778,104.809V82.618H255.77V54.2A17.521,17.521,0,0,0,238.255,36.69h-94.07A17.521,17.521,0,0,0,126.67,54.2V245.347a17.515,17.515,0,0,0,17.515,17.515h94.07a17.515,17.515,0,0,0,17.515-17.515V123.724h2.009V110.611H255.77v-5.8Zm-7.535,128.027a17.515,17.515,0,0,1-17.492,17.515H149.688a17.515,17.515,0,0,1-17.515-17.515V58.2A17.515,17.515,0,0,1,149.688,40.7h34.731l.034.126c1.027,3.7,3.392,6.1,6.014,6.1h1.5c2.623,0,4.987-2.4,6.014-6.1l.04-.126h34.725A17.515,17.515,0,0,1,250.243,58.2Z" transform="translate(-126.67 -36.69)" fill="#707070" stroke="#263238" stroke-linejoin="round" stroke-width="1"/>
      <path id="Path_9251" data-name="Path 9251" d="M237.738,40.9H147.719A17.509,17.509,0,0,0,130.21,58.415V244.73a17.515,17.515,0,0,0,17.509,17.515h90.019a17.515,17.515,0,0,0,17.509-17.515V58.415A17.509,17.509,0,0,0,237.738,40.9Zm14.014,193.73a17.515,17.515,0,0,1-17.492,17.515H151.2a17.515,17.515,0,0,1-17.515-17.515V60A17.515,17.515,0,0,1,151.2,42.49h34.731l.034.126c1.027,3.7,3.392,6.1,6.014,6.1h1.5c2.623,0,4.987-2.4,6.014-6.1l.04-.126H234.26A17.515,17.515,0,0,1,251.752,60Z" transform="translate(-128.178 -38.484)" fill="#263238" stroke="#263238" stroke-linejoin="round" stroke-width="1"/>
      <circle id="Ellipse_48" data-name="Ellipse 48" cx="1.641" cy="1.641" r="1.641" transform="translate(62.547 3.202)" fill="#fff"/>
      <path id="Path_9252" data-name="Path 9252" d="M152.7,55.087c0,1.664-1.865,2.261-1.877,3.535v.086h1.813v.574H150.22v-.471c0-1.785,1.871-2.129,1.871-3.684,0-.574-.189-.867-.648-.867s-.643.327-.643.815v.488h-.574v-.448c0-.844.39-1.406,1.24-1.406S152.7,54.244,152.7,55.087Z" transform="translate(-136.705 -43.943)" fill="#263238"/>
      <path id="Path_9253" data-name="Path 9253" d="M157.969,55.069v.143a1.085,1.085,0,0,1-.666,1.148,1.1,1.1,0,0,1,.666,1.148v.425c0,.844-.39,1.395-1.245,1.395s-1.234-.574-1.234-1.395v-.4h.574v.419c0,.494.207.792.648.792s.643-.293.643-.849v-.425c0-.545-.23-.8-.694-.821h-.3v-.574h.362a.66.66,0,0,0,.66-.758v-.253c0-.574-.2-.861-.643-.861s-.648.31-.648.8V55.3h-.574v-.23c0-.844.39-1.389,1.234-1.389S157.969,54.225,157.969,55.069Z" transform="translate(-138.951 -43.93)" fill="#263238"/>
      <path id="Path_9254" data-name="Path 9254" d="M161.464,56.83v.763h-.574V56.83Zm0,3v.763h-.574v-.763Z" transform="translate(-141.252 -45.272)" fill="#263238"/>
      <path id="Path_9255" data-name="Path 9255" d="M163.587,56.011a.884.884,0,0,1,.821-.453c.712,0,1.022.516,1.022,1.308v1.079c0,.844-.4,1.395-1.245,1.395s-1.234-.574-1.234-1.395v-.373h.574v.413c0,.494.207.792.648.792s.643-.3.643-.792V56.912c0-.5-.2-.8-.643-.8a.574.574,0,0,0-.626.574v.126h-.574l.149-3.065h2.152v.574H163.65Z" transform="translate(-142.13 -43.96)" fill="#263238"/>
      <path id="Path_9256" data-name="Path 9256" d="M170.754,55.057v.1h-.574v-.149c0-.5-.207-.792-.654-.792s-.671.3-.671.89v1.24a.884.884,0,0,1,.889-.574c.712,0,1.027.511,1.027,1.308v.838c0,.844-.419,1.395-1.263,1.395a1.227,1.227,0,0,1-1.268-1.395V55.1c0-.872.39-1.417,1.268-1.417S170.754,54.214,170.754,55.057Zm-1.9,2.066v.832c0,.494.207.792.654.792s.654-.3.654-.792v-.832c0-.494-.212-.792-.654-.792S168.854,56.63,168.854,57.123Z" transform="translate(-144.384 -43.93)" fill="#263238"/>
      <rect id="Rectangle_1434" data-name="Rectangle 1434" width="1.561" height="3.897" transform="translate(85.055 11.374)" fill="#263238"/>
      <rect id="Rectangle_1435" data-name="Rectangle 1435" width="1.561" height="4.677" transform="translate(87.132 10.594)" fill="#263238"/>
      <rect id="Rectangle_1436" data-name="Rectangle 1436" width="1.561" height="5.228" transform="translate(89.209 10.037)" fill="#263238"/>
      <rect id="Rectangle_1437" data-name="Rectangle 1437" width="1.555" height="6.192" transform="translate(91.287 9.073)" fill="#263238"/>
      <path id="Path_9257" data-name="Path 9257" d="M315.108,58.849H305.76V53.11h9.348Zm-8.826-.522h8.31V53.655h-8.31Z" transform="translate(-202.984 -43.687)" fill="#263238"/>
      <rect id="Rectangle_1438" data-name="Rectangle 1438" width="4.935" height="3.547" transform="translate(104.073 10.531)" fill="#263238"/>
      <rect id="Rectangle_1439" data-name="Rectangle 1439" width="1.176" height="1.349" transform="translate(111.797 11.633)" fill="#263238"/>
      <path id="Path_9258" data-name="Path 9258" d="M296.842,59.994a.315.315,0,0,1-.178-.046,2.705,2.705,0,0,0-3.214-.04.35.35,0,0,1-.493-.034.344.344,0,0,1,.034-.488,3.361,3.361,0,0,1,4.017-.04.35.35,0,0,1,.121.482.344.344,0,0,1-.287.166Z" transform="translate(-197.492 -46.077)" fill="#263238"/>
      <path id="Path_9259" data-name="Path 9259" d="M297.015,57.8a.35.35,0,0,1-.178-.052,3.942,3.942,0,0,0-4.62-.034.35.35,0,0,1-.459-.528,4.674,4.674,0,0,1,5.435-.034.35.35,0,0,1,.126.476A.362.362,0,0,1,297.015,57.8Z" transform="translate(-196.97 -45.054)" fill="#263238"/>
      <path id="Path_9260" data-name="Path 9260" d="M297.188,55.283a.321.321,0,0,1-.178-.052c-3.489-2.072-5.8-.121-5.9-.034a.35.35,0,0,1-.493-.034.344.344,0,0,1,.034-.488c.029,0,2.778-2.382,6.714-.04a.344.344,0,0,1,.12.476A.35.35,0,0,1,297.188,55.283Z" transform="translate(-196.495 -43.898)" fill="#263238"/>
      <circle id="Ellipse_49" data-name="Ellipse 49" cx="0.878" cy="0.878" r="0.878" transform="translate(96.544 13.624)" fill="#263238"/>
    </g>
    <g id="freepik--Plant--inject-48" transform="translate(236.103 184.736)">
      <path id="Path_9261" data-name="Path 9261" d="M438.005,315.294c.029,0,.574-2.1.574-2.238.224-1.59-.281-4.792-1.905-5.578a2.123,2.123,0,0,0-2.869,1.285,4.426,4.426,0,0,0,.769,3.661A15.293,15.293,0,0,0,438.005,315.294Z" transform="translate(-403.329 -300.049)" fill="#263238"/>
      <path id="Path_9262" data-name="Path 9262" d="M383.567,316.05a14.829,14.829,0,0,0,4.448.488s-.677-2.066-.735-2.192c-.694-1.446-2.869-3.839-4.666-3.6a2.129,2.129,0,0,0-1.722,2.669A4.448,4.448,0,0,0,383.567,316.05Z" transform="translate(-380.817 -301.511)" fill="#263238"/>
      <path id="Path_9263" data-name="Path 9263" d="M425.164,298.467c-1.79-.189-3.914,2.261-4.591,3.724-.057.132-.712,2.215-.677,2.215h.034c-.339.385-.694.8-1.079,1.263-.7.855-1.481,1.831-2.261,2.956a37.174,37.174,0,0,0-2.341,3.736,27.577,27.577,0,0,0-2,4.5v.057c0-.522,0-2-.029-2.112-.207-1.59-1.544-4.545-3.311-4.872a2.118,2.118,0,0,0-2.45,2,4.4,4.4,0,0,0,1.722,3.334,15.011,15.011,0,0,0,4.017,1.842A37.667,37.667,0,0,0,411.012,322c-.172.964-.316,1.934-.448,2.915v-.918c-.207-1.6-1.544-4.551-3.311-4.878a2.123,2.123,0,0,0-2.451,2,4.386,4.386,0,0,0,1.722,3.328,14.761,14.761,0,0,0,3.914,1.808c-.052.373-.1.746-.143,1.148-.218,1.8-.425,3.6-.683,5.366-.086.62-.2,1.228-.31,1.836v-.8c-.207-1.59-1.538-4.545-3.311-4.872a2.123,2.123,0,0,0-2.45,2,4.422,4.422,0,0,0,1.722,3.328,13.417,13.417,0,0,0,3.8,1.768c-.132.62-.258,1.24-.413,1.836-.12.4-.2.8-.339,1.2s-.258.792-.379,1.182c-.276.74-.545,1.509-.826,2.227-.2.5-.384.976-.574,1.452.1-.62.264-1.831.264-1.934a8.3,8.3,0,0,0-1.108-4.017,2.6,2.6,0,0,0-.029-.471,2.129,2.129,0,0,0-2.6-1.808c-1.722.465-2.841,3.518-2.927,5.119,0,.092.057,1.148.109,1.779-.086-.379-.166-.746-.264-1.148-.184-.769-.385-1.527-.6-2.347l-.413-1.205c-.109-.4-.281-.8-.419-1.211-.344-.941-.735-1.877-1.148-2.812a14.229,14.229,0,0,0,4.017-1.5,4.406,4.406,0,0,0,1.951-3.2,2.129,2.129,0,0,0-2.3-2.181c-1.791.2-3.34,3.042-3.661,4.591,0,.1-.126,1.257-.172,1.888-.258-.574-.511-1.113-.786-1.676-.8-1.607-1.659-3.208-2.508-4.815-.264-.494-.516-.981-.769-1.475a14.932,14.932,0,0,0,4.155-1.538,4.448,4.448,0,0,0,1.951-3.191,2.129,2.129,0,0,0-2.3-2.181c-1.785.2-3.334,3.042-3.661,4.591,0,.121-.172,1.779-.189,2.2-.574-1.085-1.119-2.169-1.618-3.26a38.39,38.39,0,0,1-1.756-4.534,14.153,14.153,0,0,0,4.184-1.544,4.43,4.43,0,0,0,1.951-3.191,2.129,2.129,0,0,0-2.3-2.181c-1.79.2-3.34,3.042-3.667,4.591,0,.1-.138,1.372-.178,1.974h-.1a27.548,27.548,0,0,1-.912-4.8c-.1-.89-.143-1.75-.172-2.588a14.274,14.274,0,0,0,4.224-1.062,4.453,4.453,0,0,0,2.3-2.961,2.129,2.129,0,0,0-2.043-2.416c-1.8,0-3.656,2.657-4.149,4.184-.029.086-.207.958-.333,1.6v-1.148c0-1.36.092-2.6.178-3.7.052-.631.109-1.194.172-1.722a14.436,14.436,0,0,0,3.242-2.869,4.342,4.342,0,0,0,.666-3.684,2.129,2.129,0,0,0-2.927-1.205c-1.6.826-2.02,4.046-1.756,5.63,0,.132.631,2.232.654,2.215h.034c-.069.511-.143,1.056-.207,1.653-.109,1.1-.224,2.347-.253,3.713a38.674,38.674,0,0,0,.1,4.407,27.473,27.473,0,0,0,.821,4.867.306.306,0,0,0,0,.057c-.287-.448-1.148-1.664-1.194-1.75-1.05-1.211-3.793-2.938-5.446-2.238a2.129,2.129,0,0,0-.947,3.024,4.471,4.471,0,0,0,3.265,1.836,14.893,14.893,0,0,0,4.379-.689,36.526,36.526,0,0,0,1.722,4.723c.385.9.8,1.79,1.234,2.68-.258-.379-.488-.712-.528-.752-1.05-1.217-3.793-2.944-5.446-2.244a2.129,2.129,0,0,0-.947,3.024,4.453,4.453,0,0,0,3.265,1.836,14.333,14.333,0,0,0,4.252-.654c.172.339.339.677.5,1.016.815,1.624,1.636,3.242,2.393,4.855.27.574.511,1.148.752,1.722-.224-.333-.419-.614-.453-.654-1.05-1.211-3.8-2.944-5.452-2.238a2.123,2.123,0,0,0-.941,3.024,4.443,4.443,0,0,0,3.26,1.831,13.205,13.205,0,0,0,4.143-.62c.229.574.465,1.182.666,1.762.126.4.275.775.379,1.188s.224.8.333,1.194c.189.769.385,1.561.545,2.3.115.528.212,1.027.316,1.532-.258-.574-.786-1.67-.844-1.756-.855-1.36-3.306-3.483-5.044-3.042a2.129,2.129,0,0,0-1.395,2.869,4.4,4.4,0,0,0,2.95,2.3,15.165,15.165,0,0,0,4.407,0c.166.832.321,1.647.453,2.422.471,2.669.763,4.907.947,6.479.029.275.057.528.08.763h-5.412l1.653,32.218h9.871l1.653-32.218h-5.108l.115-.235c.689-1.44,1.653-3.512,2.686-6.043.333-.8.666-1.664,1-2.554a14.437,14.437,0,0,0,4.4.344,4.5,4.5,0,0,0,3.11-2.083,2.129,2.129,0,0,0-1.176-2.938c-1.722-.574-4.3,1.36-5.262,2.651-.052.08-.574.976-.89,1.544.138-.362.27-.717.407-1.09.27-.74.522-1.492.792-2.3.121-.39.235-.786.356-1.188s.212-.826.321-1.245c.23-.976.419-1.974.574-2.978a14.163,14.163,0,0,0,4.172.958,4.447,4.447,0,0,0,3.392-1.59,2.123,2.123,0,0,0-.717-3.082c-1.6-.826-4.465.694-5.6,1.825-.069.069-.8.976-1.182,1.481.092-.608.189-1.211.27-1.831.218-1.785.39-3.592.574-5.4l.172-1.659a14.706,14.706,0,0,0,4.316,1.01,4.43,4.43,0,0,0,3.386-1.584,2.129,2.129,0,0,0-.712-3.087c-1.6-.821-4.465.694-5.6,1.831-.086.086-1.148,1.389-1.377,1.722.126-1.217.27-2.427.453-3.61a36.489,36.489,0,0,1,1.039-4.752,14.935,14.935,0,0,0,4.333,1.022,4.447,4.447,0,0,0,3.392-1.59,2.123,2.123,0,0,0-.717-3.082c-1.6-.826-4.459.694-5.6,1.825-.075.075-.867,1.067-1.234,1.549l-.092-.052a27.077,27.077,0,0,1,1.888-4.5c.407-.8.844-1.544,1.286-2.255a14.6,14.6,0,0,0,4.1,1.446,4.424,4.424,0,0,0,3.547-1.205,2.135,2.135,0,0,0-.373-3.151c-1.5-.993-4.511.2-5.768,1.205-.069.052-.7.683-1.148,1.148.207-.316.413-.648.614-.953.752-1.148,1.509-2.123,2.187-3,.39-.494.752-.93,1.1-1.337a13.868,13.868,0,0,0,4.287-.608,4.423,4.423,0,0,0,2.594-2.7,2.135,2.135,0,0,0-1.8-2.565Zm-19.8,48.039c-1.079,2.485-2.072,4.516-2.789,5.922-.143.287-.275.534-.4.769h-.115c-.04-.275-.075-.574-.121-.912-.218-1.584-.574-3.845-1.1-6.531-.166-.849-.362-1.75-.574-2.674a23.487,23.487,0,0,0,2.462-1.148,14.77,14.77,0,0,0,3.581,2.3C406,345.02,405.681,345.789,405.365,346.506Z" transform="translate(-381.065 -294.665)" fill="#263238"/>
      <path id="Path_9264" data-name="Path 9264" d="M383.567,316.05a14.829,14.829,0,0,0,4.448.488s-.677-2.066-.735-2.192c-.694-1.446-2.869-3.839-4.666-3.6a2.129,2.129,0,0,0-1.722,2.669A4.448,4.448,0,0,0,383.567,316.05Z" transform="translate(-380.817 -301.511)" fill="#263238" opacity="0.3"/>
      <path id="Path_9265" data-name="Path 9265" d="M438.005,315.294c.029,0,.574-2.1.574-2.238.224-1.59-.281-4.792-1.905-5.578a2.123,2.123,0,0,0-2.869,1.285,4.426,4.426,0,0,0,.769,3.661A15.293,15.293,0,0,0,438.005,315.294Z" transform="translate(-403.329 -300.049)" fill="#263238" opacity="0.3"/>
      <path id="Path_9266" data-name="Path 9266" d="M425.164,298.467c-1.79-.189-3.914,2.261-4.591,3.724-.057.132-.712,2.215-.677,2.215h.034c-.339.385-.694.8-1.079,1.263-.7.855-1.481,1.831-2.261,2.956a37.174,37.174,0,0,0-2.341,3.736,27.577,27.577,0,0,0-2,4.5v.057c0-.522,0-2-.029-2.112-.207-1.59-1.544-4.545-3.311-4.872a2.118,2.118,0,0,0-2.45,2,4.4,4.4,0,0,0,1.722,3.334,15.011,15.011,0,0,0,4.017,1.842A37.667,37.667,0,0,0,411.012,322c-.172.964-.316,1.934-.448,2.915v-.918c-.207-1.6-1.544-4.551-3.311-4.878a2.123,2.123,0,0,0-2.451,2,4.386,4.386,0,0,0,1.722,3.328,14.761,14.761,0,0,0,3.914,1.808c-.052.373-.1.746-.143,1.148-.218,1.8-.425,3.6-.683,5.366-.086.62-.2,1.228-.31,1.836v-.8c-.207-1.59-1.538-4.545-3.311-4.872a2.123,2.123,0,0,0-2.45,2,4.422,4.422,0,0,0,1.722,3.328,13.417,13.417,0,0,0,3.8,1.768c-.132.62-.258,1.24-.413,1.836-.12.4-.2.8-.339,1.2s-.258.792-.379,1.182c-.276.74-.545,1.509-.826,2.227-.2.5-.384.976-.574,1.452.1-.62.264-1.831.264-1.934a8.3,8.3,0,0,0-1.108-4.017,2.6,2.6,0,0,0-.029-.471,2.129,2.129,0,0,0-2.6-1.808c-1.722.465-2.841,3.518-2.927,5.119,0,.092.057,1.148.109,1.779-.086-.379-.166-.746-.264-1.148-.184-.769-.385-1.527-.6-2.347l-.413-1.205c-.109-.4-.281-.8-.419-1.211-.344-.941-.735-1.877-1.148-2.812a14.229,14.229,0,0,0,4.017-1.5,4.406,4.406,0,0,0,1.951-3.2,2.129,2.129,0,0,0-2.3-2.181c-1.791.2-3.34,3.042-3.661,4.591,0,.1-.126,1.257-.172,1.888-.258-.574-.511-1.113-.786-1.676-.8-1.607-1.659-3.208-2.508-4.815-.264-.494-.516-.981-.769-1.475a14.932,14.932,0,0,0,4.155-1.538,4.448,4.448,0,0,0,1.951-3.191,2.129,2.129,0,0,0-2.3-2.181c-1.785.2-3.334,3.042-3.661,4.591,0,.121-.172,1.779-.189,2.2-.574-1.085-1.119-2.169-1.618-3.26a38.39,38.39,0,0,1-1.756-4.534,14.153,14.153,0,0,0,4.184-1.544,4.43,4.43,0,0,0,1.951-3.191,2.129,2.129,0,0,0-2.3-2.181c-1.79.2-3.34,3.042-3.667,4.591,0,.1-.138,1.372-.178,1.974h-.1a27.548,27.548,0,0,1-.912-4.8c-.1-.89-.143-1.75-.172-2.588a14.274,14.274,0,0,0,4.224-1.062,4.453,4.453,0,0,0,2.3-2.961,2.129,2.129,0,0,0-2.043-2.416c-1.8,0-3.656,2.657-4.149,4.184-.029.086-.207.958-.333,1.6v-1.148c0-1.36.092-2.6.178-3.7.052-.631.109-1.194.172-1.722a14.436,14.436,0,0,0,3.242-2.869,4.342,4.342,0,0,0,.666-3.684,2.129,2.129,0,0,0-2.927-1.205c-1.6.826-2.02,4.046-1.756,5.63,0,.132.631,2.232.654,2.215h.034c-.069.511-.143,1.056-.207,1.653-.109,1.1-.224,2.347-.253,3.713a38.674,38.674,0,0,0,.1,4.407,27.473,27.473,0,0,0,.821,4.867.306.306,0,0,0,0,.057c-.287-.448-1.148-1.664-1.194-1.75-1.05-1.211-3.793-2.938-5.446-2.238a2.129,2.129,0,0,0-.947,3.024,4.471,4.471,0,0,0,3.265,1.836,14.893,14.893,0,0,0,4.379-.689,36.526,36.526,0,0,0,1.722,4.723c.385.9.8,1.79,1.234,2.68-.258-.379-.488-.712-.528-.752-1.05-1.217-3.793-2.944-5.446-2.244a2.129,2.129,0,0,0-.947,3.024,4.453,4.453,0,0,0,3.265,1.836,14.333,14.333,0,0,0,4.252-.654c.172.339.339.677.5,1.016.815,1.624,1.636,3.242,2.393,4.855.27.574.511,1.148.752,1.722-.224-.333-.419-.614-.453-.654-1.05-1.211-3.8-2.944-5.452-2.238a2.123,2.123,0,0,0-.941,3.024,4.443,4.443,0,0,0,3.26,1.831,13.205,13.205,0,0,0,4.143-.62c.229.574.465,1.182.666,1.762.126.4.275.775.379,1.188s.224.8.333,1.194c.189.769.385,1.561.545,2.3.115.528.212,1.027.316,1.532-.258-.574-.786-1.67-.844-1.756-.855-1.36-3.306-3.483-5.044-3.042a2.129,2.129,0,0,0-1.395,2.869,4.4,4.4,0,0,0,2.95,2.3,15.165,15.165,0,0,0,4.407,0c.166.832.321,1.647.453,2.422.471,2.669.763,4.907.947,6.479.029.275.057.528.08.763h-5.412l1.653,32.218h9.871l1.653-32.218h-5.108l.115-.235c.689-1.44,1.653-3.512,2.686-6.043.333-.8.666-1.664,1-2.554a14.437,14.437,0,0,0,4.4.344,4.5,4.5,0,0,0,3.11-2.083,2.129,2.129,0,0,0-1.176-2.938c-1.722-.574-4.3,1.36-5.262,2.651-.052.08-.574.976-.89,1.544.138-.362.27-.717.407-1.09.27-.74.522-1.492.792-2.3.121-.39.235-.786.356-1.188s.212-.826.321-1.245c.23-.976.419-1.974.574-2.978a14.163,14.163,0,0,0,4.172.958,4.447,4.447,0,0,0,3.392-1.59,2.123,2.123,0,0,0-.717-3.082c-1.6-.826-4.465.694-5.6,1.825-.069.069-.8.976-1.182,1.481.092-.608.189-1.211.27-1.831.218-1.785.39-3.592.574-5.4l.172-1.659a14.706,14.706,0,0,0,4.316,1.01,4.43,4.43,0,0,0,3.386-1.584,2.129,2.129,0,0,0-.712-3.087c-1.6-.821-4.465.694-5.6,1.831-.086.086-1.148,1.389-1.377,1.722.126-1.217.27-2.427.453-3.61a36.489,36.489,0,0,1,1.039-4.752,14.935,14.935,0,0,0,4.333,1.022,4.447,4.447,0,0,0,3.392-1.59,2.123,2.123,0,0,0-.717-3.082c-1.6-.826-4.459.694-5.6,1.825-.075.075-.867,1.067-1.234,1.549l-.092-.052a27.077,27.077,0,0,1,1.888-4.5c.407-.8.844-1.544,1.286-2.255a14.6,14.6,0,0,0,4.1,1.446,4.424,4.424,0,0,0,3.547-1.205,2.135,2.135,0,0,0-.373-3.151c-1.5-.993-4.511.2-5.768,1.205-.069.052-.7.683-1.148,1.148.207-.316.413-.648.614-.953.752-1.148,1.509-2.123,2.187-3,.39-.494.752-.93,1.1-1.337a13.868,13.868,0,0,0,4.287-.608,4.423,4.423,0,0,0,2.594-2.7,2.135,2.135,0,0,0-1.8-2.565Zm-19.8,48.039c-1.079,2.485-2.072,4.516-2.789,5.922-.143.287-.275.534-.4.769h-.115c-.04-.275-.075-.574-.121-.912-.218-1.584-.574-3.845-1.1-6.531-.166-.849-.362-1.75-.574-2.674a23.487,23.487,0,0,0,2.462-1.148,14.77,14.77,0,0,0,3.581,2.3C406,345.02,405.681,345.789,405.365,346.506Z" transform="translate(-381.065 -294.665)" fill="#263238" opacity="0.3"/>
    </g>
    <g id="freepik--Floor--inject-48" transform="translate(45.749 275.487)">
      <line id="Line_15" data-name="Line 15" x2="48.63" transform="translate(193.902)" fill="none" stroke="#263238" stroke-linejoin="round" stroke-width="1"/>
      <line id="Line_16" data-name="Line 16" x2="166.425" transform="translate(22.312)" fill="none" stroke="#263238" stroke-linejoin="round" stroke-width="1"/>
      <line id="Line_17" data-name="Line 17" x2="17.147" fill="none" stroke="#263238" stroke-linejoin="round" stroke-width="1"/>
    </g>
    <g id="freepik--Character--inject-48" transform="translate(181.621 122.382)">
      <path id="Path_9267" data-name="Path 9267" d="M315.327,443.995a7.37,7.37,0,0,1-.2,1.251c-.471,1.722-3.151,1.1-4.723,1.722s-3.621,1.417-5.039,1.888a22.121,22.121,0,0,1-8.034.316c-1.458-.31-2.158-1.1-2.186-1.922a1.756,1.756,0,0,1,.459-1.222c.941-1.1,4.557-2.519,6.605-4.092a31.921,31.921,0,0,0,4.723-5.354c2.99.792,8.034.161,8.034.161s.31,1.722.31,2.2a44.824,44.824,0,0,1,.046,5.05Z" transform="translate(-289.83 -292.783)" fill="#fff" stroke="#263238" stroke-linecap="round" stroke-linejoin="round" stroke-width="1"/>
      <path id="Path_9268" data-name="Path 9268" d="M315.328,449.5a7.37,7.37,0,0,1-.2,1.251c-.471,1.722-3.151,1.1-4.723,1.722s-3.621,1.417-5.039,1.888a22.12,22.12,0,0,1-8.034.316c-1.458-.31-2.158-1.1-2.186-1.923.8.574,2.76,1.613,6.479,1.285,5.165-.442,6.927-2.232,9.056-3.122a32.888,32.888,0,0,1,4.643-1.417Z" transform="translate(-289.83 -298.289)" fill="#fff" stroke="#263238" stroke-linecap="round" stroke-linejoin="round" stroke-width="1"/>
      <path id="Path_9269" data-name="Path 9269" d="M326.206,437.656c-.069-.436-.132-.786-.132-.786a36.114,36.114,0,0,1-4.769.23l-.115.086s.316-.161.476,1.1a11.715,11.715,0,0,1,0,2.514s3.581-.849,4.092-2.043C325.907,438.408,326.062,438.023,326.206,437.656Z" transform="translate(-300.926 -292.907)" fill="#fff" stroke="#263238" stroke-linecap="round" stroke-linejoin="round" stroke-width="1"/>
      <path id="Path_9270" data-name="Path 9270" d="M347.819,453.243c-1.446.918-8.539,4.884-9.756,5.113s-5.739-.08-7.019-1.148a2.057,2.057,0,0,1-.626-2.869,2.743,2.743,0,0,1,.78-.729,30.43,30.43,0,0,0,5.417-5.417c1.222-1.6,3.128-4.425,3.128-4.425l.149-.838,7.782.23s.149,1.676.224,1.986a22.863,22.863,0,0,1,.614,3.277c.092.648.2,1.257.258,1.813C348.892,451.578,348.817,452.6,347.819,453.243Z" transform="translate(-304.709 -295.489)" fill="#fff" stroke="#263238" stroke-linecap="round" stroke-linejoin="round" stroke-width="1"/>
      <path id="Path_9271" data-name="Path 9271" d="M347.819,458.667c-1.446.918-8.539,4.884-9.756,5.113s-5.739-.08-7.019-1.148a2.057,2.057,0,0,1-.626-2.869c.1.534.832,3.237,5.572,3.042,5.251-.224,9.383-4.918,11.73-6.485.373-.253.723-.471,1.05-.66C348.892,457,348.817,458.024,347.819,458.667Z" transform="translate(-304.709 -300.914)" fill="#fff" stroke="#263238" stroke-linecap="round" stroke-linejoin="round" stroke-width="1"/>
      <path id="Path_9272" data-name="Path 9272" d="M354.538,443.19l-7.782-.23-.149.838-.367.534c.2,0,2.531-.126,3.185.459s.763,2.594,2.364,2.06a9.217,9.217,0,0,0,2.961-1.762C354.67,444.641,354.538,443.19,354.538,443.19Z" transform="translate(-311.6 -295.502)" fill="#fff" stroke="#263238" stroke-linecap="round" stroke-linejoin="round" stroke-width="1"/>
      <path id="Path_9273" data-name="Path 9273" d="M305.443,308.737s-.631,16.528.631,26.6,1.572,17.314,1.722,17.79,3.145,20.459,3.3,21.721.631,2.674.631,3.145.471.631,2.835,1.263a8.465,8.465,0,0,0,4.723-.316s1.1-10.858,1.1-13.693-1.417-15.741-1.417-16.212S319.91,327,319.91,327l.786.626s1.1,18.416,1.578,21.876.626,6.611,1.257,8.344,2.049,12.746,2.674,14.347,1.1,7.552,1.1,7.552l.471,1.888s.631,1.722,4.591,1.722,4.723-.947,4.723-.947.155-8.338.155-12.275-2.049-15.581-2.359-18.255-.792-13.538-.161-15.741,1.722-15.1,1.722-20.614a63.027,63.027,0,0,0-.316-7.713s-14.95.941-19.988.155-9.756-1.888-9.756-1.888Z" transform="translate(-294.149 -237.175)" fill="#263238" stroke="#263238" stroke-linecap="round" stroke-linejoin="round" stroke-width="1"/>
      <path id="Path_9274" data-name="Path 9274" d="M313.52,304.008s6.766,2.043,17.624,1.1l.155-2.835-17.308-5.825Z" transform="translate(-297.658 -233.071)" fill="gray" stroke="#263238" stroke-linecap="round" stroke-linejoin="round" stroke-width="1"/>
      <rect id="Rectangle_1440" data-name="Rectangle 1440" width="4.471" height="1.762" transform="translate(20.569 70.257) rotate(2.14)" fill="#fff" stroke="#263238" stroke-linecap="round" stroke-linejoin="round" stroke-width="1"/>
      <path id="Path_9275" data-name="Path 9275" d="M331.334,228.535s-5.509-.626-8.184.161-5.98,1.722-6.927,4.247-5.584,39.9-5.584,39.9a37.053,37.053,0,0,0,9.676,1.653c4.562,0,9.446-.316,9.446-.316s.471-20.149,1.572-23.764S331.334,228.535,331.334,228.535Z" transform="translate(-296.431 -204.031)" fill="#62c9d5" stroke="#263238" stroke-linecap="round" stroke-linejoin="round" stroke-width="1"/>
      <path id="Path_9276" data-name="Path 9276" d="M324.92,227.111s.2,3.908,1.337,4.861,1.24,1.245,1.24,1.245l.666,7.46s2.485-4.5,2.772-5.073a19.114,19.114,0,0,0,.574-3.145,29.118,29.118,0,0,0,2.387-2c.855-.861,1.527-6.582,1.527-7.254s-.189-4.293-.189-4.293-2.009,4.482-4.2,6.485-4.293,2.2-4.769,2.1S324.92,227.111,324.92,227.111Z" transform="translate(-302.516 -200.03)" fill="#fff" stroke="#263238" stroke-linecap="round" stroke-linejoin="round" stroke-width="1"/>
      <path id="Path_9277" data-name="Path 9277" d="M308.192,230.5s-.2,13.836-.2,19.46a54.809,54.809,0,0,1-3.529,17.457c-1.808,4.769-5.739,17.6-6.961,20.562a47.524,47.524,0,0,0-2,6.009s-1.813-1.435-1.911-6.106,1.05-10.112,1.24-13.452.287-10.33.287-10.33,0,1.618-2.479,2.869-4.017,1.813-5.63-1.24-1.429-4.866.1-7.633,2.955-9.922,4.2-13.165,1.148-7.822,2.485-8.775,7.724-3.529,10.3-5.056,3.627-1.527,3.627-1.527S308.095,229.36,308.192,230.5Z" transform="translate(-285.88 -204.568)" fill="#fff" stroke="#263238" stroke-linecap="round" stroke-linejoin="round" stroke-width="1"/>
      <path id="Path_9278" data-name="Path 9278" d="M291.763,276.518s-1.911,3.948-1.366,5.308a2.986,2.986,0,0,0,4.361,1.636c2.066-1.234,2.72-1.36,2.037-3.948S293.531,275.02,291.763,276.518Z" transform="translate(-287.763 -224.353)" fill="none" stroke="#263238" stroke-linecap="round" stroke-linejoin="round" stroke-width="1"/>
      <path id="Path_9279" data-name="Path 9279" d="M303.753,252.035c-.063-1.331-.1-2.215-.1-2.215" transform="translate(-293.452 -213.201)" fill="#fff" stroke="#263238" stroke-linecap="round" stroke-linejoin="round" stroke-width="1"/>
      <path id="Path_9280" data-name="Path 9280" d="M302,275.368a84.469,84.469,0,0,0,1.337-11.357c0-2.244-.115-5.492-.218-7.971" transform="translate(-292.749 -215.852)" fill="#fff" stroke="#263238" stroke-linecap="round" stroke-linejoin="round" stroke-width="1"/>
      <path id="Path_9281" data-name="Path 9281" d="M321.162,229.531a7.193,7.193,0,0,0-2.818,1.067,53.086,53.086,0,0,0-.717,13.721,49.52,49.52,0,0,0,3.231,12.051,40.748,40.748,0,0,0,.574-6.439c0-5.624.2-19.46.2-19.46C321.541,229.342,321.162,229.531,321.162,229.531Z" transform="translate(-299.326 -204.55)" fill="#fff" stroke="#263238" stroke-linecap="round" stroke-linejoin="round" stroke-width="1"/>
      <path id="Path_9282" data-name="Path 9282" d="M314,203.824a55.726,55.726,0,0,0,1.578,7.214c.792,2.175,2.669,4.539,3.443,6.026s2.468,3.059,4.344,3.059,4.442-2.565,4.935-3.443,1.877-2.473,1.98-3.443.1-2.565.1-2.565a3.392,3.392,0,0,0,2.3-2.766,5.842,5.842,0,0,0-.3-3.558,19.076,19.076,0,0,0-1.681-3.156c-1.383-2.3-5.922-3.558-10.272-2.869S313.9,200.863,314,203.824Z" transform="translate(-297.86 -191.176)" fill="#fff" stroke="#263238" stroke-linecap="round" stroke-linejoin="round" stroke-width="1"/>
      <path id="Path_9283" data-name="Path 9283" d="M314.209,214.812a14.192,14.192,0,0,1,5.7.075,3.454,3.454,0,0,1-.574,2.961c-1.067,1.182-3.065.792-3.656.574S314.175,217.193,314.209,214.812Z" transform="translate(-297.951 -198.175)" fill="#fff" stroke="#263238" stroke-linecap="round" stroke-linejoin="round" stroke-width="1"/>
      <path id="Path_9284" data-name="Path 9284" d="M327.59,214.633a14.243,14.243,0,0,1,5.739,0,3.4,3.4,0,0,1-.574,2.973c-1.09,1.205-3.053.832-3.644.643S327.59,217.015,327.59,214.633Z" transform="translate(-303.653 -198.083)" fill="#fff" stroke="#263238" stroke-linecap="round" stroke-linejoin="round" stroke-width="1"/>
      <path id="Path_9285" data-name="Path 9285" d="M324.15,214.911a2.732,2.732,0,0,1,1.974-.149" transform="translate(-302.188 -198.212)" fill="none" stroke="#263238" stroke-linecap="round" stroke-linejoin="round" stroke-width="1"/>
      <line id="Line_18" data-name="Line 18" y1="1.813" x2="2.686" transform="translate(29.647 14.725)" fill="none" stroke="#263238" stroke-linecap="round" stroke-linejoin="round" stroke-width="1"/>
      <path id="Path_9286" data-name="Path 9286" d="M324.42,216.4a2.284,2.284,0,0,1,1.722,0" transform="translate(-302.303 -198.883)" fill="none" stroke="#263238" stroke-linecap="round" stroke-linejoin="round" stroke-width="1"/>
      <path id="Path_9287" data-name="Path 9287" d="M328.53,213.316a6.186,6.186,0,0,1,3.6-.356" transform="translate(-304.054 -197.443)" fill="none" stroke="#263238" stroke-linecap="round" stroke-linejoin="round" stroke-width="1"/>
      <path id="Path_9288" data-name="Path 9288" d="M320.715,213.77a4.281,4.281,0,0,0-3.185-.413" transform="translate(-299.367 -197.604)" fill="none" stroke="#263238" stroke-linecap="round" stroke-linejoin="round" stroke-width="1"/>
      <path id="Path_9289" data-name="Path 9289" d="M324.362,218.29s-.12,4.31-.063,4.488a2.043,2.043,0,0,0,1.24.574,10.019,10.019,0,0,0,1.538-.3" transform="translate(-302.244 -199.765)" fill="none" stroke="#263238" stroke-linecap="round" stroke-linejoin="round" stroke-width="1"/>
      <path id="Path_9290" data-name="Path 9290" d="M325.24,229s1.182,1,3.363.115" transform="translate(-302.652 -204.329)" fill="none" stroke="#263238" stroke-linecap="round" stroke-linejoin="round" stroke-width="1"/>
      <path id="Path_9291" data-name="Path 9291" d="M308.865,193.918s-3.26.987-2.669,3.064,4.35,2.766,8.1,1.773a49.93,49.93,0,0,0,7.822-2.961,1.486,1.486,0,0,0,.2,2.077c1.085.987.987-2.077.987-2.077s-.1,3.558,1.285,4.052,1.481.786,1.481.786-.494,1.98.1,2.175.689-2.072.689-2.072.2-1.188,1.188-1.383l.987-.2a69.863,69.863,0,0,0-.792-9.084c-.6-2.468-6.617-5.337-11.851-3.443S308.664,191.055,308.865,193.918Z" transform="translate(-294.507 -186.01)" fill="#263238" stroke="#263238" stroke-linecap="round" stroke-linejoin="round" stroke-width="1"/>
      <path id="Path_9292" data-name="Path 9292" d="M291.18,278.877l2.3-3.627,1.905,3.053a23.033,23.033,0,0,1-2.669,1.337A7.493,7.493,0,0,1,291.18,278.877Z" transform="translate(-288.138 -224.037)" fill="#fff" stroke="#263238" stroke-linecap="round" stroke-linejoin="round" stroke-width="1"/>
      <path id="Path_9293" data-name="Path 9293" d="M299.32,283.4a11,11,0,0,0,1.722.574A4.1,4.1,0,0,0,304,282.45c.574-.953-.385-1.05-.385-1.05l-1.148,1.05-1.911-.092Z" transform="translate(-291.607 -226.658)" fill="#fff" stroke="#263238" stroke-linecap="round" stroke-linejoin="round" stroke-width="1"/>
      <path id="Path_9294" data-name="Path 9294" d="M289.02,268.27l5.532,8.4,4.671.1-4.958-8.493Z" transform="translate(-287.218 -221.063)" fill="#263238" stroke="#263238" stroke-linecap="round" stroke-linejoin="round" stroke-width="1"/>
      <path id="Path_9295" data-name="Path 9295" d="M295.672,277.739s-4.482,1.526-4.482,2.192a1.308,1.308,0,0,0,1.429,1.148,10.288,10.288,0,0,0,4.017-2.485C296.935,278.02,296.619,277.641,295.672,277.739Z" transform="translate(-288.143 -225.091)" fill="#fff" stroke="#263238" stroke-linecap="round" stroke-linejoin="round" stroke-width="1"/>
      <path id="Path_9296" data-name="Path 9296" d="M294.5,282.621a1.67,1.67,0,0,0,1.05,1.148c.861.281,3.443-1.526,3.914-2.2s-.958-.476-2-.092S294.5,282.621,294.5,282.621Z" transform="translate(-289.553 -226.542)" fill="#fff" stroke="#263238" stroke-linecap="round" stroke-linejoin="round" stroke-width="1"/>
      <path id="Path_9297" data-name="Path 9297" d="M291.014,272.1a1.148,1.148,0,0,0-.189,1.618,3.744,3.744,0,0,0,2.3,1.148Z" transform="translate(-287.88 -222.695)" fill="#fff" stroke="#263238" stroke-linecap="round" stroke-linejoin="round" stroke-width="1"/>
      <path id="Path_9298" data-name="Path 9298" d="M339.664,226.38s-3.719,24.9-4.591,27.093,1.624,19.03,1.624,21.32,2.192,2.674,3.047,3.151,7.828,3.816,8.872,5.532,3.724,5.343,3.724,5.343-1.6-16.195-1.813-24.946c-.086-3.529.189-8.775.189-8.775s4.017-20.8,3.627-22.324-6.772-4.017-9.544-4.958A43.894,43.894,0,0,0,339.664,226.38Z" transform="translate(-306.763 -203.213)" fill="#fff" stroke="#263238" stroke-linecap="round" stroke-linejoin="round" stroke-width="1"/>
      <path id="Path_9299" data-name="Path 9299" d="M344.33,229.592c.1-.648.189-1.343.258-1.882a44.055,44.055,0,0,0-4.93-1.36s-3.719,24.9-4.591,27.093a5.737,5.737,0,0,0-.172,1.94c.5-.712,2.64-3.765,4.562-7.185C341.662,244.3,344.129,230.947,344.33,229.592Z" transform="translate(-306.758 -203.2)" fill="#fff" stroke="#263238" stroke-linecap="round" stroke-linejoin="round" stroke-width="1"/>
      <path id="Path_9300" data-name="Path 9300" d="M338.89,313.74a28.652,28.652,0,0,0,5.532,1.148c3.34.379,11.237,3.529,14.049,6.984a20.031,20.031,0,0,1,2.387,3.34s-3.943.574-4.706.648-2.479.189-2.479.189-3.053-4.39-4.591-5.63S339.458,315.169,338.89,313.74Z" transform="translate(-308.469 -240.439)" fill="#fff" stroke="#263238" stroke-linecap="round" stroke-linejoin="round" stroke-width="1"/>
      <path id="Path_9301" data-name="Path 9301" d="M314.34,430.677v2.72a1.148,1.148,0,0,0,.694,1.05,15.693,15.693,0,0,0,3.713.912,7.42,7.42,0,0,0,4.591-.723,1.148,1.148,0,0,0,.574-1v-2.491a.958.958,0,0,0-1.113-.953c-1.722.281-5.107.66-7.627-.172a.66.66,0,0,0-.832.654Z" transform="translate(-298.007 -289.98)" fill="gray" stroke="#263238" stroke-linecap="round" stroke-linejoin="round" stroke-width="1"/>
      <path id="Path_9302" data-name="Path 9302" d="M343,435.646v3.07a1.28,1.28,0,0,0,.786,1.182,17.792,17.792,0,0,0,4.189,1.027,8.321,8.321,0,0,0,5.194-.815,1.274,1.274,0,0,0,.666-1.148v-2.789a1.079,1.079,0,0,0-1.257-1.067c-1.945.316-5.739.74-8.608-.2a.752.752,0,0,0-.97.74Z" transform="translate(-310.22 -292.056)" fill="gray" stroke="#263238" stroke-linecap="round" stroke-linejoin="round" stroke-width="1"/>
      <path id="Path_9303" data-name="Path 9303" d="M351.895,318.29l-3.1,2.858,4.6,4.471,1.733-2.858Z" transform="translate(-312.687 -242.378)" fill="#fff" stroke="#263238" stroke-linecap="round" stroke-linejoin="round" stroke-width="1"/>
      <path id="Path_9304" data-name="Path 9304" d="M357.833,248.448a49.153,49.153,0,0,0-.384,7.633c.281,2,4.769,13.142,4.769,13.142L352.68,283.03s1.148,4.861,4.39,6.387c0,0,9.377-9.13,11.162-11.064,3.822-4.143,5.285-7.742,5.285-9.268s-9.389-29.319-9.578-29.991-1.148-3.242-3.529-3.914" transform="translate(-314.345 -206.963)" fill="#fff" stroke="#263238" stroke-linecap="round" stroke-linejoin="round" stroke-width="1"/>
      <path id="Path_9305" data-name="Path 9305" d="M370.9,293.779a7.008,7.008,0,0,1,5.578-.545" transform="translate(-322.109 -231.542)" fill="none" stroke="#263238" stroke-linecap="round" stroke-linejoin="round" stroke-width="1"/>
      <path id="Path_9306" data-name="Path 9306" d="M376.59,291.325a4.735,4.735,0,0,1,3.4.683" transform="translate(-324.533 -230.856)" fill="none" stroke="#263238" stroke-linecap="round" stroke-linejoin="round" stroke-width="1"/>
    </g>
    <g id="freepik--location-3--inject-48" transform="translate(184.156 61.552)">
      <path id="Path_9307" data-name="Path 9307" d="M307.607,82.41a17.307,17.307,0,0,1,13.439,6.4h32.173a9.05,9.05,0,0,1,0,18.094H323.377a17.412,17.412,0,0,1-5.739,6.955L308,121.325a.206.206,0,0,1-.126.04.178.178,0,0,1-.115-.04l-10.577-7.684h0A17.01,17.01,0,0,1,290.3,99.73,17.343,17.343,0,0,1,307.607,82.41Z" transform="translate(-290.297 -81.034)" fill="#263238"/>
      <path id="Path_9308" data-name="Path 9308" d="M8.843,0H50.564V17.693H8.843A8.843,8.843,0,0,1,0,8.849H0A8.843,8.843,0,0,1,8.843,0Z" transform="translate(72.201 24.096) rotate(180)" fill="#fff" stroke="#263238" stroke-linecap="round" stroke-linejoin="round" stroke-width="1"/>
      <line id="Line_19" data-name="Line 19" x1="22.37" transform="translate(41.929 12.653)" fill="#62c9d5" stroke="#263238" stroke-linejoin="round" stroke-width="1"/>
      <line id="Line_20" data-name="Line 20" x1="22.37" transform="translate(41.929 15.476)" fill="#62c9d5" stroke="#263238" stroke-linejoin="round" stroke-width="1"/>
      <line id="Line_21" data-name="Line 21" x1="22.37" transform="translate(41.929 18.294)" fill="#62c9d5" stroke="#263238" stroke-linejoin="round" stroke-width="1"/>
      <path id="Path_9309" data-name="Path 9309" d="M298.188,110.874l10.571,7.69,9.635-7.46h0a17.125,17.125,0,1,0-27.035-13.968A16.786,16.786,0,0,0,298.188,110.874Z" transform="translate(-290.749 -80.012)" fill="#fff" stroke="#263238" stroke-linecap="round" stroke-linejoin="round" stroke-width="1"/>
      <path id="Path_9310" data-name="Path 9310" d="M324.889,98.819a15.018,15.018,0,1,1-4.4-10.664,15.064,15.064,0,0,1,4.4,10.664Z" transform="translate(-292.199 -81.609)" fill="#62c9d5" stroke="#263238" stroke-linejoin="round" stroke-width="1"/>
      <path id="Path_9311" data-name="Path 9311" d="M323.492,125.968l-10.835-2.818-11.478,2.336c.143.172.3.339.453.5a15.064,15.064,0,0,0,21.859,0Z" transform="translate(-294.935 -98.394)" fill="#fff" stroke="#263238" stroke-linecap="round" stroke-linejoin="round" stroke-width="1"/>
      <path id="Path_9312" data-name="Path 9312" d="M313.975,121.85a8.728,8.728,0,0,0-2.45,1.945,24.65,24.65,0,0,0-2.7,4.465c.166-.126,5.217-3.208,5.217-3.208Z" transform="translate(-298.186 -97.84)" fill="#62c9d5" stroke="#263238" stroke-linecap="round" stroke-linejoin="round" stroke-width="1"/>
      <path id="Path_9313" data-name="Path 9313" d="M322.2,120.75l-3.96,4.339,1.131,3.96,4.654-5.905Z" transform="translate(-302.204 -97.372)" fill="#62c9d5" stroke="#263238" stroke-linecap="round" stroke-linejoin="round" stroke-width="1"/>
      <path id="Path_9314" data-name="Path 9314" d="M310.3,89s-2.577.5-2.869-1.756,3.208-5.469,8.235-5.469,8.987,4.212,8.8,8.3a14.3,14.3,0,0,1-2.6,7.328,8.471,8.471,0,0,1-3.208,1.636c-.878.121-1.5-1.148-1.067-2.766s-.941-2.077-.373-3.581,1.32-1.509,1.567-2.014-2.514-1.572-5.027-1.446A9.753,9.753,0,0,1,310.3,89Z" transform="translate(-297.589 -80.761)" fill="#263238" stroke="#263238" stroke-linecap="round" stroke-linejoin="round" stroke-width="1"/>
      <path id="Path_9315" data-name="Path 9315" d="M316.738,115.573l-.046.241c-.132.775-.539,3.2-.648,4.66-.121,1.762,1.148,1.722,1.636,1.194s3.145-3.139,3.581-4.27,1.446-4.528,1.446-4.528Z" transform="translate(-301.265 -94.014)" fill="#fff" stroke="#263238" stroke-linecap="round" stroke-linejoin="round" stroke-width="1"/>
      <path id="Path_9316" data-name="Path 9316" d="M311.33,93.443s-.878,4.907-1.194,7.46-.631,4.08.442,5.739,4.08.574,5.59-.063a42.2,42.2,0,0,0,4.591-2.64s2.135.126,3.013-.941a1.618,1.618,0,0,0-.574-2.45,2.806,2.806,0,0,0-2.014.752c-.373.442-.31.947-.752.947s-1.067.121-.941-.316,1.067-1.888.815-2.829-2.135-1.572-.574-2.45,3.208-.815,2.456-2.135-4.654-2.7-7.1-2.2A18.243,18.243,0,0,0,311.33,93.443Z" transform="translate(-298.623 -85.209)" fill="#fff" stroke="#263238" stroke-linecap="round" stroke-linejoin="round" stroke-width="1"/>
      <path id="Path_9317" data-name="Path 9317" d="M313.18,96.86s1.475-.31,1.383,1.194c-.034.574-2.64,3.334-2.261,3.96a3.277,3.277,0,0,0,1,1" transform="translate(-299.658 -87.18)" fill="none" stroke="#263238" stroke-linecap="round" stroke-linejoin="round" stroke-width="1"/>
      <path id="Path_9318" data-name="Path 9318" d="M319.34,99.329a1.722,1.722,0,0,1,2.64.574" transform="translate(-302.673 -88.077)" fill="none" stroke="#263238" stroke-linecap="round" stroke-linejoin="round" stroke-width="1"/>
      <path id="Path_9319" data-name="Path 9319" d="M313,110.79s.379.941,1.882.815a4.493,4.493,0,0,0,1.951-.436" transform="translate(-299.971 -93.127)" fill="none" stroke="#263238" stroke-linecap="round" stroke-linejoin="round" stroke-width="1"/>
      <path id="Path_9320" data-name="Path 9320" d="M320.223,102.594c-.086.413-.339.712-.574.666s-.327-.425-.235-.838.339-.712.574-.666S320.309,102.181,320.223,102.594Z" transform="translate(-302.689 -89.276)" fill="#263238"/>
      <path id="Path_9321" data-name="Path 9321" d="M313.889,100.194c-.08.4-.316.694-.528.654s-.321-.4-.241-.8.316-.694.528-.648S313.97,99.792,313.889,100.194Z" transform="translate(-300.011 -88.27)" fill="#263238"/>
    </g>
    <g id="freepik--location-2--inject-48" transform="translate(71.356 91.403)">
      <path id="Path_9322" data-name="Path 9322" d="M149.483,134.59a17.3,17.3,0,0,0-13.44,6.41H103.871a9.05,9.05,0,1,0,0,18.094h29.842a17.377,17.377,0,0,0,5.739,6.955l9.635,7.46a.2.2,0,0,0,.121.046.218.218,0,0,0,.12-.04l10.582-7.7h0A17.01,17.01,0,0,0,166.8,151.91,17.343,17.343,0,0,0,149.483,134.59Z" transform="translate(-94.103 -133.12)" fill="#263238"/>
      <path id="Path_9323" data-name="Path 9323" d="M102.589,161.133H144.31V143.44H102.589a8.855,8.855,0,0,0-8.849,8.849h0A8.849,8.849,0,0,0,102.589,161.133Z" transform="translate(-93.74 -136.892)" fill="#fff" stroke="#263238" stroke-linecap="round" stroke-linejoin="round" stroke-width="1"/>
      <line id="Line_22" data-name="Line 22" x2="22.37" transform="translate(7.908 12.798)" fill="#62c9d5" stroke="#263238" stroke-linejoin="round" stroke-width="1"/>
      <line id="Line_23" data-name="Line 23" x2="22.37" transform="translate(7.908 15.621)" fill="#62c9d5" stroke="#263238" stroke-linejoin="round" stroke-width="1"/>
      <line id="Line_24" data-name="Line 24" x2="22.37" transform="translate(7.908 18.445)" fill="#62c9d5" stroke="#263238" stroke-linejoin="round" stroke-width="1"/>
      <path id="Path_9324" data-name="Path 9324" d="M186.235,163.144l-10.577,7.69-9.635-7.46h0a17.125,17.125,0,1,1,27.035-13.968A16.78,16.78,0,0,1,186.235,163.144Z" transform="translate(-121.467 -132.137)" fill="#fff" stroke="#263238" stroke-linecap="round" stroke-linejoin="round" stroke-width="1"/>
      <circle id="Ellipse_50" data-name="Ellipse 50" cx="15.064" cy="15.064" r="15.064" transform="matrix(0.987, -0.159, 0.159, 0.987, 37.193, 4.786)" fill="#62c9d5" stroke="#263238" stroke-linejoin="round" stroke-width="1"/>
      <path id="Path_9325" data-name="Path 9325" d="M192.195,158.691c1.085-6.135-4.941-8.648-5.544-11.77,0,0,1.509-.3,2.014-2.927s-.608-6.152-5.951-7.26-11.6,3.443-12.625,7.564,1.917,6.049.4,7.564a3.087,3.087,0,0,1-.878.545c-.757.459-1.825,1.113-2.542,1.509-1.205.666-1.877,7.231,4.419,8.034s7.765-1.205,11.248-1.607a50.066,50.066,0,0,1,8.206.172" transform="translate(-124.649 -133.962)" fill="#263238" stroke="#263238" stroke-linecap="round" stroke-linejoin="round" stroke-width="1"/>
      <path id="Path_9326" data-name="Path 9326" d="M194.7,170.058c-2.112,0-4.734,1.509-5.641,1.509s-1.01-3.828-1.01-3.828l-4.74-1.01a30.519,30.519,0,0,1,.3,5.245c-.2,1.515-3.633,1.722-5.044,1.911s-2.215,1.113-2.617,3.231a.89.89,0,0,0,0,.132,14.921,14.921,0,0,0,5.882,1.825c2.043-.362,4.1-.769,5.739-1.188,1.1-.281,2.164-.528,3.174-.74a15.1,15.1,0,0,0,5.67-5.739A1.681,1.681,0,0,0,194.7,170.058Z" transform="translate(-128.77 -146.816)" fill="#fff" stroke="#263238" stroke-linecap="round" stroke-linejoin="round" stroke-width="1"/>
      <path id="Path_9327" data-name="Path 9327" d="M176.5,181.981a15.07,15.07,0,0,0,19.213-4.591c-2.514.321-2.743,1.647-4.207,1.647a12.34,12.34,0,0,0-5.739.8c-2.209,1-2.525,1.412-5.647,1.412A9.234,9.234,0,0,0,176.5,181.981Z" transform="translate(-129.006 -151.358)" fill="#62c9d5" stroke="#263238" stroke-linecap="round" stroke-linejoin="round" stroke-width="1"/>
      <path id="Path_9328" data-name="Path 9328" d="M190.385,144.94s3.529,2.726,3.73,6.456-1.01,6.45-2.215,7.765-2.823.8-4.436-.3a11.346,11.346,0,0,1-2.726-2.824,2.221,2.221,0,0,1-1.308-.6,2.364,2.364,0,0,1-.809-1.314s3.024-.1,3.73-2.118.1-3.828,1.113-5.24a5.354,5.354,0,0,1,2.921-1.819Z" transform="translate(-131.614 -137.531)" fill="#fff" stroke="#263238" stroke-linecap="round" stroke-linejoin="round" stroke-width="1"/>
      <path id="Path_9329" data-name="Path 9329" d="M192.772,153.741s-1.722-.8-2.422.706" transform="translate(-134.908 -141.19)" fill="none" stroke="#263238" stroke-linecap="round" stroke-linejoin="round" stroke-width="1"/>
      <path id="Path_9330" data-name="Path 9330" d="M198.08,152.721s1.211-.907,1.613.1" transform="translate(-138.201 -140.686)" fill="none" stroke="#263238" stroke-linecap="round" stroke-linejoin="round" stroke-width="1"/>
      <path id="Path_9331" data-name="Path 9331" d="M196.162,166.154a1.722,1.722,0,0,1-1.412-.3" transform="translate(-136.783 -146.441)" fill="none" stroke="#263238" stroke-linecap="round" stroke-linejoin="round" stroke-width="1"/>
      <path id="Path_9332" data-name="Path 9332" d="M197.361,154.43a12.935,12.935,0,0,0-.3,3.024c.1,1.211-.3,1.515-.907,1.314" transform="translate(-137.379 -141.575)" fill="none" stroke="#263238" stroke-linecap="round" stroke-linejoin="round" stroke-width="1"/>
      <ellipse id="Ellipse_51" data-name="Ellipse 51" cx="0.362" cy="0.78" rx="0.362" ry="0.78" transform="translate(56.424 13.785)" fill="#263238"/>
      <ellipse id="Ellipse_52" data-name="Ellipse 52" cx="0.362" cy="0.78" rx="0.362" ry="0.78" transform="translate(60.636 13.366)" fill="#263238"/>
    </g>
    <g id="freepik--location-1--inject-48" transform="translate(71.012 190.916)">
      <path id="Path_9333" data-name="Path 9333" d="M148.931,307.43a17.307,17.307,0,0,0-13.439,6.4H103.319a9.05,9.05,0,0,0,0,18.094h29.842a17.428,17.428,0,0,0,5.739,6.955l9.635,7.46a.207.207,0,0,0,.126.04.178.178,0,0,0,.115-.04l10.577-7.684h0a17.01,17.01,0,0,0,6.887-13.911A17.343,17.343,0,0,0,148.931,307.43Z" transform="translate(-93.718 -306.284)" fill="#263238"/>
      <path id="Path_9334" data-name="Path 9334" d="M101.983,334.283H143.7V316.59H101.983a8.843,8.843,0,0,0-8.843,8.843h0A8.843,8.843,0,0,0,101.983,334.283Z" transform="translate(-93.14 -310.187)" fill="#fff" stroke="#263238" stroke-linecap="round" stroke-linejoin="round" stroke-width="1"/>
      <line id="Line_25" data-name="Line 25" x2="22.37" transform="translate(7.902 12.653)" fill="#62c9d5" stroke="#263238" stroke-linejoin="round" stroke-width="1"/>
      <line id="Line_26" data-name="Line 26" x2="22.37" transform="translate(7.902 15.476)" fill="#62c9d5" stroke="#263238" stroke-linejoin="round" stroke-width="1"/>
      <line id="Line_27" data-name="Line 27" x2="22.37" transform="translate(7.902 18.294)" fill="#62c9d5" stroke="#263238" stroke-linejoin="round" stroke-width="1"/>
      <path id="Path_9335" data-name="Path 9335" d="M185.635,336.294l-10.577,7.69-9.635-7.46h0a17.125,17.125,0,1,1,27.035-13.968,16.792,16.792,0,0,1-6.823,13.739Z" transform="translate(-120.867 -305.432)" fill="#fff" stroke="#263238" stroke-linecap="round" stroke-linejoin="round" stroke-width="1"/>
      <path id="Path_9336" data-name="Path 9336" d="M161.84,323.874a15.036,15.036,0,1,0,4.4-10.66A15.064,15.064,0,0,0,161.84,323.874Z" transform="translate(-122.415 -306.872)" fill="#62c9d5" stroke="#263238" stroke-linejoin="round" stroke-width="1"/>
      <path id="Path_9337" data-name="Path 9337" d="M167.87,350.8a15.076,15.076,0,0,0,22.53.763l-7.254-1.618-10.037-.5Z" transform="translate(-124.984 -324.189)" fill="#62c9d5" stroke="#263238" stroke-linecap="round" stroke-linejoin="round" stroke-width="1"/>
      <path id="Path_9338" data-name="Path 9338" d="M179.054,338.369c.654-2.4-.109-6.123-.109-6.123,1.641-1.636,6.559,6.313,6.559,6.313s-.109,1.423,1.532,3.937a5.02,5.02,0,0,0,.3.425c-1.016,1.63-3.168,4.712-4.78,4.39S178.423,343.866,177,342C178.492,341.083,178.555,340.2,179.054,338.369Z" transform="translate(-128.875 -316.763)" fill="#fff" stroke="#263238" stroke-linecap="round" stroke-linejoin="round" stroke-width="1"/>
      <path id="Path_9339" data-name="Path 9339" d="M176.973,321.632s-.763-.115-.872,1.308.545,2.192,1.085,2.192h.872a21.006,21.006,0,0,0,.574,2.514c.436,1.641.436,2.519,3.937,3.937s4.373,1.205,5.36-.327.981-7.1,1.09-9.509.545-5.165.545-5.165a8.327,8.327,0,0,0-2.514-1.75c-1.641-.763-6.669.109-8.2.878s-.981,4.7-.981,4.7Z" transform="translate(-128.486 -309.312)" fill="#fff" stroke="#263238" stroke-linecap="round" stroke-linejoin="round" stroke-width="1"/>
      <path id="Path_9340" data-name="Path 9340" d="M193.476,339.588a4.976,4.976,0,0,1-3.076-.178" transform="translate(-134.585 -319.911)" fill="none" stroke="#263238" stroke-linecap="round" stroke-linejoin="round" stroke-width="1"/>
      <path id="Path_9341" data-name="Path 9341" d="M195.73,328.884c0,.362.149.66.327.66s.333-.3.333-.66-.149-.654-.333-.654S195.73,328.523,195.73,328.884Z" transform="translate(-136.856 -315.147)" fill="#263238"/>
      <path id="Path_9342" data-name="Path 9342" d="M190.21,329.644c0,.367.143.66.327.66s.327-.293.327-.66-.143-.654-.327-.654S190.21,329.283,190.21,329.644Z" transform="translate(-134.504 -315.471)" fill="#263238"/>
      <path id="Path_9343" data-name="Path 9343" d="M196.555,325.571a1.09,1.09,0,0,0-1.205-.109" transform="translate(-136.694 -313.911)" fill="none" stroke="#263238" stroke-linecap="round" stroke-linejoin="round" stroke-width="1"/>
      <path id="Path_9344" data-name="Path 9344" d="M189.456,326.06a1.9,1.9,0,0,0-2.3.987" transform="translate(-133.204 -314.182)" fill="none" stroke="#263238" stroke-linecap="round" stroke-linejoin="round" stroke-width="1"/>
      <path id="Path_9345" data-name="Path 9345" d="M193.014,328.38l.413,4.4-2.077.218" transform="translate(-134.989 -315.211)" fill="none" stroke="#263238" stroke-linecap="round" stroke-linejoin="round" stroke-width="1"/>
      <path id="Path_9346" data-name="Path 9346" d="M173.817,310.307c.109-1.75,2.869-1.1,4.591-1.75s4.809-2.623,7.432-2.623a2.938,2.938,0,0,1,3.064,2.186l-.115-1.75a3.313,3.313,0,0,1,1.641,2.841c-.109,1.854-1.417,4.046-2.3,3.937s-8.31-.436-8.746.66,1.205,3.168,1.205,3.168c-.109,1.1-1.722.872-1.859,1.314a17.083,17.083,0,0,0,.109,3.168,3.443,3.443,0,0,1-.453,1.756,2.473,2.473,0,0,0,.453,1.527,2.663,2.663,0,0,0,2.077.872s2.514-2.3,4.373-1.968,2.3,1.205,2.3,1.205h.052c-.052.39-.109.752-.172,1.1a3.339,3.339,0,0,0-2.611-1.659c-1.722,0-3.61,2.077-3.61,2.077a7.98,7.98,0,0,0,2.841,1.2c.981,0,.769-1.2,1.423-1.09s.436.763.763.763a1.722,1.722,0,0,0,1.039-.62,3.765,3.765,0,0,1-.379.947c-.987,1.532-1.859,1.722-5.36.327s-3.5-2.3-3.937-3.937l-.121-.465a12.865,12.865,0,0,1,.522-2.3,5.812,5.812,0,0,0-.511-3.047,1.381,1.381,0,0,0-1.532-.218S173.708,312.057,173.817,310.307Z" transform="translate(-127.517 -305.642)" fill="#263238" stroke="#263238" stroke-linecap="round" stroke-linejoin="round" stroke-width="1"/>
    </g>
  </g>
</svg>
