<svg xmlns="http://www.w3.org/2000/svg" width="244.349" height="238.153" viewBox="0 0 244.349 238.153">
  <g id="Questions-amico" transform="translate(-22.91 -28.873)">
    <g id="freepik--Floor--inject-483" transform="translate(24.872 137.816)">
      <ellipse id="freepik--floor--inject-483-2" data-name="freepik--floor--inject-483" cx="118.798" cy="64.605" rx="118.798" ry="64.605" fill="#f5f5f5"/>
    </g>
    <g id="freepik--Shadows--inject-483" transform="translate(43.277 178.364)">
      <ellipse id="freepik--Shadow--inject-483" cx="17.9" cy="10.338" rx="17.9" ry="10.338" transform="translate(82.494)" fill="#e0e0e0"/>
      <ellipse id="freepik--shadow--inject-483-2" data-name="freepik--shadow--inject-483" cx="28.296" cy="16.336" rx="28.296" ry="16.336" transform="translate(138.852 15.629)" fill="#e0e0e0"/>
      <ellipse id="freepik--shadow--inject-483-3" data-name="freepik--shadow--inject-483" cx="28.296" cy="16.336" rx="28.296" ry="16.336" transform="translate(0 17.394)" fill="#e0e0e0"/>
    </g>
    <g id="freepik--Plants--inject-483" transform="translate(22.91 158.948)">
      <g id="freepik--plants--inject-483-2" data-name="freepik--plants--inject-483" transform="translate(223.271 5.822)">
        <path id="Path_9117" data-name="Path 9117" d="M449.274,318.378l-5.344-2.186a114,114,0,0,1-1.159-13.943c0-8.732,5.44-19.41,12.342-17.623s-1.946,11.555-3.382,19.1S449.274,318.378,449.274,318.378Z" transform="translate(-442.77 -284.428)" fill="#62c9d5"/>
        <path id="Path_9118" data-name="Path 9118" d="M449.274,318.378l-5.344-2.186a114,114,0,0,1-1.159-13.943c0-8.732,5.44-19.41,12.342-17.623s-1.946,11.555-3.382,19.1S449.274,318.378,449.274,318.378Z" transform="translate(-442.77 -284.428)" opacity="0.3"/>
        <path id="Path_9119" data-name="Path 9119" d="M449.488,320.155h0a.223.223,0,0,0,.191-.25c-2.547-19.144,6.062-29.779,6.147-29.87a.225.225,0,0,0-.346-.287c-.085.106-8.822,10.87-6.248,30.215a.223.223,0,0,0,.255.191Z" transform="translate(-445.574 -286.881)" fill="#fff"/>
        <path id="Path_9120" data-name="Path 9120" d="M457.222,328.882l-2.792-1.266a29.668,29.668,0,0,1,.372-12.981c1.792-6.881,7.759-11.125,10.763-10.423,3.675.856,4.031,4.254,2.957,6.621C467.241,313.637,458.4,321.225,457.222,328.882Z" transform="translate(-447.974 -293.657)" fill="#62c9d5"/>
        <path id="Path_9121" data-name="Path 9121" d="M457.222,328.882l-2.792-1.266a29.668,29.668,0,0,1,.372-12.981c1.792-6.881,7.759-11.125,10.763-10.423,3.675.856,4.031,4.254,2.957,6.621C467.241,313.637,458.4,321.225,457.222,328.882Z" transform="translate(-447.974 -293.657)" opacity="0.1"/>
        <path id="Path_9122" data-name="Path 9122" d="M457.1,330.284h0a.229.229,0,0,0,.2-.25c-1.255-12.146,9.343-21.484,9.455-21.574a.234.234,0,0,0,0-.319.223.223,0,0,0-.319,0c-.112.1-10.88,9.572-9.609,21.962a.234.234,0,0,0,.271.181Z" transform="translate(-449.304 -295.5)" fill="#fff"/>
      </g>
      <g id="freepik--plants--inject-483-3" data-name="freepik--plants--inject-483">
        <path id="Path_9123" data-name="Path 9123" d="M46.461,308.359l3.669-2.1s1.755-9.684.441-18.011c-1.851-11.7-9.822-15.746-12.715-14.581s-3.574,4.632,1.654,11.4C42.6,289.055,46.562,297.495,46.461,308.359Z" transform="translate(-28.865 -273.479)" fill="#62c9d5"/>
        <g id="Group_179" data-name="Group 179" transform="translate(6.763)" opacity="0.15">
          <path id="Path_9124" data-name="Path 9124" d="M46.461,308.359l3.669-2.1s1.755-9.684.441-18.011c-1.851-11.7-9.822-15.746-12.715-14.581s-3.574,4.632,1.654,11.4C42.6,289.055,46.562,297.495,46.461,308.359Z" transform="translate(-35.628 -273.479)"/>
        </g>
        <path id="Path_9125" data-name="Path 9125" d="M51.268,305.166h-.037a.255.255,0,0,1-.218-.292c1.51-10.96-2.893-22.967-7.849-27.806a.266.266,0,1,1,.367-.378c5.041,4.9,9.535,17.134,8,28.248A.266.266,0,0,1,51.268,305.166Z" transform="translate(-32.342 -274.934)" fill="#fff"/>
        <path id="Path_9126" data-name="Path 9126" d="M30.339,323.067c-.58.33-1.771-.394-2.228-.7a5.594,5.594,0,0,1-1.84-2.127,5.174,5.174,0,0,1-.457-3.111,12.046,12.046,0,0,1,.394-1.654l.463-1.6a4.121,4.121,0,0,0,.234-1.6,4.216,4.216,0,0,0-2-2.531,4.02,4.02,0,0,1-1.994-3.026,4.605,4.605,0,0,1,1.165-2.765c.627-.8,1.377-1.51,1.952-2.356a3.228,3.228,0,0,0,.654-2.069,3.387,3.387,0,0,0-.447-1.282,17.8,17.8,0,0,1-1.4-2.574,2.586,2.586,0,0,1,.447-2.739,3.015,3.015,0,0,1,2.271-.564,5.18,5.18,0,0,1,2.127.744c2.1,1.165,3.3,3.653,5.525,4.552a21.8,21.8,0,0,0,2.691.654,3.318,3.318,0,0,1,2.223,1.526c.819,1.633-.7,3.643-.122,5.376.532,1.531,2,2.127,2.834,3.5a3.265,3.265,0,0,1,.394,2,9.71,9.71,0,0,1-.846,3.393,24.109,24.109,0,0,1-1.867,3.058C40.474,317.228,30.429,323,30.339,323.067Z" transform="translate(-22.91 -282.311)" fill="#62c9d5"/>
        <path id="Path_9127" data-name="Path 9127" d="M40.727,321.379h0a.266.266,0,0,1-.255-.276c.431-10.37-4.456-21.8-8.009-25.153a.261.261,0,0,1,0-.367.266.266,0,0,1,.372,0c3.6,3.377,8.593,15.023,8.152,25.546A.261.261,0,0,1,40.727,321.379Z" transform="translate(-27.348 -283.793)" fill="#fff"/>
        <path id="Path_9128" data-name="Path 9128" d="M38.22,319.57h-.08a35.376,35.376,0,0,0-7.525-1.218.266.266,0,1,1,0-.532,35.821,35.821,0,0,1,7.658,1.239.261.261,0,0,1,.175.324A.266.266,0,0,1,38.22,319.57Z" transform="translate(-26.394 -294.241)" fill="#fff"/>
      </g>
    </g>
    <g id="freepik--character-2--inject-483" transform="translate(171.833 60.55)">
      <g id="freepik--Character--inject-483" transform="translate(0 27.561)">
        <path id="Path_9129" data-name="Path 9129" d="M396.338,354.466l-4.956-.569L390.1,343.91l6.057,1.8Z" transform="translate(-343.761 -235.619)" fill="#b16668"/>
        <path id="Path_9130" data-name="Path 9130" d="M381.331,372.647a1.494,1.494,0,0,0,.085,1.212,5.8,5.8,0,0,0,3.776,1.473,7.535,7.535,0,0,0,4.435-.776,3.1,3.1,0,0,0,1.659-2.425,6.594,6.594,0,0,1,.473-2.781c.473-.782,1.159-1.542,1.313-1.936a3.962,3.962,0,0,0,0-2.074Z" transform="translate(-339.613 -245.653)" fill="#263238"/>
        <path id="Path_9131" data-name="Path 9131" d="M386.269,360.647a4.131,4.131,0,0,1-.207,1.133,10.4,10.4,0,0,1-1.1,2.239,9.171,9.171,0,0,1-.744,1.064c-.532.643-1.212,1.175-1.787,1.792a3.669,3.669,0,0,0-1.106,2.191c-.074,1.4,2.159,1.882,3.334,2.09a8.61,8.61,0,0,0,3.807-.191,3.494,3.494,0,0,0,2.563-2.792c.069-.393.043-.792.09-1.181a5.5,5.5,0,0,1,1.09-2.457,7.279,7.279,0,0,0,.835-1.335,4.2,4.2,0,0,0-.159-2.707c-.2-.75-.447-1.6-.713-1.537,0,.388,0,.441-.261.7s-.362.835-.734,1.127a5.38,5.38,0,0,0,.261-1,.558.558,0,0,0-.08-.393,1.064,1.064,0,0,0-.431-.234,8.873,8.873,0,0,0-1.7-.388,10.455,10.455,0,0,0-2.377,0,.707.707,0,0,0-.42.245.866.866,0,0,0-.149.479C386.258,359.7,386.279,360.275,386.269,360.647Z" transform="translate(-339.653 -242.545)" fill="#455a64"/>
        <path id="Path_9132" data-name="Path 9132" d="M387.791,368.275a6.729,6.729,0,0,1,3.047-.33,3.861,3.861,0,0,1,1.819.638.415.415,0,0,0,.532-.042h0a.394.394,0,0,0-.043-.6,3.951,3.951,0,0,0-2.042-.76,10.562,10.562,0,0,0-2.755.16S387.637,367.807,387.791,368.275Z" transform="translate(-342.67 -246.504)" fill="#f5f5f5"/>
        <path id="Path_9133" data-name="Path 9133" d="M385.55,371.057a8.133,8.133,0,0,1,3.3-.266,3.632,3.632,0,0,1,1.766.675.42.42,0,0,0,.532-.043h0a.393.393,0,0,0-.043-.6,7.582,7.582,0,0,0-2.8-.819c-1.6-.112-1.984.207-1.984.207a1.324,1.324,0,0,0-.771.84Z" transform="translate(-341.631 -247.828)" fill="#f5f5f5"/>
        <path id="Path_9134" data-name="Path 9134" d="M392.54,364.336a7.743,7.743,0,0,0-2.691.165c-.277.154-.463.6-.282.707a7.562,7.562,0,0,1,2.467-.245,5.265,5.265,0,0,1,1.7.468c.138.064.3.144.436.223a.367.367,0,0,0,.532-.16h0a.351.351,0,0,0-.133-.452A5.078,5.078,0,0,0,392.54,364.336Z" transform="translate(-343.478 -245.16)" fill="#f5f5f5"/>
        <path id="Path_9135" data-name="Path 9135" d="M362.932,345.678l-4.712-1.313V334.84l5.844.255Z" transform="translate(-328.834 -231.372)" fill="#b16668"/>
        <path id="Path_9136" data-name="Path 9136" d="M339.426,362.066a1.739,1.739,0,0,0,.069,1.25c.175.362,2.085,1.441,4.658,1.266a10.753,10.753,0,0,0,5.318-1.861,6.113,6.113,0,0,1,3.276-.84c1.276-.069,2.946-.713,3.228-1.308a2.845,2.845,0,0,0-.043-1.622Z" transform="translate(-319.995 -242.661)" fill="#263238"/>
        <path id="Path_9137" data-name="Path 9137" d="M349.738,349.464l-.2-.042a.739.739,0,0,0-.34,0,.717.717,0,0,0-.319.213,6.318,6.318,0,0,0-.654,1.037,7.731,7.731,0,0,1-2.909,2.271c-.84.452-1.664.8-2.531,1.191a21.063,21.063,0,0,0-2.755,1.111,1.856,1.856,0,0,0,0,3.063,9.065,9.065,0,0,0,6.344.441c1.489-.425,3.148-2.015,5.105-2.17,1.244-.1,3.6-.447,4.4-1.393.3-.42-.1-1.75-.425-2.9-.356-1.255-.691-3.191-1.106-3.1a.564.564,0,0,1-.218.468,6.666,6.666,0,0,1-.532.4,3.271,3.271,0,0,0-.691.994.75.75,0,0,1-.351.383c-.213.074-.367-.053-.532-.138a1.064,1.064,0,0,0-.744-.053,5,5,0,0,1,.133-.739.393.393,0,0,0,0-.234.351.351,0,0,0-.16-.181A3.951,3.951,0,0,0,349.738,349.464Z" transform="translate(-319.938 -238.089)" fill="#455a64"/>
        <path id="Path_9138" data-name="Path 9138" d="M352.9,354.382a1.149,1.149,0,0,1,.92-.617,3.349,3.349,0,0,1,2.186.824.463.463,0,0,1-.064.766h0a.457.457,0,0,1-.532-.059,3.563,3.563,0,0,0-2.51-.915Z" transform="translate(-326.343 -240.226)" fill="#f5f5f5"/>
        <path id="Path_9139" data-name="Path 9139" d="M349.59,356.294a1.335,1.335,0,0,1,1.09-.564,4.137,4.137,0,0,1,2.4.9.452.452,0,0,1-.064.739h0a.441.441,0,0,1-.532-.059,3.563,3.563,0,0,0-2.893-1.016Z" transform="translate(-324.793 -241.154)" fill="#f5f5f5"/>
        <path id="Path_9140" data-name="Path 9140" d="M346,358.005a1.479,1.479,0,0,1,1.127-.505,4,4,0,0,1,2.3.9.457.457,0,0,1-.064.745h0a.441.441,0,0,1-.532-.058A3.4,3.4,0,0,0,346,358.005Z" transform="translate(-323.112 -241.982)" fill="#f5f5f5"/>
        <path id="Path_9141" data-name="Path 9141" d="M379.92,233.735c.324,9.822.346,31.093.346,31.093.1,1.223.207,3.393.3,7.8.133,6.381.441,22.138.441,22.138a8.067,8.067,0,0,1-5.85.266s-3.893-22.154-4.69-28.471c-.7-5.514-2.031-18.447-2.031-18.447l-1.84,16.416s0,4.254-.25,8.009c-.207,2.925-3.047,17.99-3.047,17.99a9.763,9.763,0,0,1-5.632-.186s-.255-23.127-.308-25.812c-.059-3.052.728-36.054.728-36.054Z" transform="translate(-328.429 -181.567)" fill="#455a64"/>
        <path id="Path_9142" data-name="Path 9142" d="M372.02,257.941l-.7-5.568a19.457,19.457,0,0,1-6.328-2.9s1.351,1.808,5.318,3.722l.893,5.052-1.01,16.113Z" transform="translate(-332.004 -191.4)" fill="#37474f"/>
        <path id="Path_9143" data-name="Path 9143" d="M332.367,184.088c-1.436,1.882-8.822,12.018-8.822,12.018l-6.823-5.286c-1.6-1.25-2.069-2.888-3.068-4.02s-2.1-1.4-3.217-2.35-1.553-1.664-1.936-.856.856,2.217,1.064,2.558,1.489,1.154-.2,1.064-4.945-2.021-5.733-2.377-.808.617-.436,1.255.186,2.414.622,3.558a4.77,4.77,0,0,0,2.76,2.616c1.452.723,4.983,1.175,6.131,1.9h0c2.521,2.584,7.275,7.408,8.477,8.3,1.654,1.228,3.254,2.361,5.786-.074s9.864-11.992,9.864-11.992l1.516-9.088A6.35,6.35,0,0,0,332.367,184.088Z" transform="translate(-302.96 -159.483)" fill="#b16668"/>
        <path id="Path_9144" data-name="Path 9144" d="M341.67,208.658a6.078,6.078,0,0,1,2,2.941,4.786,4.786,0,0,0-1.6-3.488Z" transform="translate(-321.085 -172.034)" fill="#9a4a4d"/>
        <path id="Path_9145" data-name="Path 9145" d="M358.722,180.9s-3.51-.043-5.052,1.037-2.685,2.659-5.19,6.3c-2.2,3.191-3.26,4.722-3.26,4.722a11.773,11.773,0,0,0,5.961,4.552l6.551-8.115Z" transform="translate(-322.747 -159.293)" fill="#37474f"/>
        <path id="Path_9146" data-name="Path 9146" d="M371.646,180.559c1.989.191,4.786.213,6.754.415,1.367.564,4,2.861,3.807,4.5-.734,6.121-2.218,16.155-2.218,16.155l.489,10.635c-2.739,2.733-15.554,3.8-22.159-.569,0,0,.213-19.1.67-22.335.814-5.791,1.526-7.939,4.515-8.45A53.686,53.686,0,0,1,371.646,180.559Z" transform="translate(-328.881 -159.123)" fill="#62c9d5"/>
        <path id="Path_9147" data-name="Path 9147" d="M399.3,184.378c1.436,1.882,8.827,12.018,8.827,12.018l6.828-5.286c1.6-1.255,2.069-2.893,3.068-4.02s2.1-1.4,3.217-2.35,1.553-1.664,1.936-.861-.856,2.223-1.064,2.563-1.489,1.154.2,1.064,4.94-2.026,5.733-2.382.8.617.436,1.255-.191,2.42-.622,3.563a4.769,4.769,0,0,1-2.76,2.616c-1.452.723-4.983,1.175-6.131,1.9h0c-2.521,2.579-7.275,7.408-8.477,8.3-1.654,1.228-3.254,2.361-5.786-.069s-8.317-10-8.317-10L393.33,181.6A6.333,6.333,0,0,1,399.3,184.378Z" transform="translate(-345.274 -159.618)" fill="#b16668"/>
        <path id="Path_9148" data-name="Path 9148" d="M419.4,208.943a6.078,6.078,0,0,0-2,2.941,4.786,4.786,0,0,1,1.6-3.494Z" transform="translate(-356.544 -172.165)" fill="#9a4a4d"/>
        <path id="Path_9149" data-name="Path 9149" d="M392.107,181.1s3.153-.2,4.813,1.064c1.494,1.149,2.659,2.659,5.19,6.3,2.2,3.191,3.26,4.722,3.26,4.722a11.805,11.805,0,0,1-5.967,4.552l-4.462-5.5C392.617,189.295,390.314,184.812,392.107,181.1Z" transform="translate(-344.401 -159.382)" fill="#37474f"/>
        <path id="Path_9150" data-name="Path 9150" d="M373.447,148.115A6.169,6.169,0,1,1,367.226,142a6.169,6.169,0,0,1,6.222,6.115Z" transform="translate(-330.188 -141.079)" fill="#263238"/>
        <path id="Path_9151" data-name="Path 9151" d="M390.574,161.68a53.327,53.327,0,0,1-1.356,5.477A2.127,2.127,0,0,1,388,168.162l.037-3.308Z" transform="translate(-342.778 -150.294)" fill="#263238"/>
        <path id="Path_9152" data-name="Path 9152" d="M389.869,149.034a2.3,2.3,0,0,1,1.92.654c.83.835.394,3.472-.606,6.062l-1.883.234Z" transform="translate(-343.387 -144.364)" fill="#263238"/>
        <path id="Path_9153" data-name="Path 9153" d="M376.428,153.516c.378.223.909-.532,1.372-1a1.65,1.65,0,0,1,2.749.42c.776,1.59-.638,3.786-1.829,4.169-2.058.67-2.382-.654-2.382-.654l-.085,7.668h0c-2.531,3.313-9.652,3.095-6.716-.362v-2.265a13.04,13.04,0,0,1-2.776.165c-1.521-.218-2.483-1.409-2.962-3.047-.76-2.627-1.064-4.754-.479-9.949.638-5.69,7.248-5.807,10.838-3.589S376.428,153.516,376.428,153.516Z" transform="translate(-331.079 -141.891)" fill="#b16668"/>
        <path id="Path_9154" data-name="Path 9154" d="M375.688,152.527c.186,0,.9-1.2,1.367-1.633.643-.6-.239-5.956-.239-5.956a2.606,2.606,0,0,0-.479-2.9c-.9-.973-2.154-2.159-6.2-1.648-2.888.367-6.02,1.3-8.567.074a4.323,4.323,0,0,0,1.542,4.573,8.661,8.661,0,0,0,3.345.856,35.834,35.834,0,0,0,6.69-.186c.7-.1.856.574,1.25,2.43C374.747,149.762,375.05,152.522,375.688,152.527Z" transform="translate(-330.333 -140.269)" fill="#263238"/>
        <path id="Path_9155" data-name="Path 9155" d="M390.238,148.107l2.271-1.244a1.255,1.255,0,0,0-1.734-.558A1.361,1.361,0,0,0,390.238,148.107Z" transform="translate(-343.756 -143.023)" fill="#263238"/>
        <path id="Path_9156" data-name="Path 9156" d="M375.25,174.5a26,26,0,0,0,4.557-1.351,3.892,3.892,0,0,0,1.622-1.633,5.318,5.318,0,0,1-.909,1.914c-.856,1.117-5.259,1.968-5.259,1.968Z" transform="translate(-336.808 -154.902)" fill="#9a4a4d"/>
        <path id="Path_9157" data-name="Path 9157" d="M374.74,160.478a.686.686,0,0,0,.681.7.707.707,0,1,0-.681-.7Z" transform="translate(-336.569 -149.396)" fill="#263238"/>
        <path id="Path_9158" data-name="Path 9158" d="M377.139,156.116l-1.51-.686a.872.872,0,0,0,.425,1.127.814.814,0,0,0,1.085-.441Z" transform="translate(-336.953 -147.368)" fill="#263238"/>
        <path id="Path_9159" data-name="Path 9159" d="M365.224,155.15l-1.313,1.032a.792.792,0,0,0,1.149.165.883.883,0,0,0,.165-1.2Z" transform="translate(-331.498 -147.237)" fill="#263238"/>
        <path id="Path_9160" data-name="Path 9160" d="M364.89,160.2a.649.649,0,1,0,.643-.681.659.659,0,0,0-.643.681Z" transform="translate(-331.957 -149.283)" fill="#263238"/>
        <path id="Path_9161" data-name="Path 9161" d="M369.323,159.77l-.383,4.068-2.1-.808Z" transform="translate(-332.87 -149.4)" fill="#9a4a4d"/>
        <path id="Path_9162" data-name="Path 9162" d="M373.68,169.719a.654.654,0,1,0,.654-.649.654.654,0,0,0-.654.649Z" transform="translate(-336.073 -153.754)" fill="#9a4a4d"/>
      </g>
      <g id="freepik--question-marks--inject-483" transform="translate(44.3 0)">
        <path id="Path_9163" data-name="Path 9163" d="M396.175,88.643a11.109,11.109,0,0,1,2.9,1.09,8.333,8.333,0,0,1,2.308,1.835,6.579,6.579,0,0,1,1.361,2.489,5.85,5.85,0,0,1,.064,2.989,6.035,6.035,0,0,1-.915,2.186,7.142,7.142,0,0,1-1.43,1.5,11.659,11.659,0,0,1-1.707,1.1l-1.691.893a9.269,9.269,0,0,0-1.446.936,2.738,2.738,0,0,0-.9,1.207,1.26,1.26,0,0,1-.431.532.76.76,0,0,1-.649.133l-2.489-.532a.92.92,0,0,1-.585-.4.755.755,0,0,1-.106-.675,5.93,5.93,0,0,1,1.064-2.127,8.371,8.371,0,0,1,1.532-1.478,11.987,11.987,0,0,1,1.75-1.064c.606-.3,1.17-.6,1.691-.883a7.385,7.385,0,0,0,1.335-.9,2.127,2.127,0,0,0,.707-1.17,2.537,2.537,0,0,0-.6-2.276,4.563,4.563,0,0,0-2.611-1.42,4.394,4.394,0,0,0-4.712,1.877,1.718,1.718,0,0,1-.463.463.835.835,0,0,1-.643.048l-2.659-.59a.718.718,0,0,1-.463-.308.675.675,0,0,1-.1-.569,5.2,5.2,0,0,1,1.223-2.186,8.231,8.231,0,0,1,2.281-1.765,9.8,9.8,0,0,1,3-1A8.732,8.732,0,0,1,396.175,88.643Zm-2.808,18.9a.867.867,0,0,1,.564.4.877.877,0,0,1,.122.681l-.638,2.882a.909.909,0,0,1-1.064.686l-2.818-.622a.877.877,0,0,1-.564-.4.862.862,0,0,1-.122-.681l.638-2.888a.909.909,0,0,1,1.064-.686Z" transform="translate(-386.265 -88.442)" fill="#62c9d5"/>
        <path id="Path_9164" data-name="Path 9164" d="M416.111,139.723a7.445,7.445,0,0,1,2.127-.043,5.749,5.749,0,0,1,1.952.585,4.542,4.542,0,0,1,1.5,1.234,3.989,3.989,0,0,1,.8,1.9,4.069,4.069,0,0,1,0,1.633,4.9,4.9,0,0,1-.532,1.335,8.29,8.29,0,0,1-.808,1.138l-.856,1.01a6.931,6.931,0,0,0-.691.968,1.9,1.9,0,0,0-.266,1.005.877.877,0,0,1-.138.468.532.532,0,0,1-.378.25l-1.739.287a.654.654,0,0,1-.479-.112.532.532,0,0,1-.239-.4,3.958,3.958,0,0,1,.122-1.627,5.4,5.4,0,0,1,.6-1.345,8.262,8.262,0,0,1,.846-1.133c.314-.351.6-.681.862-1a5.194,5.194,0,0,0,.622-.92,1.468,1.468,0,0,0,.154-.931,1.749,1.749,0,0,0-.968-1.308,3.116,3.116,0,0,0-2.031-.245,3.047,3.047,0,0,0-2.542,2.409,1.245,1.245,0,0,1-.181.42.59.59,0,0,1-.4.191l-1.851.3a.532.532,0,0,1-.378-.08.473.473,0,0,1-.213-.34,3.589,3.589,0,0,1,.229-1.712,5.572,5.572,0,0,1,1.01-1.718,6.8,6.8,0,0,1,1.67-1.409,6.051,6.051,0,0,1,2.191-.808Zm3.036,12.864a.627.627,0,0,1,.718.516l.33,2.01a.617.617,0,0,1-.112.468.6.6,0,0,1-.4.25l-1.968.324a.611.611,0,0,1-.463-.112.6.6,0,0,1-.255-.4l-.33-2.015a.633.633,0,0,1,.532-.718Z" transform="translate(-397.842 -112.406)" fill="#62c9d5"/>
        <g id="Group_180" data-name="Group 180" transform="translate(13.148 27.217)" opacity="0.2">
          <path id="Path_9165" data-name="Path 9165" d="M416.111,139.723a7.445,7.445,0,0,1,2.127-.043,5.749,5.749,0,0,1,1.952.585,4.542,4.542,0,0,1,1.5,1.234,3.989,3.989,0,0,1,.8,1.9,4.069,4.069,0,0,1,0,1.633,4.9,4.9,0,0,1-.532,1.335,8.29,8.29,0,0,1-.808,1.138l-.856,1.01a6.931,6.931,0,0,0-.691.968,1.9,1.9,0,0,0-.266,1.005.877.877,0,0,1-.138.468.532.532,0,0,1-.378.25l-1.739.287a.654.654,0,0,1-.479-.112.532.532,0,0,1-.239-.4,3.958,3.958,0,0,1,.122-1.627,5.4,5.4,0,0,1,.6-1.345,8.262,8.262,0,0,1,.846-1.133c.314-.351.6-.681.862-1a5.194,5.194,0,0,0,.622-.92,1.468,1.468,0,0,0,.154-.931,1.749,1.749,0,0,0-.968-1.308,3.116,3.116,0,0,0-2.031-.245,3.047,3.047,0,0,0-2.542,2.409,1.245,1.245,0,0,1-.181.42.59.59,0,0,1-.4.191l-1.851.3a.532.532,0,0,1-.378-.08.473.473,0,0,1-.213-.34,3.589,3.589,0,0,1,.229-1.712,5.572,5.572,0,0,1,1.01-1.718,6.8,6.8,0,0,1,1.67-1.409,6.051,6.051,0,0,1,2.191-.808Zm3.036,12.864a.627.627,0,0,1,.718.516l.33,2.01a.617.617,0,0,1-.112.468.6.6,0,0,1-.4.25l-1.968.324a.611.611,0,0,1-.463-.112.6.6,0,0,1-.255-.4l-.33-2.015a.633.633,0,0,1,.532-.718Z" transform="translate(-410.989 -139.624)"/>
        </g>
        <path id="Path_9166" data-name="Path 9166" d="M450.766,137.589a.75.75,0,0,1,.175,1.032l-1.4,1.968a.75.75,0,0,1-1.032.175l-1.925-1.367a.718.718,0,0,1-.3-.479.745.745,0,0,1,.122-.532l1.4-1.973a.74.74,0,0,1,.479-.3.729.729,0,0,1,.532.128Zm8.126-13.342a8.816,8.816,0,0,1,1.84,1.744,6.833,6.833,0,0,1,1.154,2.127,5.4,5.4,0,0,1,.239,2.292,4.786,4.786,0,0,1-.9,2.271,4.962,4.962,0,0,1-1.383,1.356,5.781,5.781,0,0,1-1.563.675,9.573,9.573,0,0,1-1.633.287l-1.563.133a8.408,8.408,0,0,0-1.383.245,2.276,2.276,0,0,0-1.064.627,1.122,1.122,0,0,1-.5.282.638.638,0,0,1-.532-.112l-1.7-1.207a.771.771,0,0,1-.308-.489.617.617,0,0,1,.133-.532,4.786,4.786,0,0,1,1.462-1.271,6.552,6.552,0,0,1,1.627-.628,9.944,9.944,0,0,1,1.659-.255c.532-.032,1.063-.074,1.553-.122a5.849,5.849,0,0,0,1.292-.261,1.718,1.718,0,0,0,.9-.654,2.058,2.058,0,0,0,.276-1.9,3.722,3.722,0,0,0-1.51-1.9,3.6,3.6,0,0,0-4.148-.09,1.489,1.489,0,0,1-.495.2.691.691,0,0,1-.505-.17l-1.808-1.287a.612.612,0,0,1-.255-.383.564.564,0,0,1,.112-.457,4.217,4.217,0,0,1,1.6-1.26,6.748,6.748,0,0,1,2.281-.6,8.141,8.141,0,0,1,2.579.2A7.083,7.083,0,0,1,458.891,124.246Z" transform="translate(-414.363 -104.566)" fill="#62c9d5"/>
        <g id="Group_181" data-name="Group 181" transform="translate(31.911 18.313)" opacity="0.6">
          <path id="Path_9167" data-name="Path 9167" d="M450.766,137.589a.75.75,0,0,1,.175,1.032l-1.4,1.968a.75.75,0,0,1-1.032.175l-1.925-1.367a.718.718,0,0,1-.3-.479.745.745,0,0,1,.122-.532l1.4-1.973a.74.74,0,0,1,.479-.3.729.729,0,0,1,.532.128Zm8.126-13.342a8.816,8.816,0,0,1,1.84,1.744,6.833,6.833,0,0,1,1.154,2.127,5.4,5.4,0,0,1,.239,2.292,4.786,4.786,0,0,1-.9,2.271,4.962,4.962,0,0,1-1.383,1.356,5.781,5.781,0,0,1-1.563.675,9.573,9.573,0,0,1-1.633.287l-1.563.133a8.408,8.408,0,0,0-1.383.245,2.276,2.276,0,0,0-1.064.627,1.122,1.122,0,0,1-.5.282.638.638,0,0,1-.532-.112l-1.7-1.207a.771.771,0,0,1-.308-.489.617.617,0,0,1,.133-.532,4.786,4.786,0,0,1,1.462-1.271,6.552,6.552,0,0,1,1.627-.628,9.944,9.944,0,0,1,1.659-.255c.532-.032,1.063-.074,1.553-.122a5.849,5.849,0,0,0,1.292-.261,1.718,1.718,0,0,0,.9-.654,2.058,2.058,0,0,0,.276-1.9,3.722,3.722,0,0,0-1.51-1.9,3.6,3.6,0,0,0-4.148-.09,1.489,1.489,0,0,1-.495.2.691.691,0,0,1-.505-.17l-1.808-1.287a.612.612,0,0,1-.255-.383.564.564,0,0,1,.112-.457,4.217,4.217,0,0,1,1.6-1.26,6.748,6.748,0,0,1,2.281-.6,8.141,8.141,0,0,1,2.579.2A7.083,7.083,0,0,1,458.891,124.246Z" transform="translate(-446.274 -122.879)" fill="#fff"/>
        </g>
      </g>
    </g>
    <g id="freepik--character-1--inject-483" transform="translate(33.498 61.523)">
      <g id="freepik--character--inject-483-2" data-name="freepik--character--inject-483" transform="translate(10.933 29.188)">
        <path id="Path_9168" data-name="Path 9168" d="M126.758,333.387c-.053-1.6,1.1-17.187,1.1-17.187l-7.594,5.509c1.558,9.3,1.893,11.492,1.92,13.013h0a1.409,1.409,0,0,0-.043.388c0,1.808,2.047,2.781,3.637,3.988a30.114,30.114,0,0,0,4.3,2.808c1.154.58,3.5.633,3.792-.112a55.3,55.3,0,0,1-6.291-5.376C126.843,335.61,126.817,334.972,126.758,333.387Z" transform="translate(-90.013 -225.244)" fill="#ffa8a7"/>
        <path id="Path_9169" data-name="Path 9169" d="M138,364.39a1.415,1.415,0,0,1-.324,1.452,6.509,6.509,0,0,1-4.829,1.149,8.474,8.474,0,0,1-4.685-1.808A10.033,10.033,0,0,0,124.746,363a6.584,6.584,0,0,1-2.436-1c-.324-.314-.282-1.707-.282-1.707Z" transform="translate(-90.84 -245.888)" fill="#263238"/>
        <path id="Path_9170" data-name="Path 9170" d="M123,350.2a.383.383,0,0,0-.367.324c-.074.383-.154,1.5-.314,2.127a11.354,11.354,0,0,0-.234,3.382c.133.718,1.781,1.212,2.84,1.6a13.373,13.373,0,0,1,3.425,2.159,9.657,9.657,0,0,0,5.089,1.9c1.861,0,3.956-.617,4.44-1.478.59-1.064.128-1.686-2.632-2.967-.532-.239-2.356-1.329-2.983-1.723a10.262,10.262,0,0,1-4.148-4.43,1.064,1.064,0,0,0-.394-.574.883.883,0,0,0-.532-.053,4.638,4.638,0,0,0-1.329.4c-.367.175-.893.383-.888.856a1.643,1.643,0,0,0,.106.479c.032.1.058.229,0,.287s-.186,0-.261-.074a7.015,7.015,0,0,1-.739-.893,2.889,2.889,0,0,0-.441-.441,4.173,4.173,0,0,1-.468-.308C122.97,350.625,123.013,350.423,123,350.2Z" transform="translate(-90.851 -241.164)" fill="#455a64"/>
        <path id="Path_9171" data-name="Path 9171" d="M132.575,365.78c-.484-.394-.994-.782-1.5-1.122h0s3.244,1.973,4.552,1.064a1.17,1.17,0,0,0,.425-1.5,7.267,7.267,0,0,1,2.882-1.282h0c.229.128.42.229.532.282,2.76,1.282,3.223,1.9,2.632,2.967-.484.861-2,1.537-4.4,1.537A9.764,9.764,0,0,1,132.575,365.78Z" transform="translate(-95.074 -247.129)" fill="#37474f"/>
        <path id="Path_9172" data-name="Path 9172" d="M132.007,357.6c1.718.686.984,1.005.505,1.064s-3.366-1.6-5.132-3.01-2.994-3.047-3.675-3.579c-.255-.2-.532-.441-.776-.67.048-.378.085-.723.117-.9a.383.383,0,0,1,.367-.324c0,.223-.032.431.138.6a4.184,4.184,0,0,0,.468.308,2.888,2.888,0,0,1,.441.441,7.016,7.016,0,0,0,.739.893,22.334,22.334,0,0,0,6.807,5.185Z" transform="translate(-91.263 -241.154)" fill="#263238"/>
        <path id="Path_9173" data-name="Path 9173" d="M140.57,364.346a.17.17,0,0,1-.106-.043.165.165,0,0,1-.027-.234,4.079,4.079,0,0,1,3.143-1.244.175.175,0,0,1,.154.191.17.17,0,0,1-.186.149,3.786,3.786,0,0,0-2.845,1.117A.176.176,0,0,1,140.57,364.346Z" transform="translate(-99.443 -247.073)" fill="#f5f5f5"/>
        <path id="Path_9174" data-name="Path 9174" d="M137.77,362.661a.165.165,0,0,1-.112-.037.176.176,0,0,1,0-.239,4.089,4.089,0,0,1,3.143-1.239.171.171,0,0,1-.037.34,3.765,3.765,0,0,0-2.845,1.117A.17.17,0,0,1,137.77,362.661Z" transform="translate(-98.137 -246.286)" fill="#f5f5f5"/>
        <path id="Path_9175" data-name="Path 9175" d="M134.953,360.971a.165.165,0,0,1-.106-.037.17.17,0,0,1,0-.239,4.1,4.1,0,0,1,3.143-1.239.171.171,0,1,1-.032.34,3.765,3.765,0,0,0-2.845,1.117A.181.181,0,0,1,134.953,360.971Z" transform="translate(-96.819 -245.495)" fill="#f5f5f5"/>
        <path id="Path_9176" data-name="Path 9176" d="M132.341,359.1a.159.159,0,0,1-.106-.277,4.079,4.079,0,0,1,3.143-1.239.169.169,0,0,1-.037.335,3.8,3.8,0,0,0-2.845,1.117A.17.17,0,0,1,132.341,359.1Z" transform="translate(-95.595 -244.619)" fill="#f5f5f5"/>
        <path id="Path_9177" data-name="Path 9177" d="M129.793,357.2a.2.2,0,0,1-.106-.037.17.17,0,0,1,0-.239,4.158,4.158,0,0,1,3.43-1.255.159.159,0,0,1,.149.186.17.17,0,0,1-.186.149,3.866,3.866,0,0,0-3.127,1.127.181.181,0,0,1-.16.069Z" transform="translate(-94.403 -243.715)" fill="#f5f5f5"/>
        <path id="Path_9178" data-name="Path 9178" d="M98.833,329.428l-7.663-.138c.112,5.116.925,10.79,1.064,15.586,0,.9,0,7.019.319,8.881.532,2.792,3.829,2.414,4,.744s-.213-8.811-.2-9.572c-.032-3.074,1.409-8.269,2.17-13.794C98.556,330.885,98.8,329.694,98.833,329.428Z" transform="translate(-76.392 -231.373)" fill="#ffa8a7"/>
        <path id="Path_9179" data-name="Path 9179" d="M97.678,378a7.652,7.652,0,0,1-.532,3.765,2.414,2.414,0,0,1-2.659,1.255,3.685,3.685,0,0,1-3.084-2.127A9,9,0,0,1,90.956,377Z" transform="translate(-76.268 -253.712)" fill="#263238"/>
        <path id="Path_9180" data-name="Path 9180" d="M92.136,357.5c-.452.08-.367,2.287-.409,4.5-.048,2.382-.649,3.425-.707,5.376-.069,2.233.149,3.191,1.064,4.456s3.77,2.287,4.924.245c.941-1.664.814-3.393.489-5.584s-.58-3.85-.665-5.584-.122-3.27-.532-3.414v.8c0,.239.037,1.064-.218,1.117a3.978,3.978,0,0,1-.069-.622.755.755,0,0,0-.175-.532.872.872,0,0,0-.532-.17,11.864,11.864,0,0,0-1.372-.074,4.206,4.206,0,0,0-.686.037,1.722,1.722,0,0,0-.569.144.415.415,0,0,0-.229.245.686.686,0,0,0,0,.255,1.876,1.876,0,0,1,0,.457c0,.069-.048.154-.117.144s-.08-.074-.085-.128c-.032-.266,0-.463-.032-.771v-.484C92.216,357.771,92.142,357.644,92.136,357.5Z" transform="translate(-76.316 -244.582)" fill="#455a64"/>
        <path id="Path_9181" data-name="Path 9181" d="M91.022,374.833c0,.324-.069,2.457.532,2.776s.835-1.34.835-1.34a5.579,5.579,0,0,1,3.621.122c-.074.351.362,1.446.92,1.149s.532-2.728.532-2.76c.3,2.127.4,3.776-.532,5.392-1.154,2.042-4.02,1.01-4.924-.245s-1.122-2.223-1.064-4.456C90.969,375.248,91.006,375.041,91.022,374.833Z" transform="translate(-76.281 -252.673)" fill="#37474f"/>
        <path id="Path_9182" data-name="Path 9182" d="M93.185,368.282c.069.8-.739.612-.888-.532s.2-3.85,0-5.786c.043-2.218-.043-4.424.409-4.5a.4.4,0,0,0,0,.08l.053,1.122a3.644,3.644,0,0,0,0,.479c.149,1.627.239,4.786.245,6.286a26.793,26.793,0,0,0,.181,2.856Z" transform="translate(-76.902 -244.563)" fill="#263238"/>
        <path id="Path_9183" data-name="Path 9183" d="M100,368.3a25.407,25.407,0,0,0,.154-2.834c0-1.489.1-4.611.245-6.248a4.1,4.1,0,0,0,.069-.92v-.8c.3.112.4.989.468,2.1,0,.643,0,1.441-.059,2.409-.2,1.936.149,4.68,0,5.8S99.945,369.1,100,368.3Z" transform="translate(-80.524 -244.582)" fill="#263238"/>
        <path id="Path_9184" data-name="Path 9184" d="M97.211,377.35h-.058a5.436,5.436,0,0,0-3.547,0,.171.171,0,1,1-.122-.319,5.637,5.637,0,0,1,3.792,0,.165.165,0,0,1-.064.319Z" transform="translate(-77.424 -253.573)" fill="#f5f5f5"/>
        <path id="Path_9185" data-name="Path 9185" d="M97.255,374.032a.122.122,0,0,1-.058,0,6.689,6.689,0,0,0-3.967,0,.17.17,0,0,1-.218-.106.165.165,0,0,1,.106-.213,6.913,6.913,0,0,1,4.2,0,.17.17,0,0,1-.058.33Z" transform="translate(-77.25 -252.021)" fill="#f5f5f5"/>
        <path id="Path_9186" data-name="Path 9186" d="M93.151,370.819a.175.175,0,0,1-.154-.1.17.17,0,0,1,.085-.223,5.812,5.812,0,0,1,4.185-.027.165.165,0,0,1,.1.218.17.17,0,0,1-.218.1,5.677,5.677,0,0,0-3.919,0,.187.187,0,0,1-.074.037Z" transform="translate(-77.241 -250.478)" fill="#f5f5f5"/>
        <path id="Path_9187" data-name="Path 9187" d="M93.081,367.822a.168.168,0,0,1-.074-.319,5.259,5.259,0,0,1,4.254-.048.168.168,0,1,1-.144.3,5.052,5.052,0,0,0-3.978.048A.185.185,0,0,1,93.081,367.822Z" transform="translate(-77.207 -249.044)" fill="#f5f5f5"/>
        <path id="Path_9188" data-name="Path 9188" d="M93.008,364.545a.17.17,0,0,1-.074-.324,5.489,5.489,0,0,1,4.3,0,.16.16,0,0,1,.085.223.17.17,0,0,1-.223.085,5.267,5.267,0,0,0-4.01,0A.149.149,0,0,1,93.008,364.545Z" transform="translate(-77.172 -247.516)" fill="#f5f5f5"/>
        <path id="Path_9189" data-name="Path 9189" d="M93.436,236c-2.7,7.482-2.228,12.178-1.765,20.021.425,7.19,1.1,13.523,1.1,13.523-.106,1.276-1.882,3.765-2.127,9.4a92.34,92.34,0,0,0,.532,11.885s3.536,1.292,6.525,0c0,0,3.058-13.5,3.893-20.1.723-5.759,1.989-13.119,1.989-13.119l2.659,13.092a19.347,19.347,0,0,0-.792,5.419c0,3.079,1.43,11.641,1.43,11.641s3.962,1.282,6.472-.947c0,0,.994-12.321,1.345-17.017.468-6.264-.213-23.435-1.718-32.226Z" transform="translate(-76.137 -187.692)" fill="#455a64"/>
        <path id="Path_9190" data-name="Path 9190" d="M115.05,265.489l1.106-9.848s4.951-.659,7.195-2.771a8.12,8.12,0,0,1-5.85,3.685l-1.6,9.168,1.808,12.858Z" transform="translate(-87.573 -195.591)" fill="#37474f"/>
        <path id="Path_9191" data-name="Path 9191" d="M129.956,204.88c-2.409-2.478-6.759-8.083-6.759-8.083l-2.457-8.508a15.884,15.884,0,0,0,1.648,0c2.659.175,3.441.4,5.094,2.212,1.313,1.441,6.323,8.28,8.062,10.582l4.621-5.887c1.111-1.675.931-3.552,1.5-4.919s1.5-1.968,2.249-3.191.92-2.042,1.532-1.409-.1,2.335-.186,2.723-1.026,1.542.532.941,3.962-3.446,4.579-4.026.947.319.808,1.032.532,2.319.287,3.494a4.786,4.786,0,0,1-1.648,3.036c-1.122,1.127-3.866,2.515-4.94,4s-3.366,6.094-4.786,8.87c-1.781,3.531-3.3,4.7-5.318,3.5A24.994,24.994,0,0,1,129.956,204.88Z" transform="translate(-90.237 -163.874)" fill="#ffa8a7"/>
        <path id="Path_9192" data-name="Path 9192" d="M121.564,190.862a8.817,8.817,0,0,1,4.01.532c1.441.649,2.42,2.042,3.829,3.93s3.924,5.19,3.924,5.19-.681,2.866-5.169,5.44l-7.328-7.546Z" transform="translate(-90.279 -166.537)" fill="#37474f"/>
        <path id="Path_9193" data-name="Path 9193" d="M147.041,214.656a5.615,5.615,0,0,0-1.675,3.1s-.532-1.707,1.282-3.627Z" transform="translate(-101.734 -177.452)" fill="#f28f8f"/>
        <path id="Path_9194" data-name="Path 9194" d="M113.4,206c3.27-2.691,2.191-6.2,1-8.556-2.388-4.717-4.871-6.573-5.908-6.557l-6.5.064c-3.106.425-5.509.213-6.259.388-1.914.452-1.957,2.026-2.031,4.063-.08,2.233-1.223,1.856-.643,5.546a38.088,38.088,0,0,1,1.8,4.228c.351,1.276,1.34,3.308.814,5.371-.2.8-.744,1.6-1.558,3.781a41.175,41.175,0,0,0-2.047,7.583,9.129,9.129,0,0,0,4.057-2.739s2.951,3.951,10.051,3.552c7.365-.415,8.014-4.254,8.014-4.254l-1.127-6.913C113.225,208.768,113.3,207.758,113.4,206Z" transform="translate(-76.809 -166.571)" fill="#62c9d5"/>
        <path id="Path_9195" data-name="Path 9195" d="M115.928,215.7a6.675,6.675,0,0,1-5.78,1.106,5.318,5.318,0,0,1-3.611-3.722,4.67,4.67,0,0,0,3.659,4.674A5.105,5.105,0,0,0,115.928,215.7Z" transform="translate(-83.585 -176.961)" opacity="0.1"/>
        <path id="Path_9196" data-name="Path 9196" d="M85.349,185.136c-.963-.7-6.147,6.238-3.722,7.977s5.009-3.191,4.488-5.52S85.349,185.136,85.349,185.136Z" transform="translate(-71.624 -163.853)" fill="#37474f"/>
        <path id="Path_9197" data-name="Path 9197" d="M72.4,162.995c1.3-1.8,2.18-3.153,3.366-4.7.67-.877,1.1-1.5,1.744-2.4.447-.617.707-1.138,1.207-1.335a4.254,4.254,0,0,0,1.462-1.064,8.664,8.664,0,0,0,.686-.909,13.294,13.294,0,0,1,2.659-2.744c1.064-.824,2.228-1.462,3.313-2.249.643-.468,1.335-1.239.532-1.936a1.909,1.909,0,0,0-.861-.394c-1.936-.388-3.611.308-5.493.824a16.429,16.429,0,0,0-2.393.856,4.111,4.111,0,0,0-1.064.633,5.493,5.493,0,0,0-1.064,1.6c-.824,1.516-2.563,2.866-3.781,4.052-1.43,1.393-2.707,2.659-4.339,4.206-1.468,1.383-2.909,2.659-4.254,4.169a2.127,2.127,0,0,0-.532,2.526,11.915,11.915,0,0,0,3.254,3.722c.415.383.835.76,1.255,1.138,1.627,1.468,3.254,2.84,4.945,4.254,1.808,1.489,2.553,2.212,4.164,3.659a11.96,11.96,0,0,1,2.5,3.26c2.792.463,5.536-3.808,3.143-8.8a5.222,5.222,0,0,0-1.728-2.01C78.179,167.254,72.4,162.995,72.4,162.995Z" transform="translate(-63.38 -145.158)" fill="#ffa8a7"/>
        <path id="Path_9198" data-name="Path 9198" d="M77.371,178.7A7.349,7.349,0,0,1,74,181.1s1.781.425,4.174-1.8Z" transform="translate(-68.352 -160.863)" fill="#f28f8f"/>
        <path id="Path_9199" data-name="Path 9199" d="M91.35,188.626c-.654-.452-2.244-1.415-5.419-3.446,0,0,.489,1.026-.282,3.605s-2.4,4.212-3.419,4.4c0,0,1.776,1.4,3.414,2.989s2.983,2.707,3.93,4.547c0,0,2.34-.6,2.872-4.568C92.818,193.369,92.594,190.1,91.35,188.626Z" transform="translate(-72.206 -163.897)" fill="#455a64"/>
        <path id="Path_9200" data-name="Path 9200" d="M114.706,158.448a6.381,6.381,0,0,0-.431-6.227c-2.015-2.866-5.413-4.254-9.168-4.212h-1.165c-5.068.085-9.673,4.435-9.763,9.333h0c0,3.446,0,6.631,1.9,8.982,1.75,2.186,4.478,2.9,6.78,3.254,4.4.67,9.349.16,11.348-2.84,0,0-2.659.532-2.324-2.223.048-.436-.367-.915-1.1-1.409a14.767,14.767,0,0,1,1.792-2.473C113.329,159.884,114.2,159.464,114.706,158.448Z" transform="translate(-77.801 -146.492)" fill="#263238"/>
        <path id="Path_9201" data-name="Path 9201" d="M115.581,166.072c-.027,5.132-1.67,6.424-2.494,6.807s-2.441.181-4.01-.048l.053,3.079s1.835,1.856,1.728,3.27-2.808,1.6-4.855.271a15.187,15.187,0,0,1-3.042-2.659,1.117,1.117,0,0,1-.271-.707l-.128-7.237s-.84.92-2.372-.09a2.8,2.8,0,0,1-.792-4.047,2.063,2.063,0,0,1,3.148.324c.468.872.425,1.489,1.064,1.388s.665-.792.707-1.287,0-.654.064-1.3c1.516-.324,3.084-2.436,3.26-3.978a7.259,7.259,0,0,0,3.3.744c1.7-.117,2.574-.457,3.409-1.68a3.723,3.723,0,0,1,.473.909,11.828,11.828,0,0,1,.532,2.015,25.961,25.961,0,0,1,.223,4.228Z" transform="translate(-79.989 -151.602)" fill="#ffa8a7"/>
        <path id="Path_9202" data-name="Path 9202" d="M113.136,182.936c-1.654-.191-5.062-1.106-5.616-2.436a3.478,3.478,0,0,0,1.218,1.691c1.032.851,4.414,1.771,4.414,1.771Z" transform="translate(-84.047 -161.706)" fill="#f28f8f"/>
        <path id="Path_9203" data-name="Path 9203" d="M120.021,179.3a.675.675,0,1,1-.686-.659A.675.675,0,0,1,120.021,179.3Z" transform="translate(-89.268 -160.835)" fill="#b16668"/>
        <path id="Path_9204" data-name="Path 9204" d="M118.289,169.78a.718.718,0,0,1-.654.782.734.734,0,1,1,.654-.782Z" transform="translate(-88.404 -156.367)" fill="#263238"/>
        <path id="Path_9205" data-name="Path 9205" d="M127.464,169.257a.659.659,0,0,1-.6.707.612.612,0,0,1-.686-.622.649.649,0,0,1,.6-.713.665.665,0,0,1,.691.628Z" transform="translate(-92.782 -156.148)" fill="#263238"/>
        <path id="Path_9206" data-name="Path 9206" d="M122.37,168.56l.51,4.286,2.2-.915Z" transform="translate(-91.001 -156.115)" fill="#f28f8f"/>
        <path id="Path_9207" data-name="Path 9207" d="M114.76,165.832l1.276-1.212A.925.925,0,0,1,116,165.9a.856.856,0,0,1-1.239-.064Z" transform="translate(-87.437 -154.27)" fill="#263238"/>
        <path id="Path_9208" data-name="Path 9208" d="M126.627,163.88l1.414,1.064a.851.851,0,0,1-1.223.2A.936.936,0,0,1,126.627,163.88Z" transform="translate(-92.917 -153.924)" fill="#263238"/>
      </g>
      <g id="freepik--question-marks--inject-483-2" data-name="freepik--question-marks--inject-483" transform="translate(0)">
        <path id="Path_9209" data-name="Path 9209" d="M82.071,90.462a10.812,10.812,0,0,1,3.095-.138,8.285,8.285,0,0,1,2.845.776,6.546,6.546,0,0,1,2.223,1.734,5.85,5.85,0,0,1,1.234,2.717,5.94,5.94,0,0,1,0,2.372,7,7,0,0,1-.723,1.946,11.338,11.338,0,0,1-1.133,1.68c-.425.532-.83,1.021-1.207,1.494a9.572,9.572,0,0,0-.957,1.425,2.749,2.749,0,0,0-.356,1.468,1.34,1.34,0,0,1-.175.681.771.771,0,0,1-.532.378l-2.5.473a.9.9,0,0,1-.691-.144.734.734,0,0,1-.367-.58,5.85,5.85,0,0,1,.117-2.361,8.269,8.269,0,0,1,.824-1.962,11.7,11.7,0,0,1,1.186-1.659c.441-.532.84-1.01,1.207-1.478a7.7,7.7,0,0,0,.872-1.356,2.127,2.127,0,0,0,.186-1.351,2.521,2.521,0,0,0-1.441-1.861,4.563,4.563,0,0,0-2.957-.282,4.416,4.416,0,0,0-3.589,3.584,1.93,1.93,0,0,1-.245.606.872.872,0,0,1-.58.3l-2.659.505a.76.76,0,0,1-.532-.1.718.718,0,0,1-.314-.489,5.211,5.211,0,0,1,.266-2.489,8.221,8.221,0,0,1,1.361-2.537A10.024,10.024,0,0,1,78.9,91.685a8.817,8.817,0,0,1,3.175-1.223Zm4.855,18.479a.925.925,0,0,1,1.064.723l.532,2.9a.856.856,0,0,1-.144.675.888.888,0,0,1-.574.383l-2.834.532a.867.867,0,0,1-.681-.144.888.888,0,0,1-.383-.574l-.532-2.9a.877.877,0,0,1,.149-.675.851.851,0,0,1,.574-.383Z" transform="translate(-57.817 -90.27)" fill="#62c9d5"/>
        <path id="Path_9210" data-name="Path 9210" d="M131.092,112.459a7.4,7.4,0,0,1,1.7,1.3,5.578,5.578,0,0,1,1.165,1.67,4.568,4.568,0,0,1,.409,1.9,4,4,0,0,1-.532,1.989,4.254,4.254,0,0,1-1.037,1.266,4.962,4.962,0,0,1-1.25.707,7.975,7.975,0,0,1-1.345.394l-1.3.255a6.162,6.162,0,0,0-1.138.335,1.872,1.872,0,0,0-.835.617.9.9,0,0,1-.4.282.532.532,0,0,1-.452-.037l-1.537-.861a.644.644,0,0,1-.308-.383.532.532,0,0,1,.064-.468,4.02,4.02,0,0,1,1.106-1.2,5.69,5.69,0,0,1,1.308-.681,8.51,8.51,0,0,1,1.367-.362c.463-.08.893-.16,1.3-.245a5.633,5.633,0,0,0,1.064-.335,1.51,1.51,0,0,0,.7-.633,1.755,1.755,0,0,0,.053-1.627,3.137,3.137,0,0,0-1.441-1.457,3.047,3.047,0,0,0-3.488.308,1.255,1.255,0,0,1-.4.218.6.6,0,0,1-.436-.1L123.8,114.4a.532.532,0,0,1-.245-.3.489.489,0,0,1,.048-.4,3.632,3.632,0,0,1,1.239-1.2,5.647,5.647,0,0,1,1.861-.713,6.781,6.781,0,0,1,2.186-.069A6.089,6.089,0,0,1,131.092,112.459Zm-5.6,11.938a.622.622,0,0,1,.3.378.606.606,0,0,1-.053.473l-.994,1.781a.627.627,0,0,1-.851.245l-1.739-.973a.569.569,0,0,1-.292-.378.59.59,0,0,1,.048-.473l.994-1.781a.617.617,0,0,1,.378-.292.585.585,0,0,1,.473.053Z" transform="translate(-79.813 -100.286)" fill="#62c9d5"/>
        <g id="Group_182" data-name="Group 182" transform="translate(42.013 11.376)" opacity="0.2">
          <path id="Path_9211" data-name="Path 9211" d="M131.092,112.459a7.4,7.4,0,0,1,1.7,1.3,5.578,5.578,0,0,1,1.165,1.67,4.568,4.568,0,0,1,.409,1.9,4,4,0,0,1-.532,1.989,4.254,4.254,0,0,1-1.037,1.266,4.962,4.962,0,0,1-1.25.707,7.975,7.975,0,0,1-1.345.394l-1.3.255a6.162,6.162,0,0,0-1.138.335,1.872,1.872,0,0,0-.835.617.9.9,0,0,1-.4.282.532.532,0,0,1-.452-.037l-1.537-.861a.644.644,0,0,1-.308-.383.532.532,0,0,1,.064-.468,4.02,4.02,0,0,1,1.106-1.2,5.69,5.69,0,0,1,1.308-.681,8.51,8.51,0,0,1,1.367-.362c.463-.08.893-.16,1.3-.245a5.633,5.633,0,0,0,1.064-.335,1.51,1.51,0,0,0,.7-.633,1.755,1.755,0,0,0,.053-1.627,3.137,3.137,0,0,0-1.441-1.457,3.047,3.047,0,0,0-3.488.308,1.255,1.255,0,0,1-.4.218.6.6,0,0,1-.436-.1L123.8,114.4a.532.532,0,0,1-.245-.3.489.489,0,0,1,.048-.4,3.632,3.632,0,0,1,1.239-1.2,5.647,5.647,0,0,1,1.861-.713,6.781,6.781,0,0,1,2.186-.069A6.089,6.089,0,0,1,131.092,112.459Zm-5.6,11.938a.622.622,0,0,1,.3.378.606.606,0,0,1-.053.473l-.994,1.781a.627.627,0,0,1-.851.245l-1.739-.973a.569.569,0,0,1-.292-.378.59.59,0,0,1,.048-.473l.994-1.781a.617.617,0,0,1,.378-.292.585.585,0,0,1,.473.053Z" transform="translate(-121.826 -111.662)"/>
        </g>
        <path id="Path_9212" data-name="Path 9212" d="M56.641,138.529a.723.723,0,0,1,.532-.2.744.744,0,0,1,.532.234l1.638,1.776a.75.75,0,0,1-.043,1.064L57.566,143a.75.75,0,0,1-1.064-.043l-1.638-1.776a.744.744,0,0,1,.043-1.064Zm-11.38-10.715a8.9,8.9,0,0,1,2.085-1.452,6.844,6.844,0,0,1,2.308-.691,5.483,5.483,0,0,1,2.292.234,4.786,4.786,0,0,1,2.037,1.356,4.9,4.9,0,0,1,1.064,1.633,5.765,5.765,0,0,1,.34,1.664,9.573,9.573,0,0,1-.053,1.659c-.069.532-.133,1.064-.191,1.558a7.881,7.881,0,0,0-.048,1.4,2.233,2.233,0,0,0,.394,1.175,1.064,1.064,0,0,1,.17.532.612.612,0,0,1-.213.495l-1.532,1.42a.76.76,0,0,1-.532.2.606.606,0,0,1-.505-.239,4.877,4.877,0,0,1-.947-1.691,6.69,6.69,0,0,1-.277-1.718,9.748,9.748,0,0,1,.1-1.68c.08-.532.144-1.064.2-1.542a6.152,6.152,0,0,0,0-1.324,1.728,1.728,0,0,0-.452-1.016,2.069,2.069,0,0,0-1.808-.665,3.76,3.76,0,0,0-2.17,1.064,3.627,3.627,0,0,0-.941,4.047,1.537,1.537,0,0,1,.1.532.686.686,0,0,1-.271.452l-1.633,1.51a.606.606,0,0,1-.425.17.569.569,0,0,1-.425-.2,4.2,4.2,0,0,1-.92-1.824,6.668,6.668,0,0,1-.122-2.356,8.062,8.062,0,0,1,.734-2.483,7.136,7.136,0,0,1,1.654-2.218Z" transform="translate(-42.821 -106.83)" fill="#62c9d5"/>
        <g id="Group_183" data-name="Group 183" transform="translate(0 18.808)" opacity="0.6">
          <path id="Path_9213" data-name="Path 9213" d="M56.641,138.529a.723.723,0,0,1,.532-.2.744.744,0,0,1,.532.234l1.638,1.776a.75.75,0,0,1-.043,1.064L57.566,143a.75.75,0,0,1-1.064-.043l-1.638-1.776a.744.744,0,0,1,.043-1.064Zm-11.38-10.715a8.9,8.9,0,0,1,2.085-1.452,6.844,6.844,0,0,1,2.308-.691,5.483,5.483,0,0,1,2.292.234,4.786,4.786,0,0,1,2.037,1.356,4.9,4.9,0,0,1,1.064,1.633,5.765,5.765,0,0,1,.34,1.664,9.573,9.573,0,0,1-.053,1.659c-.069.532-.133,1.064-.191,1.558a7.881,7.881,0,0,0-.048,1.4,2.233,2.233,0,0,0,.394,1.175,1.064,1.064,0,0,1,.17.532.612.612,0,0,1-.213.495l-1.532,1.42a.76.76,0,0,1-.532.2.606.606,0,0,1-.505-.239,4.877,4.877,0,0,1-.947-1.691,6.69,6.69,0,0,1-.277-1.718,9.748,9.748,0,0,1,.1-1.68c.08-.532.144-1.064.2-1.542a6.152,6.152,0,0,0,0-1.324,1.728,1.728,0,0,0-.452-1.016,2.069,2.069,0,0,0-1.808-.665,3.76,3.76,0,0,0-2.17,1.064,3.627,3.627,0,0,0-.941,4.047,1.537,1.537,0,0,1,.1.532.686.686,0,0,1-.271.452l-1.633,1.51a.606.606,0,0,1-.425.17.569.569,0,0,1-.425-.2,4.2,4.2,0,0,1-.92-1.824,6.668,6.668,0,0,1-.122-2.356,8.062,8.062,0,0,1,.734-2.483,7.136,7.136,0,0,1,1.654-2.218Z" transform="translate(-42.821 -125.638)" fill="#fff"/>
        </g>
      </g>
    </g>
    <g id="freepik--question-mark--inject-483" transform="translate(113.018 28.873)">
      <g id="freepik--big-question-mark--inject-483">
        <path id="Path_9214" data-name="Path 9214" d="M248.827,213.595c-1.516-.867-7.9-4.557-10.066-5.812-.431-.245-.7-.4-.723-.42a5.094,5.094,0,0,0-3.547-.532,9.248,9.248,0,0,0-2.935,1.143c-.149.085-.3.186-.441.282a18.545,18.545,0,0,0-6.312,7.333,22.733,22.733,0,0,0-2.792,10.635q0,5.286,2.818,7.418a5.687,5.687,0,0,0,.6.388c1.76,1,10.588,6.115,10.784,6.227h.048a4.957,4.957,0,0,1-.622-.4q-2.824-2.127-2.818-7.413a22.733,22.733,0,0,1,2.792-10.635,18.216,18.216,0,0,1,6.748-7.62q3.776-2.18,6.52-.569Z" transform="translate(-206.242 -112.145)" fill="#62c9d5"/>
        <path id="Path_9215" data-name="Path 9215" d="M251.68,213.611q-2.744-1.6-6.52.564a17.55,17.55,0,0,0-6.355,6.913L228,214.829a17.886,17.886,0,0,1,5.913-6.61c.144-.09.292-.2.441-.282a9.1,9.1,0,0,1,2.935-1.138,5.062,5.062,0,0,1,3.547.532l.723.42c2.17,1.25,8.551,4.94,10.066,5.807Z" transform="translate(-209.047 -112.129)" opacity="0.4"/>
        <path id="Path_9216" data-name="Path 9216" d="M236.256,247.4h-.048c-.2-.112-9.04-5.227-10.784-6.227a5.688,5.688,0,0,1-.6-.388q-2.818-2.127-2.818-7.413a22.7,22.7,0,0,1,2.792-10.635c.128-.25.261-.495.4-.729l10.8,6.238c-.133.234-.266.479-.394.723a22.733,22.733,0,0,0-2.792,10.635q0,5.286,2.818,7.413A4.962,4.962,0,0,0,236.256,247.4Z" transform="translate(-206.242 -119.305)" opacity="0.3"/>
        <path id="Path_9217" data-name="Path 9217" d="M230.232,39.081q7.865-4.547,13.39-3.866a11.167,11.167,0,0,1,4.254,1.415,1.129,1.129,0,0,1-.106-.064c-1.266-.713-8.891-5.11-10.635-6.137a11.119,11.119,0,0,0-4.339-1.446q-5.53-.675-13.4,3.861a51.842,51.842,0,0,0-19.676,20.739,57.126,57.126,0,0,0-7.365,27.934l10.8,6.238a56.66,56.66,0,0,1,7.365-27.939A52.064,52.064,0,0,1,230.232,39.081Z" transform="translate(-192.358 -28.884)" fill="#62c9d5"/>
        <path id="Path_9218" data-name="Path 9218" d="M253.748,36.561a11.385,11.385,0,0,0-4.169-1.356q-5.52-.681-13.39,3.866A51.8,51.8,0,0,0,216.513,59.81c-.207.378-.409.76-.606,1.138L205.08,54.7c.2-.378.4-.76.606-1.138a52.221,52.221,0,0,1,19.676-20.739q7.876-4.541,13.4-3.861a11.125,11.125,0,0,1,4.339,1.452C244.857,31.451,252.482,35.854,253.748,36.561Z" transform="translate(-198.315 -28.873)" opacity="0.2"/>
        <path id="Path_9219" data-name="Path 9219" d="M209.928,83.678a56.249,56.249,0,0,0-6.759,26.8l-10.8-6.238a56.31,56.31,0,0,1,6.759-26.8Z" transform="translate(-192.363 -51.613)" opacity="0.3"/>
        <path id="Path_9220" data-name="Path 9220" d="M252.906,80.8q-2.941-1.563-7.854,1.223a19.58,19.58,0,0,1-1.191,5.7q-1.228,3.308-7.147,13.645a90.917,90.917,0,0,0-8.87,20.415,72.4,72.4,0,0,0-2.733,19.676l.053,3.313,7.37,4.254,3.435,1.984-.058-3.318v-.043a72.645,72.645,0,0,1,2.733-19.612,90.686,90.686,0,0,1,8.875-20.41q5.913-10.338,7.142-13.651a19.42,19.42,0,0,0,1.234-6.828Q255.894,82.385,252.906,80.8Z" transform="translate(-207.694 -52.921)" fill="#62c9d5"/>
        <path id="Path_9221" data-name="Path 9221" d="M253.6,105.11q-1.829,3.808-6.084,11.242a90.467,90.467,0,0,0-8.875,20.415,72.609,72.609,0,0,0-2.733,19.628v.085l.059,3.318-3.435-1.978-7.37-4.254-.053-3.318a72.428,72.428,0,0,1,2.733-19.676,90.916,90.916,0,0,1,8.87-20.415q4.254-7.445,6.094-11.236Z" transform="translate(-207.694 -61.671)" opacity="0.3"/>
        <path id="Path_9222" data-name="Path 9222" d="M271.477,87.145a19.421,19.421,0,0,1-1.228,6.807q-.343.933-1.064,2.409L258.39,90.128q.707-1.478,1.064-2.409a19.582,19.582,0,0,0,1.191-5.7q4.914-2.786,7.854-1.223T271.477,87.145Z" transform="translate(-223.276 -52.921)" opacity="0.4"/>
        <path id="Path_9223" data-name="Path 9223" d="M227.3,84.772l-14.618,8.445a56.66,56.66,0,0,1,7.365-27.939,52.175,52.175,0,0,1,19.676-20.739q7.865-4.547,13.39-3.866t8.843,6.057q3.324,5.376,3.324,13.411a43.35,43.35,0,0,1-1.064,9.242,69.58,69.58,0,0,1-3.345,10.635A130.975,130.975,0,0,1,254.449,92.5a121.116,121.116,0,0,0-6.083,11.811,42.257,42.257,0,0,0-2.015,7.642,80.154,80.154,0,0,0-1.064,11.773l-15.118,8.732-.058-3.318a72.427,72.427,0,0,1,2.733-19.676,90.687,90.687,0,0,1,8.875-20.409q5.913-10.338,7.142-13.651a19.421,19.421,0,0,0,1.212-6.828q0-4.786-2.983-6.349t-8.009,1.308a22.626,22.626,0,0,0-8.429,8.9A25.525,25.525,0,0,0,227.3,84.772Z" transform="translate(-201.872 -34.356)" fill="#62c9d5"/>
        <path id="Path_9224" data-name="Path 9224" d="M251.815,219.724q4.068-2.356,6.945-.292t2.877,7.344a22.813,22.813,0,0,1-2.845,10.683,18.5,18.5,0,0,1-6.865,7.721q-4.026,2.324-6.839.191t-2.818-7.418a22.733,22.733,0,0,1,2.792-10.635A18.19,18.19,0,0,1,251.815,219.724Z" transform="translate(-215.728 -117.647)" fill="#62c9d5"/>
      </g>
    </g>
  </g>
</svg>
