<svg xmlns="http://www.w3.org/2000/svg" width="285.976" height="240.248" viewBox="0 0 285.976 240.248">
  <g id="Search-amico" transform="translate(-38.73 -75.676)">
    <g id="freepik--Floor--inject-719" transform="translate(41.921 168.198)">
      <path id="Path_10001" data-name="Path 10001" d="M84.99,342.16c55.213,28.845,144.735,28.845,199.954,0s55.213-75.61,0-104.455-144.741-28.852-199.961,0S29.771,313.315,84.99,342.16Z" transform="translate(-43.572 -216.069)" fill="#fafafa"/>
    </g>
    <g id="freepik--Shadow--inject-719" transform="translate(209.305 280.318)">
      <ellipse id="Ellipse_77" data-name="Ellipse 77" cx="20.212" cy="9.635" rx="20.212" ry="9.635" fill="#f0f0f0"/>
    </g>
    <g id="freepik--screens-2--inject-719" transform="translate(55.384 75.676)">
      <path id="Path_10002" data-name="Path 10002" d="M88.4,123.339v33.149c0,1.087.764,1.536,1.713.989l76.961-44.438a3.8,3.8,0,0,0,1.713-2.966V76.9c0-1.087-.771-1.536-1.713-.989L90.113,120.347a3.776,3.776,0,0,0-1.713,2.992Z" transform="translate(-72.32 -75.676)" fill="#f0f0f0"/>
      <path id="Path_10003" data-name="Path 10003" d="M95.541,140.186l23.066-13.312c1.061-.613,1.911-.119,1.911,1.1v23.178a4.2,4.2,0,0,1-1.911,3.3L95.541,167.766c-1.054.606-1.911.112-1.911-1.107V143.494A4.218,4.218,0,0,1,95.541,140.186Z" transform="translate(-74.103 -93.043)" fill="#fafafa"/>
      <path id="Path_10004" data-name="Path 10004" d="M114.218,144.217l-6.86,14.222-3.493-2.017a1.476,1.476,0,0,0-1.977.54L93.63,171.2v1.246c0,1.219.857,1.713,1.911,1.107l23.066-13.319a4.218,4.218,0,0,0,1.911-3.3V148.79l-4.613-4.837a.956.956,0,0,0-1.687.264Z" transform="translate(-74.103 -98.82)" fill="#62c9d5"/>
      <path id="Path_10005" data-name="Path 10005" d="M97.1,154.13a10.828,10.828,0,0,0,4.9-8.482,3.574,3.574,0,0,0-1.219-3.018l-5.233,3.018a4.218,4.218,0,0,0-1.911,3.3v5.516A3.41,3.41,0,0,0,97.1,154.13Z" transform="translate(-74.103 -98.506)" fill="#62c9d5"/>
      <path id="Path_10006" data-name="Path 10006" d="M146.75,110.618,181.408,90.6c.791-.455,1.43-.132,1.43.725a3.058,3.058,0,0,1-1.43,2.372L146.75,113.709c-.791.455-1.43.132-1.43-.725A3.058,3.058,0,0,1,146.75,110.618Z" transform="translate(-91.728 -80.695)" fill="#fafafa"/>
      <path id="Path_10007" data-name="Path 10007" d="M146.75,121.008l34.658-20.015c.791-.455,1.43-.132,1.43.725a3.058,3.058,0,0,1-1.43,2.372L146.75,124.1c-.791.455-1.43.132-1.43-.718A3.058,3.058,0,0,1,146.75,121.008Z" transform="translate(-91.728 -84.238)" fill="#fafafa"/>
      <path id="Path_10008" data-name="Path 10008" d="M146.75,131.4l34.658-20.008c.791-.455,1.43-.132,1.43.718a3.058,3.058,0,0,1-1.43,2.372L146.75,134.492c-.791.461-1.43.138-1.43-.718A3.058,3.058,0,0,1,146.75,131.4Z" transform="translate(-91.728 -87.784)" fill="#fafafa"/>
      <path id="Path_10009" data-name="Path 10009" d="M146.75,141.791l34.658-20.008c.791-.455,1.43-.132,1.43.725a3.058,3.058,0,0,1-1.43,2.366L146.75,144.922c-.791.455-1.43.132-1.43-.725a3.058,3.058,0,0,1,1.43-2.405Z" transform="translate(-91.728 -91.327)" fill="#fafafa"/>
      <path id="Path_10010" data-name="Path 10010" d="M64,262.047V213.4a3.776,3.776,0,0,1,1.713-2.966l58.2-33.61c.942-.547,1.713-.105,1.713.989V226.46a3.8,3.8,0,0,1-1.713,2.966l-58.2,33.61C64.764,263.582,64,263.141,64,262.047Z" transform="translate(-64 -110.086)" fill="#f0f0f0"/>
      <path id="Path_10011" data-name="Path 10011" d="M64,284.154v2.432c0,1.094.764,1.536,1.713.989l58.2-33.61A3.8,3.8,0,0,0,125.632,251V248.56Z" transform="translate(-64 -134.625)" fill="#62c9d5"/>
      <path id="Path_10012" data-name="Path 10012" d="M106.051,235.468l5.931-.31c.725-.04.923.369.442.923l-6.814,7.75c-.481.547-.87.4-.87-.33v-6.643a1.4,1.4,0,0,1,1.311-1.391Z" transform="translate(-77.891 -130.055)" fill="#62c9d5"/>
      <path id="Path_10013" data-name="Path 10013" d="M102.187,244.692a4.013,4.013,0,0,1-2.03-.521c-1.463-.85-2.267-2.636-2.267-4.969a16.588,16.588,0,0,1,7.48-12.95c2.036-1.18,3.954-1.358,5.43-.514s2.274,2.636,2.274,4.962a16.6,16.6,0,0,1-7.48,12.95,6.913,6.913,0,0,1-3.407,1.041Zm6.59-19.026a6.458,6.458,0,0,0-3.176.982A16.037,16.037,0,0,0,98.351,239.2c0,2.188.725,3.816,2.043,4.574s3.084.58,4.976-.514a16,16,0,0,0,7.249-12.561c0-2.188-.725-3.809-2.043-4.574a3.625,3.625,0,0,0-1.806-.461Z" transform="translate(-75.556 -126.665)" fill="#62c9d5"/>
    </g>
    <g id="freepik--Locator--inject-719" transform="translate(38.73 130.919)">
      <path id="Path_10014" data-name="Path 10014" d="M58.593,162.374l-3.6-2.069h0c-1.72-1.153-4.112-1.107-6.755.422-5.272,3.031-9.5,10.722-9.5,17.181v1.47c0,6.458,8.686,13.47,8.686,13.47l3.546,2.01s-2.129-2.432-1.885-2.933c2.353-4.771,8.646-18.255,8.646-23.527v-1.47a11.421,11.421,0,0,0-.4-3.15l.4.231ZM48.227,177.182c-2.636,1.516-4.752.283-4.752-2.742,1.41-.224,4.962-6.287,4.752-8.231,2.636-1.516,4.745-.283,4.752,2.742A10.5,10.5,0,0,1,48.227,177.182Z" transform="translate(-38.73 -159.502)" fill="#62c9d5"/>
      <g id="Group_208" data-name="Group 208" opacity="0.2">
        <path id="Path_10015" data-name="Path 10015" d="M58.593,162.374l-3.6-2.069h0c-1.72-1.153-4.112-1.107-6.755.422-5.272,3.031-9.5,10.722-9.5,17.181v1.47c0,6.458,8.686,13.47,8.686,13.47l3.546,2.01s-2.129-2.432-1.885-2.933c2.353-4.771,8.646-18.255,8.646-23.527v-1.47a11.421,11.421,0,0,0-.4-3.15l.4.231ZM48.227,177.182c-2.636,1.516-4.752.283-4.752-2.742,1.41-.224,4.962-6.287,4.752-8.231,2.636-1.516,4.745-.283,4.752,2.742A10.5,10.5,0,0,1,48.227,177.182Z" transform="translate(-38.73 -159.502)"/>
      </g>
      <path id="Path_10016" data-name="Path 10016" d="M60.547,163.508a.777.777,0,0,0-.125-.072c-1.694-.949-3.954-.817-6.445.619-3.756,2.175-7.005,6.729-8.567,11.52h0a18.729,18.729,0,0,0-.949,5.648v1.489c0,4.976,5.635,10.749,8.225,13.141a1.628,1.628,0,0,0,.178.138h0a1.278,1.278,0,0,0,1.819-.534c2.241-4.613,8.758-18.374,8.758-23.725v-1.47C63.479,166.942,62.352,164.6,60.547,163.508ZM49.31,178.719a5.312,5.312,0,0,1-.079-.949,10.5,10.5,0,0,1,4.745-8.238,5.933,5.933,0,0,1,.863-.409c2.214-.8,3.888.468,3.888,3.15a10.485,10.485,0,0,1-4.752,8.225C51.65,181.856,49.712,181.038,49.31,178.719Z" transform="translate(-40.684 -160.636)" fill="#62c9d5"/>
      <path id="Path_10017" data-name="Path 10017" d="M61.237,175.417a10.485,10.485,0,0,1-4.752,8.225c-2.326,1.318-4.264.534-4.666-1.786a5.08,5.08,0,0,0,.87-.4,10.5,10.5,0,0,0,4.745-8.231,4.864,4.864,0,0,0-.086-.956C59.564,171.463,61.237,172.734,61.237,175.417Z" transform="translate(-43.193 -163.773)" fill="#62c9d5"/>
      <g id="Group_209" data-name="Group 209" transform="translate(8.627 8.255)" opacity="0.2">
        <path id="Path_10018" data-name="Path 10018" d="M61.237,175.417a10.485,10.485,0,0,1-4.752,8.225c-2.326,1.318-4.264.534-4.666-1.786a5.08,5.08,0,0,0,.87-.4,10.5,10.5,0,0,0,4.745-8.231,4.864,4.864,0,0,0-.086-.956C59.564,171.463,61.237,172.734,61.237,175.417Z" transform="translate(-51.82 -172.028)"/>
      </g>
    </g>
    <g id="freepik--Plants--inject-719" transform="translate(94.457 183.464)">
      <path id="Path_10019" data-name="Path 10019" d="M160.38,280.157s2.379-15.158-2.906-28.193-12.409-13.839-16.1-11.988-1.318,9.081,1.977,13.938c4.389,6.373,11.638,20.094,11.4,32.417Z" transform="translate(-128.819 -239.234)" fill="#62c9d5"/>
      <path id="Path_10020" data-name="Path 10020" d="M160.38,280.157s2.379-15.158-2.906-28.193-12.409-13.839-16.1-11.988-1.318,9.081,1.977,13.938c4.389,6.373,11.638,20.094,11.4,32.417Z" transform="translate(-128.819 -239.234)" opacity="0.2"/>
      <path id="Path_10021" data-name="Path 10021" d="M160.027,281.808h0a.441.441,0,0,1-.428-.468c.87-20.753-9.5-36.246-13.971-39.265a.449.449,0,1,1,.5-.745c5.272,3.519,15.237,19.362,14.36,40.049a.442.442,0,0,1-.461.428Z" transform="translate(-130.839 -239.923)" fill="#fff"/>
      <path id="Path_10022" data-name="Path 10022" d="M153.915,304.759c-.9-2.267-3.236-4.8-9.226-7.5s-10.5-6.307-11.329-8.917a3.9,3.9,0,0,1,1.061-4.158s-5.648-.659-6.36-4.119c-.89-4.363,4.046-4.646,4.046-4.646s-6.478-9.121-8.2-13.18.264-4.3,4.442-2.755,12.139,9.345,13.372,11.724c0,0,2.155-2.636,4.475-.9s2.432,6.92,1.061,8.791a4.864,4.864,0,0,1,4.9,2.023c2.359,3.091,3.137,10.821,3.137,10.821Z" transform="translate(-123.29 -245.838)" fill="#62c9d5"/>
      <path id="Path_10023" data-name="Path 10023" d="M155.668,303.411a.455.455,0,0,1-.435-.343c-3.2-13.345-18.407-34.645-27.85-41.42a.449.449,0,1,1,.521-.732c9.562,6.86,24.957,28.43,28.206,41.94a.455.455,0,0,1-.336.54Z" transform="translate(-124.621 -246.599)" fill="#fff"/>
    </g>
    <g id="freepik--screen-1--inject-719" transform="translate(125.082 75.74)">
      <path id="Path_10024" data-name="Path 10024" d="M350.22,120.51a.475.475,0,0,1-.224-.059l-1.852-1.074a.449.449,0,0,1,.448-.778l1.852,1.074a.448.448,0,0,1-.224.837Z" transform="translate(-230.508 -90.356)" fill="#fff"/>
      <path id="Path_10025" data-name="Path 10025" d="M169.76,145v98.049c0,1.094.764,1.536,1.707.989l114.367-66.028a3.8,3.8,0,0,0,1.713-2.966V77c0-1.094-.771-1.536-1.713-.989L171.467,142.036A3.783,3.783,0,0,0,169.76,145Z" transform="translate(-169.76 -75.774)" fill="#455a64"/>
      <path id="Path_10026" data-name="Path 10026" d="M190.07,176.316c0,3.42,2.55,4.712,5.707,2.893l90.662-52.346V114.5l-90.662,52.34C192.62,168.665,190.07,172.9,190.07,176.316Z" transform="translate(-176.685 -88.979)" fill="#f5f5f5"/>
      <path id="Path_10027" data-name="Path 10027" d="M344.028,107.343c3.15-1.819,5.707-.527,5.707,2.887s-2.557,7.658-5.707,9.477l-7.678,4.435V111.779Z" transform="translate(-226.563 -86.257)" fill="#62c9d5"/>
      <path id="Path_10028" data-name="Path 10028" d="M342.779,119.43a1.819,1.819,0,0,1-.936-.244,2.34,2.34,0,0,1-1.028-2.162,6.458,6.458,0,0,1,2.966-5.14,2.109,2.109,0,0,1,3.414,1.977,6.478,6.478,0,0,1-2.966,5.14A2.926,2.926,0,0,1,342.779,119.43Zm2.445-7.085a2.043,2.043,0,0,0-1,.316,5.661,5.661,0,0,0-2.517,4.363,1.239,1.239,0,0,0,2.069,1.193,5.648,5.648,0,0,0,2.518-4.363,1.5,1.5,0,0,0-.58-1.384.949.949,0,0,0-.494-.125Z" transform="translate(-228.082 -87.925)" fill="#fff"/>
      <path id="Path_10029" data-name="Path 10029" d="M303.764,148.709l-87.65,50.573a3.763,3.763,0,0,0-1.713,2.966v26.974c0,1.094.764,1.536,1.713.989l87.65-50.593a3.776,3.776,0,0,0,1.713-2.966V149.7C305.444,148.6,304.68,148.162,303.764,148.709Z" transform="translate(-184.981 -100.563)" fill="#62c9d5"/>
      <path id="Path_10030" data-name="Path 10030" d="M303.764,148.709l-87.65,50.573a3.763,3.763,0,0,0-1.713,2.966v26.974c0,1.094.764,1.536,1.713.989l87.65-50.593a3.776,3.776,0,0,0,1.713-2.966V149.7C305.444,148.6,304.68,148.162,303.764,148.709Z" transform="translate(-184.981 -100.563)" fill="#fff" opacity="0.2"/>
      <path id="Path_10031" data-name="Path 10031" d="M264.61,199.627l15.882-9.174c.791-.455,1.43-.132,1.43.725a3.058,3.058,0,0,1-1.43,2.366l-15.882,9.174c-.791.455-1.43.132-1.43-.725A3.058,3.058,0,0,1,264.61,199.627Z" transform="translate(-201.614 -114.807)" fill="#fff"/>
      <path id="Path_10032" data-name="Path 10032" d="M263.18,201.778c0,.857.659,1.18,1.43.725l48.01-27.719a3.064,3.064,0,0,0,1.423-2.372c0-.85-.659-1.173-1.423-.718l-48.01,27.719a3.058,3.058,0,0,0-1.43,2.366Z" transform="translate(-201.614 -108.41)" fill="#fff"/>
      <path id="Path_10033" data-name="Path 10033" d="M263.18,211.158c0,.857.659,1.18,1.43.725l48.01-27.719a3.064,3.064,0,0,0,1.423-2.372c0-.85-.659-1.173-1.423-.718l-48.01,27.719a3.058,3.058,0,0,0-1.43,2.366Z" transform="translate(-201.614 -111.608)" fill="#fff"/>
      <path id="Path_10034" data-name="Path 10034" d="M263.18,220.538c0,.857.659,1.18,1.43.725l48.01-27.719a3.064,3.064,0,0,0,1.423-2.372c0-.85-.659-1.173-1.423-.718l-48.01,27.719A3.058,3.058,0,0,0,263.18,220.538Z" transform="translate(-201.614 -114.807)" fill="#fff"/>
      <path id="Path_10035" data-name="Path 10035" d="M220.213,221.616l20.667-11.935c.949-.54,1.713-.1,1.713.989v20.779a3.783,3.783,0,0,1-1.713,2.966l-20.667,11.928c-.942.547-1.713.105-1.713-.982V224.581A3.776,3.776,0,0,1,220.213,221.616Z" transform="translate(-186.379 -121.354)" fill="#fff"/>
      <path id="Path_10036" data-name="Path 10036" d="M236.953,225.246,230.8,237.992l-3.13-1.806a1.318,1.318,0,0,0-1.8.481L218.5,249.432v1.114c0,1.094.771,1.536,1.713.989l20.667-11.928a3.776,3.776,0,0,0,1.713-2.966v-7.3l-4.158-4.336a.857.857,0,0,0-1.483.237Z" transform="translate(-186.379 -126.547)" fill="#62c9d5"/>
      <path id="Path_10037" data-name="Path 10037" d="M221.6,234.114a9.707,9.707,0,0,0,4.389-7.605A3.223,3.223,0,0,0,224.9,223.8l-4.686,2.709a3.776,3.776,0,0,0-1.713,2.966v4.943A3.079,3.079,0,0,0,221.6,234.114Z" transform="translate(-186.379 -126.247)" fill="#62c9d5"/>
      <path id="Path_10038" data-name="Path 10038" d="M303.764,209.684l-87.65,50.573a3.776,3.776,0,0,0-1.713,2.966v26.994c0,1.087.764,1.529,1.713.989l87.65-50.606a3.776,3.776,0,0,0,1.713-2.966V210.672C305.444,209.585,304.68,209.156,303.764,209.684Z" transform="translate(-184.981 -121.357)" fill="#62c9d5"/>
      <path id="Path_10039" data-name="Path 10039" d="M303.764,209.684l-87.65,50.573a3.776,3.776,0,0,0-1.713,2.966v26.994c0,1.087.764,1.529,1.713.989l87.65-50.606a3.776,3.776,0,0,0,1.713-2.966V210.672C305.444,209.585,304.68,209.156,303.764,209.684Z" transform="translate(-184.981 -121.357)" fill="#fff" opacity="0.2"/>
      <path id="Path_10040" data-name="Path 10040" d="M264.61,260.6l15.882-9.167c.791-.455,1.43-.132,1.43.718a3.058,3.058,0,0,1-1.43,2.372l-15.882,9.167c-.791.455-1.43.132-1.43-.718A3.058,3.058,0,0,1,264.61,260.6Z" transform="translate(-201.614 -135.599)" fill="#fff"/>
      <path id="Path_10041" data-name="Path 10041" d="M263.18,262.754c0,.85.659,1.173,1.43.718l48.01-27.719a3.064,3.064,0,0,0,1.423-2.366c0-.857-.659-1.18-1.423-.725l-48.01,27.719A3.058,3.058,0,0,0,263.18,262.754Z" transform="translate(-201.614 -129.199)" fill="#fff"/>
      <path id="Path_10042" data-name="Path 10042" d="M263.18,272.134c0,.85.659,1.173,1.43.718l48.01-27.719a3.064,3.064,0,0,0,1.423-2.366c0-.857-.659-1.18-1.423-.725l-48.01,27.718A3.058,3.058,0,0,0,263.18,272.134Z" transform="translate(-201.614 -132.398)" fill="#fff"/>
      <path id="Path_10043" data-name="Path 10043" d="M263.18,281.514c0,.85.659,1.173,1.43.718l48.01-27.719a3.065,3.065,0,0,0,1.423-2.366c0-.857-.659-1.18-1.423-.725l-48.01,27.719a3.058,3.058,0,0,0-1.43,2.372Z" transform="translate(-201.614 -135.596)" fill="#fff"/>
      <path id="Path_10044" data-name="Path 10044" d="M220.213,282.594l20.667-11.935c.949-.547,1.713-.105,1.713.989V292.42a3.763,3.763,0,0,1-1.713,2.966L220.213,307.32c-.942.547-1.713.105-1.713-.989V285.559A3.776,3.776,0,0,1,220.213,282.594Z" transform="translate(-186.379 -142.145)" fill="#fff"/>
      <path id="Path_10045" data-name="Path 10045" d="M236.953,286.222,230.8,298.968l-3.13-1.812a1.318,1.318,0,0,0-1.8.488L218.5,310.409v1.114c0,1.094.771,1.536,1.713.989l20.667-11.935a3.763,3.763,0,0,0,1.713-2.959v-7.3l-4.158-4.33a.85.85,0,0,0-1.483.237Z" transform="translate(-186.379 -147.336)" fill="#62c9d5"/>
      <path id="Path_10046" data-name="Path 10046" d="M221.6,295.087a9.694,9.694,0,0,0,4.389-7.6,3.223,3.223,0,0,0-1.094-2.709l-4.686,2.709a3.776,3.776,0,0,0-1.713,2.966V295.4A3.1,3.1,0,0,0,221.6,295.087Z" transform="translate(-186.379 -147.04)" fill="#62c9d5"/>
      <path id="Path_10047" data-name="Path 10047" d="M287.547,81.2V77c0-1.094-.771-1.536-1.713-.989l-114.36,66.028A3.776,3.776,0,0,0,169.76,145v4.2Z" transform="translate(-169.76 -75.774)" fill="#62c9d5"/>
      <path id="Path_10048" data-name="Path 10048" d="M326.545,89.271a2.814,2.814,0,0,0-1.265,2.2c0,.811.567,1.14,1.265.732a2.781,2.781,0,0,0,1.272-2.195C327.817,89.2,327.25,88.869,326.545,89.271Z" transform="translate(-222.789 -80.318)" fill="#f5f5f5"/>
      <path id="Path_10049" data-name="Path 10049" d="M334.192,84.9a2.814,2.814,0,0,0-1.272,2.2c0,.811.573,1.134,1.272.732a2.794,2.794,0,0,0,1.272-2.2C335.464,84.788,334.9,84.465,334.192,84.9Z" transform="translate(-225.394 -78.82)" fill="#f5f5f5"/>
      <path id="Path_10050" data-name="Path 10050" d="M341.842,80.449a2.781,2.781,0,0,0-1.272,2.195c0,.811.567,1.14,1.272.738a2.814,2.814,0,0,0,1.265-2.2C343.107,80.37,342.54,80.041,341.842,80.449Z" transform="translate(-228.002 -77.308)" fill="#f5f5f5"/>
    </g>
    <g id="freepik--Character--inject-719" transform="translate(198.507 192.183)">
      <path id="Path_10051" data-name="Path 10051" d="M344.323,392.733a6.735,6.735,0,0,1,.409,1.575,3.525,3.525,0,0,1,.125,1.733,3.44,3.44,0,0,1-1.977,1.529,4.349,4.349,0,0,1-3.447-.659,14.033,14.033,0,0,0-3.822-2.076,8.693,8.693,0,0,1-3.374-1.535c-.949-.758-2.214-2.867-.4-3.354s5.76,1.232,9.352,1.391Z" transform="translate(-298.135 -299.312)" fill="#263238"/>
      <path id="Path_10052" data-name="Path 10052" d="M348.927,390.62s.211,2.518.211,2.827c0,.85-3.137,1.977-3.717,0l-.5-2.676Z" transform="translate(-302.911 -299.572)" fill="#f28f8f"/>
      <path id="Path_10053" data-name="Path 10053" d="M340.785,306.81a50.8,50.8,0,0,1,2.959,4.93s.31,3.664.31,6.1c0,4.481-.692,7.941-1.318,16.772a12.468,12.468,0,0,1,1.7,5.707c.264,4,.27,3.954.3,22.407a5.121,5.121,0,0,1-3.954.382l-5.931-25.84-.659-10.142-1.858-12.607Z" transform="translate(-298.618 -270.995)" fill="#37474f"/>
      <path id="Path_10054" data-name="Path 10054" d="M316.549,400.4c.211.217.138.659.237,1.384a5.931,5.931,0,0,1,.086,1.694,3.453,3.453,0,0,1-1.753,1.76,4.389,4.389,0,0,1-3.506-.231,13.977,13.977,0,0,0-4.046-1.588,8.66,8.66,0,0,1-3.539-1.1c-1.035-.659-2.557-2.57-.817-3.3s6.1.573,9.681.283Z" transform="translate(-288.419 -302.362)" fill="#263238"/>
      <path id="Path_10055" data-name="Path 10055" d="M322.71,396.051s-.659,2.873-.837,3.513c-.4,1.536-3.8,1.615-3.8-.158l.231-4.086Z" transform="translate(-293.756 -301.175)" fill="#f28f8f"/>
      <path id="Path_10056" data-name="Path 10056" d="M328.294,308c1.707,3.354,3.354,6.313,3.407,9.885.125,7.559-3.012,15.882-4.165,21.346a24.305,24.305,0,0,1,.29,5.991c-.231,2.287-5.444,23.066-5.444,23.066s-2.9.606-4.132-.705l1.463-40.009.4-11.619Z" transform="translate(-293.817 -271.4)" fill="#37474f"/>
      <path id="Path_10057" data-name="Path 10057" d="M329.93,276.3,331,282.247l5.378-.4-1.127-6.742Z" transform="translate(-297.8 -260.186)" fill="#ffa8a7"/>
      <path id="Path_10058" data-name="Path 10058" d="M339.049,283.1c-.534-1.615-2.583-3.374-4.613-2.992a61.057,61.057,0,0,0-8.989,2.241c-1.878.659-3.592,2.3-3.75,8.482l-.587,15.553a6.754,6.754,0,0,0,2.84,1.5,15.553,15.553,0,0,0,9.075.3c5.648-1.232,6.992-4.653,6.992-4.653s-.217-8.231-.389-12.706C339.49,287.032,339.411,284.218,339.049,283.1Z" transform="translate(-294.792 -261.873)" fill="#455a64"/>
      <path id="Path_10059" data-name="Path 10059" d="M311.012,261.526,283.63,254.1c-2.478-.428-3.513,5.621-1.035,6.043l28.121,2.84Z" transform="translate(-281.175 -253.014)" fill="#263238"/>
      <path id="Path_10060" data-name="Path 10060" d="M308.33,275.342l-5.6.171s.844-8.323,1.364-9.417,1.766-1.318,3.005-1.667,1.232-.942,1.232-.942l-1.114-.112a1.456,1.456,0,0,1-.942-2.142c.2-.382.534-.989,1.127-.824l1.476.4a3.447,3.447,0,0,0-.468-1.858c-.494-.547-.824-.376-1.812-.718a5.165,5.165,0,0,0-3.434-.217c-1.206.494-2.122,2.761-2.432,4.363a26.68,26.68,0,0,1-1.516,5.411,61.49,61.49,0,0,0-2.8,11.493c-.072,1.127.033,1.8,1.285,2.1s10.465.316,10.465.316Z" transform="translate(-286.368 -254.282)" fill="#ffa8a7"/>
      <path id="Path_10061" data-name="Path 10061" d="M323.294,266.22s-1.318,1.924-1.134,2.135a3.07,3.07,0,0,0,.975.428Z" transform="translate(-295.144 -257.154)" fill="#ffa8a7"/>
      <path id="Path_10062" data-name="Path 10062" d="M327.731,256.747c-1.252.659-3.414,1.8-4.013,6.386-.613,4.705.2,6.221.83,6.847.435.422,2.768.448,3.954.092,1.463-.435,4.765-1.694,6.274-4.112,1.773-2.847,2.168-6.656.171-8.172A7.526,7.526,0,0,0,327.731,256.747Z" transform="translate(-295.607 -253.758)" fill="#ffa8a7"/>
      <path id="Path_10063" data-name="Path 10063" d="M335.51,337.005l2.854-8.066a14.13,14.13,0,0,0,5.766-3.849s-.659,2.3-5.167,4.659l-3.13,7.631v4.244Z" transform="translate(-299.702 -277.228)" fill="#263238"/>
      <path id="Path_10064" data-name="Path 10064" d="M323.287,257c.409,1.127,1.1,3.895,3.987,5.048,0,0,.415-1.76,1.891-1.575s1.733,2.076.824,3.249-1.793.751-1.793.751-.2,2.524,1.489,3.671a4.712,4.712,0,0,0,4.191.3c.969-.442,2.346-2.768,3.15-4.679,1.7-4.033,1.944-7.249-.659-8.291a3.06,3.06,0,0,0-2.807-2.867c-3.572-.732-6.274,1.615-9.272,1.2C322.753,253.588,322.812,255.71,323.287,257Z" transform="translate(-295.433 -252.464)" fill="#263238"/>
      <path id="Path_10065" data-name="Path 10065" d="M343.359,257.242l1.687-1.048a1,1,0,0,0-1.687,1.048Z" transform="translate(-302.339 -253.594)" fill="#263238"/>
      <path id="Path_10066" data-name="Path 10066" d="M311.755,284.008s7.875-.455,9.885-.468,4.145,3.42,2.893,5.76c-.83,1.536-3.42,2.063-6.683,2.221s-6.551.158-6.551.158S308.368,288.338,311.755,284.008Z" transform="translate(-291.045 -263.06)" fill="#455a64"/>
      <path id="Path_10067" data-name="Path 10067" d="M321.983,294.5s4.989-.066,6.623-2.221a3.815,3.815,0,0,1-2.32,2.129,14.426,14.426,0,0,1-4.336.936Z" transform="translate(-295.079 -266.04)" fill="#37474f"/>
      <path id="Path_10068" data-name="Path 10068" d="M283.63,254.1c-2.478-.428-3.513,5.621-1.035,6.043l3.954.4c-1.608-.165-.494-5.786.732-5.457h0Z" transform="translate(-281.175 -253.014)" fill="#455a64"/>
    </g>
    <g id="freepik--magnifiyng-glass--inject-719" transform="translate(222.993 105.03)">
      <path id="Path_10069" data-name="Path 10069" d="M429.908,248.5a6.1,6.1,0,0,1-10.577,4.152l-.4-.488h0a6.1,6.1,0,0,1,9.358-7.809l.415.5h0a6.116,6.116,0,0,1,1.206,3.644Z" transform="translate(-352.216 -161.881)" fill="#455a64"/>
      <path id="Path_10070" data-name="Path 10070" d="M417.391,234.478a6.1,6.1,0,0,1-10.577,4.152l-.4-.488h0L381,207.452l10.709-6.182,24.061,29.05.415.5h0a6.116,6.116,0,0,1,1.206,3.658Z" transform="translate(-339.699 -147.855)" fill="#455a64"/>
      <path id="Path_10071" data-name="Path 10071" d="M402.694,232.822a6.1,6.1,0,0,0,9.365-7.783h0l-3.144-3.789h0a6.1,6.1,0,0,1-9.365,7.8Z" transform="translate(-346.024 -154.667)" fill="#62c9d5"/>
      <path id="Path_10072" data-name="Path 10072" d="M369.932,125.386a14.169,14.169,0,0,1,5.45,1.773l-7.73-4.495h0c-5.187-3.565-12.653-3.354-20.95,1.43-15.665,9.048-28.371,31.053-28.371,49.15,0,8.89,3.025,15.243,8.014,18.262l.105.066,8.251,4.752a14.235,14.235,0,0,1-3.763-3.578,18.394,18.394,0,0,0,6.083-.349c.725-.158,1.456-.349,2.2-.587a1.814,1.814,0,0,1-.283-.112,7.4,7.4,0,0,1-1.134-.659,7.941,7.941,0,0,1-1.713-1.621,11.408,11.408,0,0,1-1.608-2.8,11.526,11.526,0,0,1-1.621.119,8.831,8.831,0,0,1-3.73-.745,7.124,7.124,0,0,1-.8-.428,5.5,5.5,0,0,1-.659-.488,31.384,31.384,0,0,1-.692-6.788c0-18.09,12.706-40.1,28.384-49.15a32.463,32.463,0,0,1,6.327-2.834,7.157,7.157,0,0,1,1.661.956,8.182,8.182,0,0,1,1.443,1.423,11.466,11.466,0,0,1,1.615,2.807,11.6,11.6,0,0,1,1.628-.112,8.4,8.4,0,0,1,4.271,1.035,6.833,6.833,0,0,1,.942.619c-.119-.527-.244-1.048-.4-1.542A18.664,18.664,0,0,0,369.932,125.386Z" transform="translate(-318.33 -120.218)" fill="#263238"/>
      <path id="Path_10073" data-name="Path 10073" d="M379.848,129.775l-.448-.244a14.156,14.156,0,0,0-5-1.529,18.024,18.024,0,0,0-5.621.257,23.567,23.567,0,0,0-2.636.659,32.462,32.462,0,0,0-6.327,2.834c-15.678,9.048-28.384,31.06-28.384,49.15a31.382,31.382,0,0,0,.692,6.788c.086.4.185.784.283,1.166a19.244,19.244,0,0,0,3.005,6.491,14.346,14.346,0,0,0,2.142,2.353,13.766,13.766,0,0,0,1.621,1.226c5.173,3.341,12.521,3.051,20.627-1.641,15.678-9.048,28.384-31.053,28.384-49.15C388.178,139.087,384.995,132.728,379.848,129.775Zm-3.1,5.272a6.83,6.83,0,0,1,.942.619,9.074,9.074,0,0,1,1.351,1.358c1.977,2.478,3.025,6.333,3.025,11.131,0,15.817-11.6,35.93-25.326,43.858a20.214,20.214,0,0,1-9.615,3.058,8.771,8.771,0,0,1-3.44-.659,1.813,1.813,0,0,1-.283-.112,7.4,7.4,0,0,1-1.134-.659,7.785,7.785,0,0,1-1.226-1.068h0c-.165-.171-.323-.362-.481-.554a11.407,11.407,0,0,1-1.608-2.8,22,22,0,0,1-1.41-8.33c0-.211,0-.415,0-.659.29-15.751,11.764-35.409,25.313-43.225.31-.178.626-.356.942-.521a20.951,20.951,0,0,1,7.045-2.419,11.588,11.588,0,0,1,1.628-.112,8.811,8.811,0,0,1,3.42.659,5.608,5.608,0,0,1,.857.428Z" transform="translate(-322.796 -122.834)" fill="#455a64"/>
      <path id="Path_10074" data-name="Path 10074" d="M386.54,151.326c0,15.817-11.6,35.93-25.326,43.858a27.181,27.181,0,0,1-2.57,1.318h0a17.47,17.47,0,0,1-7.025,1.727,8.772,8.772,0,0,1-3.44-.659,1.817,1.817,0,0,1-.283-.112,7.4,7.4,0,0,1-1.133-.659,7.94,7.94,0,0,1-1.714-1.621c-.171-.231-.349-.455-.507-.712.31,0,.659.046.962.046a20,20,0,0,0,9.615-3.058c13.708-7.882,25.313-27.969,25.313-43.838,0-4.356-.863-7.908-2.5-10.406a7.737,7.737,0,0,1,3.3.982,6.835,6.835,0,0,1,.942.619,9.075,9.075,0,0,1,1.351,1.358c1.74,2.181,2.761,5.424,2.972,9.437C386.52,150.186,386.54,150.753,386.54,151.326Z" transform="translate(-327.267 -126.012)" fill="#37474f"/>
      <path id="Path_10075" data-name="Path 10075" d="M382.581,149.463c0,15.817-11.6,35.93-25.326,43.858a20.192,20.192,0,0,1-9.615,3.058,8.739,8.739,0,0,1-3.434-.659h0c-.165-.171-.323-.362-.481-.554a11.406,11.406,0,0,1-1.608-2.8,22,22,0,0,1-1.41-8.33v-.659c.29-15.751,11.764-35.409,25.313-43.225.31-.178.626-.356.942-.521a20.951,20.951,0,0,1,7.045-2.419,11.592,11.592,0,0,1,1.628-.112,8.811,8.811,0,0,1,3.42.659c.178.178.343.369.5.56C381.533,140.81,382.581,144.665,382.581,149.463Z" transform="translate(-325.957 -125.974)" fill="#fff" opacity="0.6"/>
    </g>
  </g>
</svg>
