<svg xmlns="http://www.w3.org/2000/svg" xmlns:xlink="http://www.w3.org/1999/xlink" width="259.938" height="230.548" viewBox="0 0 259.938 230.548">
  <defs>
    <clipPath id="clip-path">
      <path id="Path_10092" data-name="Path 10092" d="M316.482,193.7a18.941,18.941,0,0,1-4.545,4.12,4.508,4.508,0,0,1-7.089-3.895l.063-1.182.069-1.25.144-2.62c7.921,2.313,9.771-5.076,9.771-5.076l.269,1.669Z" transform="translate(-304.843 -183.8)" fill="#fff" stroke="#263238" stroke-linecap="round" stroke-linejoin="round" stroke-width="1"/>
    </clipPath>
    <clipPath id="clip-path-2">
      <path id="Path_10098" data-name="Path 10098" d="M292.944,152.11c-1.25,1.169-4.232,7.783-1.932,18.049s13.035,11.76,18.049,2.876c3.957-7.021,5.377-14.216,2.976-18.98S300.634,145.071,292.944,152.11Z" transform="translate(-290.166 -148.375)" fill="#fff" stroke="#263238" stroke-linecap="round" stroke-linejoin="round" stroke-width="1"/>
    </clipPath>
    <clipPath id="clip-path-3">
      <path id="Path_10118" data-name="Path 10118" d="M256.4,151.877l-11.566-6.827c-4.82-15.354-9.621-27.133-9.621-27.133a8.291,8.291,0,0,0,.563-1.876,13.3,13.3,0,0,0-.9-7.627l-2.044-6.008s-.05-3.87-.907-4.095c-1.313-.338-.725,3.507-.725,3.507s.725,4.62.725,4.676a15.773,15.773,0,0,1-1.832-6.514c-.138-1.425-.256-2.557-.319-3.126a1.651,1.651,0,0,0-.469-.994c-.356-.344-.838-.456-1.032,1.107a24.927,24.927,0,0,0,.188,5.883L229.467,107l-.35-.838-1.738-4.039s.475-3.438-.256-4.126-1.444.831-1.25,3.413a41.66,41.66,0,0,0,1.507,6.877l-1.75-2.632a6.99,6.99,0,0,0-.513-3.188c-.438-.831-1.057.625-.875,3.232.513,7.265,4.608,15.079,4.676,13.473l.625,5.845a173.336,173.336,0,0,0,4.758,26.495h0s10.365,7.865,17.992,13.723C250.735,156.9,254.38,153.228,256.4,151.877Z" transform="translate(-224.208 -95.647)" fill="#fff" stroke="#263238" stroke-linecap="round" stroke-linejoin="round" stroke-width="1"/>
    </clipPath>
    <clipPath id="clip-path-4">
      <path id="Path_10123" data-name="Path 10123" d="M406.5,139.51c-.95-.325-2.044,1.976-2.044,1.976l-2.5,2.063a39.039,39.039,0,0,0,3.188-5.464c1.025-2.376.85-4.051-.062-3.639s-1.607,3.814-1.607,3.814l-3.582,4.057-.056-.038,2.388-3.707a25.358,25.358,0,0,0,2.126-5.5c.325-1.544-.169-1.594-.625-1.382a1.613,1.613,0,0,0-.769.781c-.25.531-.738,1.557-1.332,2.863a22.469,22.469,0,0,1-4.07,6.033h-.138l1.919-3.126s2.682-5.508,1.325-5.514-2.244,3.889-2.244,3.889l-4.1,5.108a13.422,13.422,0,0,0-3.363,6.877h0a8.128,8.128,0,0,0-.088,1.982s-17.8,21.9-17.992,22.469l-10,1.307c-1.807.231-3.626.406-5.439.544-.888,3.345-1.876,9.478.7,15.123,9.753-1.682,22.563-7.415,22.563-7.415l15.8-28.883s6.571-7.5,8.071-9.628S407.844,139.979,406.5,139.51Z" transform="translate(-356.479 -131.605)" fill="#fff" stroke="#263238" stroke-linecap="round" stroke-linejoin="round" stroke-width="1"/>
    </clipPath>
    <clipPath id="clip-path-5">
      <path id="Path_10140" data-name="Path 10140" d="M326.27,194.933a62.6,62.6,0,0,1-9.084.431c-4.814-.238-9.571-.35-14.316-1.05a18.941,18.941,0,0,1-4.545,4.12,4.508,4.508,0,0,1-7.089-3.895l.063-1.182a71.141,71.141,0,0,0-8.083-1.169h0a11.528,11.528,0,0,0-8.452-6.414l-1.976-.344c-1.794,1.482-5.439,5.151-3.882,13.479,2.294,1.763,4.345,3.351,5.789,4.476,1.719,2.319,2.626,34.547,2.626,34.547l-2.626,15.542c12.01,5.57,29.946,3.857,36.46,2.707h0s-2.038-22.175-.556-28.908c.588-2.663,1.807-7.84,3.07-13.129,0-.075,5.183-1.807,11.484-3.895C324.088,207,325.207,200.722,326.27,194.933Z" transform="translate(-268.526 -185.43)" fill="#fff" stroke="#263238" stroke-linecap="round" stroke-linejoin="round" stroke-width="1"/>
    </clipPath>
    <clipPath id="clip-path-6">
      <path id="Path_10177" data-name="Path 10177" d="M241.787,113.881c-.169-.475-.444-.919-.581-1.413-.213-.731-.194-1.65-.444-2.332a.625.625,0,0,0-1.144,0,5.52,5.52,0,0,0-.119,3.576,2.132,2.132,0,0,1,.156.731,1.25,1.25,0,0,1-.456.938,5.964,5.964,0,0,0-1.294,1.163c-1.382,1.657-1.694,3.814-1.013,5l2.945,1.657C241.262,122.74,242.412,115.625,241.787,113.881Z" transform="translate(-236.544 -109.763)" fill="#fff"/>
    </clipPath>
  </defs>
  <g id="Treasure-bro" transform="translate(-39.067 -69.573)">
    <g id="freepik--Shadow--inject-751" transform="translate(44.814 255.096)">
      <ellipse id="Ellipse_78" data-name="Ellipse 78" cx="124.485" cy="22.513" rx="124.485" ry="22.513" fill="#62c9d5"/>
      <ellipse id="Ellipse_79" data-name="Ellipse 79" cx="124.485" cy="22.513" rx="124.485" ry="22.513" fill="#fff" opacity="0.4"/>
    </g>
    <g id="freepik--hole-and-shovel--inject-751" transform="translate(156.182 155.73)">
      <g id="freepik--Hole--inject-751" transform="translate(0 36.803)">
        <path id="Path_10078" data-name="Path 10078" d="M330.993,287.282c.081,1.094-.106,7.933-.156,9.784-7.908,4.27-24.251,7.421-41.261,7.14-1.988-.038-4.026-.125-6.1-.263-2.957-.194-5.977-.494-8.977-.875-3.42-.438-6.833-.988-10.134-1.619-3.495-.669-6.877-1.444-10-2.276a86.182,86.182,0,0,1-10.39-3.426l-.238-.1c-5.151-2.163-8.346-4.483-8.309-6.652a2.868,2.868,0,0,1,.063-.625c-5.845-2.238-9.509-4.658-9.471-6.877.106-6.664,17.761-10.428,42.9-10s63.805,6.108,63.7,12.785a4.444,4.444,0,0,1-1.657,3.032Z" transform="translate(-226.02 -271.458)" fill="#999"/>
        <path id="Path_10079" data-name="Path 10079" d="M398.6,301.226c-.031,1.876-1.826,3.751-4.933,5.408.056-1.876.244-8.69.163-9.784h0C396.865,298.225,398.634,299.695,398.6,301.226Z" transform="translate(-288.859 -280.976)" fill="#5c5c5c"/>
        <path id="Path_10080" data-name="Path 10080" d="M244.13,303.088c.156.088-3.007-4.558-3.007-4.558S240.116,300.906,244.13,303.088Z" transform="translate(-231.639 -281.605)" opacity="0.5"/>
      </g>
      <g id="freepik--Shovel--inject-751" transform="translate(92.263)">
        <path id="Path_10081" data-name="Path 10081" d="M400.9,322.654l2.407-10.484,17.767,4.376-1.388,8.09a16.173,16.173,0,0,1-9.328,12.016c-3.126,1.413-5.958,2.719-5.527,2.707s-.869-2.626-2.319-5.239A16.16,16.16,0,0,1,400.9,322.654Z" transform="translate(-383.678 -249.915)" fill="#bfbfbf" stroke="#263238" stroke-linecap="round" stroke-linejoin="round" stroke-width="1"/>
        <path id="Path_10082" data-name="Path 10082" d="M426.979,214.948c.144.744,1.25,10.278,5.083,11.178s10.8-5.727,11.528-8.177C444.809,213.854,426.029,209.947,426.979,214.948Zm13.529,3.47c-.494,1.663-5.226,6.164-7.833,5.552s-3.363-7.1-3.457-7.6c-.644-3.4,12.141-.744,11.3,2.044Z" transform="translate(-393.594 -212.591)" fill="#fff" stroke="#263238" stroke-linecap="round" stroke-linejoin="round" stroke-width="1"/>
        <path id="Path_10083" data-name="Path 10083" d="M433.911,212.59a2.338,2.338,0,0,0,0,2.1" transform="translate(-396.112 -212.59)" fill="#fff" stroke="#263238" stroke-linecap="round" stroke-linejoin="round" stroke-width="1"/>
        <line id="Line_33" data-name="Line 33" x1="0.831" y2="2.026" transform="translate(44.469 1.382)" fill="#fff" stroke="#263238" stroke-linecap="round" stroke-linejoin="round" stroke-width="1"/>
        <path id="Path_10084" data-name="Path 10084" d="M416.72,282.636,427.36,228.59l3.67.594-11.372,54.171Z" transform="translate(-389.762 -218.587)" fill="#fff" stroke="#263238" stroke-linecap="round" stroke-linejoin="round" stroke-width="1"/>
        <path id="Path_10085" data-name="Path 10085" d="M418.049,301l3.126.713s-2.294,10.59-2.607,11.778-2.082,1.875-2.082,1.875a3.207,3.207,0,0,1-.625-2.82C416.3,310.809,418.049,301,418.049,301Z" transform="translate(-389.403 -245.728)" fill="#263238" stroke="#263238" stroke-linecap="round" stroke-linejoin="round" stroke-width="1"/>
        <path id="Path_10086" data-name="Path 10086" d="M393.293,322.529c-3.807.575-7.352,3.532-6.952,7.133a4.939,4.939,0,0,0-5.27-.238,4.426,4.426,0,0,0-2.113,4.608c-2.651-.581-5.577,1.813-5.345,4.376s3.526,4.376,6.033,3.295a18.964,18.964,0,0,0,18.324,3.163l18.38-.306a27.69,27.69,0,0,0-7.371-5.089,4.733,4.733,0,0,0-.275-5.226,5.364,5.364,0,0,0-5.158-1.876C404.008,330.318,402.252,321.178,393.293,322.529Z" transform="translate(-373.599 -253.747)" fill="#999"/>
      </g>
    </g>
    <g id="freepik--Character--inject-751" transform="translate(147.119 82.621)">
      <line id="Line_34" data-name="Line 34" x1="0.238" y1="0.138" transform="translate(28.319 49.265)" fill="none" stroke="#263238" stroke-linecap="round" stroke-linejoin="round" stroke-width="1"/>
      <path id="Path_10087" data-name="Path 10087" d="M314.85,296.927c-.513.3-11.253,6.5-23.294,4.457-10-1.688-13.166-7.164-13.166-7.164C290.406,299.79,308.336,298.077,314.85,296.927Z" transform="translate(-236.586 -170.078)" fill="#fff" stroke="#263238" stroke-linecap="round" stroke-linejoin="round" stroke-width="1"/>
      <path id="Path_10088" data-name="Path 10088" d="M316.482,199.067a18.941,18.941,0,0,1-4.545,4.12,4.508,4.508,0,0,1-7.089-3.895l.063-1.182c.3.094.481.188.488.275Z" transform="translate(-246.501 -134.053)" fill="#fff" stroke="#263238" stroke-linecap="round" stroke-linejoin="round" stroke-width="1"/>
      <path id="Path_10089" data-name="Path 10089" d="M316.482,193.7a18.941,18.941,0,0,1-4.545,4.12,4.508,4.508,0,0,1-7.089-3.895l.063-1.182.069-1.25.144-2.62c7.921,2.313,9.771-5.076,9.771-5.076l.269,1.669Z" transform="translate(-246.501 -128.689)" fill="#fff"/>
      <g id="Group_211" data-name="Group 211" transform="translate(58.342 55.111)" clip-path="url(#clip-path)">
        <path id="Path_10090" data-name="Path 10090" d="M315.288,194.02a13.9,13.9,0,0,0-2.438,2.9.913.913,0,0,1,1.25.044,2,2,0,0,1,.538,1.25,5.626,5.626,0,0,1-.719,3.582c1.025-.625,2.132-1.15,3.126-1.832a5.9,5.9,0,0,0,2.332-2.707,3.126,3.126,0,0,0-.625-3.357,2.164,2.164,0,0,0-3.17.3l.875-.932Z" transform="translate(-307.844 -187.35)" fill="#62c9d5"/>
        <g id="Group_210" data-name="Group 210" transform="translate(5.006 5.92)" opacity="0.6">
          <path id="Path_10091" data-name="Path 10091" d="M315.288,194.02a13.9,13.9,0,0,0-2.438,2.9.913.913,0,0,1,1.25.044,2,2,0,0,1,.538,1.25,5.626,5.626,0,0,1-.719,3.582c1.025-.625,2.132-1.15,3.126-1.832a5.9,5.9,0,0,0,2.332-2.707,3.126,3.126,0,0,0-.625-3.357,2.164,2.164,0,0,0-3.17.3l.875-.932Z" transform="translate(-312.85 -193.27)" fill="#fff"/>
        </g>
      </g>
      <path id="Path_10093" data-name="Path 10093" d="M316.482,193.7a18.941,18.941,0,0,1-4.545,4.12,4.508,4.508,0,0,1-7.089-3.895l.063-1.182.069-1.25.144-2.62c7.921,2.313,9.771-5.076,9.771-5.076l.269,1.669Z" transform="translate(-246.501 -128.689)" fill="none" stroke="#263238" stroke-linecap="round" stroke-linejoin="round" stroke-width="1"/>
      <path id="Path_10094" data-name="Path 10094" d="M311.741,189.44s-5.164,7.577-12.741,2.851c0,0,3.307,2.895,6.364,3.413S311.741,189.44,311.741,189.44Z" transform="translate(-244.311 -130.803)" fill="#263238" stroke="#263238" stroke-linecap="round" stroke-linejoin="round" stroke-width="1"/>
      <path id="Path_10095" data-name="Path 10095" d="M292.944,152.11c-1.25,1.169-4.232,7.783-1.932,18.049s13.035,11.76,18.049,2.876c3.957-7.021,5.377-14.216,2.976-18.98S300.634,145.071,292.944,152.11Z" transform="translate(-241 -115.411)" fill="#fff"/>
      <g id="Group_212" data-name="Group 212" transform="translate(49.166 32.964)" clip-path="url(#clip-path-2)">
        <path id="Path_10096" data-name="Path 10096" d="M294.71,150.576a7.052,7.052,0,0,0-3.82,5.176,3.944,3.944,0,0,1,6.158-.825,4.345,4.345,0,0,1,5.27-.456,7.1,7.1,0,0,1,3,4.689,21.256,21.256,0,0,1,.156,5.7q-.244,3.695-.475,7.383c-.169,2.669-.5,5.658-2.569,7.352a17.267,17.267,0,0,0,3.751-29.852,4.551,4.551,0,0,0-4.708-.288C299.611,150.457,296.635,149.645,294.71,150.576Z" transform="translate(-290.437 -148.585)" fill="#62c9d5"/>
        <path id="Path_10097" data-name="Path 10097" d="M294.71,150.576a7.052,7.052,0,0,0-3.82,5.176,3.944,3.944,0,0,1,6.158-.825,4.345,4.345,0,0,1,5.27-.456,7.1,7.1,0,0,1,3,4.689,21.256,21.256,0,0,1,.156,5.7q-.244,3.695-.475,7.383c-.169,2.669-.5,5.658-2.569,7.352a17.267,17.267,0,0,0,3.751-29.852,4.551,4.551,0,0,0-4.708-.288C299.611,150.457,296.635,149.645,294.71,150.576Z" transform="translate(-290.437 -148.585)" fill="#fff" opacity="0.6"/>
      </g>
      <path id="Path_10099" data-name="Path 10099" d="M292.944,152.11c-1.25,1.169-4.232,7.783-1.932,18.049s13.035,11.76,18.049,2.876c3.957-7.021,5.377-14.216,2.976-18.98S300.634,145.071,292.944,152.11Z" transform="translate(-241 -115.411)" fill="none" stroke="#263238" stroke-linecap="round" stroke-linejoin="round" stroke-width="1"/>
      <line id="Line_35" data-name="Line 35" x1="0.281" y2="0.056" transform="translate(107.016 63.876)" fill="none" stroke="#263238" stroke-linecap="round" stroke-linejoin="round" stroke-width="1"/>
      <path id="Path_10100" data-name="Path 10100" d="M293.08,367.777c.744-1.325,2.344-3.495,3.22-3.557s4.939,2.963,4.939,2.963-1.544,4.282,1.582,3.22c2.144-.731,9.459,4.489,12.178,7.54,2.094,2.351,2.126,5.5-3.126,5.458S293.08,367.777,293.08,367.777Z" transform="translate(-242.092 -196.315)" fill="#fff" stroke="#263238" stroke-linecap="round" stroke-linejoin="round" stroke-width="1"/>
      <path id="Path_10101" data-name="Path 10101" d="M290.467,381.775c0-.062,8.652,3.907,13.929,4.207s8.027.181,8.2-2.469-5.47-6.833-13.929-9.578l.625,1.088c-1.119-2.288-3.663-5-6.908-4.651s-4.47,3.832-4.47,3.832Z" transform="translate(-240.154 -198.61)" fill="#263238" stroke="#263238" stroke-linecap="round" stroke-linejoin="round" stroke-width="1"/>
      <path id="Path_10102" data-name="Path 10102" d="M340.75,370.743c.744-1.332,2.344-3.5,3.22-3.564s4.945,2.97,4.945,2.97-1.544,4.282,1.582,3.213c2.138-.731,10,5.058,12.71,8.127,2.094,2.351,2.119,5.5-3.126,5.464S340.75,370.743,340.75,370.743Z" transform="translate(-259.96 -197.424)" fill="#fff" stroke="#263238" stroke-linecap="round" stroke-linejoin="round" stroke-width="1"/>
      <path id="Path_10103" data-name="Path 10103" d="M337.651,383.184c.038-.063,9.378,1.876,13,6.358,3.326,4.1,9.621-.194,10-2.82s-5.989-7.177-14.179-10.628l.538,1.138c-.919-2.376-3.22-5.283-6.483-5.233s-4.783,3.432-4.783,3.432Z" transform="translate(-258.086 -199.231)" fill="#263238" stroke="#263238" stroke-linecap="round" stroke-linejoin="round" stroke-width="1"/>
      <path id="Path_10104" data-name="Path 10104" d="M355.71,390s.625,4.883,2.426,6.252" transform="translate(-265.567 -205.978)" fill="none" stroke="#999" stroke-linecap="round" stroke-linejoin="round" stroke-width="1"/>
      <path id="Path_10105" data-name="Path 10105" d="M250.319,302s-32.715,30.008-36.71,43.368-1.025,14.9-1.025,14.9,4.533,2.226,19.849,1.107a166.224,166.224,0,0,0,28.083-4.6s6.489-6.208.575-10.3l-27.07.394s23.207-24.526,28.483-25.782S261.947,305.313,250.319,302Z" transform="translate(-211.522 -172.994)" fill="#263238" stroke="#263238" stroke-linecap="round" stroke-linejoin="round" stroke-width="1"/>
      <path id="Path_10106" data-name="Path 10106" d="M302.005,323.745c-2.826-9.509-14.973-12.372-22.037-5.408-10,9.846-25.7,26.389-28.389,35.4-3.995,13.379-1.025,14.9-1.025,14.9s4.533,2.232,19.849,1.113,33.609-7.052,33.609-7.052,6.489-6.208.575-10.3l-32.6,2.851s18.386-16.5,28.458-25.782C301.974,328.09,302.874,326.684,302.005,323.745Z" transform="translate(-225.754 -177.672)" fill="#263238" stroke="#263238" stroke-linecap="round" stroke-linejoin="round" stroke-width="1"/>
      <path id="Path_10107" data-name="Path 10107" d="M307.27,321.764a1.875,1.875,0,0,0,.556-.625c1.15-2.063.081-6.777.081-6.777-3.895-3.976-15.773-1.069-22.619,1.063-2.863.888-4.851,1.644-5,1.7h0l-13.2-14.173,7.077-8.7c12.016,5.57,29.946,3.857,36.46,2.707h0C318.611,313.674,308.808,320.782,307.27,321.764Z" transform="translate(-232.35 -170.089)" fill="#263238" stroke="#263238" stroke-linecap="round" stroke-linejoin="round" stroke-width="1"/>
      <path id="Path_10108" data-name="Path 10108" d="M293.717,173.062c0,.575-.294,1.038-.656,1.038s-.625-.456-.663-1.032.294-1.038.656-1.038S293.711,172.493,293.717,173.062Z" transform="translate(-241.835 -124.278)" fill="#263238"/>
      <path id="Path_10109" data-name="Path 10109" d="M305.118,173.612c0,.575-.288,1.038-.625,1.044s-.663-.463-.663-1.038.294-1.038.625-1.038S305.118,173.043,305.118,173.612Z" transform="translate(-246.122 -124.484)" fill="#263238"/>
      <path id="Path_10110" data-name="Path 10110" d="M298.635,177.454c-1.35,1.125-3.551-.169-3.476-1.325s1.25-1.163,1.976-1.707-.331-2.882-.331-2.882" transform="translate(-242.871 -124.094)" fill="none" stroke="#263238" stroke-linecap="round" stroke-linejoin="round" stroke-width="1"/>
      <path id="Path_10111" data-name="Path 10111" d="M301.289,188.5c-1.926,0-4.289-4.039-4.289-4.039a8.753,8.753,0,0,0,7.2-.669S304.8,188.5,301.289,188.5Z" transform="translate(-243.561 -128.686)" fill="#263238" stroke="#263238" stroke-linecap="round" stroke-linejoin="round" stroke-width="1"/>
      <path id="Path_10112" data-name="Path 10112" d="M302.3,164.969c3.995-.475,5.045,2.5,5.045,2.5" transform="translate(-245.548 -121.612)" fill="none" stroke="#263238" stroke-linecap="round" stroke-linejoin="round" stroke-width="1"/>
      <path id="Path_10113" data-name="Path 10113" d="M290.67,166.339a2.437,2.437,0,0,1,3.482-1" transform="translate(-241.189 -121.637)" fill="none" stroke="#263238" stroke-linecap="round" stroke-linejoin="round" stroke-width="1"/>
      <path id="Path_10114" data-name="Path 10114" d="M304.279,195.744c-.138-.481-.281-.957-.419-1.432a9.614,9.614,0,0,0,2.382-.313,1.588,1.588,0,0,0,2.069,1.3A10.392,10.392,0,0,1,304.279,195.744Z" transform="translate(-246.133 -132.513)" fill="#263238" stroke="#263238" stroke-linecap="round" stroke-linejoin="round" stroke-width="1"/>
      <path id="Path_10115" data-name="Path 10115" d="M256.4,151.877l-11.566-6.827c-4.82-15.354-9.621-27.133-9.621-27.133a8.291,8.291,0,0,0,.563-1.876,13.3,13.3,0,0,0-.9-7.627l-2.044-6.008s-.05-3.87-.907-4.095c-1.313-.338-.725,3.507-.725,3.507s.725,4.62.725,4.676a15.773,15.773,0,0,1-1.832-6.514c-.138-1.425-.256-2.557-.319-3.126a1.651,1.651,0,0,0-.469-.994c-.356-.344-.838-.456-1.032,1.107a24.927,24.927,0,0,0,.188,5.883L229.467,107l-.35-.838-1.738-4.039s.475-3.438-.256-4.126-1.444.831-1.25,3.413a41.66,41.66,0,0,0,1.507,6.877l-1.75-2.632a6.99,6.99,0,0,0-.513-3.188c-.438-.831-1.057.625-.875,3.232.513,7.265,4.608,15.079,4.676,13.473l.625,5.845a173.336,173.336,0,0,0,4.758,26.495h0s10.365,7.865,17.992,13.723C250.735,156.9,254.38,153.228,256.4,151.877Z" transform="translate(-216.277 -95.647)" fill="#fff"/>
      <g id="Group_213" data-name="Group 213" transform="translate(7.931)" clip-path="url(#clip-path-3)">
        <path id="Path_10116" data-name="Path 10116" d="M233.8,111.517c-.325,1.569-.656,3.126-.982,4.708a3.7,3.7,0,0,1,2.638-2.426c-1.25,4.182-.556,8.721.756,12.885s3.226,8.127,4.439,12.328a13.554,13.554,0,0,1,.669,5.458A5.952,5.952,0,0,1,238.5,149c1.782-1.8,4.839-.869,7.008.438A30.477,30.477,0,0,1,254.666,158l3.9-5c-5.752-4.114-9.671-10.378-12.21-16.98s-3.82-13.6-5.239-20.524c-1.175-5.708-2.751-11.878-7.415-15.373,1.288.963.344,5.058-.094,6.252a9.728,9.728,0,0,1-3.87,4.733A7.639,7.639,0,0,1,233.8,111.517Z" transform="translate(-226.282 -97.324)" fill="#62c9d5"/>
        <path id="Path_10117" data-name="Path 10117" d="M233.8,111.517c-.325,1.569-.656,3.126-.982,4.708a3.7,3.7,0,0,1,2.638-2.426c-1.25,4.182-.556,8.721.756,12.885s3.226,8.127,4.439,12.328a13.554,13.554,0,0,1,.669,5.458A5.952,5.952,0,0,1,238.5,149c1.782-1.8,4.839-.869,7.008.438A30.477,30.477,0,0,1,254.666,158l3.9-5c-5.752-4.114-9.671-10.378-12.21-16.98s-3.82-13.6-5.239-20.524c-1.175-5.708-2.751-11.878-7.415-15.373,1.288.963.344,5.058-.094,6.252a9.728,9.728,0,0,1-3.87,4.733A7.639,7.639,0,0,1,233.8,111.517Z" transform="translate(-226.282 -97.324)" fill="#fff" opacity="0.6"/>
      </g>
      <path id="Path_10119" data-name="Path 10119" d="M256.4,151.877l-11.566-6.827c-4.82-15.354-9.621-27.133-9.621-27.133a8.291,8.291,0,0,0,.563-1.876,13.3,13.3,0,0,0-.9-7.627l-2.044-6.008s-.05-3.87-.907-4.095c-1.313-.338-.725,3.507-.725,3.507s.725,4.62.725,4.676a15.773,15.773,0,0,1-1.832-6.514c-.138-1.425-.256-2.557-.319-3.126a1.651,1.651,0,0,0-.469-.994c-.356-.344-.838-.456-1.032,1.107a24.927,24.927,0,0,0,.188,5.883L229.467,107l-.35-.838-1.738-4.039s.475-3.438-.256-4.126-1.444.831-1.25,3.413a41.66,41.66,0,0,0,1.507,6.877l-1.75-2.632a6.99,6.99,0,0,0-.513-3.188c-.438-.831-1.057.625-.875,3.232.513,7.265,4.608,15.079,4.676,13.473l.625,5.845a173.336,173.336,0,0,0,4.758,26.495h0s10.365,7.865,17.992,13.723C250.735,156.9,254.38,153.228,256.4,151.877Z" transform="translate(-216.277 -95.647)" fill="none" stroke="#263238" stroke-linecap="round" stroke-linejoin="round" stroke-width="1"/>
      <path id="Path_10120" data-name="Path 10120" d="M406.5,139.51c-.95-.325-2.044,1.976-2.044,1.976l-2.5,2.063a39.039,39.039,0,0,0,3.188-5.464c1.025-2.376.85-4.051-.062-3.639s-1.607,3.814-1.607,3.814l-3.582,4.057-.056-.038,2.388-3.707a25.358,25.358,0,0,0,2.126-5.5c.325-1.544-.169-1.594-.625-1.382a1.613,1.613,0,0,0-.769.781c-.25.531-.738,1.557-1.332,2.863a22.469,22.469,0,0,1-4.07,6.033h-.138l1.919-3.126s2.682-5.508,1.325-5.514-2.244,3.889-2.244,3.889l-4.1,5.108a13.422,13.422,0,0,0-3.363,6.877h0a8.128,8.128,0,0,0-.088,1.982s-17.8,21.9-17.992,22.469l-10,1.307c-1.807.231-3.626.406-5.439.544-.888,3.345-1.876,9.478.7,15.123,9.753-1.682,22.563-7.415,22.563-7.415l15.8-28.883s6.571-7.5,8.071-9.628S407.844,139.979,406.5,139.51Z" transform="translate(-265.856 -109.125)" fill="#fff"/>
      <g id="Group_214" data-name="Group 214" transform="translate(90.623 22.479)" clip-path="url(#clip-path-4)">
        <path id="Path_10121" data-name="Path 10121" d="M393.549,165.032l-11.659,17.792c-1.463,2.226-3.438,4.72-6.1,4.539a5.579,5.579,0,0,1-.944,5.452,11.134,11.134,0,0,1-4.708,3.276A22.731,22.731,0,0,1,356.92,197.3c-.813.95-.106,2.544,1.025,3.07a6.17,6.17,0,0,0,3.689.094c6.789-1.25,14.01-2.676,18.949-7.5,2.563-2.5,4.289-5.7,5.97-8.846l6.033-11.253c1.588-2.976,5-7.215,5.345-10.515C397.431,162.6,393.549,164.544,393.549,165.032Z" transform="translate(-356.513 -143.129)" fill="#62c9d5"/>
        <path id="Path_10122" data-name="Path 10122" d="M393.549,165.043l-11.659,17.792c-1.463,2.226-3.438,4.72-6.1,4.539a5.579,5.579,0,0,1-.944,5.452,11.134,11.134,0,0,1-4.708,3.276,22.731,22.731,0,0,1-13.222,1.213c-.813.95-.106,2.544,1.025,3.07a6.17,6.17,0,0,0,3.689.094c6.789-1.25,14.166-1.513,19.105-6.327,2.563-2.5,4.132-6.877,5.814-10l6.033-11.253c1.588-2.976,5-7.215,5.345-10.515C397.431,162.611,393.549,164.556,393.549,165.043Z" transform="translate(-356.513 -143.14)" fill="#fff" opacity="0.6"/>
      </g>
      <path id="Path_10124" data-name="Path 10124" d="M406.5,139.51c-.95-.325-2.044,1.976-2.044,1.976l-2.5,2.063a39.039,39.039,0,0,0,3.188-5.464c1.025-2.376.85-4.051-.062-3.639s-1.607,3.814-1.607,3.814l-3.582,4.057-.056-.038,2.388-3.707a25.358,25.358,0,0,0,2.126-5.5c.325-1.544-.169-1.594-.625-1.382a1.613,1.613,0,0,0-.769.781c-.25.531-.738,1.557-1.332,2.863a22.469,22.469,0,0,1-4.07,6.033h-.138l1.919-3.126s2.682-5.508,1.325-5.514-2.244,3.889-2.244,3.889l-4.1,5.108a13.422,13.422,0,0,0-3.363,6.877h0a8.128,8.128,0,0,0-.088,1.982s-17.8,21.9-17.992,22.469l-10,1.307c-1.807.231-3.626.406-5.439.544-.888,3.345-1.876,9.478.7,15.123,9.753-1.682,22.563-7.415,22.563-7.415l15.8-28.883s6.571-7.5,8.071-9.628S407.844,139.979,406.5,139.51Z" transform="translate(-265.856 -109.125)" fill="none" stroke="#263238" stroke-linecap="round" stroke-linejoin="round" stroke-width="1"/>
      <path id="Path_10125" data-name="Path 10125" d="M326.27,194.933a62.6,62.6,0,0,1-9.084.431c-4.814-.238-9.571-.35-14.316-1.05a18.941,18.941,0,0,1-4.545,4.12,4.508,4.508,0,0,1-7.089-3.895l.063-1.182a71.141,71.141,0,0,0-8.083-1.169h0a11.528,11.528,0,0,0-8.452-6.414l-1.976-.344c-1.794,1.482-5.439,5.151-3.882,13.479,2.294,1.763,4.345,3.351,5.789,4.476,1.719,2.319,2.626,34.547,2.626,34.547l-2.626,15.542c12.01,5.57,29.946,3.857,36.46,2.707h0s-2.038-22.175-.556-28.908c.588-2.663,1.807-7.84,3.07-13.129,0-.075,5.183-1.807,11.484-3.895C324.088,207,325.207,200.722,326.27,194.933Z" transform="translate(-232.889 -129.3)" fill="#fff"/>
      <g id="Group_217" data-name="Group 217" transform="translate(35.637 56.13)" clip-path="url(#clip-path-5)">
        <path id="Path_10126" data-name="Path 10126" d="M340.6,203.138a28.045,28.045,0,0,1,6.877-.263,4.72,4.72,0,0,0,2.382-.313,1.619,1.619,0,0,0,.856-2.013l-13.091.106a4.682,4.682,0,0,0-2.2.375,3.126,3.126,0,0,0-1.463,2.544c-.175,2.132.263,2.838,1.932,1.713A12.422,12.422,0,0,1,340.6,203.138Z" transform="translate(-293.038 -191.097)" fill="#62c9d5"/>
        <path id="Path_10127" data-name="Path 10127" d="M340.6,203.138a28.045,28.045,0,0,1,6.877-.263,4.72,4.72,0,0,0,2.382-.313,1.619,1.619,0,0,0,.856-2.013l-13.091.106a4.682,4.682,0,0,0-2.2.375,3.126,3.126,0,0,0-1.463,2.544c-.175,2.132.263,2.838,1.932,1.713A12.422,12.422,0,0,1,340.6,203.138Z" transform="translate(-293.038 -191.097)" fill="#fff" opacity="0.6"/>
        <path id="Path_10128" data-name="Path 10128" d="M346.4,223.594a2.131,2.131,0,0,1-1.919.306,1.375,1.375,0,0,1-.625-1.25,3.97,3.97,0,0,1,.388-1.4A8.952,8.952,0,0,0,340,227.808a86.724,86.724,0,0,0,9.728-3.126,3.844,3.844,0,0,0,1.669-1.013c.813-.969.569-2.4-.669-2.388S347.433,223.025,346.4,223.594Z" transform="translate(-295.316 -198.856)" fill="#62c9d5"/>
        <path id="Path_10129" data-name="Path 10129" d="M346.4,223.594a2.131,2.131,0,0,1-1.919.306,1.375,1.375,0,0,1-.625-1.25,3.97,3.97,0,0,1,.388-1.4A8.952,8.952,0,0,0,340,227.808a86.724,86.724,0,0,0,9.728-3.126,3.844,3.844,0,0,0,1.669-1.013c.813-.969.569-2.4-.669-2.388S347.433,223.025,346.4,223.594Z" transform="translate(-295.316 -198.856)" fill="#fff" opacity="0.6"/>
        <path id="Path_10130" data-name="Path 10130" d="M301.506,243.14a12.416,12.416,0,0,0,8.384,3.288v3.889a31.427,31.427,0,0,1-4.914-2.632,10.415,10.415,0,0,1-3.632-4.145C301.144,243.728,301.506,243.14,301.506,243.14Z" transform="translate(-280.804 -207.061)" fill="#62c9d5"/>
        <g id="Group_215" data-name="Group 215" transform="translate(20.479 36.079)" opacity="0.6">
          <path id="Path_10131" data-name="Path 10131" d="M301.506,243.14a12.416,12.416,0,0,0,8.384,3.288v3.889a31.427,31.427,0,0,1-4.914-2.632,10.415,10.415,0,0,1-3.632-4.145C301.144,243.728,301.506,243.14,301.506,243.14Z" transform="translate(-301.284 -243.14)" fill="#fff"/>
        </g>
        <path id="Path_10132" data-name="Path 10132" d="M292.716,212.419c-.888,4.132-.719,8.634,1.338,12.322a4.42,4.42,0,0,0-3.37-1.876,11.58,11.58,0,0,1,1.307,5.433q.356,5.114.725,10.228a11.166,11.166,0,0,1-3.751-6.183,27.408,27.408,0,0,1-.563-7.327,55.337,55.337,0,0,1,2.751-17.08c.888-2.5,2.038-5.6,3.839-7.615.538-.625,1.738-1.65,2.319-.531.35.681-.625,2.182-.919,2.757A46.653,46.653,0,0,0,292.716,212.419Z" transform="translate(-275.959 -190.626)" fill="#62c9d5"/>
        <g id="Group_216" data-name="Group 216" transform="translate(12.398 8.666)" opacity="0.6">
          <path id="Path_10133" data-name="Path 10133" d="M292.716,212.419c-.888,4.132-.719,8.634,1.338,12.322a4.42,4.42,0,0,0-3.37-1.876,11.58,11.58,0,0,1,1.307,5.433q.356,5.114.725,10.228a11.166,11.166,0,0,1-3.751-6.183,27.408,27.408,0,0,1-.563-7.327,55.337,55.337,0,0,1,2.751-17.08c.888-2.5,2.038-5.6,3.839-7.615.538-.625,1.738-1.65,2.319-.531.35.681-.625,2.182-.919,2.757A46.653,46.653,0,0,0,292.716,212.419Z" transform="translate(-288.357 -199.292)" fill="#fff"/>
        </g>
        <path id="Path_10134" data-name="Path 10134" d="M269.73,190.059a8.2,8.2,0,0,1,10.259,6.145q1.557-1.96,3.126-3.926a1.825,1.825,0,0,0,.463-.838,1.788,1.788,0,0,0-.538-1.338,12.5,12.5,0,0,0-7.327-4.326C272.506,185.177,270.943,187.208,269.73,190.059Z" transform="translate(-268.977 -185.52)" fill="#62c9d5"/>
        <path id="Path_10135" data-name="Path 10135" d="M269.73,190.059a8.2,8.2,0,0,1,10.259,6.145q1.557-1.96,3.126-3.926a1.825,1.825,0,0,0,.463-.838,1.788,1.788,0,0,0-.538-1.338,12.5,12.5,0,0,0-7.327-4.326C272.506,185.177,270.943,187.208,269.73,190.059Z" transform="translate(-268.977 -185.52)" fill="#fff" opacity="0.6"/>
        <path id="Path_10136" data-name="Path 10136" d="M337.484,221.532a2.721,2.721,0,0,1-2.838-1.744c-.119-.475-.231-1.15-.719-1.138s-.569.506-.625.9a16.68,16.68,0,0,0,2.544,10.809c.125.194.294.413.531.413.35,0,.488-.444.538-.788.531-3.645,2.326-6.289,3.695-9.546C339.578,220.744,338.659,221.457,337.484,221.532Z" transform="translate(-292.769 -197.882)" fill="#62c9d5"/>
        <path id="Path_10137" data-name="Path 10137" d="M337.484,221.532a2.721,2.721,0,0,1-2.838-1.744c-.119-.475-.231-1.15-.719-1.138s-.569.506-.625.9a16.68,16.68,0,0,0,2.544,10.809c.125.194.294.413.531.413.35,0,.488-.444.538-.788.531-3.645,2.326-6.289,3.695-9.546C339.578,220.744,338.659,221.457,337.484,221.532Z" transform="translate(-292.769 -197.882)" fill="#fff" opacity="0.6"/>
        <path id="Path_10138" data-name="Path 10138" d="M319.517,200.73s-6.2,3.845-5.051,3.864,3.613.781,3.626,2.5S319.517,200.73,319.517,200.73Z" transform="translate(-285.693 -191.165)" fill="#62c9d5"/>
        <path id="Path_10139" data-name="Path 10139" d="M319.517,200.73s-6.2,3.845-5.051,3.864,3.613.781,3.626,2.5S319.517,200.73,319.517,200.73Z" transform="translate(-285.693 -191.165)" fill="#fff" opacity="0.4"/>
      </g>
      <path id="Path_10141" data-name="Path 10141" d="M326.27,194.933a62.6,62.6,0,0,1-9.084.431c-4.814-.238-9.571-.35-14.316-1.05a18.941,18.941,0,0,1-4.545,4.12,4.508,4.508,0,0,1-7.089-3.895l.063-1.182a71.141,71.141,0,0,0-8.083-1.169h0a11.528,11.528,0,0,0-8.452-6.414l-1.976-.344c-1.794,1.482-5.439,5.151-3.882,13.479,2.294,1.763,4.345,3.351,5.789,4.476,1.719,2.319,2.626,34.547,2.626,34.547l-2.626,15.542c12.01,5.57,29.946,3.857,36.46,2.707h0s-2.038-22.175-.556-28.908c.588-2.663,1.807-7.84,3.07-13.129,0-.075,5.183-1.807,11.484-3.895C324.088,207,325.207,200.722,326.27,194.933Z" transform="translate(-232.889 -129.3)" fill="none" stroke="#263238" stroke-linecap="round" stroke-linejoin="round" stroke-width="1"/>
      <path id="Path_10142" data-name="Path 10142" d="M414.451,146.067a2.044,2.044,0,0,1,.381-.625,5.526,5.526,0,0,0,1.069-3.413.625.625,0,0,0-1.082-.369c-.463.563-.75,1.432-1.188,2.057-.294.419-.7.744-1.019,1.144-.913,1.132-1.826,7.152-1.25,9.446l2.882-.3c1.663-.769,2.263-4.295.3-6.877a1.213,1.213,0,0,1-.094-1.063Z" transform="translate(-286.36 -112.819)" fill="#fff"/>
      <path id="Path_10143" data-name="Path 10143" d="M411.389,154.3c-.625-2.294.313-8.315,1.25-9.446.319-.4.725-.725,1.019-1.144.438-.625.725-1.494,1.188-2.057a.625.625,0,0,1,1.082.369,5.526,5.526,0,0,1-1.107,3.4,2.044,2.044,0,0,0-.381.625,1.213,1.213,0,0,0,.119,1.032c1.963,2.594,1.363,6.12-.3,6.877" transform="translate(-286.361 -112.815)" fill="none" stroke="#263238" stroke-linecap="round" stroke-linejoin="round" stroke-width="1"/>
      <path id="Path_10144" data-name="Path 10144" d="M419.9,147.242s2.238-.957,6.033,2.682" transform="translate(-289.628 -114.944)" fill="none" stroke="#263238" stroke-linecap="round" stroke-linejoin="round" stroke-width="1"/>
      <path id="Path_10145" data-name="Path 10145" d="M422.745,157.86a7.3,7.3,0,0,0-2.845,1.488" transform="translate(-289.628 -118.966)" fill="#fff" stroke="#263238" stroke-linecap="round" stroke-linejoin="round" stroke-width="1"/>
      <path id="Path_10146" data-name="Path 10146" d="M427.372,154.36a2.27,2.27,0,0,1-.932,1.494" transform="translate(-292.079 -117.654)" fill="#fff" stroke="#263238" stroke-linecap="round" stroke-linejoin="round" stroke-width="1"/>
      <path id="Path_10147" data-name="Path 10147" d="M306.743,285.684H294.39V261.34l12.353,1.713Z" transform="translate(-242.583 -157.753)" fill="#62c9d5" stroke="#263238" stroke-linecap="round" stroke-linejoin="round" stroke-width="1"/>
      <path id="Path_10148" data-name="Path 10148" d="M275.892,211.851c-1.657,5.777-1.876,8.359-3.676,17.724-.563,2.945-1.375,5.839-1.7,8.827-.231,2.1-.25,4.22-.275,6.333l.569,6.32c-.569,5.089,2.77,6.458,5.2,7.014,6.683,1.525,8.434,1.876,11.878,2.876.119-6.689-.413-9.909-.675-17.742-.075-2.213-.206-5.764-1.775-7.415-.406-.431-2.251-2.876-2.569-3.407a2.5,2.5,0,0,1-.3-1.3c.219-13.635,1.832-26.732,7.833-34.191.4-.494-5.952-1.782-6.639-1.513-1.332.525-1.644,1.525-2.307,2.832a78.231,78.231,0,0,0-5.564,13.641Z" transform="translate(-233.531 -133.015)" fill="#62c9d5" stroke="#263238" stroke-linecap="round" stroke-linejoin="round" stroke-width="1"/>
      <path id="Path_10149" data-name="Path 10149" d="M325.439,223.6c3.926,4.589,3.126,16.255,2.97,19.293a52.358,52.358,0,0,1-.838,6.377l-1.644,9.49c-.538,3.126-3.714,4.526-7.2,4.576-5,.075-11.053.975-15.9-1q1.782-10.184,3.545-20.212c.381-2.2,1.069-4.751,3.338-5.539.656-.231.163.219.656-.231.344-.319,1.25-23.488,5.589-37.961.188-.625,3.751-.588,4.495-.175a3.6,3.6,0,0,1,2.219,3.188C323.676,212.835,322.344,219.93,325.439,223.6Z" transform="translate(-245.743 -133.98)" fill="#62c9d5" stroke="#263238" stroke-linecap="round" stroke-linejoin="round" stroke-width="1"/>
      <path id="Path_10150" data-name="Path 10150" d="M311.179,271.05c.244.875-1.719,15.979-1.719,15.979s7.821,2.044,13.5,1.144a4.151,4.151,0,0,0,3.539-4.082V271.538Z" transform="translate(-248.232 -161.393)" fill="#62c9d5" stroke="#263238" stroke-linecap="round" stroke-linejoin="round" stroke-width="1"/>
      <path id="Path_10151" data-name="Path 10151" d="M312.21,271.05s3.532,4.226,6.877,4.339,8.415-3.851,8.415-3.851" transform="translate(-249.263 -161.393)" fill="none" stroke="#263238" stroke-linecap="round" stroke-linejoin="round" stroke-width="1"/>
      <path id="Path_10152" data-name="Path 10152" d="M319.664,277.39s-2.288,8.659-1.038,12.979" transform="translate(-251.527 -163.769)" fill="none" stroke="#263238" stroke-linecap="round" stroke-linejoin="round" stroke-width="1"/>
      <path id="Path_10153" data-name="Path 10153" d="M326.18,277.57s1.963,6.877.919,12.954" transform="translate(-254.499 -163.837)" fill="none" stroke="#263238" stroke-linecap="round" stroke-linejoin="round" stroke-width="1"/>
      <path id="Path_10154" data-name="Path 10154" d="M270.2,266.92a33.277,33.277,0,0,1-1.344,9,6.181,6.181,0,0,0,4.9,8.127c3.207.406,6.971.431,9.378-.994l1.713-15.035Z" transform="translate(-232.904 -159.845)" fill="#62c9d5" stroke="#263238" stroke-linecap="round" stroke-linejoin="round" stroke-width="1"/>
      <path id="Path_10155" data-name="Path 10155" d="M271.18,266.92s3.126,4.407,6.339,4.651,8.334-3.551,8.334-3.551" transform="translate(-233.883 -159.845)" fill="none" stroke="#263238" stroke-linecap="round" stroke-linejoin="round" stroke-width="1"/>
      <path id="Path_10156" data-name="Path 10156" d="M277.541,273.65s-2.726,8.54-1.813,12.841" transform="translate(-235.518 -162.367)" fill="none" stroke="#263238" stroke-linecap="round" stroke-linejoin="round" stroke-width="1"/>
      <path id="Path_10157" data-name="Path 10157" d="M284.15,274.06s1.394,6.946,0,12.879" transform="translate(-238.745 -162.521)" fill="none" stroke="#263238" stroke-linecap="round" stroke-linejoin="round" stroke-width="1"/>
      <path id="Path_10158" data-name="Path 10158" d="M298.211,150.154c6.5.55,7.84,9.3,7.815,11.572-.113,10.128-3.72,10.916-2.926,13.3.381,1.15,3.864,3.163,5.07,3.032.363,1.375.838,3.67,1.938,4.8,4.026,4.107,6.658-4.1,9.378-3.295,0,0-4.339-13.5-4.182-17.861s-.275-9-2.895-12.5a11.716,11.716,0,0,0-8.646-4.576c-3.207-.156-6.308,1.007-9.309,2.157a14.066,14.066,0,0,0-4.376,2.3,12.154,12.154,0,0,0-2.6,3.651,14.854,14.854,0,0,0-1.575,4.107c-.594,3.17.575,6.508-.206,9.64a25.424,25.424,0,0,0-1.013,3.632c-.113,1.25.481,2.726,1.707,3.013a2.188,2.188,0,0,1,.994.306,1.65,1.65,0,0,1,.381.863,4.814,4.814,0,0,0,7.039,3.07,3.057,3.057,0,0,0,2.413,2.976c0-.581.131-2.294.131-2.294-4.97-2.538-5.3-3.645-5.764-4.089a6.778,6.778,0,0,1-1.538-2.407c-1.094-2.782-1.544-5.139-1.744-13.479-.038-1.363,1.294-6.12,2.369-6.964s2.838.269,3.657,1.375A3.888,3.888,0,0,1,298.211,150.154Z" transform="translate(-238.939 -113.999)" fill="#263238" stroke="#263238" stroke-linecap="round" stroke-linejoin="round" stroke-width="1"/>
      <path id="Path_10159" data-name="Path 10159" d="M319.247,155.66a10.673,10.673,0,0,1,1.25,2.5,23.344,23.344,0,0,1,.213,13.26c-1.213,4.332-2.913,5.345-2.7,7.158.169,1.413,3.864,1.6,5.589.756a3.914,3.914,0,0,0,0,5.045c1.25,1.369,3.245,2.026,5-.538" transform="translate(-251.429 -118.142)" fill="none" stroke="#999" stroke-linecap="round" stroke-linejoin="round" stroke-width="1"/>
      <path id="Path_10160" data-name="Path 10160" d="M317.3,152.51a10.135,10.135,0,0,1,.85.869" transform="translate(-251.17 -116.961)" fill="none" stroke="#999" stroke-linecap="round" stroke-linejoin="round" stroke-width="1"/>
      <path id="Path_10161" data-name="Path 10161" d="M306,148.912a7.577,7.577,0,0,1,6.077,1.407" transform="translate(-246.935 -115.558)" fill="none" stroke="#999" stroke-linecap="round" stroke-linejoin="round" stroke-width="1"/>
      <path id="Path_10162" data-name="Path 10162" d="M330.48,178.33a16.824,16.824,0,0,0,1.344,4.933" transform="translate(-256.111 -126.639)" fill="none" stroke="#999" stroke-linecap="round" stroke-linejoin="round" stroke-width="1"/>
      <path id="Path_10163" data-name="Path 10163" d="M328.64,159.65c.694,3.126.669,6.546.944,9.809" transform="translate(-255.421 -119.637)" fill="none" stroke="#999" stroke-linecap="round" stroke-linejoin="round" stroke-width="1"/>
      <path id="Path_10164" data-name="Path 10164" d="M327.14,155.67a12.778,12.778,0,0,1,.55,1.369" transform="translate(-254.859 -118.145)" fill="none" stroke="#999" stroke-linecap="round" stroke-linejoin="round" stroke-width="1"/>
      <path id="Path_10165" data-name="Path 10165" d="M290.78,154.788a2.5,2.5,0,0,1,2.845-.75,7.421,7.421,0,0,1,2.576,1.788" transform="translate(-241.23 -117.47)" fill="none" stroke="#999" stroke-linecap="round" stroke-linejoin="round" stroke-width="1"/>
      <path id="Path_10166" data-name="Path 10166" d="M344.071,221.29a13.429,13.429,0,0,0-3.751,7.021" transform="translate(-259.799 -142.742)" fill="none" stroke="#263238" stroke-linecap="round" stroke-linejoin="round" stroke-width="1"/>
      <path id="Path_10167" data-name="Path 10167" d="M275.47,203.78a18.373,18.373,0,0,1,2.088,6.827" transform="translate(-235.491 -136.178)" fill="none" stroke="#263238" stroke-linecap="round" stroke-linejoin="round" stroke-width="1"/>
      <path id="Path_10168" data-name="Path 10168" d="M295,242.91l1.632,3.432c1.594,3.376,3.338,6.914,6.458,8.965" transform="translate(-242.812 -150.845)" fill="none" stroke="#263238" stroke-linecap="round" stroke-linejoin="round" stroke-width="1"/>
      <path id="Path_10169" data-name="Path 10169" d="M293.11,238.83l.744,1.575" transform="translate(-242.103 -149.316)" fill="none" stroke="#263238" stroke-linecap="round" stroke-linejoin="round" stroke-width="1"/>
      <path id="Path_10170" data-name="Path 10170" d="M305.25,248.49a20.518,20.518,0,0,0,5.9,3.751" transform="translate(-246.654 -152.937)" fill="none" stroke="#263238" stroke-linecap="round" stroke-linejoin="round" stroke-width="1"/>
      <path id="Path_10171" data-name="Path 10171" d="M300.65,243.36a20.631,20.631,0,0,0,1.876,2.207" transform="translate(-244.93 -151.014)" fill="none" stroke="#263238" stroke-linecap="round" stroke-linejoin="round" stroke-width="1"/>
      <path id="Path_10172" data-name="Path 10172" d="M382.86,198.38a6.208,6.208,0,0,1,3.651,4.051" transform="translate(-275.744 -134.154)" fill="#fff" stroke="#263238" stroke-linecap="round" stroke-linejoin="round" stroke-width="1"/>
      <path id="Path_10173" data-name="Path 10173" d="M247.88,174.327a14.254,14.254,0,0,1,9.334,2.207l-.594-.256" transform="translate(-225.15 -125.106)" fill="#fff" stroke="#263238" stroke-linecap="round" stroke-linejoin="round" stroke-width="1"/>
      <path id="Path_10174" data-name="Path 10174" d="M241.787,113.881c-.169-.475-.444-.919-.581-1.413-.213-.731-.194-1.65-.444-2.332a.625.625,0,0,0-1.144,0,5.52,5.52,0,0,0-.119,3.576,2.132,2.132,0,0,1,.156.731,1.25,1.25,0,0,1-.456.938,5.964,5.964,0,0,0-1.294,1.163c-1.382,1.657-1.694,3.814-1.013,5l2.945,1.657C241.262,122.74,242.412,115.625,241.787,113.881Z" transform="translate(-220.901 -100.939)" fill="#fff"/>
      <g id="Group_218" data-name="Group 218" transform="translate(15.643 8.825)" clip-path="url(#clip-path-6)">
        <path id="Path_10175" data-name="Path 10175" d="M240.614,114.971a8.99,8.99,0,0,1-1.482,4.758,7.5,7.5,0,0,0-1.25,1.938c-.231.738.044,1.713.794,1.876s1.394-.444,1.819-1.057a12.531,12.531,0,0,0,.719-12.191c-.144-.331-.5-.819-.894-.475-.256.225,0,1.025.044,1.288a20.173,20.173,0,0,1,.25,3.864Z" transform="translate(-237.016 -109.74)" fill="#62c9d5"/>
        <path id="Path_10176" data-name="Path 10176" d="M240.614,114.971a8.99,8.99,0,0,1-1.482,4.758,7.5,7.5,0,0,0-1.25,1.938c-.231.738.044,1.713.794,1.876s1.394-.444,1.819-1.057a12.531,12.531,0,0,0,.719-12.191c-.144-.331-.5-.819-.894-.475-.256.225,0,1.025.044,1.288a20.173,20.173,0,0,1,.25,3.864Z" transform="translate(-237.016 -109.74)" fill="#fff" opacity="0.6"/>
      </g>
      <path id="Path_10178" data-name="Path 10178" d="M236.892,121.556c-.681-1.2-.369-3.357,1.013-5a5.965,5.965,0,0,1,1.294-1.163,1.25,1.25,0,0,0,.456-.938,2.132,2.132,0,0,0-.156-.731,5.52,5.52,0,0,1,.119-3.576.625.625,0,0,1,1.144,0c.25.681.231,1.6.444,2.332.138.494.413.938.581,1.413.625,1.744-.525,8.859-1.951,9.328" transform="translate(-220.901 -100.942)" fill="none" stroke="#263238" stroke-linecap="round" stroke-linejoin="round" stroke-width="1"/>
      <path id="Path_10179" data-name="Path 10179" d="M234.5,114.47a13.81,13.81,0,0,0-5.845,1.419" transform="translate(-217.942 -102.703)" fill="#fff" stroke="#263238" stroke-linecap="round" stroke-linejoin="round" stroke-width="1"/>
      <path id="Path_10180" data-name="Path 10180" d="M291.852,315.5a13.31,13.31,0,0,0-5.3,3.22,267.478,267.478,0,0,0-19.487,21.106" transform="translate(-232.343 -178.054)" fill="none" stroke="#999" stroke-linecap="round" stroke-linejoin="round" stroke-width="1"/>
      <path id="Path_10181" data-name="Path 10181" d="M312.752,314.493a13.253,13.253,0,0,0-2.332.106" transform="translate(-248.592 -177.672)" fill="none" stroke="#999" stroke-linecap="round" stroke-linejoin="round" stroke-width="1"/>
      <path id="Path_10182" data-name="Path 10182" d="M291.617,317.769a20.968,20.968,0,0,0-6.477-9.409" transform="translate(-239.116 -175.378)" fill="none" stroke="#999" stroke-linecap="round" stroke-linejoin="round" stroke-width="1"/>
    </g>
    <g id="freepik--Treasure--inject-751" transform="translate(39.7 129.511)">
      <path id="Path_10183" data-name="Path 10183" d="M79.8,314.932c1.094-.569,8.4-50.139,8.4-50.139s78.91-14.61,80.022-14.673l-5.845,46.05Z" transform="translate(-54.731 -200.437)" fill="#62c9d5" stroke="#263238" stroke-linecap="round" stroke-linejoin="round" stroke-width="0.956"/>
      <path id="Path_10184" data-name="Path 10184" d="M162.417,295.942v.225L79.85,314.922c1.094-.569,8.4-50.139,8.4-50.139s78.909-14.61,80.022-14.673a.094.094,0,0,1,.075.113C166.949,260.757,162.917,292.609,162.417,295.942Z" transform="translate(-54.749 -200.434)" stroke="#263238" stroke-linecap="round" stroke-linejoin="round" stroke-width="0.956" opacity="0.5"/>
      <path id="Path_10185" data-name="Path 10185" d="M82.019,273.59s-15.348,9.384-18.28,20.343,9.878,29.8,9.878,29.8a223.708,223.708,0,0,0,4.576-25.069C79.036,292.376,82.019,273.59,82.019,273.59Z" transform="translate(-48.547 -209.235)" fill="#263238" stroke="#263238" stroke-linecap="round" stroke-linejoin="round" stroke-width="0.956"/>
      <path id="Path_10186" data-name="Path 10186" d="M201.1,298.087c-1.644-2.388-10.5-14.254-6.546-23.463,7.083-16.5,12.453-17.236,14.873-21.425C209.46,253.213,201.6,294.768,201.1,298.087Z" transform="translate(-97.366 -201.592)" opacity="0.5"/>
      <path id="Path_10187" data-name="Path 10187" d="M79.8,315l4.345-.988,7.59-45.006,72.82-13.941-6.089,41.949,3.9-.775,5.92-45.938L88.2,264.86Z" transform="translate(-54.731 -200.505)" fill="#62c9d5" stroke="#263238" stroke-linecap="round" stroke-linejoin="round" stroke-width="0.956"/>
      <path id="Path_10188" data-name="Path 10188" d="M79.8,342.545l2.557,29.021H79.8l1.25,6.539s29.289,19.849,31.8,19.774c5.32-.15,76.9-22.9,76.9-22.9l.725-5.114-1.826-.975V342.545l-26.3-18.755Z" transform="translate(-54.731 -228.051)" fill="#62c9d5" stroke="#263238" stroke-linecap="round" stroke-linejoin="round" stroke-width="0.956"/>
      <path id="Path_10189" data-name="Path 10189" d="M188.668,342.542v26.345L112.5,391.042,82.351,371.568,79.8,342.542l82.567-18.762Z" transform="translate(-54.731 -228.047)" opacity="0.5"/>
      <path id="Path_10190" data-name="Path 10190" d="M79.8,342.542l31.052,18.743,77.815-18.743-26.3-18.762Z" transform="translate(-54.731 -228.047)" opacity="0.2"/>
      <path id="Path_10191" data-name="Path 10191" d="M93.24,344.6l23.382,13.841,69.413-16.811L166.673,327.75Z" transform="translate(-59.768 -229.535)" opacity="0.5"/>
      <line id="Line_36" data-name="Line 36" x2="2.026" y2="36.591" transform="translate(56.122 133.237)" fill="none" stroke="#263238" stroke-linecap="round" stroke-linejoin="round" stroke-width="0.956"/>
      <line id="Line_37" data-name="Line 37" x2="30.227" y2="19.424" transform="translate(27.626 146.078)" fill="none" stroke="#263238" stroke-linecap="round" stroke-linejoin="round" stroke-width="0.956"/>
      <line id="Line_38" data-name="Line 38" x1="75.79" y2="22.594" transform="translate(58.147 142.909)" fill="none" stroke="#263238" stroke-linecap="round" stroke-linejoin="round" stroke-width="0.956"/>
      <path id="Path_10192" data-name="Path 10192" d="M197.683,389.923c-5.32,2.257-10.753-.438-10.753-.438v-4.376a16.436,16.436,0,0,0,9.015.975c2.226-.338,2.67-1.25,2.5-2.094C199.734,388.823,197.683,389.923,197.683,389.923Z" transform="translate(-94.886 -250.615)" fill="#fff" opacity="0.4"/>
      <path id="Path_10193" data-name="Path 10193" d="M195.945,384.9a16.436,16.436,0,0,1-9.015-.975h.038l10.2-3.126a4.727,4.727,0,0,1,1.25,2.038h0C198.615,383.676,198.171,384.564,195.945,384.9Z" transform="translate(-94.886 -249.42)" fill="#fff" opacity="0.6"/>
      <path id="Path_10194" data-name="Path 10194" d="M197.683,388.72c-5.32,2.257-10.753-.438-10.753-.438v-4.376h.038l10.2-3.126a4.727,4.727,0,0,1,1.25,2.038h0C199.734,387.619,197.683,388.72,197.683,388.72Z" transform="translate(-94.886 -249.412)" fill="none" stroke="#263238" stroke-linecap="round" stroke-linejoin="round" stroke-width="0.956"/>
      <path id="Path_10195" data-name="Path 10195" d="M92.582,331.163,115.964,345l69.394-16.8L169.3,316.1h0a5.189,5.189,0,0,0-1.425-2.707,9.259,9.259,0,0,0-3.413-2.3l-.625-.106s-6.433-14.7-19.418-18.755-57.954,30.74-51.833,38.936" transform="translate(-59.311 -216.1)" fill="#fff" stroke="#62c9d5" stroke-linecap="round" stroke-linejoin="round" stroke-width="0.956"/>
      <path id="Path_10196" data-name="Path 10196" d="M122.009,310.414c.181.513-.325.994-.75,1.332s-.882.907-.594,1.375a1.794,1.794,0,0,0-1.969.1,1.763,1.763,0,0,0-.625,1.876,3.145,3.145,0,0,0,2.5,1.7,33.132,33.132,0,0,0,6.877.625c.331,0,.763-.063.825-.388a.55.55,0,0,0-.394-.55c-.225-.094-.481-.106-.713-.194a1.125,1.125,0,0,1-.431-1.669.938.938,0,0,1,.544-1.188,2.682,2.682,0,0,1,1.444-.094.675.675,0,0,0-.169-.831.988.988,0,0,0,.231-1.119C128.048,309.689,123.447,310.2,122.009,310.414Z" transform="translate(-69.051 -222.946)" fill="#fff"/>
      <path id="Path_10197" data-name="Path 10197" d="M130.3,313.376a26.254,26.254,0,0,1-4.5-.806" transform="translate(-71.973 -223.845)" fill="#fff" stroke="#62c9d5" stroke-linecap="round" stroke-linejoin="round" stroke-width="0.717"/>
      <path id="Path_10198" data-name="Path 10198" d="M128.74,316.7a8.846,8.846,0,0,1-3.42-.5" transform="translate(-71.793 -225.206)" fill="#fff" stroke="#62c9d5" stroke-linecap="round" stroke-linejoin="round" stroke-width="0.717"/>
      <path id="Path_10199" data-name="Path 10199" d="M126.7,319.208a23.639,23.639,0,0,1-6.764-1.038" transform="translate(-69.776 -225.944)" fill="#fff" stroke="#62c9d5" stroke-linecap="round" stroke-linejoin="round" stroke-width="0.717"/>
      <path id="Path_10200" data-name="Path 10200" d="M90.346,343.791c.181.513-.319.994-.75,1.332s-.875.907-.588,1.375a1.8,1.8,0,0,0-1.976.1,1.744,1.744,0,0,0-.588,1.876,3.126,3.126,0,0,0,2.5,1.7,33.615,33.615,0,0,0,6.908.625c.331,0,.769-.063.831-.388a.563.563,0,0,0-.4-.556c-.225-.088-.481-.1-.706-.188A1.125,1.125,0,0,1,95.141,348a.944.944,0,0,1,.55-1.188,2.732,2.732,0,0,1,1.438-.1.625.625,0,0,0-.163-.825.994.994,0,0,0,.225-1.125C96.385,343.06,91.765,343.566,90.346,343.791Z" transform="translate(-57.193 -235.454)" fill="#fff"/>
      <path id="Path_10201" data-name="Path 10201" d="M98.611,346.75a25.531,25.531,0,0,1-4.5-.8" transform="translate(-60.094 -236.357)" fill="none" stroke="#62c9d5" stroke-linecap="round" stroke-linejoin="round" stroke-width="0.717"/>
      <path id="Path_10202" data-name="Path 10202" d="M97.063,350.054a8.8,8.8,0,0,1-3.413-.494" transform="translate(-59.922 -237.71)" fill="none" stroke="#62c9d5" stroke-linecap="round" stroke-linejoin="round" stroke-width="0.717"/>
      <path id="Path_10203" data-name="Path 10203" d="M95.028,352.584a23.381,23.381,0,0,1-6.758-1.044" transform="translate(-57.905 -238.452)" fill="none" stroke="#62c9d5" stroke-linecap="round" stroke-linejoin="round" stroke-width="0.717"/>
      <path id="Path_10204" data-name="Path 10204" d="M135.565,301.458c.131.531-.425.957-.888,1.25s-.969.807-.731,1.3a1.8,1.8,0,0,0-1.976-.106,1.757,1.757,0,0,0-.788,1.807c.219,1.032,1.3,1.613,2.294,1.957a33.863,33.863,0,0,0,6.8,1.344c.331.038.769,0,.863-.3a.55.55,0,0,0-.331-.594c-.219-.113-.469-.15-.688-.263a1.125,1.125,0,0,1-.25-1.707.944.944,0,0,1,.669-1.125,2.707,2.707,0,0,1,1.444.056.625.625,0,0,0-.081-.838.982.982,0,0,0,.344-1.094C141.648,301.377,137.021,301.4,135.565,301.458Z" transform="translate(-73.979 -219.673)" fill="#fff"/>
      <path id="Path_10205" data-name="Path 10205" d="M143.766,304.91a24.842,24.842,0,0,1-4.376-1.25" transform="translate(-77.066 -220.506)" fill="none" stroke="#62c9d5" stroke-linecap="round" stroke-linejoin="round" stroke-width="0.717"/>
      <path id="Path_10206" data-name="Path 10206" d="M141.871,308.016a8.652,8.652,0,0,1-3.351-.856" transform="translate(-76.74 -221.817)" fill="none" stroke="#62c9d5" stroke-linecap="round" stroke-linejoin="round" stroke-width="0.717"/>
      <path id="Path_10207" data-name="Path 10207" d="M139.589,310.317A23.271,23.271,0,0,1,133,308.56" transform="translate(-74.671 -222.342)" fill="none" stroke="#62c9d5" stroke-linecap="round" stroke-linejoin="round" stroke-width="0.717"/>
      <path id="Path_10208" data-name="Path 10208" d="M193.785,304.47c-.056.513.506.844.975,1.069s1,.625.832,1.132a1.694,1.694,0,0,1,1.838-.325,1.65,1.65,0,0,1,.944,1.6c-.088.988-1.032,1.657-1.926,2.088a31.39,31.39,0,0,1-6.208,2.038c-.3.075-.713.106-.838-.181a.519.519,0,0,1,.244-.594c.188-.131.419-.194.625-.325a1.057,1.057,0,0,0,.044-1.625.882.882,0,0,0-.75-.975,2.639,2.639,0,0,0-1.344.219.625.625,0,0,1,0-.794.944.944,0,0,1-.45-.982C188.09,305.089,192.422,304.576,193.785,304.47Z" transform="translate(-95.195 -220.809)" fill="#fff"/>
      <path id="Path_10209" data-name="Path 10209" d="M190.24,308.31a23.52,23.52,0,0,0,3.957-1.7" transform="translate(-96.126 -221.611)" fill="none" stroke="#62c9d5" stroke-linecap="round" stroke-linejoin="round" stroke-width="0.717"/>
      <path id="Path_10210" data-name="Path 10210" d="M192.91,311.008a8.158,8.158,0,0,0,3.032-1.188" transform="translate(-97.127 -222.814)" fill="none" stroke="#62c9d5" stroke-linecap="round" stroke-linejoin="round" stroke-width="0.717"/>
      <path id="Path_10211" data-name="Path 10211" d="M193.55,312.9a22.156,22.156,0,0,0,5.983-2.394" transform="translate(-97.367 -223.073)" fill="none" stroke="#62c9d5" stroke-linecap="round" stroke-linejoin="round" stroke-width="0.717"/>
      <path id="Path_10212" data-name="Path 10212" d="M217.238,330.83c0,.306.313.513.625.625s.625.394.506.694a1.025,1.025,0,0,1,1.119-.2,1.013,1.013,0,0,1,.575.975c-.056.625-.625,1.007-1.169,1.25a18.988,18.988,0,0,1-3.751,1.25c-.188.05-.438.069-.513-.106a.319.319,0,0,1,.15-.363c.113-.081.256-.119.369-.2a.625.625,0,0,0,.031-.988.55.55,0,0,0-.463-.594,1.569,1.569,0,0,0-.819.138.388.388,0,0,1,0-.488.575.575,0,0,1-.275-.594C213.775,331.205,216.407,330.892,217.238,330.83Z" transform="translate(-104.888 -230.69)" fill="#fff"/>
      <path id="Path_10213" data-name="Path 10213" d="M215.05,333.162a14.908,14.908,0,0,0,2.413-1.032" transform="translate(-105.426 -231.177)" fill="none" stroke="#62c9d5" stroke-linecap="round" stroke-linejoin="round" stroke-width="0.717"/>
      <path id="Path_10214" data-name="Path 10214" d="M216.68,334.805a5,5,0,0,0,1.844-.725" transform="translate(-106.037 -231.908)" fill="none" stroke="#62c9d5" stroke-linecap="round" stroke-linejoin="round" stroke-width="0.717"/>
      <path id="Path_10215" data-name="Path 10215" d="M217.07,335.957a13.6,13.6,0,0,0,3.639-1.457" transform="translate(-106.183 -232.065)" fill="none" stroke="#62c9d5" stroke-linecap="round" stroke-linejoin="round" stroke-width="0.717"/>
      <path id="Path_10216" data-name="Path 10216" d="M132.67,319.5a2.207,2.207,0,0,0,1.15,1.513,4.1,4.1,0,0,0,1.876.438,4.376,4.376,0,0,0,2.951-.85" transform="translate(-74.548 -226.443)" fill="none" stroke="#62c9d5" stroke-linecap="round" stroke-linejoin="round" stroke-width="0.717"/>
      <path id="Path_10217" data-name="Path 10217" d="M146.52,322.47a2.932,2.932,0,0,0,3.751.475" transform="translate(-79.739 -227.556)" fill="none" stroke="#62c9d5" stroke-linecap="round" stroke-linejoin="round" stroke-width="0.717"/>
      <path id="Path_10218" data-name="Path 10218" d="M140.96,315.8a2.713,2.713,0,0,0-.788.525,1.063,1.063,0,0,0-.306.869c.094.625.831.882,1.45.982a15.217,15.217,0,0,0,5-.119,2.076,2.076,0,0,0,.744-.238.769.769,0,0,0,.406-.625.488.488,0,0,0-.5-.488" transform="translate(-77.242 -225.056)" fill="none" stroke="#62c9d5" stroke-linecap="round" stroke-linejoin="round" stroke-width="0.717"/>
      <path id="Path_10219" data-name="Path 10219" d="M153.56,322.139a7.99,7.99,0,0,0,8.6-.119.319.319,0,0,0,.163-.2" transform="translate(-82.378 -227.312)" fill="none" stroke="#62c9d5" stroke-linecap="round" stroke-linejoin="round" stroke-width="0.717"/>
      <path id="Path_10220" data-name="Path 10220" d="M177.9,319.083a11.309,11.309,0,0,0,8.19-1.213" transform="translate(-91.501 -225.832)" fill="none" stroke="#62c9d5" stroke-linecap="round" stroke-linejoin="round" stroke-width="0.717"/>
      <path id="Path_10221" data-name="Path 10221" d="M197.82,314.093a6.052,6.052,0,0,0,3.282-1.363" transform="translate(-98.967 -223.905)" fill="none" stroke="#62c9d5" stroke-linecap="round" stroke-linejoin="round" stroke-width="0.717"/>
      <path id="Path_10222" data-name="Path 10222" d="M155.7,295.565a1.082,1.082,0,1,1-1.075-1.075A1.082,1.082,0,0,1,155.7,295.565Z" transform="translate(-82.37 -217.068)" fill="#fff" stroke="#62c9d5" stroke-linecap="round" stroke-linejoin="round" stroke-width="0.717"/>
      <path id="Path_10223" data-name="Path 10223" d="M157.443,297.285a1.082,1.082,0,1,1-1.082-1.075A1.082,1.082,0,0,1,157.443,297.285Z" transform="translate(-83.022 -217.713)" fill="#fff" stroke="#62c9d5" stroke-linecap="round" stroke-linejoin="round" stroke-width="0.717"/>
      <path id="Path_10224" data-name="Path 10224" d="M159.623,298.455a1.075,1.075,0,1,1-.317-.763A1.082,1.082,0,0,1,159.623,298.455Z" transform="translate(-83.839 -218.152)" fill="#fff" stroke="#62c9d5" stroke-linecap="round" stroke-linejoin="round" stroke-width="0.717"/>
      <path id="Path_10225" data-name="Path 10225" d="M161.343,299.012a1.075,1.075,0,1,1-.313-.764A1.082,1.082,0,0,1,161.343,299.012Z" transform="translate(-84.484 -218.358)" fill="#fff" stroke="#62c9d5" stroke-linecap="round" stroke-linejoin="round" stroke-width="0.717"/>
      <path id="Path_10226" data-name="Path 10226" d="M163.711,299.545a1.075,1.075,0,1,1-1.075-1.075A1.075,1.075,0,0,1,163.711,299.545Z" transform="translate(-85.376 -218.56)" fill="#fff" stroke="#62c9d5" stroke-linecap="round" stroke-linejoin="round" stroke-width="0.717"/>
      <path id="Path_10227" data-name="Path 10227" d="M166.273,299.545a1.082,1.082,0,1,1-1.082-1.075A1.082,1.082,0,0,1,166.273,299.545Z" transform="translate(-86.332 -218.56)" fill="#fff" stroke="#62c9d5" stroke-linecap="round" stroke-linejoin="round" stroke-width="0.717"/>
      <circle id="Ellipse_80" data-name="Ellipse 80" cx="1.075" cy="1.075" r="1.075" transform="translate(79.341 79.91)" fill="#fff" stroke="#62c9d5" stroke-linecap="round" stroke-linejoin="round" stroke-width="0.717"/>
      <circle id="Ellipse_81" data-name="Ellipse 81" cx="1.075" cy="1.075" r="1.075" transform="translate(80.816 79.91)" fill="#fff" stroke="#62c9d5" stroke-linecap="round" stroke-linejoin="round" stroke-width="0.717"/>
      <path id="Path_10228" data-name="Path 10228" d="M184.011,296.1a1.075,1.075,0,1,1-.313-.764A1.075,1.075,0,0,1,184.011,296.1Z" transform="translate(-92.985 -217.267)" fill="#fff" stroke="#62c9d5" stroke-linecap="round" stroke-linejoin="round" stroke-width="0.717"/>
      <path id="Path_10229" data-name="Path 10229" d="M182.283,297.015a1.082,1.082,0,1,1-1.075-1.075,1.082,1.082,0,0,1,1.075,1.075Z" transform="translate(-92.333 -217.612)" fill="#fff" stroke="#62c9d5" stroke-linecap="round" stroke-linejoin="round" stroke-width="0.717"/>
      <circle id="Ellipse_82" data-name="Ellipse 82" cx="1.075" cy="1.075" r="1.075" transform="translate(86.543 79.035)" fill="#fff" stroke="#62c9d5" stroke-linecap="round" stroke-linejoin="round" stroke-width="0.717"/>
      <circle id="Ellipse_83" data-name="Ellipse 83" cx="1.075" cy="1.075" r="1.075" transform="translate(85.155 79.578)" fill="#fff" stroke="#62c9d5" stroke-linecap="round" stroke-linejoin="round" stroke-width="0.717"/>
      <circle id="Ellipse_84" data-name="Ellipse 84" cx="1.075" cy="1.075" r="1.075" transform="translate(83.867 79.91)" fill="#fff" stroke="#62c9d5" stroke-linecap="round" stroke-linejoin="round" stroke-width="0.717"/>
      <circle id="Ellipse_85" data-name="Ellipse 85" cx="1.075" cy="1.075" r="1.075" transform="translate(82.31 79.91)" fill="#fff" stroke="#62c9d5" stroke-linecap="round" stroke-linejoin="round" stroke-width="0.717"/>
      <circle id="Ellipse_86" data-name="Ellipse 86" cx="1.075" cy="1.075" r="1.075" transform="translate(82.31 79.91)" fill="#fff" stroke="#62c9d5" stroke-linecap="round" stroke-linejoin="round" stroke-width="0.717"/>
      <line id="Line_39" data-name="Line 39" x1="0.263" y1="0.6" transform="translate(72.289 84.549)" fill="none" stroke="#62c9d5" stroke-linecap="round" stroke-linejoin="round" stroke-width="0.717"/>
      <path id="Path_10230" data-name="Path 10230" d="M152.4,306.46c0,.088-.119.588-.206.588" transform="translate(-81.864 -221.555)" fill="none" stroke="#62c9d5" stroke-linecap="round" stroke-linejoin="round" stroke-width="0.717"/>
      <line id="Line_40" data-name="Line 40" x1="0.756" y2="0.506" transform="translate(69.669 84.299)" fill="none" stroke="#62c9d5" stroke-linecap="round" stroke-linejoin="round" stroke-width="0.717"/>
      <path id="Path_10231" data-name="Path 10231" d="M155.621,303.305l-1.25-.75a7.829,7.829,0,0,0-1.744.738s-1.782,1.607-1.513,1.6l.45,1.088s2.144-.369,2.5-.4,1.7-1.6,1.7-1.6" transform="translate(-81.45 -220.088)" fill="none" stroke="#62c9d5" stroke-linecap="round" stroke-linejoin="round" stroke-width="0.717"/>
      <path id="Path_10232" data-name="Path 10232" d="M155.681,304.25a12.074,12.074,0,0,0-1.013.875l-1.188.319" transform="translate(-82.348 -220.727)" fill="none" stroke="#62c9d5" stroke-linecap="round" stroke-linejoin="round" stroke-width="0.717"/>
      <line id="Line_41" data-name="Line 41" x1="0.2" y1="0.481" transform="translate(79.772 85.936)" fill="none" stroke="#62c9d5" stroke-linecap="round" stroke-linejoin="round" stroke-width="0.717"/>
      <path id="Path_10233" data-name="Path 10233" d="M165.013,308.57c0,.069-.094.463-.163.469" transform="translate(-86.609 -222.346)" fill="none" stroke="#62c9d5" stroke-linecap="round" stroke-linejoin="round" stroke-width="0.717"/>
      <line id="Line_42" data-name="Line 42" x1="0.588" y2="0.4" transform="translate(77.734 85.743)" fill="none" stroke="#62c9d5" stroke-linecap="round" stroke-linejoin="round" stroke-width="0.717"/>
      <path id="Path_10234" data-name="Path 10234" d="M167.522,306.045l-.969-.625a5.946,5.946,0,0,0-1.35.588s-1.382,1.282-1.175,1.25l.35.869s1.663-.294,1.932-.319,1.325-1.25,1.325-1.25" transform="translate(-86.293 -221.165)" fill="none" stroke="#62c9d5" stroke-linecap="round" stroke-linejoin="round" stroke-width="0.717"/>
      <path id="Path_10235" data-name="Path 10235" d="M167.527,306.81a9.211,9.211,0,0,0-.781.694l-.925.256" transform="translate(-86.973 -221.686)" fill="none" stroke="#62c9d5" stroke-linecap="round" stroke-linejoin="round" stroke-width="0.717"/>
      <line id="Line_43" data-name="Line 43" x2="0.431" y2="0.388" transform="translate(82.861 90.475)" fill="none" stroke="#62c9d5" stroke-linecap="round" stroke-linejoin="round" stroke-width="0.717"/>
      <path id="Path_10236" data-name="Path 10236" d="M171.334,318.1c-.069,0-.519-.075-.544,0" transform="translate(-88.836 -225.906)" fill="none" stroke="#62c9d5" stroke-linecap="round" stroke-linejoin="round" stroke-width="0.717"/>
      <line id="Line_44" data-name="Line 44" x1="0.638" y2="0.475" transform="translate(82.342 92.451)" fill="none" stroke="#62c9d5" stroke-linecap="round" stroke-linejoin="round" stroke-width="0.717"/>
      <path id="Path_10237" data-name="Path 10237" d="M173.523,313.978s.244,1.075.281,1.25-1.1,1.207-1.1,1.207-1.838.994-1.763.775l-.781-.681s.907-1.638,1.032-1.913A7.319,7.319,0,0,1,173,313.69" transform="translate(-88.6 -224.265)" fill="none" stroke="#62c9d5" stroke-linecap="round" stroke-linejoin="round" stroke-width="0.717"/>
      <path id="Path_10238" data-name="Path 10238" d="M173.768,315.14a9.965,9.965,0,0,1-1.013.575l-.625.881" transform="translate(-89.338 -224.809)" fill="none" stroke="#62c9d5" stroke-linecap="round" stroke-linejoin="round" stroke-width="0.717"/>
      <line id="Line_45" data-name="Line 45" y1="0.738" x2="0.756" transform="translate(88.325 86.937)" fill="none" stroke="#62c9d5" stroke-linecap="round" stroke-linejoin="round" stroke-width="0.717"/>
      <path id="Path_10239" data-name="Path 10239" d="M185.935,312.28c-.056.125-.181.938-.05.994" transform="translate(-94.472 -223.737)" fill="none" stroke="#62c9d5" stroke-linecap="round" stroke-linejoin="round" stroke-width="0.717"/>
      <line id="Line_46" data-name="Line 46" x2="0.819" y2="1.213" transform="translate(91.994 87.706)" fill="none" stroke="#62c9d5" stroke-linecap="round" stroke-linejoin="round" stroke-width="0.717"/>
      <path id="Path_10240" data-name="Path 10240" d="M178.621,304.516s2.007-.3,2.3-.356,2.144,2.151,2.144,2.151,1.669,3.47,1.25,3.3L183,310.936s-2.957-1.844-3.457-2.107-1.55-3.413-1.55-3.413" transform="translate(-91.535 -220.692)" fill="none" stroke="#62c9d5" stroke-linecap="round" stroke-linejoin="round" stroke-width="0.717"/>
      <path id="Path_10241" data-name="Path 10241" d="M180.77,306.29a19.289,19.289,0,0,1,.975,1.919l1.575,1.2" transform="translate(-92.577 -221.491)" fill="none" stroke="#62c9d5" stroke-linecap="round" stroke-linejoin="round" stroke-width="0.717"/>
      <path id="Path_10242" data-name="Path 10242" d="M167.221,291.892s1.582,1.838,1.988,1.875,2.92.469,2.92.469l.531-1.25c.313,0-1.775-1.876-1.775-1.876a9.466,9.466,0,0,0-2.038-.857c-.163.119-1.457.875-1.457.875l-.4.356Z" transform="translate(-87.412 -215.477)" fill="#fff"/>
      <line id="Line_47" data-name="Line 47" y1="0.706" x2="0.3" transform="translate(81.873 77.184)" fill="none" stroke="#62c9d5" stroke-linecap="round" stroke-linejoin="round" stroke-width="0.717"/>
      <path id="Path_10243" data-name="Path 10243" d="M174.44,294.78c0,.1.138.688.244.688" transform="translate(-90.204 -217.177)" fill="none" stroke="#62c9d5" stroke-linecap="round" stroke-linejoin="round" stroke-width="0.717"/>
      <line id="Line_48" data-name="Line 48" x2="0.888" y2="0.594" transform="translate(84.361 76.896)" fill="none" stroke="#62c9d5" stroke-linecap="round" stroke-linejoin="round" stroke-width="0.717"/>
      <path id="Path_10244" data-name="Path 10244" d="M167.221,291.892s1.582,1.838,1.988,1.875,2.92.469,2.92.469l.531-1.25c.313,0-1.775-1.876-1.775-1.876a9.466,9.466,0,0,0-2.038-.857c-.163.119-1.457.875-1.457.875l-.4.356Z" transform="translate(-87.412 -215.477)" fill="none" stroke="#62c9d5" stroke-linecap="round" stroke-linejoin="round" stroke-width="0.717"/>
      <path id="Path_10245" data-name="Path 10245" d="M169.25,292.19a14.251,14.251,0,0,1,1.182,1.025l1.4.375" transform="translate(-88.259 -216.206)" fill="none" stroke="#62c9d5" stroke-linecap="round" stroke-linejoin="round" stroke-width="0.717"/>
      <path id="Path_10246" data-name="Path 10246" d="M111.914,326.375s-2.176,2.1-2.688,2.1-3.676.25-3.676.25l-.513-1.638c-.394-.031,2.413-2.132,2.413-2.132a11.215,11.215,0,0,1,2.632-.838c.219.169,1.707,1.25,1.707,1.25l.456.488Z" transform="translate(-64.176 -228.167)" fill="#fff"/>
      <line id="Line_49" data-name="Line 49" x1="0.3" y1="0.913" transform="translate(44.706 98.89)" fill="none" stroke="#62c9d5" stroke-linecap="round" stroke-linejoin="round" stroke-width="0.717"/>
      <path id="Path_10247" data-name="Path 10247" d="M106.771,329.29c0,.125-.25.831-.381.825" transform="translate(-64.697 -230.112)" fill="none" stroke="#62c9d5" stroke-linecap="round" stroke-linejoin="round" stroke-width="0.717"/>
      <line id="Line_50" data-name="Line 50" x1="1.169" y2="0.638" transform="translate(40.861 98.284)" fill="none" stroke="#62c9d5" stroke-linecap="round" stroke-linejoin="round" stroke-width="0.717"/>
      <path id="Path_10248" data-name="Path 10248" d="M110.353,324.13c.213.169,1.707,1.25,1.707,1.25l.456.488-.331.513s-2.176,2.1-2.688,2.1-3.676.25-3.676.25l-.1-.313" transform="translate(-64.446 -228.178)" fill="none" stroke="#62c9d5" stroke-linecap="round" stroke-linejoin="round" stroke-width="0.717"/>
      <path id="Path_10249" data-name="Path 10249" d="M111.77,326.66a17.034,17.034,0,0,0-1.594,1.138l-1.775.306" transform="translate(-65.451 -229.127)" fill="none" stroke="#62c9d5" stroke-linecap="round" stroke-linejoin="round" stroke-width="0.717"/>
      <path id="Path_10250" data-name="Path 10250" d="M227.218,343.355s2.169,2.1,2.688,2.1,3.67.25,3.67.25l.519-1.638c.388-.031-2.413-2.132-2.413-2.132a11.311,11.311,0,0,0-2.632-.838c-.213.169-1.713,1.25-1.713,1.25l-.456.488Z" transform="translate(-109.86 -234.531)" fill="#fff"/>
      <line id="Line_51" data-name="Line 51" y1="0.913" x2="0.3" transform="translate(120.083 109.506)" fill="none" stroke="#62c9d5" stroke-linecap="round" stroke-linejoin="round" stroke-width="0.717"/>
      <path id="Path_10251" data-name="Path 10251" d="M236.43,346.27c0,.125.25.838.381.825" transform="translate(-113.439 -236.477)" fill="none" stroke="#62c9d5" stroke-linecap="round" stroke-linejoin="round" stroke-width="0.717"/>
      <line id="Line_52" data-name="Line 52" x2="1.169" y2="0.638" transform="translate(123.066 108.899)" fill="none" stroke="#62c9d5" stroke-linecap="round" stroke-linejoin="round" stroke-width="0.717"/>
      <path id="Path_10252" data-name="Path 10252" d="M229.049,341.11c-.213.169-1.713,1.25-1.713,1.25l-.456.488.338.513s2.169,2.1,2.688,2.1,3.67.25,3.67.25l.1-.306" transform="translate(-109.86 -234.543)" fill="none" stroke="#62c9d5" stroke-linecap="round" stroke-linejoin="round" stroke-width="0.717"/>
      <path id="Path_10253" data-name="Path 10253" d="M229.69,343.64a17.716,17.716,0,0,1,1.588,1.144l1.776.3" transform="translate(-110.913 -235.491)" fill="none" stroke="#62c9d5" stroke-linecap="round" stroke-linejoin="round" stroke-width="0.717"/>
      <circle id="Ellipse_87" data-name="Ellipse 87" cx="1.075" cy="1.075" r="1.075" transform="translate(72.551 89.4)" fill="#fff" stroke="#62c9d5" stroke-linecap="round" stroke-linejoin="round" stroke-width="0.717"/>
      <circle id="Ellipse_88" data-name="Ellipse 88" cx="1.075" cy="1.075" r="1.075" transform="translate(73.12 90.713)" fill="#fff" stroke="#62c9d5" stroke-linecap="round" stroke-linejoin="round" stroke-width="0.717"/>
      <circle id="Ellipse_89" data-name="Ellipse 89" cx="1.075" cy="1.075" r="1.075" transform="translate(74.008 91.082)" fill="#fff" stroke="#62c9d5" stroke-linecap="round" stroke-linejoin="round" stroke-width="0.717"/>
      <path id="Path_10254" data-name="Path 10254" d="M162.473,318.642a1.075,1.075,0,1,1-.313-.764A1.082,1.082,0,0,1,162.473,318.642Z" transform="translate(-84.908 -225.716)" fill="#fff" stroke="#62c9d5" stroke-linecap="round" stroke-linejoin="round" stroke-width="0.717"/>
      <circle id="Ellipse_90" data-name="Ellipse 90" cx="1.075" cy="1.075" r="1.075" transform="translate(83.436 95.502)" fill="none" stroke="#62c9d5" stroke-linecap="round" stroke-linejoin="round" stroke-width="0.717"/>
      <circle id="Ellipse_91" data-name="Ellipse 91" cx="1.075" cy="1.075" r="1.075" transform="translate(97.071 92.157)" fill="none" stroke="#62c9d5" stroke-linecap="round" stroke-linejoin="round" stroke-width="0.717"/>
      <circle id="Ellipse_92" data-name="Ellipse 92" cx="1.5" cy="1.5" r="1.5" transform="translate(59.448 106.699)" fill="none" stroke="#62c9d5" stroke-linecap="round" stroke-linejoin="round" stroke-width="0.717"/>
      <circle id="Ellipse_93" data-name="Ellipse 93" cx="1.075" cy="1.075" r="1.075" transform="translate(63.699 89.294)" fill="none" stroke="#62c9d5" stroke-linecap="round" stroke-linejoin="round" stroke-width="0.717"/>
      <path id="Path_10255" data-name="Path 10255" d="M215,336.26a4.507,4.507,0,0,1,2.438,1.75,4.25,4.25,0,0,0,.656.863,8.884,8.884,0,0,0,1.532.738,2.645,2.645,0,0,1,.8,3.5,3.982,3.982,0,0,1-3.338,1.876" transform="translate(-105.407 -232.725)" fill="none" stroke="#62c9d5" stroke-linecap="round" stroke-linejoin="round" stroke-width="0.717"/>
      <path id="Path_10256" data-name="Path 10256" d="M183.33,345.553a2.957,2.957,0,0,0,4.451-.413,8.5,8.5,0,0,0,7.139.538,2.094,2.094,0,0,0,1.344-1.876h0a4.583,4.583,0,0,0,5.627-.819,2.257,2.257,0,0,0,2.051-2.413" transform="translate(-93.536 -234.34)" fill="none" stroke="#62c9d5" stroke-linecap="round" stroke-linejoin="round" stroke-width="0.717"/>
      <path id="Path_10257" data-name="Path 10257" d="M134.46,331.92a2.132,2.132,0,0,0,1.332,2.382,6.252,6.252,0,0,0,2.945.281,1.838,1.838,0,0,0,2.244.863" transform="translate(-75.193 -231.098)" fill="none" stroke="#62c9d5" stroke-linecap="round" stroke-linejoin="round" stroke-width="0.717"/>
      <path id="Path_10258" data-name="Path 10258" d="M106.14,335.31a1.617,1.617,0,0,0-1.375,2.057,2.538,2.538,0,0,0,2.176,1.625,6.138,6.138,0,0,0,2.8-.519,12.962,12.962,0,0,1,2.726-.882,2.425,2.425,0,0,0,2.451,1.594,7.046,7.046,0,0,0,2.97-.981,3.126,3.126,0,0,0,4.095,1.007" transform="translate(-64.066 -232.369)" fill="none" stroke="#62c9d5" stroke-linecap="round" stroke-linejoin="round" stroke-width="0.717"/>
      <path id="Path_10259" data-name="Path 10259" d="M102.689,343.194a2.5,2.5,0,0,0-.425,3.87,3.938,3.938,0,0,0,3.939.519,8.753,8.753,0,0,0,3.426-2.063,4.326,4.326,0,0,0,1.363-2.351,2.2,2.2,0,0,0-1.107-2.319" transform="translate(-62.878 -234.445)" fill="none" stroke="#62c9d5" stroke-linecap="round" stroke-linejoin="round" stroke-width="0.717"/>
      <path id="Path_10260" data-name="Path 10260" d="M114.13,346.715a9.659,9.659,0,0,0,5.07-.875,6.946,6.946,0,0,0,2.094-1.45,2.019,2.019,0,0,0,.588-2.219" transform="translate(-67.598 -234.94)" fill="none" stroke="#62c9d5" stroke-linecap="round" stroke-linejoin="round" stroke-width="0.717"/>
      <path id="Path_10261" data-name="Path 10261" d="M112.784,351.17a.581.581,0,0,0,0,.681,1.969,1.969,0,0,0,.863.763,3.751,3.751,0,0,0,3.5,0" transform="translate(-67.052 -238.314)" fill="none" stroke="#62c9d5" stroke-linecap="round" stroke-linejoin="round" stroke-width="0.717"/>
      <path id="Path_10262" data-name="Path 10262" d="M104.057,352.78a1.15,1.15,0,0,0-.1,1.657,3.857,3.857,0,0,0,1.876,1.107c2.326.419,4.126-.106,6.658-1.413" transform="translate(-63.671 -238.917)" fill="none" stroke="#62c9d5" stroke-linecap="round" stroke-linejoin="round" stroke-width="0.717"/>
      <path id="Path_10263" data-name="Path 10263" d="M119.736,349.06l.175.15a1.082,1.082,0,0,0,0,1.25,2.094,2.094,0,0,0,1.125.719,8.221,8.221,0,0,0,3.295.088l-.388.038" transform="translate(-69.69 -237.523)" fill="none" stroke="#62c9d5" stroke-linecap="round" stroke-linejoin="round" stroke-width="0.717"/>
      <path id="Path_10264" data-name="Path 10264" d="M118.259,358.16c-.031.444.438.744.856.869a4.176,4.176,0,0,0,2.269.031" transform="translate(-69.145 -240.934)" fill="none" stroke="#62c9d5" stroke-linecap="round" stroke-linejoin="round" stroke-width="0.717"/>
      <path id="Path_10265" data-name="Path 10265" d="M119.25,356c.294.913,1.213,1.107,2.038,1.25a6.665,6.665,0,0,0,2.888-.25" transform="translate(-69.517 -240.124)" fill="none" stroke="#62c9d5" stroke-linecap="round" stroke-linejoin="round" stroke-width="0.717"/>
      <path id="Path_10266" data-name="Path 10266" d="M129.31,354.454a7.42,7.42,0,0,0,4.332.338,4.87,4.87,0,0,0,2.976-1.507,2.751,2.751,0,0,0,.75-2.182,1.75,1.75,0,0,0-1.588-1.513" transform="translate(-73.288 -237.721)" fill="none" stroke="#62c9d5" stroke-linecap="round" stroke-linejoin="round" stroke-width="0.717"/>
      <path id="Path_10267" data-name="Path 10267" d="M127.54,355.32a1.982,1.982,0,0,0,.444.781" transform="translate(-72.625 -239.869)" fill="none" stroke="#62c9d5" stroke-linecap="round" stroke-linejoin="round" stroke-width="0.717"/>
      <path id="Path_10268" data-name="Path 10268" d="M130.225,349.83a5.871,5.871,0,0,0-2.5,1.607,2.094,2.094,0,0,0-.313,1.357" transform="translate(-72.572 -237.811)" fill="none" stroke="#62c9d5" stroke-linecap="round" stroke-linejoin="round" stroke-width="0.717"/>
      <path id="Path_10269" data-name="Path 10269" d="M141.29,349.26a1.944,1.944,0,0,1,1.163,2.426" transform="translate(-77.779 -237.598)" fill="none" stroke="#62c9d5" stroke-linecap="round" stroke-linejoin="round" stroke-width="0.717"/>
      <path id="Path_10270" data-name="Path 10270" d="M140.367,353.48a8.046,8.046,0,0,1,3.926,1.219,2.363,2.363,0,0,1,1.182,1.388,1.876,1.876,0,0,1-.957,1.876,4.858,4.858,0,0,1-2.151.531,10.177,10.177,0,0,1-3.2-.15,4.477,4.477,0,0,1-2.657-1.694" transform="translate(-75.987 -239.179)" fill="none" stroke="#62c9d5" stroke-linecap="round" stroke-linejoin="round" stroke-width="0.717"/>
      <path id="Path_10271" data-name="Path 10271" d="M138.76,358.66a6.64,6.64,0,0,0,6.308.381" transform="translate(-76.83 -241.121)" fill="none" stroke="#62c9d5" stroke-linecap="round" stroke-linejoin="round" stroke-width="0.717"/>
      <path id="Path_10272" data-name="Path 10272" d="M134.389,358.94a1.732,1.732,0,0,0-.625,2.807,2.838,2.838,0,0,0,1.4.7,7.7,7.7,0,0,0,3.695,0" transform="translate(-74.779 -241.226)" fill="none" stroke="#62c9d5" stroke-linecap="round" stroke-linejoin="round" stroke-width="0.717"/>
      <path id="Path_10273" data-name="Path 10273" d="M142,362.385a2.789,2.789,0,0,0,1.419,1.038,2.844,2.844,0,0,0,2.5-.181,1.876,1.876,0,0,0,.744-2.232" transform="translate(-78.045 -242.002)" fill="none" stroke="#62c9d5" stroke-linecap="round" stroke-linejoin="round" stroke-width="0.717"/>
      <path id="Path_10274" data-name="Path 10274" d="M143.87,363.35a2.088,2.088,0,0,0,2.394.225" transform="translate(-78.746 -242.879)" fill="none" stroke="#62c9d5" stroke-linecap="round" stroke-linejoin="round" stroke-width="0.717"/>
      <path id="Path_10275" data-name="Path 10275" d="M134.536,361c-.25.857.694,1.494,2.007,1.719" transform="translate(-75.232 -241.998)" fill="none" stroke="#62c9d5" stroke-linecap="round" stroke-linejoin="round" stroke-width="0.717"/>
      <path id="Path_10276" data-name="Path 10276" d="M121.81,350.56c.45.681,2.376.494,3.82.294" transform="translate(-70.477 -238.085)" fill="none" stroke="#62c9d5" stroke-linecap="round" stroke-linejoin="round" stroke-width="0.717"/>
      <path id="Path_10277" data-name="Path 10277" d="M119.53,354.123a1.875,1.875,0,0,1,1.876-1.344h-.163" transform="translate(-69.622 -238.916)" fill="none" stroke="#62c9d5" stroke-linecap="round" stroke-linejoin="round" stroke-width="0.717"/>
      <path id="Path_10278" data-name="Path 10278" d="M120.6,355.08a.688.688,0,0,0,.356.675,1.782,1.782,0,0,0,.781.194,12.047,12.047,0,0,0,2.726-.069" transform="translate(-70.021 -239.779)" fill="none" stroke="#62c9d5" stroke-linecap="round" stroke-linejoin="round" stroke-width="0.717"/>
      <path id="Path_10279" data-name="Path 10279" d="M103.19,347.963a6.283,6.283,0,0,0,6.789-2.613" transform="translate(-63.498 -236.132)" fill="none" stroke="#62c9d5" stroke-linecap="round" stroke-linejoin="round" stroke-width="0.717"/>
      <path id="Path_10280" data-name="Path 10280" d="M105.29,354.38c.2.456,1.082.681,1.575.763a5.183,5.183,0,0,0,3.332-.275" transform="translate(-64.285 -239.517)" fill="none" stroke="#62c9d5" stroke-linecap="round" stroke-linejoin="round" stroke-width="0.717"/>
      <path id="Path_10281" data-name="Path 10281" d="M114.22,351.65a2.46,2.46,0,0,0,2.551.656" transform="translate(-67.632 -238.493)" fill="none" stroke="#62c9d5" stroke-linecap="round" stroke-linejoin="round" stroke-width="0.717"/>
      <path id="Path_10282" data-name="Path 10282" d="M116.38,345.871c2.076.169,5-1.475,5.339-2.651" transform="translate(-68.442 -235.334)" fill="none" stroke="#62c9d5" stroke-linecap="round" stroke-linejoin="round" stroke-width="0.717"/>
      <path id="Path_10283" data-name="Path 10283" d="M146.794,350.547a2.707,2.707,0,0,1,.1-4.676,7.239,7.239,0,0,1,3.982-.688,4.657,4.657,0,0,1,3.388,1.757,3.176,3.176,0,0,1,.1,3.676" transform="translate(-79.357 -236.052)" fill="none" stroke="#62c9d5" stroke-linecap="round" stroke-linejoin="round" stroke-width="0.717"/>
      <path id="Path_10284" data-name="Path 10284" d="M146.54,349.1c0,2.263,2.282,2.8,3.832,2.876s3.32-.106,4.27-2.019" transform="translate(-79.746 -237.538)" fill="none" stroke="#62c9d5" stroke-linecap="round" stroke-linejoin="round" stroke-width="0.717"/>
      <path id="Path_10285" data-name="Path 10285" d="M150.25,354.88a7.121,7.121,0,0,0,4.908,0" transform="translate(-81.137 -239.704)" fill="none" stroke="#62c9d5" stroke-linecap="round" stroke-linejoin="round" stroke-width="0.717"/>
      <path id="Path_10286" data-name="Path 10286" d="M158,355.71a1.213,1.213,0,0,1,.688,1.669" transform="translate(-84.042 -240.015)" fill="none" stroke="#62c9d5" stroke-linecap="round" stroke-linejoin="round" stroke-width="0.717"/>
      <path id="Path_10287" data-name="Path 10287" d="M150.93,360a5.04,5.04,0,0,0,3.207.281" transform="translate(-81.392 -241.623)" fill="none" stroke="#62c9d5" stroke-linecap="round" stroke-linejoin="round" stroke-width="0.717"/>
      <path id="Path_10288" data-name="Path 10288" d="M152,358.73a3.52,3.52,0,0,0,3.5-.45" transform="translate(-81.793 -240.979)" fill="none" stroke="#62c9d5" stroke-linecap="round" stroke-linejoin="round" stroke-width="0.717"/>
      <path id="Path_10289" data-name="Path 10289" d="M161.23,357.51a3.751,3.751,0,0,0,2.626.381" transform="translate(-85.253 -240.69)" fill="none" stroke="#62c9d5" stroke-linecap="round" stroke-linejoin="round" stroke-width="0.717"/>
      <path id="Path_10290" data-name="Path 10290" d="M159.45,354.362a.775.775,0,0,1,.8-.475" transform="translate(-84.585 -239.33)" fill="none" stroke="#62c9d5" stroke-linecap="round" stroke-linejoin="round" stroke-width="0.717"/>
      <path id="Path_10291" data-name="Path 10291" d="M160.77,352.52a3.338,3.338,0,0,0,3.245,2.1" transform="translate(-85.08 -238.82)" fill="none" stroke="#62c9d5" stroke-linecap="round" stroke-linejoin="round" stroke-width="0.717"/>
      <path id="Path_10292" data-name="Path 10292" d="M167.41,354.718a6.252,6.252,0,0,0,3.42.125,3.482,3.482,0,0,0,2.426-2.263" transform="translate(-87.569 -238.842)" fill="none" stroke="#62c9d5" stroke-linecap="round" stroke-linejoin="round" stroke-width="0.717"/>
      <path id="Path_10293" data-name="Path 10293" d="M161.314,348.571a5.12,5.12,0,0,0,6.2.281,3.526,3.526,0,0,0,1.344-1.769,2.213,2.213,0,0,0-.413-2.119,3.188,3.188,0,0,0-2.394-.781,10.807,10.807,0,0,0-2.895.394,4.057,4.057,0,0,0-1.832.95,1.826,1.826,0,0,0-.475,1.919" transform="translate(-85.074 -235.689)" fill="none" stroke="#62c9d5" stroke-linecap="round" stroke-linejoin="round" stroke-width="0.717"/>
      <path id="Path_10294" data-name="Path 10294" d="M128.17,353.34c.119.857.994,1.394,1.832,1.632a6.4,6.4,0,0,0,6.014-1.475" transform="translate(-72.861 -239.127)" fill="none" stroke="#62c9d5" stroke-linecap="round" stroke-linejoin="round" stroke-width="0.717"/>
      <path id="Path_10295" data-name="Path 10295" d="M167.73,353.976c1.607.438,4.164.294,5.233-1.876" transform="translate(-87.689 -238.662)" fill="none" stroke="#62c9d5" stroke-linecap="round" stroke-linejoin="round" stroke-width="0.717"/>
      <path id="Path_10296" data-name="Path 10296" d="M162.05,349.374a5.151,5.151,0,0,0,6.583-.694" transform="translate(-85.56 -237.38)" fill="none" stroke="#62c9d5" stroke-linecap="round" stroke-linejoin="round" stroke-width="0.717"/>
      <path id="Path_10297" data-name="Path 10297" d="M174.58,349a1.457,1.457,0,0,1,1.519,1.407,1.532,1.532,0,0,1,.625,2.932h.181" transform="translate(-90.256 -237.499)" fill="none" stroke="#62c9d5" stroke-linecap="round" stroke-linejoin="round" stroke-width="0.717"/>
      <path id="Path_10298" data-name="Path 10298" d="M210.7,328.573a2.226,2.226,0,0,1-.625,1.782,3.468,3.468,0,0,1-3.457.463,7.672,7.672,0,0,1-3-1.813,3.807,3.807,0,0,1-1.194-2.057,1.926,1.926,0,0,1,.969-2.038" transform="translate(-100.68 -228.471)" fill="none" stroke="#62c9d5" stroke-linecap="round" stroke-linejoin="round" stroke-width="0.717"/>
      <path id="Path_10299" data-name="Path 10299" d="M200.5,330.064a8.353,8.353,0,0,1-4.445-.769,5.914,5.914,0,0,1-1.838-1.25,1.776,1.776,0,0,1-.519-1.944" transform="translate(-97.384 -228.917)" fill="none" stroke="#62c9d5" stroke-linecap="round" stroke-linejoin="round" stroke-width="0.717"/>
      <path id="Path_10300" data-name="Path 10300" d="M203.47,334a.519.519,0,0,1,0,.625,1.712,1.712,0,0,1-.75.663,3.307,3.307,0,0,1-3.07,0" transform="translate(-99.653 -231.878)" fill="none" stroke="#62c9d5" stroke-linecap="round" stroke-linejoin="round" stroke-width="0.717"/>
      <path id="Path_10301" data-name="Path 10301" d="M208.816,335.37a1,1,0,0,1,.094,1.45,3.351,3.351,0,0,1-1.65.969c-2.038.369-3.626-.088-5.839-1.25" transform="translate(-100.317 -232.391)" fill="none" stroke="#62c9d5" stroke-linecap="round" stroke-linejoin="round" stroke-width="0.717"/>
      <path id="Path_10302" data-name="Path 10302" d="M197.292,332.11l-.156.131a.932.932,0,0,1,0,1.107,1.832,1.832,0,0,1-.982.625,7.263,7.263,0,0,1-2.895.075l.344.037" transform="translate(-97.258 -231.169)" fill="none" stroke="#62c9d5" stroke-linecap="round" stroke-linejoin="round" stroke-width="0.717"/>
      <path id="Path_10303" data-name="Path 10303" d="M201,339.55c0,.388-.388.625-.756.763a3.62,3.62,0,0,1-1.982,0" transform="translate(-99.132 -233.958)" fill="none" stroke="#62c9d5" stroke-linecap="round" stroke-linejoin="round" stroke-width="0.717"/>
      <path id="Path_10304" data-name="Path 10304" d="M197.556,338.16c-.256.8-1.063.969-1.794,1.075a5.87,5.87,0,0,1-2.532-.219" transform="translate(-97.247 -233.437)" fill="none" stroke="#62c9d5" stroke-linecap="round" stroke-linejoin="round" stroke-width="0.717"/>
      <path id="Path_10305" data-name="Path 10305" d="M187.111,336.84a6.405,6.405,0,0,1-3.8.294,4.314,4.314,0,0,1-2.594-1.319,2.426,2.426,0,0,1-.625-1.919,1.538,1.538,0,0,1,1.394-1.325" transform="translate(-92.316 -231.342)" fill="none" stroke="#62c9d5" stroke-linecap="round" stroke-linejoin="round" stroke-width="0.717"/>
      <path id="Path_10306" data-name="Path 10306" d="M189,332.78a5.214,5.214,0,0,1,2.2,1.407,1.875,1.875,0,0,1,.275,1.194" transform="translate(-95.661 -231.42)" fill="none" stroke="#62c9d5" stroke-linecap="round" stroke-linejoin="round" stroke-width="0.717"/>
      <path id="Path_10307" data-name="Path 10307" d="M180.166,332.28a1.7,1.7,0,0,0-1.019,2.132" transform="translate(-91.935 -231.233)" fill="none" stroke="#62c9d5" stroke-linecap="round" stroke-linejoin="round" stroke-width="0.717"/>
      <path id="Path_10308" data-name="Path 10308" d="M176.915,336a7.077,7.077,0,0,0-3.445,1.069,2.088,2.088,0,0,0-1.038,1.219,1.619,1.619,0,0,0,.844,1.632,4.214,4.214,0,0,0,1.876.469,8.8,8.8,0,0,0,2.807-.131,3.945,3.945,0,0,0,2.326-1.488" transform="translate(-89.447 -232.627)" fill="none" stroke="#62c9d5" stroke-linecap="round" stroke-linejoin="round" stroke-width="0.717"/>
      <path id="Path_10309" data-name="Path 10309" d="M179.687,340.53a5.812,5.812,0,0,1-5.527.331" transform="translate(-90.099 -234.325)" fill="none" stroke="#62c9d5" stroke-linecap="round" stroke-linejoin="round" stroke-width="0.717"/>
      <path id="Path_10310" data-name="Path 10310" d="M183.927,340.77a1.563,1.563,0,0,1,.919,1.088,1.538,1.538,0,0,1-.388,1.375,2.557,2.557,0,0,1-1.25.625,6.757,6.757,0,0,1-3.238,0" transform="translate(-92.277 -234.415)" fill="none" stroke="#62c9d5" stroke-linecap="round" stroke-linejoin="round" stroke-width="0.717"/>
      <path id="Path_10311" data-name="Path 10311" d="M177.722,343.8a2.414,2.414,0,0,1-1.25.906,2.5,2.5,0,0,1-2.169-.156,1.625,1.625,0,0,1-.656-1.957" transform="translate(-89.866 -235.098)" fill="none" stroke="#62c9d5" stroke-linecap="round" stroke-linejoin="round" stroke-width="0.717"/>
      <path id="Path_10312" data-name="Path 10312" d="M196.692,333.48a4.7,4.7,0,0,1-2.382.294" transform="translate(-97.652 -231.683)" fill="none" stroke="#62c9d5" stroke-linecap="round" stroke-linejoin="round" stroke-width="0.717"/>
      <path id="Path_10313" data-name="Path 10313" d="M198.914,336.551a1.657,1.657,0,0,0-1.644-1.182h.144" transform="translate(-98.761 -232.391)" fill="none" stroke="#62c9d5" stroke-linecap="round" stroke-linejoin="round" stroke-width="0.717"/>
      <path id="Path_10314" data-name="Path 10314" d="M196.769,337.41a.475.475,0,0,1-.25.469,1.25,1.25,0,0,1-.544.138,8.455,8.455,0,0,1-1.876-.05" transform="translate(-97.573 -233.156)" fill="none" stroke="#62c9d5" stroke-linecap="round" stroke-linejoin="round" stroke-width="0.717"/>
      <path id="Path_10315" data-name="Path 10315" d="M210.652,331.148a5.508,5.508,0,0,1-5.952-2.288" transform="translate(-101.546 -229.951)" fill="none" stroke="#62c9d5" stroke-linecap="round" stroke-linejoin="round" stroke-width="0.717"/>
      <path id="Path_10316" data-name="Path 10316" d="M209.807,336.78c-.181.394-.957.625-1.382.663a4.583,4.583,0,0,1-2.926-.238" transform="translate(-101.846 -232.92)" fill="none" stroke="#62c9d5" stroke-linecap="round" stroke-linejoin="round" stroke-width="0.717"/>
      <path id="Path_10317" data-name="Path 10317" d="M203.218,334.38a2.127,2.127,0,0,1-2.238.575" transform="translate(-100.152 -232.02)" fill="none" stroke="#62c9d5" stroke-linecap="round" stroke-linejoin="round" stroke-width="0.717"/>
      <path id="Path_10318" data-name="Path 10318" d="M199.853,329.309c-1.819.15-4.376-1.288-4.683-2.319" transform="translate(-97.974 -229.25)" fill="none" stroke="#62c9d5" stroke-linecap="round" stroke-linejoin="round" stroke-width="0.717"/>
      <path id="Path_10319" data-name="Path 10319" d="M171.058,333.417a2.382,2.382,0,0,0-.088-4.107,6.364,6.364,0,0,0-3.495-.594,4.064,4.064,0,0,0-2.97,1.538,2.794,2.794,0,0,0-.088,3.226" transform="translate(-86.271 -229.881)" fill="none" stroke="#62c9d5" stroke-linecap="round" stroke-linejoin="round" stroke-width="0.717"/>
      <path id="Path_10320" data-name="Path 10320" d="M171.958,332.15c0,1.982-2,2.457-3.357,2.5s-2.913-.094-3.751-1.775" transform="translate(-86.609 -231.184)" fill="none" stroke="#62c9d5" stroke-linecap="round" stroke-linejoin="round" stroke-width="0.717"/>
      <path id="Path_10321" data-name="Path 10321" d="M170.421,337.21a6.252,6.252,0,0,1-4.3,0" transform="translate(-87.085 -233.081)" fill="none" stroke="#62c9d5" stroke-linecap="round" stroke-linejoin="round" stroke-width="0.717"/>
      <path id="Path_10322" data-name="Path 10322" d="M165.7,337.94a1.056,1.056,0,0,0-.625,1.463" transform="translate(-86.655 -233.355)" fill="none" stroke="#62c9d5" stroke-linecap="round" stroke-linejoin="round" stroke-width="0.717"/>
      <path id="Path_10323" data-name="Path 10323" d="M170.69,341.71a4.417,4.417,0,0,1-2.82.244" transform="translate(-87.741 -234.768)" fill="none" stroke="#62c9d5" stroke-linecap="round" stroke-linejoin="round" stroke-width="0.717"/>
      <path id="Path_10324" data-name="Path 10324" d="M168.878,340.415a3.126,3.126,0,0,1-3.038-.625" transform="translate(-86.981 -234.048)" fill="none" stroke="#62c9d5" stroke-linecap="round" stroke-linejoin="round" stroke-width="0.717"/>
      <path id="Path_10325" data-name="Path 10325" d="M162.583,338.39a5,5,0,0,1-2.663.588" transform="translate(-84.762 -233.523)" fill="none" stroke="#62c9d5" stroke-linecap="round" stroke-linejoin="round" stroke-width="0.717"/>
      <path id="Path_10326" data-name="Path 10326" d="M162.035,335.15a2.932,2.932,0,0,1-2.845,1.838" transform="translate(-84.488 -232.309)" fill="none" stroke="#62c9d5" stroke-linecap="round" stroke-linejoin="round" stroke-width="0.717"/>
      <path id="Path_10327" data-name="Path 10327" d="M155.168,336.548a5.326,5.326,0,0,1-2.832.569,2.951,2.951,0,0,1-2.326-1.557" transform="translate(-81.047 -232.463)" fill="none" stroke="#62c9d5" stroke-linecap="round" stroke-linejoin="round" stroke-width="0.717"/>
      <path id="Path_10328" data-name="Path 10328" d="M122.59,321.25a1.588,1.588,0,0,0,1.138,1.357,4.576,4.576,0,0,0,1.876.125,1.825,1.825,0,0,0-.838,2.3,2.963,2.963,0,0,0,2.026,1.638,8.253,8.253,0,0,0,2.688.138" transform="translate(-70.769 -227.099)" fill="none" stroke="#62c9d5" stroke-linecap="round" stroke-linejoin="round" stroke-width="0.717"/>
      <path id="Path_10329" data-name="Path 10329" d="M158.973,331.676a4.476,4.476,0,0,1-5.433.25,3.088,3.088,0,0,1-1.182-1.55,1.932,1.932,0,0,1,.363-1.876,2.769,2.769,0,0,1,2.1-.688,9.336,9.336,0,0,1,2.5.344,3.57,3.57,0,0,1,1.613.838,1.588,1.588,0,0,1,.413,1.675" transform="translate(-81.889 -229.554)" fill="none" stroke="#62c9d5" stroke-linecap="round" stroke-linejoin="round" stroke-width="0.717"/>
      <path id="Path_10330" data-name="Path 10330" d="M187.985,336.14c-.081.625-.713,1.007-1.313,1.175a4.6,4.6,0,0,1-4.332-1.063" transform="translate(-93.165 -232.68)" fill="none" stroke="#62c9d5" stroke-linecap="round" stroke-linejoin="round" stroke-width="0.717"/>
      <path id="Path_10331" data-name="Path 10331" d="M159.16,332.375a4.5,4.5,0,0,1-5.77-.625" transform="translate(-82.314 -231.034)" fill="none" stroke="#62c9d5" stroke-linecap="round" stroke-linejoin="round" stroke-width="0.717"/>
      <path id="Path_10332" data-name="Path 10332" d="M150.042,332.088a1.25,1.25,0,0,0-1.332,1.25,1.338,1.338,0,0,0-.519,2.569h-.163" transform="translate(-80.06 -231.16)" fill="none" stroke="#62c9d5" stroke-linecap="round" stroke-linejoin="round" stroke-width="0.717"/>
      <path id="Path_10333" data-name="Path 10333" d="M102.23,293.3a3.1,3.1,0,0,1,4.376,1.475c1.213,2.5,1.213,2.5,2.069,6.214.088-6.614,2.3-9.44,6.439-11.5-5.627,1.657-6.664-4.8-6.664-4.8s-1.044,4.12-2.051,5.208a18.954,18.954,0,0,1-4.17,3.407Z" transform="translate(-63.138 -213.395)" fill="#fff"/>
      <path id="Path_10334" data-name="Path 10334" d="M183.62,283.687a1.994,1.994,0,0,1,2.807.944,12.359,12.359,0,0,1,1.332,3.995c.056-4.245,1.475-6.064,4.132-7.39-3.632,1.069-4.282-3.076-4.282-3.076a6.973,6.973,0,0,1-3.989,5.527Z" transform="translate(-93.645 -210.948)" fill="#fff"/>
      <path id="Path_10335" data-name="Path 10335" d="M86.06,364.426a1.782,1.782,0,0,1,2.5.856,10.972,10.972,0,0,1,1.213,3.589c.05-3.82,1.325-5.452,3.72-6.646-3.27.957-3.851-2.776-3.851-2.776a11.8,11.8,0,0,1-1.182,3.013A11.179,11.179,0,0,1,86.06,364.426Z" transform="translate(-57.077 -241.417)" fill="#fff"/>
      <path id="Path_10336" data-name="Path 10336" d="M236,355.89a1.644,1.644,0,0,1,2.313.781,10.334,10.334,0,0,1,1.1,3.3c.05-3.507,1.25-5,3.42-6.1-3,.875-3.538-2.551-3.538-2.551a9.862,9.862,0,0,1-1.088,2.763A10.038,10.038,0,0,1,236,355.89Z" transform="translate(-113.278 -238.37)" fill="#fff"/>
      <path id="Path_10337" data-name="Path 10337" d="M159,388.108a2.876,2.876,0,0,1,4.057,1.369,17.815,17.815,0,0,1,1.926,5.783c.081-6.152,2.138-8.752,5.989-10.7-5.258,1.544-6.2-4.464-6.2-4.464s-.969,3.832-1.907,4.845a17.567,17.567,0,0,1-3.87,3.163Z" transform="translate(-84.417 -249.157)" fill="#fff"/>
      <path id="Path_10338" data-name="Path 10338" d="M146.77,269.955a3.207,3.207,0,0,1,4.539,1.532c1.25,2.576,1.25,2.576,2.151,6.458.094-6.877,2.388-9.809,6.689-11.953-5.87,1.725-6.927-5-6.927-5s-1.082,4.282-2.126,5.414A19.775,19.775,0,0,1,146.77,269.955Z" transform="translate(-79.833 -204.512)" fill="#fff"/>
      <line id="Line_53" data-name="Line 53" x1="9.278" y2="7.433" transform="translate(116.808 40.811)" fill="#fff" stroke="#263238" stroke-linecap="round" stroke-linejoin="round" stroke-width="1"/>
      <line id="Line_54" data-name="Line 54" x1="2.526" y2="2.026" transform="translate(127.379 37.748)" fill="#fff" stroke="#263238" stroke-linecap="round" stroke-linejoin="round" stroke-width="1"/>
      <line id="Line_55" data-name="Line 55" x1="7.333" y2="7.952" transform="translate(108.018 34.828)" fill="#fff" stroke="#263238" stroke-linecap="round" stroke-linejoin="round" stroke-width="1"/>
      <line id="Line_56" data-name="Line 56" x1="10.415" y2="16.373" transform="translate(99.234 20.95)" fill="#fff" stroke="#263238" stroke-linecap="round" stroke-linejoin="round" stroke-width="1"/>
      <line id="Line_57" data-name="Line 57" x1="3.013" y2="7.683" transform="translate(90.444 24.182)" fill="#fff" stroke="#263238" stroke-linecap="round" stroke-linejoin="round" stroke-width="1"/>
      <line id="Line_58" data-name="Line 58" x1="1.007" y2="2.569" transform="translate(93.995 20.224)" fill="#fff" stroke="#263238" stroke-linecap="round" stroke-linejoin="round" stroke-width="1"/>
      <line id="Line_59" data-name="Line 59" x1="1.969" y2="10.497" transform="translate(81.66 15.911)" fill="#fff" stroke="#263238" stroke-linecap="round" stroke-linejoin="round" stroke-width="1"/>
      <line id="Line_60" data-name="Line 60" x1="0.419" y2="2.201" transform="translate(83.63 13.71)" fill="#fff" stroke="#263238" stroke-linecap="round" stroke-linejoin="round" stroke-width="1"/>
      <line id="Line_61" data-name="Line 61" x1="0.163" y2="15.598" transform="translate(72.87 5.352)" fill="#fff" stroke="#263238" stroke-linecap="round" stroke-linejoin="round" stroke-width="1"/>
      <line id="Line_62" data-name="Line 62" x1="0.031" y2="2.92" transform="translate(73.058)" fill="#fff" stroke="#263238" stroke-linecap="round" stroke-linejoin="round" stroke-width="1"/>
      <line id="Line_63" data-name="Line 63" x2="5.952" y2="1.994" transform="translate(11.484 63.58)" fill="#fff" stroke="#263238" stroke-linecap="round" stroke-linejoin="round" stroke-width="1"/>
      <line id="Line_64" data-name="Line 64" x2="1.469" y2="0.494" transform="translate(8.602 62.617)" fill="#fff" stroke="#263238" stroke-linecap="round" stroke-linejoin="round" stroke-width="1"/>
      <line id="Line_65" data-name="Line 65" x2="5.695" y2="1.913" transform="translate(0 59.735)" fill="#fff" stroke="#263238" stroke-linecap="round" stroke-linejoin="round" stroke-width="1"/>
      <line id="Line_66" data-name="Line 66" x2="5.952" y2="3.557" transform="translate(17.442 53.809)" fill="#fff" stroke="#263238" stroke-linecap="round" stroke-linejoin="round" stroke-width="1"/>
      <line id="Line_67" data-name="Line 67" x2="4.082" y2="2.438" transform="translate(11.484 50.252)" fill="#fff" stroke="#263238" stroke-linecap="round" stroke-linejoin="round" stroke-width="1"/>
      <line id="Line_68" data-name="Line 68" x2="10.103" y2="8.609" transform="translate(22.05 38.805)" fill="#fff" stroke="#263238" stroke-linecap="round" stroke-linejoin="round" stroke-width="1"/>
      <line id="Line_69" data-name="Line 69" x2="3.107" y2="2.644" transform="translate(16.655 34.21)" fill="#fff" stroke="#263238" stroke-linecap="round" stroke-linejoin="round" stroke-width="1"/>
      <line id="Line_70" data-name="Line 70" x2="7.465" y2="9.396" transform="translate(34.322 29.971)" fill="#fff" stroke="#263238" stroke-linecap="round" stroke-linejoin="round" stroke-width="1"/>
      <line id="Line_71" data-name="Line 71" x2="0.963" y2="1.932" transform="translate(51.627 30.64)" fill="#fff" stroke="#263238" stroke-linecap="round" stroke-linejoin="round" stroke-width="1"/>
      <line id="Line_72" data-name="Line 72" x2="5.714" y2="11.497" transform="translate(44.306 15.911)" fill="#fff" stroke="#263238" stroke-linecap="round" stroke-linejoin="round" stroke-width="1"/>
      <line id="Line_73" data-name="Line 73" x2="3.013" y2="11.678" transform="translate(58.673 12.391)" fill="#fff" stroke="#263238" stroke-linecap="round" stroke-linejoin="round" stroke-width="1"/>
    </g>
    <g id="freepik--Clouds--inject-751" transform="translate(62.344 70.097)">
      <path id="Path_10339" data-name="Path 10339" d="M133.961,127.792a4.626,4.626,0,0,1-1.8-2.407c-.581-2.676-.525-2.745-.975-5.433-.875-5.226-7.2-10.278-14.548-6.352,1.388-2.007-1.188-6.352-4.439-6.314a5.326,5.326,0,0,0-4.72,2.5s-4.02-5.964-12.31-2.832c-3.889,1.475-5.527,4.639-5.314,8.421a5.245,5.245,0,0,0-6.208.575,4.007,4.007,0,0,0,0,5.627,5.4,5.4,0,0,0-6.689.575,4.151,4.151,0,0,0,.125,5.627Z" transform="translate(-75.92 -87.021)" fill="none" stroke="#263238" stroke-linecap="round" stroke-linejoin="round" stroke-width="1"/>
      <path id="Path_10340" data-name="Path 10340" d="M102.63,118a5.833,5.833,0,0,0-.106,1.507" transform="translate(-85.888 -91.501)" fill="none" stroke="#263238" stroke-linecap="round" stroke-linejoin="round" stroke-width="1"/>
      <path id="Path_10341" data-name="Path 10341" d="M112.745,109.832a8.127,8.127,0,0,0-7.371,1.057,6.564,6.564,0,0,0-2.144,2.795" transform="translate(-86.157 -88.272)" fill="none" stroke="#263238" stroke-linecap="round" stroke-linejoin="round" stroke-width="1"/>
      <path id="Path_10342" data-name="Path 10342" d="M362.667,97.33c-2.2-1.063-5.439-3.445-7.7-8.752-1.044-2.444-4.039-4.264-6.527-3.313-3.951-8.615-11.559-3.251-11.559-3.251a12.991,12.991,0,0,0-24.025,8.621.925.925,0,1,0-1.569.919c-4.376-1.407-9.49,1.482-10.891,5.764Z" transform="translate(-160.061 -75.614)" fill="none" stroke="#263238" stroke-linecap="round" stroke-linejoin="round" stroke-width="1"/>
      <path id="Path_10343" data-name="Path 10343" d="M339,81.146a8.5,8.5,0,0,1,1.782.056" transform="translate(-174.529 -77.679)" fill="none" stroke="#263238" stroke-linecap="round" stroke-linejoin="round" stroke-width="1"/>
      <path id="Path_10344" data-name="Path 10344" d="M325.87,90.014a8.684,8.684,0,0,1,7-8.584" transform="translate(-169.608 -77.794)" fill="none" stroke="#263238" stroke-linecap="round" stroke-linejoin="round" stroke-width="1"/>
      <path id="Path_10345" data-name="Path 10345" d="M326.463,98.926A8.241,8.241,0,0,1,326,97" transform="translate(-169.657 -83.63)" fill="none" stroke="#263238" stroke-linecap="round" stroke-linejoin="round" stroke-width="1"/>
    </g>
  </g>
</svg>
